<svg xmlns="http://www.w3.org/2000/svg" xmlns:xlink="http://www.w3.org/1999/xlink" viewBox="0 0 317.22 320.43"><defs><style>.cls-1{isolation:isolate;}.cls-2,.cls-61{fill:#9094cd;}.cls-2{opacity:0.1;}.cls-3{fill:url(#linear-gradient);}.cls-4,.cls-83{opacity:0.2;}.cls-4{fill:url(#linear-gradient-2);}.cls-11,.cls-5,.cls-84{opacity:0.5;}.cls-5{fill:url(#linear-gradient-3);}.cls-6{fill:url(#linear-gradient-4);}.cls-7{fill:url(#linear-gradient-5);}.cls-8{fill:url(#linear-gradient-6);}.cls-15,.cls-9{fill:#afb6e5;}.cls-10{fill:#4d4c63;}.cls-10,.cls-71{opacity:0.7;}.cls-10,.cls-14,.cls-28,.cls-57{mix-blend-mode:multiply;}.cls-11,.cls-56,.cls-72,.cls-75{mix-blend-mode:color-dodge;}.cls-12{fill:url(#Radial_Gradient_1);}.cls-13{fill:url(#Radial_Gradient_1-2);}.cls-14{opacity:0.15;}.cls-15{opacity:0;}.cls-16{fill:#9fa5d0;}.cls-16,.cls-58{opacity:0.09;}.cls-17{fill:#8f95bb;}.cls-17,.cls-59{opacity:0.18;}.cls-18{fill:#7f84a7;}.cls-18,.cls-60{opacity:0.27;}.cls-19{fill:#6f7492;}.cls-19,.cls-61{opacity:0.36;}.cls-20{fill:#5f637d;}.cls-20,.cls-62{opacity:0.45;}.cls-21{fill:#505368;}.cls-21,.cls-63{opacity:0.55;}.cls-22{fill:#404253;}.cls-22,.cls-64{opacity:0.64;}.cls-23{fill:#30323e;}.cls-23,.cls-65{opacity:0.73;}.cls-24{fill:#20212a;}.cls-24,.cls-66{opacity:0.82;}.cls-25{fill:#101115;}.cls-25,.cls-67{opacity:0.91;}.cls-26{fill:url(#linear-gradient-7);}.cls-27{fill:url(#linear-gradient-8);}.cls-28{fill:url(#linear-gradient-9);}.cls-29,.cls-71{fill:#fff;}.cls-30{fill:url(#linear-gradient-10);}.cls-31{fill:url(#linear-gradient-11);}.cls-32{fill:url(#linear-gradient-12);}.cls-33{fill:url(#Gradiente_sem_nome_1081);}.cls-34{fill:url(#Gradiente_sem_nome_1080);}.cls-35{fill:url(#Gradiente_sem_nome_1079);}.cls-36{fill:url(#Gradiente_sem_nome_1078);}.cls-37{fill:url(#Gradiente_sem_nome_1077);}.cls-38{fill:url(#Gradiente_sem_nome_1076);}.cls-39{fill:url(#Gradiente_sem_nome_1075);}.cls-40{fill:url(#Gradiente_sem_nome_1074);}.cls-41{fill:url(#Gradiente_sem_nome_1073);}.cls-42{fill:url(#Gradiente_sem_nome_1072);}.cls-43{fill:url(#Gradiente_sem_nome_1071);}.cls-44{fill:url(#Gradiente_sem_nome_1070);}.cls-45{fill:url(#Gradiente_sem_nome_1069);}.cls-46{fill:url(#Gradiente_sem_nome_1068);}.cls-47{fill:url(#Gradiente_sem_nome_1067);}.cls-48{fill:url(#Gradiente_sem_nome_1066);}.cls-49{fill:url(#Gradiente_sem_nome_1065);}.cls-50{fill:url(#Gradiente_sem_nome_1064);}.cls-51{fill:url(#Gradiente_sem_nome_1063);}.cls-52{fill:url(#Gradiente_sem_nome_1062);}.cls-53{fill:url(#linear-gradient-13);}.cls-54{fill:url(#linear-gradient-14);}.cls-55{fill:url(#linear-gradient-15);}.cls-56{fill:url(#Radial_Gradient_1-3);}.cls-57{opacity:0.3;}.cls-58{fill:#a7addf;}.cls-59{fill:#a0a5d9;}.cls-60{fill:#989cd3;}.cls-62{fill:#898bc7;}.cls-63{fill:#8183c1;}.cls-64{fill:#7a7abb;}.cls-65{fill:#7272b5;}.cls-66{fill:#6a69af;}.cls-67{fill:#6361a9;}.cls-68{fill:#5b58a3;}.cls-69{fill:url(#linear-gradient-16);}.cls-70{fill:url(#linear-gradient-17);}.cls-72{fill:url(#radial-gradient);}.cls-73{fill:url(#linear-gradient-18);}.cls-74{fill:url(#linear-gradient-19);}.cls-75{fill:url(#Radial_Gradient_1-4);}.cls-76{fill:url(#linear-gradient-20);}.cls-77{fill:url(#linear-gradient-21);}.cls-78{fill:url(#linear-gradient-22);}.cls-79{fill:url(#linear-gradient-23);}.cls-80{fill:url(#linear-gradient-24);}.cls-81{fill:url(#linear-gradient-25);}.cls-82{fill:url(#linear-gradient-26);}.cls-83{fill:url(#linear-gradient-27);}.cls-84{fill:url(#linear-gradient-28);}.cls-85,.cls-86,.cls-87,.cls-88,.cls-89,.cls-90{mix-blend-mode:screen;}.cls-85{fill:url(#radial-gradient-2);}.cls-86{fill:url(#radial-gradient-3);}.cls-87{fill:url(#radial-gradient-4);}.cls-88{fill:url(#radial-gradient-5);}.cls-89{fill:url(#radial-gradient-6);}.cls-90{fill:url(#radial-gradient-7);}.cls-91{opacity:0.9;}.cls-92{fill:url(#linear-gradient-29);}.cls-93{fill:url(#linear-gradient-30);}</style><linearGradient id="linear-gradient" x1="272.2" y1="248.37" x2="349.22" y2="248.37" gradientUnits="userSpaceOnUse"><stop offset="0" stop-color="#b7bee9"/><stop offset="0.42" stop-color="#b4bbe7"/><stop offset="0.62" stop-color="#afb6e5"/><stop offset="1" stop-color="#afb6e5"/></linearGradient><linearGradient id="linear-gradient-2" x1="274" y1="247.57" x2="347.02" y2="247.57" gradientUnits="userSpaceOnUse"><stop offset="0.02" stop-color="#e5e9ff"/><stop offset="0.66" stop-color="#f5f6ff"/><stop offset="1" stop-color="#fff"/></linearGradient><linearGradient id="linear-gradient-3" x1="274.5" y1="247.47" x2="346.12" y2="247.47" xlink:href="#linear-gradient-2"/><linearGradient id="linear-gradient-4" x1="292.86" y1="268.87" x2="307.9" y2="296.05" gradientUnits="userSpaceOnUse"><stop offset="0" stop-color="#e2e5fb"/><stop offset="0.28" stop-color="#e5e9ff"/><stop offset="0.36" stop-color="#eff2ff"/><stop offset="0.44" stop-color="#fff"/><stop offset="0.53" stop-color="#ebedf9"/><stop offset="0.69" stop-color="#b9bfe8"/><stop offset="0.72" stop-color="#afb6e5"/><stop offset="0.91" stop-color="#afb6e5"/><stop offset="0.95" stop-color="#bac0ea"/><stop offset="1" stop-color="#cdd2f3"/></linearGradient><linearGradient id="linear-gradient-5" x1="281.62" y1="274.94" x2="299.63" y2="300.33" gradientUnits="userSpaceOnUse"><stop offset="0.15" stop-color="#e2e5fb"/><stop offset="0.43" stop-color="#e5e9ff"/><stop offset="0.48" stop-color="#eff2ff"/><stop offset="0.54" stop-color="#fff"/><stop offset="0.59" stop-color="#ebedf9"/><stop offset="0.7" stop-color="#b9bfe8"/><stop offset="0.72" stop-color="#afb6e5"/><stop offset="0.91" stop-color="#afb6e5"/><stop offset="0.95" stop-color="#bac0ea"/><stop offset="1" stop-color="#cdd2f3"/></linearGradient><linearGradient id="linear-gradient-6" x1="-144.65" y1="2157.29" x2="-63.07" y2="2139" gradientTransform="matrix(0.5, 0.87, -0.58, 1, 1593.67, -1762.15)" gradientUnits="userSpaceOnUse"><stop offset="0" stop-color="#afb6e5"/><stop offset="0.14" stop-color="#b6bce8"/><stop offset="0.35" stop-color="#c8cdf1"/><stop offset="0.58" stop-color="#e5e9ff"/><stop offset="0.86" stop-color="#f5f6ff"/><stop offset="1" stop-color="#fff"/></linearGradient><radialGradient id="Radial_Gradient_1" cx="294.44" cy="281.2" r="6.16" gradientUnits="userSpaceOnUse"><stop offset="0" stop-color="#fff"/><stop offset="1"/></radialGradient><radialGradient id="Radial_Gradient_1-2" cx="289.46" cy="294.97" r="4.9" xlink:href="#Radial_Gradient_1"/><linearGradient id="linear-gradient-7" x1="-3032.46" y1="230.57" x2="-2910.23" y2="230.57" gradientTransform="translate(3195.77)" gradientUnits="userSpaceOnUse"><stop offset="0" stop-color="#cdd2f3"/><stop offset="0.43" stop-color="#e5e9ff"/><stop offset="0.48" stop-color="#eff2ff"/><stop offset="0.54" stop-color="#fff"/><stop offset="0.59" stop-color="#ebedf9"/><stop offset="0.7" stop-color="#b9bfe8"/><stop offset="0.72" stop-color="#afb6e5"/><stop offset="0.91" stop-color="#afb6e5"/><stop offset="0.95" stop-color="#bac0ea"/><stop offset="1" stop-color="#cdd2f3"/></linearGradient><linearGradient id="linear-gradient-8" x1="231.79" y1="189.19" x2="199.44" y2="251.09" gradientTransform="matrix(1, 0, 0, 1, 0, 0)" xlink:href="#linear-gradient-6"/><linearGradient id="linear-gradient-9" x1="238.9" y1="197.28" x2="225.06" y2="224.27" gradientUnits="userSpaceOnUse"><stop offset="0.18" stop-color="#4d5a96"/><stop offset="0.25" stop-color="#6a75a7"/><stop offset="0.36" stop-color="#979fc2"/><stop offset="0.48" stop-color="#bdc2d8"/><stop offset="0.6" stop-color="#dadce9"/><stop offset="0.71" stop-color="#eef0f5"/><stop offset="0.83" stop-color="#fbfbfd"/><stop offset="0.93" stop-color="#fff"/></linearGradient><linearGradient id="linear-gradient-10" x1="14.81" y1="90.12" x2="403.77" y2="175.47" gradientTransform="matrix(1, 0, 0, 1, 0, 0)" xlink:href="#linear-gradient-6"/><linearGradient id="linear-gradient-11" x1="-3042.42" y1="24.9" x2="-2883.28" y2="264.2" gradientTransform="translate(3195.77)" gradientUnits="userSpaceOnUse"><stop offset="0.01" stop-color="#273b98"/><stop offset="0.23" stop-color="#2f2ba2"/><stop offset="0.4" stop-color="#361cac"/><stop offset="0.77" stop-color="#440b89"/><stop offset="1" stop-color="#4e0070"/></linearGradient><linearGradient id="linear-gradient-12" x1="194.15" y1="-10.99" x2="327.19" y2="255.56" gradientUnits="userSpaceOnUse"><stop offset="0" stop-color="#b3bae7"/><stop offset="0.19" stop-color="#b7bde9"/><stop offset="0.28" stop-color="#bac0e9"/><stop offset="0.41" stop-color="#afb6e5"/><stop offset="0.91" stop-color="#afb6e5"/><stop offset="1" stop-color="#b3bae7"/></linearGradient><linearGradient id="Gradiente_sem_nome_1081" x1="194.09" y1="-10.94" x2="327.13" y2="255.59" gradientUnits="userSpaceOnUse"><stop offset="0" stop-color="#b4bbe8"/><stop offset="0.19" stop-color="#b9beea"/><stop offset="0.28" stop-color="#bcc2ea"/><stop offset="0.41" stop-color="#b2b8e6"/><stop offset="0.43" stop-color="#b2b8e6"/><stop offset="0.54" stop-color="#b3b9e6"/><stop offset="0.72" stop-color="#afb6e5"/><stop offset="0.91" stop-color="#afb6e5"/><stop offset="1" stop-color="#b4bbe8"/></linearGradient><linearGradient id="Gradiente_sem_nome_1080" x1="194.04" y1="-10.9" x2="327.06" y2="255.62" gradientUnits="userSpaceOnUse"><stop offset="0" stop-color="#b5bce8"/><stop offset="0.19" stop-color="#bac0ea"/><stop offset="0.28" stop-color="#bdc3eb"/><stop offset="0.41" stop-color="#b4bbe7"/><stop offset="0.43" stop-color="#b4bbe7"/><stop offset="0.54" stop-color="#b7bde7"/><stop offset="0.72" stop-color="#afb6e5"/><stop offset="0.91" stop-color="#afb6e5"/><stop offset="1" stop-color="#b5bce8"/></linearGradient><linearGradient id="Gradiente_sem_nome_1079" x1="193.98" y1="-10.85" x2="327" y2="255.65" gradientUnits="userSpaceOnUse"><stop offset="0" stop-color="#b7bde9"/><stop offset="0.19" stop-color="#bcc1eb"/><stop offset="0.28" stop-color="#bfc5ec"/><stop offset="0.41" stop-color="#b7bde9"/><stop offset="0.43" stop-color="#b7bde9"/><stop offset="0.54" stop-color="#bac0e9"/><stop offset="0.72" stop-color="#afb6e5"/><stop offset="0.91" stop-color="#afb6e5"/><stop offset="1" stop-color="#b7bde9"/></linearGradient><linearGradient id="Gradiente_sem_nome_1078" x1="193.93" y1="-10.8" x2="326.94" y2="255.68" gradientUnits="userSpaceOnUse"><stop offset="0" stop-color="#b8bfe9"/><stop offset="0.19" stop-color="#bdc3ec"/><stop offset="0.28" stop-color="#c1c6ec"/><stop offset="0.41" stop-color="#b9c0ea"/><stop offset="0.43" stop-color="#b9c0ea"/><stop offset="0.54" stop-color="#bec4ea"/><stop offset="0.72" stop-color="#afb6e5"/><stop offset="0.91" stop-color="#afb6e5"/><stop offset="1" stop-color="#b8bfe9"/></linearGradient><linearGradient id="Gradiente_sem_nome_1077" x1="193.87" y1="-10.76" x2="326.88" y2="255.71" gradientUnits="userSpaceOnUse"><stop offset="0" stop-color="#b9c0ea"/><stop offset="0.19" stop-color="#bfc4ed"/><stop offset="0.28" stop-color="#c2c8ed"/><stop offset="0.41" stop-color="#bcc2eb"/><stop offset="0.43" stop-color="#bcc2eb"/><stop offset="0.54" stop-color="#c2c7eb"/><stop offset="0.72" stop-color="#afb6e5"/><stop offset="0.91" stop-color="#afb6e5"/><stop offset="1" stop-color="#b9c0ea"/></linearGradient><linearGradient id="Gradiente_sem_nome_1076" x1="193.82" y1="-10.71" x2="326.81" y2="255.75" gradientUnits="userSpaceOnUse"><stop offset="0" stop-color="#bac1ea"/><stop offset="0.19" stop-color="#c0c6ed"/><stop offset="0.28" stop-color="#c4c9ee"/><stop offset="0.41" stop-color="#bec4ec"/><stop offset="0.43" stop-color="#bec5ec"/><stop offset="0.54" stop-color="#c6cbec"/><stop offset="0.7" stop-color="#b2b9e6"/><stop offset="0.72" stop-color="#afb6e5"/><stop offset="0.91" stop-color="#afb6e5"/><stop offset="1" stop-color="#bac1ea"/><stop offset="1" stop-color="#bac1ea"/></linearGradient><linearGradient id="Gradiente_sem_nome_1075" x1="193.76" y1="-10.66" x2="326.75" y2="255.78" gradientUnits="userSpaceOnUse"><stop offset="0" stop-color="#bcc2eb"/><stop offset="0.19" stop-color="#c2c7ee"/><stop offset="0.28" stop-color="#c6cbef"/><stop offset="0.41" stop-color="#c1c7ed"/><stop offset="0.43" stop-color="#c1c7ee"/><stop offset="0.54" stop-color="#caceee"/><stop offset="0.68" stop-color="#b6bde7"/><stop offset="0.72" stop-color="#afb6e5"/><stop offset="0.91" stop-color="#afb6e5"/><stop offset="0.99" stop-color="#bac0ea"/><stop offset="1" stop-color="#bcc2eb"/></linearGradient><linearGradient id="Gradiente_sem_nome_1074" x1="193.71" y1="-10.62" x2="326.69" y2="255.81" gradientUnits="userSpaceOnUse"><stop offset="0" stop-color="#bdc3ec"/><stop offset="0.19" stop-color="#c4c9ef"/><stop offset="0.28" stop-color="#c7cdf0"/><stop offset="0.41" stop-color="#c3c9ef"/><stop offset="0.43" stop-color="#c4c9ef"/><stop offset="0.54" stop-color="#cdd2ef"/><stop offset="0.66" stop-color="#b9c0e8"/><stop offset="0.72" stop-color="#afb6e5"/><stop offset="0.91" stop-color="#afb6e5"/><stop offset="0.98" stop-color="#bac0ea"/><stop offset="1" stop-color="#bdc3ec"/></linearGradient><linearGradient id="Gradiente_sem_nome_1073" x1="193.65" y1="-10.57" x2="326.62" y2="255.84" gradientUnits="userSpaceOnUse"><stop offset="0" stop-color="#bec4ec"/><stop offset="0.19" stop-color="#c5caef"/><stop offset="0.28" stop-color="#c9cef1"/><stop offset="0.41" stop-color="#c6cbf0"/><stop offset="0.43" stop-color="#c6ccf0"/><stop offset="0.53" stop-color="#d0d4f0"/><stop offset="0.54" stop-color="#d1d5f0"/><stop offset="0.65" stop-color="#bdc3ea"/><stop offset="0.72" stop-color="#afb6e5"/><stop offset="0.91" stop-color="#afb6e5"/><stop offset="0.98" stop-color="#bac0ea"/><stop offset="1" stop-color="#bec4ec"/></linearGradient><linearGradient id="Gradiente_sem_nome_1072" x1="193.59" y1="-10.53" x2="326.56" y2="255.87" gradientUnits="userSpaceOnUse"><stop offset="0" stop-color="#bfc5ed"/><stop offset="0.19" stop-color="#c7ccf0"/><stop offset="0.28" stop-color="#cbd0f2"/><stop offset="0.41" stop-color="#c8cef1"/><stop offset="0.43" stop-color="#c9cef1"/><stop offset="0.52" stop-color="#d3d7f1"/><stop offset="0.54" stop-color="#d5d9f1"/><stop offset="0.64" stop-color="#c1c7eb"/><stop offset="0.72" stop-color="#afb6e5"/><stop offset="0.91" stop-color="#afb6e5"/><stop offset="0.98" stop-color="#bac0ea"/><stop offset="1" stop-color="#bfc5ed"/></linearGradient><linearGradient id="Gradiente_sem_nome_1071" x1="193.54" y1="-10.48" x2="326.5" y2="255.9" gradientUnits="userSpaceOnUse"><stop offset="0" stop-color="#c1c7ed"/><stop offset="0.19" stop-color="#c8cdf1"/><stop offset="0.28" stop-color="#ccd1f2"/><stop offset="0.41" stop-color="#cbd0f2"/><stop offset="0.43" stop-color="#cbd1f3"/><stop offset="0.51" stop-color="#d5d9f3"/><stop offset="0.54" stop-color="#d9dcf3"/><stop offset="0.63" stop-color="#c5caec"/><stop offset="0.72" stop-color="#afb6e5"/><stop offset="0.91" stop-color="#afb6e5"/><stop offset="0.97" stop-color="#bac0ea"/><stop offset="1" stop-color="#c1c7ed"/></linearGradient><linearGradient id="Gradiente_sem_nome_1070" x1="193.48" y1="-10.43" x2="326.44" y2="255.93" gradientUnits="userSpaceOnUse"><stop offset="0" stop-color="#c2c8ee"/><stop offset="0.19" stop-color="#cacff2"/><stop offset="0.28" stop-color="#ced3f3"/><stop offset="0.41" stop-color="#cdd3f3"/><stop offset="0.43" stop-color="#ced3f4"/><stop offset="0.51" stop-color="#d8dcf4"/><stop offset="0.54" stop-color="#dde0f4"/><stop offset="0.62" stop-color="#c9ceee"/><stop offset="0.72" stop-color="#afb6e5"/><stop offset="0.91" stop-color="#afb6e5"/><stop offset="0.97" stop-color="#bac0ea"/><stop offset="1" stop-color="#c2c8ee"/></linearGradient><linearGradient id="Gradiente_sem_nome_1069" x1="193.43" y1="-10.39" x2="326.37" y2="255.96" gradientUnits="userSpaceOnUse"><stop offset="0" stop-color="#c3c9ee"/><stop offset="0.19" stop-color="#cbd0f2"/><stop offset="0.28" stop-color="#d0d4f4"/><stop offset="0.41" stop-color="#d0d5f4"/><stop offset="0.43" stop-color="#d0d6f5"/><stop offset="0.5" stop-color="#dadef5"/><stop offset="0.54" stop-color="#e1e3f5"/><stop offset="0.62" stop-color="#cdd1ef"/><stop offset="0.72" stop-color="#afb6e5"/><stop offset="0.91" stop-color="#afb6e5"/><stop offset="0.97" stop-color="#bac0ea"/><stop offset="1" stop-color="#c3c9ee"/></linearGradient><linearGradient id="Gradiente_sem_nome_1068" x1="193.37" y1="-10.34" x2="326.31" y2="255.99" gradientUnits="userSpaceOnUse"><stop offset="0" stop-color="#c4caef"/><stop offset="0.19" stop-color="#cdd2f3"/><stop offset="0.28" stop-color="#d1d6f5"/><stop offset="0.41" stop-color="#d2d7f6"/><stop offset="0.43" stop-color="#d3d8f6"/><stop offset="0.5" stop-color="#dde1f6"/><stop offset="0.54" stop-color="#e4e7f6"/><stop offset="0.61" stop-color="#d0d5f0"/><stop offset="0.72" stop-color="#afb6e5"/><stop offset="0.91" stop-color="#afb6e5"/><stop offset="0.96" stop-color="#bac0ea"/><stop offset="1" stop-color="#c4caef"/></linearGradient><linearGradient id="Gradiente_sem_nome_1067" x1="193.32" y1="-10.29" x2="326.25" y2="256.03" gradientUnits="userSpaceOnUse"><stop offset="0" stop-color="#c6cbf0"/><stop offset="0.19" stop-color="#cfd3f4"/><stop offset="0.28" stop-color="#d3d8f6"/><stop offset="0.41" stop-color="#d5daf7"/><stop offset="0.43" stop-color="#d6daf8"/><stop offset="0.5" stop-color="#e0e3f8"/><stop offset="0.54" stop-color="#e8eaf8"/><stop offset="0.61" stop-color="#d4d8f1"/><stop offset="0.72" stop-color="#afb6e5"/><stop offset="0.91" stop-color="#afb6e5"/><stop offset="0.96" stop-color="#bac0ea"/><stop offset="1" stop-color="#c6cbf0"/></linearGradient><linearGradient id="Gradiente_sem_nome_1066" x1="193.26" y1="-10.25" x2="326.18" y2="256.06" gradientUnits="userSpaceOnUse"><stop offset="0" stop-color="#c7ccf0"/><stop offset="0.19" stop-color="#d0d5f4"/><stop offset="0.28" stop-color="#d5d9f7"/><stop offset="0.41" stop-color="#d7dcf8"/><stop offset="0.43" stop-color="#d8ddf9"/><stop offset="0.49" stop-color="#e2e6f9"/><stop offset="0.54" stop-color="#eceef9"/><stop offset="0.61" stop-color="#d8dcf3"/><stop offset="0.72" stop-color="#afb6e5"/><stop offset="0.91" stop-color="#afb6e5"/><stop offset="0.96" stop-color="#bac0ea"/><stop offset="1" stop-color="#c7ccf0"/></linearGradient><linearGradient id="Gradiente_sem_nome_1065" x1="193.21" y1="-10.2" x2="326.12" y2="256.09" gradientUnits="userSpaceOnUse"><stop offset="0" stop-color="#c8cdf1"/><stop offset="0.19" stop-color="#d2d6f5"/><stop offset="0.28" stop-color="#d6dbf8"/><stop offset="0.41" stop-color="#dadef9"/><stop offset="0.43" stop-color="#dbdffa"/><stop offset="0.49" stop-color="#e5e8fa"/><stop offset="0.54" stop-color="#f0f1fa"/><stop offset="0.6" stop-color="#dcdff4"/><stop offset="0.72" stop-color="#afb6e5"/><stop offset="0.91" stop-color="#afb6e5"/><stop offset="0.96" stop-color="#bac0ea"/><stop offset="1" stop-color="#c8cdf1"/></linearGradient><linearGradient id="Gradiente_sem_nome_1064" x1="193.15" y1="-10.15" x2="326.06" y2="256.12" gradientUnits="userSpaceOnUse"><stop offset="0" stop-color="#c9cff1"/><stop offset="0.19" stop-color="#d3d8f6"/><stop offset="0.28" stop-color="#d8dcf8"/><stop offset="0.41" stop-color="#dce1fa"/><stop offset="0.43" stop-color="#dde2fb"/><stop offset="0.49" stop-color="#e7eafb"/><stop offset="0.54" stop-color="#f4f5fb"/><stop offset="0.6" stop-color="#e0e3f5"/><stop offset="0.72" stop-color="#afb6e5"/><stop offset="0.91" stop-color="#afb6e5"/><stop offset="0.96" stop-color="#bac0ea"/><stop offset="1" stop-color="#c9cff1"/></linearGradient><linearGradient id="Gradiente_sem_nome_1063" x1="193.1" y1="-10.11" x2="326" y2="256.15" gradientUnits="userSpaceOnUse"><stop offset="0" stop-color="#cbd0f2"/><stop offset="0.19" stop-color="#d5d9f7"/><stop offset="0.28" stop-color="#dadef9"/><stop offset="0.41" stop-color="#dfe3fc"/><stop offset="0.43" stop-color="#e0e4fd"/><stop offset="0.49" stop-color="#eaedfd"/><stop offset="0.54" stop-color="#f7f8fd"/><stop offset="0.6" stop-color="#e3e6f6"/><stop offset="0.72" stop-color="#b1b8e6"/><stop offset="0.72" stop-color="#afb6e5"/><stop offset="0.91" stop-color="#afb6e5"/><stop offset="0.95" stop-color="#bac0ea"/><stop offset="1" stop-color="#cbd0f2"/></linearGradient><linearGradient id="Gradiente_sem_nome_1062" x1="193.04" y1="-10.06" x2="325.93" y2="256.18" gradientUnits="userSpaceOnUse"><stop offset="0" stop-color="#ccd1f2"/><stop offset="0.19" stop-color="#d6dbf7"/><stop offset="0.28" stop-color="#dbdffa"/><stop offset="0.41" stop-color="#e1e6fd"/><stop offset="0.43" stop-color="#e2e7fe"/><stop offset="0.48" stop-color="#eceffe"/><stop offset="0.54" stop-color="#fbfcfe"/><stop offset="0.59" stop-color="#e7eaf8"/><stop offset="0.71" stop-color="#b5bbe7"/><stop offset="0.72" stop-color="#afb6e5"/><stop offset="0.91" stop-color="#afb6e5"/><stop offset="0.95" stop-color="#bac0ea"/><stop offset="1" stop-color="#ccd1f2"/></linearGradient><linearGradient id="linear-gradient-13" x1="192.99" y1="-10.02" x2="325.87" y2="256.21" gradientTransform="matrix(1, 0, 0, 1, 0, 0)" xlink:href="#linear-gradient-7"/><linearGradient id="linear-gradient-14" x1="87.38" y1="230.11" x2="176.42" y2="230.11" gradientUnits="userSpaceOnUse"><stop offset="0" stop-color="#b7bee9"/><stop offset="0.13" stop-color="#bac1eb"/><stop offset="0.24" stop-color="#c5cbf0"/><stop offset="0.34" stop-color="#d7dcf8"/><stop offset="0.4" stop-color="#e5e9ff"/><stop offset="0.49" stop-color="#e5e9ff"/><stop offset="0.53" stop-color="#d1d6f6"/><stop offset="0.59" stop-color="#afb6e5"/><stop offset="1" stop-color="#afb6e5"/></linearGradient><linearGradient id="linear-gradient-15" x1="115.06" y1="199.94" x2="99.59" y2="239.87" xlink:href="#linear-gradient-2"/><radialGradient id="Radial_Gradient_1-3" cx="105.24" cy="227.93" r="35.05" xlink:href="#Radial_Gradient_1"/><linearGradient id="linear-gradient-16" x1="147.05" y1="97.17" x2="45.05" y2="154.67" gradientUnits="userSpaceOnUse"><stop offset="0.01" stop-color="#b4f759"/><stop offset="0.05" stop-color="#90ed6f"/><stop offset="0.15" stop-color="#35d5a5"/><stop offset="0.2" stop-color="#00c7c5"/><stop offset="0.41" stop-color="#2d9be0"/><stop offset="0.6" stop-color="#5277f7"/><stop offset="0.66" stop-color="#5b76f7"/><stop offset="0.77" stop-color="#7374f6"/><stop offset="0.9" stop-color="#9a70f4"/><stop offset="1" stop-color="#bb6df3"/></linearGradient><linearGradient id="linear-gradient-17" x1="178.65" y1="150.64" x2="62.15" y2="194.14" xlink:href="#linear-gradient-16"/><radialGradient id="radial-gradient" cx="105.81" cy="109.96" r="136.06" gradientUnits="userSpaceOnUse"><stop offset="0" stop-color="#711f56"/><stop offset="0.16" stop-color="#6c1e52"/><stop offset="0.36" stop-color="#5c1946"/><stop offset="0.58" stop-color="#431233"/><stop offset="0.82" stop-color="#200918"/><stop offset="1"/></radialGradient><linearGradient id="linear-gradient-18" x1="81.38" y1="233.27" x2="170.42" y2="233.27" xlink:href="#linear-gradient-14"/><linearGradient id="linear-gradient-19" x1="109.06" y1="202.69" x2="93.59" y2="242.62" xlink:href="#linear-gradient-2"/><radialGradient id="Radial_Gradient_1-4" cx="99.24" cy="230.68" r="35.05" xlink:href="#Radial_Gradient_1"/><linearGradient id="linear-gradient-20" x1="238.47" y1="293.2" x2="241.12" y2="297.99" gradientUnits="userSpaceOnUse"><stop offset="0.04" stop-color="#626fac"/><stop offset="0.16" stop-color="#8b95ca"/><stop offset="0.27" stop-color="#afb6e5"/><stop offset="0.32" stop-color="#a4acdd"/><stop offset="0.42" stop-color="#8791c7"/><stop offset="0.55" stop-color="#5865a3"/><stop offset="0.59" stop-color="#495798"/><stop offset="0.77" stop-color="#4b599a"/><stop offset="0.86" stop-color="#5360a0"/><stop offset="0.93" stop-color="#606caa"/><stop offset="0.94" stop-color="#636fac"/></linearGradient><linearGradient id="linear-gradient-21" x1="248.18" y1="301.9" x2="250.83" y2="306.69" xlink:href="#linear-gradient-20"/><linearGradient id="linear-gradient-22" x1="228.03" y1="290.93" x2="246.03" y2="316.32" xlink:href="#linear-gradient-5"/><linearGradient id="linear-gradient-23" x1="-206.53" y1="2197.94" x2="-124.95" y2="2179.65" gradientTransform="matrix(0.5, 0.87, -0.58, 1, 1594.42, -1732.92)" xlink:href="#linear-gradient-6"/><linearGradient id="linear-gradient-24" x1="221.6" y1="295.42" x2="236.46" y2="322.29" xlink:href="#linear-gradient-4"/><linearGradient id="linear-gradient-25" x1="212.86" y1="320.58" x2="226.37" y2="305.26" gradientTransform="matrix(1, 0, 0, 1, 0, 0)" xlink:href="#linear-gradient-6"/><linearGradient id="linear-gradient-26" x1="66.06" y1="281.47" x2="220.64" y2="281.47" xlink:href="#linear-gradient"/><linearGradient id="linear-gradient-27" x1="67.86" y1="280.67" x2="218.44" y2="280.67" xlink:href="#linear-gradient-2"/><linearGradient id="linear-gradient-28" x1="68.36" y1="280.57" x2="217.54" y2="280.57" xlink:href="#linear-gradient-2"/><radialGradient id="radial-gradient-2" cx="205.53" cy="112.17" r="47.12" gradientUnits="userSpaceOnUse"><stop offset="0" stop-color="#bb6df3"/><stop offset="0.11" stop-color="#9155bd"/><stop offset="0.23" stop-color="#6b3e8b"/><stop offset="0.36" stop-color="#4a2b60"/><stop offset="0.48" stop-color="#2f1c3e"/><stop offset="0.61" stop-color="#1b0f23"/><stop offset="0.73" stop-color="#0c070f"/><stop offset="0.86" stop-color="#030204"/><stop offset="1"/></radialGradient><radialGradient id="radial-gradient-3" cx="216.7" cy="178.09" r="44.16" gradientUnits="userSpaceOnUse"><stop offset="0" stop-color="#6cf"/><stop offset="0.02" stop-color="#63c6f7"/><stop offset="0.13" stop-color="#4c98be"/><stop offset="0.25" stop-color="#386f8b"/><stop offset="0.37" stop-color="#274d60"/><stop offset="0.49" stop-color="#19313e"/><stop offset="0.62" stop-color="#0e1c23"/><stop offset="0.74" stop-color="#060c0f"/><stop offset="0.87" stop-color="#020304"/><stop offset="1"/></radialGradient><radialGradient id="radial-gradient-4" cx="184.6" cy="157.38" r="44.16" xlink:href="#radial-gradient-3"/><radialGradient id="radial-gradient-5" cx="156.3" cy="142.89" r="44.16" gradientUnits="userSpaceOnUse"><stop offset="0" stop-color="#836df3"/><stop offset="0.11" stop-color="#6655bd"/><stop offset="0.23" stop-color="#4b3e8b"/><stop offset="0.36" stop-color="#342b60"/><stop offset="0.48" stop-color="#211c3e"/><stop offset="0.61" stop-color="#130f23"/><stop offset="0.73" stop-color="#08070f"/><stop offset="0.86" stop-color="#020204"/><stop offset="1"/></radialGradient><radialGradient id="radial-gradient-6" cx="144.78" cy="76.62" r="47.12" gradientUnits="userSpaceOnUse"><stop offset="0" stop-color="#00c7c5"/><stop offset="0.03" stop-color="#00bdbb"/><stop offset="0.16" stop-color="#008b8a"/><stop offset="0.29" stop-color="#00605f"/><stop offset="0.43" stop-color="#003e3d"/><stop offset="0.57" stop-color="#002322"/><stop offset="0.71" stop-color="#000f0f"/><stop offset="0.85" stop-color="#000404"/><stop offset="1"/></radialGradient><radialGradient id="radial-gradient-7" cx="165.14" cy="91.11" r="47.12" gradientUnits="userSpaceOnUse"><stop offset="0" stop-color="#b4f759"/><stop offset="0" stop-color="#b3f659"/><stop offset="0.12" stop-color="#8abd44"/><stop offset="0.24" stop-color="#658b32"/><stop offset="0.36" stop-color="#466023"/><stop offset="0.49" stop-color="#2d3e16"/><stop offset="0.61" stop-color="#19230c"/><stop offset="0.74" stop-color="#0b0f06"/><stop offset="0.87" stop-color="#030401"/><stop offset="1"/></radialGradient><linearGradient id="linear-gradient-29" x1="47.33" y1="108.07" x2="79.85" y2="108.07" gradientUnits="userSpaceOnUse"><stop offset="0" stop-color="#ff9e6e"/><stop offset="0.49" stop-color="#ffc27a"/><stop offset="0.93" stop-color="#ffe585"/></linearGradient><linearGradient id="linear-gradient-30" x1="63.34" y1="108.2" x2="79.85" y2="108.2" xlink:href="#linear-gradient-29"/></defs><g class="cls-1"><g id="Layer_1" data-name="Layer 1"><path class="cls-2" d="M293.4,295.35a1.49,1.49,0,0,1-1.29-.73,1.57,1.57,0,0,1-.17-1.14,1.53,1.53,0,0,1,.69-.92l48.65-29a5.64,5.64,0,0,0-.11-9.74l-66.41-37.7a1.5,1.5,0,0,1,.74-2.81,1.49,1.49,0,0,1,.74.2l66.41,37.7a8.63,8.63,0,0,1,.16,14.92l-48.64,29A1.51,1.51,0,0,1,293.4,295.35Z" transform="translate(-32 -11.25)"/><path class="cls-3" d="M293.6,291.4a3.5,3.5,0,0,1-1.79-6.51l48.64-29a3.63,3.63,0,0,0-.07-6.28L274,211.89a3.5,3.5,0,0,1,3.46-6.09l66.41,37.7a10.64,10.64,0,0,1,.2,18.38l-48.65,29A3.44,3.44,0,0,1,293.6,291.4Z" transform="translate(-32 -11.25)"/><path class="cls-4" d="M293.4,288.6a1.49,1.49,0,0,1-1.29-.73,1.57,1.57,0,0,1-.17-1.14,1.53,1.53,0,0,1,.69-.92l48.65-29a5.64,5.64,0,0,0-.11-9.74l-66.41-37.7a1.5,1.5,0,0,1,.74-2.81,1.49,1.49,0,0,1,.74.2l66.41,37.7a8.63,8.63,0,0,1,.16,14.92l-48.64,29A1.51,1.51,0,0,1,293.4,288.6Z" transform="translate(-32 -11.25)"/><path class="cls-5" d="M293.2,287.8a.78.78,0,0,1-.69-.39.81.81,0,0,1-.09-.61.87.87,0,0,1,.37-.49l48.64-29a6.34,6.34,0,0,0-.11-11l-66.42-37.7a.8.8,0,0,1,.4-1.5.77.77,0,0,1,.39.11L342.11,245a7.93,7.93,0,0,1,.14,13.71l-48.64,29A.87.87,0,0,1,293.2,287.8Z" transform="translate(-32 -11.25)"/><path class="cls-6" d="M314.23,282.45c0,2-.7,3.45-1.84,4.15,0,0-13.16,12.37-13.21,12.4-1.85,1-.67-1.26-3.47-2.81-5.65-3.11-10.22-10.66-10.22-16.85,0-3.06-3-3.09-1.15-4.11.05,0,18.75-4.55,18.75-4.55,1.21-.66,2.82-.54,4.6.48A14.43,14.43,0,0,1,314.23,282.45Z" transform="translate(-32 -11.25)"/><path class="cls-7" d="M290.79,275.12c-6.14-3.55-11.12-.71-11.12,6.34s5,15.63,11.12,19.18,11.12.7,11.12-6.34S296.93,278.66,290.79,275.12Zm0,21.59c-4.25-2.46-7.7-8.4-7.7-13.28s3.45-6.84,7.7-4.39,7.7,8.4,7.7,13.28S295,299.16,290.79,296.71Z" transform="translate(-32 -11.25)"/><ellipse class="cls-8" cx="289.82" cy="288.44" rx="9.05" ry="15.68" transform="translate(-137.95 174.45) rotate(-30.31)"/><ellipse class="cls-9" cx="289.82" cy="288.44" rx="6.27" ry="10.85" transform="matrix(0.86, -0.5, 0.5, 0.86, -137.95, 174.45)"/><path class="cls-10" d="M286.2,288.92a4.47,4.47,0,0,1-2-3.5c0-1.29.91-1.8,2-1.16a4.49,4.49,0,0,1,2,3.5C288.23,289.05,287.32,289.57,286.2,288.92Z" transform="translate(-32 -11.25)"/><path class="cls-10" d="M293.15,293.32a4.46,4.46,0,0,1-2-3.5c0-1.28.91-1.8,2-1.15a4.46,4.46,0,0,1,2,3.5C295.18,293.45,294.27,294,293.15,293.32Z" transform="translate(-32 -11.25)"/><g class="cls-11"><path class="cls-12" d="M290,275.59c-3.12-1.8-5.93-2-7.95-.76,2-1.09,4.75-.9,7.78.85,6.14,3.55,11.12,12.13,11.12,19.18,0,3.47-1.21,5.92-3.17,7.09,2.06-1.13,3.34-3.61,3.34-7.18C301.11,287.72,296.13,279.13,290,275.59Z" transform="translate(-32 -11.25)"/><path class="cls-13" d="M284.46,279c-1.44.77-2.34,2.5-2.34,5,0,4.87,3.45,10.82,7.7,13.27,2.17,1.26,4.13,1.36,5.53.51-1.39.74-3.28.6-5.36-.6a16.94,16.94,0,0,1-7.7-13.28C282.29,281.51,283.12,279.82,284.46,279Z" transform="translate(-32 -11.25)"/></g><g class="cls-14"><path class="cls-15" d="M229,272a17.71,17.71,0,0,1-8.86-2.14l-61.55-35.74a9.37,9.37,0,0,1-5.09-8.1c0-3.6,2.23-7,6.12-9.2l54-20.78a21.88,21.88,0,0,1,10.76-2.73,17.75,17.75,0,0,1,8.87,2.13l41.36,24.24a9.36,9.36,0,0,1,5.09,8.1c0,3.6-2.23,6.95-6.12,9.19l-33.84,32.29A21.75,21.75,0,0,1,229,272Z" transform="translate(-32 -11.25)"/><path class="cls-16" d="M159.86,216.86l54-20.78a21.45,21.45,0,0,1,10.72-2.66,20.43,20.43,0,0,1,4.67.6,17,17,0,0,1,4.1,1.66l39.95,23.4s1.16.68,1.19.71a8.6,8.6,0,0,1,4.43,8.05c-.18,3.27-2.64,7-6.18,9l-33.22,32A21.37,21.37,0,0,1,229,271.53a17.38,17.38,0,0,1-8.65-2.07l-61.55-36.11a8.91,8.91,0,0,1-4.85-7.73C154,222.21,156.12,219,159.86,216.86Z" transform="translate(-32 -11.25)"/><path class="cls-17" d="M160.09,216.91l54-20.78a20.86,20.86,0,0,1,10.67-2.59,20.33,20.33,0,0,1,4.62.67,19.39,19.39,0,0,1,4,1.7l39.73,23.28c.08,0,1.12.66,1.18.71a7.88,7.88,0,0,1,3.78,8c-.33,2.92-3.05,7-6.24,8.83l-32.61,31.71a20.91,20.91,0,0,1-10.24,2.61,16.85,16.85,0,0,1-8.45-2l-61.55-36.47a8.44,8.44,0,0,1-4.61-7.36C154.47,222,156.52,219,160.09,216.91Z" transform="translate(-32 -11.25)"/><path class="cls-18" d="M160.33,217l54-20.78A20.43,20.43,0,0,1,225,193.66a19.41,19.41,0,0,1,4.59.74,22.93,22.93,0,0,1,4,1.75l39.51,23.14c.11.07,1.08.65,1.16.72,3,2,3.65,4.85,3.12,8-.43,2.58-3.45,7-6.28,8.66l-32,31.41a20.43,20.43,0,0,1-10,2.55,16.38,16.38,0,0,1-8.23-1.95l-61.55-36.83a8,8,0,0,1-4.38-7C155,221.79,156.91,218.92,160.33,217Z" transform="translate(-32 -11.25)"/><path class="cls-19" d="M160.56,217l54-20.78a19.26,19.26,0,0,1,15.11-1.62,26.81,26.81,0,0,1,3.95,1.79l39.29,23c.15.09,1,.63,1.16.73,3,2,3.85,5,2.46,7.91,0,2.29-3.86,7-6.34,8.47l-31.39,31.13a19.89,19.89,0,0,1-9.72,2.48,16.06,16.06,0,0,1-8-1.88L159.52,231a7.45,7.45,0,0,1-4.13-6.61C155.45,221.58,157.3,218.87,160.56,217Z" transform="translate(-32 -11.25)"/><path class="cls-20" d="M160.8,217l54-20.77a19.6,19.6,0,0,1,10.52-2.37,18.8,18.8,0,0,1,4.5.89,32.55,32.55,0,0,1,3.9,1.84l39.08,22.89c.18.11,1,.61,1.14.73,2.89,2,3.54,5.08,1.81,7.87,0,2-4.27,7.06-6.39,8.29l-30.78,30.83a19.51,19.51,0,0,1-9.47,2.42,15.53,15.53,0,0,1-7.81-1.82l-61.55-37.57c-2.6-1.49-4-3.76-3.9-6.23C155.93,221.37,157.69,218.83,160.8,217Z" transform="translate(-32 -11.25)"/><path class="cls-21" d="M161,217.08l54-20.78A19.15,19.15,0,0,1,225.52,194a18.73,18.73,0,0,1,4.45,1,40.6,40.6,0,0,1,3.86,1.88l38.85,22.77a11.54,11.54,0,0,1,1.13.73,5.14,5.14,0,0,1,1.16,7.82c0,1.64-4.68,7.09-6.45,8.11l-30.17,30.54a18.93,18.93,0,0,1-9.21,2.36,15.09,15.09,0,0,1-7.6-1.76L160,229.49c-2.47-1.42-3.75-3.56-3.66-5.86C156.42,221.16,158.08,218.78,161,217.08Z" transform="translate(-32 -11.25)"/><path class="cls-22" d="M161.27,217.12l54-20.78a18.68,18.68,0,0,1,10.43-2.21,17.92,17.92,0,0,1,4.41,1c.53.18,3.35,1.67,3.8,1.93l38.63,22.63a12.26,12.26,0,0,1,1.13.74c2.75,2.07,2.92,5.18.5,7.78,0,1.3-5.09,7.11-6.51,7.93l-29.55,30.25a18.57,18.57,0,0,1-9,2.29,14.63,14.63,0,0,1-7.39-1.69l-61.55-38.3c-2.34-1.35-3.53-3.35-3.43-5.49S158.48,218.73,161.27,217.12Z" transform="translate(-32 -11.25)"/><path class="cls-23" d="M161.5,217.16l54-20.78a16.91,16.91,0,0,1,14.74-1c.4.14,3.42,1.78,3.76,2l38.41,22.51a9.35,9.35,0,0,1,1.11.75c2.68,2.1,2.62,5.23-.15,7.72,0,1-5.5,7.14-6.56,7.75l-28.95,30a18.13,18.13,0,0,1-8.69,2.23,14.3,14.3,0,0,1-7.18-1.63L160.46,228c-2.21-1.28-3.31-3.14-3.19-5.12S158.87,218.68,161.5,217.16Z" transform="translate(-32 -11.25)"/><path class="cls-24" d="M161.74,217.21l54-20.78a16.46,16.46,0,0,1,14.65-.9c.27.1,3.48,1.9,3.71,2l38.19,22.38a7.83,7.83,0,0,1,1.1.75c2.62,2.13,2.31,5.28-.8,7.68,0,.65-5.91,7.16-6.62,7.57L237.65,265.6a17.52,17.52,0,0,1-8.43,2.17,13.81,13.81,0,0,1-7-1.57l-61.55-39c-2.09-1.2-3.09-2.93-3-4.75S159.26,218.64,161.74,217.21Z" transform="translate(-32 -11.25)"/><path class="cls-25" d="M162,217.25l54-20.78a16,16,0,0,1,14.55-.75c.13.05,3.55,2,3.66,2.07l38,22.25a7.62,7.62,0,0,1,1.08.76c2.55,2.16,2,5.34-1.46,7.63a95.12,95.12,0,0,1-6.66,7.39L237.41,265.2a17.22,17.22,0,0,1-8.17,2.1,13.4,13.4,0,0,1-6.76-1.5l-61.55-39.39c-2-1.13-2.86-2.72-2.71-4.37S159.65,218.59,162,217.25Z" transform="translate(-32 -11.25)"/><path d="M222.72,265.39l-61.55-39.75c-3.71-2.14-3.24-5.88,1-8.35l54-20.78c4.28-2.47,10.76-2.74,14.46-.6l41.37,24.24c3.71,2.14,3.24,5.88-1,8.35l-33.83,36.29C232.9,267.26,226.42,267.53,222.72,265.39Z" transform="translate(-32 -11.25)"/></g><path class="cls-26" d="M222.72,265.3l-61.55-35.74a4.33,4.33,0,0,1-2.5-3.56v-8.65c0-1.63,1.23,1.19,3.54-.14l54-20.78c4.28-2.47,10.76-2.74,14.46-.6l41.37,24.23c1.24.72,2.14-2.32,2.46-1.35.1.32,0,8.58,0,8.91,0,1.66-1.16,3.42-3.54,4.79L237.18,264.7C232.9,267.18,226.42,267.44,222.72,265.3Z" transform="translate(-32 -11.25)"/><path class="cls-27" d="M222.72,256.74,161.17,221c-3.71-2.14-3.24-5.88,1-8.35l54-20.78c4.28-2.47,10.76-2.74,14.46-.6l41.37,24.24c3.71,2.14,3.24,5.88-1,8.35l-33.83,32.29C232.9,258.61,226.42,258.88,222.72,256.74Z" transform="translate(-32 -11.25)"/><path class="cls-28" d="M272.05,215.5l-41.37-24.24c-3.7-2.14-10.18-1.87-14.46.6L189,202.33a6.88,6.88,0,0,0,.84.58l61.55,35.75a10.54,10.54,0,0,0,2.95,1.09L271,223.85C275.29,221.38,275.76,217.64,272.05,215.5Z" transform="translate(-32 -11.25)"/><path class="cls-29" d="M271,223.07l-33.83,32.29c-4.28,2.47-10.76,2.74-14.46.6l-61.55-35.74a4.46,4.46,0,0,1-2.48-3.29c-.19,1.51.62,3,2.48,4.06l61.55,36c3.7,2.14,10.18,1.88,14.46-.6L271,223.85c2.51-1.45,3.69-3.33,3.51-5.07C274.33,220.29,273.15,221.84,271,223.07Z" transform="translate(-32 -11.25)"/><path class="cls-30" d="M303.13,256.94,152,169.59c-7.73-4.46-14-16.43-14-26.74V27.25c0-10.31,6.26-15,14-10.58L303.13,104c7.73,4.46,14,16.43,14,26.74V246.36C317.13,256.66,310.86,261.4,303.13,256.94Z" transform="translate(-32 -11.25)"/><path class="cls-31" d="M304.93,248.89l-149-86.1c-6.22-4-10.06-11.85-10.06-19.94V26.49a2.48,2.48,0,0,1,3.73-2.14l.44.25L299.2,110.82c7.4,4.26,10.07,11.85,10.07,19.93v116a2.68,2.68,0,0,1-4,2.32Z" transform="translate(-32 -11.25)"/><path class="cls-9" d="M299.2,110.82,150,24.6l-.44-.25a2.48,2.48,0,0,0-3.73,2.14V142.85c0,8.09,3.84,16,10.06,19.94l149,86.1.33.18a2.68,2.68,0,0,0,4-2.32v-116C309.27,122.67,306.6,115.08,299.2,110.82Zm8.49,135.93a1.11,1.11,0,0,1-1.11,1.11,1.08,1.08,0,0,1-.54-.15L156.69,161.42c-5.62-3.57-9.28-10.87-9.28-18.57V26.49a.91.91,0,0,1,.91-.91.87.87,0,0,1,.46.13l149.63,86.47c7.67,4.42,9.28,12.54,9.28,18.57Z" transform="translate(-32 -11.25)"/><path class="cls-32" d="M309.57,100.27,158.41,12.93c-3.06-1.77-5.89-2.09-8.19-1.2-.29.11-6.67,3.81-6.94,4h0c2.39-1.16,5.41-1,8.71,1L303.13,104c7.73,4.46,14,16.43,14,26.74V246.36c0,6.43-2.45,10.69-6.16,11.9a2.29,2.29,0,0,0,1.23-.42c.17-.1,6.88-4.12,7.05-4.24,2.66-1.86,4.32-5.69,4.32-11V127C323.57,116.7,317.3,104.73,309.57,100.27Z" transform="translate(-32 -11.25)"/><path class="cls-33" d="M309.46,100.35,158.29,13c-3.06-1.77-5.88-2.1-8.19-1.21-.29.12-6.55,3.75-6.82,3.9h0c2.39-1.16,5.41-1,8.71,1L303.13,104c7.73,4.46,14,16.43,14,26.74V246.36c0,6.43-2.45,10.69-6.16,11.9a2.29,2.29,0,0,0,1.23-.42c.17-.1,6.77-4,6.93-4.16,2.66-1.86,4.32-5.69,4.32-11V127.09C323.45,116.78,317.18,104.81,309.46,100.35Z" transform="translate(-32 -11.25)"/><path class="cls-34" d="M309.34,100.43,158.17,13.08c-3-1.76-5.88-2.09-8.18-1.2-.3.11-6.44,3.67-6.71,3.82h0c2.39-1.16,5.41-1,8.71,1L303.13,104c7.73,4.46,14,16.43,14,26.74V246.36c0,6.43-2.45,10.69-6.16,11.9a2.29,2.29,0,0,0,1.23-.42l6.82-4.08c2.66-1.87,4.31-5.69,4.31-11V127.16C323.33,116.86,317.07,104.89,309.34,100.43Z" transform="translate(-32 -11.25)"/><path class="cls-35" d="M309.22,100.51,158.06,13.16c-3.06-1.76-5.89-2.09-8.19-1.2-.29.11-6.32,3.59-6.59,3.74h0c2.39-1.16,5.41-1,8.71,1L303.13,104c7.73,4.46,14,16.43,14,26.74V246.36c0,6.43-2.45,10.69-6.16,11.9a2.29,2.29,0,0,0,1.23-.42c.17-.1,6.53-3.89,6.7-4,2.66-1.86,4.31-5.68,4.31-11V127.24C323.21,116.94,317,105,309.22,100.51Z" transform="translate(-32 -11.25)"/><path class="cls-36" d="M309.1,100.58,157.94,13.24c-3.06-1.77-5.89-2.09-8.19-1.2-.29.11-6.2,3.51-6.47,3.66h0c2.39-1.16,5.41-1,8.71,1L303.13,104c7.73,4.46,14,16.43,14,26.74V246.36c0,6.43-2.45,10.69-6.16,11.9a2.29,2.29,0,0,0,1.23-.42c.17-.1,6.41-3.81,6.58-3.93,2.66-1.86,4.31-5.69,4.31-11V127.32C323.09,117,316.83,105.05,309.1,100.58Z" transform="translate(-32 -11.25)"/><path class="cls-37" d="M309,100.66,157.82,13.32c-3.06-1.77-5.89-2.09-8.19-1.21-.29.12-6.08,3.44-6.35,3.59h0c2.39-1.16,5.41-1,8.71,1L303.13,104c7.73,4.46,14,16.43,14,26.74V246.36c0,6.43-2.45,10.69-6.16,11.9a2.29,2.29,0,0,0,1.23-.42c.17-.1,6.29-3.73,6.46-3.85,2.66-1.86,4.32-5.69,4.32-11V127.4C323,117.09,316.71,105.12,309,100.66Z" transform="translate(-32 -11.25)"/><path class="cls-38" d="M308.87,100.74,157.7,13.39c-3-1.76-5.88-2.09-8.19-1.2-.29.12-6,3.36-6.23,3.51h0c2.39-1.16,5.41-1,8.71,1L303.13,104c7.73,4.46,14,16.43,14,26.74V246.36c0,6.43-2.45,10.69-6.16,11.9a2.29,2.29,0,0,0,1.23-.42c.17-.1,6.18-3.65,6.35-3.77,2.65-1.86,4.31-5.69,4.31-11V127.48C322.86,117.17,316.59,105.2,308.87,100.74Z" transform="translate(-32 -11.25)"/><path class="cls-39" d="M308.75,100.82,157.58,13.47c-3.05-1.76-5.88-2.09-8.18-1.2-.3.11-5.85,3.28-6.12,3.43h0c2.39-1.16,5.41-1,8.71,1L303.13,104c7.73,4.46,14,16.43,14,26.74V246.36c0,6.43-2.45,10.69-6.16,11.9a2.29,2.29,0,0,0,1.23-.42c.17-.1,6.06-3.58,6.23-3.7,2.66-1.86,4.31-5.68,4.31-11V127.55C322.74,117.25,316.48,105.28,308.75,100.82Z" transform="translate(-32 -11.25)"/><path class="cls-40" d="M308.63,100.89,157.47,13.55c-3.06-1.77-5.89-2.09-8.19-1.2-.29.11-5.73,3.2-6,3.35h0c2.39-1.16,5.41-1,8.71,1L303.13,104c7.73,4.46,14,16.43,14,26.74V246.36c0,6.43-2.45,10.69-6.16,11.9a2.29,2.29,0,0,0,1.23-.42c.17-.1,5.94-3.5,6.11-3.62,2.66-1.86,4.31-5.68,4.31-11V127.63C322.62,117.33,316.36,105.36,308.63,100.89Z" transform="translate(-32 -11.25)"/><path class="cls-41" d="M308.51,101,157.35,13.63c-3.06-1.77-5.89-2.09-8.19-1.2-.29.11-5.61,3.12-5.88,3.27h0c2.39-1.16,5.41-1,8.71,1L303.13,104c7.73,4.46,14,16.43,14,26.74V246.36c0,6.43-2.45,10.69-6.16,11.9a2.29,2.29,0,0,0,1.23-.42c.17-.1,5.82-3.42,6-3.54,2.66-1.86,4.32-5.69,4.32-11V127.71C322.51,117.4,316.24,105.43,308.51,101Z" transform="translate(-32 -11.25)"/><path class="cls-42" d="M308.39,101.05,157.23,13.71c-3.06-1.77-5.88-2.1-8.19-1.21-.29.12-5.49,3.05-5.76,3.2h0c2.39-1.16,5.41-1,8.71,1L303.13,104c7.73,4.46,14,16.43,14,26.74V246.36c0,6.43-2.45,10.69-6.16,11.9a2.29,2.29,0,0,0,1.23-.42c.17-.1,5.71-3.34,5.87-3.46,2.66-1.86,4.32-5.69,4.32-11V127.79C322.39,117.48,316.12,105.51,308.39,101.05Z" transform="translate(-32 -11.25)"/><path class="cls-43" d="M308.28,101.13,157.11,13.78c-3.05-1.76-5.88-2.09-8.18-1.2-.3.11-5.38,3-5.65,3.12h0c2.39-1.16,5.41-1,8.71,1L303.13,104c7.73,4.46,14,16.43,14,26.74V246.36c0,6.43-2.45,10.69-6.16,11.9a2.29,2.29,0,0,0,1.23-.42c.17-.1,5.59-3.27,5.76-3.38,2.65-1.87,4.31-5.69,4.31-11V127.86C322.27,117.56,316,105.59,308.28,101.13Z" transform="translate(-32 -11.25)"/><path class="cls-44" d="M308.16,101.21,157,13.86c-3.06-1.76-5.89-2.09-8.19-1.2-.3.11-5.26,2.89-5.53,3h0c2.39-1.16,5.41-1,8.71,1L303.13,104c7.73,4.46,14,16.43,14,26.74V246.36c0,6.43-2.45,10.69-6.16,11.9a2.29,2.29,0,0,0,1.23-.42c.17-.1,5.47-3.19,5.64-3.31,2.66-1.86,4.31-5.68,4.31-11V127.94C322.15,117.64,315.89,105.67,308.16,101.21Z" transform="translate(-32 -11.25)"/><path class="cls-45" d="M308,101.28,156.88,13.94c-3.06-1.77-5.89-2.09-8.19-1.2-.29.11-5.14,2.81-5.41,3h0c2.39-1.16,5.41-1,8.71,1L303.13,104c7.73,4.46,14,16.43,14,26.74V246.36c0,6.43-2.45,10.69-6.16,11.9a2.29,2.29,0,0,0,1.23-.42c.17-.1,5.35-3.11,5.52-3.23,2.66-1.86,4.31-5.69,4.31-11V128C322,117.72,315.77,105.75,308,101.28Z" transform="translate(-32 -11.25)"/><path class="cls-46" d="M307.92,101.36,156.76,14c-3.06-1.77-5.89-2.09-8.19-1.21-.29.12-5,2.74-5.29,2.89h0c2.39-1.16,5.41-1,8.71,1L303.13,104c7.73,4.46,14,16.43,14,26.74V246.36c0,6.43-2.45,10.69-6.16,11.9a2.29,2.29,0,0,0,1.23-.42c.17-.1,5.23-3,5.4-3.15,2.66-1.86,4.32-5.69,4.32-11V128.1C321.92,117.79,315.65,105.82,307.92,101.36Z" transform="translate(-32 -11.25)"/><path class="cls-47" d="M307.81,101.44,156.64,14.09c-3.06-1.76-5.88-2.09-8.19-1.2-.29.12-4.9,2.66-5.17,2.81h0c2.39-1.16,5.41-1,8.71,1L303.13,104c7.73,4.46,14,16.43,14,26.74V246.36c0,6.43-2.45,10.69-6.16,11.9a2.29,2.29,0,0,0,1.23-.42c.17-.1,5.12-2.95,5.29-3.07,2.65-1.86,4.31-5.69,4.31-11V128.18C321.8,117.87,315.53,105.9,307.81,101.44Z" transform="translate(-32 -11.25)"/><path class="cls-48" d="M307.69,101.52,156.52,14.17c-3.05-1.76-5.88-2.09-8.18-1.2-.3.11-4.79,2.58-5.06,2.73h0c2.39-1.16,5.41-1,8.71,1L303.13,104c7.73,4.46,14,16.43,14,26.74V246.36c0,6.43-2.45,10.69-6.16,11.9a2.29,2.29,0,0,0,1.23-.42c.17-.1,5-2.88,5.17-3,2.66-1.86,4.31-5.68,4.31-11V128.25C321.68,118,315.42,106,307.69,101.52Z" transform="translate(-32 -11.25)"/><path class="cls-49" d="M307.57,101.59,156.41,14.25c-3.06-1.77-5.89-2.09-8.19-1.2-.29.11-4.67,2.5-4.94,2.65h0c2.39-1.16,5.41-1,8.71,1L303.13,104c7.73,4.46,14,16.43,14,26.74V246.36c0,6.43-2.45,10.69-6.16,11.9a2.29,2.29,0,0,0,1.23-.42c.17-.1,4.88-2.8,5.05-2.92,2.66-1.86,4.31-5.68,4.31-11V128.33C321.56,118,315.3,106.06,307.57,101.59Z" transform="translate(-32 -11.25)"/><path class="cls-50" d="M307.45,101.67,156.29,14.33c-3.06-1.77-5.89-2.09-8.19-1.2-.29.11-4.55,2.42-4.82,2.57h0c2.39-1.16,5.41-1,8.71,1L303.13,104c7.73,4.46,14,16.43,14,26.74V246.36c0,6.43-2.45,10.69-6.16,11.9a2.29,2.29,0,0,0,1.23-.42c.17-.1,4.76-2.72,4.93-2.84,2.66-1.86,4.31-5.69,4.31-11V128.41C321.44,118.1,315.18,106.13,307.45,101.67Z" transform="translate(-32 -11.25)"/><path class="cls-51" d="M307.33,101.75,156.17,14.4c-3.06-1.76-5.89-2.09-8.19-1.2-.29.12-4.43,2.35-4.7,2.5h0c2.39-1.16,5.41-1,8.71,1L303.13,104c7.73,4.46,14,16.43,14,26.74V246.36c0,6.43-2.45,10.69-6.16,11.9a2.29,2.29,0,0,0,1.23-.42c.17-.1,4.64-2.64,4.81-2.76,2.66-1.86,4.32-5.69,4.32-11V128.49C321.33,118.18,315.06,106.21,307.33,101.75Z" transform="translate(-32 -11.25)"/><path class="cls-52" d="M307.22,101.83,156.05,14.48c-3.05-1.76-5.88-2.09-8.19-1.2-.29.11-4.31,2.27-4.58,2.42h0c2.39-1.16,5.41-1,8.71,1L303.13,104c7.73,4.46,14,16.43,14,26.74V246.36c0,6.43-2.45,10.69-6.16,11.9a2.29,2.29,0,0,0,1.23-.42c.17-.1,4.53-2.57,4.7-2.68,2.65-1.87,4.31-5.69,4.31-11V128.56C321.21,118.26,314.94,106.29,307.22,101.83Z" transform="translate(-32 -11.25)"/><path class="cls-53" d="M307.1,101.9,155.94,14.56c-3.06-1.76-5.89-2.09-8.19-1.2-.3.11-4.2,2.18-4.47,2.34h0c2.39-1.16,5.41-1,8.71,1L303.13,104c7.73,4.46,14,16.43,14,26.74V246.36c0,6.43-2.45,10.69-6.16,11.9a2.29,2.29,0,0,0,1.23-.42c.17-.1,4.41-2.49,4.58-2.61,2.66-1.86,4.31-5.68,4.31-11V128.64C321.09,118.34,314.83,106.37,307.1,101.9Z" transform="translate(-32 -11.25)"/><path class="cls-29" d="M303.8,103.68,152.64,16.33c-3.17-1.83-6.08-2.09-8.43-1.08A10.36,10.36,0,0,1,151,16.84l151.16,87.34c7.73,4.46,14,16.43,14,26.74v115.6c0,6.08-2.19,10.2-5.57,11.66,4.32-.68,7.25-5.12,7.25-12.16V130.41C317.8,120.11,311.53,108.14,303.8,103.68Z" transform="translate(-32 -11.25)"/><path class="cls-54" d="M67.24,201.91a15.9,15.9,0,0,0-4.77,4H60.71V217h0c.22,2.29,1.71,4.45,4.57,6.1l78,35.18,6.45-2.94v-10.1Z" transform="translate(-32 -11.25)"/><path class="cls-55" d="M149.75,245.38c-7.89,4.55-19.83,5.05-26.67,1.1L65.33,213.14c-6.84-3.95-6-10.84,1.91-15.4Z" transform="translate(-32 -11.25)"/><path class="cls-56" d="M149.75,246c-7.89,4.56-19.83,5.06-26.67,1.11L65.33,213.73c-3.48-2-5-4.78-4.54-7.62.31,2.19,1.8,4.25,4.54,5.84l57.75,33.34c6.84,4,18.78,3.45,26.67-1.1Z" transform="translate(-32 -11.25)"/><g class="cls-57"><path class="cls-15" d="M48.44,62c-7.89-4.56-14.29-.91-14.29,8.15v99c0,9.06,6.4,20.1,14.29,24.65L170,264c7.89,4.56,17.45.41,17.45-8.65v-99c0-9-9.56-19.59-17.45-24.15Z" transform="translate(-32 -11.25)"/><path class="cls-58" d="M48.27,62.24C40.39,57.69,34,61.34,34,70.38v98.43c0,9,6.39,20.06,14.27,24.62l121.34,70c7.89,4.55,17.15.45,17.15-8.6V156.43c0-9.05-9.26-19.61-17.15-24.17Z" transform="translate(-32 -11.25)"/><path class="cls-59" d="M48.1,62.5c-7.88-4.55-14.26-.91-14.26,8.13v97.82c0,9,6.38,20,14.26,24.59l121.11,69.88c7.87,4.55,16.84.5,16.84-8.53V156.56c0-9-9-19.63-16.84-24.17Z" transform="translate(-32 -11.25)"/><path class="cls-60" d="M47.92,62.76c-7.86-4.54-14.23-.91-14.23,8.11v97.22c0,9,6.37,20,14.23,24.56L168.8,262.4c7.86,4.54,16.54.54,16.54-8.48V156.7c0-9-8.68-19.65-16.54-24.19Z" transform="translate(-32 -11.25)"/><path class="cls-61" d="M47.75,63c-7.85-4.53-14.22-.9-14.22,8.11v96.62c0,9,6.37,20,14.22,24.52l120.64,69.62c7.86,4.53,16.23.58,16.23-8.43V156.83c0-9-8.37-19.67-16.23-24.2Z" transform="translate(-32 -11.25)"/><path class="cls-62" d="M47.58,63.27c-7.84-4.53-14.2-.91-14.2,8.09v96c0,9,6.36,20,14.2,24.49L168,261.35c7.84,4.53,15.92.63,15.92-8.37V157c0-9-8.08-19.7-15.92-24.22Z" transform="translate(-32 -11.25)"/><path class="cls-63" d="M47.41,63.52c-7.84-4.52-14.19-.9-14.19,8.09V167c0,9,6.35,19.94,14.19,24.46l120.17,69.35c7.83,4.52,15.62.67,15.62-8.32V157.1c0-9-7.79-19.71-15.62-24.23Z" transform="translate(-32 -11.25)"/><path class="cls-64" d="M47.23,63.78c-7.82-4.52-14.16-.9-14.16,8.08v94.8c0,9,6.34,19.92,14.16,24.44l119.94,69.2c7.82,4.52,15.32.72,15.32-8.25V157.24c0-9-7.5-19.74-15.32-24.25Z" transform="translate(-32 -11.25)"/><path class="cls-65" d="M47.06,64c-7.81-4.51-14.15-.9-14.15,8.06v94.21c0,9,6.34,19.89,14.15,24.4l119.7,69.07c7.82,4.51,15,.76,15-8.2V157.37c0-9-7.19-19.75-15-24.26Z" transform="translate(-32 -11.25)"/><path class="cls-66" d="M46.89,64.29c-7.81-4.5-14.13-.9-14.13,8.06V166c0,9,6.32,19.87,14.13,24.37l119.47,68.94c7.8,4.5,14.7.8,14.7-8.15v-93.6c0-9-6.9-19.78-14.7-24.28Z" transform="translate(-32 -11.25)"/><path class="cls-67" d="M46.71,64.55c-7.79-4.5-14.11-.9-14.11,8v93c0,8.95,6.32,19.84,14.11,24.34L166,258.73c7.79,4.5,14.4.85,14.4-8.09v-93c0-8.94-6.61-19.79-14.4-24.29Z" transform="translate(-32 -11.25)"/><path class="cls-68" d="M46.54,64.8c-7.78-4.49-14.09-.89-14.09,8v92.4c0,8.93,6.31,19.81,14.09,24.3l119,68.67c7.79,4.49,14.1.9,14.1-8V157.78c0-8.93-6.31-19.82-14.1-24.31Z" transform="translate(-32 -11.25)"/></g><path class="cls-69" d="M179.61,156.87c0-9-6.33-19.88-14.14-24.39L46.14,63.63C38.33,59.12,32,62.73,32,71.69V90.77L179.61,175.9Z" transform="translate(-32 -11.25)"/><path class="cls-70" d="M46.14,196.49l119.33,68.85c7.81,4.51,14.14.9,14.14-8.06V175.9L32,90.77V172.1C32,181.06,38.33,192,46.14,196.49Z" transform="translate(-32 -11.25)"/><path class="cls-71" d="M46.14,196.49l119.33,68.85c7.81,4.51,14.14.9,14.14-8.06V175.9L32,90.77V172.1C32,181.06,38.33,192,46.14,196.49Z" transform="translate(-32 -11.25)"/><path class="cls-72" d="M165.47,132.48,46.14,63.63C38.33,59.12,32,62.73,32,71.69v1.37c0-9,6.33-12.57,14.14-8.07l119.33,68.86c7.81,4.51,14.14,15.43,14.14,24.39v-1.37C179.61,147.91,173.28,137,165.47,132.48Z" transform="translate(-32 -11.25)"/><path class="cls-73" d="M61.24,204.66a15.9,15.9,0,0,0-4.77,4H54.71v11.08h0c.22,2.29,1.71,4.45,4.57,6.1l57.75,33.35c6.84,3.94,18.78,3.45,26.67-1.11V248Z" transform="translate(-32 -11.25)"/><path class="cls-74" d="M143.75,248.13c-7.89,4.55-19.83,5.05-26.67,1.1L59.33,215.89c-6.84-3.95-6-10.84,1.91-15.4Z" transform="translate(-32 -11.25)"/><path class="cls-75" d="M143.75,248.72c-7.89,4.56-19.83,5.06-26.67,1.11L59.33,216.48c-3.48-2-5-4.78-4.54-7.62.31,2.19,1.8,4.25,4.54,5.84L117.08,248c6.84,4,18.78,3.45,26.67-1.1Z" transform="translate(-32 -11.25)"/><path class="cls-29" d="M51.56,132.59l4.55,2.62,3.52,17.87.07,0V137.28l3.22,1.87V165.6l-3.72-2.15-4.35-21.82-.06,0v19.32L51.56,159Z" transform="translate(-32 -11.25)"/><path class="cls-29" d="M66.78,166.47a11.59,11.59,0,0,1-1.42-5.73V146.83c0-2.12.47-3.48,1.42-4.1s2.3-.4,4.08.62a10.64,10.64,0,0,1,4.08,4.1,11.54,11.54,0,0,1,1.42,5.73v13.91c0,2.11-.47,3.48-1.42,4.09s-2.3.41-4.08-.62A10.55,10.55,0,0,1,66.78,166.47Zm6-1.21V150.82a3.92,3.92,0,0,0-1.88-3.69c-1.25-.72-1.88-.21-1.88,1.53v14.43a3.91,3.91,0,0,0,1.88,3.69C72.11,167.51,72.74,167,72.74,165.26Z" transform="translate(-32 -11.25)"/><path class="cls-29" d="M81.5,153.65l-3.79-2.18v-3.78l11.2,6.46v3.78l-3.79-2.19v22.68l-3.62-2.09Z" transform="translate(-32 -11.25)"/><path class="cls-29" d="M95.92,158.2l9.59,5.53v3.78l-6-3.44v7.37l4.67,2.7v3.78l-4.67-2.7v11.53l-3.63-2.1Z" transform="translate(-32 -11.25)"/><path class="cls-29" d="M108.4,190.5a11.64,11.64,0,0,1-1.41-5.73V170.86c0-2.11.47-3.48,1.41-4.09s2.31-.41,4.09.62a10.55,10.55,0,0,1,4.08,4.09,11.59,11.59,0,0,1,1.42,5.73v13.91c0,2.12-.47,3.48-1.42,4.1s-2.3.4-4.08-.62A10.67,10.67,0,0,1,108.4,190.5Zm6-1.21V174.86a3.91,3.91,0,0,0-1.88-3.69c-1.25-.73-1.88-.22-1.88,1.52v14.44a3.92,3.92,0,0,0,1.88,3.69C113.74,191.54,114.37,191,114.37,189.29Z" transform="translate(-32 -11.25)"/><path class="cls-29" d="M121.68,198.18a11.74,11.74,0,0,1-1.39-5.73V172.27l3.63,2.09v20.49a4.8,4.8,0,0,0,.47,2.24,3.59,3.59,0,0,0,1.37,1.39c.59.34,1,.4,1.37.19s.48-.79.48-1.69V176.49l3.49,2v20.18c0,2.14-.46,3.52-1.39,4.13s-2.26.42-4-.6A10.34,10.34,0,0,1,121.68,198.18Z" transform="translate(-32 -11.25)"/><path class="cls-29" d="M133.67,180l4.54,2.63,3.52,17.86.07,0V184.69l3.23,1.86V213l-3.72-2.15L137,189l-.07,0v19.31l-3.22-1.86Z" transform="translate(-32 -11.25)"/><path class="cls-29" d="M147.73,188.11l5.53,3.19a10.48,10.48,0,0,1,4.05,4,11.46,11.46,0,0,1,1.35,5.65v13.38c0,2.14-.45,3.51-1.35,4.1s-2.25.36-4.05-.68l-5.53-3.2Zm5.46,25.83c.6.34,1.05.41,1.37.19s.48-.79.48-1.69V198.68a4.65,4.65,0,0,0-.48-2.24,3.46,3.46,0,0,0-1.37-1.39L151.35,194v18.9Z" transform="translate(-32 -11.25)"/><path class="cls-2" d="M193.36,331.68a31.62,31.62,0,0,1-15.68-4.14L72.22,267.39A8.63,8.63,0,0,1,72,252.51L88,242.88a1.38,1.38,0,0,1,.77-.22,1.47,1.47,0,0,1,1.28.73,1.49,1.49,0,0,1,.18,1.13,1.53,1.53,0,0,1-.68.93l-16,9.63a5.63,5.63,0,0,0,.12,9.71l105.45,60.15a28.82,28.82,0,0,0,28.27.07l8.77-4.94a1.51,1.51,0,0,1,2,.57,1.49,1.49,0,0,1-.57,2l-8.77,4.95A31.71,31.71,0,0,1,193.36,331.68Z" transform="translate(-32 -11.25)"/><path class="cls-76" d="M244.87,294.76a1.22,1.22,0,0,1-.49,1.1L237,299.7c-.31.17-.11-.21-.58-.47a3.6,3.6,0,0,1-1.72-2.84c0-.51-.5-.52-.19-.69l7.46-4a1.24,1.24,0,0,1,1.21.13A3.78,3.78,0,0,1,244.87,294.76Z" transform="translate(-32 -11.25)"/><path class="cls-77" d="M254.58,303.46a1.22,1.22,0,0,1-.48,1.09l-7.41,3.85c-.31.16-.12-.21-.59-.47a3.61,3.61,0,0,1-1.72-2.84c0-.52-.49-.52-.19-.69l7.46-4a1.21,1.21,0,0,1,1.21.13A3.76,3.76,0,0,1,254.58,303.46Z" transform="translate(-32 -11.25)"/><path class="cls-78" d="M237.2,291.11c-6.14-3.55-11.12-.71-11.12,6.34s5,15.64,11.12,19.18,11.12.71,11.12-6.34S243.34,294.66,237.2,291.11Zm0,21.59c-4.25-2.45-7.7-8.39-7.7-13.27s3.45-6.85,7.7-4.39a17,17,0,0,1,7.7,13.28C244.9,313.19,241.45,315.16,237.2,312.7Z" transform="translate(-32 -11.25)"/><ellipse class="cls-79" cx="236.23" cy="304.44" rx="9.05" ry="15.68" transform="translate(-153.35 149.59) rotate(-30.31)"/><path class="cls-80" d="M244.14,311.48c0,3-1,5.18-2.75,6.23,0,0-17.95,4.14-18,4.16-1.18.63-.43-.8-2.22-1.79-3.61-2-6.54-6.83-6.54-10.79,0-2-1.9-2-.73-2.63l13.52-12.84c1.82-1,4.24-.81,6.9.73C239.75,297.68,244.14,305.26,244.14,311.48Z" transform="translate(-32 -11.25)"/><path class="cls-81" d="M218.23,307.23c-3.49-2-6.32-.4-6.32,3.61a13.94,13.94,0,0,0,6.32,10.91c3.5,2,6.33.4,6.33-3.61A13.93,13.93,0,0,0,218.23,307.23Z" transform="translate(-32 -11.25)"/><path class="cls-82" d="M193.56,328a33.69,33.69,0,0,1-16.68-4.4L71.43,263.43a10.63,10.63,0,0,1-.23-18.33l16-9.63a3.5,3.5,0,1,1,3.62,6l-16,9.63a3.63,3.63,0,0,0,.08,6.26L180.35,317.5a26.79,26.79,0,0,0,26.3.07l8.77-4.94a3.5,3.5,0,1,1,3.43,6.1l-8.76,4.94A33.76,33.76,0,0,1,193.56,328Z" transform="translate(-32 -11.25)"/><path class="cls-83" d="M193.36,325.18A31.62,31.62,0,0,1,177.68,321L72.22,260.89A8.63,8.63,0,0,1,72,246L88,236.38a1.38,1.38,0,0,1,.77-.22,1.47,1.47,0,0,1,1.28.73,1.49,1.49,0,0,1,.18,1.13,1.53,1.53,0,0,1-.68.93l-16,9.63a5.63,5.63,0,0,0,.12,9.71l105.45,60.15a28.82,28.82,0,0,0,28.27.07l8.77-4.94a1.51,1.51,0,0,1,2,.57,1.49,1.49,0,0,1-.57,2l-8.77,4.95A31.71,31.71,0,0,1,193.36,325.18Z" transform="translate(-32 -11.25)"/><path class="cls-84" d="M193.16,324.38a31,31,0,0,1-15.34-4.05L72.37,260.19a7.93,7.93,0,0,1-.17-13.68l16-9.63a.75.75,0,0,1,.41-.12.79.79,0,0,1,.68.39.75.75,0,0,1,.1.6.78.78,0,0,1-.37.5l-16,9.63a6.34,6.34,0,0,0,.14,10.92L178.61,319a29.52,29.52,0,0,0,29,.07l8.77-4.94a.78.78,0,0,1,.39-.1.8.8,0,0,1,.7.4.81.81,0,0,1-.3,1.1l-8.77,4.94A31,31,0,0,1,193.16,324.38Z" transform="translate(-32 -11.25)"/><polygon class="cls-85" points="224.17 112.86 250.4 96.98 254.54 157.38 224.17 163.25 224.17 112.86"/><polygon class="cls-86" points="233.14 128.73 259.37 112.86 259.37 163.59 233.14 179.13 233.14 128.73"/><polygon class="cls-87" points="201.04 108.03 227.27 92.15 227.27 142.88 201.04 158.42 201.04 108.03"/><polygon class="cls-88" points="172.74 93.53 198.97 77.65 198.97 128.39 172.74 143.92 172.74 93.53"/><polygon class="cls-89" points="163.42 77.31 189.65 61.43 193.79 121.83 163.42 127.7 163.42 77.31"/><polygon class="cls-90" points="183.78 91.8 210.01 75.92 214.16 136.33 183.78 142.19 183.78 91.8"/><g class="cls-91"><path class="cls-29" d="M196.35,139.4l-16-9.26v-8.77l15.29-32.65L204.76,94v41.48l4,2.29v8.77l-4-2.3v11.14l-8.41-4.85Zm0-8.77V106.7l-.15-.09L188,125.78Z" transform="translate(-32 -11.25)"/><path class="cls-29" d="M215.53,158.45a26.94,26.94,0,0,1-3.29-13.29V112.89q0-7.36,3.29-9.5t9.48,1.44a24.69,24.69,0,0,1,9.47,9.5,27,27,0,0,1,3.29,13.3v32.26q0,7.37-3.29,9.5T225,168A24.61,24.61,0,0,1,215.53,158.45Zm13.83-2.8V122.16q0-6-4.35-8.57t-4.36,3.54v33.49q0,6.06,4.36,8.57T229.36,155.65Z" transform="translate(-32 -11.25)"/><path class="cls-29" d="M257.48,174.69l-16.05-9.26v-8.77L256.72,124l9.17,5.29v41.48l4,2.29v8.77l-4-2.29v11.13l-8.41-4.85Zm0-8.76V142l-.15-.09-8.25,19.17Z" transform="translate(-32 -11.25)"/></g><path class="cls-92" d="M61.44,85.74l-13.62,23c-1.23,1.29,0,4.76,2.15,6l27.25,15.74c2.13,1.23,3.38-.81,2.15-3.51L65.74,88.23C64.69,85.92,62.49,84.64,61.44,85.74Z" transform="translate(-32 -11.25)"/><path class="cls-93" d="M79.37,126.93,65.74,88.23a5.36,5.36,0,0,0-2.4-2.64v36.83l13.88,8C79.35,131.67,80.6,129.63,79.37,126.93Z" transform="translate(-32 -11.25)"/><path class="cls-29" d="M61.68,105.83V95.25l3.47,2v10.58l-.44,4.82-2.59-1.49Zm.06,8,3.35,1.93v3.84l-3.35-1.93Z" transform="translate(-32 -11.25)"/></g></g></svg>