<?xml version="1.0" encoding="utf-8"?>
<!-- Generator: Adobe Illustrator 25.1.0, SVG Export Plug-In . SVG Version: 6.00 Build 0)  -->
<svg version="1.1" id="Ñëîé_1" xmlns="http://www.w3.org/2000/svg" xmlns:xlink="http://www.w3.org/1999/xlink" x="0px" y="0px"
	 viewBox="0 0 62.4 98" style="enable-background:new 0 0 62.4 98;" xml:space="preserve">
<style type="text/css">
	.st0{fill:#121A46;}
	.st1{fill:url(#SVGID_1_);}
	.st2{opacity:0.4;fill:#06033E;enable-background:new    ;}
	.st3{fill:#E2B1A6;}
	.st4{fill:url(#SVGID_2_);}
	.st5{fill:url(#SVGID_3_);}
	.st6{fill:#F0F6FF;}
	.st7{fill:#C4CCD6;}
	.st8{fill:url(#SVGID_4_);}
	.st9{opacity:0.6;fill:#020230;enable-background:new    ;}
	.st10{fill:#FCD1C5;}
	.st11{fill:url(#SVGID_5_);}
	.st12{opacity:0.5;fill:#380031;enable-background:new    ;}
	.st13{fill:url(#SVGID_6_);}
	.st14{fill:#1E262D;}
</style>
<g>
	<path class="st0" d="M25.4,81.4c0,0,0.6,1.1,0.5,1.8c-0.2,0.7-2.2,3.2-2.8,4.5c-0.6,1.4-3.7,3.4-5.4,3.4s-3.3-0.6-2.5-2.2
		c0.5-1.1,1.3-2.1,2.2-3c0.7-0.7,2-2.9,2.2-3.7C19.8,81.3,25.4,81.4,25.4,81.4z"/>
	<path class="st0" d="M17,74.7c0,0,0.3,1.4,0,2c-0.3,0.5-0.8,1-2.3,1.4c-1.5,0.4-2.9,0.5-5.5,1.8c-2.5,1.3-6,1.8-7.1,0.4
		c-1.1-1.4,2.6-3.5,3.9-4c1.3-0.5,3.4-0.8,4.5-1.7c1.1-0.8,1.3-0.7,1.3-0.7L17,74.7z"/>
	
		<radialGradient id="SVGID_1_" cx="2356.8401" cy="126.43" r="37.04" gradientTransform="matrix(-0.5273 0 0 -0.4443 1216.8029 88.5579)" gradientUnits="userSpaceOnUse">
		<stop  offset="0" style="stop-color:#01C8EF"/>
		<stop  offset="0.14" style="stop-color:#02C3EB"/>
		<stop  offset="0.3" style="stop-color:#03B5DF"/>
		<stop  offset="0.47" style="stop-color:#069DCA"/>
		<stop  offset="0.65" style="stop-color:#097CAE"/>
		<stop  offset="0.84" style="stop-color:#0D538A"/>
		<stop  offset="1" style="stop-color:#122865"/>
	</radialGradient>
	<path class="st1" d="M26.2,49.5c0,0-1.2,9.5-0.9,12.8s2.9,9.5,2.1,13.7S25.6,82,25.6,82s-3.4,2.9-6,0.3c0,0,1.1-1.7,0.9-6.1
		c-0.1-2.2-0.1-3.5-0.2-4.2c0-0.5-0.2-1.1-0.5-1.5c-1.5-2.1-2.7-4.3-3.7-6.6c0,0,0.6,6.2,0.5,8.9c0,0.4,0,0.9,0.1,1.3
		c0.1,0.4,0.1,0.8,0,1.2c-0.2,0.7-3.2,3.4-5.7,1.3c0,0-1-0.5-0.7-2.2c0.1-1.1-0.2-3.6-0.5-5.6c-0.2-1.5-0.8-3-1.6-4.4
		C7.7,63.3,7,61,6.6,60c-0.8-2.1-3.8-12-3.9-14.3C2.7,43.4,6,41.8,6,41.8s7.6,3.1,7.5,3.5s9.5,3.8,9.5,3.8L26.2,49.5z"/>
	<path class="st2" d="M6,41.8c0,0,7.6,3.1,7.5,3.5c-0.1,0.4,9.5,3.8,9.5,3.8l3.3,0.5c0,0-1.2,9.5-0.9,12.8c0.4,3.3,2.9,9.5,2.1,13.7
		S25.6,82,25.6,82c-0.4,0.3-0.9,0.6-1.4,0.9c0.4-1.2,1.9-5.6,1.9-9.3C26,69.1,23.8,62,23.6,59.7c0-1.2-1.1-2.2-2.5-2.3
		c-2.2-0.1-5.4-0.4-7.7-1.4c0.7,2.5,2.8,7.9,2.8,7.9s0.6,6.6,0.5,9.2c0,0.3,0,0.5,0.1,0.8c0.1,0.5,0.2,0.9,0.1,1.4
		c-0.2,0.5-0.6,0.9-1.2,1.2c-0.1-2.7-0.7-9.6-0.9-11.1c-0.3-1.8-2.5-8.8-2.5-8.8c-1.2-0.8-1.7-2.6-1.9-3.5c-1-1.8-1.1-3.5-3-3.5
		c-0.2,0-2.4,2.4-3.9,0.5c-0.4-1.5-0.6-2.9-0.8-4.4C2.6,43.4,6,41.8,6,41.8z"/>
	<path class="st3" d="M3.1,46l0.4,1.2c0,0,0.7,0.1,1.5-0.8c0.5-0.5,0.5-1.2,0-1.7l-1.7,0.3L3.1,46z"/>
	
		<radialGradient id="SVGID_2_" cx="2375.22" cy="183.16" r="106.18" gradientTransform="matrix(-0.5273 0 0 -0.4443 1216.8029 88.5579)" gradientUnits="userSpaceOnUse">
		<stop  offset="0" style="stop-color:#01C8EF"/>
		<stop  offset="0.21" style="stop-color:#01C5ED"/>
		<stop  offset="0.37" style="stop-color:#03BBE5"/>
		<stop  offset="0.51" style="stop-color:#05ABD8"/>
		<stop  offset="0.65" style="stop-color:#0993C6"/>
		<stop  offset="0.78" style="stop-color:#0D75AF"/>
		<stop  offset="0.9" style="stop-color:#125192"/>
		<stop  offset="1" style="stop-color:#172F78"/>
	</radialGradient>
	<path class="st4" d="M9,13.2c-0.5,0-1.1,0.2-1.5,0.4c-1.1,0.5-2.4,1.8-3.2,4.8S0.3,29.5,0,31c-0.2,1.5,0.3,10.9,1.4,14.9
		c0.1,0.3,0.4,0.5,0.7,0.4c0,0,0,0,0.1,0c1.2-0.3,2.4-0.8,3.5-1.4c1.3-0.9,1.1-7.7,1.1-7.7l-0.9-8.8l1.5-7.2c0,0,2.1-5.7,1.8-6
		C8.9,14.8,9,13.2,9,13.2z"/>
	
		<linearGradient id="SVGID_3_" gradientUnits="userSpaceOnUse" x1="10.8604" y1="178.3105" x2="35.0456" y2="167.9412" gradientTransform="matrix(1 0 0 -1 -21.96 199.39)">
		<stop  offset="0" style="stop-color:#01C8EF"/>
		<stop  offset="0.46" style="stop-color:#0C7BB3"/>
		<stop  offset="0.82" style="stop-color:#144489"/>
		<stop  offset="1" style="stop-color:#172F78"/>
	</linearGradient>
	<path class="st5" d="M32.3,21.9c0,0,1.5,2.4-0.5,5.5s-6.7,9.7-6.7,9.7s1.5,9.1,1.3,11.3s-2.2,4.8-2.7,5.7c-0.5,0.8-4.6,2.9-9.4,0.9
		s-5.1-4.7-5.6-7.7c-0.5-2.9-0.3-2.8-0.3-2.8s-2.2,5.9-3.5,4.8c-0.6-0.5-0.6-1.9-0.5-3.4c0.3-3.2,0.4-6.4,0.3-9.6c0-0.1,0-0.2,0-0.3
		c0-1-0.2-10.3,0.1-12.9c0.3-2.5-0.1-6.5,1.4-8.1C7,14.3,7.9,13.7,9,13.2l2.2-0.1c0,0,12.9-0.9,14,0.5c0.6,0.7,1.1,1.5,1.5,2.3
		C26.7,15.9,30.6,19.3,32.3,21.9z"/>
	<path class="st6" d="M22.1,12.1c0.3,0.2,0.6,0.4,0.7,0.8c0.3,0.8,0.7,1.6,1.2,2.3c0,0-5.7,4.5-7.8,6.9c-1.2,1.3-2.2,2.7-2.8,4.3
		l-2.9-2.9l0.9-0.9l0.5-1.9l0.9-2.2l0.6-2.2l7.1-3.4L22.1,12.1z"/>
	<path class="st7" d="M16.4,18.2c0.7,0.4,1.2,0.9,1.5,1.5c-0.4-0.3-0.9-0.5-1.4-0.7c-0.4,0.3-0.7,0.6-1,0.9c-0.1,0.3,0,2.7,0,2.7
		l-0.4,0.5l-0.5,0c0,0-0.1-1.8-0.1-1.8c-0.1-0.5-0.1-1.1-0.1-1.6c0-0.1,1.5-1.3,1.5-1.3l0.5-0.3L16.4,18.2z"/>
	
		<radialGradient id="SVGID_4_" cx="2265.27" cy="140.44" r="101.59" gradientTransform="matrix(-0.5273 0 0 -0.4443 1216.8029 88.5579)" gradientUnits="userSpaceOnUse">
		<stop  offset="0" style="stop-color:#F9636B"/>
		<stop  offset="1" style="stop-color:#B6246E"/>
	</radialGradient>
	<path class="st8" d="M13.4,17.7c0.4-0.1,0.8-0.2,1.2-0.2c0.7,0.2,1.3,0.5,1.9,0.8c0.2,0.2-0.1,0.5-0.8,0.9C15.1,19.7,15,20,15,20
		c0.2,1.1,0.3,2.1,0.2,3.2c0,0-1.5,2.3-1.8,3.4c-0.3,1.1-1.7-3.5-1.7-3.5c0.2-0.6,0.4-1.2,0.7-1.9c0.2-0.4,1.1-2.4,0.8-2.7
		C12.9,18.2,13.4,17.7,13.4,17.7z"/>
	<path class="st9" d="M26.3,16.2l-0.9,1.7l-1.7-0.1l0.2,1.5c0,0-7,3.9-9.7,8.1l0.2,0.4c0,0,3.2-4.4,9.9-8l0.2-0.1l-0.3-1.4l1.5,0.2
		L26.3,16.2z"/>
	<path class="st10" d="M14.7,16.6c0.2,0.4,0.7,0.7,1.2,0.8c0.9,0.1,5.8-1.5,6.5-4c0,0-0.3-1.2-0.3-1.4c0.2-0.2,0.4-0.4,0.4-0.6
		c0.1-0.5,0.3-1,0.6-1.4c0.2-0.3,0.3-0.7,0.2-1.1c0,0,1.5-6.7-2.9-7.9s-7.6-0.1-9,3.8c0,0-0.3,1-0.6,1.8c-0.2,0.5-0.2,1,0,1.5
		c0.1,0.2,0.1,0.5,0.1,0.8c-0.2,0.9-0.2,1.9-0.1,2.8c0,0-0.3,0.7,0.2,1c0.6,0.3,0.5,2.4,0.5,2.4l1.6,1.4
		C13.1,16.5,13.4,16.8,14.7,16.6z"/>
	
		<radialGradient id="SVGID_5_" cx="42.37" cy="196.94" r="31.74" gradientTransform="matrix(0.5273 0 0 -0.4443 -11.596 88.5579)" gradientUnits="userSpaceOnUse">
		<stop  offset="0" style="stop-color:#F9636B"/>
		<stop  offset="1" style="stop-color:#B6246E"/>
	</radialGradient>
	<path class="st11" d="M23.3,9.3c0,0,3.2-6-1.9-8.4c-4-1.9-8.9-1-10.3,3.3c0,0-0.4,1.1,1.4,1.6S16.6,7,17.6,7c1,0,1.6,0.5,1.6,1.6
		c0,0.3,0,0.7,0.2,1c0.1,0.1,0.1,0.2,0.1,0.4v0.2c0,0.1,0.1,0.3,0.3,0.3c0.3,0.1,0.5,0,0.5,0l0,0c0.1-0.7,0.6-1.3,1.3-1.7
		C22.3,8.3,23.2,8.1,23.3,9.3z"/>
	<path class="st12" d="M12.3,21.2c0.2-0.4,1.1-2.4,0.8-2.7c-0.2-0.3,0.3-0.8,0.3-0.8c0.4-0.1,0.8-0.2,1.2-0.2l0.2,0l0,0
		c0,0-0.6,0.9-0.7,1.1s-0.7,2.6-1,3.1c-0.4,0.8-0.7,1.6-0.9,2.4l-0.2-0.1c-0.2-0.6-0.3-1-0.3-1C11.8,22.4,12.1,21.8,12.3,21.2z"/>
	<path class="st3" d="M12.8,15.2c0.4,0.4,0.6,0.9,0.8,1.5c-0.2,0-0.4-0.1-0.5-0.2l-0.6-0.6C12.6,15.6,12.8,15.2,12.8,15.2z"/>
	<path class="st10" d="M7.6,24.2c-0.5-0.6-0.8-1.4-0.8-2.1c0.1-0.7,0.2-1.4,0.3-2.1c0,0-0.6,0-0.6-0.8s0.3-1.6,0.6-1.8
		c0.2-0.1,0.4-0.2,0.7-0.1c0,0,0.2-0.7,0.9-0.6c0.1-0.3,0.3-0.6,0.6-0.8c0.3-0.2,0.7-0.1,0.9,0.1c0,0,0,0,0,0c0,0,0.2-0.7,0.5-0.8
		c0.2-0.1,0.4-0.1,0.7-0.2c0,0,1.1-0.1,1.3,0.1c0.3,1,0.6,2.1,0.7,3.1c0,0.1-0.3,1.5-0.5,2c-0.2,0.4-1.5,1.6-1.7,2.1
		c-0.2,0.5-2.3,2.3-2.3,2.3S7.6,24.2,7.6,24.2z"/>
	<path class="st9" d="M8.4,44.6c0,0,0.1-9.5,1.9-13.7l-1,1.4c-1,4.3-1.4,8.6-1.2,13L8.4,44.6z"/>
	<path class="st9" d="M8.7,29.7c0,0,8.4,6.3,8.4,6.4c0,0.1,12.2-6.4,12.2-6.4l0.4,0.7c-2.1,3.1-4.7,6.7-4.7,6.7s0.2,1.1,0.4,2.6
		c0,0-6,5.4-9.8,4.7c-3.2-0.6-6.7-9.7-7.6-12.1C8,32,8,31.6,8.1,31.2L8.7,29.7z"/>
	<path class="st3" d="M7.1,23.2c1.2-0.6,3.4-0.8,3.4-0.8L8,24.3l-0.3-0.1C7.4,23.9,7.3,23.6,7.1,23.2C7.1,23.2,7.1,23.2,7.1,23.2z"
		/>
	
		<radialGradient id="SVGID_6_" cx="1999" cy="86.37" r="202.06" gradientTransform="matrix(0.5273 0 0 -0.4443 -11.596 88.5579)" gradientUnits="userSpaceOnUse">
		<stop  offset="0" style="stop-color:#01C8EF"/>
		<stop  offset="0.14" style="stop-color:#02C3EB"/>
		<stop  offset="0.3" style="stop-color:#03B5DF"/>
		<stop  offset="0.47" style="stop-color:#069DCA"/>
		<stop  offset="0.65" style="stop-color:#097CAE"/>
		<stop  offset="0.84" style="stop-color:#0D538A"/>
		<stop  offset="1" style="stop-color:#122865"/>
	</radialGradient>
	<path class="st13" d="M22.6,25.8c1.4-1.3,3-2.5,4.7-3.4c1.5-0.8,3.2-1.5,4.1-0.9c2,1.1,1.6,3.3,0.6,5.4C31.2,29,22.7,41,16.8,40.7
		c0,0-4.3-3.7-6.2-6.7c-1.6-2.4-4.3-6.7-5.1-7.9c-0.1-0.2-0.1-0.5,0.1-0.6c1.2-0.9,4.7-3.5,5.8-3.1c0,0,2.4,5.1,4.8,7.7l1.9,1.5
		c0.9-1.3,1.8-2.6,2.8-3.8C21.3,27.2,22,26.5,22.6,25.8z"/>
	<path class="st3" d="M15.9,17.4c-0.6-0.1-1-0.4-1.2-0.8c0,0,5-1.7,5.6-4.3c0,0,0,2.7-1.3,4.2C17.6,17.1,16.3,17.5,15.9,17.4z"/>
	<path class="st14" d="M16.2,63.9L16.2,63.9C16.2,64,16.2,63.9,16.2,63.9z"/>
	<path class="st2" d="M20.6,83c-0.4-0.2-0.7-0.4-1-0.7c0,0,1.1-1.7,0.9-6.1c-0.1-2.2-0.1-3.5-0.2-4.2c0-0.5-0.2-1.1-0.5-1.5
		c-1.4-2-2.5-4-3.5-6.1v-0.1c0.9,1.3,4.7,5.1,5.2,8.1S21,81.2,20.6,83z"/>
	<path class="st14" d="M16.3,64.3L16.3,64.3c0-0.1-0.1-0.3-0.1-0.4C16.2,63.8,16.3,64,16.3,64.3z"/>
	<path class="st9" d="M6.1,25c0,0,7.7,14,11.2,14.6c3.5,0.6,12.9-9.7,12.9-9.7v0c-3,4.2-9,11-13.4,10.8c0,0-4.3-3.7-6.2-6.7
		c-1.6-2.4-4.3-6.7-5.1-7.9c-0.1-0.2-0.1-0.5,0.1-0.6C5.7,25.3,5.9,25.2,6.1,25z"/>
	<path class="st9" d="M18,31.6c0.5,0.7,1,1.4,1.3,2.1l-1.2-2.4L18,31.6z"/>
	<path class="st12" d="M23.3,9.3c0.6-1.2,0.9-2.5,1-3.7c0,0.4-0.3,0.7-0.6,0.9C22.8,7,19.2,9,19.2,9c0,0.2,0.1,0.4,0.2,0.6
		c0.1,0.1,0.1,0.2,0.1,0.4v0.2c0,0.1,0.1,0.3,0.3,0.3c0.3,0.1,0.5,0,0.5,0l0,0c0.1-0.7,0.6-1.3,1.3-1.7C22.3,8.3,23.2,8.1,23.3,9.3z
		"/>
</g>
</svg>
