<svg id="Layer_1" data-name="Layer 1" xmlns="http://www.w3.org/2000/svg" viewBox="0 0 401.79 294.86"><defs><style>.cls-1{fill:#66c5ff;}.cls-2,.cls-8,.cls-9{fill:#fff;}.cls-2{opacity:0.6;}.cls-2,.cls-9{isolation:isolate;}.cls-3{fill:#24a7ff;}.cls-4{fill:#3bb0ff;}.cls-5{fill:#3d4959;}.cls-6{fill:#d6e0ea;}.cls-7{fill:#ededed;}.cls-9{opacity:0.2;}.cls-10{fill:#f3f9ff;}.cls-11{fill:#425160;}.cls-12{fill:#41566d;}.cls-13{fill:#e4eff7;}.cls-14{fill:#dde9f2;}.cls-15{fill:#55738e;}</style></defs><path class="cls-1" d="M112.63,203.47a28.69,28.69,0,0,1,43.46-21.55,26.84,26.84,0,0,1,42,18.05,28.53,28.53,0,0,1-6.45,56.32H123a27.42,27.42,0,0,1-10.35-52.82Z" transform="translate(-48.11 -122.7)"/><path class="cls-2" d="M182.55,225.26a24.33,24.33,0,0,0,0-9.91l-3.88-.55a19.35,19.35,0,0,0-1.89-4.56l2.35-3.14a24.07,24.07,0,0,0-7-7L169,202.43a19.88,19.88,0,0,0-4.57-1.9l-.54-3.87a24.42,24.42,0,0,0-9.93,0l-.55,3.87a19.88,19.88,0,0,0-4.57,1.9l-3.14-2.35a24.32,24.32,0,0,0-7,7l2.35,3.15a19.35,19.35,0,0,0-1.89,4.56l-3.88.55a24.33,24.33,0,0,0,0,9.91l3.88.56a19.73,19.73,0,0,0,1.9,4.55l-2.36,3.16a24.32,24.32,0,0,0,7,7l3.14-2.36a20.3,20.3,0,0,0,4.57,1.89l.55,3.89a24.37,24.37,0,0,0,9.92,0l.55-3.89a20.3,20.3,0,0,0,4.57-1.89l3.14,2.36a24.32,24.32,0,0,0,7-7l-2.36-3.15a19.81,19.81,0,0,0,1.9-4.56ZM158.9,232a11.66,11.66,0,1,1,11.65-11.67h0A11.66,11.66,0,0,1,158.91,232Z" transform="translate(-48.11 -122.7)"/><path class="cls-1" d="M269.07,176.45a28.7,28.7,0,0,1,43.46-21.55,26.86,26.86,0,0,1,42,18.06,28.53,28.53,0,0,1-6.46,56.32H279.43a27.43,27.43,0,0,1-10.36-52.83Z" transform="translate(-48.11 -122.7)"/><path class="cls-3" d="M179.69,330a30.52,30.52,0,0,0-21.33-29.1,28.76,28.76,0,0,0-44.46-20.31A28.76,28.76,0,0,0,69.43,300.9a30.51,30.51,0,0,0,9.18,59.6h71.24A30.51,30.51,0,0,0,179.69,330Z" transform="translate(-48.11 -122.7)"/><path class="cls-4" d="M113.64,280.47a28.75,28.75,0,0,0-44.21,20.47,30.51,30.51,0,0,0,9.18,59.6H100Z" transform="translate(-48.11 -122.7)"/><rect class="cls-5" x="62.24" y="222.94" width="77.83" height="5.79"/><rect class="cls-5" x="62.24" y="194.87" width="77.83" height="5.79"/><rect class="cls-6" x="54.42" y="227.3" width="93.15" height="26.03" rx="4.01"/><path class="cls-7" d="M141.18,350l-4.24,26H106.53a4,4,0,0,1-4-4V354a4,4,0,0,1,4-4Z" transform="translate(-48.11 -122.7)"/><rect class="cls-5" x="60.14" y="233.03" width="81.69" height="14.57"/><path class="cls-3" d="M183.5,363a2.51,2.51,0,1,1-2.52-2.5h0A2.52,2.52,0,0,1,183.5,363Z" transform="translate(-48.11 -122.7)"/><path class="cls-3" d="M172.66,363a2.15,2.15,0,1,1-2.15-2.15h0A2.15,2.15,0,0,1,172.66,363Z" transform="translate(-48.11 -122.7)"/><path class="cls-8" d="M162.18,363a2.15,2.15,0,1,1-2.15-2.15h0A2.15,2.15,0,0,1,162.18,363Z" transform="translate(-48.11 -122.7)"/><path class="cls-3" d="M151.7,363a2.15,2.15,0,1,1-2.15-2.15h0A2.15,2.15,0,0,1,151.7,363Z" transform="translate(-48.11 -122.7)"/><path class="cls-8" d="M141.22,363a2.15,2.15,0,1,1-2.15-2.15h0A2.15,2.15,0,0,1,141.22,363Z" transform="translate(-48.11 -122.7)"/><rect class="cls-6" x="54.42" y="198.78" width="93.15" height="26.03" rx="4.01"/><path class="cls-7" d="M145.82,321.49l-4.23,26H106.53a4,4,0,0,1-4-4v-18a4,4,0,0,1,4-4Z" transform="translate(-48.11 -122.7)"/><rect class="cls-5" x="60.14" y="204.52" width="81.69" height="14.57"/><rect class="cls-6" x="54.42" y="170.72" width="93.15" height="26.03" rx="4.01"/><path class="cls-7" d="M150.4,293.42l-4.24,26H106.53a4,4,0,0,1-4-4v-18a4,4,0,0,1,4-4Z" transform="translate(-48.11 -122.7)"/><rect class="cls-5" x="60.15" y="176.45" width="81.69" height="14.57"/><circle class="cls-3" cx="132.88" cy="211.8" r="2.51"/><path class="cls-3" d="M172.66,334.5a2.15,2.15,0,1,1-2.15-2.15h0A2.15,2.15,0,0,1,172.66,334.5Z" transform="translate(-48.11 -122.7)"/><path class="cls-8" d="M162.18,334.5a2.15,2.15,0,1,1-2.15-2.15h0A2.15,2.15,0,0,1,162.18,334.5Z" transform="translate(-48.11 -122.7)"/><path class="cls-3" d="M151.7,334.5a2.15,2.15,0,1,1-2.15-2.15h0A2.15,2.15,0,0,1,151.7,334.5Z" transform="translate(-48.11 -122.7)"/><path class="cls-8" d="M141.22,334.5a2.15,2.15,0,1,1-2.15-2.15h0A2.15,2.15,0,0,1,141.22,334.5Z" transform="translate(-48.11 -122.7)"/><path class="cls-3" d="M183.5,306.44a2.51,2.51,0,1,1-2.51-2.51,2.51,2.51,0,0,1,2.51,2.51Z" transform="translate(-48.11 -122.7)"/><path class="cls-8" d="M172.66,306.44a2.15,2.15,0,1,1-2.15-2.15h0A2.15,2.15,0,0,1,172.66,306.44Z" transform="translate(-48.11 -122.7)"/><path class="cls-8" d="M162.18,306.44a2.15,2.15,0,1,1-2.15-2.15h0A2.15,2.15,0,0,1,162.18,306.44Z" transform="translate(-48.11 -122.7)"/><path class="cls-3" d="M151.7,306.44a2.15,2.15,0,1,1-2.15-2.15h0A2.15,2.15,0,0,1,151.7,306.44Z" transform="translate(-48.11 -122.7)"/><path class="cls-3" d="M141.22,306.44a2.15,2.15,0,1,1-2.15-2.15h0A2.15,2.15,0,0,1,141.22,306.44Z" transform="translate(-48.11 -122.7)"/><path class="cls-3" d="M303.86,336.45a24.1,24.1,0,0,0-16.84-23,22.7,22.7,0,0,0-35.11-16,22.69,22.69,0,0,0-35.1,16,24.09,24.09,0,0,0,7.24,47.07h56.26A24.07,24.07,0,0,0,303.86,336.45Z" transform="translate(-48.11 -122.7)"/><path class="cls-4" d="M251.71,297.31a22.69,22.69,0,0,0-34.9,16.16,24.09,24.09,0,0,0,7.24,47.07H241Z" transform="translate(-48.11 -122.7)"/><rect class="cls-5" x="165.06" y="264.47" width="77.83" height="5.79"/><rect class="cls-5" x="165.06" y="236.41" width="77.83" height="5.79"/><rect class="cls-6" x="157.23" y="268.83" width="93.15" height="26.03" rx="4.01"/><path class="cls-7" d="M244,391.53l-4.24,26h-30.4a4,4,0,0,1-4-4v-18a4,4,0,0,1,4-4Z" transform="translate(-48.11 -122.7)"/><rect class="cls-5" x="162.95" y="274.56" width="81.69" height="14.57"/><path class="cls-3" d="M286.31,404.55A2.51,2.51,0,1,1,283.8,402a2.51,2.51,0,0,1,2.51,2.55Z" transform="translate(-48.11 -122.7)"/><path class="cls-3" d="M275.47,404.55a2.15,2.15,0,1,1-2.15-2.15h0A2.15,2.15,0,0,1,275.47,404.55Z" transform="translate(-48.11 -122.7)"/><path class="cls-8" d="M265,404.55a2.15,2.15,0,1,1-2.15-2.15h0A2.15,2.15,0,0,1,265,404.55Z" transform="translate(-48.11 -122.7)"/><path class="cls-3" d="M254.51,404.55a2.15,2.15,0,1,1-2.15-2.15h0A2.15,2.15,0,0,1,254.51,404.55Z" transform="translate(-48.11 -122.7)"/><path class="cls-8" d="M244,404.55a2.15,2.15,0,1,1-2.15-2.15h0A2.15,2.15,0,0,1,244,404.55Z" transform="translate(-48.11 -122.7)"/><rect class="cls-6" x="157.23" y="240.32" width="93.15" height="26.03" rx="4.01"/><path class="cls-7" d="M248.63,363l-4.23,26H209.35a4,4,0,0,1-4-4V367a4,4,0,0,1,4-4Z" transform="translate(-48.11 -122.7)"/><rect class="cls-5" x="162.96" y="246.05" width="81.69" height="14.57"/><rect class="cls-6" x="157.23" y="212.25" width="93.15" height="26.03" rx="4.01"/><path class="cls-7" d="M253.21,335,249,361H209.35a4,4,0,0,1-4-4V339a4,4,0,0,1,4-4Z" transform="translate(-48.11 -122.7)"/><rect class="cls-5" x="162.95" y="217.99" width="81.69" height="14.57"/><path class="cls-3" d="M286.31,376a2.51,2.51,0,1,1-2.51-2.51,2.51,2.51,0,0,1,2.51,2.51Z" transform="translate(-48.11 -122.7)"/><path class="cls-3" d="M275.47,376a2.15,2.15,0,1,1-2.15-2.15h0A2.15,2.15,0,0,1,275.47,376Z" transform="translate(-48.11 -122.7)"/><path class="cls-8" d="M265,376a2.15,2.15,0,1,1-2.15-2.15h0A2.15,2.15,0,0,1,265,376Z" transform="translate(-48.11 -122.7)"/><path class="cls-3" d="M254.51,376a2.15,2.15,0,1,1-2.15-2.15h0A2.15,2.15,0,0,1,254.51,376Z" transform="translate(-48.11 -122.7)"/><path class="cls-8" d="M244,376a2.15,2.15,0,1,1-2.15-2.15h0A2.15,2.15,0,0,1,244,376Z" transform="translate(-48.11 -122.7)"/><path class="cls-3" d="M286.31,348a2.51,2.51,0,1,1-2.51-2.51,2.51,2.51,0,0,1,2.51,2.51Z" transform="translate(-48.11 -122.7)"/><path class="cls-8" d="M275.47,348a2.15,2.15,0,1,1-2.15-2.15h0A2.15,2.15,0,0,1,275.47,348Z" transform="translate(-48.11 -122.7)"/><path class="cls-8" d="M265,348a2.15,2.15,0,1,1-2.15-2.15h0A2.15,2.15,0,0,1,265,348Z" transform="translate(-48.11 -122.7)"/><path class="cls-3" d="M254.51,348a2.15,2.15,0,1,1-2.15-2.15h0A2.15,2.15,0,0,1,254.51,348Z" transform="translate(-48.11 -122.7)"/><path class="cls-3" d="M244,348a2.15,2.15,0,1,1-2.15-2.15h0A2.15,2.15,0,0,1,244,348Z" transform="translate(-48.11 -122.7)"/><path class="cls-3" d="M449.9,330a30.52,30.52,0,0,0-21.33-29.1,28.76,28.76,0,0,0-44.47-20.31,28.75,28.75,0,0,0-44.46,20.31,30.51,30.51,0,0,0,9.18,59.6h71.24A30.51,30.51,0,0,0,449.9,330Z" transform="translate(-48.11 -122.7)"/><path class="cls-4" d="M383.85,280.47a28.75,28.75,0,0,0-44.21,20.47,30.51,30.51,0,0,0,9.18,59.6h21.43Z" transform="translate(-48.11 -122.7)"/><rect class="cls-5" x="267.87" y="222.94" width="77.83" height="5.79"/><rect class="cls-5" x="267.87" y="194.87" width="77.83" height="5.79"/><rect class="cls-6" x="260.04" y="227.3" width="93.15" height="26.03" rx="4.01"/><path class="cls-7" d="M346.81,350l-4.25,26h-30.4a4,4,0,0,1-4-4V354a4,4,0,0,1,4-4Z" transform="translate(-48.11 -122.7)"/><rect class="cls-5" x="265.77" y="233.03" width="81.69" height="14.57"/><path class="cls-3" d="M389.12,363a2.51,2.51,0,1,1-2.52-2.5h0A2.52,2.52,0,0,1,389.12,363Z" transform="translate(-48.11 -122.7)"/><circle class="cls-3" cx="328.02" cy="240.31" r="2.15"/><path class="cls-8" d="M367.8,363a2.15,2.15,0,1,1-2.15-2.15h0A2.15,2.15,0,0,1,367.8,363Z" transform="translate(-48.11 -122.7)"/><path class="cls-3" d="M357.32,363a2.15,2.15,0,1,1-2.15-2.15h0A2.15,2.15,0,0,1,357.32,363Z" transform="translate(-48.11 -122.7)"/><path class="cls-8" d="M346.84,363a2.15,2.15,0,1,1-2.15-2.15h0A2.15,2.15,0,0,1,346.84,363Z" transform="translate(-48.11 -122.7)"/><rect class="cls-6" x="260.04" y="198.78" width="93.15" height="26.03" rx="4.01"/><path class="cls-7" d="M351.45,321.49l-4.24,26h-35a4,4,0,0,1-4-4v-18a4,4,0,0,1,4-4Z" transform="translate(-48.11 -122.7)"/><rect class="cls-5" x="265.77" y="204.51" width="81.69" height="14.57"/><rect class="cls-6" x="260.04" y="170.72" width="93.15" height="26.03" rx="4.01"/><path class="cls-7" d="M356,293.42l-4.24,26h-39.6a4,4,0,0,1-4-4v-18a4,4,0,0,1,4-4Z" transform="translate(-48.11 -122.7)"/><rect class="cls-5" x="265.77" y="176.45" width="81.69" height="14.57"/><path class="cls-3" d="M389.12,334.5a2.51,2.51,0,1,1-2.51-2.51,2.51,2.51,0,0,1,2.51,2.51Z" transform="translate(-48.11 -122.7)"/><path class="cls-3" d="M378.28,334.5a2.15,2.15,0,1,1-2.15-2.15h0A2.15,2.15,0,0,1,378.28,334.5Z" transform="translate(-48.11 -122.7)"/><path class="cls-8" d="M367.8,334.5a2.15,2.15,0,1,1-2.15-2.15h0A2.15,2.15,0,0,1,367.8,334.5Z" transform="translate(-48.11 -122.7)"/><path class="cls-3" d="M357.32,334.5a2.15,2.15,0,1,1-2.15-2.15h0A2.15,2.15,0,0,1,357.32,334.5Z" transform="translate(-48.11 -122.7)"/><path class="cls-8" d="M346.84,334.5a2.15,2.15,0,1,1-2.15-2.15h0A2.15,2.15,0,0,1,346.84,334.5Z" transform="translate(-48.11 -122.7)"/><path class="cls-3" d="M389.12,306.44a2.51,2.51,0,1,1-2.51-2.51,2.51,2.51,0,0,1,2.51,2.51Z" transform="translate(-48.11 -122.7)"/><path class="cls-8" d="M378.28,306.44a2.15,2.15,0,1,1-2.15-2.15h0A2.15,2.15,0,0,1,378.28,306.44Z" transform="translate(-48.11 -122.7)"/><path class="cls-8" d="M367.8,306.44a2.15,2.15,0,1,1-2.15-2.15h0A2.15,2.15,0,0,1,367.8,306.44Z" transform="translate(-48.11 -122.7)"/><path class="cls-3" d="M357.32,306.44a2.15,2.15,0,1,1-2.15-2.15h0A2.15,2.15,0,0,1,357.32,306.44Z" transform="translate(-48.11 -122.7)"/><path class="cls-3" d="M346.84,306.44a2.15,2.15,0,1,1-2.15-2.15h0A2.15,2.15,0,0,1,346.84,306.44Z" transform="translate(-48.11 -122.7)"/><path class="cls-4" d="M184,122.7H319.87a8.8,8.8,0,0,1,8.81,8.81v81.42a10.5,10.5,0,0,1-10.5,10.5H185.65a10.5,10.5,0,0,1-10.5-10.5h0V131.51A8.8,8.8,0,0,1,184,122.7Z" transform="translate(-48.11 -122.7)"/><path class="cls-9" d="M250.57,122.7H184a8.8,8.8,0,0,0-8.81,8.79v81.44a10.5,10.5,0,0,0,10.5,10.49H230.3Z" transform="translate(-48.11 -122.7)"/><path class="cls-6" d="M175.15,139.28H328.68V231.2a8.8,8.8,0,0,1-8.81,8.81H184a8.8,8.8,0,0,1-8.81-8.81V139.28Z" transform="translate(-48.11 -122.7)"/><path class="cls-10" d="M324.48,139.28V231.2a4.66,4.66,0,0,1-4.66,4.66H184a4.66,4.66,0,0,1-4.66-4.66h0V139.28H324.48Z" transform="translate(-48.11 -122.7)"/><path class="cls-11" d="M279.18,207v-9l-6.2-.88a19.73,19.73,0,0,0-2.35-5.7l3.74-5L268,180l-5,3.75a19.56,19.56,0,0,0-5.69-2.35l-.89-6.17h-9l-.89,6.17a19.56,19.56,0,0,0-5.69,2.35l-5-3.75-6.41,6.41,3.75,5a18.72,18.72,0,0,0-2.35,5.7l-6.17.88v9l6.17.89a19.25,19.25,0,0,0,2.35,5.73l-3.75,5,6.41,6.38,5-3.75a18.63,18.63,0,0,0,5.69,2.38l.89,6.17h9l.89-6.17a18.63,18.63,0,0,0,5.69-2.38l5,3.75,6.37-6.38-3.74-5a20.67,20.67,0,0,0,2.35-5.69Zm-27.27,9.14a13.65,13.65,0,1,1,13.64-13.66v0a13.61,13.61,0,0,1-13.62,13.6h0Z" transform="translate(-48.11 -122.7)"/><path class="cls-5" d="M251.87,216.11a13.65,13.65,0,0,1,0-27.3v-13.6h-4.49l-.89,6.17a19.56,19.56,0,0,0-5.69,2.35l-5-3.75-6.41,6.41,3.75,5a18.72,18.72,0,0,0-2.35,5.7l-6.17.88v9l6.17.89a19.25,19.25,0,0,0,2.35,5.73l-3.75,5L235.8,225l5-3.75a18.63,18.63,0,0,0,5.69,2.38l.89,6.17h4.49Z" transform="translate(-48.11 -122.7)"/><path class="cls-12" d="M312.71,170.57v-6.44l-4.43-.63a13.6,13.6,0,0,0-1.67-4.06l2.67-3.54-4.54-4.57L301.17,154a14,14,0,0,0-4.06-1.68l-.63-4.39H290l-.63,4.39a14,14,0,0,0-4.06,1.68l-3.54-2.67-4.57,4.57,2.67,3.54a13.27,13.27,0,0,0-1.68,4.06l-4.4.63v6.44l4.4.63a13.48,13.48,0,0,0,1.68,4.08l-2.67,3.55,4.57,4.54,3.54-2.67a13.31,13.31,0,0,0,4.06,1.7l.63,4.4h6.44l.63-4.4a13.31,13.31,0,0,0,4.06-1.7l3.57,2.67,4.54-4.54-2.67-3.57a14.26,14.26,0,0,0,1.67-4.06Zm-19.44,6.51a9.73,9.73,0,1,1,9.72-9.74v0a9.7,9.7,0,0,1-9.68,9.72Z" transform="translate(-48.11 -122.7)"/><path class="cls-8" d="M292.34,131.14a3.39,3.39,0,1,1-3.4-3.38h0a3.38,3.38,0,0,1,3.39,3.37Z" transform="translate(-48.11 -122.7)"/><path class="cls-8" d="M306.15,131.14a3.38,3.38,0,1,1-3.38-3.38,3.38,3.38,0,0,1,3.38,3.38Z" transform="translate(-48.11 -122.7)"/><path class="cls-8" d="M320,131.14a3.38,3.38,0,1,1-3.38-3.38,3.38,3.38,0,0,1,3.38,3.38Z" transform="translate(-48.11 -122.7)"/><path class="cls-3" d="M284.7,225.49a2.7,2.7,0,1,1-2.7-2.7,2.7,2.7,0,0,1,2.7,2.7Z" transform="translate(-48.11 -122.7)"/><path class="cls-3" d="M296.38,225.49a2.71,2.71,0,1,1-2.72-2.7h0A2.72,2.72,0,0,1,296.38,225.49Z" transform="translate(-48.11 -122.7)"/><path class="cls-3" d="M309.16,225.49a3.82,3.82,0,1,1-3.83-3.81h0A3.82,3.82,0,0,1,309.16,225.49Z" transform="translate(-48.11 -122.7)"/><path class="cls-3" d="M319.73,225.49a2.71,2.71,0,1,1-2.72-2.7h0A2.72,2.72,0,0,1,319.73,225.49Z" transform="translate(-48.11 -122.7)"/><path class="cls-3" d="M189.51,225.49a2.71,2.71,0,1,1-2.72-2.7h0A2.72,2.72,0,0,1,189.51,225.49Z" transform="translate(-48.11 -122.7)"/><path class="cls-3" d="M201.18,225.49a2.7,2.7,0,1,1-2.7-2.7h0A2.7,2.7,0,0,1,201.18,225.49Z" transform="translate(-48.11 -122.7)"/><path class="cls-3" d="M212.85,225.49a2.7,2.7,0,1,1-2.7-2.7h0A2.7,2.7,0,0,1,212.85,225.49Z" transform="translate(-48.11 -122.7)"/><path class="cls-3" d="M224.53,225.49a2.71,2.71,0,1,1-2.72-2.7h0A2.7,2.7,0,0,1,224.53,225.49Z" transform="translate(-48.11 -122.7)"/><path class="cls-13" d="M165.42,148.87v-7.41l-5.09-.73a16.16,16.16,0,0,0-1.92-4.67l3.07-4.08-5.22-5.25-4.12,3.07a15.8,15.8,0,0,0-4.67-1.93l-.72-5.06h-7.41l-.73,5.06a15.8,15.8,0,0,0-4.67,1.93l-4.08-3.07L124.61,132l3.07,4.08a15.54,15.54,0,0,0-1.93,4.67l-5.06.73v7.41l5.06.72a15.71,15.71,0,0,0,1.93,4.7l-3.07,4.08,5.25,5.23,4.08-3.07a15.58,15.58,0,0,0,4.67,1.95l.73,5.06h7.41l.72-5.06a15.58,15.58,0,0,0,4.67-1.95l4.12,3.07,5.22-5.23-3.07-4.11a16.44,16.44,0,0,0,1.92-4.67Zm-22.36,5.57a9.28,9.28,0,1,1,9.27-9.29v0a9.25,9.25,0,0,1-9.24,9.26Z" transform="translate(-48.11 -122.7)"/><path class="cls-14" d="M396.06,251.24v-6.42l-4.4-.63a13.91,13.91,0,0,0-1.67-4l2.66-3.54-4.53-4.55-3.56,2.66a13.91,13.91,0,0,0-4-1.67l-.63-4.38h-6.42l-.63,4.38a14.19,14.19,0,0,0-4,1.67l-3.53-2.66-4.56,4.55,2.67,3.54a12.91,12.91,0,0,0-1.67,4l-4.39.63v6.42l4.39.63a13.5,13.5,0,0,0,1.67,4.06l-2.67,3.54,4.56,4.53,3.53-2.67a13.23,13.23,0,0,0,4,1.7l.63,4.38h6.42l.63-4.38a13.23,13.23,0,0,0,4-1.7l3.56,2.67,4.53-4.53L390,255.91a14.49,14.49,0,0,0,1.67-4Zm-19.37,4.82a8,8,0,1,1,8-8A8,8,0,0,1,376.69,256.06Z" transform="translate(-48.11 -122.7)"/><path class="cls-13" d="M340.29,398.25V394l-2.91-.42a8.94,8.94,0,0,0-1.11-2.67l1.77-2.34-3-3-2.36,1.77a8.94,8.94,0,0,0-2.67-1.11l-.42-2.9h-4.24l-.42,2.9a9,9,0,0,0-2.68,1.11l-2.33-1.77-3,3,1.77,2.34a8.59,8.59,0,0,0-1.11,2.67l-2.9.42v4.24l2.9.42a9.05,9.05,0,0,0,1.11,2.69l-1.77,2.34,3,3,2.33-1.77a8.93,8.93,0,0,0,2.68,1.13l.42,2.9h4.24l.42-2.9a8.63,8.63,0,0,0,2.67-1.13L335,406.7l3-3-1.77-2.35a9.38,9.38,0,0,0,1.11-2.68Zm-12.81,3.2a5.32,5.32,0,1,1,5.31-5.33v0a5.3,5.3,0,0,1-5.29,5.31Z" transform="translate(-48.11 -122.7)"/><path class="cls-14" d="M339.8,144.35a2.7,2.7,0,1,1-2.7-2.7,2.7,2.7,0,0,1,2.7,2.7Z" transform="translate(-48.11 -122.7)"/><path class="cls-14" d="M351.48,144.35a2.71,2.71,0,1,1-2.72-2.7h0a2.7,2.7,0,0,1,2.7,2.7Z" transform="translate(-48.11 -122.7)"/><path class="cls-14" d="M364.27,144.35a3.82,3.82,0,1,1-3.82-3.82,3.82,3.82,0,0,1,3.82,3.82Z" transform="translate(-48.11 -122.7)"/><path class="cls-14" d="M374.83,144.35a2.71,2.71,0,1,1-2.72-2.7h0a2.7,2.7,0,0,1,2.7,2.7Z" transform="translate(-48.11 -122.7)"/><path class="cls-14" d="M178.8,387.17a2.71,2.71,0,1,1,2.72,2.7h0a2.7,2.7,0,0,1-2.71-2.69Z" transform="translate(-48.11 -122.7)"/><path class="cls-14" d="M167.13,387.17a2.7,2.7,0,1,1,2.7,2.7,2.7,2.7,0,0,1-2.7-2.7Z" transform="translate(-48.11 -122.7)"/><path class="cls-14" d="M154.34,387.17a3.82,3.82,0,1,1,3.82,3.82,3.82,3.82,0,0,1-3.82-3.82Z" transform="translate(-48.11 -122.7)"/><path class="cls-14" d="M143.78,387.17a2.71,2.71,0,1,1,2.72,2.7h0a2.7,2.7,0,0,1-2.7-2.7Z" transform="translate(-48.11 -122.7)"/><rect class="cls-15" x="265.77" y="165.48" width="4.59" height="2.71"/><rect class="cls-15" x="265.77" y="160.39" width="4.59" height="2.71"/><rect class="cls-15" x="265.77" y="155.3" width="4.59" height="2.71"/><rect class="cls-15" x="265.77" y="150.21" width="4.59" height="2.71"/><rect class="cls-15" x="265.77" y="145.12" width="4.59" height="2.71"/><rect class="cls-15" x="265.77" y="140.03" width="4.59" height="2.71"/><rect class="cls-15" x="265.77" y="134.94" width="4.59" height="2.71"/><rect class="cls-15" x="265.77" y="129.85" width="4.59" height="2.71"/><rect class="cls-15" x="265.77" y="124.76" width="4.59" height="2.71"/><rect class="cls-15" x="265.77" y="119.66" width="4.59" height="2.71"/><rect class="cls-15" x="201.51" y="165.48" width="4.59" height="2.71"/><rect class="cls-15" x="201.51" y="160.39" width="4.59" height="2.71"/><rect class="cls-15" x="201.51" y="155.3" width="4.59" height="2.71"/><rect class="cls-15" x="201.51" y="150.21" width="4.59" height="2.71"/><rect class="cls-15" x="201.51" y="145.12" width="4.59" height="2.71"/><rect class="cls-15" x="201.51" y="140.03" width="4.59" height="2.71"/><rect class="cls-15" x="201.51" y="134.94" width="4.59" height="2.71"/><rect class="cls-15" x="201.51" y="129.85" width="4.59" height="2.71"/><rect class="cls-15" x="201.51" y="124.76" width="4.59" height="2.71"/><rect class="cls-15" x="201.51" y="119.66" width="4.59" height="2.71"/><rect class="cls-15" x="137.25" y="165.48" width="4.59" height="2.71"/><rect class="cls-15" x="137.25" y="160.39" width="4.59" height="2.71"/><rect class="cls-15" x="137.25" y="155.3" width="4.59" height="2.71"/><rect class="cls-15" x="137.25" y="150.21" width="4.59" height="2.71"/><rect class="cls-15" x="137.25" y="145.12" width="4.59" height="2.71"/><rect class="cls-15" x="137.25" y="140.03" width="4.59" height="2.71"/><rect class="cls-15" x="137.25" y="134.94" width="4.59" height="2.71"/><rect class="cls-15" x="137.25" y="129.85" width="4.59" height="2.71"/><rect class="cls-15" x="137.25" y="124.76" width="4.59" height="2.71"/><rect class="cls-15" x="137.25" y="119.66" width="4.59" height="2.71"/><path class="cls-12" d="M201.24,184.58a2.17,2.17,0,0,0,2.32-2v-2c6.33-.52,10.53-3.54,10.53-8.46V172c0-5-3.57-7.29-10.67-8.77v-4.68a21.25,21.25,0,0,1,3.11,1,3.9,3.9,0,0,0,4.7-1.24,2.9,2.9,0,0,0-.79-4,2.8,2.8,0,0,0-.62-.32,22.35,22.35,0,0,0-6.18-1.5v-1.2c0-.67-1-1.21-2.32-1.21s-2.32.51-2.32,1.14v1.15c-6.82.45-10.66,3.75-10.66,8.5V161c0,5,3.66,7.21,10.84,8.7v4.83a18.8,18.8,0,0,1-5.13-1.56,4.28,4.28,0,0,0-5.18.93,2.85,2.85,0,0,0,.51,4,3.07,3.07,0,0,0,.68.39,28.86,28.86,0,0,0,8.85,2.27v2A2.19,2.19,0,0,0,201.24,184.58Zm2.14-14.25c2.32.6,3,1.21,3,2.3v.08c0,1.16-.94,1.85-3,2Zm-7.19-10v-.08c0-1,.85-1.85,3-2v4.35c-2.37-.6-3-1.17-3-2.22Z" transform="translate(-48.11 -122.7)"/></svg>