<svg id="Ñëîé_1" data-name="Ñëîé 1" xmlns="http://www.w3.org/2000/svg" viewBox="0 0 433.07 300.71"><defs><style>.cls-1,.cls-3{opacity:0.4;}.cls-2,.cls-3{fill:#e5e5ff;}.cls-4{fill:#9192ff;}.cls-5{fill:#d1d1ff;}.cls-13,.cls-6{fill:#1b1b43;}.cls-7{fill:#ffbc96;}.cls-8{fill:#ffa121;}.cls-9{fill:#3335cf;}.cls-10,.cls-13,.cls-16{opacity:0.6;}.cls-11,.cls-16{fill:#fff;}.cls-12{fill:#d28572;}.cls-14{fill:#fe5b52;}.cls-15{fill:#be443d;}</style></defs><g class="cls-1"><path class="cls-2" d="M348,222.62c17.71-37.47,19.57-86.21-2.32-120.8-14.26-22.52-37-37-60.82-44.16C235.24,42.83,179.8,59.15,141.14,97c-12,11.77-23.17,25.88-38.32,31.58-11.57,4.36-24.1,3.25-36.31,3.57-16.06.42-32.28,3.5-46.76,11.29S-7.41,164-14,180.42c-9.73,24.32-4.89,53.55,7.19,76.5a120.1,120.1,0,0,0,17.34,24.79H301.82C320.62,265.5,336.91,246,348,222.62Z" transform="translate(52.07 18.58)"/></g><ellipse class="cls-3" cx="66.65" cy="86.98" rx="24.13" ry="27.02"/><path class="cls-4" d="M329.07,114.43a20.08,20.08,0,0,1-3.19-.25l.08-.63a20.64,20.64,0,0,0,3.77.22l0,.65Zm4.53-.5-.11-.63a20.44,20.44,0,0,0,3.63-1.16l.21.6A21.57,21.57,0,0,1,333.6,113.93Zm-11.5-.69a21.1,21.1,0,0,1-3.59-1.64l.26-.57a21.15,21.15,0,0,0,3.5,1.59Zm18.73-2.36-.29-.56a23.74,23.74,0,0,0,3.09-2.43l.37.49A24.17,24.17,0,0,1,340.83,110.88Zm-25.62-1.56a23.48,23.48,0,0,1-2.64-2.55l-.27-.31.41-.45.26.31a25.18,25.18,0,0,0,2.58,2.49Zm31.55-4-.43-.42a25.47,25.47,0,0,0,2.22-3.43l.49.34A26.37,26.37,0,0,1,346.76,105.34Zm-36.92-2.23a27.31,27.31,0,0,1-1.93-3.77l.52-.27a27,27,0,0,0,1.88,3.67Zm40.93-5.17-.54-.23a29.28,29.28,0,0,0,1.1-4.06l.56.14A29.18,29.18,0,0,1,350.77,97.94Zm-44.2-2.68a28.91,28.91,0,0,1-.71-4.26l.57-.07a27.79,27.79,0,0,0,.7,4.16Zm45.82-5.78-.58,0c0-.38,0-.77,0-1.16a28.56,28.56,0,0,0-.16-3.07l.57-.07a29.74,29.74,0,0,1,.17,3.14C352.41,88.69,352.4,89.09,352.39,89.48Zm-46-2.78-.57,0a28.11,28.11,0,0,1,.56-4.3l.55.15A29.28,29.28,0,0,0,306.35,86.7Zm44.56-5.62a27.45,27.45,0,0,0-1.36-4l.51-.28a26.52,26.52,0,0,1,1.4,4.05Zm-42.86-2.6-.53-.25a28.66,28.66,0,0,1,1.78-3.85l.49.34A26.21,26.21,0,0,0,308.05,78.48Zm39.56-5a24.87,24.87,0,0,0-2.44-3.23l.4-.46a26.28,26.28,0,0,1,2.51,3.32Zm-35.55-2.15-.43-.43c.3-.38.61-.74.94-1.11a23.7,23.7,0,0,1,1.87-1.88l.36.5A24.45,24.45,0,0,0,313,70.26C312.66,70.61,312.36,71,312.06,71.34ZM342.89,68a23.4,23.4,0,0,0-3.18-2.28l.27-.57a23.73,23.73,0,0,1,3.26,2.34Zm-25-2-.28-.56a22.55,22.55,0,0,1,3.53-1.8l.19.61A21.41,21.41,0,0,0,317.93,66Zm18.3-2a21.41,21.41,0,0,0-3.67-1l.09-.63a21.54,21.54,0,0,1,3.76,1ZM325,63.2l-.1-.64a21.8,21.8,0,0,1,3.86-.41v.64A20.81,20.81,0,0,0,325,63.2Z" transform="translate(52.07 18.58)"/><path class="cls-4" d="M278.27,142.87l-.08-.64a11.14,11.14,0,0,0,3.56-1.22l.25.58A11.63,11.63,0,0,1,278.27,142.87Zm-3.91-.09a11.53,11.53,0,0,1-3.69-1.44l.28-.57a10.81,10.81,0,0,0,3.51,1.38Zm10.84-3.72-.41-.46.11-.12a12.8,12.8,0,0,0,2.12-3.23l.51.3a13.83,13.83,0,0,1-2.22,3.38Zm-17.63-.38a14,14,0,0,1-2.21-3.61l.52-.27a13.09,13.09,0,0,0,2.11,3.43Zm21.2-7.28-.57-.1a14.41,14.41,0,0,0,.16-2.17,14.71,14.71,0,0,0-.13-2l.57-.1a16.34,16.34,0,0,1,.14,2.1A15.66,15.66,0,0,1,288.77,131.4Zm-24.5-.53a14.38,14.38,0,0,1-.1-1.74,15.39,15.39,0,0,1,.22-2.63l.57.12a15,15,0,0,0-.22,2.51,13.21,13.21,0,0,0,.1,1.66Zm22.82-7.72a13.35,13.35,0,0,0-2.19-3.38l.41-.45a14,14,0,0,1,2.3,3.54Zm-20.86-.45-.5-.32a13.62,13.62,0,0,1,2.07-3.06c.11-.13.22-.25.34-.37l.39.47-.33.35A13.31,13.31,0,0,0,266.23,122.7Zm16.2-5a10.94,10.94,0,0,0-3.49-1.48l.12-.63a11.52,11.52,0,0,1,3.65,1.55Zm-10.8-.55-.24-.59a11.48,11.48,0,0,1,3.77-1.17l.06.64A11,11,0,0,0,271.63,117.1Z" transform="translate(52.07 18.58)"/><path class="cls-4" d="M322,158.51c-4,0-7.25-3.64-7.25-8.12s3.25-8.12,7.25-8.12,7.25,3.64,7.25,8.12S326,158.51,322,158.51Zm0-15.6c-3.68,0-6.68,3.36-6.68,7.48s3,7.48,6.68,7.48,6.68-3.36,6.68-7.48S325.66,142.91,322,142.91Z" transform="translate(52.07 18.58)"/><path class="cls-4" d="M128.31-.59c-4,0-7.25-3.64-7.25-8.12s3.25-8.12,7.25-8.12,7.25,3.64,7.25,8.12S132.31-.59,128.31-.59Zm0-15.6c-3.68,0-6.68,3.36-6.68,7.48s3,7.48,6.68,7.48S135-4.59,135-8.71,132-16.19,128.31-16.19Z" transform="translate(52.07 18.58)"/><path class="cls-4" d="M-29.91,125.1c-4,0-7.25-3.64-7.25-8.12s3.25-8.12,7.25-8.12,7.25,3.65,7.25,8.12S-25.91,125.1-29.91,125.1Zm0-15.59c-3.68,0-6.67,3.35-6.67,7.47s3,7.48,6.67,7.48,6.68-3.35,6.68-7.48S-26.23,109.51-29.91,109.51Z" transform="translate(52.07 18.58)"/><path class="cls-4" d="M302.82,38.58,291.57,26l11.25-12.6L314.06,26ZM292.38,26l10.44,11.68L313.25,26,302.82,14.3Z" transform="translate(52.07 18.58)"/><path class="cls-4" d="M-2.95,65.15l-2.71-3,.41-.46,2.71,3ZM.17,63.22l-.41-.46,2.71-3,.41.45Zm-8.54-4.14-2.71-3,.41-.46,2.71,3Zm14-1.93-.41-.46,2.71-3,.41.45ZM-13.79,53l-2.71-3,.41-.46,2.71,3ZM11,51.08l-.41-.46,2.71-3,.41.45Zm-30.22-4.14-2.71-3,.41-.46,2.71,3ZM16.43,45,16,44.55l2.71-3,.41.45ZM18,41.14l-2.71-3,.41-.46,2.71,3Zm-40.24-.27-.41-.45,2.71-3,.41.46Zm34.82-5.8L9.86,32l.41-.46,2.71,3Zm-29.4-.27-.41-.45,2.71-3,.41.46Zm24-5.8L4.44,26l.41-.46,2.71,3Zm-18.56-.27-.41-.46,2.71-3,.41.46Zm13.14-5.8L-1,19.9l.41-.46,2.71,3ZM-6,22.66l-.41-.46,2.71-3,.41.45Z" transform="translate(52.07 18.58)"/><polygon class="cls-5" points="49.27 244.31 82.81 244.31 83.05 242.5 49.5 242.5 49.27 244.31"/><polygon class="cls-5" points="51.33 228.44 84.88 228.44 85.11 226.63 51.57 226.63 51.33 228.44"/><polygon class="cls-5" points="53.4 212.57 86.95 212.57 87.18 210.76 53.64 210.76 53.4 212.57"/><polygon class="cls-5" points="55.47 196.71 89.02 196.71 89.25 194.9 55.71 194.9 55.47 196.71"/><polygon class="cls-5" points="57.78 179.03 57.54 180.84 91.09 180.84 91.32 179.03 57.78 179.03"/><polygon class="cls-5" points="47.2 260.17 80.74 260.17 80.98 258.36 47.43 258.36 47.2 260.17"/><polygon class="cls-5" points="45.13 276.04 78.67 276.04 78.91 274.23 45.36 274.23 45.13 276.04"/><polygon class="cls-5" points="59.85 163.17 59.61 164.97 93.15 164.97 93.39 163.17 59.85 163.17"/><polygon class="cls-6" points="75.88 300.43 75.12 300.31 93.01 163.1 93.77 163.23 75.88 300.43"/><polygon class="cls-6" points="42.35 300.31 41.59 300.19 59.48 162.99 60.24 163.11 42.35 300.31"/><path class="cls-7" d="M43.62,106.82l-10.47,14L29,123.06l3.7,5.76,2.08-1.25a17.17,17.17,0,0,0,5.49-6.15l4.85-9.73Z" transform="translate(52.07 18.58)"/><polygon class="cls-8" points="69.25 148.01 75.51 153.02 85.6 148.58 81.1 141.64 69.25 148.01"/><path class="cls-9" d="M120.88,44.81a14.05,14.05,0,0,0-4.8,5.31L101.44,21.26,22.64,71.39,67.4,159.66,96.68,141a16.15,16.15,0,0,0,1.67,8.25c4.06,8,14.12,10.21,22.46,4.9s11.81-16.1,7.75-24.11a14,14,0,0,0-5.47-5.84l23.12-14.71-14.7-29A12,12,0,0,0,138,78.64c7.15-4.54,9.11-15.8,4.37-25.15S128,40.27,120.88,44.81Z" transform="translate(52.07 18.58)"/><g class="cls-10"><path class="cls-11" d="M136.71,55.87c-8.9,2.86-19.26,13.23-28.76,7a10.11,10.11,0,0,1-3.55-13.4,44,44,0,0,1,6.77-9l-.26-.51c-1.59,1.85-3.16,3.71-4.66,5.63-2.41,3.09-4.53,7-3.46,11.22a11.74,11.74,0,0,0,7.27,7.84c4.21,1.58,8.78.39,12.79-1.36,4.94-2.16,9.49-5.46,14.66-7a16.31,16.31,0,0,1,5.87-.61c-.09-.23-.18-.46-.28-.69A17.56,17.56,0,0,0,136.71,55.87Z" transform="translate(52.07 18.58)"/><path class="cls-11" d="M132.39,80.21c-9.1,1.52-19.77,5.69-22.65,16.68-2.57,9.81,4.15,18.83,11.89,22.39a22.12,22.12,0,0,0,6.42,1.8l.86-.54a22.76,22.76,0,0,1-6-1.43c-8.3-3.27-15.68-13-12.22-23.2,3.37-10,12.45-13.15,21.13-14.84l-.26-.52a12.18,12.18,0,0,0,4.51-.87C134.79,79.85,133.57,80,132.39,80.21Z" transform="translate(52.07 18.58)"/><path class="cls-11" d="M77.45,153.27l.82-.53c4.68-12.76,8.15-26.1,6.75-40-.86-8.61-3.64-17.36-9-23.82a17.27,17.27,0,0,0-8.34-6c-3.58-1-7.22,0-10.41,1.94-7,4.27-11.88,13.47-19.78,15.94l.25.5c3.45-1.23,6.63-3.79,9.36-6.5,6.1-6,13.57-14.89,22.54-10.45,7.5,3.72,11.89,13.56,13.75,22C87,122.48,83,138.32,77.45,153.27Z" transform="translate(52.07 18.58)"/><path class="cls-11" d="M64.69,57.11c-2,4-5.61,7.11-8.89,9.77a51.86,51.86,0,0,1-11.73,7.17c-5.33,2.34-11.65,3.81-15.95,8.15l.28.55c2.75-2.83,6.38-4.4,9.89-5.75A71.67,71.67,0,0,0,51,71.06a52.85,52.85,0,0,0,10.5-8.63c2.2-2.35,4.33-5.15,4.93-8.59a13,13,0,0,0-1.9-9.11L64,45.1A11.76,11.76,0,0,1,64.69,57.11Z" transform="translate(52.07 18.58)"/></g><path class="cls-12" d="M25.13,120.5s1.41,1.67,1.34,2.08-1.58.79-1.58.79Z" transform="translate(52.07 18.58)"/><rect class="cls-7" x="69.41" y="142.35" width="5.82" height="7.74"/><path class="cls-6" d="M23.15,123.77v5.36c-2-.36-3.43-1.84-4.39-4.63l2.38-.73Z" transform="translate(52.07 18.58)"/><path class="cls-7" d="M24.7,116.92s2.53,10.13-2.48,9.94c-3.66-.14-5.56-4.34-5.56-4.34l2.76-5.67Z" transform="translate(52.07 18.58)"/><path class="cls-6" d="M21.92,122a3.87,3.87,0,0,1,.75-3.77c2.46.82,4.2.18,5-2.36a4.45,4.45,0,0,1-4.13-1.07c-1.79-1.86-5.33-.29-5.64.88-3.55,1.47-3.18,5.1-.62,9.5.64-1.6,2.18-2.24,3.71-2.7Z" transform="translate(52.07 18.58)"/><path class="cls-7" d="M22.15,121.37a1.66,1.66,0,0,1-.37,2.12c-.6.35-1.39,0-1.78-.85a1.66,1.66,0,0,1,.38-2.13C21,120.16,21.77,120.55,22.15,121.37Z" transform="translate(52.07 18.58)"/><polygon class="cls-6" points="69.8 242.87 63.11 242.87 63.7 235 69.45 235 69.8 242.87"/><path class="cls-9" d="M10.92,153c-1.89,3.21-2.18,10.44-1.15,14v51.65h9.07l2.55-60.09Z" transform="translate(52.07 18.58)"/><path class="cls-6" d="M19,162.11a10.48,10.48,0,0,0,2,7.35l.19-5.58Z" transform="translate(52.07 18.58)"/><polygon class="cls-6" points="75.96 216.41 73.78 220.77 83.16 226.66 80.63 219.82 82.07 216.82 77.06 213.74 75.96 216.41"/><path class="cls-9" d="M24.2,151.75l10.64,14.7c2.58,3.76,3.6,7.56,2.39,12l-6.42,20.82-8-3.19L27.46,174c-4.92-4.76-10.41-12.4-16-20.64Z" transform="translate(52.07 18.58)"/><path class="cls-8" d="M28.27,139.86a.34.34,0,0,1,0,.1c-.06,1.16-.15,2.31-.26,3.43a62.23,62.23,0,0,1-1.56,9,1.89,1.89,0,0,1-.88,1.24,2.59,2.59,0,0,1-1.15.36c-1.79.14-3.57-.46-5.38-.37a20.77,20.77,0,0,0-4.91,1.14c-.34.1-.69.2-1,.28l-.42.1a4.91,4.91,0,0,1-2.58-.07,1.78,1.78,0,0,1-1-.9c-.57-1.13.38-2.7.66-3.78a43.6,43.6,0,0,0,.9-4.35,49.55,49.55,0,0,0,.55-9.19c-.12-4,2.52-7.5,6.08-7.92h.07a19.74,19.74,0,0,1,5.82.22,18.27,18.27,0,0,1,2.29.59h0a15.71,15.71,0,0,1,3,1.31C28.49,134.11,28.45,137.05,28.27,139.86Z" transform="translate(52.07 18.58)"/><path class="cls-6" d="M28.26,139.83V140c-.06,1.16-.15,2.31-.26,3.43a4.92,4.92,0,0,1-2-3.68C26,139.66,28.26,139.83,28.26,139.83Z" transform="translate(52.07 18.58)"/><path class="cls-7" d="M36.34,132.22,43.56,131l7.18-8,3.29,3.4-6.89,9a6.19,6.19,0,0,1-4.29,2.47l-11,1.1Z" transform="translate(52.07 18.58)"/><path class="cls-7" d="M50.74,123l.84-3.13s.28-3.83.72-3.4.72,3.33.72,3.33,1.77-5.18,2.47-5.18-.53,5.07-.53,5.07,1.9.66,2,2.17c.07.86-3,4.54-3,4.54l-3.67.29Z" transform="translate(52.07 18.58)"/><path class="cls-8" d="M25.44,129.73a96,96,0,0,0,10.88,2.49l-.72,7.94-11.73-.48Z" transform="translate(52.07 18.58)"/><path class="cls-6" d="M36.3,132.39a95.66,95.66,0,0,1-13.19-3.08l.08-.34a93.73,93.73,0,0,0,13.15,3.08Z" transform="translate(52.07 18.58)"/><path class="cls-8" d="M300.76,195.84a6.46,6.46,0,0,0-2.62,2.39,4.7,4.7,0,0,0-.52,3.66,7.89,7.89,0,0,1,.77,2.49,3.3,3.3,0,0,1-.92,2,6.07,6.07,0,0,0-1.25,1.76,1.77,1.77,0,0,0,.41,2c.21.14.49.22.59.48s-.17.71-.41,1a3.29,3.29,0,0,0-.35,3.42,2.56,2.56,0,0,0,2.79,1.42l16-6.95c.78-1,.48-2.51,0-3.7a3.76,3.76,0,0,0-.43-.82,3.42,3.42,0,0,0-.78-.64l-1.7-1.11a1.76,1.76,0,0,1-.66-.64c-.32-.67.16-1.65-.31-2.22-.32-.39-.91-.33-1.27-.68s-.32-1-.41-1.55c-.32-1.95-2.76-2.8-4.15-3A7.19,7.19,0,0,0,300.76,195.84Z" transform="translate(52.07 18.58)"/><polygon class="cls-7" points="363.59 226.59 359.85 230.2 358.85 228.89 356.04 225.23 357.6 223.73 359.78 221.63 363.59 226.59"/><path class="cls-6" d="M306.77,210.31l-2.8-3.66,1.56-1.5,2.18-.31A9.11,9.11,0,0,1,306.77,210.31Z" transform="translate(52.07 18.58)"/><path class="cls-7" d="M307.55,200.39c1.1,3,.16,6.71-1.44,7.46s-3.94-.21-5.9-4c-1.43-2.79-.27-5.5,1.76-6.44S306.45,197.42,307.55,200.39Z" transform="translate(52.07 18.58)"/><path class="cls-8" d="M306.08,200.46a1,1,0,0,0-.61-.34,1.41,1.41,0,0,0-.69.32c-.22.14-.49.23-.69,0a1.34,1.34,0,0,1-.26-.38.88.88,0,0,0-.59-.49.53.53,0,0,0-.57.44c-.06.23,0,.48-.05.72-.05.4-.34.7-.63.68s-.55-.3-.79-.12-.22.59-.18.93a1.54,1.54,0,0,1-.06,1,.56.56,0,0,1-.57.2,1.15,1.15,0,0,0-.61,0,.54.54,0,0,0-.26.63,2.66,2.66,0,0,1-.41-1.07,4.42,4.42,0,0,1,0-1.09,6.13,6.13,0,0,1,2.82-5,3.69,3.69,0,0,1,.84-.31,4.71,4.71,0,0,1,3.87.74,4.46,4.46,0,0,1,1.36,1.46,4.7,4.7,0,0,1,.55,2.29,2,2,0,0,1-.54,1.53c-.19.14-.69.31-.89.16s-.12-.32-.13-.64A2.55,2.55,0,0,0,306.08,200.46Z" transform="translate(52.07 18.58)"/><ellipse class="cls-7" cx="359.59" cy="220.29" rx="1.43" ry="1.6"/><polygon class="cls-6" points="367.35 294.55 367.7 300.69 357.09 300.71 361.85 295.58 361.6 292.18 367.3 291.6 367.35 294.55"/><path class="cls-9" d="M323.83,236.54l-1.48,1.83-1.75,2.16-1.86,2.31-6.67,8.25,4.51,24H308l-5.62-18.58a16.69,16.69,0,0,1,2.39-14.63l5.77-7.85,2.79-3.79,2.07-1.09,2.85-1.51,2.1,3.31Z" transform="translate(52.07 18.58)"/><path class="cls-6" d="M322.35,238.37l-3.61,4.47c-1-2.24-.42-5.42,1.07-6.6Z" transform="translate(52.07 18.58)"/><polygon class="cls-6" points="398.73 289.24 401.96 294.21 393.02 300.6 394.58 293.4 392.74 290.68 397.27 286.78 398.73 289.24"/><path class="cls-9" d="M347.08,268.19l-1.28,1-4.62,3.65-1.95,1.55L330,257c-2.84-3.51-6-9.48-9.4-16.49-1.2-2.49-2.41-5.13-3.65-7.83l-1.58-3.52-.7-1.57,3.26-1.55,5.74-2.74.92,1.74.79,1.53Z" transform="translate(52.07 18.58)"/><path class="cls-13" d="M325.38,226.59c-1.6,1.81-6.14,6.5-8.59,7.33a11.26,11.26,0,0,1-6.28.14l2.79-3.79,2.07-1.09-.7-1.57,3.26-1.55,6.66-1Z" transform="translate(52.07 18.58)"/><path class="cls-12" d="M289.34,217.28s-3.45-5.29-3.51-4.08c-.05.87-.06,4.49.07,6.63a1.48,1.48,0,0,0,1.36,1.45l2.17,0Z" transform="translate(52.07 18.58)"/><path class="cls-5" d="M309,209.05l-7.28,9.62-12.84-2.14-.39,6.33,11.76,2.94a4.4,4.4,0,0,0,4.24-1.29l11.79-12.27Z" transform="translate(52.07 18.58)"/><path class="cls-5" d="M314.15,231.94a2.49,2.49,0,0,1-3.27-1.81c-.31-1-.71-2.14-1.14-3.3-.69-1.89-1.46-3.92-2.06-6-1.28-4.36-1.8-8.78.78-11.94a3.78,3.78,0,0,1,3.53-1.5c2,.35,4.92,2.17,8,8.85a13.3,13.3,0,0,0,3.24,4.42,9.67,9.67,0,0,1,2.56,3.05C326.63,226,318.51,230.16,314.15,231.94Z" transform="translate(52.07 18.58)"/><path class="cls-6" d="M312.83,216.62a20.93,20.93,0,0,1-3.09,10.21c-.69-1.89-1.46-3.92-2.06-6Z" transform="translate(52.07 18.58)"/><path class="cls-4" d="M307.81,221.84c-.08-.3-.17-.61-.26-.93-.76-2.73-1.72-6.12-.47-10.12l.29.11c-1.22,3.89-.32,7.09.48,9.91.09.31.17.62.26.93Z" transform="translate(52.07 18.58)"/><path class="cls-7" d="M289.31,221.75s-3.64-5.94-3.71-4.72a34.31,34.31,0,0,0,.3,6.87c.19.79.64,1.44,1.36,1.45l2.17.05Z" transform="translate(52.07 18.58)"/><path class="cls-5" d="M311.92,209.45l-10.25,13.3-12.84-2.14-.39,6.33,11.76,2.93a4.37,4.37,0,0,0,4.24-1.28l11.79-12.28Z" transform="translate(52.07 18.58)"/><polygon class="cls-4" points="353.8 241.52 340.88 239.36 340.92 239.02 353.68 241.15 362.89 229.1 363.12 229.32 353.8 241.52"/><path class="cls-4" d="M285.84,180.62V282.14H195.2V248.88a12.14,12.14,0,0,0,6.51,2c8.23,0,14.89-8.71,14.89-19.45s-6.66-19.45-14.89-19.45a12,12,0,0,0-6.51,2V180.62h32.57a16,16,0,0,1-1.27-6.27c0-9.22,7.77-16.68,17.37-16.68s17.37,7.46,17.37,16.68a16,16,0,0,1-1.27,6.27Z" transform="translate(52.07 18.58)"/><g class="cls-10"><path class="cls-11" d="M216.4,228.18c0,.23,0,.46.08.69,7.14,2.07,16,7.36,22.08-.08,2.39-2.89,3.63-6.81,4.35-10.61a64,64,0,0,0,.9-15.88,93.24,93.24,0,0,0-2.64-15.24c-1.32-5.66-2-11.49.62-16.82A20.92,20.92,0,0,1,253,160.15l-.7-.39a23.74,23.74,0,0,0-7.12,4.84,19.72,19.72,0,0,0-5.48,10c-1,5.2.39,10.46,1.59,15.45a69.73,69.73,0,0,1,2.07,18c-.11,5.31-.67,11-2.64,15.85-2,5.08-5.84,8.47-11,8.21C225.09,231.82,220.84,229.44,216.4,228.18Z" transform="translate(52.07 18.58)"/><path class="cls-11" d="M285.84,253.4c-5.19,6.59-13.93,8.24-21.46,8-14-.45-30.67-7.49-43.43,2.22-5.58,4.26-8.56,11.22-9.42,18.53h.59c.82-6.87,3.52-13.46,8.67-17.61,12.69-10.26,29.8-2.85,43.91-2.49,6.92.18,14.29-1.13,19.75-6.26a19.21,19.21,0,0,0,1.39-1.47Z" transform="translate(52.07 18.58)"/><path class="cls-11" d="M279.92,180.62h-.75l-.36.65c-7.55,14.31-6.1,32.69,2.67,45.84,1.42,2.14,3,4.38,4.36,6.71v-1.31c-1.24-1.95-2.59-3.82-3.86-5.72a43.45,43.45,0,0,1-5.44-11.16,46.51,46.51,0,0,1-.65-25.07A39.4,39.4,0,0,1,279.92,180.62Z" transform="translate(52.07 18.58)"/></g><polygon class="cls-6" points="259.37 199.21 250.81 199.24 254.9 195.26 254.77 190.54 258.6 190.13 259.37 199.21"/><path class="cls-14" d="M211.9,121.46c0,.05,0,.09,0,.14-.3,2.92-.57,6-.83,9.33s-.5,6.73-.74,10.31c-.69,10.19-1.36,21.47-2.25,33.15h-6.9c.26-15.94.25-31.09,1.66-45,.26-2.65.58-5.24,1-7.79.1-.67.2-1.34.31-2l3.57.85Z" transform="translate(52.07 18.58)"/><polygon class="cls-6" points="276.02 199.21 267.45 199.24 270.87 194.97 269.97 190.11 274.06 189.86 276.02 199.21"/><path class="cls-14" d="M223.78,174.39h-7.16c-2.2-10.16-4.46-21.2-6.31-33.14h0c-.55-3.43-1-6.94-1.5-10.52-.37-3-.72-6-1-9.12,0-.38-.09-.77-.12-1.16l-.09-.92,9.43.79c0,.43.05.86.08,1.29.2,3.14.45,6.21.75,9.24C219.28,145.81,221.7,159.74,223.78,174.39Z" transform="translate(52.07 18.58)"/><path class="cls-15" d="M217.84,130.84a47.66,47.66,0,0,1-6.79.09c-.75-.06-1.5-.12-2.24-.21a26,26,0,0,1-6-1.33c.26-2.65.58-5.24,1-7.79h13.3C217.29,124.74,217.54,127.81,217.84,130.84Z" transform="translate(52.07 18.58)"/><polygon class="cls-6" points="262.76 162.96 261.13 152.98 261.43 152.92 263.06 162.9 262.76 162.96"/><path class="cls-12" d="M184.91,86.46a14.74,14.74,0,0,1-.58-4.23h4.74l-.5,4.29-1.32.26Z" transform="translate(52.07 18.58)"/><path class="cls-12" d="M188.58,86.54l-3.67-.07.38,4.19c1-.3,2.66-1.68,3.78-2Z" transform="translate(52.07 18.58)"/><path class="cls-9" d="M203.21,103l-11.7-3.9-2.44-10.45c-1.12.34-3.8,1.34-4.8,1.63l1.46,10.15a6.83,6.83,0,0,0,.84,2.52,5.13,5.13,0,0,0,2.19,2l15.15,6Z" transform="translate(52.07 18.58)"/><polygon class="cls-6" points="252.53 128.17 255.02 129.13 254.96 127.21 252.53 128.17"/><path class="cls-12" d="M236.85,87.16a15,15,0,0,0,.57-4.23h-4.73l.49,4.29,1.33.26Z" transform="translate(52.07 18.58)"/><path class="cls-12" d="M233.18,87.25l3.67-.08-.28,4.14c-1-.29-2.76-1.63-3.88-2Z" transform="translate(52.07 18.58)"/><path class="cls-9" d="M237.49,91,236,101.12a6.83,6.83,0,0,1-.84,2.52,5.29,5.29,0,0,1-2.19,2l-12.8,4.94-2.49,1-.71.28.57-8.88,12.68-3.2,2.44-10.45c.87.27,2.68.93,3.92,1.35Z" transform="translate(52.07 18.58)"/><polygon class="cls-6" points="272.27 129.21 269.78 130.17 269.84 128.25 272.27 129.21"/><path class="cls-9" d="M217.71,103c-4.23-.75-10.67-1.28-14.62-.07l-.35,16.94a7.33,7.33,0,0,1-.26,1.81c-.55,2-1,3.35,1.07,4.09a23.38,23.38,0,0,0,7.55,1.11c1.61,0,6.13.32,6.88-1.78.37-1-.38-3.61-.42-4.89-.05-2,.17-7,.2-9C217.76,110.63,217.71,103,217.71,103Z" transform="translate(52.07 18.58)"/><path class="cls-12" d="M260,116.73h4.85a0,0,0,0,1,0,0v5.22a1.8,1.8,0,0,1-1.8,1.8H261.8a1.8,1.8,0,0,1-1.8-1.8v-5.22A0,0,0,0,1,260,116.73Z"/><path class="cls-6" d="M212.77,99.77c-1.19,3.63-3.53,3-4.85,0l2.11-.68Z" transform="translate(52.07 18.58)"/><path class="cls-12" d="M214,95.8c0,3.57-2.09,5.31-3.65,5.31s-3.57-1.49-3.66-5.31c-.07-2.93,1.64-5.31,3.66-5.31S214,92.87,214,95.8Z" transform="translate(52.07 18.58)"/><path class="cls-6" d="M206.68,95.13a5.16,5.16,0,0,1,1.3-2.68.83.83,0,0,0,.81.35.7.7,0,0,1,1.4.07.85.85,0,0,0,.83-.55.78.78,0,0,0,.62.53.72.72,0,0,0,.68-.41,4.16,4.16,0,0,1,1.28,2.93l.72.41a4,4,0,0,0,.46-1.68,3.27,3.27,0,0,0-.07-.88c-.05-.19-.24-.48-.14-.66a1.78,1.78,0,0,0,.36-1.25c0-.13-.59-.8-.73-.6a.87.87,0,0,0-.28-1.06,1,1,0,0,0-.75-.13,1,1,0,0,0-.79-1,2,2,0,0,0-1.18.44,1.07,1.07,0,0,0-.64-.8.75.75,0,0,0-.84.32.71.71,0,0,0-.83-.32,1.06,1.06,0,0,0-.58.85.83.83,0,0,0-1,0,1.57,1.57,0,0,0-.52,1.2,1.14,1.14,0,0,0-.79.93,1.62,1.62,0,0,0,.32,1.35,3.8,3.8,0,0,0-.19,3.13Z" transform="translate(52.07 18.58)"/><path class="cls-12" d="M207.51,95.72c0,.69-.42,1.25-.94,1.25s-.94-.56-.94-1.25.42-1.26.94-1.26S207.51,95,207.51,95.72Z" transform="translate(52.07 18.58)"/><path class="cls-12" d="M215,95.68a1,1,0,1,1-1-1.22A1.13,1.13,0,0,1,215,95.68Z" transform="translate(52.07 18.58)"/><path class="cls-8" d="M254.4-18.58V82.93H228.53a16,16,0,0,0,1.27-6.27C229.8,67.45,222,60,212.44,60s-17.37,7.47-17.37,16.68a16,16,0,0,0,1.27,6.27H163.76V49.6a12.1,12.1,0,0,0,6.52,2c8.22,0,14.89-8.71,14.89-19.46s-6.67-19.45-14.89-19.45a12.1,12.1,0,0,0-6.52,2V-18.58Z" transform="translate(52.07 18.58)"/><path class="cls-16" d="M254.4-8.25a32.66,32.66,0,0,0-14-2.42,28.25,28.25,0,0,0-16.36,6.8c-4.9,4.14-8.22,9.74-10.46,16.09-2.6,7.34-3.93,15.18-6.92,22.35A59.53,59.53,0,0,1,196.13,51.3c-8.69,9.69-20.21,16.07-32.37,17.63v.64A52.18,52.18,0,0,0,191,57.17C200.63,48.91,206.9,37.86,210.5,25c2.1-7.55,3.86-15.49,8.18-21.92A29.82,29.82,0,0,1,235.36-9.18c6.54-1.79,12.93-.73,19,1.66Z" transform="translate(52.07 18.58)"/><path class="cls-12" d="M188.54,86.66s2.22-6.27,1.54-6.76-2,3-2.33,5.54Z" transform="translate(52.07 18.58)"/><path class="cls-12" d="M233.22,87.36s-2.22-6.27-1.54-6.76,2,3,2.32,5.55Z" transform="translate(52.07 18.58)"/><path class="cls-5" d="M171.19,231.38c0,10.74-6.66,19.45-14.89,19.45a12.14,12.14,0,0,1-6.51-2v33.26H59.16V180.62H92.83a16,16,0,0,0-2.19,8.11c0,9.21,7.78,16.68,17.37,16.68s17.37-7.47,17.37-16.68a16.1,16.1,0,0,0-2.18-8.11h26.59v33.27a12,12,0,0,1,6.51-2C164.53,211.93,171.19,220.63,171.19,231.38Z" transform="translate(52.07 18.58)"/><path class="cls-4" d="M99.85,268.25c-.26-8.42-1.55-17.1-8.7-21.59-12.34-7.75-25.55,2.15-32,14.4v1.18a35.42,35.42,0,0,1,9.52-12.39c6.14-5,14.15-7,21.21-3.2,7.79,4.17,9.14,13.2,9.4,22,.13,4.51.18,9,.18,13.53h.58C100,277.51,100,272.88,99.85,268.25Z" transform="translate(52.07 18.58)"/><path class="cls-4" d="M133.16,220.31c3.91,4.33,9.6,1.9,13.71-.7a57.57,57.57,0,0,0,9.61-7.67h-.18c-.24,0-.48,0-.71,0a57.07,57.07,0,0,1-9,7.1c-3.08,1.94-7,4-10.57,2.54-3.15-1.29-4.65-4.89-5.21-8.36-1.12-6.84.42-14.45,2.87-20.73a44.16,44.16,0,0,1,7-11.89h-.76a46.45,46.45,0,0,0-9.8,25.08C129.66,210.55,129.83,216.64,133.16,220.31Z" transform="translate(52.07 18.58)"/><path class="cls-4" d="M161.92,249.39l.64-.36a24,24,0,0,0-12.27-7.9c-6.72-1.69-13.22,1.14-17.3,7.3-4.57,6.87-5.16,15.68-3.32,23.79a55.4,55.4,0,0,0,3.27,9.92h.72a54.08,54.08,0,0,1-3.6-10.84c-1.66-8-.85-16.66,3.87-23.2s12-8.31,18.89-5.46A25.22,25.22,0,0,1,161.92,249.39Z" transform="translate(52.07 18.58)"/><path class="cls-4" d="M59.16,232.28V233a41.9,41.9,0,0,0,17.3-22.22,47.41,47.41,0,0,0-.28-30.17h-.62A46.73,46.73,0,0,1,76.1,210,41.36,41.36,0,0,1,59.16,232.28Z" transform="translate(52.07 18.58)"/><rect class="cls-6" y="299.86" width="433.07" height="0.86"/></svg>