<?xml version="1.0" encoding="utf-8"?>
<!-- Generator: Adobe Illustrator 25.1.0, SVG Export Plug-In . SVG Version: 6.00 Build 0)  -->
<svg version="1.1" id="Ñëîé_1" xmlns="http://www.w3.org/2000/svg" xmlns:xlink="http://www.w3.org/1999/xlink" x="0px" y="0px"
	 viewBox="0 0 347.5 219.9" style="enable-background:new 0 0 347.5 219.9;" xml:space="preserve">
<style type="text/css">
	.st0{fill:#D6D7F4;}
	.st1{fill:#3D5AC4;}
	.st2{fill:#5571E9;}
	.st3{fill:#27429C;}
	.st4{fill:#312C76;}
	.st5{fill:#151247;}
	.st6{opacity:0.16;fill:#5571E9;enable-background:new    ;}
	.st7{fill:#F5D100;}
	.st8{clip-path:url(#SVGID_2_);fill:#FFFFFF;}
	.st9{clip-path:url(#SVGID_4_);fill:#FFFFFF;}
	.st10{clip-path:url(#SVGID_6_);fill:#FFFFFF;}
	.st11{clip-path:url(#SVGID_8_);fill:#FFFFFF;}
	.st12{clip-path:url(#SVGID_10_);fill:#FFFFFF;}
	.st13{fill:#14103D;}
	.st14{fill:#EB8175;}
	.st15{fill:#231C61;}
	.st16{fill:#E1AD9D;}
	.st17{fill:#C8C6F2;}
	.st18{fill:#D8D7FD;}
	.st19{fill:#091218;}
	.st20{fill:#1B2934;}
	.st21{fill:#FFFFFF;}
	.st22{fill:#E16C5F;}
	.st23{clip-path:url(#SVGID_12_);fill:#231C61;}
	.st24{clip-path:url(#SVGID_14_);fill:#231C61;}
	.st25{fill:none;stroke:#F1AB00;stroke-width:0.2802;stroke-miterlimit:10;}
	.st26{fill:none;stroke:#FFFFFF;stroke-width:1.1206;stroke-linecap:round;stroke-linejoin:round;stroke-miterlimit:10;}
	.st27{fill:#334FBE;}
	.st28{fill:#4265D1;}
	.st29{clip-path:url(#SVGID_16_);fill:#231C61;}
	.st30{clip-path:url(#SVGID_18_);fill:#231C61;}
	.st31{fill:none;stroke:#F1AB00;stroke-width:0.2834;stroke-miterlimit:10;}
	.st32{fill:none;stroke:#FFFFFF;stroke-width:1.1334;stroke-linecap:round;stroke-linejoin:round;stroke-miterlimit:10;}
	.st33{fill:none;stroke:#3D5AC4;stroke-width:2.6489;stroke-miterlimit:10;}
	.st34{fill:none;stroke:#5571E9;stroke-width:2.6489;stroke-miterlimit:10;}
	.st35{fill:#2F4DAB;}
	.st36{fill:none;stroke:#231C61;stroke-width:2.1624;stroke-miterlimit:10;}
	.st37{fill:none;stroke:#231C61;stroke-width:1.1138;stroke-miterlimit:10;}
	.st38{fill:#373482;}
	.st39{fill:none;stroke:#5571E9;stroke-width:2.6489;stroke-linecap:round;stroke-linejoin:round;stroke-miterlimit:10;}
	.st40{clip-path:url(#SVGID_20_);fill:#FAFAFA;}
	.st41{clip-path:url(#SVGID_22_);fill:#FAFAFA;}
	.st42{fill:#E8C400;}
	.st43{clip-path:url(#SVGID_24_);fill:#FAFAFA;}
	.st44{clip-path:url(#SVGID_26_);fill:#FAFAFA;}
</style>
<g>
	<path class="st0" d="M287.9,112.3h-10.5c0.2-8.4,1.4-21.2-9.4-23.2V74.9h-3.9v13.9c-12.5,1.1-11.3,14.7-11,23.9h-10.4v13.1H242
		v24.4l-18.9-0.1v-29.2h-21.7v21.4h-15.2V163h-18.4v55H229l0,0h13.1l0,0h76.6v-69.3h-30.8L287.9,112.3z"/>
	<path class="st0" d="M72,142.5v-27.3h10.2v-14.6h3.9v14.6h9.4v27.3h10.6v16.4H123v-55.8h35.2V218c-31.2,0-68,0-99.3,0v-75.5H72z"/>
</g>
<g>
	<g>
		<g>
			<path class="st1" d="M264.4,217.7l-160.6,0.1c-6.1,0-11-4.9-11-11l0,0l182.6-0.1C275.5,212.8,270.5,217.7,264.4,217.7z"/>
			<path class="st2" d="M264.4,213.9L103.8,214c-4.7,0-8.8-3-10.3-7.2h-0.7c0,6.1,4.9,11,11,11l160.6-0.1c6.1,0,11-4.9,11-11h-0.7
				C273.2,210.9,269.2,213.9,264.4,213.9z"/>
			<path class="st3" d="M194.5,210.5h-20.7c-2,0-3.7-1.6-3.7-3.7l0,0h28.1C198.2,208.8,196.6,210.5,194.5,210.5z"/>
		</g>
		<g>
			<path class="st2" d="M266.1,206.7l-163.8,0.1l-0.1-98.9c0-5.7,4.6-10.3,10.3-10.3l143.3-0.1c5.7,0,10.3,4.6,10.3,10.3V206.7z"/>
			<rect x="110.7" y="106.2" class="st4" width="146.8" height="92.1"/>
			<rect x="110.8" y="189.4" class="st5" width="146.8" height="8.8"/>
			<rect x="110.7" y="106.2" class="st5" width="146.8" height="4.4"/>
			<g>
				<polygon class="st6" points="159.6,106.2 110.7,155.2 110.8,198.3 110.9,198.3 202.9,106.2 				"/>
				<polygon class="st6" points="129.7,198.3 151.4,198.3 243.4,106.1 221.7,106.1 				"/>
				<polygon class="st6" points="240.3,198.2 257.5,180.9 257.5,148.2 205.7,198.2 				"/>
			</g>
		</g>
	</g>
	<g>
		<g>
			<rect id="XMLID_8_" x="102.2" y="145.5" class="st7" width="163.9" height="18.1"/>
		</g>
		<g>
			<defs>
				<rect id="SVGID_1_" x="102.2" y="145.5" width="163.9" height="18.1"/>
			</defs>
			<clipPath id="SVGID_2_">
				<use xlink:href="#SVGID_1_"  style="overflow:visible;"/>
			</clipPath>
			<polygon class="st8" points="122.6,169.9 108.5,169.9 120.6,142.2 134.7,142.2 			"/>
		</g>
		<g>
			<defs>
				<rect id="SVGID_3_" x="102.2" y="145.5" width="163.9" height="18.1"/>
			</defs>
			<clipPath id="SVGID_4_">
				<use xlink:href="#SVGID_3_"  style="overflow:visible;"/>
			</clipPath>
			<polygon class="st9" points="152.7,169.9 138.6,169.9 150.7,142.2 164.8,142.2 			"/>
		</g>
		<g>
			<defs>
				<rect id="SVGID_5_" x="102.2" y="145.5" width="163.9" height="18.1"/>
			</defs>
			<clipPath id="SVGID_6_">
				<use xlink:href="#SVGID_5_"  style="overflow:visible;"/>
			</clipPath>
			<polygon class="st10" points="182.8,169.9 168.6,169.9 180.8,142.2 194.9,142.2 			"/>
		</g>
		<g>
			<defs>
				<rect id="SVGID_7_" x="102.2" y="145.5" width="163.9" height="18.1"/>
			</defs>
			<clipPath id="SVGID_8_">
				<use xlink:href="#SVGID_7_"  style="overflow:visible;"/>
			</clipPath>
			<polygon class="st11" points="212.8,169.9 198.7,169.9 210.9,142.2 225,142.2 			"/>
		</g>
		<g>
			<defs>
				<rect id="SVGID_9_" x="102.2" y="145.5" width="163.9" height="18.1"/>
			</defs>
			<clipPath id="SVGID_10_">
				<use xlink:href="#SVGID_9_"  style="overflow:visible;"/>
			</clipPath>
			<polygon class="st12" points="242.9,169.9 228.8,169.9 240.9,142.2 255,142.2 			"/>
		</g>
	</g>
</g>
<g>
	<g>
		<g>
			<g>
				<g>
					<path class="st13" d="M89,114.3l-3.2,0.1c-1.4-0.5-3.6-1.3-4.4,0.6l9.4,5.2l1.8-3.9L89,114.3z"/>
					<path class="st13" d="M90.8,120.2l-9.4-5.2c0.1-0.2,0.3-0.9,0.7-0.7l9.2,5.1L90.8,120.2"/>
				</g>
				<polygon class="st14" points="92.6,116.2 95,111.9 92.6,107.5 89,114.3 				"/>
			</g>
			<path class="st13" d="M111.9,91.6c0,0-13.3-3.8-14.6-0.2c-1.3,3.6-9.1,19.5-9.1,19.5l5.8,3l8.7-15.1l11.7-1L111.9,91.6z"/>
		</g>
		<g>
			<g>
				<g>
					<path class="st13" d="M101.1,119.1l-2.6,1.7c-1.5,0.2-3.8,0.6-3.6,2.6h10.7l-0.3-4.3L101.1,119.1z"/>
					<path class="st13" d="M105.6,123.5H94.8c0-0.2-0.2-0.9,0.2-0.9h10.5L105.6,123.5"/>
				</g>
				<polygon class="st14" points="105.3,119.1 105.6,111.9 101.4,111.5 101.1,119.1 				"/>
			</g>
			<path class="st15" d="M113.7,91l-12.6,0.6c0,0-1.8,0.1-1.7,4.3c0.1,4.2,0.1,21.3,0.1,21.3l6,0.2l1.2-17.9
				c5.5-0.6,20.4,2.5,19.1-7.2L113.7,91z"/>
		</g>
	</g>
	<g>
		<g>
			<g>
				<path class="st16" d="M101.8,88.4c0,1.2-0.8,1.4-2,1.4C93.7,89.6,101,83,101.8,88.4z"/>
				<path class="st16" d="M103.3,89.7c-1-0.1-3.7,0.6-3.7-1.2l0,0c0-0.7,0.5-1.2,1.2-1.2c1,0.1,3.7-0.6,3.7,1.2l0,0
					C104.5,89.1,104,89.7,103.3,89.7z"/>
			</g>
			<path class="st17" d="M103.2,89.9l-0.8-4.1l10.3-1.1l2.1-12c0.2-1.1,1.8-2.4,2.9-2.2l-0.3-0.1c1.1,0.2,2.1,1.5,1.9,2.6l-2,14.4
				C117.4,90.1,104.6,89.3,103.2,89.9z"/>
		</g>
		<path class="st18" d="M123.7,70.7c2.1,0.3,3.7,2.6,3.8,4.5l-1.6,17c-10.6-0.1-12.2-1.3-12.2-1.3l0.8-17.4c0.1-1.6,0.9-3.2,2.8-3.3
			L123.7,70.7z"/>
		<g>
			<g>
				<g>
					<path class="st14" d="M112,89.8c0.1,1.2-0.7,1.4-1.9,1.5C104.1,91.5,110.9,84.4,112,89.8z"/>
					<path class="st14" d="M113.6,90.9c-1-0.1-3.7,0.8-3.8-0.9l0,0c0-0.7,0.5-1.2,1.1-1.3c1,0.1,3.7-0.8,3.8,0.9l0,0
						C114.8,90.3,114.3,90.9,113.6,90.9z"/>
				</g>
				<path class="st18" d="M113.5,91.2l-1.1-4l11.2-1.8c0.4-2.1-2.6-12.9,1.8-12.6c1.1,0.1,2.2,1.3,2.1,2.4l0.8,12.5
					c-0.1,0.8-0.6,1.4-1.4,1.7L113.5,91.2z"/>
			</g>
		</g>
		<g>
			<path class="st19" d="M94.2,77.3c0.4,0.3,13.6,0.6,13,1.9c-0.3,0.7,2.5,12.6,0.4,12c-0.4-0.3-13.8-0.6-13.2-1.9
				C94.7,88.6,92,76.7,94.2,77.3z"/>
			<path class="st20" d="M93.5,77.3c0.4,0.3,13.6,0.6,13,1.9c-0.3,0.7,2.5,12.6,0.4,12c-0.4-0.3-13.8-0.6-13.2-1.9
				C94,88.5,91.3,76.6,93.5,77.3z"/>
			<path class="st19" d="M108.1,90.3c0.2,0.2,9.3,0.4,8.8,1.3l0,0c0.3,1-9.1-0.6-9.4-0.4L108.1,90.3z"/>
			<path class="st21" d="M100.5,83.9c-0.1,1.7-2.8,1.5-2.7-0.3C98,82,100.7,82.2,100.5,83.9z"/>
		</g>
		<polygon class="st17" points="122.6,77.3 122.9,85.2 112.4,87.1 121.6,84.3 		"/>
	</g>
	<g>
		<g>
			<path class="st14" d="M117.1,69.7c0.4,1.1,0.8,3.1,2.3,3.1c3.3-0.1,1.3-3.8,0.6-5.4L117.1,69.7z"/>
			<path class="st22" d="M117.7,71.4c3.4,0.1,4.7-7.7-0.8-4.3C117,68,117.2,70.5,117.7,71.4z"/>
			<g>
				<g>
					<g>
						<path id="XMLID_1_" class="st14" d="M112.4,62.4c-3.1,6.3,6.9,11,9.8,4.6C125.2,60.6,115.3,56,112.4,62.4z"/>
					</g>
					<g>
						<defs>
							<path id="SVGID_11_" d="M112.4,62.4c-3.1,6.3,6.9,11,9.8,4.6C125.2,60.6,115.3,56,112.4,62.4z"/>
						</defs>
						<clipPath id="SVGID_12_">
							<use xlink:href="#SVGID_11_"  style="overflow:visible;"/>
						</clipPath>
						<path class="st23" d="M119.3,65.7c0,0-0.8,4.3,2.3,4.4c3.2,0.1,1.4-8.1,1.4-8.1l-5-5.1l-7.7,1.9l0.8,5c0,0,1.2,0.6,7.8-0.4
							L119.3,65.7z"/>
					</g>
					<g>
						<defs>
							<path id="SVGID_13_" d="M112.4,62.4c-3.1,6.3,6.9,11,9.8,4.6C125.2,60.6,115.3,56,112.4,62.4z"/>
						</defs>
						<clipPath id="SVGID_14_">
							<use xlink:href="#SVGID_13_"  style="overflow:visible;"/>
						</clipPath>
						<polygon class="st24" points="116.1,62.3 118.7,66 120.8,63.6 						"/>
					</g>
				</g>
				<path class="st14" d="M118.4,64.7c-0.9,1.8,2,3.1,2.8,1.3C122.1,64.2,119.2,62.9,118.4,64.7z"/>
			</g>
		</g>
		<g>
			<path class="st7" d="M111.3,63.8c-2.8-8.5,11-13,11.4-1.1L111.3,63.8z"/>
			<path class="st25" d="M111.9,63.7c0.1-1.1-0.6-3.9,1.2-3.9c1.8-0.2,1.3,2.7,1.6,3.8"/>
			<line class="st26" x1="122.7" y1="62.7" x2="110.3" y2="63.8"/>
		</g>
	</g>
</g>
<g>
	<g>
		<g>
			<polygon class="st14" points="235.4,206.1 238.2,208.8 235,210.5 232.3,207.8 			"/>
			<path class="st13" d="M215.9,186c2.1,14.7,6.4,14.5,16.2,23.8l4.8-3.9c-12.1-12.7-9.9-8.6-14.2-25.6L215.9,186z"/>
			<g>
				<path class="st13" d="M235,210.4l-1,3.2c-1,1.2-2.3,3-0.8,4.4l7.8-7.3l-3.1-2.9L235,210.4z"/>
				<polyline class="st13" points="241,210.7 233.1,218 232.5,217.4 240.4,210.1 241,210.7 				"/>
			</g>
		</g>
		<g>
			<polygon class="st14" points="208.7,211.1 207.7,214.6 204.1,213.6 205.2,210.2 			"/>
			<path class="st15" d="M213.5,176.9l-10,33.8l6.3,1.6l5.6-17c2.2-4.4,9.9-12.8,8.7-18.1L213.5,176.9z"/>
			<g>
				<path class="st13" d="M204.3,213.3l-3.2,1.2c-1.5,0-3.8,0-4,2l10.6,1.7l0.4-4.3L204.3,213.3z"/>
				<polyline class="st13" points="207.8,218.3 197.1,216.5 197.3,215.6 208,217.4 207.8,218.3 				"/>
			</g>
		</g>
	</g>
	<g>
		<g>
			<g>
				<polygon class="st27" points="199.6,142.5 195.5,148.8 197.5,150.2 201.6,143.5 				"/>
				<path class="st28" d="M194.3,132c0,0,1.9,7.8,11.3,10.9c1.2,0.8,0.7,3.4-1.5,4c-2.3-0.6-8.5-5.3-16.1-4L194.3,132z"/>
				<path class="st27" d="M194.3,132c0,0-1.7,7.8-6.2,11C188.1,143,188.7,136.2,194.3,132z"/>
			</g>
			<g>
				<g>
					<g>
						<path class="st14" d="M194.2,148.4c-0.7,3.4,4.7,5.1,5.5,1.4C200.3,146.4,195,144.7,194.2,148.4z"/>
					</g>
					<polyline class="st14" points="201.8,152.6 199,149.7 197.2,151.9 201.8,155.3 					"/>
				</g>
				<path class="st17" d="M201.4,149.9l-3,4.4c1,0.6,8.2,8.5,9.6,7.6c2.7-1,14.1,0.2,13.6-4.6l0,0c-0.1-1.7,0.2-4.1-1.4-4l-12.4,2.6
					L201.4,149.9z"/>
			</g>
		</g>
		<g>
			<g>
				<path class="st18" d="M225.4,160c0.9-6.5-8.2-9.6-10.4-2.6c-1.6,4.9-2.1,19.4-2.1,19.4l11.5,0.4L225.4,160z"/>
			</g>
			<polygon class="st17" points="221.1,160.4 224.6,173.1 225.3,162.3 			"/>
		</g>
		<g>
			<g>
				<g>
					<path class="st14" d="M235.2,185.4c2.5-2.3-0.8-6.9-3.6-4.4C229.1,183.4,232.4,187.9,235.2,185.4z"/>
				</g>
				<polyline class="st14" points="230,176.4 232.1,181.5 234.9,180.8 233.2,175.3 				"/>
			</g>
			<path class="st18" d="M230.1,180.4l5.7-1.3c-0.3-0.7-4.1-14.8-4.6-14.7l-7.2-8.9c-1-1.4-2.6-1.1-4-0.2l0,0
				c-4.6,3,4.9,10.1,6.1,12.5C226.3,167.9,230.1,180.4,230.1,180.4z"/>
		</g>
	</g>
	<g>
		<g>
			<path class="st14" d="M217.5,151.5c0.2,1.2,0,3.2,1.5,3.6c3.3,0.8,2.3-3.4,1.9-5.2L217.5,151.5z"/>
			<path class="st22" d="M217.7,153.3c3.3,0.6,6.6-6.8,0.3-4.4C217.8,149.8,217.4,152.3,217.7,153.3z"/>
			<g>
				<g>
					<g>
						<path id="XMLID_11_" class="st14" d="M214.7,143.1c-4.6,5.4,4,12.5,8.4,6.9C227.7,144.6,219.1,137.6,214.7,143.1z"/>
					</g>
					<g>
						<defs>
							<path id="SVGID_15_" d="M214.7,143.1c-4.6,5.4,4,12.5,8.4,6.9C227.7,144.6,219.1,137.6,214.7,143.1z"/>
						</defs>
						<clipPath id="SVGID_16_">
							<use xlink:href="#SVGID_15_"  style="overflow:visible;"/>
						</clipPath>
						<path class="st29" d="M220.7,148.1c0,0-1.9,4,1.2,4.9c3.1,0.9,3.4-7.6,3.4-7.6l-3.7-6.2l-8-0.1l-0.5,5.1c0,0,1,0.9,7.8,1.5
							L220.7,148.1z"/>
					</g>
					<g>
						<defs>
							<path id="SVGID_17_" d="M214.7,143.1c-4.6,5.4,4,12.5,8.4,6.9C227.7,144.6,219.1,137.6,214.7,143.1z"/>
						</defs>
						<clipPath id="SVGID_18_">
							<use xlink:href="#SVGID_17_"  style="overflow:visible;"/>
						</clipPath>
						<polygon class="st30" points="218.4,144 220,148.3 222.7,146.5 						"/>
					</g>
				</g>
				<path class="st14" d="M220.1,146.9c-1.3,1.5,1.1,3.5,2.4,2C223.8,147.4,221.3,145.4,220.1,146.9z"/>
			</g>
		</g>
		<g>
			<path class="st7" d="M213.3,144.7c-1-9,13.6-10.5,11.5,1.3L213.3,144.7z"/>
			<path class="st31" d="M213.9,144.8c0.3-1,0.2-4,2-3.6c1.8,0.2,0.7,3,0.8,4.1"/>
			<line class="st32" x1="224.8" y1="146" x2="212.3" y2="144.6"/>
		</g>
	</g>
</g>
<g>
	<g>
		<line class="st33" x1="301.1" y1="178.3" x2="288.2" y2="191.1"/>
		<line class="st33" x1="301.1" y1="164.7" x2="288.2" y2="177.5"/>
		<line class="st33" x1="301.1" y1="151.1" x2="288.2" y2="163.8"/>
		<line class="st33" x1="301.1" y1="137.5" x2="288.2" y2="150.2"/>
		<line class="st33" x1="301.1" y1="123.8" x2="288.2" y2="136.6"/>
		<line class="st33" x1="301.1" y1="110.2" x2="288.2" y2="123"/>
		<line class="st33" x1="301.1" y1="96.6" x2="288.2" y2="109.3"/>
		<line class="st33" x1="301.1" y1="83" x2="288.2" y2="95.7"/>
		<line class="st33" x1="301.1" y1="69.3" x2="288.2" y2="82.1"/>
		<line class="st33" x1="301.1" y1="55.7" x2="288.2" y2="68.5"/>
		<line class="st33" x1="301.1" y1="42.1" x2="288.2" y2="54.8"/>
		<line class="st33" x1="288.2" y1="177.5" x2="301.1" y2="177.5"/>
		<line class="st33" x1="288.2" y1="163.8" x2="301.1" y2="163.8"/>
		<line class="st33" x1="288.2" y1="150.2" x2="301.1" y2="150.2"/>
		<line class="st33" x1="288.2" y1="136.6" x2="301.1" y2="136.6"/>
		<line class="st33" x1="288.2" y1="123" x2="301.1" y2="123"/>
		<line class="st33" x1="288.2" y1="109.3" x2="301.1" y2="109.3"/>
		<line class="st33" x1="288.2" y1="95.7" x2="301.1" y2="95.7"/>
		<line class="st33" x1="288.2" y1="82.1" x2="301.1" y2="82.1"/>
		<line class="st33" x1="288.2" y1="68.5" x2="301.1" y2="68.5"/>
		<line class="st33" x1="288.2" y1="54.8" x2="301.1" y2="54.8"/>
		<line class="st34" x1="288.2" y1="194.8" x2="288.2" y2="44.3"/>
		<line class="st34" x1="301.1" y1="194.8" x2="301.1" y2="44.3"/>
		<rect x="281.5" y="191.1" class="st15" width="25.8" height="26.8"/>
	</g>
	<g>
		<g>
			<path class="st1" d="M301.2,44.3c-3.9-0.8-18,2.7-17.8-4.3V23.1c0-2.4,1.9-4.3,4.3-4.3c3.9,0.8,18-2.7,17.8,4.3V40
				C305.5,42.3,303.5,44.3,301.2,44.3z"/>
			<path class="st35" d="M294.1,36.8h-8.7V24.9c2.9,0.5,12.1-1.9,11.9,3.3C297.2,30.9,298.4,36.9,294.1,36.8z"/>
		</g>
		<g>
			<g>
				<line class="st36" x1="202.9" y1="45.7" x2="213.2" y2="75.7"/>
				<line class="st36" x1="195.7" y1="42.1" x2="175.5" y2="69.3"/>
				<g>
					<path class="st7" d="M201.7,55.5l20.8,27.3c2.3,3,1.7,7.3-1.3,9.6L194,113.2c-3,2.3-7.3,1.7-9.6-1.3l-20.8-27.3
						c-2.3-3-1.7-7.3,1.3-9.6l27.3-20.8C195.1,51.9,199.4,52.5,201.7,55.5z"/>
					<path class="st37" d="M200.1,60.6l17.1,22.3c1.9,2.5,1.4,6-1,7.8l-22.3,17.1c-2.5,1.9-6,1.4-7.8-1L169,84.5
						c-1.9-2.5-1.4-6,1-7.8l22.3-17.1C194.7,57.7,198.2,58.1,200.1,60.6z"/>
					<g>
						<path class="st15" d="M194.8,93.8c-0.5,4-6.7,3.2-6.1-0.8C189.2,88.9,195.4,89.8,194.8,93.8z M197.5,71.2l-2.4,17l-5.2-0.7
							c0.8-5.7,1.4-11.3,2.2-17L197.5,71.2z"/>
					</g>
				</g>
			</g>
			<g>
				<g>
					<path class="st15" d="M208.6,39.5c0.2,11.2-17.5,11.2-17.3,0C191.1,28.3,208.7,28.3,208.6,39.5z"/>
					<path class="st38" d="M206,39.5c0.1,7.9-12.3,7.9-12.2,0C193.7,31.6,206.1,31.6,206,39.5z"/>
				</g>
				<g>
					<line class="st33" x1="233.8" y1="0.4" x2="233.8" y2="18.8"/>
					<line class="st33" x1="217.4" y1="0.4" x2="217.4" y2="18.8"/>
					<line class="st33" x1="250.2" y1="0.4" x2="250.2" y2="18.8"/>
					<line class="st33" x1="268.4" y1="0.4" x2="268.4" y2="18.8"/>
					<line class="st33" x1="285.4" y1="0.4" x2="285.4" y2="18.8"/>
					<line class="st33" x1="303" y1="0.4" x2="303" y2="18.8"/>
					<line class="st33" x1="320.3" y1="0.4" x2="320.3" y2="18.8"/>
					<line class="st33" x1="216.5" y1="18.8" x2="233.8" y2="0.4"/>
					<line class="st33" x1="233.8" y1="18.8" x2="251.1" y2="0.4"/>
					<line class="st33" x1="251.1" y1="18.8" x2="268.4" y2="0.4"/>
					<line class="st33" x1="268.4" y1="18.8" x2="285.7" y2="0.4"/>
					<line class="st33" x1="285.7" y1="18.8" x2="303" y2="0.4"/>
					<line class="st33" x1="303" y1="18.8" x2="320.3" y2="0.4"/>
					<polygon class="st39" points="199.9,18.8 340.9,18.8 322,0.4 214.5,0.4 					"/>
					<line class="st39" x1="199.9" y1="18.8" x2="199.9" y2="39.5"/>
				</g>
			</g>
		</g>
	</g>
</g>
<g>
	<g>
		<g>
			<g>
				<path id="XMLID_4_" class="st7" d="M125.3,215.4c13.9-34.8,8.5-34.6,22.4,0H125.3z"/>
			</g>
			<g>
				<defs>
					<path id="SVGID_19_" d="M125.3,215.4c13.9-34.8,8.5-34.6,22.4,0H125.3z"/>
				</defs>
				<clipPath id="SVGID_20_">
					<use xlink:href="#SVGID_19_"  style="overflow:visible;"/>
				</clipPath>
				<rect x="127.6" y="195.3" class="st40" width="17.5" height="5.4"/>
			</g>
			<g>
				<defs>
					<path id="SVGID_21_" d="M125.3,215.4c13.9-34.8,8.5-34.6,22.4,0H125.3z"/>
				</defs>
				<clipPath id="SVGID_22_">
					<use xlink:href="#SVGID_21_"  style="overflow:visible;"/>
				</clipPath>
				<rect x="126.7" y="205.6" class="st41" width="19.8" height="5.4"/>
			</g>
		</g>
		<rect x="123.5" y="215.4" class="st42" width="26.1" height="2.2"/>
	</g>
	<g>
		<g>
			<g>
				<path id="XMLID_3_" class="st7" d="M268.7,215.5c13.9-34.8,8.5-34.6,22.4,0H268.7z"/>
			</g>
			<g>
				<defs>
					<path id="SVGID_23_" d="M268.7,215.5c13.9-34.8,8.5-34.6,22.4,0H268.7z"/>
				</defs>
				<clipPath id="SVGID_24_">
					<use xlink:href="#SVGID_23_"  style="overflow:visible;"/>
				</clipPath>
				<rect x="271" y="195.4" class="st43" width="17.5" height="5.4"/>
			</g>
			<g>
				<defs>
					<path id="SVGID_25_" d="M268.7,215.5c13.9-34.8,8.5-34.6,22.4,0H268.7z"/>
				</defs>
				<clipPath id="SVGID_26_">
					<use xlink:href="#SVGID_25_"  style="overflow:visible;"/>
				</clipPath>
				<rect x="270" y="205.7" class="st44" width="19.8" height="5.4"/>
			</g>
		</g>
		<rect x="266.9" y="215.5" class="st42" width="26.1" height="2.2"/>
	</g>
</g>
</svg>
