<svg id="Ñëîé_1" data-name="Ñëîé 1" xmlns="http://www.w3.org/2000/svg" viewBox="0 0 368.35 281.84"><defs><style>.cls-1,.cls-7{fill:#d4ecff;}.cls-2{fill:#396caa;}.cls-3{fill:#5793ce;}.cls-4{fill:#fafdff;}.cls-5{fill:#173d7a;}.cls-6{fill:#fff;}.cls-7{opacity:0.4;}.cls-8{fill:#d3008d;}.cls-9{fill:#ff2c9c;}.cls-10{fill:#abd6f4;}.cls-11{fill:#efefef;}</style></defs><path class="cls-1" d="M312.52,257.92l52.8-30.11c1.93-1.11,1.69-3.06-.54-4.35L334.4,205.93a8.37,8.37,0,0,0-7.53-.32l-52.8,30.11c-1.93,1.11-1.69,3.06.54,4.35L305,257.61C307.22,258.9,310.59,259,312.52,257.92Z" transform="translate(-196.48 -67.05)"/><path class="cls-2" d="M269.36,225.58h0V102.32l49-12.82,9-5.21c2.07-1.2,5.69-1.05,8.08.33l8.42,4.86H370l-7.74,119a2.35,2.35,0,0,1-1.39,2.17L312,247.52c-2.07,1.2-5.69,1-8.08-.33l-32.59-18.82C270,227.58,269.28,226.55,269.36,225.58Z" transform="translate(-196.48 -67.05)"/><path class="cls-1" d="M331.14,83.49a9.18,9.18,0,0,1,4.33,1.13l8.42,4.86H370V213.06a2.35,2.35,0,0,1-1.39,2.17L312,247.52a7.32,7.32,0,0,1-3.75.81L307.67,124Z" transform="translate(-196.48 -67.05)"/><path class="cls-3" d="M311.48,247.78a9.27,9.27,0,0,1-6.46-.07V122.49h6.46Z" transform="translate(-196.48 -67.05)"/><path class="cls-1" d="M312,124l56.64-32.29c2.07-1.2,1.81-3.29-.58-4.67L335.47,68.2c-2.39-1.39-6-1.54-8.08-.34l-56.64,32.3c-2.07,1.19-1.81,3.28.58,4.66l32.59,18.82C306.31,125,309.93,125.17,312,124Z" transform="translate(-196.48 -67.05)"/><path class="cls-4" d="M271.33,102.53l32.59,18.82c2.39,1.38,6,1.53,8.08.33l56.64-32.29a3.12,3.12,0,0,0,1-.92c.72,1.14.39,2.39-1,3.21L312,124c-2.07,1.2-5.69,1-8.08-.33l-32.59-18.82c-1.86-1.07-2.42-2.57-1.61-3.75A4.37,4.37,0,0,0,271.33,102.53Z" transform="translate(-196.48 -67.05)"/><path class="cls-5" d="M310.4,110.88,348.11,89c1-.56.85-1.54-.27-2.19L332.59,78a4.21,4.21,0,0,0-3.79-.16L291.09,99.74c-1,.56-.84,1.54.28,2.18l15.25,8.81A4.22,4.22,0,0,0,310.4,110.88Z" transform="translate(-196.48 -67.05)"/><path class="cls-1" d="M330.76,90l2.18-1.26c.14-.08.12-.22,0-.31l-2.11-1.21a.6.6,0,0,0-.52,0l-2.18,1.27c-.14.07-.12.21,0,.3L330.23,90A.66.66,0,0,0,330.76,90Z" transform="translate(-196.48 -67.05)"/><path class="cls-1" d="M323.46,94.2l2.18-1.26c.14-.07.12-.21,0-.3l-2.11-1.22a.56.56,0,0,0-.52,0l-2.18,1.26c-.14.08-.12.22,0,.3l2.11,1.22A.59.59,0,0,0,323.46,94.2Z" transform="translate(-196.48 -67.05)"/><path class="cls-1" d="M316.16,98.4l2.18-1.26c.14-.08.12-.21,0-.3l-2.11-1.22a.56.56,0,0,0-.52,0l-2.18,1.26c-.14.08-.12.21,0,.3l2.11,1.22A.59.59,0,0,0,316.16,98.4Z" transform="translate(-196.48 -67.05)"/><path class="cls-1" d="M308.86,102.6l2.18-1.26c.14-.08.12-.21,0-.3l-2.11-1.22a.56.56,0,0,0-.52,0l-2.19,1.26c-.13.08-.11.21,0,.3l2.11,1.22A.59.59,0,0,0,308.86,102.6Z" transform="translate(-196.48 -67.05)"/><path class="cls-3" d="M348.11,89l-.05,0a1.7,1.7,0,0,0-.22-.15l-15.25-8.81a4.21,4.21,0,0,0-3.79-.16l-37.66,21.84c-.89-.64-.94-1.51-.05-2L328.8,77.88a4.21,4.21,0,0,1,3.79.16l15.25,8.8C349,87.49,349.08,88.47,348.11,89Z" transform="translate(-196.48 -67.05)"/><path class="cls-5" d="M297.56,148.4l-21.45-12.28a5.26,5.26,0,0,1-2.18-4.17v-7.67c0-1.61,1-2.35,2.18-1.65l21.45,12.27a5.26,5.26,0,0,1,2.18,4.18v7.66C299.74,148.35,298.76,149.09,297.56,148.4Z" transform="translate(-196.48 -67.05)"/><path class="cls-6" d="M275.05,122.4a2.13,2.13,0,0,0-.54,1.59v7.67a5.2,5.2,0,0,0,2.18,4.17l21.44,12.28a1.62,1.62,0,0,0,1.06.23,1.3,1.3,0,0,1-1.63.06l-21.45-12.28a5.26,5.26,0,0,1-2.18-4.17v-7.67C273.93,123.19,274.39,122.51,275.05,122.4Z" transform="translate(-196.48 -67.05)"/><path class="cls-2" d="M291.11,140.07l-2-1.14a1.15,1.15,0,0,1-.48-.91v-2.1c0-.35.22-.51.48-.36l2,1.14a1.13,1.13,0,0,1,.47.91v2.1C291.58,140.06,291.37,140.22,291.11,140.07Z" transform="translate(-196.48 -67.05)"/><path class="cls-6" d="M284.53,136.27l-2-1.14a1.14,1.14,0,0,1-.47-.91v-2.1c0-.35.21-.51.47-.36l2,1.14a1.15,1.15,0,0,1,.48.91v2.1C285,136.26,284.79,136.42,284.53,136.27Z" transform="translate(-196.48 -67.05)"/><path class="cls-5" d="M297.56,203.8l-21.45-12.27a5.26,5.26,0,0,1-2.18-4.18v-7.67c0-1.6,1-2.34,2.18-1.65l21.45,12.28a5.23,5.23,0,0,1,2.18,4.17v7.67C299.74,203.76,298.76,204.5,297.56,203.8Z" transform="translate(-196.48 -67.05)"/><path class="cls-6" d="M275.05,177.8a2.18,2.18,0,0,0-.54,1.6v7.66a5.23,5.23,0,0,0,2.18,4.18l21.44,12.27a1.58,1.58,0,0,0,1.06.24,1.3,1.3,0,0,1-1.63.05l-21.45-12.27a5.26,5.26,0,0,1-2.18-4.18v-7.67C273.93,178.59,274.39,177.91,275.05,177.8Z" transform="translate(-196.48 -67.05)"/><path class="cls-2" d="M291.11,195.47l-2-1.13a1.17,1.17,0,0,1-.48-.91v-2.1c0-.35.22-.52.48-.36l2,1.13a1.14,1.14,0,0,1,.47.91v2.1C291.58,195.46,291.37,195.62,291.11,195.47Z" transform="translate(-196.48 -67.05)"/><path class="cls-6" d="M284.53,191.68l-2-1.14a1.14,1.14,0,0,1-.47-.91v-2.1c0-.35.21-.51.47-.36l2,1.13a1.17,1.17,0,0,1,.48.91v2.11C285,191.67,284.79,191.83,284.53,191.68Z" transform="translate(-196.48 -67.05)"/><path class="cls-5" d="M297.56,231.5l-21.45-12.27a5.26,5.26,0,0,1-2.18-4.18v-7.66c0-1.61,1-2.35,2.18-1.65L297.56,218a5.26,5.26,0,0,1,2.18,4.18v7.66C299.74,231.46,298.76,232.2,297.56,231.5Z" transform="translate(-196.48 -67.05)"/><path class="cls-6" d="M275.05,205.5a2.18,2.18,0,0,0-.54,1.6v7.67a5.21,5.21,0,0,0,2.18,4.17l21.44,12.28a1.62,1.62,0,0,0,1.06.23,1.29,1.29,0,0,1-1.63.05l-21.45-12.27a5.26,5.26,0,0,1-2.18-4.18v-7.66C273.93,206.29,274.39,205.62,275.05,205.5Z" transform="translate(-196.48 -67.05)"/><path class="cls-2" d="M291.11,223.18l-2-1.14a1.15,1.15,0,0,1-.48-.91V219c0-.35.22-.51.48-.36l2,1.13a1.16,1.16,0,0,1,.47.91v2.11C291.58,223.17,291.37,223.33,291.11,223.18Z" transform="translate(-196.48 -67.05)"/><path class="cls-6" d="M284.53,219.38l-2-1.14a1.14,1.14,0,0,1-.47-.91v-2.1c0-.35.21-.51.47-.36l2,1.14a1.15,1.15,0,0,1,.48.91V219C285,219.37,284.79,219.53,284.53,219.38Z" transform="translate(-196.48 -67.05)"/><path class="cls-5" d="M297.56,176.1l-21.45-12.28a5.23,5.23,0,0,1-2.18-4.17V152c0-1.61,1-2.35,2.18-1.65l21.45,12.28a5.23,5.23,0,0,1,2.18,4.17v7.67C299.74,176.06,298.76,176.79,297.56,176.1Z" transform="translate(-196.48 -67.05)"/><path class="cls-6" d="M275.05,150.1a2.17,2.17,0,0,0-.54,1.59v7.67a5.2,5.2,0,0,0,2.18,4.17l21.44,12.28a1.56,1.56,0,0,0,1.06.23,1.29,1.29,0,0,1-1.63.06l-21.45-12.28a5.23,5.23,0,0,1-2.18-4.17V152C273.93,150.89,274.39,150.21,275.05,150.1Z" transform="translate(-196.48 -67.05)"/><path class="cls-2" d="M291.11,167.77l-2-1.14a1.15,1.15,0,0,1-.48-.91v-2.1c0-.35.22-.51.48-.36l2,1.14a1.14,1.14,0,0,1,.47.91v2.1C291.58,167.76,291.37,167.92,291.11,167.77Z" transform="translate(-196.48 -67.05)"/><path class="cls-6" d="M284.53,164l-2-1.13a1.16,1.16,0,0,1-.47-.91v-2.1c0-.35.21-.52.47-.36l2,1.13a1.15,1.15,0,0,1,.48.91v2.1C285,164,284.79,164.12,284.53,164Z" transform="translate(-196.48 -67.05)"/><path class="cls-3" d="M316.13,140.55,365.59,112a4.81,4.81,0,0,0,2-3.83V98.72c0-1.47-.9-2.15-2-1.51l-49.46,28.56a4.79,4.79,0,0,0-2,3.83V139C314.12,140.51,315,141.19,316.13,140.55Z" transform="translate(-196.48 -67.05)"/><path class="cls-7" d="M317.55,137.24l46.62-26.92a2.43,2.43,0,0,0,1-1.94v-7.09c0-.75-.46-1.1-1-.77l-46.62,26.92a2.4,2.4,0,0,0-1,1.94v7.09C316.53,137.22,317,137.56,317.55,137.24Z" transform="translate(-196.48 -67.05)"/><path class="cls-1" d="M354.46,112.34l7-4a2.36,2.36,0,0,0,1-1.89h0c0-.73-.44-1.06-1-.75l-7,4a2.36,2.36,0,0,0-1,1.89h0C353.47,112.33,353.91,112.66,354.46,112.34Z" transform="translate(-196.48 -67.05)"/><path class="cls-5" d="M348.53,114.45c0,.73.51,1,1.14.66a2.52,2.52,0,0,0,1.14-2c0-.72-.51-1-1.14-.65A2.5,2.5,0,0,0,348.53,114.45Z" transform="translate(-196.48 -67.05)"/><path class="cls-5" d="M344.5,116.77c0,.73.51,1,1.14.66a2.52,2.52,0,0,0,1.14-2c0-.73-.51-1-1.14-.66A2.52,2.52,0,0,0,344.5,116.77Z" transform="translate(-196.48 -67.05)"/><path class="cls-1" d="M340.48,119.1c0,.72.51,1,1.14.66a2.53,2.53,0,0,0,1.14-2c0-.73-.51-1-1.14-.66A2.53,2.53,0,0,0,340.48,119.1Z" transform="translate(-196.48 -67.05)"/><path class="cls-5" d="M336.46,121.42c0,.73.51,1,1.14.66a2.53,2.53,0,0,0,1.14-2c0-.72-.51-1-1.14-.66A2.53,2.53,0,0,0,336.46,121.42Z" transform="translate(-196.48 -67.05)"/><path class="cls-5" d="M319.51,133.29l2.34-1.35a1.53,1.53,0,0,0,.63-1.21v-2.48c0-.47-.28-.69-.63-.48l-2.34,1.35a1.51,1.51,0,0,0-.64,1.21v2.48C318.87,133.28,319.16,133.49,319.51,133.29Z" transform="translate(-196.48 -67.05)"/><path class="cls-3" d="M316.13,157.18l49.46-28.56a4.79,4.79,0,0,0,2-3.83v-9.43c0-1.48-.9-2.16-2-1.52L316.13,142.4a4.81,4.81,0,0,0-2,3.83v9.43C314.12,157.14,315,157.82,316.13,157.18Z" transform="translate(-196.48 -67.05)"/><path class="cls-7" d="M317.55,153.87,364.17,127a2.43,2.43,0,0,0,1-1.94v-7.09c0-.75-.46-1.09-1-.77l-46.62,26.92a2.4,2.4,0,0,0-1,1.94v7.09C316.53,153.85,317,154.2,317.55,153.87Z" transform="translate(-196.48 -67.05)"/><path class="cls-1" d="M354.46,129l7-4a2.35,2.35,0,0,0,1-1.89h0c0-.72-.44-1.06-1-.74l-7,4a2.36,2.36,0,0,0-1,1.89h0C353.47,129,353.91,129.29,354.46,129Z" transform="translate(-196.48 -67.05)"/><path class="cls-6" d="M348.53,131.08c0,.73.51,1,1.14.66a2.52,2.52,0,0,0,1.14-2c0-.73-.51-1-1.14-.66A2.52,2.52,0,0,0,348.53,131.08Z" transform="translate(-196.48 -67.05)"/><path class="cls-5" d="M344.5,133.41c0,.72.51,1,1.14.66a2.53,2.53,0,0,0,1.14-2c0-.73-.51-1-1.14-.66A2.53,2.53,0,0,0,344.5,133.41Z" transform="translate(-196.48 -67.05)"/><path class="cls-1" d="M340.48,135.73c0,.73.51,1,1.14.66a2.53,2.53,0,0,0,1.14-2c0-.72-.51-1-1.14-.66A2.53,2.53,0,0,0,340.48,135.73Z" transform="translate(-196.48 -67.05)"/><path class="cls-5" d="M336.46,138.05c0,.73.51,1,1.14.66a2.52,2.52,0,0,0,1.14-2c0-.73-.51-1-1.14-.66A2.52,2.52,0,0,0,336.46,138.05Z" transform="translate(-196.48 -67.05)"/><path class="cls-5" d="M319.51,149.92l2.34-1.35a1.5,1.5,0,0,0,.63-1.21v-2.48c0-.47-.28-.68-.63-.48l-2.34,1.35a1.54,1.54,0,0,0-.64,1.21v2.48C318.87,149.91,319.16,150.13,319.51,149.92Z" transform="translate(-196.48 -67.05)"/><path class="cls-3" d="M316.13,173.81l49.46-28.56a4.79,4.79,0,0,0,2-3.83V132c0-1.48-.9-2.15-2-1.51L316.13,159a4.81,4.81,0,0,0-2,3.83v9.44C314.12,173.77,315,174.45,316.13,173.81Z" transform="translate(-196.48 -67.05)"/><path class="cls-7" d="M317.55,170.51l46.62-26.92a2.46,2.46,0,0,0,1-2v-7.09c0-.75-.46-1.09-1-.77L317.55,160.7a2.44,2.44,0,0,0-1,2v7.09C316.53,170.49,317,170.83,317.55,170.51Z" transform="translate(-196.48 -67.05)"/><path class="cls-1" d="M354.46,145.61l7-4a2.34,2.34,0,0,0,1-1.88h0c0-.73-.44-1.07-1-.75l-7,4a2.34,2.34,0,0,0-1,1.88h0C353.47,145.59,353.91,145.93,354.46,145.61Z" transform="translate(-196.48 -67.05)"/><path class="cls-6" d="M348.53,147.72c0,.72.51,1,1.14.66a2.53,2.53,0,0,0,1.14-2c0-.73-.51-1-1.14-.66A2.53,2.53,0,0,0,348.53,147.72Z" transform="translate(-196.48 -67.05)"/><path class="cls-5" d="M344.5,150c0,.73.51,1,1.14.66a2.52,2.52,0,0,0,1.14-2c0-.72-.51-1-1.14-.65A2.5,2.5,0,0,0,344.5,150Z" transform="translate(-196.48 -67.05)"/><path class="cls-1" d="M340.48,152.36c0,.73.51,1,1.14.66a2.52,2.52,0,0,0,1.14-2c0-.73-.51-1-1.14-.66A2.52,2.52,0,0,0,340.48,152.36Z" transform="translate(-196.48 -67.05)"/><path class="cls-5" d="M336.46,154.69c0,.72.51,1,1.14.65a2.5,2.5,0,0,0,1.14-2c0-.73-.51-1-1.14-.66A2.52,2.52,0,0,0,336.46,154.69Z" transform="translate(-196.48 -67.05)"/><path class="cls-5" d="M319.51,166.56l2.34-1.36a1.5,1.5,0,0,0,.63-1.21v-2.48c0-.46-.28-.68-.63-.48l-2.34,1.36a1.51,1.51,0,0,0-.64,1.21v2.48C318.87,166.54,319.16,166.76,319.51,166.56Z" transform="translate(-196.48 -67.05)"/><path class="cls-3" d="M316.13,190.45l49.46-28.56a4.81,4.81,0,0,0,2-3.83v-9.44c0-1.47-.9-2.15-2-1.51l-49.46,28.56a4.79,4.79,0,0,0-2,3.83v9.43C314.12,190.41,315,191.08,316.13,190.45Z" transform="translate(-196.48 -67.05)"/><path class="cls-7" d="M317.55,187.14l46.62-26.92a2.46,2.46,0,0,0,1-1.94v-7.1c0-.74-.46-1.09-1-.76l-46.62,26.91a2.44,2.44,0,0,0-1,1.95v7.09C316.53,187.12,317,187.46,317.55,187.14Z" transform="translate(-196.48 -67.05)"/><path class="cls-1" d="M354.46,162.24l7-4a2.36,2.36,0,0,0,1-1.89h0c0-.73-.44-1.06-1-.75l-7,4a2.35,2.35,0,0,0-1,1.89h0C353.47,162.22,353.91,162.56,354.46,162.24Z" transform="translate(-196.48 -67.05)"/><path class="cls-5" d="M348.53,164.35c0,.73.51,1,1.14.66a2.52,2.52,0,0,0,1.14-2c0-.72-.51-1-1.14-.65A2.5,2.5,0,0,0,348.53,164.35Z" transform="translate(-196.48 -67.05)"/><path class="cls-5" d="M344.5,166.67c0,.73.51,1,1.14.66a2.52,2.52,0,0,0,1.14-2c0-.73-.51-1-1.14-.66A2.52,2.52,0,0,0,344.5,166.67Z" transform="translate(-196.48 -67.05)"/><path class="cls-1" d="M340.48,169c0,.72.51,1,1.14.65a2.5,2.5,0,0,0,1.14-2c0-.73-.51-1-1.14-.66A2.52,2.52,0,0,0,340.48,169Z" transform="translate(-196.48 -67.05)"/><path class="cls-5" d="M336.46,171.32c0,.73.51,1,1.14.66a2.53,2.53,0,0,0,1.14-2c0-.73-.51-1-1.14-.66A2.53,2.53,0,0,0,336.46,171.32Z" transform="translate(-196.48 -67.05)"/><path class="cls-1" d="M319.51,183.19l2.34-1.35a1.54,1.54,0,0,0,.63-1.22v-2.47c0-.47-.28-.69-.63-.48L319.51,179a1.51,1.51,0,0,0-.64,1.21v2.48C318.87,183.18,319.16,183.39,319.51,183.19Z" transform="translate(-196.48 -67.05)"/><path class="cls-3" d="M316.13,207.08l49.46-28.56a4.81,4.81,0,0,0,2-3.83v-9.43c0-1.48-.9-2.16-2-1.52L316.13,192.3a4.79,4.79,0,0,0-2,3.83v9.43C314.12,207,315,207.72,316.13,207.08Z" transform="translate(-196.48 -67.05)"/><path class="cls-7" d="M317.55,203.77l46.62-26.92a2.43,2.43,0,0,0,1-1.94v-7.09c0-.75-.46-1.1-1-.77L317.55,194a2.4,2.4,0,0,0-1,1.94V203C316.53,203.75,317,204.1,317.55,203.77Z" transform="translate(-196.48 -67.05)"/><path class="cls-1" d="M354.46,178.88l7-4a2.36,2.36,0,0,0,1-1.89h0c0-.73-.44-1.06-1-.74l-7,4a2.36,2.36,0,0,0-1,1.89h0C353.47,178.86,353.91,179.19,354.46,178.88Z" transform="translate(-196.48 -67.05)"/><path class="cls-5" d="M348.53,181c0,.73.51,1,1.14.66a2.52,2.52,0,0,0,1.14-2c0-.73-.51-1-1.14-.66A2.52,2.52,0,0,0,348.53,181Z" transform="translate(-196.48 -67.05)"/><path class="cls-6" d="M344.5,183.31c0,.72.51,1,1.14.65a2.5,2.5,0,0,0,1.14-2c0-.73-.51-1-1.14-.66A2.52,2.52,0,0,0,344.5,183.31Z" transform="translate(-196.48 -67.05)"/><path class="cls-1" d="M340.48,185.63c0,.73.51,1,1.14.66a2.53,2.53,0,0,0,1.14-2c0-.73-.51-1-1.14-.66A2.53,2.53,0,0,0,340.48,185.63Z" transform="translate(-196.48 -67.05)"/><path class="cls-6" d="M336.46,188c0,.73.51,1,1.14.66a2.52,2.52,0,0,0,1.14-2c0-.73-.51-1-1.14-.66A2.5,2.5,0,0,0,336.46,188Z" transform="translate(-196.48 -67.05)"/><path class="cls-1" d="M319.51,199.82l2.34-1.35a1.52,1.52,0,0,0,.63-1.21v-2.48c0-.47-.28-.68-.63-.48l-2.34,1.35a1.53,1.53,0,0,0-.64,1.21v2.48C318.87,199.81,319.16,200,319.51,199.82Z" transform="translate(-196.48 -67.05)"/><path class="cls-3" d="M316.13,223.71l49.46-28.56a4.79,4.79,0,0,0,2-3.83v-9.43c0-1.48-.9-2.16-2-1.52l-49.46,28.56a4.81,4.81,0,0,0-2,3.83v9.44C314.12,223.67,315,224.35,316.13,223.71Z" transform="translate(-196.48 -67.05)"/><path class="cls-7" d="M317.55,220.4l46.62-26.92a2.43,2.43,0,0,0,1-1.94v-7.09c0-.75-.46-1.09-1-.77L317.55,210.6a2.42,2.42,0,0,0-1,1.94v7.1C316.53,220.38,317,220.73,317.55,220.4Z" transform="translate(-196.48 -67.05)"/><path class="cls-1" d="M354.46,195.51l7-4a2.34,2.34,0,0,0,1-1.88h0c0-.73-.44-1.07-1-.75l-7,4a2.34,2.34,0,0,0-1,1.88h0C353.47,195.49,353.91,195.82,354.46,195.51Z" transform="translate(-196.48 -67.05)"/><path class="cls-5" d="M348.53,197.62c0,.72.51,1,1.14.65a2.5,2.5,0,0,0,1.14-2c0-.73-.51-1-1.14-.66A2.52,2.52,0,0,0,348.53,197.62Z" transform="translate(-196.48 -67.05)"/><path class="cls-5" d="M344.5,199.94c0,.73.51,1,1.14.66a2.53,2.53,0,0,0,1.14-2c0-.72-.51-1-1.14-.66A2.53,2.53,0,0,0,344.5,199.94Z" transform="translate(-196.48 -67.05)"/><path class="cls-1" d="M340.48,202.26c0,.73.51,1,1.14.66a2.52,2.52,0,0,0,1.14-2c0-.73-.51-1-1.14-.66A2.5,2.5,0,0,0,340.48,202.26Z" transform="translate(-196.48 -67.05)"/><path class="cls-5" d="M336.46,204.58c0,.73.51,1,1.14.66a2.5,2.5,0,0,0,1.14-2c0-.73-.51-1-1.14-.66A2.52,2.52,0,0,0,336.46,204.58Z" transform="translate(-196.48 -67.05)"/><path class="cls-5" d="M319.51,216.46l2.34-1.36a1.5,1.5,0,0,0,.63-1.21v-2.48c0-.47-.28-.68-.63-.48l-2.34,1.35a1.55,1.55,0,0,0-.64,1.22V216C318.87,216.44,319.16,216.66,319.51,216.46Z" transform="translate(-196.48 -67.05)"/><path class="cls-3" d="M316.13,240.34l49.46-28.56a4.78,4.78,0,0,0,2-3.83v-9.43c0-1.47-.9-2.15-2-1.51l-49.46,28.56a4.79,4.79,0,0,0-2,3.83v9.43C314.12,240.3,315,241,316.13,240.34Z" transform="translate(-196.48 -67.05)"/><path class="cls-7" d="M317.55,237l46.62-26.92a2.46,2.46,0,0,0,1-2v-7.09c0-.75-.46-1.09-1-.77l-46.62,26.92a2.44,2.44,0,0,0-1,2v7.09C316.53,237,317,237.36,317.55,237Z" transform="translate(-196.48 -67.05)"/><path class="cls-1" d="M354.46,212.14l7-4a2.36,2.36,0,0,0,1-1.89h0c0-.73-.44-1.06-1-.75l-7,4a2.35,2.35,0,0,0-1,1.89h0C353.47,212.12,353.91,212.46,354.46,212.14Z" transform="translate(-196.48 -67.05)"/><path class="cls-6" d="M347.25,215.15c0,1.37,1,1.93,2.16,1.24a4.73,4.73,0,0,0,2.15-3.73c0-1.37-1-1.93-2.15-1.24A4.78,4.78,0,0,0,347.25,215.15Z" transform="translate(-196.48 -67.05)"/><path class="cls-5" d="M338.92,220c0,.72.51,1,1.14.65a2.5,2.5,0,0,0,1.14-2c0-.73-.51-1-1.14-.66A2.52,2.52,0,0,0,338.92,220Z" transform="translate(-196.48 -67.05)"/><path class="cls-1" d="M334.9,222.35c0,.73.51,1,1.14.66a2.53,2.53,0,0,0,1.14-2c0-.73-.51-1-1.14-.66A2.53,2.53,0,0,0,334.9,222.35Z" transform="translate(-196.48 -67.05)"/><path class="cls-5" d="M330.87,224.67c0,.73.51,1,1.14.66a2.52,2.52,0,0,0,1.14-2c0-.72-.51-1-1.14-.65A2.5,2.5,0,0,0,330.87,224.67Z" transform="translate(-196.48 -67.05)"/><path class="cls-1" d="M319.51,233.09l2.34-1.36a1.5,1.5,0,0,0,.63-1.21V228c0-.46-.28-.68-.63-.48l-2.34,1.36a1.51,1.51,0,0,0-.64,1.21v2.48C318.87,233.08,319.16,233.29,319.51,233.09Z" transform="translate(-196.48 -67.05)"/><polygon class="cls-5" points="320.67 199.15 223.5 143.03 333.04 148.19 339.84 154.69 341.32 164.46 340.23 171.09 336.98 179.15 333.73 185.46 330.08 190.19 320.67 199.15"/><path class="cls-1" d="M435.48,158.91l-.51-.29,0,0h0c-3.88-2.08-9.16-1.7-15,1.65L287.25,236.88a8.92,8.92,0,0,1,1.53,1.48l5-2.9,26.86,58.37,13.9,19,9.07,3.15,9.1-3.55,44.15-25.09,87.51-50L516.49,218l8.39-2.66,7.54-.45Z" transform="translate(-196.48 -67.05)"/><path class="cls-1" d="M330.59,301.54c0-13.74,9.68-30.51,21.58-37.37v2.36c-10.77,6.22-19.53,21.39-19.53,33.82s8.76,17.49,19.53,11.28l165-95.25c6-3.44,11.34-3.76,15.25-1.5l-96.91-56-.51-.29,0,0h0c-3.88-2.08-9.16-1.7-15,1.65L287.25,236.88a8.92,8.92,0,0,1,1.53,1.48l5-2.9,26.86,58.37L331.78,309A21.72,21.72,0,0,1,330.59,301.54Z" transform="translate(-196.48 -67.05)"/><path class="cls-1" d="M532.41,214.89h0Z" transform="translate(-196.48 -67.05)"/><path class="cls-6" d="M330.59,300.22c0,.25,0,.47,0,.7.14-6.85,2.63-14.4,6.56-21.08l-.55-.35C332.9,286.12,330.59,293.53,330.59,300.22Z" transform="translate(-196.48 -67.05)"/><path class="cls-6" d="M517.14,215.07l-165,95.25c-10.52,6.06-19.11,1.38-19.51-10.42,0,.15,0,.31,0,.45,0,12.44,8.76,17.49,19.53,11.28l165-95.25c6-3.44,11.34-3.76,15.25-1.5l-4.69-2.71C524.58,211.94,521,212.85,517.14,215.07Z" transform="translate(-196.48 -67.05)"/><path class="cls-6" d="M320.67,292.51l-26.86-58.36-5,2.9q-.3-.36-.63-.69l-.9.52a8.92,8.92,0,0,1,1.53,1.48l5-2.9,26.86,58.37L331.78,309a16.86,16.86,0,0,1-.61-2.15Z" transform="translate(-196.48 -67.05)"/><path class="cls-1" d="M532.41,213.58h0Z" transform="translate(-196.48 -67.05)"/><path class="cls-3" d="M255,208h0c-11.9,6.87-21.58,23.63-21.58,37.37,0,6.63,2.26,11.36,5.94,13.71h0l.06,0c.22.13.44.26.67.38l96.81,55.94L331,304.77l.69-10.7,1.88-6,2.86-6.41s2.36-4.39,2.51-4.49,3.5-4.43,3.5-4.43l3.26-3.41,3.55-2.26,2.95-2.89Z" transform="translate(-196.48 -67.05)"/><path class="cls-5" d="M517.14,266.21v-2.37c10.77-6.22,19.53-21.39,19.53-33.82s-8.76-17.49-19.53-11.28L352.17,314c-11.9,6.87-21.58,1.29-21.58-12.45s9.68-30.51,21.58-37.37v2.36c-10.77,6.22-19.53,21.39-19.53,33.82s8.76,17.49,19.53,11.28l165-95.25c11.9-6.87,21.58-1.28,21.58,12.45S529,259.34,517.14,266.21Z" transform="translate(-196.48 -67.05)"/><path class="cls-3" d="M439.88,232.69l-46.2-26.08a8,8,0,0,0-7.15.37l-26.4,15.61c-2.11,1.25-2.32,3.1-.47,4.14l46.2,26.08a8,8,0,0,0,7.15-.37l26.4-15.61C441.51,235.58,441.72,233.73,439.88,232.69Z" transform="translate(-196.48 -67.05)"/><path class="cls-8" d="M404.72,247.15l-47.5-26.76a2.41,2.41,0,0,1-1.41-2l0,0,0-5.29,2.65,2.17L388,197.79c2.41-1.43,6.08-1.62,8.19-.43l45.39,25.58,3.48-2.05.06,5.34,0,0a3.37,3.37,0,0,1-1.95,2.65L412.9,246.73C410.49,248.15,406.83,248.34,404.72,247.15Z" transform="translate(-196.48 -67.05)"/><path class="cls-9" d="M443.59,218.74,396.1,192c-2.11-1.19-5.78-1-8.19.42L357.7,210.28c-2.41,1.42-2.65,3.54-.54,4.73l47.5,26.76c2.11,1.19,5.77,1,8.18-.42l30.22-17.87C445.46,222.05,445.7,219.93,443.59,218.74Z" transform="translate(-196.48 -67.05)"/><path class="cls-6" d="M404.66,241.77,357.16,215a2.24,2.24,0,0,1-1.33-2.63,2.85,2.85,0,0,0,1.22,1.22l47.5,26.77c2.11,1.18,5.77,1,8.18-.43L443,222.07a3.79,3.79,0,0,0,1.86-2.1c.55,1.13,0,2.49-1.75,3.51l-30.22,17.87C410.43,242.77,406.77,243,404.66,241.77Z" transform="translate(-196.48 -67.05)"/><path class="cls-6" d="M393.77,211.8c1.74-1,1.73-2.68,0-3.67a7,7,0,0,0-6.37.06c-1.75,1-1.74,2.68,0,3.68A7,7,0,0,0,393.77,211.8Z" transform="translate(-196.48 -67.05)"/><ellipse class="cls-6" cx="400.27" cy="215.47" rx="4.51" ry="2.6" transform="translate(-198.7 -62.86) rotate(-0.6)"/><ellipse class="cls-6" cx="409.98" cy="220.94" rx="4.51" ry="2.6" transform="matrix(1, -0.01, 0.01, 1, -198.76, -62.76)"/><polygon class="cls-3" points="180.97 198.84 142.25 176.26 139.82 177.65 178.54 200.23 180.97 198.84"/><polygon class="cls-3" points="179.89 185.96 152.87 170.2 150.44 171.59 177.47 187.35 179.89 185.96"/><polygon class="cls-3" points="170.94 186.87 147.56 173.23 145.13 174.62 168.51 188.25 170.94 186.87"/><polygon class="cls-3" points="186.28 195.81 174.59 188.99 172.16 190.38 183.85 197.2 186.28 195.81"/><polygon class="cls-3" points="271.35 145.66 232.63 123.09 230.2 124.47 268.92 147.05 271.35 145.66"/><polygon class="cls-3" points="270.27 132.78 243.24 117.02 240.81 118.41 267.84 134.17 270.27 132.78"/><polygon class="cls-3" points="261.32 133.69 237.94 120.05 235.51 121.44 258.89 135.08 261.32 133.69"/><polygon class="cls-3" points="276.65 142.63 264.96 135.81 262.53 137.2 274.23 144.02 276.65 142.63"/><path class="cls-10" d="M435.48,158.91l-.51-.29,0,0h0c-3.88-2.08-9.16-1.7-15,1.65l-11.14,6.43,15.66,9a1.74,1.74,0,0,0,1.95.08h0l19.09-11.08Z" transform="translate(-196.48 -67.05)"/><path class="cls-9" d="M459.73,142.14l-5-2.9,18.53-10.7a1,1,0,0,0,0-1.83l-18.93-10.93a3.5,3.5,0,0,0-3.18,0L432.6,126.47l-5-2.9,18.53-10.7a14.66,14.66,0,0,1,13.22,0l18.93,10.93c3.65,2.11,3.65,5.53,0,7.64Z" transform="translate(-196.48 -67.05)"/><path class="cls-1" d="M467.84,143.42c0-2.69-1.63-5.81-3.65-7l-33.57-19.38a2.33,2.33,0,0,0-2.36-.2h0l-40.09,23.29,38.76,29.21,39.5-22.92a1.9,1.9,0,0,0,.34-.2h0A3.43,3.43,0,0,0,467.84,143.42Z" transform="translate(-196.48 -67.05)"/><path class="cls-5" d="M426.93,169.36l39.5-22.92a1.9,1.9,0,0,0,.34-.2h0a3.43,3.43,0,0,0,1.07-2.82,8.93,8.93,0,0,0-1-3.89l-45,26Z" transform="translate(-196.48 -67.05)"/><path class="cls-3" d="M424.41,169.26l-33.57-19.39c-2-1.16-3.65-4.28-3.65-7h0c0-2.68,1.63-3.92,3.65-2.76l33.57,19.39c2,1.16,3.65,4.28,3.65,7h0C428.06,169.19,426.42,170.42,424.41,169.26Z" transform="translate(-196.48 -67.05)"/><path class="cls-6" d="M424.81,159.34,391.24,140a2.31,2.31,0,0,0-2.41-.17,2.6,2.6,0,0,1,2,.35l33.57,19.39c2,1.16,3.65,4.28,3.65,7h0a3.25,3.25,0,0,1-1.24,2.93c1-.3,1.64-1.42,1.64-3.11h0C428.46,163.63,426.83,160.51,424.81,159.34Z" transform="translate(-196.48 -67.05)"/><path class="cls-6" d="M419.38,162.72l-4-2.33a1.73,1.73,0,0,1-.72-1.39h0c0-.53.32-.78.72-.55l4,2.33a1.75,1.75,0,0,1,.73,1.39h0C420.11,162.71,419.78,163,419.38,162.72Z" transform="translate(-196.48 -67.05)"/><path class="cls-3" d="M423.93,135.16a1.35,1.35,0,0,0,0-2.56,4.92,4.92,0,0,0-4.44.05c-1.22.72-1.21,1.86,0,2.56A4.9,4.9,0,0,0,423.93,135.16Z" transform="translate(-196.48 -67.05)"/><path class="cls-6" d="M430.69,139a1.35,1.35,0,0,0,0-2.56,4.89,4.89,0,0,0-4.44.05c-1.22.72-1.21,1.86,0,2.56A4.9,4.9,0,0,0,430.69,139Z" transform="translate(-196.48 -67.05)"/><path class="cls-6" d="M437.45,142.78a1.35,1.35,0,0,0,0-2.56,4.86,4.86,0,0,0-4.44.05c-1.22.72-1.21,1.86,0,2.56A4.9,4.9,0,0,0,437.45,142.78Z" transform="translate(-196.48 -67.05)"/><path class="cls-11" d="M380.71,343.51,486,282.68c2.55-1.47,2.23-4.05-.72-5.75h0c-3-1.7-7.41-1.89-10-.41L370,337.35c-2.55,1.47-2.23,4,.71,5.75h0C373.7,344.8,378.16,345,380.71,343.51Z" transform="translate(-196.48 -67.05)"/><path class="cls-1" d="M494.61,261.88h0a.4.4,0,0,0-.43-.19l-5.61,1.16,2.17,3.77,3.82-4.26A.41.41,0,0,0,494.61,261.88Z" transform="translate(-196.48 -67.05)"/><path class="cls-3" d="M492.38,264.63a2.82,2.82,0,0,0-1.27-2.2.92.92,0,0,0-.83-.11,35.72,35.72,0,0,0-18.45,4.74l-.4.24,6.83,11.89,2.06-1.34a35.84,35.84,0,0,0,10.84-11l.89-1.42A.91.91,0,0,0,492.38,264.63Z" transform="translate(-196.48 -67.05)"/><path class="cls-1" d="M479.68,276.05a10.71,10.71,0,0,0-4.83-8.41c-2.67-1.55-4.84-.3-4.85,2.79a10.72,10.72,0,0,0,4.83,8.41C477.51,280.39,479.68,279.14,479.68,276.05Z" transform="translate(-196.48 -67.05)"/><polygon class="cls-1" points="240.29 237.41 281.78 212.13 274.95 200.24 232.22 223.37 240.29 237.41"/><path class="cls-1" d="M438.45,300.76a12.64,12.64,0,0,0-5.7-9.93c-3.16-1.83-5.73-.36-5.74,3.29a12.67,12.67,0,0,0,5.71,9.94C435.88,305.89,438.45,304.42,438.45,300.76Z" transform="translate(-196.48 -67.05)"/><path class="cls-1" d="M436.09,302.12a12.65,12.65,0,0,0-5.71-9.93c-3.16-1.83-5.73-.36-5.73,3.29a12.66,12.66,0,0,0,5.7,9.94C433.51,307.25,436.08,305.78,436.09,302.12Z" transform="translate(-196.48 -67.05)"/><rect class="cls-1" x="371.29" y="306.47" width="63.28" height="16.2" transform="translate(-299.63 175.5) rotate(-29.88)"/><path class="cls-1" d="M381.22,333.65a12.68,12.68,0,0,0-5.71-9.93c-3.16-1.84-5.73-.36-5.74,3.29a12.68,12.68,0,0,0,5.71,9.93C378.64,338.78,381.21,337.3,381.22,333.65Z" transform="translate(-196.48 -67.05)"/><path class="cls-2" d="M379.17,332.46a8.35,8.35,0,0,0-3.86-6c-2-1.17-3.59-.38-3.49,1.78a8.41,8.41,0,0,0,3.86,6C377.71,335.41,379.27,334.62,379.17,332.46Z" transform="translate(-196.48 -67.05)"/><path class="cls-6" d="M438.87,300.52a12.65,12.65,0,0,0-5.71-9.93,4.46,4.46,0,0,0-3.39-.67c1-1.07,2.73-1.18,4.65-.07a12.66,12.66,0,0,1,5.7,9.94c0,2.18-.92,3.57-2.33,4A4.54,4.54,0,0,0,438.87,300.52Z" transform="translate(-196.48 -67.05)"/><path class="cls-3" d="M438.87,300.52a12.65,12.65,0,0,0-5.71-9.93c-1.58-.92-3-1-4.05-.41L426,292l1.44,2.52a12.94,12.94,0,0,0,5.18,9l1.45,2.52,3.11-1.78h0A4,4,0,0,0,438.87,300.52Z" transform="translate(-196.48 -67.05)"/><path class="cls-1" d="M435.76,302.31a12.65,12.65,0,0,0-5.71-9.93c-3.15-1.84-5.72-.36-5.73,3.29A12.65,12.65,0,0,0,430,305.6C433.19,307.44,435.75,306,435.76,302.31Z" transform="translate(-196.48 -67.05)"/><path class="cls-9" d="M376.59,334.06,373.1,328l-11.63,6.68a3.5,3.5,0,0,0-1.29,4.77h0a3.51,3.51,0,0,0,4.78,1.29Z" transform="translate(-196.48 -67.05)"/><path class="cls-9" d="M377.31,332.46a5.45,5.45,0,0,0-2.46-4.29c-1.36-.79-2.47-.15-2.47,1.43a5.45,5.45,0,0,0,2.46,4.28C376.2,334.67,377.31,334,377.31,332.46Z" transform="translate(-196.48 -67.05)"/><path class="cls-3" d="M390.37,311.32l-1.72-1a3.71,3.71,0,0,0-3.71.36l-6,3.44a4.51,4.51,0,0,0-2,3.53v3a2.44,2.44,0,0,1-.61,1.49l.21,1.38-1.47-.87h0a.77.77,0,0,1-.35-.73v-3a9.43,9.43,0,0,1,4.28-7.37l6-3.44c2-1.14,3.88-1.32,5.28-.51l1.73,1a3.66,3.66,0,0,0,3.71-.36l24.09-13.84a.79.79,0,0,1,.8-.07h0l1.47.86-1.27.48a2.41,2.41,0,0,1-1,1.29L395.66,310.8C393.66,312,391.78,312.13,390.37,311.32Z" transform="translate(-196.48 -67.05)"/><path class="cls-3" d="M390.14,311.19a3.66,3.66,0,0,0-3.71.36l-6,3.43a4.58,4.58,0,0,0-2.05,3.54v3a2.43,2.43,0,0,1-1.12,1.92c-.61.35-1.1.06-1.1-.64v-3a9.45,9.45,0,0,1,4.28-7.37l6-3.43c2-1.15,3.87-1.33,5.28-.51l1.72,1a3.71,3.71,0,0,0,3.71-.36l24.09-13.85c.62-.35,1.11-.06,1.11.65a2.44,2.44,0,0,1-1.11,1.91l-24.09,13.85c-2,1.14-3.87,1.33-5.28.51Z" transform="translate(-196.48 -67.05)"/><path class="cls-6" d="M378.32,319v3s0,0,0,.06a2.11,2.11,0,0,0,.09-.55v-3c0-.09,0-.18,0-.26A4,4,0,0,0,378.32,319Z" transform="translate(-196.48 -67.05)"/><path class="cls-11" d="M367,348.38l11-6.36c1.33-.77,1.16-2.11-.37-3h0a5.75,5.75,0,0,0-5.19-.22l-11,6.36c-1.33.77-1.16,2.11.37,3h0A5.73,5.73,0,0,0,367,348.38Z" transform="translate(-196.48 -67.05)"/><polygon class="cls-11" points="54.01 264.97 40.25 257.03 54.01 249.08 67.77 257.03 54.01 264.97"/><polygon class="cls-8" points="67.77 248.01 54.01 255.96 54.01 240.07 67.77 232.12 67.77 248.01"/><polygon class="cls-9" points="54.01 240.07 40.25 232.12 54.01 224.18 67.77 232.12 54.01 240.07"/><polygon class="cls-9" points="54.01 255.96 40.25 248.01 40.25 232.12 54.01 240.07 54.01 255.96"/><polygon class="cls-11" points="15.33 168.71 0 159.86 15.33 151.01 30.66 159.86 15.33 168.71"/><polygon class="cls-5" points="30.66 149.82 15.33 158.67 15.33 140.97 30.66 132.12 30.66 149.82"/><polygon class="cls-1" points="15.33 140.97 0 132.12 15.33 123.27 30.66 132.12 15.33 140.97"/><polygon class="cls-3" points="15.33 158.67 0 149.82 0 132.12 15.33 140.97 15.33 158.67"/><path class="cls-11" d="M526,205.81l-30.7-17.72c-1.89-1.09-1.65-3,.52-4.25l29.65-17.11a8.15,8.15,0,0,1,7.35-.31l30.7,17.73c1.89,1.09,1.65,3-.53,4.24l-29.64,17.12C531.2,206.76,527.91,206.9,526,205.81Z" transform="translate(-196.48 -67.05)"/><path class="cls-2" d="M564.82,175.58h0V165H541.06l-8.21-4.74a8.15,8.15,0,0,0-7.35.31L517.84,165H494.06v10.89a2.13,2.13,0,0,0,1.27,2L526,195.54a8.18,8.18,0,0,0,7.35-.31L563,178.11A2.91,2.91,0,0,0,564.82,175.58Z" transform="translate(-196.48 -67.05)"/><path class="cls-2" d="M529.44,159.5a8.47,8.47,0,0,0-3.94,1L517.84,165H494.06v10.89a2.13,2.13,0,0,0,1.27,2L526,195.54a6.58,6.58,0,0,0,3.41.72Z" transform="translate(-196.48 -67.05)"/><path class="cls-3" d="M496.76,165h-2.7v10.89a2.13,2.13,0,0,0,1.27,2l1.43.82Z" transform="translate(-196.48 -67.05)"/><path class="cls-3" d="M526.5,195.77a8.45,8.45,0,0,0,5.88-.07V183.33H526.5Z" transform="translate(-196.48 -67.05)"/><path class="cls-1" d="M526,184.68,495.33,167c-1.89-1.08-1.65-3,.52-4.24l29.65-17.12c2.18-1.25,5.47-1.39,7.35-.3L563.55,163c1.89,1.08,1.65,3-.53,4.24l-29.64,17.12C531.2,185.63,527.91,185.77,526,184.68Z" transform="translate(-196.48 -67.05)"/><path class="cls-6" d="M563,165.17l-29.64,17.12a8.18,8.18,0,0,1-7.35.31l-30.7-17.73a2.87,2.87,0,0,1-.94-.83c-.65,1-.36,2.17.94,2.91L526,184.68c1.88,1.09,5.17.95,7.35-.3L563,167.26c1.7-1,2.21-2.34,1.47-3.41A4,4,0,0,1,563,165.17Z" transform="translate(-196.48 -67.05)"/><path class="cls-1" d="M553.52,178.37a2.72,2.72,0,0,1-1.24,2.15c-.68.4-1.24.08-1.24-.71a2.74,2.74,0,0,1,1.24-2.15C553,177.26,553.52,177.58,553.52,178.37Z" transform="translate(-196.48 -67.05)"/><path class="cls-1" d="M557.51,176.07a2.74,2.74,0,0,1-1.24,2.15c-.68.39-1.24.07-1.24-.72a2.77,2.77,0,0,1,1.24-2.15C557,175,557.51,175.28,557.51,176.07Z" transform="translate(-196.48 -67.05)"/><path class="cls-1" d="M561.5,173.77a2.71,2.71,0,0,1-1.24,2.14c-.68.4-1.24.08-1.24-.71a2.77,2.77,0,0,1,1.24-2.15C561,172.66,561.5,173,561.5,173.77Z" transform="translate(-196.48 -67.05)"/><path class="cls-3" d="M527.84,173.69l-14.36-8.29c-.88-.51-.77-1.4.24-2l13.88-8a3.81,3.81,0,0,1,3.44-.14l14.36,8.29c.89.51.77,1.4-.24,2l-13.88,8A3.81,3.81,0,0,1,527.84,173.69Z" transform="translate(-196.48 -67.05)"/><path class="cls-1" d="M529.22,166.75l-2-1.15c-.12-.07-.1-.2,0-.28l1.92-1.11a.52.52,0,0,1,.47,0l2,1.15c.12.07.11.2,0,.28l-1.91,1.11A.54.54,0,0,1,529.22,166.75Z" transform="translate(-196.48 -67.05)"/><path class="cls-2" d="M513.48,165.4l0,0,.2-.14,13.88-8a3.81,3.81,0,0,1,3.44-.14l14.32,8.27c.82-.59.86-1.38,0-1.85L531,155.26a3.81,3.81,0,0,0-3.44.14l-13.88,8C512.71,164,512.6,164.89,513.48,165.4Z" transform="translate(-196.48 -67.05)"/></svg>