<svg id="Ñëîé_1" data-name="Ñëîé 1" xmlns="http://www.w3.org/2000/svg" viewBox="0 0 219.48 305.21"><defs><style>.cls-1{fill:#efefef;}.cls-2{fill:#5793ce;}.cls-3{fill:#173d7a;}.cls-4{fill:#d4ecff;}.cls-5,.cls-8{fill:#fff;}.cls-6{fill:#e9f6ff;}.cls-7{fill:#aedeed;}.cls-8{opacity:0.4;}.cls-9{fill:#b2d3ea;}.cls-10{fill:#396caa;}.cls-11{fill:#ff2c9c;}.cls-12{fill:#ffc2b0;}.cls-13{fill:#ea9c92;}.cls-14{fill:#d3008d;}</style></defs><path class="cls-1" d="M230.57,310.25l-82.25-47.49c-2.86-1.65-2.5-4.54.8-6.44h0c3.31-1.91,8.3-2.12,11.16-.47l82.25,47.49c2.86,1.65,2.5,4.54-.8,6.44h0C238.43,311.69,233.43,311.9,230.57,310.25Z" transform="translate(-37.26 -6.15)"/><path class="cls-2" d="M245.47,58.67,156.84,7.49c-2.91-1.68-5.55-1.72-7.55-.46V7l-11.12,6.44,7.46,1.4c0,.38-.05.76-.05,1.16V225c0,8.3,5.05,17.94,11.27,21.54L244.22,297c-.79,2.5-2.49,7.75-2.49,7.75l10.88-6.31h0c2.53-1.3,4.14-4.55,4.14-9.24V80.2C256.74,71.91,251.69,62.27,245.47,58.67Z" transform="translate(-37.26 -6.15)"/><path class="cls-3" d="M145.57,225c0,8.3,5.05,17.94,11.27,21.54L244.22,297c-.79,2.5-2.49,7.75-2.49,7.75l10.88-6.31h0c2.53-1.3,4.14-4.55,4.14-9.24V80.2a28,28,0,0,0-3.58-13L145.57,129.29Z" transform="translate(-37.26 -6.15)"/><path class="cls-4" d="M234.29,304.23l-88.63-51.18c-6.22-3.59-11.27-13.23-11.27-21.53v-209c0-8.3,5.05-12.11,11.27-8.52l88.63,51.18c6.22,3.59,11.27,13.23,11.27,21.53v209C245.56,304,240.51,307.82,234.29,304.23Z" transform="translate(-37.26 -6.15)"/><path class="cls-5" d="M235.44,64.41,146.82,13.23c-3.21-1.85-6.1-1.72-8.15,0,1.92-.92,4.35-.75,7,.78l88.63,51.18c6.22,3.59,11.27,13.23,11.27,21.53v209c0,4-1.19,7-3.12,8.56,2.6-1.25,4.27-4.53,4.27-9.3v-209C246.71,77.64,241.67,68,235.44,64.41Z" transform="translate(-37.26 -6.15)"/><path class="cls-5" d="M232.64,297.31l-85.16-49.18c-4.63-2.67-8.38-9.83-8.38-16V26.07c0-6.17,3.75-9,8.38-6.33l85.16,49.17c4.62,2.67,8.37,9.84,8.37,16V291C241,297.15,237.26,300,232.64,297.31Z" transform="translate(-37.26 -6.15)"/><path class="cls-2" d="M233.34,297l-85.16-49.17c-4.63-2.68-8.38-9.84-8.38-16V25.78c0-3.46,1.19-5.87,3-6.85-2.25.7-3.74,3.26-3.74,7.14V232.13c0,6.17,3.75,13.33,8.38,16l85.16,49.18c2,1.17,3.89,1.28,5.34.52A5.83,5.83,0,0,1,233.34,297Z" transform="translate(-37.26 -6.15)"/><path class="cls-1" d="M197.8,234,156,209.89V108.28l19.7,11.37a44.19,44.19,0,0,1,22.1,38.28Z" transform="translate(-37.26 -6.15)"/><path class="cls-4" d="M141.06,98.45h0c-4.22-2.51-10.08-2.2-16.55,1.54-12.82,7.4-23.25,25.46-23.25,40.26v10.68h0l.44.26,41.88,24.63.63-12.78.53-5,2.22-7.71.25-1.18L152,139.6l3.75-4.69,3-3.62,7.41-5.84.65-.48,3.65-1.57,4.89-1.27h3.82l4.28.75Z" transform="translate(-37.26 -6.15)"/><path class="cls-4" d="M146.39,197.22l1.36-.79V147.78a10.2,10.2,0,0,0-1.36,3.44Z" transform="translate(-37.26 -6.15)"/><polygon class="cls-4" points="151.45 215.45 109.13 191.07 109.57 145 111.19 140.35 116.08 131.93 121.88 125.05 127.1 120.88 132.75 117.45 143 116.27 148.42 119.34 151.45 123.98 152.41 131.09 152.08 208.09 151.45 215.45"/><path class="cls-2" d="M141.06,98.45c-3.53-2.1-8.21-2.21-13.44,0l43.12,24.89,4.62-1.2h3.82l4.28.75-42.4-24.43Z" transform="translate(-37.26 -6.15)"/><path class="cls-6" d="M128.64,98a25.92,25.92,0,0,0-4.13,1.95,30.13,30.13,0,0,0-2.79,1.81l43,24.81,1.47-1.16.65-.48,3.65-1.57,1.45-.37Z" transform="translate(-37.26 -6.15)"/><path class="cls-5" d="M159.13,131l5.84-4.6-43-24.81a41.85,41.85,0,0,0-5.6,4.75Z" transform="translate(-37.26 -6.15)"/><path class="cls-2" d="M190.07,220.82l-1.36.78v-83c0-13.93-9.82-19.6-21.89-12.63s-21.88,24-21.88,37.91V175l-1.36.78V164.63c0-14.8,10.43-32.86,23.24-40.26s23.25-1.38,23.25,13.42Z" transform="translate(-37.26 -6.15)"/><polygon class="cls-7" points="76.84 126.16 74.46 135.89 75.65 151.63 72.63 149.85 68.76 141.3 72.14 130.49 76.84 126.16"/><path class="cls-8" d="M183.34,194.63a1.57,1.57,0,0,1-.8-.24l-30.77-17.76a3.79,3.79,0,0,1-1.62-3V149.37a1.72,1.72,0,0,1,.72-1.54,1.37,1.37,0,0,1,1.39.07L183,165.67a3.79,3.79,0,0,1,1.61,3.05v24.21a1.7,1.7,0,0,1-.72,1.54A1.21,1.21,0,0,1,183.34,194.63Zm-31.87-46a.19.19,0,0,0-.1,0c-.11.06-.23.27-.23.68v24.21a2.8,2.8,0,0,0,1.12,2.19L183,193.54c.08,0,.28.14.4.07s.22-.28.22-.68V168.72a2.77,2.77,0,0,0-1.12-2.19l-30.77-17.77A.7.7,0,0,0,151.47,148.66Z" transform="translate(-37.26 -6.15)"/><path class="cls-9" d="M161.32,177.61l-.21-.12a3.48,3.48,0,0,1-1.46-2.78V163.17c0-1.07.65-1.56,1.46-1.09l.21.12a3.47,3.47,0,0,1,1.46,2.78v11.53C162.78,177.58,162.13,178.08,161.32,177.61Z" transform="translate(-37.26 -6.15)"/><path class="cls-9" d="M167.51,181.19l-.21-.13a3.46,3.46,0,0,1-1.46-2.77v-6.76c0-1.07.65-1.56,1.46-1.1l.21.13a3.47,3.47,0,0,1,1.45,2.77v6.76C169,181.16,168.31,181.65,167.51,181.19Z" transform="translate(-37.26 -6.15)"/><path class="cls-10" d="M173.7,184.76l-.22-.13a3.47,3.47,0,0,1-1.45-2.77V165.78c0-1.07.65-1.56,1.45-1.09l.22.12a3.49,3.49,0,0,1,1.45,2.78v16.07C175.15,184.73,174.5,185.22,173.7,184.76Z" transform="translate(-37.26 -6.15)"/><ellipse class="cls-1" cx="31.28" cy="257.82" rx="21.93" ry="12.66"/><path class="cls-11" d="M57.77,131.07S58.26,141.16,59,148s17.1-5.21,17.1-5.21V135Z" transform="translate(-37.26 -6.15)"/><path class="cls-3" d="M66.47,256.65c.25.62,4.48,5.77,8.71,7.06a9.63,9.63,0,0,0,3.89.53,1.27,1.27,0,0,0,1-1.7,16,16,0,0,0-8.12-9C64.82,250,66.47,256.65,66.47,256.65Z" transform="translate(-37.26 -6.15)"/><path class="cls-3" d="M65.06,258.63a34.8,34.8,0,0,1,2.09,6.87c.3,1.91-.75,4.39-1.61,6a1.77,1.77,0,0,1-2.75.48,10.21,10.21,0,0,1-3.43-6.57c-.5-5.28,0-6.2,0-6.2Z" transform="translate(-37.26 -6.15)"/><path class="cls-4" d="M54.86,194.87a100.63,100.63,0,0,0,0,14c.56,7.36,2.53,41.79,2.9,50.07,0,0-.18,2.51,4.67,2s4.46-3.34,4.46-3.34,6.82-.09,7-4.11,7-48,7-63.79Z" transform="translate(-37.26 -6.15)"/><path class="cls-12" d="M83.43,160.46l3.34,5.17L98.25,179.5a2.59,2.59,0,0,1-1.82,1.62c-1.12.26-10.78-9-15-13a3.22,3.22,0,0,1-.44-4.07Z" transform="translate(-37.26 -6.15)"/><path class="cls-2" d="M76.91,139.22s5.31-.14,7.16,7.53,3.29,17.27,1.68,18.07c-4.82,2.39-7.87-.41-7.87-.41Z" transform="translate(-37.26 -6.15)"/><path class="cls-2" d="M78.5,139.55a4.32,4.32,0,0,0-2.86-.16c-4.52,1.3-21.52,6.29-24.32,8.68-3.23,2.77,4.85,18.31,4.74,23.41s-.69,11.1-1.14,16.64-1.06,8.58,3.47,10.93,12.27,2.47,18.06-2,4.74-7.43,4.5-10.63-2.22-17.06-2-21a14.94,14.94,0,0,0,3.56-4.08c1.51-2.58-1.16-7.32-2.27-10.4s.63-6.61.28-9.12A2.84,2.84,0,0,0,78.5,139.55Z" transform="translate(-37.26 -6.15)"/><path class="cls-5" d="M73.07,144.85c.36,2.8-2.21,5.43-5.74,5.88s-6.67-1.45-7-4.25,2.21-5.43,5.73-5.88S72.71,142.05,73.07,144.85Z" transform="translate(-37.26 -6.15)"/><path class="cls-12" d="M71.25,145.08c.25,2-1.58,3.89-4.1,4.21s-4.77-1-5-3,1.58-3.88,4.1-4.21S71,143.08,71.25,145.08Z" transform="translate(-37.26 -6.15)"/><path class="cls-12" d="M68.74,138.51s-3.07-2.52-3.67-1.24S64,144,64,144l6.09,1.64-.92-5.56S70.36,139.07,68.74,138.51Z" transform="translate(-37.26 -6.15)"/><path class="cls-12" d="M78.26,132.5a9.1,9.1,0,1,1-8.54-9.62A9.09,9.09,0,0,1,78.26,132.5Z" transform="translate(-37.26 -6.15)"/><path class="cls-13" d="M64.65,138.86c-.06.28-.11.59-.16.9.61,3.17,5.35,4.55,5.35,4.55l-.7-4.2s.57-.49.41-1C67.68,138.54,65.32,138,64.65,138.86Z" transform="translate(-37.26 -6.15)"/><path class="cls-12" d="M78.26,132.5a9.1,9.1,0,1,1-8.54-9.62A9.09,9.09,0,0,1,78.26,132.5Z" transform="translate(-37.26 -6.15)"/><polygon class="cls-12" points="9.51 164.32 10.53 188.66 14.09 189.03 16.4 167.12 9.51 164.32"/><path class="cls-10" d="M58.46,168.44c-.19-.85-1.75-1.55-2-2.65a98.47,98.47,0,0,1-1.52-14l-1,11.43c1.14,3.38,2.13,6.49,2.09,8.3-.07,3-.3,6.29-.56,9.63h0S59.64,173.63,58.46,168.44Z" transform="translate(-37.26 -6.15)"/><path class="cls-2" d="M52,147.57s-2.84,1.09-4.46,9.83-2.81,17.5.06,18.63,5.27,2,6.12-.37,1.36-13.6,1.47-17.65S55.45,148.37,52,147.57Z" transform="translate(-37.26 -6.15)"/><path class="cls-12" d="M97.4,178.48a7.67,7.67,0,0,1,2.65,1.78,17,17,0,0,1,1.82,2.44c.88,1.32,1.63,4.18,1.09,4.53s-3.63-4.78-4.13-3.59,0,2.31-.63,2.32-2.86-5.16-4.61-6.77S97.4,178.48,97.4,178.48Z" transform="translate(-37.26 -6.15)"/><path class="cls-10" d="M66.89,257.57a13.67,13.67,0,0,0,2-.2h0l1.34-53.52Z" transform="translate(-37.26 -6.15)"/><path class="cls-2" d="M61.74,228.66l-1.89-2.47L39.94,214.66a2.77,2.77,0,0,1-1.16-2.21l0-16.3-1.15-1.5,1.08-.62h0a.72.72,0,0,1,.78.05l22.57,13.06a2.77,2.77,0,0,1,1.15,2.21l0,17.76a1,1,0,0,1-.42.95h0Z" transform="translate(-37.26 -6.15)"/><path class="cls-2" d="M48,219.32l-1.41-.82L38.79,205v-8.86l-1.15-1.5,1.08-.62h0a.72.72,0,0,1,.78.05l22.57,13.06a2.36,2.36,0,0,1,.85,1Z" transform="translate(-37.26 -6.15)"/><path class="cls-2" d="M38.16,195.32l-.51-.67,1.08-.62h0a.72.72,0,0,1,.78.05l.4.23Z" transform="translate(-37.26 -6.15)"/><path class="cls-2" d="M62.28,207.29a2.88,2.88,0,0,1,.95,1.9L61,210.46,60,208.63Z" transform="translate(-37.26 -6.15)"/><path class="cls-4" d="M61,207.77,38.44,194.7c-.64-.37-1.16,0-1.16.87l0,17.76a2.79,2.79,0,0,0,1.15,2.21L61,228.61c.64.37,1.16,0,1.16-.88l0-17.75A2.74,2.74,0,0,0,61,207.77Z" transform="translate(-37.26 -6.15)"/><polygon class="cls-5" points="19.11 214.35 18.03 213.73 18.03 204.49 19.11 205.11 19.11 214.35"/><polygon class="cls-5" points="16.6 212.9 15.52 212.28 15.52 203.04 16.6 203.66 16.6 212.9"/><polygon class="cls-5" points="14.09 211.45 13.01 210.83 13.01 201.59 14.09 202.21 14.09 211.45"/><path class="cls-12" d="M47.82,194.61a55.32,55.32,0,0,0-.8,7.5c.14,1.82,1.11,4.82,1.85,4.76s0-7.32,1.32-6.59,1.44,2,2,1.52-1-6.64-.6-9.33S47.82,194.61,47.82,194.61Z" transform="translate(-37.26 -6.15)"/><path class="cls-13" d="M72.68,132.76c4.56,1.62,5.45.63,5.49.58a8,8,0,0,0,.09-.84,9.07,9.07,0,0,0-.3-2.91L66.12,128A12.89,12.89,0,0,0,72.68,132.76Z" transform="translate(-37.26 -6.15)"/><path class="cls-11" d="M78.59,123.44c-1.07-.92-5-5.48-11.91-4.41-4.34.68-8,3.64-8.82,10.4a15.56,15.56,0,0,0,4.21,12.36,3.23,3.23,0,0,0,.49-.25c1.74-1.14,1.93-1.77,1.93-1.78l.39-3.45a1,1,0,0,0-.87-1,1.73,1.73,0,0,1-1.28-.77c-1-1.31-.53-3.34,1.46-3.42a1.54,1.54,0,0,0,1.6-1.14.81.81,0,0,1,1.06-.55c2.28.82,7.88,2.59,11.48,1.57C82.94,129.74,79.67,124.36,78.59,123.44Z" transform="translate(-37.26 -6.15)"/><path class="cls-5" d="M73.41,136.87l2.78-.77a6.76,6.76,0,0,1-3.27,2.63c-1.94.53-2.24-1.11-2.24-1.11Z" transform="translate(-37.26 -6.15)"/><polygon class="cls-2" points="15.29 195.47 12.92 194.11 13.81 195.57 15.01 196.01 15.29 195.47"/><path class="cls-1" d="M105.42,304.29c10.34,6,27.1,6,37.44,0s10.34-15.65,0-21.62-27.1-6-37.44,0S95.08,298.32,105.42,304.29Z" transform="translate(-37.26 -6.15)"/><path class="cls-3" d="M107.92,285.38a5,5,0,0,0-2.85,5.05,8.77,8.77,0,0,0,.41,2.47c.59,1.23,2.51,2.92,5.58,1.71S121,287,121.21,282.8C121.68,275,112.78,283.3,107.92,285.38Z" transform="translate(-37.26 -6.15)"/><path class="cls-3" d="M126,298.26s-.74,4.49-.38,5.31,2.49,2.58,5.65,2.2,12.24-3.51,14.26-9.49C148.63,287,128,297,128,297Z" transform="translate(-37.26 -6.15)"/><path class="cls-4" d="M134.83,226.46l.71,70.11a4.91,4.91,0,0,1-3.82,4.86c-.27.05-.55.08-.86.11a4.36,4.36,0,0,1-4.16-1.72,5.1,5.1,0,0,1-.94-2.83l-.89-29.93L120.4,240.3l-6.18,47.36a4.12,4.12,0,0,1-1.7,3.12,4.75,4.75,0,0,1-2.82.76A5.19,5.19,0,0,1,106,289.7a3.8,3.8,0,0,1-.9-2.54l2.46-28.5.91-36.35Z" transform="translate(-37.26 -6.15)"/><path class="cls-12" d="M125.75,163.7l-1.1,6.39a2.91,2.91,0,0,0,2.39,2.78c2.43.61,3.18-1,3.18-1l1.1-7.2Z" transform="translate(-37.26 -6.15)"/><path class="cls-12" d="M139.17,160.2c-1.73,5.48-7.08,8.65-11.95,7.1s-7.41-7.25-5.68-12.73,7.07-8.65,11.94-7.09S140.9,154.73,139.17,160.2Z" transform="translate(-37.26 -6.15)"/><path class="cls-2" d="M126,170.21c-.17-.07-10.32-6.61-14.08.23-6.12,11.16-1.64,24-3.83,51.74-.36,4.65,6.26,7.48,9.39,9.27a18.7,18.7,0,0,0,9.11,2.59c3.18,0,9.26-2.79,9-6.94-1-19.09.67-35.18,2.23-50.79C137.9,176.31,136,174.22,126,170.21Z" transform="translate(-37.26 -6.15)"/><path class="cls-10" d="M120.4,240.3l-6.18,47.36a4.12,4.12,0,0,1-1.7,3.12c-.17.11-.34.2-.53.3,1.28-1,5-40.72,5.72-45.14S120.4,240.3,120.4,240.3Z" transform="translate(-37.26 -6.15)"/><polygon class="cls-12" points="121.72 169.84 130.22 152.96 127.56 151.27 118.74 164.13 121.72 169.84"/><polygon class="cls-12" points="65.63 151.91 69.76 133.09 73.06 133.13 71.82 148.74 65.63 151.91"/><path class="cls-2" d="M137.9,176.31s9.51,3.76,17.69-6.55a1.56,1.56,0,0,1,2.62.17c.74,1.69,1.66,4.24.54,6.64-4.94,10.6-21.79,10.23-25.85,16.17S137.9,176.31,137.9,176.31Z" transform="translate(-37.26 -6.15)"/><path class="cls-2" d="M119.6,167.86s-7.85.61-9-6.19a50,50,0,0,1-.79-6.8,1.38,1.38,0,0,0-1.54-1.33c-1.88.23-4.8.79-5.19,2.05-.59,1.89-1.7,11.12,6.06,25.28C114.24,190.15,119.6,167.86,119.6,167.86Z" transform="translate(-37.26 -6.15)"/><path class="cls-12" d="M107,139.29l.07-2.14a4.53,4.53,0,0,1,.64-2.15l2.18-3.57.57-.72a1.65,1.65,0,0,1,2.17-.37l.5.32a2,2,0,0,1,1,1.87L113,135.58l1.42-.27a.51.51,0,0,1,.6.4h0a.51.51,0,0,1-.31.56l-2.32.94-2.11,3Z" transform="translate(-37.26 -6.15)"/><path class="cls-12" d="M167.55,159.22l1-1.91a4.34,4.34,0,0,0,.5-2.18l-.12-4.18-.14-.9a1.67,1.67,0,0,0-1.71-1.4l-.59,0a2.07,2.07,0,0,0-1.76,1.15l-.53,3.21-1.1-.94a.51.51,0,0,0-.71.06h0a.5.5,0,0,0,0,.64l1.55,2,.41,4.09Z" transform="translate(-37.26 -6.15)"/><path class="cls-10" d="M131.7,190.62c-.83,3.77,4.15,32.2-1.39,42.6,2.77-1.12,5.51-3.32,5.36-6.12a258.22,258.22,0,0,1,.94-37.27c4.73-2.4,12.13-3.83,17.36-7.66C148.36,184.24,132.44,187.25,131.7,190.62Z" transform="translate(-37.26 -6.15)"/><path class="cls-5" d="M122.39,168.4,123.8,167s2.32,2.37,4.19,2.79a22.43,22.43,0,0,0,3.33.69l.91,2.5S124.84,172.4,122.39,168.4Z" transform="translate(-37.26 -6.15)"/><path class="cls-3" d="M132.54,160.37a1.19,1.19,0,0,0,1-.5c.39-.56.15-3.13,1.33-3.55,1.86-.66,6.27,1.66,6.74-5,.24-3.48-1.45-4.41-1.44-6.32,0,0,.14,1-8.82.37s-11.87,7.36-12.09,11.15,1.63,10,7.75,10.88c1,.14,5.28-3.29,5.17-3.74s-1.72-.43-1.49-1.74A1.69,1.69,0,0,1,132.54,160.37Z" transform="translate(-37.26 -6.15)"/><path class="cls-1" d="M187.49,257.83l-27.08-15.64a5.22,5.22,0,0,1-2.18-4.16V217.9c0-1.61,1-2.35,2.18-1.65l27.08,15.63a5.23,5.23,0,0,1,2.17,4.16v20.14C189.66,257.78,188.69,258.52,187.49,257.83Z" transform="translate(-37.26 -6.15)"/><path class="cls-3" d="M184.81,225.88l-27.08-15.63a1.38,1.38,0,0,0-1.4-.11v0l-2.62,1.52,1.84.67V232a5.24,5.24,0,0,0,2.18,4.17l25.88,14.94v2.31l2.65-1.53h0a2,2,0,0,0,.74-1.74V230.05A5.24,5.24,0,0,0,184.81,225.88Z" transform="translate(-37.26 -6.15)"/><path class="cls-2" d="M182.13,253.37l-27.08-15.63a5.23,5.23,0,0,1-2.17-4.17V213.44c0-1.6,1-2.34,2.17-1.65l27.08,15.64a5.18,5.18,0,0,1,2.18,4.16v20.13C184.31,253.33,183.34,254.06,182.13,253.37Z" transform="translate(-37.26 -6.15)"/><path class="cls-5" d="M182.13,227.43l-27.08-15.64a1.28,1.28,0,0,0-1.68.12,1.59,1.59,0,0,1,1,.24l27.08,15.63a5.24,5.24,0,0,1,2.18,4.17v20.13a2.16,2.16,0,0,1-.5,1.53c.72-.06,1.22-.75,1.22-1.89V231.59A5.18,5.18,0,0,0,182.13,227.43Z" transform="translate(-37.26 -6.15)"/><path class="cls-5" d="M164.16,230.8c0,1.16-.82,1.64-1.83,1a4,4,0,0,1-1.82-3.16c0-1.17.81-1.64,1.82-1.06A4.05,4.05,0,0,1,164.16,230.8Z" transform="translate(-37.26 -6.15)"/><path class="cls-5" d="M169.7,234c0,1.17-.82,1.64-1.83,1.06a4,4,0,0,1-1.83-3.17c0-1.16.82-1.63,1.83-1A4,4,0,0,1,169.7,234Z" transform="translate(-37.26 -6.15)"/><path class="cls-5" d="M175.23,237.19c0,1.16-.82,1.64-1.83,1.05a4,4,0,0,1-1.82-3.16c0-1.17.81-1.64,1.82-1.05A4,4,0,0,1,175.23,237.19Z" transform="translate(-37.26 -6.15)"/><path class="cls-1" d="M232.4,283.75l-27.08-15.63a5.22,5.22,0,0,1-2.18-4.16V218.65c0-1.61,1-2.34,2.18-1.65l27.08,15.63a5.23,5.23,0,0,1,2.17,4.17v45.31C234.57,283.71,233.6,284.45,232.4,283.75Z" transform="translate(-37.26 -6.15)"/><path class="cls-14" d="M229.72,226.64,202.64,211a1.38,1.38,0,0,0-1.4-.11v0l-2.63,1.52s1.17.42,1.85.68V258a5.21,5.21,0,0,0,2.18,4.16l25.88,14.95v2.31l2.65-1.53h0a1.94,1.94,0,0,0,.73-1.74V230.8A5.2,5.2,0,0,0,229.72,226.64Z" transform="translate(-37.26 -6.15)"/><path class="cls-11" d="M227,279.3,200,263.67a5.23,5.23,0,0,1-2.17-4.17V214.19c0-1.6,1-2.34,2.17-1.65L227,228.18a5.22,5.22,0,0,1,2.18,4.16v45.31C229.22,279.26,228.24,280,227,279.3Z" transform="translate(-37.26 -6.15)"/><path class="cls-5" d="M227,228.18,200,212.54a1.28,1.28,0,0,0-1.68.12,1.59,1.59,0,0,1,1,.24l27.08,15.64a5.21,5.21,0,0,1,2.18,4.16V278a2.16,2.16,0,0,1-.5,1.53c.72-.06,1.22-.75,1.22-1.89V232.34A5.22,5.22,0,0,0,227,228.18Z" transform="translate(-37.26 -6.15)"/><path class="cls-5" d="M217.45,234.32c0,2.52-1.77,3.54-3.95,2.28a8.73,8.73,0,0,1-3.95-6.84c0-2.52,1.77-3.54,3.95-2.28A8.73,8.73,0,0,1,217.45,234.32Z" transform="translate(-37.26 -6.15)"/><path class="cls-5" d="M219.1,241.44a.5.5,0,0,0,0-.12c-.17-1.06-1.17-2-1.83-1.75a4.55,4.55,0,0,1-3.75-.64,11.63,11.63,0,0,1-3.74-3.69c-.66-1-1.67-1.23-1.84-.36,0,0,0,.06,0,.1L206,246.87,221,255.5Z" transform="translate(-37.26 -6.15)"/><polygon class="cls-5" points="184.77 258.4 166.63 247.93 166.63 246.62 184.77 257.09 184.77 258.4"/><polygon class="cls-5" points="179.29 260.95 166.63 253.64 166.63 252.33 179.29 259.64 179.29 260.95"/><polygon class="cls-5" points="177.59 257.11 166.63 250.78 166.63 249.48 177.59 255.8 177.59 257.11"/><polygon class="cls-5" points="184.77 261.26 179.29 258.1 179.29 256.79 184.77 259.95 184.77 261.26"/><path class="cls-1" d="M232.4,219.67,205.32,204a5.22,5.22,0,0,1-2.18-4.16V154.56c0-1.61,1-2.34,2.18-1.65l27.08,15.63a5.23,5.23,0,0,1,2.17,4.17V218C234.57,219.62,233.6,220.36,232.4,219.67Z" transform="translate(-37.26 -6.15)"/><path class="cls-2" d="M229.72,162.55l-27.08-15.64a1.41,1.41,0,0,0-1.4-.11v0l-2.63,1.52,1.85.68v44.89a5.24,5.24,0,0,0,2.18,4.17L228.52,213v2.31l2.65-1.53h0a1.93,1.93,0,0,0,.73-1.74V166.71A5.21,5.21,0,0,0,229.72,162.55Z" transform="translate(-37.26 -6.15)"/><path class="cls-4" d="M227,215.21,200,199.58a5.23,5.23,0,0,1-2.17-4.17V150.1c0-1.6,1-2.34,2.17-1.64L227,164.09a5.22,5.22,0,0,1,2.18,4.16v45.31C229.22,215.17,228.24,215.91,227,215.21Z" transform="translate(-37.26 -6.15)"/><path class="cls-5" d="M227,164.09,200,148.46a1.27,1.27,0,0,0-1.68.11,1.59,1.59,0,0,1,1,.24l27.08,15.64a5.22,5.22,0,0,1,2.18,4.16v45.31a2.2,2.2,0,0,1-.5,1.54c.72-.06,1.22-.75,1.22-1.9V168.25A5.22,5.22,0,0,0,227,164.09Z" transform="translate(-37.26 -6.15)"/><polygon class="cls-2" points="184.81 168.17 166.67 157.7 166.67 156.39 184.81 166.86 184.81 168.17"/><polygon class="cls-2" points="179.34 170.72 166.67 163.41 166.67 162.1 179.34 169.41 179.34 170.72"/><polygon class="cls-2" points="177.63 166.88 166.67 160.55 166.67 159.25 177.63 165.57 177.63 166.88"/><polygon class="cls-2" points="184.81 171.03 179.34 167.86 179.34 166.56 184.81 169.72 184.81 171.03"/><polygon class="cls-2" points="184.81 179.2 166.67 168.73 166.67 167.42 184.81 177.89 184.81 179.2"/><polygon class="cls-2" points="179.34 181.75 166.67 174.44 166.67 173.13 179.34 180.44 179.34 181.75"/><polygon class="cls-2" points="177.63 177.91 166.67 171.59 166.67 170.28 177.63 176.6 177.63 177.91"/><polygon class="cls-2" points="184.81 182.06 179.34 178.9 179.34 177.59 184.81 180.75 184.81 182.06"/><polygon class="cls-2" points="184.81 190.23 166.67 179.76 166.67 178.45 184.81 188.93 184.81 190.23"/><polygon class="cls-2" points="179.34 192.78 166.67 185.47 166.67 184.17 179.34 191.48 179.34 192.78"/><polygon class="cls-2" points="177.63 188.94 166.67 182.62 166.67 181.31 177.63 187.63 177.63 188.94"/><polygon class="cls-2" points="184.81 193.09 179.34 189.93 179.34 188.62 184.81 191.78 184.81 193.09"/><polygon class="cls-5" points="127.65 187.23 114.71 179.76 114.71 178.55 127.65 186.02 127.65 187.23"/><polygon class="cls-5" points="135.67 191.86 130.15 188.67 130.15 187.46 135.67 190.65 135.67 191.86"/><polygon class="cls-5" points="128.1 190.12 122.57 186.93 122.57 185.72 128.1 188.91 128.1 190.12"/><polygon class="cls-5" points="140.06 197.03 130.15 191.3 130.15 190.09 140.06 195.82 140.06 197.03"/><polygon class="cls-5" points="146.85 203.58 132.18 195.11 132.18 193.9 146.85 202.37 146.85 203.58"/><polygon class="cls-5" points="143.57 196.43 138.05 193.24 138.05 192.03 143.57 195.22 143.57 196.43"/><polygon class="cls-5" points="120.24 185.58 114.71 182.39 114.71 181.18 120.24 184.37 120.24 185.58"/><polygon class="cls-5" points="129.81 193.74 114.68 185 114.68 183.8 129.81 192.53 129.81 193.74"/><polygon class="cls-5" points="123.99 193.01 114.86 187.74 114.86 186.53 123.99 191.8 123.99 193.01"/><path class="cls-1" d="M228.91,136.13,158.1,95.25c-4.58-2.65-8.3-9.75-8.3-15.87h0c0-6.11,3.72-8.92,8.3-6.27L228.91,114c4.58,2.65,8.3,9.75,8.3,15.86h0C237.21,136,233.49,138.77,228.91,136.13Z" transform="translate(-37.26 -6.15)"/><path class="cls-14" d="M235.47,125.83c0-6.11-3.72-13.21-8.3-15.86L156.36,69.09c-2.14-1.23-4.07-1.27-5.55-.36v0l-3.49,2,1.61.18a10.28,10.28,0,0,0-.88,4.44h0c0,6.11,3.71,13.21,8.3,15.86l70.81,40.88a7.17,7.17,0,0,0,2.56.94l-.43,1.41,3.44-2h0C234.4,131.41,235.47,129.1,235.47,125.83Z" transform="translate(-37.26 -6.15)"/><path class="cls-11" d="M223.78,134.08,153,93.2c-4.59-2.65-8.3-9.75-8.3-15.86h0c0-6.11,3.71-8.92,8.3-6.28l70.81,40.88c4.58,2.65,8.3,9.75,8.3,15.87h0C232.08,133.92,228.36,136.73,223.78,134.08Z" transform="translate(-37.26 -6.15)"/><path class="cls-5" d="M224.48,111.49,153.67,70.61c-2.33-1.35-4.44-1.28-5.94-.08,1.43-.73,3.25-.61,5.24.53l70.81,40.88c4.58,2.65,8.3,9.75,8.3,15.87,0,3-.9,5.2-2.36,6.35,1.87-.95,3.06-3.35,3.06-6.81C232.78,121.24,229.07,114.13,224.48,111.49Z" transform="translate(-37.26 -6.15)"/><path class="cls-1" d="M202.32,87.08l-43.87-25.3c-4.58-2.65-8.3-9.75-8.3-15.86h0c0-6.12,3.72-8.93,8.3-6.28l43.87,25.3c4.59,2.65,8.31,9.75,8.31,15.86h0C210.63,86.92,206.91,89.73,202.32,87.08Z" transform="translate(-37.26 -6.15)"/><path class="cls-2" d="M208.53,76.76c0-6.11-3.72-13.21-8.3-15.86L156.36,35.6c-2.14-1.23-4.07-1.27-5.55-.35v0l-3.49,2,1.61.18a10.28,10.28,0,0,0-.88,4.44h0c0,6.11,3.71,13.21,8.3,15.86L200.23,83a7.28,7.28,0,0,0,2.57.94l-.43,1.41,3.44-2h0C207.46,82.34,208.53,80,208.53,76.76Z" transform="translate(-37.26 -6.15)"/><path class="cls-4" d="M196.84,85,153,59.71c-4.59-2.64-8.3-9.75-8.3-15.86h0c0-6.11,3.71-8.92,8.3-6.28l43.87,25.31c4.58,2.64,8.3,9.74,8.3,15.86h0C205.14,84.85,201.42,87.66,196.84,85Z" transform="translate(-37.26 -6.15)"/><path class="cls-5" d="M197.54,62.42l-43.87-25.3c-2.33-1.35-4.44-1.28-5.94-.08,1.43-.73,3.25-.61,5.24.53l43.87,25.31c4.58,2.64,8.3,9.74,8.3,15.86,0,3-.9,5.2-2.35,6.35,1.86-1,3.06-3.35,3.06-6.81C205.85,72.17,202.13,65.06,197.54,62.42Z" transform="translate(-37.26 -6.15)"/><polygon class="cls-2" points="139.76 55.66 121.62 45.19 121.62 43.88 139.76 54.36 139.76 55.66"/><polygon class="cls-2" points="154.18 63.98 141.52 56.67 141.52 55.36 154.18 62.67 154.18 63.98"/><polygon class="cls-2" points="132.58 54.37 121.62 48.05 121.62 46.74 132.58 53.06 132.58 54.37"/><polygon class="cls-2" points="139.76 58.52 134.29 55.36 134.29 54.05 139.76 57.21 139.76 58.52"/><polygon class="cls-5" points="182.41 114.22 164.27 103.75 164.27 102.44 182.41 112.92 182.41 114.22"/><polygon class="cls-5" points="162.58 102.77 149.91 95.46 149.91 94.16 162.58 101.47 162.58 102.77"/><polygon class="cls-5" points="175.22 112.93 164.27 106.61 164.27 105.3 175.22 111.62 175.22 112.93"/><polygon class="cls-5" points="182.41 117.08 176.93 113.92 176.93 112.61 182.41 115.77 182.41 117.08"/><polygon class="cls-5" points="162.58 105.61 157.1 102.45 157.1 101.14 162.58 104.3 162.58 105.61"/><polygon class="cls-2" points="75.16 118.47 72.37 116.86 72.83 116.02 75.62 117.63 75.16 118.47"/><path class="cls-2" d="M107.17,121.59l.46-.84-1.06-.61c-.15.28-.27.58-.41.87Z" transform="translate(-37.26 -6.15)"/><polygon class="cls-2" points="80.41 121.5 77.62 119.89 78.08 119.05 80.87 120.66 80.41 121.5"/><polygon class="cls-2" points="85.66 124.54 82.87 122.92 83.33 122.08 86.13 123.69 85.66 124.54"/><polygon class="cls-2" points="90.92 127.57 88.13 125.96 88.59 125.11 91.38 126.73 90.92 127.57"/><polygon class="cls-2" points="96.17 130.6 93.38 128.99 93.84 128.15 96.63 129.76 96.17 130.6"/><polygon class="cls-2" points="101.42 133.63 98.63 132.02 99.09 131.18 101.88 132.79 101.42 133.63"/><polygon class="cls-2" points="106.67 136.66 103.88 135.05 104.34 134.21 107.13 135.82 106.67 136.66"/><polygon class="cls-2" points="111.92 139.7 109.13 138.09 109.59 137.24 112.39 138.85 111.92 139.7"/><polygon class="cls-2" points="125.59 125.64 122.75 124 123.33 123.21 125.59 124.51 125.59 125.64"/><polygon class="cls-2" points="130.93 128.73 128.09 127.09 128.09 125.96 130.93 127.6 130.93 128.73"/><polygon class="cls-2" points="136.27 131.81 133.43 130.17 133.43 129.04 136.27 130.68 136.27 131.81"/><polygon class="cls-2" points="141.61 134.89 138.78 133.25 138.78 132.13 141.61 133.77 141.61 134.89"/><polygon class="cls-2" points="146.96 137.98 144.12 136.34 144.12 135.21 146.96 136.85 146.96 137.98"/><polygon class="cls-2" points="152.3 141.06 149.46 139.42 149.46 138.3 152.3 139.94 152.3 141.06"/><polygon class="cls-5" points="148.24 94.5 138.02 88.61 138.02 87.3 148.24 93.19 148.24 94.5"/></svg>