<svg xmlns="http://www.w3.org/2000/svg" viewBox="0 0 925.7 673.13"><defs><style>.cls-1{opacity:0.5;}.cls-2{fill:#eed5d5;}.cls-3{fill:#babcbe;}.cls-4{fill:#292949;}.cls-5{fill:#3b3387;}.cls-6{fill:#a0675c;}.cls-7{fill:#353a85;}.cls-8{fill:#dddae8;}.cls-9{fill:#5d66d3;}.cls-10{fill:#ececec;}.cls-11{fill:#8cabef;}.cls-12{fill:#d67086;}.cls-13{opacity:0.36;}.cls-14{fill:#252526;}.cls-15{fill:#474ebb;}.cls-16{fill:#e1cfb5;}.cls-17{fill:#eac2a7;}.cls-18{fill:#f7f7f7;}.cls-19{fill:#fff;}.cls-20{fill:#323643;}</style></defs><g id="Shadow"><g class="cls-1"><path class="cls-2" d="M457,639c-27.11.1-54.22.91-81.28,4.64-10.2,1.4-20.19,4.49-30.42,5.74-20.43,2.49-40.49,7.14-61,9.28-16.51,1.73-33.08,2.75-49.54,4.94a141.38,141.38,0,0,1-47.83-1.82c-11.34-2.51-22.73-3.92-33.88-8-12.46-4.51-26-7.73-39-7.62-18.53.17-36.57.19-54.3,8.15-6.22,2.8-13.84,7.4-18.56,13.27-10.82,13.43-12.29,47-1.49,60.89,18.2,23.46,57,32.66,82.53,33.09,28,.48,55.1-2.09,83.08-3.6,26-1.4,51.95-3.4,78-3.33,53.2.14,106.41,0,159.52-4.4,49.89-4.14,99.91-2.72,149.91-2.72,51.28,0,102.21.5,153.12,8.94,22.18,3.68,44.77,5,67.06,7.54,20,2.31,39.15,0,59-2.18a120.25,120.25,0,0,0,48.45-16.08c12-7.1,33.42-29.18,37.1-46.15,10.32-47.56-145.49-46.41-169.41-46.31-26.76.12-53.73,1.21-80.48-.05-11.24-.53-22.33-3.25-33.31-6.24s-22-2.21-33-3.46c-46.24-5.21-92.59-4.45-139-4.45C487.21,639.14,472.1,639,457,639Z" transform="translate(-32.31 -91.88)"/></g></g><g id="Object"><polygon class="cls-3" points="818.85 431.51 821.34 489.27 814.04 587.49 803.11 588.26 789.84 499.06 771.48 423.57 818.85 431.51"/><polygon class="cls-4" points="803.5 592.87 815.74 597.93 821.22 591.61 814.9 586.12 803.08 586.96 803.5 592.87"/><polygon class="cls-3" points="741.52 411.07 739.12 454.73 746.23 584.55 757.17 585.1 773.56 499.95 788.02 406.57 741.52 411.07"/><polygon class="cls-4" points="756.88 589.71 744.75 595.03 739.13 588.82 745.34 583.2 757.17 583.79 756.88 589.71"/><path class="cls-5" d="M854,378l-33-9.3s-19.07-1.17-39.3,41.14c-11.25,23.54-20,62.15-25.55,91.77.08,4.38,1.55,23.72,21.61,23.88,34.44.27,53.21-2.12,67.35,3.06,12,4.81,13.83-12.49,14.68-25.8l1.89-41.27Z" transform="translate(-32.31 -91.88)"/><path class="cls-6" d="M854.61,335c-8.16-3.31-16.61-6.46-25.39-6.22-1.92.06-4,.36-5.3,1.8a7.38,7.38,0,0,0-1.14,1.91c-3.49,7.61-8.21,18.95-4.21,27.18a13.33,13.33,0,0,0,3.21,4.06,19,19,0,0,0,5.86,3.52,34.29,34.29,0,0,1-2.88,5.46c1.44,3.26,10.44,5.14,12.59,2.62.51-2.41,1-4.83,1.52-7.24a18.49,18.49,0,0,0,3.45-1.11,20.72,20.72,0,0,0,9.72-9.41c2.41-4.44,5.44-8.54,7.73-13.09.83-1.66,1.59-3.58.94-5.32s-2.71-2.79-4.54-3.53Z" transform="translate(-32.31 -91.88)"/><path class="cls-7" d="M825.61,334.75a26.91,26.91,0,0,1,15-1.13c11.77,2.88,14.65,12.38,13.44,23.44,4-3.61,11-7.82,12.32-13.13,1.05-4.34,1.45-10.44-.37-14.65-1.7-3.94-7.26-6.89-10.42-9.54l-8.92-7.5a5.09,5.09,0,0,0-4.86-1.48l-24.44,2.09c-1.57.13-3.37.41-4.17,1.76a5.09,5.09,0,0,0-.41,2.8c.2,4.2,1.2,8.63.93,12.8.07,2.47-.57,14.94,3.89,14.24,1.58-1.82,2.19-4.28,3.52-6.29A9.86,9.86,0,0,1,825.61,334.75Z" transform="translate(-32.31 -91.88)"/><polygon class="cls-5" points="788.67 276.79 775.59 278.47 722.1 318.37 716.74 333.59 732.39 373.13 740.48 360.98 735.77 332.92 752.11 325.12 779 284.61 788.67 276.79"/><polygon class="cls-5" points="814.08 287.76 841.45 266.69 847.47 198.03 858.39 195.29 860.58 266.34 853.45 282.75 821.46 314.13 814.08 287.76"/><polygon class="cls-6" points="856.05 195.88 857.1 189.68 851.56 179.02 845.93 182.55 847.71 191.49 845.2 194.04 847.47 198.03 856.05 195.88"/><rect class="cls-8" x="124.37" y="188.18" width="643.41" height="405.88"/><rect class="cls-4" x="124.37" y="156.54" width="643.41" height="24.35"/><rect class="cls-9" x="124.37" y="180.89" width="643.41" height="31.97"/><rect class="cls-10" x="190.99" y="192.62" width="547.18" height="13.65"/><path class="cls-11" d="M183.62,259.58a4.08,4.08,0,1,1-4.08-4A4,4,0,0,1,183.62,259.58Z" transform="translate(-32.31 -91.88)"/><path class="cls-8" d="M195.54,259.58a4.07,4.07,0,1,1-4.07-4A4,4,0,0,1,195.54,259.58Z" transform="translate(-32.31 -91.88)"/><path class="cls-12" d="M207.47,259.58a4.08,4.08,0,1,1-4.08-4A4,4,0,0,1,207.47,259.58Z" transform="translate(-32.31 -91.88)"/><g class="cls-13"><polygon class="cls-10" points="168.77 192.9 168.77 206 173.5 199.45 168.77 192.9"/><polygon class="cls-10" points="149.55 206 149.55 192.9 144.81 199.45 149.55 206"/></g><polygon class="cls-14" points="109.97 620.72 109.23 627.53 122.13 635.83 129.69 629.75 123.61 622.19 110.71 613.9 109.97 620.72"/><polygon class="cls-14" points="140.92 619.06 140.18 625.88 153.08 634.17 160.63 628.09 154.55 620.53 141.66 612.24 140.92 619.06"/><polygon class="cls-15" points="85.73 488.87 99.48 549.94 107.93 621.84 123.71 620.37 130.13 445.81 87.87 446.57 85.73 488.87"/><polygon class="cls-15" points="166.65 485.14 168.42 544.42 156.63 620.37 140.18 618.65 137.92 540.15 126.19 486.35 122.25 451.13 157.43 446.98 166.65 485.14"/><polygon class="cls-12" points="138.81 325.66 100.91 324.75 78.93 365.63 86.74 403.91 88.13 449.73 142.2 450.47 159.99 447.58 155.27 398.63 157.98 333.23 138.81 325.66"/><polygon class="cls-16" points="97.25 423.06 97.05 429.45 108.33 433.56 114.83 428.63 114.84 421.19 108.56 420.84 108.36 419.2 106.31 417.88 97.25 423.06"/><polygon class="cls-12" points="99.65 327.57 57.67 375.87 55.62 397.02 97.03 429.71 104.45 418.96 77.67 390.37 103.62 364.97 99.65 327.57"/><polygon class="cls-12" points="140.18 350.43 159.92 389.9 181.21 394.13 223.84 387.61 218.61 374.28 179.52 374.28 157.45 333.23 140.18 350.43"/><path class="cls-17" d="M168.75,385.78c-5.72-16.61-27.65-10.39-32.17,4.4-3,9.65,4.5,22.18,14.5,24.95,0,.38.08.73.08,1a32.94,32.94,0,0,0,.43,4.63c.08.57,8.83-1.11,9.81-1.3a1.31,1.31,0,0,0,.9-.45c.36-.55-.22-2.16-.28-2.77s-.15-1.45-.23-2.17c4.93-2.4,8.05-7.53,8.92-12.75S170.47,390.77,168.75,385.78Z" transform="translate(-32.31 -91.88)"/><polygon class="cls-10" points="112.12 325.44 123.88 342.06 129.41 341.61 138.62 324.75 112.12 325.44"/><path class="cls-4" d="M194.65,374a29.91,29.91,0,0,1,2.16-3.24c1.73-2.22,3.87-4.13,5.25-6.58s1.81-5.75.06-7.94a8.69,8.69,0,0,0-4.69-2.58,33.71,33.71,0,0,0-17.72,0c-5.48,1.51-10.37,3.94-16,2-5.25-1.84-9-1-14.42,1.09-5.86,2.22-13.77,2.88-19,6a15.63,15.63,0,0,0-5.29,5.43,23.72,23.72,0,0,0,.44,25.1,33.24,33.24,0,0,0,3.79,4.59c2.84,3,6.25,6.62,10.1,7.66,0-3.42-3.32-14.16-.74-17,4.08-4.54,13.55-3.18,18.75-2.19,5.68,1.09,10.79,5,16.41,5.73,4,.53,9.15-1.55,12.53-3.7C190.44,385.62,192.26,378.08,194.65,374Z" transform="translate(-32.31 -91.88)"/><polygon class="cls-5" points="130.05 441.95 99.39 413.52 185.93 386.01 219.33 414.71 130.05 441.95"/><polygon class="cls-18" points="130.05 441.95 219.33 414.71 219.33 343.68 130.05 370.91 130.05 441.95"/><polygon class="cls-7" points="346.09 326.9 369.67 356.32 400.74 338.35 412.65 348.01 388.13 379.12 368.26 395.16 339.73 358.4 346.09 326.9"/><polygon class="cls-4" points="370.87 422.1 371.89 510.1 362.51 623.39 349.76 623.39 334.5 518.87 317.05 414.17 370.87 422.1"/><polygon class="cls-4" points="349.83 628.76 363.62 635.66 370.52 628.76 363.62 621.87 349.83 621.87 349.83 628.76"/><polygon class="cls-4" points="283.44 422.1 283.19 473.01 291.79 623.39 304.55 623.39 325.88 523.6 337.26 414.17 283.44 422.1"/><polygon class="cls-4" points="304.47 628.76 290.68 635.66 283.79 628.76 290.68 621.87 304.47 621.87 304.47 628.76"/><path class="cls-7" d="M302.49,544.63c-.27,8.08-.09,18.88,3.31,19.29a3.44,3.44,0,0,0,1.81-.48c5.91-2.87,10.13-6.93,16-9.71,6.11-2.91,13.05-4.43,19.84-5.48a205.81,205.81,0,0,1,30.6-2.68c8.75-.08,17.86,3.92,26.13,6.11,3.19.85,5.78,3.17,8.43,5,3.91,2.69,5.62,3.75,5.09-1.74-.87-9-1.78-17.93-2.88-26.87-2.2-17.84-5.19-35.63-10.26-52.9-1.94-6.59-4.17-13.1-6.4-19.6L386,431.81c-3.38-9.84-9.08-16.77-19.07-20.21-8.63-3-19.34-3.79-27.74.37-9.33,4.63-13.77,20.4-18.3,28.83-4,7.38-9,27.52-10.47,35.48-1.78,9.58-3.44,19.12-4.74,28.63a293,293,0,0,0-2.75,31.48C302.86,537.55,302.62,540.78,302.49,544.63Z" transform="translate(-32.31 -91.88)"/><path class="cls-19" d="M348.58,413.37l17.24.16s18.49,64.62,19.17,75.76c.66,10.93,5.34,55.26,5.34,55.26s-19.09.45-41.08,3.13c-21.49,4.6-23.3,1.88-23.3,1.88s11.6-46.59,12-60c.39-13.69,2.14-58.92,2.14-58.92Z" transform="translate(-32.31 -91.88)"/><path class="cls-17" d="M359,413.7a1.94,1.94,0,0,1-.7.4,3.81,3.81,0,0,1-1.68,0l-6.84-.81c.76-7-3.32-8.56-7.3-13S339.72,389.6,340,384a11.83,11.83,0,0,1,.79-4.55c1.15-2.47,3.83-3.84,6.44-4.64,6.63-2.07,14.23-1.56,20.07,2.2A10.61,10.61,0,0,1,371.1,381c1.3,2.54,1,5.57.61,8.4a28.25,28.25,0,0,1-4.3,12.29c-2.29,3.41-6.66,5.05-7.16,9.15A4.59,4.59,0,0,1,359,413.7Z" transform="translate(-32.31 -91.88)"/><path class="cls-4" d="M371.52,384.3c-.39,1.75-1.21,3.52-.78,5.27,2.79-.95,4.61-3.8,5.59-6.69a10.12,10.12,0,0,0,.66-4.1,4.84,4.84,0,0,0-1.81-3.57c-1.53-1.09-4.28-.66-4.71,1.32S372.1,381.66,371.52,384.3Z" transform="translate(-32.31 -91.88)"/><path class="cls-4" d="M386.31,368.89a6.23,6.23,0,0,0-2.74-5.25c-1.62-1.1-3.49-2-4.47-3.74-.77-1.35-.88-3-1.63-4.37-1.37-2.45-4.35-3.18-6.93-4-6.48-2.07-10-4.47-16.81-1.81-4.88,1.89-11.17,2.14-15.69,4.9a15.76,15.76,0,0,0-4.82,5.07c-4.57,7.14-5.66,17.18-2.69,24.63A29.83,29.83,0,0,0,333,389c1.81,2.94,3.75,6.55,6.95,8,.2-1.38,1.23-2.15,1.55-3.51a10.44,10.44,0,0,0,.11-3c-.2-3.91-1.4-10.11,2.51-12.05,4.95-2.46,14.23-.24,19,1.84,4.22,1.84,11.33,4.23,15.83,2.26C383.06,380.67,386.45,373.38,386.31,368.89Z" transform="translate(-32.31 -91.88)"/><circle class="cls-9" cx="405.84" cy="492.82" r="148.4"/><path class="cls-19" d="M545.87,539.2a117.26,117.26,0,1,0,9.19,45.5A116.47,116.47,0,0,0,545.87,539.2ZM381.33,581.1a116,116,0,0,1,3.11-26.81h47.83V609.9H384.81A121.24,121.24,0,0,1,381.33,581.1Zm86.18-76.87a124.07,124.07,0,0,1,20,32c.88,2.09,1.7,4.21,2.46,6.34H444v-60A135.46,135.46,0,0,1,467.51,504.23Zm-35.24-20.52v58.82H387.91c.73-2,1.51-4.08,2.36-6.09a123.26,123.26,0,0,1,19.81-31.88A136,136,0,0,1,432.27,483.71Zm0,138v63.12a163,163,0,0,1-21.74-23,145.26,145.26,0,0,1-20.12-34.56q-1.11-2.76-2.1-5.55ZM444,686.11V621.67h45.51c-.63,1.78-1.29,3.57-2,5.34a145.29,145.29,0,0,1-20,34.47A163.53,163.53,0,0,1,444,686.11Zm0-76.21V554.29h49.39a116,116,0,0,1,3.11,26.81A120.74,120.74,0,0,1,493,609.9Zm61.45-55.61h33.37a106.34,106.34,0,0,1,1.41,55.61H505.13a132.85,132.85,0,0,0,3.16-28.8A128.41,128.41,0,0,0,505.48,554.29Zm7-43.93a105.08,105.08,0,0,1,22,32.17H502.36q-1.77-5.55-4-10.93a135.6,135.6,0,0,0-21.87-35,148.49,148.49,0,0,0-13.87-14.18A104.44,104.44,0,0,1,512.5,510.36Zm-148.69,0a104.41,104.41,0,0,1,52-28.43,149.39,149.39,0,0,0-14.4,14.66,135.33,135.33,0,0,0-21.87,35q-2.28,5.39-4,10.93H341.78A104.93,104.93,0,0,1,363.81,510.36Zm-26.36,43.93h34.93a127.74,127.74,0,0,0-2.82,26.81,132.86,132.86,0,0,0,3.17,28.8H336a106.34,106.34,0,0,1,1.41-55.61Zm26.36,104.76a104.85,104.85,0,0,1-24.14-37.38h36.24c1.07,3.34,2.26,6.67,3.59,10A157.82,157.82,0,0,0,401.23,669a178.32,178.32,0,0,0,17.08,19A104.36,104.36,0,0,1,363.81,659.05Zm148.69,0A104.51,104.51,0,0,1,460,687.59,178.36,178.36,0,0,0,476.62,669a157.14,157.14,0,0,0,21.73-37.37c1.34-3.29,2.53-6.62,3.6-10h34.68A105,105,0,0,1,512.5,659.05Z" transform="translate(-32.31 -91.88)"/><polygon class="cls-17" points="403.48 334.95 418.9 332.69 429.57 344.5 423.09 350.28 412.54 345.38 407.43 347.8 398.66 342.87 403.48 334.95"/><path class="cls-20" d="M697.06,706.45a4.51,4.51,0,0,1,4.11-1.76,4.65,4.65,0,0,1,3.45,2.6,8.72,8.72,0,0,1,.59,3c.43,5.21.39,17.58-6.55,19.37-2.92.74-5.33-1.33-6.11-4C691.38,721.72,693.11,710.79,697.06,706.45Z" transform="translate(-32.31 -91.88)"/><path class="cls-17" d="M694.59,627.83l.36,31.79c-.42,14.12,1.78,28.32,1.36,42.44-.1,3.24-.94,6.67-.13,9.89s3.36,3.7,6,2.11c3.52-2.14,3-7.13,3.53-10.77,1.61-10,3.5-19.95,5.18-29.93.83-4.9-.87-11.76-.5-16.72L715.51,630Z" transform="translate(-32.31 -91.88)"/><polygon class="cls-7" points="698.6 484.59 684.76 546.04 681.82 604.08 659.88 603.59 653.92 441.25 696.45 442.02 698.6 484.59"/><path class="cls-20" d="M665.68,705.3a4.47,4.47,0,0,1,4.17-1.53,4.77,4.77,0,0,1,3.33,2.81,9,9,0,0,1,.46,3c.21,5.24-.36,17.62-7.36,19-2.94.58-5.25-1.64-5.92-4.3C659.36,720.25,661.56,709.41,665.68,705.3Z" transform="translate(-32.31 -91.88)"/><path class="cls-17" d="M677.24,632.29,675.38,664c-.15,8.82-1.33,17.57-2.24,26.33-.85,8.14.47,16.61-3.78,24-1.34,2.32-4,3.87-5.92,1-1.45-2.17-.58-5.8-.86-8.26-1.14-10.07-2.56-20.1-3.76-30.15-.6-4.93,1.42-11.7,1.29-16.67l-3.88-26.85Z" transform="translate(-32.31 -91.88)"/><polygon class="cls-7" points="617.17 480.83 615.38 540.49 624.75 600.82 647.06 601.48 646.08 536.19 657.88 482.05 661.85 446.61 626.44 442.43 617.17 480.83"/><polygon class="cls-18" points="645.18 320.34 683.33 319.43 705.44 360.56 697.58 399.09 696.18 445.19 641.77 445.94 623.86 443.03 628.62 393.77 625.89 327.96 645.18 320.34"/><polygon class="cls-18" points="684.59 322.26 715.56 369.43 710.9 395.7 662.95 428.93 653.92 421.04 685.98 380.5 684.74 354.89 684.59 322.26"/><polygon class="cls-18" points="643.27 345.26 623.4 384.98 601.98 389.24 548.6 365.93 557.8 355.49 606.49 364.4 625.89 327.96 643.27 345.26"/><path class="cls-17" d="M679.88,380.25c5.75-16.72,27.82-10.45,32.37,4.44,3,9.71-4.53,22.31-14.59,25.1a8.27,8.27,0,0,0-.08,1,33.08,33.08,0,0,1-.43,4.65c-.09.58-8.89-1.11-9.88-1.3a1.35,1.35,0,0,1-.91-.45c-.35-.55.22-2.18.29-2.8s.15-1.45.23-2.17c-5-2.42-8.1-7.58-9-12.84S678.15,385.28,679.88,380.25Z" transform="translate(-32.31 -91.88)"/><path class="cls-4" d="M694.28,365.14a8.82,8.82,0,0,1,2,4.49,7,7,0,0,1,.17,2.91c-.82,3.79-4.58,3.6-7.49,4.82a19.48,19.48,0,0,0-8.7,7.48c-3.15,5-1.73,11.46-.46,17,.45,1.95,1.36,4.85-.15,6.58s-5.08,1.49-6.92.59c-1.68-.83-3.06-2.37-4.9-2.68s-4.59.54-5.5-1.26a12.2,12.2,0,0,0-.59-1.56c-1.08-1.54-3.76.27-5.28-.82-.94-.67-.93-2.1-.62-3.22a7.64,7.64,0,0,0,.63-3.42,11.26,11.26,0,0,0-1.34-2.66,5.24,5.24,0,0,1,.73-5.58c2.4-2.78,7-2.25,9.63-4.86,1.34-1.37,1.86-3.33,2.36-5.19s1.1-3.82,2.53-5.09c1.77-1.55,4.33-1.29,6.08-3.13,1-1.09,1.71-2.5,2.86-3.45,1.52-1.24,4.49-2.2,6.38-2.83A8.29,8.29,0,0,1,694.28,365.14Z" transform="translate(-32.31 -91.88)"/><path class="cls-4" d="M708.24,391.83c.1,5.5-2.63,11.45-.1,16.29s8.94,5.77,14.37,6c.9,0,12.37,1,12.42.81.86-3.83,1.75-7.74,3.75-11.11s5.35-6.15,9.19-6.39c-1.11-.19-1.67-1.55-1.54-2.69a18.61,18.61,0,0,1,1.06-3.27,7.69,7.69,0,0,0-2-7.74c-4.06-3.78-11.41-2.21-14.89-6.55-2.16-2.7-1.9-6.6-3-9.89-2.19-6.36-9.15-7.69-14.35-10.56-5.5-3-10.67-4.7-17-3.64-7.86,1.31-13.7,9.31-10.67,16.84,3.89,9.66,19.43,8.82,22.34,18.63A11.75,11.75,0,0,1,708.24,391.83Z" transform="translate(-32.31 -91.88)"/><polygon class="cls-17" points="672.04 320.12 660.21 336.84 654.64 336.39 645.37 319.43 672.04 320.12"/><path class="cls-19" d="M644.34,538.22a3.74,3.74,0,0,1-2.7-1.13L615,509.78l-16.47,21.09a3.37,3.37,0,0,1-2.69,1.33,4.25,4.25,0,0,1-3.84-2.72L552.3,422.63a3.49,3.49,0,0,1,.83-3.83,3.32,3.32,0,0,1,2.62-1.29,3.78,3.78,0,0,1,1.41.29L663,460.12a4,4,0,0,1,2.58,3.18,4,4,0,0,1-1.66,3.69L642.8,482.65l26.59,27.26a4,4,0,0,1,1.11,2.68,3.71,3.71,0,0,1-1.12,2.76l-22.3,21.76a4,4,0,0,1-2.74,1.11ZM614.61,500.1a4,4,0,0,1,2.8,1.13l27,27.7,16.78-16.37-27-27.65a3.78,3.78,0,0,1-1.1-2.94,4.19,4.19,0,0,1,1.72-3L654,464.79l-91.42-36.56,34.29,92.3,15-19.14A3.48,3.48,0,0,1,614.61,500.1Z" transform="translate(-32.31 -91.88)"/><path class="cls-19" d="M670.6,508.73l-25.24-25.87,10.9-8.09,8.65-6.42a5.57,5.57,0,0,0-1.29-9.8l-14.51-5.8-21.47-8.59-31.58-12.63-25.27-10.1-6.5-2.6-6.51-2.6a5.4,5.4,0,0,0-2-.4,5,5,0,0,0-3.87,1.83,5.1,5.1,0,0,0-1.16,5.56L563.63,458l.58,1.57L570,475.09l15.55,41.85L588,523.5l2.44,6.57a6,6,0,0,0,5.42,3.81,5.08,5.08,0,0,0,4-2l8.83-11.31,6.45-8.26,7.18,7.36,14.47,14.84,1.83,1.87,1.82,1.86a5.36,5.36,0,0,0,3.91,1.63,5.64,5.64,0,0,0,3.92-1.59l1.61-1.57,20.69-20.18a5.49,5.49,0,0,0,1.63-4A5.58,5.58,0,0,0,670.6,508.73Zm-2.4,5.41L645.9,535.9a2.24,2.24,0,0,1-1.56.63,2.06,2.06,0,0,1-1.49-.61c-1.22-1.25-2.43-2.5-3.65-3.74l-24.35-25q-8.83,11.29-17.66,22.61a1.67,1.67,0,0,1-1.36.68,2.59,2.59,0,0,1-2.26-1.62q-2.43-6.55-4.87-13.13-10.66-28.69-21.32-57.4L553.88,422a1.78,1.78,0,0,1,.5-2.09,1.64,1.64,0,0,1,1.37-.75,2,2,0,0,1,.78.17l13,5.2,56.85,22.73,36,14.39a2.2,2.2,0,0,1,.54,3.95l-22.65,16.81,1.9,1.95q13,13.34,26,26.69A2.18,2.18,0,0,1,668.2,514.14Z" transform="translate(-32.31 -91.88)"/><path class="cls-19" d="M635.46,483.73a2.19,2.19,0,0,1,.42-3.39l21.55-16-9.2-3.68-56.85-22.73-31.71-12.68q1.64,4.38,3.25,8.75,10.67,28.69,21.32,57.4,6.06,16.28,12.1,32.55,8.4-10.76,16.81-21.52a1.8,1.8,0,0,1,1.46-.64,2.27,2.27,0,0,1,1.59.62c1.22,1.25,2.44,2.49,3.65,3.74l24.56,25.17,19.2-18.73-2.11-2.16Zm19.67,32.41-10.66,10.41-6.31-6.47-15.89-16.29-1.82-1.87-1.83-1.87a5.61,5.61,0,0,0-4-1.64,5.16,5.16,0,0,0-4.12,1.94l-8.41,10.76-4.68,6-3.78-10.18-6.21-16.71-2.89-7.79-18.43-49.61-.6-1.6,24.63,9.84,17.77,7.11L647,463.8l3.59,1.43-16.69,12.4a5.81,5.81,0,0,0-2.4,4.2,5.39,5.39,0,0,0,1.57,4.26l25.79,26.44Z" transform="translate(-32.31 -91.88)"/><polygon class="cls-4" points="523.65 329.57 563.35 436.43 582.37 412.07 612.06 442.5 623.21 431.62 634.35 420.75 604.67 390.32 629.49 371.9 523.65 329.57"/><polygon class="cls-16" points="643.34 425.19 643.54 431.62 632.19 435.75 625.64 430.79 625.64 423.3 631.96 422.95 632.15 421.3 634.22 419.97 643.34 425.19"/><polygon class="cls-17" points="308.33 428.19 304.34 433.24 311.02 443.32 319.23 443.22 323.69 437.19 318.81 433.16 319.63 431.71 318.76 429.41 308.33 428.19"/><polygon class="cls-7" points="302.1 323.73 270.1 343.24 252.38 376.51 257.03 402.79 304.99 436.01 314.01 428.12 281.95 387.59 283.19 361.98 302.1 323.73"/><rect class="cls-12" x="257.33" width="407.21" height="142.5"/><polygon class="cls-12" points="506.96 128.49 506.96 201.29 570.88 128.49 506.96 128.49"/><polygon class="cls-19" points="371.53 88.39 355.44 41.18 345.11 41.22 329 87.89 313.29 41.34 298.23 41.4 322.45 108.75 334.29 108.7 349.94 64.03 365.83 108.59 377.67 108.54 401.38 41.01 387.26 41.06 371.53 88.39"/><polygon class="cls-19" points="478.19 87.98 462.09 40.78 451.77 40.82 435.65 87.48 419.94 40.94 404.88 40.99 429.1 108.34 440.94 108.3 456.59 63.63 472.49 108.18 484.32 108.14 508.03 40.6 493.92 40.66 478.19 87.98"/><polygon class="cls-19" points="584.84 87.58 568.75 40.37 558.42 40.41 542.31 87.08 526.6 40.53 511.54 40.59 535.76 107.94 547.6 107.9 563.25 63.22 579.14 107.78 590.98 107.73 614.69 40.2 600.58 40.25 584.84 87.58"/><rect class="cls-19" x="648.93" y="184.23" width="15.44" height="15.25" transform="translate(-33.03 -89.38) rotate(-0.22)"/></g></svg>