<svg xmlns="http://www.w3.org/2000/svg" width="96" height="276" viewBox="0 0 96 276">
  <defs>
    <style>
      .cls-1 {
        fill: #1d1d1d;
        fill-rule: evenodd;
        opacity: 0.2;
      }
    </style>
  </defs>
  <path class="cls-1" d="M124,944a3,3,0,1,1,3-3A3,3,0,0,1,124,944Zm-18,0a3,3,0,1,1,3-3A3,3,0,0,1,106,944Zm-18,0a3,3,0,1,1,3-3A3,3,0,0,1,88,944Zm-18,0a3,3,0,1,1,3-3A3,3,0,0,1,70,944Zm-18,0a3,3,0,1,1,3-3A3,3,0,0,1,52,944Zm-18,0a3,3,0,1,1,3-3A3,3,0,0,1,34,944Zm90,18a3,3,0,1,1,3-3A3,3,0,0,1,124,962Zm-18,0a3,3,0,1,1,3-3A3,3,0,0,1,106,962Zm-18,0a3,3,0,1,1,3-3A3,3,0,0,1,88,962Zm-18,0a3,3,0,1,1,3-3A3,3,0,0,1,70,962Zm-18,0a3,3,0,1,1,3-3A3,3,0,0,1,52,962Zm-18,0a3,3,0,1,1,3-3A3,3,0,0,1,34,962Zm90,18a3,3,0,1,1,3-3A3,3,0,0,1,124,980Zm-18,0a3,3,0,1,1,3-3A3,3,0,0,1,106,980Zm-18,0a3,3,0,1,1,3-3A3,3,0,0,1,88,980Zm-18,0a3,3,0,1,1,3-3A3,3,0,0,1,70,980Zm-18,0a3,3,0,1,1,3-3A3,3,0,0,1,52,980Zm-18,0a3,3,0,1,1,3-3A3,3,0,0,1,34,980Zm90,18a3,3,0,1,1,3-3A3,3,0,0,1,124,998Zm-18,0a3,3,0,1,1,3-3A3,3,0,0,1,106,998Zm-18,0a3,3,0,1,1,3-3A3,3,0,0,1,88,998Zm-18,0a3,3,0,1,1,3-3A3,3,0,0,1,70,998Zm-18,0a3,3,0,1,1,3-3A3,3,0,0,1,52,998Zm-18,0a3,3,0,1,1,3-3A3,3,0,0,1,34,998Zm90,18a3,3,0,1,1,3-3A3,3,0,0,1,124,1016Zm-18,0a3,3,0,1,1,3-3A3,3,0,0,1,106,1016Zm-18,0a3,3,0,1,1,3-3A3,3,0,0,1,88,1016Zm-18,0a3,3,0,1,1,3-3A3,3,0,0,1,70,1016Zm-18,0a3,3,0,1,1,3-3A3,3,0,0,1,52,1016Zm-18,0a3,3,0,1,1,3-3A3,3,0,0,1,34,1016Zm90,18a3,3,0,1,1,3-3A3,3,0,0,1,124,1034Zm-18,0a3,3,0,1,1,3-3A3,3,0,0,1,106,1034Zm-18,0a3,3,0,1,1,3-3A3,3,0,0,1,88,1034Zm-18,0a3,3,0,1,1,3-3A3,3,0,0,1,70,1034Zm-18,0a3,3,0,1,1,3-3A3,3,0,0,1,52,1034Zm-18,0a3,3,0,1,1,3-3A3,3,0,0,1,34,1034Zm90,18a3,3,0,1,1,3-3A3,3,0,0,1,124,1052Zm-18,0a3,3,0,1,1,3-3A3,3,0,0,1,106,1052Zm-18,0a3,3,0,1,1,3-3A3,3,0,0,1,88,1052Zm-18,0a3,3,0,1,1,3-3A3,3,0,0,1,70,1052Zm-18,0a3,3,0,1,1,3-3A3,3,0,0,1,52,1052Zm-18,0a3,3,0,1,1,3-3A3,3,0,0,1,34,1052Zm90,18a3,3,0,1,1,3-3A3,3,0,0,1,124,1070Zm-18,0a3,3,0,1,1,3-3A3,3,0,0,1,106,1070Zm-18,0a3,3,0,1,1,3-3A3,3,0,0,1,88,1070Zm-18,0a3,3,0,1,1,3-3A3,3,0,0,1,70,1070Zm-18,0a3,3,0,1,1,3-3A3,3,0,0,1,52,1070Zm-18,0a3,3,0,1,1,3-3A3,3,0,0,1,34,1070Zm90,18a3,3,0,1,1,3-3A3,3,0,0,1,124,1088Zm-18,0a3,3,0,1,1,3-3A3,3,0,0,1,106,1088Zm-18,0a3,3,0,1,1,3-3A3,3,0,0,1,88,1088Zm-18,0a3,3,0,1,1,3-3A3,3,0,0,1,70,1088Zm-18,0a3,3,0,1,1,3-3A3,3,0,0,1,52,1088Zm-18,0a3,3,0,1,1,3-3A3,3,0,0,1,34,1088Zm90,18a3,3,0,1,1,3-3A3,3,0,0,1,124,1106Zm-18,0a3,3,0,1,1,3-3A3,3,0,0,1,106,1106Zm-18,0a3,3,0,1,1,3-3A3,3,0,0,1,88,1106Zm-18,0a3,3,0,1,1,3-3A3,3,0,0,1,70,1106Zm-18,0a3,3,0,1,1,3-3A3,3,0,0,1,52,1106Zm-18,0a3,3,0,1,1,3-3A3,3,0,0,1,34,1106Zm90,18a3,3,0,1,1,3-3A3,3,0,0,1,124,1124Zm-18,0a3,3,0,1,1,3-3A3,3,0,0,1,106,1124Zm-18,0a3,3,0,1,1,3-3A3,3,0,0,1,88,1124Zm-18,0a3,3,0,1,1,3-3A3,3,0,0,1,70,1124Zm-18,0a3,3,0,1,1,3-3A3,3,0,0,1,52,1124Zm-18,0a3,3,0,1,1,3-3A3,3,0,0,1,34,1124Zm90,18a3,3,0,1,1,3-3A3,3,0,0,1,124,1142Zm-18,0a3,3,0,1,1,3-3A3,3,0,0,1,106,1142Zm-18,0a3,3,0,1,1,3-3A3,3,0,0,1,88,1142Zm-18,0a3,3,0,1,1,3-3A3,3,0,0,1,70,1142Zm-18,0a3,3,0,1,1,3-3A3,3,0,0,1,52,1142Zm-18,0a3,3,0,1,1,3-3A3,3,0,0,1,34,1142Zm90,18a3,3,0,1,1,3-3A3,3,0,0,1,124,1160Zm-18,0a3,3,0,1,1,3-3A3,3,0,0,1,106,1160Zm-18,0a3,3,0,1,1,3-3A3,3,0,0,1,88,1160Zm-18,0a3,3,0,1,1,3-3A3,3,0,0,1,70,1160Zm-18,0a3,3,0,1,1,3-3A3,3,0,0,1,52,1160Zm-18,0a3,3,0,1,1,3-3A3,3,0,0,1,34,1160Zm90,18a3,3,0,1,1,3-3A3,3,0,0,1,124,1178Zm-18,0a3,3,0,1,1,3-3A3,3,0,0,1,106,1178Zm-18,0a3,3,0,1,1,3-3A3,3,0,0,1,88,1178Zm-18,0a3,3,0,1,1,3-3A3,3,0,0,1,70,1178Zm-18,0a3,3,0,1,1,3-3A3,3,0,0,1,52,1178Zm-18,0a3,3,0,1,1,3-3A3,3,0,0,1,34,1178Zm90,18a3,3,0,1,1,3-3A3,3,0,0,1,124,1196Zm-18,0a3,3,0,1,1,3-3A3,3,0,0,1,106,1196Zm-18,0a3,3,0,1,1,3-3A3,3,0,0,1,88,1196Zm-18,0a3,3,0,1,1,3-3A3,3,0,0,1,70,1196Zm-18,0a3,3,0,1,1,3-3A3,3,0,0,1,52,1196Zm-18,0a3,3,0,1,1,3-3A3,3,0,0,1,34,1196Zm90,18a3,3,0,1,1,3-3A3,3,0,0,1,124,1214Zm-18,0a3,3,0,1,1,3-3A3,3,0,0,1,106,1214Zm-18,0a3,3,0,1,1,3-3A3,3,0,0,1,88,1214Zm-18,0a3,3,0,1,1,3-3A3,3,0,0,1,70,1214Zm-18,0a3,3,0,1,1,3-3A3,3,0,0,1,52,1214Zm-18,0a3,3,0,1,1,3-3A3,3,0,0,1,34,1214Z" transform="translate(-31 -938)"/>
</svg>
