<svg xmlns="http://www.w3.org/2000/svg" width="139" height="132" viewBox="0 0 139 132">
  <defs>
    <style>
      .cls-1 {
        fill: #1d1d1d;
        fill-rule: evenodd;
        opacity: 0.2;
      }
    </style>
  </defs>
  <path class="cls-1" d="M-77,3485a3,3,0,0,1-3,3,3,3,0,0,1-3-3,3,3,0,0,1,3-3A3,3,0,0,1-77,3485Zm0,18a3,3,0,0,1-3,3,3,3,0,0,1-3-3,3,3,0,0,1,3-3A3,3,0,0,1-77,3503Zm0,18a3,3,0,0,1-3,3,3,3,0,0,1-3-3,3,3,0,0,1,3-3A3,3,0,0,1-77,3521Zm0,18a3,3,0,0,1-3,3,3,3,0,0,1-3-3,3,3,0,0,1,3-3A3,3,0,0,1-77,3539Zm0,18a3,3,0,0,1-3,3,3,3,0,0,1-3-3,3,3,0,0,1,3-3A3,3,0,0,1-77,3557Zm0,18a3,3,0,0,1-3,3,3,3,0,0,1-3-3,3,3,0,0,1,3-3A3,3,0,0,1-77,3575Zm0,18a3,3,0,0,1-3,3,3,3,0,0,1-3-3,3,3,0,0,1,3-3A3,3,0,0,1-77,3593Zm0,18a3,3,0,0,1-3,3,3,3,0,0,1-3-3,3,3,0,0,1,3-3A3,3,0,0,1-77,3611Zm18-126a3,3,0,0,1-3,3,3,3,0,0,1-3-3,3,3,0,0,1,3-3A3,3,0,0,1-59,3485Zm0,18a3,3,0,0,1-3,3,3,3,0,0,1-3-3,3,3,0,0,1,3-3A3,3,0,0,1-59,3503Zm0,18a3,3,0,0,1-3,3,3,3,0,0,1-3-3,3,3,0,0,1,3-3A3,3,0,0,1-59,3521Zm0,18a3,3,0,0,1-3,3,3,3,0,0,1-3-3,3,3,0,0,1,3-3A3,3,0,0,1-59,3539Zm0,18a3,3,0,0,1-3,3,3,3,0,0,1-3-3,3,3,0,0,1,3-3A3,3,0,0,1-59,3557Zm0,18a3,3,0,0,1-3,3,3,3,0,0,1-3-3,3,3,0,0,1,3-3A3,3,0,0,1-59,3575Zm0,18a3,3,0,0,1-3,3,3,3,0,0,1-3-3,3,3,0,0,1,3-3A3,3,0,0,1-59,3593Zm0,18a3,3,0,0,1-3,3,3,3,0,0,1-3-3,3,3,0,0,1,3-3A3,3,0,0,1-59,3611Zm18-126a3,3,0,0,1-3,3,3,3,0,0,1-3-3,3,3,0,0,1,3-3A3,3,0,0,1-41,3485Zm0,18a3,3,0,0,1-3,3,3,3,0,0,1-3-3,3,3,0,0,1,3-3A3,3,0,0,1-41,3503Zm0,18a3,3,0,0,1-3,3,3,3,0,0,1-3-3,3,3,0,0,1,3-3A3,3,0,0,1-41,3521Zm0,18a3,3,0,0,1-3,3,3,3,0,0,1-3-3,3,3,0,0,1,3-3A3,3,0,0,1-41,3539Zm0,18a3,3,0,0,1-3,3,3,3,0,0,1-3-3,3,3,0,0,1,3-3A3,3,0,0,1-41,3557Zm0,18a3,3,0,0,1-3,3,3,3,0,0,1-3-3,3,3,0,0,1,3-3A3,3,0,0,1-41,3575Zm0,18a3,3,0,0,1-3,3,3,3,0,0,1-3-3,3,3,0,0,1,3-3A3,3,0,0,1-41,3593Zm0,18a3,3,0,0,1-3,3,3,3,0,0,1-3-3,3,3,0,0,1,3-3A3,3,0,0,1-41,3611Zm18-126a3,3,0,0,1-3,3,3,3,0,0,1-3-3,3,3,0,0,1,3-3A3,3,0,0,1-23,3485Zm0,18a3,3,0,0,1-3,3,3,3,0,0,1-3-3,3,3,0,0,1,3-3A3,3,0,0,1-23,3503Zm0,18a3,3,0,0,1-3,3,3,3,0,0,1-3-3,3,3,0,0,1,3-3A3,3,0,0,1-23,3521Zm0,18a3,3,0,0,1-3,3,3,3,0,0,1-3-3,3,3,0,0,1,3-3A3,3,0,0,1-23,3539Zm0,18a3,3,0,0,1-3,3,3,3,0,0,1-3-3,3,3,0,0,1,3-3A3,3,0,0,1-23,3557Zm0,18a3,3,0,0,1-3,3,3,3,0,0,1-3-3,3,3,0,0,1,3-3A3,3,0,0,1-23,3575Zm0,18a3,3,0,0,1-3,3,3,3,0,0,1-3-3,3,3,0,0,1,3-3A3,3,0,0,1-23,3593Zm0,18a3,3,0,0,1-3,3,3,3,0,0,1-3-3,3,3,0,0,1,3-3A3,3,0,0,1-23,3611Zm18-126a3,3,0,0,1-3,3,3,3,0,0,1-3-3,3,3,0,0,1,3-3A3,3,0,0,1-5,3485Zm0,18a3,3,0,0,1-3,3,3,3,0,0,1-3-3,3,3,0,0,1,3-3A3,3,0,0,1-5,3503Zm0,18a3,3,0,0,1-3,3,3,3,0,0,1-3-3,3,3,0,0,1,3-3A3,3,0,0,1-5,3521Zm0,18a3,3,0,0,1-3,3,3,3,0,0,1-3-3,3,3,0,0,1,3-3A3,3,0,0,1-5,3539Zm0,18a3,3,0,0,1-3,3,3,3,0,0,1-3-3,3,3,0,0,1,3-3A3,3,0,0,1-5,3557Zm0,18a3,3,0,0,1-3,3,3,3,0,0,1-3-3,3,3,0,0,1,3-3A3,3,0,0,1-5,3575Zm0,18a3,3,0,0,1-3,3,3,3,0,0,1-3-3,3,3,0,0,1,3-3A3,3,0,0,1-5,3593Zm0,18a3,3,0,0,1-3,3,3,3,0,0,1-3-3,3,3,0,0,1,3-3A3,3,0,0,1-5,3611Zm18-126a3,3,0,1,1-3-3A3,3,0,0,1,13,3485Zm0,18a3,3,0,1,1-3-3A3,3,0,0,1,13,3503Zm0,18a3,3,0,1,1-3-3A3,3,0,0,1,13,3521Zm0,18a3,3,0,1,1-3-3A3,3,0,0,1,13,3539Zm0,18a3,3,0,1,1-3-3A3,3,0,0,1,13,3557Zm0,18a3,3,0,1,1-3-3A3,3,0,0,1,13,3575Zm0,18a3,3,0,1,1-3-3A3,3,0,0,1,13,3593Zm0,18a3,3,0,1,1-3-3A3,3,0,0,1,13,3611Zm18-126a3,3,0,1,1-3-3A3,3,0,0,1,31,3485Zm0,18a3,3,0,1,1-3-3A3,3,0,0,1,31,3503Zm0,18a3,3,0,1,1-3-3A3,3,0,0,1,31,3521Zm0,18a3,3,0,1,1-3-3A3,3,0,0,1,31,3539Zm0,18a3,3,0,1,1-3-3A3,3,0,0,1,31,3557Zm0,18a3,3,0,1,1-3-3A3,3,0,0,1,31,3575Zm0,18a3,3,0,1,1-3-3A3,3,0,0,1,31,3593Zm0,18a3,3,0,1,1-3-3A3,3,0,0,1,31,3611Zm18-126a3,3,0,1,1-3-3A3,3,0,0,1,49,3485Zm0,18a3,3,0,1,1-3-3A3,3,0,0,1,49,3503Zm0,18a3,3,0,1,1-3-3A3,3,0,0,1,49,3521Zm0,18a3,3,0,1,1-3-3A3,3,0,0,1,49,3539Zm0,18a3,3,0,1,1-3-3A3,3,0,0,1,49,3557Zm0,18a3,3,0,1,1-3-3A3,3,0,0,1,49,3575Zm0,18a3,3,0,1,1-3-3A3,3,0,0,1,49,3593Zm0,18a3,3,0,1,1-3-3A3,3,0,0,1,49,3611Zm18-126a3,3,0,1,1-3-3A3,3,0,0,1,67,3485Zm0,18a3,3,0,1,1-3-3A3,3,0,0,1,67,3503Zm0,18a3,3,0,1,1-3-3A3,3,0,0,1,67,3521Zm0,18a3,3,0,1,1-3-3A3,3,0,0,1,67,3539Zm0,18a3,3,0,1,1-3-3A3,3,0,0,1,67,3557Zm0,18a3,3,0,1,1-3-3A3,3,0,0,1,67,3575Zm0,18a3,3,0,1,1-3-3A3,3,0,0,1,67,3593Zm0,18a3,3,0,1,1-3-3A3,3,0,0,1,67,3611Zm18-126a3,3,0,1,1-3-3A3,3,0,0,1,85,3485Zm0,18a3,3,0,1,1-3-3A3,3,0,0,1,85,3503Zm0,18a3,3,0,1,1-3-3A3,3,0,0,1,85,3521Zm0,18a3,3,0,1,1-3-3A3,3,0,0,1,85,3539Zm0,18a3,3,0,1,1-3-3A3,3,0,0,1,85,3557Zm0,18a3,3,0,1,1-3-3A3,3,0,0,1,85,3575Zm0,18a3,3,0,1,1-3-3A3,3,0,0,1,85,3593Zm0,18a3,3,0,1,1-3-3A3,3,0,0,1,85,3611Zm18-126a3,3,0,1,1-3-3A3,3,0,0,1,103,3485Zm0,18a3,3,0,1,1-3-3A3,3,0,0,1,103,3503Zm0,18a3,3,0,1,1-3-3A3,3,0,0,1,103,3521Zm0,18a3,3,0,1,1-3-3A3,3,0,0,1,103,3539Zm0,18a3,3,0,1,1-3-3A3,3,0,0,1,103,3557Zm0,18a3,3,0,1,1-3-3A3,3,0,0,1,103,3575Zm0,18a3,3,0,1,1-3-3A3,3,0,0,1,103,3593Zm0,18a3,3,0,1,1-3-3A3,3,0,0,1,103,3611Zm18-126a3,3,0,1,1-3-3A3,3,0,0,1,121,3485Zm0,18a3,3,0,1,1-3-3A3,3,0,0,1,121,3503Zm0,18a3,3,0,1,1-3-3A3,3,0,0,1,121,3521Zm0,18a3,3,0,1,1-3-3A3,3,0,0,1,121,3539Zm0,18a3,3,0,1,1-3-3A3,3,0,0,1,121,3557Zm0,18a3,3,0,1,1-3-3A3,3,0,0,1,121,3575Zm0,18a3,3,0,1,1-3-3A3,3,0,0,1,121,3593Zm0,18a3,3,0,1,1-3-3A3,3,0,0,1,121,3611Zm18-126a3,3,0,1,1-3-3A3,3,0,0,1,139,3485Zm0,18a3,3,0,1,1-3-3A3,3,0,0,1,139,3503Zm0,18a3,3,0,1,1-3-3A3,3,0,0,1,139,3521Zm0,18a3,3,0,1,1-3-3A3,3,0,0,1,139,3539Zm0,18a3,3,0,1,1-3-3A3,3,0,0,1,139,3557Zm0,18a3,3,0,1,1-3-3A3,3,0,0,1,139,3575Zm0,18a3,3,0,1,1-3-3A3,3,0,0,1,139,3593Zm0,18a3,3,0,1,1-3-3A3,3,0,0,1,139,3611Z" transform="translate(0 -3482)"/>
</svg>
