<svg xmlns="http://www.w3.org/2000/svg" viewBox="0 0 947.09 700.58"><defs><style>.cls-1{fill:#f7f7f7;}.cls-2{fill:#bcbec0;}.cls-3{fill:#305399;}.cls-4{fill:#587bc9;}.cls-5{fill:#b97262;}.cls-6{fill:#3b455a;}.cls-7{fill:#efbfa5;}.cls-8{fill:#7db5db;}.cls-9{fill:#2f3849;}.cls-10{fill:#6d6e6f;opacity:0.13;}.cls-11{fill:#707f78;}.cls-12{fill:#292949;}.cls-13{fill:#fff;}.cls-14{fill:#d3e5ef;}</style></defs><g id="shadow"><path class="cls-1" d="M517.33,674.26c-27.35.08-54.7.68-82,3.44C425,678.74,415,681,404.64,682c-20.61,1.85-40.85,5.29-61.53,6.88-16.66,1.28-33.38,2-50,3.66a193.37,193.37,0,0,1-48.25-1.34c-11.44-1.87-22.93-2.91-34.18-5.9-12.58-3.35-26.25-5.74-39.35-5.66-18.69.13-36.89.14-54.78,6-6.28,2.07-14,5.48-18.73,9.83-10.92,10-12.4,34.82-1.5,45.15,18.36,17.39,57.53,24.21,83.26,24.54,28.2.35,55.59-1.56,83.83-2.68,26.23-1,52.41-2.52,78.69-2.47,53.67.11,107.36,0,160.93-3.26,50.34-3.07,100.81-2,151.26-2,51.73,0,103.11.37,154.47,6.63,22.38,2.72,45.18,3.68,67.67,5.59,20.14,1.71,39.5,0,59.56-1.62a153.32,153.32,0,0,0,48.89-11.92c12.11-5.27,33.71-21.64,37.42-34.22C1032.73,684,875.53,684.8,851.4,684.88c-27,.09-54.22.89-81.2,0-11.35-.4-22.53-2.42-33.6-4.63s-22.15-1.64-33.34-2.57c-46.65-3.86-93.41-3.3-140.22-3.3C547.81,674.34,532.57,674.22,517.33,674.26Z" transform="translate(-75.72 -67.09)"/></g><g id="object"><polygon class="cls-2" points="903.89 464.26 899.33 548.94 890.84 663.27 878.12 664.17 862.67 560.34 841.3 472.48 903.89 464.26"/><polygon class="cls-3" points="878.58 669.53 892.81 675.42 899.2 668.06 891.84 661.67 878.09 662.65 878.58 669.53"/><polygon class="cls-2" points="806.42 457.92 803.63 508.74 811.91 659.85 824.64 660.49 843.73 561.38 860.56 452.69 806.42 457.92"/><polygon class="cls-3" points="824.3 662.87 810.19 669.07 803.65 664.82 810.88 658.28 824.65 658.97 824.3 662.87"/><path class="cls-4" d="M951.3,368.93l-39.87-2.61s-22,3.27-34.81,56.33c-7.13,29.52-7.77,75.6-6.94,110.67,1.15,5,7.5,26.63,30.38,22,39.28-8,60.07-15.26,77.42-12.78,14.81,2.58,12.73-17.57,10.49-32.91l-7.82-47.46Z" transform="translate(-75.72 -67.09)"/><path class="cls-5" d="M941.6,319.84c-10.1-1.8-20.48-3.35-30.41-.95-2.18.52-4.5,1.38-5.61,3.33a8.75,8.75,0,0,0-.83,2.45c-2.14,9.5-4.77,23.56,1.77,32a15.44,15.44,0,0,0,4.63,3.84,22,22,0,0,0,7.52,2.6,39.56,39.56,0,0,1-2,6.92c2.43,3.36,13.14,3.33,15-.06q0-4.31,0-8.61a21.13,21.13,0,0,0,3.66-2.1,24.16,24.16,0,0,0,8.8-13.06c1.67-5.64,4.13-11,5.64-16.77.55-2.09,1-4.47-.21-6.29s-3.77-2.51-6-2.92Z" transform="translate(-75.72 -67.09)"/><path class="cls-6" d="M908.52,326.58c4.81-3.38,12.17-5.06,16.84-4.91,14.1.44,19.67,10.55,21,23.44C950,340,957,333.54,957.18,327.19c.14-5.2-.86-12.24-3.95-16.6-2.89-4.08-9.94-6.09-14.17-8.35l-12-6.38a7.73,7.73,0,0,0-2.62-1,7.87,7.87,0,0,0-3.27.51l-27.33,8.27c-1.75.53-3.74,1.28-4.32,3a5.86,5.86,0,0,0,.21,3.28c1.24,4.74,3.45,9.54,4.15,14.36.68,2.79,3,17.14,7.86,15.27,1.37-2.45,1.46-5.41,2.5-8A11.44,11.44,0,0,1,908.52,326.58Z" transform="translate(-75.72 -67.09)"/><polygon class="cls-4" points="835.71 299.23 821.22 304.3 769.95 362.64 767.53 381.27 794.89 422.51 801.16 406.73 789.03 375.92 805.75 363.08 826.59 310.47 835.71 299.23"/><polygon class="cls-4" points="867.3 305.59 893.37 274.98 883.65 195.35 895.42 189.59 915.07 269.96 910.91 290.37 882.07 333.83 867.3 305.59"/><polygon class="cls-5" points="892.9 190.83 892.6 183.51 883.72 172.72 878.16 178.1 882.35 187.85 880.1 191.36 883.65 195.35 892.9 190.83"/><polygon class="cls-7" points="183.56 286.95 196.72 277.75 194.85 269.36 181.51 273.96 175.07 278.16 175.07 282.81 183.56 286.95"/><path class="cls-3" d="M134.25,708.88a5.25,5.25,0,0,0-4.73-2,5.36,5.36,0,0,0-4,3,10.1,10.1,0,0,0-.68,3.41c-.5,6-.45,20.25,7.54,22.3,3.36.87,6.14-4.5,7-7.52C140.79,723.49,138.79,713.88,134.25,708.88Z" transform="translate(-75.72 -67.09)"/><path class="cls-7" d="M137.09,618.32l-.41,36.62c.48,16.26-2.06,32.62-1.57,48.88.11,3.74,1.09,7.68.14,11.39s-3.86,4.27-6.89,2.43c-4.05-2.46-3.4-8.2-4.07-12.39-1.86-11.52-4-23-6-34.49-.95-5.64,1-13.54.58-19.25L113,620.83Z" transform="translate(-75.72 -67.09)"/><polygon class="cls-6" points="19.54 492.07 35.47 562.86 38.86 629.71 64.13 629.14 71 442.15 22.01 443.04 19.54 492.07"/><path class="cls-3" d="M170.39,704.57a5.11,5.11,0,0,0-4.8-1.75,5.47,5.47,0,0,0-3.84,3.23,10.59,10.59,0,0,0-.53,3.45c-.24,6,.42,20.3,8.47,21.88,3.39.67,6.06-1.89,6.82-5C177.67,721.79,175.13,709.31,170.39,704.57Z" transform="translate(-75.72 -67.09)"/><path class="cls-7" d="M157.07,623.46,159.22,660c.17,10.16,1.53,20.24,2.58,30.33,1,9.37-.54,19.13,4.35,27.66,1.54,2.67,4.64,4.45,6.81,1.2,1.68-2.5.68-6.68,1-9.52,1.31-11.59,2.94-23.14,4.34-34.72.68-5.68-1.65-13.48-1.49-19.2l4.46-30.93Z" transform="translate(-75.72 -67.09)"/><polygon class="cls-6" points="113.33 487.74 115.39 556.46 104.6 625.95 78.9 626.72 80.03 551.51 66.43 489.15 61.87 448.32 102.65 443.51 113.33 487.74"/><polygon class="cls-2" points="81.06 302.88 37.13 301.83 11.65 349.21 20.7 393.59 22.32 446.7 85 447.55 105.62 444.2 100.14 387.46 103.01 318.22 81.06 302.88"/><polygon class="cls-2" points="35.67 305.1 0 359.43 5.36 389.69 60.6 427.96 71 418.87 34.07 372.18 35.5 342.68 35.67 305.1"/><polygon class="cls-2" points="78.4 333.55 120.62 348.78 145.05 342.76 187.27 287.37 172.57 280.97 128.23 319.04 88.09 307.02 78.4 333.55"/><polygon class="cls-8" points="50.12 302.63 63.76 321.89 70.16 321.37 80.84 301.83 50.12 302.63"/><polygon class="cls-7" points="60.92 421.18 60.69 428.59 73.77 433.35 81.31 427.64 81.31 419.01 74.03 418.61 73.8 416.71 71.42 415.18 60.92 421.18"/><path class="cls-7" d="M142,331c2.85-2.51,6.11-3,9.74-3,1.72,0,2.29.44,3.18.28a4.27,4.27,0,0,0,1.51-.67c1.3-.81,2.46-2.93,3.07-4.66,3.37,2.14,5.83,6,6.5,11.85.74,6.37.72,13.09-1.46,19.47s-6.85,12.37-12.89,14.74c-.36.14-.71.26-1,.37a15.58,15.58,0,0,1-7.34.66l-7.62-3.64q-.57-.48-1.11-1C132,354.58,134.69,337.44,142,331Z" transform="translate(-75.72 -67.09)"/><path class="cls-9" d="M78.62,463.79a17.09,17.09,0,0,0,4.72,8.94q.28-1.75.6-3.48-.31,1.72-.6,3.48a21.79,21.79,0,0,0,5.33,4c5,2.67,10.78,3.5,16.44,3.5,4.53,0,9.12-.53,13.55.44s8.81,3.86,9.93,8.25c.62,2.42.41,5.46,2.51,6.83a6.51,6.51,0,0,0,3.39.73c3.59.1,7.66,0,10.07-2.65,3.72-4.12,1.55-12.37,6.58-14.71,1.48-.68,3.18-.58,4.78-.85,6.82-1.15,10.15-8.86,9.49-15.93a17.3,17.3,0,0,0-.92-4.26c-2.81-7.85-9.33-13.68-14.27-20.4-9.65-13.12-16.17-30.65-10.24-46.18a41.88,41.88,0,0,0,1.58-4.44,11.28,11.28,0,0,0,.37-2.53c.09-4.63-3.36-8.44-5.59-12.5-.21-.38-.4-.78-.59-1.2a21.73,21.73,0,0,1-1.13-3.39c-.05-.19-.09-.37-.14-.56-6.84-6.82-9.58-19.49-5.07-29,.25-.54.52-1.07.81-1.58-.29.51-.56,1-.81,1.58-4.51,9.47-1.77,22.14,5.07,29-2.5-10.85.21-28,7.47-34.38,2.85-2.52,6.11-3,9.74-3,1.72,0,2.29.43,3.18.28a4.46,4.46,0,0,0,1.51-.67c1.3-.81,2.46-2.93,3.07-4.66,3.37,2.13,5.83,6,6.5,11.84.74,6.38.72,13.1-1.46,19.48s-6.85,12.37-12.89,14.74l-1,.37a9,9,0,0,0,1.17,1.63c3.31,3.64,8.63,4.49,13.51,5.12a3.65,3.65,0,0,0,1.77-.07,2.56,2.56,0,0,0,1.39-2.4,9.9,9.9,0,0,0-.62-2.87c-2.83-9.88,2.19-21.17,3-31.13s-1.21-20.76-9.19-27.48a22,22,0,0,0-3.93,1.51l-.38-.49c-11.55-13.86-27.86-2-36.63,8.58-7.23,8.73-13.26,18.76-16,29.84-2.59,10.36-3.45,25.58-2.36,36.17.64,6.19,3.08,12.25,4.38,18.31a27,27,0,0,1,.36,11.31c-1.67,7.88-7.91,13.66-14,19.13q-.82,2.13-1.65,4.32t-1.64,4.45c-.35,1-.68,2-1,3,.33-1,.66-2,1-3q.81-2.25,1.64-4.45T93,438.06l-2.5,2.26C83.75,446.49,77.08,454.75,78.62,463.79Zm60.73-137.28a27.41,27.41,0,0,1,2.76-1.6A27.41,27.41,0,0,0,139.35,326.51Z" transform="translate(-75.72 -67.09)"/><rect class="cls-8" x="687.98" y="12.79" width="185.29" height="144.63"/><path class="cls-3" d="M755.15,156.71,756,278.58l177.41-1.28c13.42-.09,24.21-11.8,24.11-26.14l-.69-95.9-100.4,63.6Z" transform="translate(-75.72 -67.09)"/><rect class="cls-1" x="721.5" y="39.7" width="137.16" height="2.95"/><rect class="cls-1" x="702.58" y="62.72" width="156.08" height="3.06"/><rect class="cls-1" x="702.58" y="85.8" width="156.08" height="3.06"/><polygon class="cls-3" points="184.49 178.64 158.94 231.89 158.87 156.55 409.6 0 184.49 178.64"/><polygon class="cls-10" points="158.93 157.12 309.53 78.99 183.77 180.14 159.13 231.05 158.93 157.12"/><polygon class="cls-6" points="158.94 231.89 183.72 179.46 409.04 0.78 158.94 231.89"/><polygon class="cls-11" points="409.04 0.78 409.6 0 406.68 2.26 409.04 0.78"/><polygon class="cls-8" points="409.04 0.78 406.68 2.26 183.78 179.13 183.52 179.28 255.36 243.81 409.04 0.78"/><polygon class="cls-8" points="409.6 0 97.21 101.76 158.51 156.82 406.68 2.26 409.6 0"/><polygon class="cls-3" points="284.94 654.96 283.94 662.77 298.55 669.61 307.36 665.78 300.56 656.97 285.94 647.15 284.94 654.96"/><polygon class="cls-2" points="284.45 652.34 295.72 552.75 282.16 441.25 285.2 417.53 345.77 415.23 347.96 453.83 337.79 552.9 299.54 657.43 284.45 652.34"/><polygon class="cls-8" points="351.46 305.04 381.93 313.33 417.16 375.77 400.47 391.22 376.98 363.41 351.46 305.04"/><polygon class="cls-2" points="390.22 426.39 390.38 526.9 370.15 656.28 355.58 656.13 347.58 536.49 328.85 416.73 390.22 426.39"/><polygon class="cls-3" points="355.61 662.27 371.28 667.32 379.23 662.51 371.43 654.56 355.69 654.4 355.61 662.27"/><path class="cls-8" d="M351.61,527.66c.14-4.35.38-8,.42-9.28.31-11.69,1.35-23.34,2.81-34.94,1.31-10.4,3-36.21,4.74-46.54,1.47-8.53,6.59-29.82,10.29-37.73,9.2-19.68,6.36-21.5,46.76-27.34,17.7-2.56,21.89,8.48,36.36,21.16,1.43,1.26,1.35,8.71,1.68,10.68.59,3.48,1.21,6.94,1.93,10.4.56,2.71,1.18,5.42,1.88,8.1h0s12.15,55.3,20.19,67.05,24.63,28.16-3.14,38.19a99.31,99.31,0,0,1-15,3.91s-22.71-2.52-34.39-2.43a198.65,198.65,0,0,0-32.13,3c-7.08,1.18-14.29,2.9-20.62,6.2-6,3.16-10.39,7.79-16.51,11.06a3.21,3.21,0,0,1-1.88.54C351.48,549.19,351.32,536.83,351.61,527.66Z" transform="translate(-75.72 -67.09)"/><path class="cls-5" d="M416.67,377.38c-2,1-6.85,1.37-11.87-.6a2.62,2.62,0,0,1-1.68-2.46,68,68,0,0,1,.74-9.11c-3.77-1.32-8.12-3.3-8.77-7.24a11,11,0,0,1,.22-3.74q1.32-7.68,2.65-15.36a13.64,13.64,0,0,1,1.6-5.11c1.69-2.67,5-3.83,8.07-4.37,7.93-1.38,16.57.34,22.72,5.53a12.41,12.41,0,0,1,3.83,5.06c1.12,3.11.28,6.54-.55,9.74-.78,2.94-1.55,5.89-2.33,8.84-.89,3.39-2.17,7.24-5.44,8.51-1.73.68-3.78.48-5.35,1.48C417.74,370.31,418.11,374.43,416.67,377.38Z" transform="translate(-75.72 -67.09)"/><path class="cls-6" d="M462.43,327.8a34.77,34.77,0,0,1,2.55-3.67c2-2.51,4.54-4.66,6.18-7.44s2.21-6.55.25-9.11a10,10,0,0,0-5.32-3.07,38.68,38.68,0,0,0-20.34-.38c-6.34,1.62-12,4.29-18.38,1.9-6-2.23-10.32-1.32-16.58.91-6.78,2.42-15.88,3-22,6.4a18.15,18.15,0,0,0-6.2,6.12,27.25,27.25,0,0,0-.07,28.83,38.18,38.18,0,0,0,4.24,5.35c3.2,3.47,7,7.75,11.42,9,.1-3.93-3.48-16.34-.46-19.56,4.79-5.12,15.64-3.33,21.58-2.07,6.49,1.37,12.27,6,18.71,6.95,4.63.7,10.53-1.57,14.47-4C457.33,341.08,459.59,332.46,462.43,327.8Z" transform="translate(-75.72 -67.09)"/><polygon class="cls-8" points="307.36 312.31 282.16 334.39 254.03 393.49 289.55 435.74 295.66 412.11 307.36 312.31"/><polygon class="cls-3" points="480.11 334.42 168.51 357.88 331.63 443.28 480.11 334.42"/><path class="cls-3" d="M234.47,432.13l15.1,200.66,292.1-22c22.09-1.66,38.56-22.15,36.78-45.77l-11.88-157.9-158.26,116Z" transform="translate(-75.72 -67.09)"/><path class="cls-12" d="M499.93,405.72a54.19,54.19,0,0,0,0,8.16,53.59,53.59,0,0,0,7.3,23.27l48.62-35.64Z" transform="translate(-75.72 -67.09)"/><path class="cls-12" d="M557.5,463.39a53.72,53.72,0,0,0,13.1-2.64l-4-53.62L513.68,445.9A53.61,53.61,0,0,0,557.5,463.39Z" transform="translate(-75.72 -67.09)"/><circle class="cls-8" cx="566.2" cy="402.2" r="53.7" transform="translate(-194.28 451.07) rotate(-45)"/><polygon class="cls-13" points="501.65 364.47 489.07 365.22 486.61 323.82 478.75 324.29 478 311.72 498.43 310.5 501.65 364.47"/><path class="cls-3" d="M755,716.62a5.21,5.21,0,0,1,4.72-2,5.33,5.33,0,0,1,4,3,10.29,10.29,0,0,1,.68,3.4c-.15-1.8,1.09,20-7.53,22.26-3.35.86-6.13-1.53-7-4.54C748.48,734.18,750.47,721.61,755,716.62Z" transform="translate(-75.72 -67.09)"/><path class="cls-7" d="M752.17,626.26l.42,36.54c-.49,16.23,2,32.54,1.56,48.77-.11,3.73-1.09,7.67-.15,11.37s3.86,4.26,6.88,2.42c4-2.45,3.39-8.18,4.07-12.36,1.85-11.5,4-22.93,5.95-34.41.94-5.63-1-13.52-.58-19.21l5.9-30.62Z" transform="translate(-75.72 -67.09)"/><polygon class="cls-3" points="718.19 500.14 702.29 570.78 698.91 637.48 673.7 636.91 666.84 450.34 715.72 451.22 718.19 500.14"/><path class="cls-3" d="M718.94,715.3a5.11,5.11,0,0,1,4.8-1.75,5.43,5.43,0,0,1,3.82,3.22,10.3,10.3,0,0,1,.54,3.45c-.08-1.87-.11,20.19-8.46,21.83-3.38.66-6-1.89-6.8-4.95C711.69,732.48,714.21,720,718.94,715.3Z" transform="translate(-75.72 -67.09)"/><path class="cls-7" d="M732.23,631.39l-2.14,36.48c-.17,10.13-1.52,20.19-2.57,30.26-1,9.35.54,19.09-4.35,27.6-1.53,2.67-4.63,4.44-6.79,1.2-1.67-2.5-.68-6.66-1-9.5-1.31-11.56-2.93-23.09-4.32-34.64-.68-5.67,1.64-13.45,1.48-19.16l-4.45-30.86Z" transform="translate(-75.72 -67.09)"/><polygon class="cls-3" points="624.6 495.82 622.55 564.39 633.31 633.72 658.96 634.49 657.83 559.45 671.4 497.23 675.95 456.49 635.26 451.69 624.6 495.82"/><polygon class="cls-14" points="656.8 311.37 700.64 310.32 726.06 357.6 717.02 401.88 715.41 454.87 652.88 455.72 632.3 452.38 637.76 395.76 634.63 320.13 656.8 311.37"/><polygon class="cls-14" points="702.09 313.58 737.68 367.79 732.33 397.99 677.21 436.17 666.84 427.11 703.69 380.52 702.26 351.08 702.09 313.58"/><polygon class="cls-14" points="654.6 340.02 631.77 385.67 607.14 390.56 545.79 363.77 556.38 351.77 612.33 362.01 634.63 320.13 654.6 340.02"/><path class="cls-7" d="M735.26,341.73c6.61-19.22,32-12,37.21,5.09,3.41,11.16-5.21,25.65-16.77,28.85a11.16,11.16,0,0,0-.09,1.2,37.23,37.23,0,0,1-.5,5.35c-.1.66-10.22-1.28-11.35-1.5a1.54,1.54,0,0,1-1-.52c-.41-.63.25-2.51.33-3.21s.17-1.67.26-2.5c-5.71-2.79-9.31-8.72-10.31-14.75S733.28,347.5,735.26,341.73Z" transform="translate(-75.72 -67.09)"/><path class="cls-9" d="M751.81,324.36a10.06,10.06,0,0,1,2.29,5.16,8.05,8.05,0,0,1,.2,3.34c-.94,4.36-5.27,4.13-8.61,5.54a22.32,22.32,0,0,0-10,8.6c-3.62,5.76-2,13.17-.52,19.52.51,2.24,1.56,5.56-.18,7.56s-5.84,1.71-8,.67c-1.93-.95-3.52-2.72-5.64-3.07s-5.27.61-6.31-1.45a13.93,13.93,0,0,0-.69-1.8c-1.24-1.77-4.32.31-6.07-.94-1.07-.77-1.06-2.41-.7-3.7s1-2.61.72-3.93a12.92,12.92,0,0,0-1.54-3.06,6,6,0,0,1,.83-6.41c2.77-3.19,8.11-2.59,11.07-5.59,1.54-1.57,2.14-3.83,2.71-6s1.27-4.39,2.92-5.84c2-1.79,5-1.48,7-3.6,1.18-1.25,2-2.88,3.29-4,1.75-1.43,5.16-2.53,7.33-3.26A9.53,9.53,0,0,1,751.81,324.36Z" transform="translate(-75.72 -67.09)"/><path class="cls-9" d="M767.86,355c.12,6.32-3,13.16-.11,18.73s10.27,6.63,16.52,6.92c1,.05,14.21,1.19,14.26.94,1-4.41,2-8.9,4.31-12.77s6.16-7.07,10.56-7.35c-1.27-.22-1.91-1.78-1.76-3.09a19.87,19.87,0,0,1,1.22-3.76,8.87,8.87,0,0,0-2.31-8.89c-4.67-4.35-13.12-2.54-17.12-7.54-2.48-3.09-2.18-7.58-3.48-11.36-2.51-7.31-10.52-8.84-16.5-12.14-6.31-3.48-12.25-5.39-19.54-4.18-9,1.51-15.74,10.7-12.26,19.36C746.12,341,764,340,767.32,351.31A13.71,13.71,0,0,1,767.86,355Z" transform="translate(-75.72 -67.09)"/><polygon class="cls-6" points="687.67 311.12 674.07 330.34 667.67 329.82 657.02 310.32 687.67 311.12"/><path class="cls-13" d="M694.42,522.83a3.87,3.87,0,0,1-2.79-1.15l-31-31.76-19.25,24.63a3.4,3.4,0,0,1-2.74,1.36,4.48,4.48,0,0,1-4-2.83l-45.62-122.8a3.52,3.52,0,0,1,.87-3.95A3.38,3.38,0,0,1,592.6,385a3.85,3.85,0,0,1,1.46.3l121.63,48.64a4.16,4.16,0,0,1,2.69,3.3,4.1,4.1,0,0,1-1.74,3.83L692,459.36l30.91,31.69a4,4,0,0,1,0,5.63l-25.63,25a4.08,4.08,0,0,1-2.84,1.15Zm-34.17-42.92a4.16,4.16,0,0,1,2.91,1.16l31.36,32.16,19.92-19.44-31.3-32.09a3.87,3.87,0,0,1-1.14-3,4.39,4.39,0,0,1,1.8-3.11l22.62-16.78L599.7,396.09l40,107.75,17.67-22.62A3.58,3.58,0,0,1,660.25,479.91Z" transform="translate(-75.72 -67.09)"/><path class="cls-13" d="M724,490l-15-15.34-14.75-15.12,10.26-7.61,13-9.67a5.58,5.58,0,0,0,2.33-5.22,5.67,5.67,0,0,0-3.62-4.51L674.9,416l-65.34-26.13-8.89-3.55-6.06-2.43a5.5,5.5,0,0,0-2-.4,4.86,4.86,0,0,0-3.79,1.82,5,5,0,0,0-1.16,5.49l1.64,4.42,13.86,37.32,24.51,66,2.83,7.62,2.77,7.47a6,6,0,0,0,5.41,3.81,4.93,4.93,0,0,0,3.93-1.93l9.79-12.54,8.39-10.74,11.6,11.88,14,14.35,4.19,4.29a5.32,5.32,0,0,0,3.86,1.61,5.6,5.6,0,0,0,3.89-1.58l12.61-12.3,13-12.7A5.49,5.49,0,0,0,724,490Zm-2.13,5.61-25.62,25a2.62,2.62,0,0,1-1.8.72,2.41,2.41,0,0,1-1.72-.7l-4.19-4.3-28-28.68-20.3,26a1.93,1.93,0,0,1-1.56.78,2.94,2.94,0,0,1-2.59-1.85l-5.61-15.09q-12.26-33-24.5-66l-15.51-41.75a2,2,0,0,1,.57-2.4,1.88,1.88,0,0,1,1.57-.86,2.39,2.39,0,0,1,.9.19l15,6,65.34,26.12,41.35,16.54a2.53,2.53,0,0,1,.61,4.54l-26,19.32,2.19,2.24,29.92,30.67A2.52,2.52,0,0,1,721.84,495.61Z" transform="translate(-75.72 -67.09)"/><path class="cls-13" d="M684.21,460.66a2.54,2.54,0,0,1,.49-3.91l24.77-18.38-10.58-4.23L633.55,408l-36.43-14.57q1.86,5,3.73,10.06,12.25,33,24.5,66,7,18.71,13.9,37.42l19.32-24.74a2.11,2.11,0,0,1,1.68-.73,2.61,2.61,0,0,1,1.83.71l4.19,4.3,28.23,28.93,22.06-21.53-2.42-2.49Zm10.34,50.45-6.23-6.39-19.9-20.4-.64-.65L664.23,480a5.55,5.55,0,0,0-4-1.62,5.06,5.06,0,0,0-4,1.89l-9.66,12.36-6.36,8.14-4.81-12.95-7.22-19.43-24.5-66-1.38-3.71,30.16,12.06,32.67,13.06,32.66,13.06,5.42,2.17.18.07L695.51,445l-12.6,9.35a5.85,5.85,0,0,0-2.4,4.2,5.32,5.32,0,0,0,1.56,4.21l15,15.34,15,15.34.33.34Z" transform="translate(-75.72 -67.09)"/><polygon class="cls-6" points="517.13 321.99 562.75 444.8 584.62 416.8 618.73 451.77 631.54 439.27 644.36 426.77 610.24 391.8 638.76 370.63 517.13 321.99"/><polygon class="cls-7" points="654.68 431.87 654.91 439.27 641.86 444.02 634.34 438.32 634.34 429.71 641.6 429.31 641.83 427.41 644.2 425.88 654.68 431.87"/><polygon class="cls-5" points="259.14 354.95 266.52 345.09 281.51 342.18 289.58 350.23 275.29 365.11 259.14 354.95"/><polygon class="cls-5" points="378.42 340.7 385.8 330.84 400.79 327.93 408.86 335.98 394.57 350.86 378.42 340.7"/></g></svg>