<?xml version="1.0" encoding="utf-8"?>
<!-- Generator: Adobe Illustrator 25.1.0, SVG Export Plug-In . SVG Version: 6.00 Build 0)  -->
<svg version="1.1" id="Camada_1" xmlns="http://www.w3.org/2000/svg" xmlns:xlink="http://www.w3.org/1999/xlink" x="0px" y="0px"
	 viewBox="0 0 82 82" style="enable-background:new 0 0 82 82;" xml:space="preserve">
<style type="text/css">
	.st0{fill:none;}
	.st1{fill:#FFFFFF;}
</style>
<rect class="st0" width="82" height="82"/>
<g transform="translate(-11350 -22181)">
	<g transform="translate(972.586 2799.969)">
		<path class="st1" d="M10441.3,19400.6c2.4,2.4-4.3,13.2-5.5,14.3s-4,0.1-6.5-2.3c-2.4-2.4-3.5-5.3-2.3-6.5
			C10428.1,19404.9,10438.9,19398.2,10441.3,19400.6"/>
		<path class="st1" d="M10407.1,19403.2c-3.7-2.1-9-4.5-10.7-2.8s0.7,7.1,2.9,10.9C10401.2,19408,10403.9,19405.2,10407.1,19403.2"
			/>
		<path class="st1" d="M10437.6,19414.1c0.4,0.9,0.3,1.9-0.3,2.7c-1.3,1.3-4.8-0.1-8-3.1c-0.2-0.2-0.4-0.4-0.7-0.6
			c-1-1-1.9-2.2-2.6-3.5c-1.1-2-1.4-3.7-0.5-4.6c0.6-0.5,1.4-0.6,2.1-0.4c0.6-0.4,1.3-0.8,2-1.2c-10.8-5.6-24.2-1.4-29.9,9.4
			c-5.6,10.8-1.4,24.2,9.4,29.9s24.2,1.4,29.9-9.4c3.5-6.6,3.3-14.6-0.3-21.1C10438.3,19412.8,10437.9,19413.5,10437.6,19414.1"/>
	</g>
</g>
</svg>
