<svg id="Camada_1" data-name="Camada 1" xmlns="http://www.w3.org/2000/svg" viewBox="0 0 1681.51 370.55"><defs><style>.cls-1{fill:#c4cefe;}</style></defs><path class="cls-1" d="M308.27,132.15h14l40-40,2-17A179.9,179.9,0,0,0,71.64,162.9a21.82,21.82,0,0,1,14-.84l80-13.2s4.07-6.74,6.18-6.32a99.85,99.85,0,0,1,136.64-10.39Z" transform="translate(-16.1 -30.11)"/><path class="cls-1" d="M419.35,162.9A180.37,180.37,0,0,0,365,75.27l-56.17,56.18a99.84,99.84,0,0,1,36.65,79.2v10a50,50,0,1,1,0,100h-100l-10,10.11v60l10,10h100A130,130,0,0,0,419.35,162.9Z" transform="translate(-16.1 -30.11)"/><path class="cls-1" d="M145.37,400.09h100v-80h-100a49.7,49.7,0,0,1-20.65-4.5l-14,4.36-40.3,40-3.51,14a129.27,129.27,0,0,0,78.5,26.12Z" transform="translate(-16.1 -30.11)"/><path class="cls-1" d="M145.37,140.44a130,130,0,0,0-78.5,233.11l58-58A50,50,0,1,1,191,249.41l58-58A129.89,129.89,0,0,0,145.37,140.44Z" transform="translate(-16.1 -30.11)"/><path class="cls-1" d="M862.42,202.79H743.19v36h84.26a74.69,74.69,0,0,1-19.24,43.67,94.22,94.22,0,0,1-131.44-1.54A91.72,91.72,0,0,1,649.66,215a91.65,91.65,0,0,1,27.11-66.7,89,89,0,0,1,66-28.09,90.07,90.07,0,0,1,63.9,25.28l25-25.42a124.16,124.16,0,0,0-88.89-35.81A127.93,127.93,0,0,0,650.08,123a123.77,123.77,0,0,0-38.9,91.56,123.61,123.61,0,0,0,38.9,91.57,128,128,0,0,0,92.69,38.05h0a119.52,119.52,0,0,0,90.3-36.65,112.35,112.35,0,0,0,30.75-82.86A113.88,113.88,0,0,0,862.42,202.79Z" transform="translate(-16.1 -30.11)"/><polygon class="cls-1" points="726.66 314.09 726.66 314.09 726.66 314.09 726.66 314.09"/><path class="cls-1" d="M1026.94,304.72a85.82,85.82,0,0,1-62.49-25A87.63,87.63,0,0,1,939,214.28a87.63,87.63,0,0,1,25.42-65.44,85.78,85.78,0,0,1,62.49-25,76.41,76.41,0,0,1,62.92,28.79L1110.08,133a104.81,104.81,0,0,0-83.28-37.08c-1.56,0-3.12,0-4.68,0a115.72,115.72,0,0,0-113,118.37c0,1.56,0,3.12,0,4.68a115.7,115.7,0,0,0,117.69,113.7,119.06,119.06,0,0,0,51.68-11,110.34,110.34,0,0,0,38.9-29.63l-20.22-20.22A89.34,89.34,0,0,1,1026.94,304.72Z" transform="translate(-16.1 -30.11)"/><rect class="cls-1" x="1126.24" y="54.54" width="29.07" height="226.8"/><path class="cls-1" d="M1487.94,242.36a52.94,52.94,0,0,1-11.37,33.56,35.67,35.67,0,0,1-29.49,14q-38.34,0-38.34-43.39V156.41h-29.07v95.5a70.18,70.18,0,0,0,15,47.46,54.6,54.6,0,0,0,44.09,17.7,57.31,57.31,0,0,0,28.79-7.73,53.91,53.91,0,0,0,20.5-19.38h.85v21.49H1517v-155h-29.07Z" transform="translate(-16.1 -30.11)"/><path class="cls-1" d="M1333.47,175a81.31,81.31,0,0,0-114.59,0h0a82.09,82.09,0,0,0-22.47,59,79.84,79.84,0,1,0,159.53,0A82.17,82.17,0,0,0,1333.47,175Zm-21.77,99.71c-.62.65-1.26,1.29-1.91,1.91a49,49,0,0,1-69.29-1.91l.14-.14a56.16,56.16,0,0,1-15.16-40.59,56.17,56.17,0,0,1,15-40.72q.93-1,1.92-1.92a49,49,0,0,1,69.28,1.92,56.14,56.14,0,0,1,15,40.72A56.17,56.17,0,0,1,1311.7,274.66Z" transform="translate(-16.1 -30.11)"/><path class="cls-1" d="M1668.54,84.65v71.76l1.26,21.49h-1.26a53.75,53.75,0,0,0-21.06-19,65.81,65.81,0,0,0-31.74-7.58,68.23,68.23,0,0,0-52,23.73A84.26,84.26,0,0,0,1542,233.93a84.24,84.24,0,0,0,21.77,58.84,68.27,68.27,0,0,0,52,23.74,65.87,65.87,0,0,0,31.45-7.59,53.7,53.7,0,0,0,21.07-19h1.26v21.49h28.09V84.65ZM1655.48,274.8a47.94,47.94,0,0,1-70.22-.28,56.2,56.2,0,0,1-14-40.73,56.18,56.18,0,0,1,14-40.72c1-1.11,2.06-2.16,3.17-3.17a47.47,47.47,0,0,1,67,3.17,56.82,56.82,0,0,1,14,40.86A56.86,56.86,0,0,1,1655.48,274.8Z" transform="translate(-16.1 -30.11)"/></svg>