<?xml version="1.0" encoding="utf-8"?>
<!-- Generator: Adobe Illustrator 25.1.0, SVG Export Plug-In . SVG Version: 6.00 Build 0)  -->
<svg version="1.1" id="Camada_1" xmlns="http://www.w3.org/2000/svg" xmlns:xlink="http://www.w3.org/1999/xlink" x="0px" y="0px"
	 viewBox="0 0 909.4 124" style="enable-background:new 0 0 909.4 124;" xml:space="preserve">
<style type="text/css">
	.st0{fill:#B6BDD3;}
</style>
<g>
	<path class="st0" d="M328.9,101.3V35.4h20.2c10.1,0,18.2,3,24.3,9.2c6.1,6.1,9.1,14,9.1,23.8s-3,17.7-9.1,23.8s-14.2,9.2-24.3,9.2
		L328.9,101.3L328.9,101.3z M337.4,93.2h11.7c7.6,0,13.6-2.2,18.1-6.5s6.7-10.5,6.7-18.3s-2.2-13.9-6.7-18.3s-10.6-6.6-18.2-6.6
		h-11.7v49.7L337.4,93.2z"/>
	<path class="st0" d="M393.6,61.6c9.2-9.1,24.1-9.1,33.3,0c4.4,4.6,6.7,10.8,6.5,17.2c0.2,6.4-2.2,12.5-6.6,17.2
		c-9.2,9.1-24.1,9.1-33.3,0c-4.4-4.6-6.7-10.8-6.5-17.2C387,72.4,389.2,66.2,393.6,61.6z M399.9,90.6c5.4,5.7,14.4,6,20.1,0.6
		c0.2-0.2,0.4-0.4,0.6-0.6c2.9-3,4.4-6.9,4.4-11.8s-1.5-8.8-4.4-11.8c-5.4-5.7-14.4-6-20.1-0.6c-0.2,0.2-0.4,0.4-0.6,0.6
		c-2.9,3-4.4,6.9-4.4,11.8C395.6,83.7,397,87.6,399.9,90.6z"/>
	<path class="st0" d="M439.5,101.3V56.2h8.1v6.3h0.3c1.5-2.3,3.6-4.2,6-5.5c2.4-1.4,5.2-2.2,8-2.2c7,0,11.7,2.9,14.3,8.6
		c3.3-5.5,9.3-8.8,15.7-8.6c5.3,0,9.4,1.7,12.1,5.1s4,8,4,13.8v27.6h-8.5V75c0-4.5-0.8-7.8-2.5-9.7c-1.7-1.9-4.2-2.9-7.5-2.9
		s-6.3,1.6-8.2,4.2c-2.2,2.7-3.4,6.2-3.3,9.7v24.9h-8.5V75c0-4.5-0.8-7.8-2.5-9.7c-1.7-1.9-4.2-2.9-7.5-2.9s-6.3,1.6-8.2,4.2
		c-2.2,2.8-3.3,6.2-3.3,9.7v24.9h-8.5L439.5,101.3z"/>
	<path class="st0" d="M530.2,102.8c-4.4,0.1-8.6-1.3-12-4.1c-3.2-2.7-5-6.8-4.8-10.9c-0.2-4.6,2-8.9,5.7-11.5
		c4.1-2.9,9.1-4.4,14.1-4.2c5,0,9,0.9,12.2,2.8v-1.3c0.1-3-1.1-6-3.4-8c-2.3-2-5.3-3.1-8.4-3c-2.3,0-4.6,0.6-6.7,1.8
		c-1.9,1.1-3.4,2.8-4.1,4.8l-7.7-3.3c1.3-3,3.5-5.6,6.2-7.5c3.1-2.3,7.1-3.5,12.1-3.5c5.8,0,10.6,1.7,14.3,5.1
		c3.8,3.4,5.7,8.1,5.7,14.3v27.3h-8.1v-6.3h-0.4C541.7,100.2,536.7,102.8,530.2,102.8L530.2,102.8z M531.7,95c3.6,0,7-1.4,9.5-3.9
		c2.7-2.3,4.3-5.7,4.3-9.2c-2.4-2-6-3-10.8-3c-4.1,0-7.2,0.9-9.3,2.7c-1.9,1.5-3.1,3.8-3.1,6.3c0,2.1,1,4.1,2.8,5.2
		C527.1,94.4,529.4,95.1,531.7,95z"/>
	<path class="st0" d="M570.2,44.9c-2.5,2.2-6.3,1.9-8.5-0.7c-1.9-2.2-1.9-5.6,0-7.8c2.5-2.2,6.3-1.9,8.5,0.7
		C572.2,39.3,572.2,42.7,570.2,44.9z M570.2,101.3h-8.5V56.2h8.5V101.3z"/>
	<path class="st0" d="M587.1,56.2v6.3h0.4c1.4-2.3,3.4-4.2,5.8-5.5c2.6-1.5,5.5-2.3,8.5-2.2c5.6,0,9.8,1.7,12.8,5.2
		c2.9,3.4,4.4,8,4.4,13.8v27.6h-8.5V75c0-8.3-3.7-12.5-11.1-12.5c-3.4-0.1-6.5,1.5-8.5,4.2c-2.2,2.8-3.4,6.2-3.3,9.7v24.9h-8.5V56.2
		L587.1,56.2z"/>
	<path class="st0" d="M643.5,102.8c-5,0-9.2-1.2-12.5-3.7c-3.2-2.3-5.7-5.5-7.2-9.2l7.5-3.1c2.4,5.6,6.5,8.5,12.2,8.5
		c2.3,0.1,4.5-0.5,6.5-1.7c1.6-1,2.5-2.7,2.5-4.6c0-2.9-2.1-4.9-6.2-6l-9.1-2.2c-3-0.8-5.8-2.2-8.2-4.2c-2.5-2-4-5.1-3.9-8.3
		c0-3.9,2-7.6,5.3-9.7c3.7-2.5,8.1-3.8,12.6-3.7c3.7-0.1,7.4,0.9,10.7,2.7c3.1,1.7,5.4,4.5,6.7,7.8l-7.4,3c-1.7-4-5.1-6-10.3-6
		c-2.2-0.1-4.4,0.5-6.3,1.6c-1.6,0.8-2.6,2.5-2.6,4.2c0,2.6,2,4.3,6,5.2l8.9,2.2c4.2,1,7.4,2.7,9.4,5.1c2,2.2,3,5.1,3,8.1
		c0,4-1.8,7.7-5,10.1C653.1,101.4,648.8,102.8,643.5,102.8L643.5,102.8z"/>
	<path class="st0" d="M43.6,102.8c-20.5,0-37.8-16.7-37.8-37.2S23,28.4,43.6,28.4c9.5-0.2,18.7,3.5,25.5,10.2l-7.2,7.2
		c-4.9-4.7-11.5-7.3-18.3-7.2c-14.7,0-26.7,12-26.7,26.7v0.3c-0.2,14.7,11.6,26.9,26.3,27.1h0.4c9.7,0,15.2-3.9,18.8-7.4
		c2.9-2.9,4.8-7.1,5.5-12.8H43.3V62.2h34.5c0.4,2.1,0.6,4.2,0.5,6.4c0,7.6-2.1,17.1-8.8,23.8C63.1,99.1,54.7,102.8,43.6,102.8z"/>
	<path class="st0" d="M130,78.8c0,13.3-10.7,24-24,24s-24-10.7-24-24s10.7-24,24-24c13.1-0.2,23.8,10.3,24,23.3V78.8z M119.5,78.8
		c0-8.6-6.2-14.5-13.5-14.5s-13.5,5.9-13.5,14.5s6.3,14.5,13.5,14.5S119.5,87.3,119.5,78.8z"/>
	<path class="st0" d="M182.3,78.8c0,13.3-10.7,24-24,24s-24-10.7-24-24s10.7-24,24-24c13.1-0.2,23.8,10.3,24,23.3V78.8z M171.8,78.8
		c0-8.6-6.2-14.5-13.5-14.5s-13.5,5.8-13.5,14.5s6.2,14.5,13.5,14.5S171.8,87.3,171.8,78.8z"/>
	<path class="st0" d="M232.4,56.3v43.1c0,17.7-10.4,25-22.8,25c-9.3,0-17.7-5.6-21.2-14.2l9.2-3.8c1.6,3.9,5.6,8.5,12.1,8.5
		c7.9,0,12.8-4.9,12.8-14.1v-3.5h-0.4c-3.2,3.6-7.8,5.6-12.6,5.4c-12,0-23-10.4-23-23.9s11-24.1,23-24.1c4.8-0.1,9.4,1.8,12.6,5.3
		h0.4v-3.9h9.9V56.3z M223.1,78.9c0-8.4-5.6-14.6-12.8-14.6s-13.3,6.2-13.3,14.6s6.1,14.4,13.3,14.4S223.1,87.2,223.1,78.9z"/>
	<path class="st0" d="M250.5,30.8v70.5h-10.6V30.8L250.5,30.8z"/>
	<path class="st0" d="M291.3,86.7l8.2,5.4c-4.5,6.7-12,10.7-20,10.6c-13.6,0-23.8-10.5-23.8-24c0-14.3,10.3-24,22.6-24
		s18.5,10,20.5,15.3l1.1,2.8l-32,13.3c2.5,4.8,6.3,7.3,11.6,7.3S288.6,90.7,291.3,86.7L291.3,86.7z M266.1,78.1l21.4-8.9
		c-1.2-3-4.7-5.1-8.9-5.1c-7.3,0.3-12.9,6.5-12.5,13.7V78.1z"/>
</g>
</svg>
