<svg xmlns="http://www.w3.org/2000/svg" viewBox="0 0 1729.67 1702.56"><defs><style>.cls-1{fill:#003c99;}.cls-2{fill:#80b2ff;}.cls-3{fill:#c0daff;}.cls-4{fill:#66a2ff;}.cls-5{fill:#0046b3;}.cls-6{fill:#d1f5ff;}.cls-7{fill:#ff9f34;}.cls-8,.cls-9{fill:none;stroke-width:4px;}.cls-8{stroke:#b3d1ff;stroke-linejoin:round;}.cls-9{stroke:#003880;stroke-miterlimit:10;}.cls-10{fill:#fff;}.cls-11{fill:#0050cc;}.cls-12{fill:#005cea;}.cls-13{fill:#4d4d4d;}.cls-14{fill:#d9ffff;}.cls-15{fill:#4d93ff;}.cls-16{fill:#f7a58e;}.cls-17{fill:#00050d;}.cls-18{fill:#e6856a;}</style></defs><g id="shadow"><path class="cls-1" d="M2069.89,2071H492.08a10.94,10.94,0,0,1-10.94-11h0a10.94,10.94,0,0,1,10.94-10.94H2069.89a10.94,10.94,0,0,1,10.94,10.94h0A10.94,10.94,0,0,1,2069.89,2071Z" transform="translate(-418.64 -368.45)"/></g><g id="elements"><g id="cloud"><path class="cls-2" d="M498,888.16c.08-1,.13-2.07.13-3.11a39.74,39.74,0,1,0-79.48,0c0,1,.05,2.08.13,3.11Z" transform="translate(-418.64 -368.45)"/><path class="cls-2" d="M628.55,888.16c.08-1,.13-2.07.13-3.11a39.74,39.74,0,1,0-79.48,0c0,1,0,2.08.13,3.11Z" transform="translate(-418.64 -368.45)"/><path class="cls-2" d="M662.36,888.16a29,29,0,0,0,.18-3.11,28.11,28.11,0,1,0-56.21,0,26.64,26.64,0,0,0,.18,3.11Z" transform="translate(-418.64 -368.45)"/><path class="cls-2" d="M582.83,888.16a58.22,58.22,0,1,0-115.5,0Z" transform="translate(-418.64 -368.45)"/><path class="cls-2" d="M1477.19,434.08c.08-1,.13-2.07.13-3.12a39.74,39.74,0,0,0-79.48,0c0,1.05.05,2.09.13,3.12Z" transform="translate(-418.64 -368.45)"/><path class="cls-2" d="M1607.75,434.08c.08-1,.13-2.07.13-3.12a39.74,39.74,0,0,0-79.48,0c0,1.05,0,2.09.13,3.12Z" transform="translate(-418.64 -368.45)"/><path class="cls-2" d="M1562,434.08a58.22,58.22,0,1,0-116-7.41,60.42,60.42,0,0,0,.46,7.41Z" transform="translate(-418.64 -368.45)"/></g><g id="card"><path class="cls-3" d="M1268.41,890.4H1254.1a1.92,1.92,0,1,1,0-3.84h14.31a1.92,1.92,0,0,1,0,3.84Zm-28.63,0h-14.32a1.92,1.92,0,0,1,0-3.84h14.32a1.92,1.92,0,1,1,0,3.84Zm-28.64,0h-14.31a1.92,1.92,0,1,1,0-3.84h14.31a1.92,1.92,0,0,1,0,3.84Zm-28.63,0h-14.32a1.92,1.92,0,0,1,0-3.84h14.32a1.92,1.92,0,1,1,0,3.84Zm-28.64,0h-14.32a1.92,1.92,0,0,1,0-3.84h14.32a1.92,1.92,0,1,1,0,3.84Zm-28.63,0h-14.32a1.92,1.92,0,0,1,0-3.84h14.32a1.92,1.92,0,0,1,0,3.84Zm-28.64,0h-14.32a1.92,1.92,0,0,1,0-3.84h14.32a1.92,1.92,0,1,1,0,3.84Zm-28.63,0h-14.32a1.92,1.92,0,0,1,0-3.84H1068a1.92,1.92,0,0,1,0,3.84Zm-28.64,0H1025a1.92,1.92,0,0,1,0-3.84h14.32a1.92,1.92,0,1,1,0,3.84Zm-28.63,0H996.38a1.92,1.92,0,1,1,0-3.84h14.32a1.92,1.92,0,0,1,0,3.84Zm-28.64,0H967.74a1.92,1.92,0,0,1,0-3.84h14.32a1.92,1.92,0,1,1,0,3.84Zm-28.63,0H939.11a1.92,1.92,0,1,1,0-3.84h14.32a1.92,1.92,0,0,1,0,3.84Zm-28.64,0H910.47a1.92,1.92,0,0,1,0-3.84h14.32a1.92,1.92,0,1,1,0,3.84Zm-28.64,0H881.84a1.92,1.92,0,0,1,0-3.84h14.31a1.92,1.92,0,0,1,0,3.84Zm-28.63,0H853.2a1.92,1.92,0,0,1,0-3.84h14.32a1.92,1.92,0,0,1,0,3.84Zm-28.64,0H824.57a1.92,1.92,0,0,1,0-3.84h14.31a1.92,1.92,0,0,1,0,3.84Zm-28.63,0H795.93a1.92,1.92,0,1,1,0-3.84h14.32a1.92,1.92,0,0,1,0,3.84Zm-28.64,0H767.3a1.92,1.92,0,1,1,0-3.84h14.31a1.92,1.92,0,0,1,0,3.84Zm-28.63,0h-2.34a18.84,18.84,0,0,1-12.26-4.49,1.92,1.92,0,1,1,2.5-2.91,15,15,0,0,0,9.76,3.56H753a1.92,1.92,0,0,1,0,3.84ZM1282,887a1.92,1.92,0,0,1-1.16-3.45,13.5,13.5,0,0,0,5.5-10.78,1.92,1.92,0,0,1,1.92-1.92h0a1.92,1.92,0,0,1,1.92,1.92,17.33,17.33,0,0,1-7,13.84A1.93,1.93,0,0,1,1282,887ZM734.16,873.68a1.92,1.92,0,0,1-1.92-1.92V857.45a1.92,1.92,0,0,1,3.84,0v14.31A1.92,1.92,0,0,1,734.16,873.68Zm554.09-13.3a1.92,1.92,0,0,1-1.92-1.92V844.14a1.92,1.92,0,0,1,3.84,0v14.32A1.92,1.92,0,0,1,1288.25,860.38ZM734.16,845.05a1.92,1.92,0,0,1-1.92-1.92V828.81a1.92,1.92,0,0,1,3.84,0v14.32A1.92,1.92,0,0,1,734.16,845.05Zm554.09-13.31a1.91,1.91,0,0,1-1.92-1.91V815.51a1.92,1.92,0,0,1,3.84,0v14.32A1.91,1.91,0,0,1,1288.25,831.74ZM734.16,816.41a1.92,1.92,0,0,1-1.92-1.92V800.18a1.92,1.92,0,0,1,3.84,0v14.31A1.92,1.92,0,0,1,734.16,816.41Zm554.09-13.3a1.92,1.92,0,0,1-1.92-1.92V786.87a1.92,1.92,0,0,1,3.84,0v14.32A1.92,1.92,0,0,1,1288.25,803.11ZM734.16,787.78a1.92,1.92,0,0,1-1.92-1.92V771.54a1.92,1.92,0,0,1,3.84,0v14.32A1.92,1.92,0,0,1,734.16,787.78Zm554.09-13.31a1.91,1.91,0,0,1-1.92-1.91V758.24a1.92,1.92,0,0,1,3.84,0v14.32A1.91,1.91,0,0,1,1288.25,774.47ZM734.16,759.14a1.92,1.92,0,0,1-1.92-1.92V742.9a1.92,1.92,0,0,1,3.84,0v14.32A1.92,1.92,0,0,1,734.16,759.14Zm554.09-13.3a1.92,1.92,0,0,1-1.92-1.92V729.6a1.92,1.92,0,0,1,3.84,0v14.32A1.92,1.92,0,0,1,1288.25,745.84ZM734.16,730.5a1.91,1.91,0,0,1-1.92-1.91V714.27a1.92,1.92,0,0,1,3.84,0v14.32A1.91,1.91,0,0,1,734.16,730.5Zm554.09-13.3a1.92,1.92,0,0,1-1.92-1.91V701a1.92,1.92,0,0,1,3.84,0v14.32A1.92,1.92,0,0,1,1288.25,717.2ZM734.16,701.87a1.92,1.92,0,0,1-1.92-1.92V685.63a1.92,1.92,0,0,1,3.84,0V700A1.92,1.92,0,0,1,734.16,701.87Zm554.09-13.3a1.92,1.92,0,0,1-1.92-1.92V672.33a1.92,1.92,0,0,1,3.84,0v14.32A1.92,1.92,0,0,1,1288.25,688.57ZM734.16,673.23a1.91,1.91,0,0,1-1.92-1.91V657a1.92,1.92,0,0,1,3.84,0v14.32A1.91,1.91,0,0,1,734.16,673.23Zm554.09-13.3a1.92,1.92,0,0,1-1.92-1.91V643.7a1.92,1.92,0,0,1,3.84,0V658A1.92,1.92,0,0,1,1288.25,659.93ZM734.16,644.6a1.92,1.92,0,0,1-1.92-1.92V628.36a1.92,1.92,0,0,1,3.84,0v14.32A1.92,1.92,0,0,1,734.16,644.6Zm554.09-13.3a1.92,1.92,0,0,1-1.92-1.92V615.06a1.92,1.92,0,0,1,3.84,0v14.32A1.92,1.92,0,0,1,1288.25,631.3ZM734.16,616a1.91,1.91,0,0,1-1.92-1.91V599.73a2,2,0,0,1,1.92-2,1.89,1.89,0,0,1,1.92,1.88v14.39A1.91,1.91,0,0,1,734.16,616Zm554.09-13.3a1.92,1.92,0,0,1-1.92-1.92v-1a13.54,13.54,0,0,0-4.77-10.23,1.92,1.92,0,0,1,2.5-2.91,17.4,17.4,0,0,1,6.11,13.14v1A1.92,1.92,0,0,1,1288.25,602.66Zm-547.8-13.38a1.92,1.92,0,0,1-1.16-3.45,18.77,18.77,0,0,1,11.35-3.75H754a1.92,1.92,0,1,1,0,3.83h-3.39a14.85,14.85,0,0,0-9,3A1.91,1.91,0,0,1,740.45,589.28Zm529-3.37h-14.31a1.92,1.92,0,1,1,0-3.83h14.31a1.92,1.92,0,1,1,0,3.83Zm-28.63,0h-14.32a1.92,1.92,0,1,1,0-3.83h14.32a1.92,1.92,0,1,1,0,3.83Zm-28.64,0h-14.31a1.92,1.92,0,1,1,0-3.83h14.31a1.92,1.92,0,1,1,0,3.83Zm-28.63,0h-14.32a1.92,1.92,0,1,1,0-3.83h14.32a1.92,1.92,0,1,1,0,3.83Zm-28.64,0h-14.31a1.92,1.92,0,1,1,0-3.83h14.31a1.92,1.92,0,1,1,0,3.83Zm-28.63,0H1112a1.92,1.92,0,1,1,0-3.83h14.32a1.92,1.92,0,1,1,0,3.83Zm-28.64,0h-14.31a1.92,1.92,0,1,1,0-3.83h14.31a1.92,1.92,0,1,1,0,3.83Zm-28.63,0H1054.7a1.92,1.92,0,1,1,0-3.83H1069a1.92,1.92,0,1,1,0,3.83Zm-28.64,0h-14.32a1.92,1.92,0,0,1,0-3.83h14.32a1.92,1.92,0,1,1,0,3.83Zm-28.63,0H997.43a1.92,1.92,0,1,1,0-3.83h14.32a1.92,1.92,0,0,1,0,3.83Zm-28.64,0H968.79a1.92,1.92,0,0,1,0-3.83h14.32a1.92,1.92,0,1,1,0,3.83Zm-28.63,0H940.16a1.92,1.92,0,1,1,0-3.83h14.32a1.92,1.92,0,0,1,0,3.83Zm-28.64,0H911.52a1.92,1.92,0,0,1,0-3.83h14.32a1.92,1.92,0,1,1,0,3.83Zm-28.63,0H882.89a1.92,1.92,0,1,1,0-3.83h14.32a1.92,1.92,0,0,1,0,3.83Zm-28.64,0H854.25a1.92,1.92,0,0,1,0-3.83h14.32a1.92,1.92,0,1,1,0,3.83Zm-28.63,0H825.62a1.92,1.92,0,1,1,0-3.83h14.32a1.92,1.92,0,0,1,0,3.83Zm-28.64,0H797a1.92,1.92,0,1,1,0-3.83H811.3a1.92,1.92,0,1,1,0,3.83Zm-28.64,0H768.35a1.92,1.92,0,1,1,0-3.83h14.31a1.92,1.92,0,1,1,0,3.83Z" transform="translate(-418.64 -368.45)"/><path class="cls-4" d="M1308.19,844h-509a19.41,19.41,0,0,1-19.4-19.41V535.73a19.41,19.41,0,0,1,19.4-19.41h509a19.41,19.41,0,0,1,19.41,19.41V824.55A19.41,19.41,0,0,1,1308.19,844Z" transform="translate(-418.64 -368.45)"/><rect class="cls-5" x="361.11" y="209.75" width="547.85" height="56.54"/><path class="cls-6" d="M905.24,781.1H824.69a9.27,9.27,0,0,0-9.27,9.27h0a9.27,9.27,0,0,0,9.27,9.27h80.55a9.27,9.27,0,0,0,9.27-9.27h0A9.27,9.27,0,0,0,905.24,781.1Z" transform="translate(-418.64 -368.45)"/><path class="cls-6" d="M1029.11,781.1H948.56a9.27,9.27,0,0,0-9.27,9.27h0a9.27,9.27,0,0,0,9.27,9.27h80.55a9.27,9.27,0,0,0,9.27-9.27h0A9.27,9.27,0,0,0,1029.11,781.1Z" transform="translate(-418.64 -368.45)"/><path class="cls-6" d="M1153,781.1h-80.55a9.27,9.27,0,0,0-9.27,9.27h0a9.27,9.27,0,0,0,9.27,9.27H1153a9.27,9.27,0,0,0,9.27-9.27h0A9.27,9.27,0,0,0,1153,781.1Z" transform="translate(-418.64 -368.45)"/><path class="cls-6" d="M1276.86,781.1H1196.3a9.27,9.27,0,0,0-9.27,9.27h0a9.27,9.27,0,0,0,9.27,9.27h80.56a9.27,9.27,0,0,0,9.27-9.27h0A9.27,9.27,0,0,0,1276.86,781.1Z" transform="translate(-418.64 -368.45)"/><path class="cls-6" d="M821,533h0a10.23,10.23,0,0,0-10.24,10.23v3.6A10.23,10.23,0,0,0,821,557h0a10.23,10.23,0,0,0,10.23-10.23v-3.6A10.23,10.23,0,0,0,821,533Z" transform="translate(-418.64 -368.45)"/><path class="cls-6" d="M843,545h0a12,12,0,0,0,12,12h42.64a12,12,0,0,0,12-12h0a12,12,0,0,0-12-12H855.05A12,12,0,0,0,843,545Z" transform="translate(-418.64 -368.45)"/><rect class="cls-7" x="402.81" y="296.7" width="87.03" height="79.44" rx="15.98"/></g><g id="Gear"><path class="cls-8" d="M1907.46,777.24a191.14,191.14,0,0,0,3.81-75.41l7.76-1.16,15.32-2.29.2,0a214,214,0,0,0-28-78.49l-20.18,12a191.08,191.08,0,0,0-50.67-56l14-18.93a213.33,213.33,0,0,0-75.32-35.76l-5.79,22.85a190.83,190.83,0,0,0-75.41-3.81l-3.5-23.28a215.5,215.5,0,0,0-78.49,28l12,20.18a191.36,191.36,0,0,0-56,50.67l-18.93-14a213.3,213.3,0,0,0-35.76,75.33l22.85,5.79a190.79,190.79,0,0,0-3.81,75.4l-16.47,2.46-6.72,1.06-.08,0a215.3,215.3,0,0,0,28,78.49l20.18-12a191.76,191.76,0,0,0,50.76,56l-14,18.92A212.49,212.49,0,0,0,1668.51,939l5.79-22.85a191.26,191.26,0,0,0,75.49,3.84l2.69,18.09.8,5.18a215.07,215.07,0,0,0,78.41-28l-12-20.18a193.14,193.14,0,0,0,56.06-50.74l18.93,14A214.09,214.09,0,0,0,1930.31,783Zm-211.62,53.88a104.17,104.17,0,1,1,126.53-75.45A104.16,104.16,0,0,1,1695.84,831.12Z" transform="translate(-418.64 -368.45)"/><path class="cls-8" d="M1997.25,986.19a100.47,100.47,0,0,0-30.39-25.63l2-3.62,3.92-7.15,0-.1A112.8,112.8,0,0,0,1931,936.42l-1.39,12.29a100.69,100.69,0,0,0-39.6,3.41l-3.47-11.9a112.19,112.19,0,0,0-39,20.17l7.73,9.71a100.6,100.6,0,0,0-25.62,30.39l-10.87-6a113.21,113.21,0,0,0-13.27,41.83l12.29,1.39a100.7,100.7,0,0,0,3.41,39.6l-11.91,3.47a112.3,112.3,0,0,0,20.18,39l9.71-7.73a100.36,100.36,0,0,0,30.39,25.62l-4.22,7.69-1.69,3.15,0,0a113.59,113.59,0,0,0,41.82,13.27l1.4-12.29a100.87,100.87,0,0,0,39.63-3.44L1950,1158a111.77,111.77,0,0,0,39-20.14l-7.73-9.71a100.73,100.73,0,0,0,25.66-30.42l8.44,4.64,2.43,1.31a113,113,0,0,0,13.23-41.8l-12.28-1.39a101.61,101.61,0,0,0-3.41-39.66l11.91-3.47A113,113,0,0,0,2007,978.45Zm-44.84,105.86a54.85,54.85,0,1,1,8.69-77.07A54.84,54.84,0,0,1,1952.41,1092.05Z" transform="translate(-418.64 -368.45)"/><path class="cls-9" d="M1121.2,1551.94a115.93,115.93,0,0,0-35.06-29.57l2.28-4.18,4.53-8.26,0-.11a130.25,130.25,0,0,0-48.27-15.31l-1.6,14.18a116.27,116.27,0,0,0-45.7,3.94l-4-13.74a129.5,129.5,0,0,0-45,23.28l8.92,11.21a115.88,115.88,0,0,0-29.57,35.07l-12.54-6.87a130.86,130.86,0,0,0-15.32,48.27l14.18,1.6a116.27,116.27,0,0,0,3.94,45.7l-13.73,4a129.2,129.2,0,0,0,23.28,45l11.2-8.93a115.88,115.88,0,0,0,35.07,29.57l-4.87,8.87-2,3.64,0,0a131.09,131.09,0,0,0,48.27,15.31l1.61-14.18a116.44,116.44,0,0,0,45.73-4l4,13.73a129,129,0,0,0,45-23.25l-8.93-11.2a116.3,116.3,0,0,0,29.62-35.1L1142,1686l2.8,1.51a130.53,130.53,0,0,0,15.27-48.23l-14.18-1.6a117.49,117.49,0,0,0-3.93-45.78l13.74-4a130.25,130.25,0,0,0-23.29-44.92Zm-51.75,122.17a63.29,63.29,0,1,1,10-88.94A63.28,63.28,0,0,1,1069.45,1674.11Z" transform="translate(-418.64 -368.45)"/></g></g><g id="phone"><g id="phone-2" data-name="phone"><path class="cls-4" d="M1720.56,728.07c-11.1-65.79-112.41-95.49-110.42-52.55l-464.4,2.72c-32.17.19-58.25,29.12-58.28,64.66l-1,1221.38c0,36.81,26.51,66.92,59.29,67.2l474.08,4.07c2.94,6.17,8.45,11.8,17.12,16.49,54.37,1.16,80.45-25.69,90-56a73.16,73.16,0,0,0,4.72-26.65C1729.78,1953.45,1724,743.49,1720.56,728.07Z" transform="translate(-418.64 -368.45)"/><path class="cls-10" d="M1631.92,2052.23l-544.17-3.5c-34-.22-61.42-31.14-61.36-69l2-1256.07c.06-36.53,27.09-66.21,60.39-66.32l533.6-1.73c33.57-.11,61,29.52,61.3,66.22l9.67,1261.88C1693.68,2021.75,1666.16,2052.45,1631.92,2052.23Z" transform="translate(-418.64 -368.45)"/><path d="M1639.44,2043.1a50.84,50.84,0,0,1-6.88.43l-544-4.12c-29.17-.22-53-27.32-53-60.39l1.87-1254.69c0-31.89,23.53-57.92,52.15-58L1623.16,664c.84,0,1.68,0,2.51,0a50.49,50.49,0,0,1,35.35,17.2,60.27,60.27,0,0,1,15,39.95l9.55,1263.16C1685.83,2014.26,1666.05,2039.53,1639.44,2043.1Z" transform="translate(-418.64 -368.45)"/><polygon class="cls-11" points="1238.71 359.07 1247.88 1617.83 635.04 1614.16 636.6 359.07 1238.71 359.07"/></g><g id="login"><path class="cls-7" d="M1444.12,1360.93H1280.06a25.32,25.32,0,0,1-25.24-25.24h0a25.31,25.31,0,0,1,25.24-25.24h164.06a25.3,25.3,0,0,1,25.24,25.24h0A25.31,25.31,0,0,1,1444.12,1360.93Z" transform="translate(-418.64 -368.45)"/><rect class="cls-10" x="700.84" y="754.62" width="474.7" height="50.48" rx="25.24"/><path class="cls-10" d="M1568.93,1254.85H1144.71a25.32,25.32,0,0,1-25.24-25.24h0a25.32,25.32,0,0,1,25.24-25.24h424.22a25.32,25.32,0,0,1,25.24,25.24h0A25.32,25.32,0,0,1,1568.93,1254.85Z" transform="translate(-418.64 -368.45)"/><path class="cls-2" d="M1223.93,1231.84A8.89,8.89,0,1,1,1215,1223,8.89,8.89,0,0,1,1223.93,1231.84Z" transform="translate(-418.64 -368.45)"/><circle class="cls-2" cx="1245.51" cy="1231.84" r="8.89" transform="translate(-637.11 1825.41) rotate(-77.99)"/><circle class="cls-2" cx="1275.97" cy="1231.84" r="8.89" transform="translate(-915.96 894.6) rotate(-45)"/><circle class="cls-2" cx="1306.44" cy="1231.84" r="8.89" transform="translate(-907.03 916.14) rotate(-45)"/><circle class="cls-2" cx="1336.91" cy="1231.84" r="8.89" transform="translate(-788.28 236.93) rotate(-22.5)"/><circle class="cls-2" cx="1367.37" cy="1231.84" r="8.89" transform="translate(-564.31 1911.17) rotate(-76.72)"/><circle class="cls-2" cx="1397.84" cy="1231.84" r="8.89" transform="translate(-880.26 980.77) rotate(-45)"/><circle class="cls-2" cx="1428.31" cy="1231.84" r="8.89" transform="translate(-871.34 1002.31) rotate(-45)"/><circle class="cls-2" cx="1458.77" cy="1231.84" r="8.89" transform="translate(-779 283.57) rotate(-22.5)"/><circle class="cls-10" cx="1356.97" cy="954.93" r="97.52" transform="translate(-696.43 870.76) rotate(-45)"/><path class="cls-12" d="M1357.11,951A30.79,30.79,0,0,0,1381,939.29a30,30,0,0,0,6.59-19,30.64,30.64,0,1,0-61.28,0,30,30,0,0,0,6.6,19A30.9,30.9,0,0,0,1357.11,951Z" transform="translate(-418.64 -368.45)"/><path class="cls-12" d="M1411.16,1005.82c0,19.41-108.41,19.41-108.41,0l0-22.62c4.28-30.93,99.56-32.23,108.39,0Z" transform="translate(-418.64 -368.45)"/><path class="cls-13" d="M1165.75,1225v-1.35a9.93,9.93,0,0,0-19.86,0V1225h-1.51v17.9c0,3.09,22.94,3.09,22.94,0V1225Zm-16.32-1.35c0-3.44,2.12-6.56,6.39-6.56s6.46,2.92,6.46,6.56V1225h-12.85Zm8.08,10.37v5.17a1.64,1.64,0,0,1-1.72,1.59,1.53,1.53,0,0,1-1.59-1.59V1234a3,3,0,0,1-1.6-2.65,3.19,3.19,0,1,1,4.91,2.65Z" transform="translate(-418.64 -368.45)"/><path class="cls-13" d="M1155.85,1146.48a6.5,6.5,0,0,0,5-2.47,6.31,6.31,0,0,0,1.4-4,6.47,6.47,0,1,0-12.94,0,6.31,6.31,0,0,0,1.4,4A6.51,6.51,0,0,0,1155.85,1146.48Z" transform="translate(-418.64 -368.45)"/><path class="cls-13" d="M1167.25,1158.05c0,4.1-23,4.1-23,0l.12-4.77c.91-6.53,21-6.8,22.88,0Z" transform="translate(-418.64 -368.45)"/><path class="cls-2" d="M1304.44,1155.72h-93a7.42,7.42,0,0,1-7.4-7.41h0a7.42,7.42,0,0,1,7.4-7.4h93a7.43,7.43,0,0,1,7.41,7.4h0A7.43,7.43,0,0,1,1304.44,1155.72Z" transform="translate(-418.64 -368.45)"/><path class="cls-2" d="M1427.05,1155.72h-93a7.43,7.43,0,0,1-7.41-7.41h0a7.42,7.42,0,0,1,7.41-7.4h93a7.42,7.42,0,0,1,7.41,7.4h0A7.43,7.43,0,0,1,1427.05,1155.72Z" transform="translate(-418.64 -368.45)"/></g><g id="key"><path class="cls-10" d="M1231.8,1621.33v183.89c0,20.44,250,20.44,250,0V1621.33Z" transform="translate(-418.64 -368.45)"/><circle class="cls-12" cx="1356.82" cy="1690.79" r="30.87" transform="translate(-1019.1 2254.4) rotate(-76.72)"/><path class="cls-12" d="M925.53,1331.85h25.31a0,0,0,0,1,0,0v70.81a12.65,12.65,0,0,1-12.65,12.65h0a12.65,12.65,0,0,1-12.65-12.65v-70.81A0,0,0,0,1,925.53,1331.85Z"/><path class="cls-10" d="M1459.93,1608.22h-25.3v-12.38a77.81,77.81,0,0,0-155.61,0v12.38h-25.31v-12.38a103.11,103.11,0,1,1,206.22,0Z" transform="translate(-418.64 -368.45)"/></g></g><g id="shield"><path class="cls-14" d="M1565.93,1399.55h0v0Z" transform="translate(-418.64 -368.45)"/><path class="cls-14" d="M1565.93,1399.55h0v0Z" transform="translate(-418.64 -368.45)"/><path class="cls-14" d="M2148.3,1402.16v0Z" transform="translate(-418.64 -368.45)"/><path class="cls-14" d="M2148.3,1402.16v0Z" transform="translate(-418.64 -368.45)"/><path class="cls-10" d="M1858.19,1262.7c-64.47,69.06-167.33,125.65-277.41,149.76,0,7.36-.21,48.09-1,235.82-1.12,250.44,237.22,372.83,274.22,391.61,35.86-16.51,277.2-138.7,278.32-389.14.84-187.73,1-228.46,1.06-235.82C2023.47,1389.84,1922,1332.33,1858.19,1262.7Z" transform="translate(-418.64 -368.45)"/><path class="cls-2" d="M1857.61,1289.86c-66.46,61-158.53,108.89-259.77,135l-1,223.38c-.46,102.21,40.15,194.67,120.69,274.84,52.93,52.66,108.57,85.33,136.8,100l3.86-2V1290.38Z" transform="translate(-418.64 -368.45)"/><path class="cls-15" d="M1858.19,1290.38v730.73c29.36-15.28,82.72-46.85,133.83-96.81,81.25-79.43,122.68-171.53,123.14-273.74l1-223.38C2015.44,1400.24,1924.05,1351.69,1858.19,1290.38Z" transform="translate(-418.64 -368.45)"/><path class="cls-5" d="M2061,1514.28c-77.07,11.89-182,82.19-248.24,166.72-9.29-39.86-51-76.25-72.8-84.2l-66.08,66.43c41.26,18.59,86.35,71.28,92.33,125.22l66,10.23c27.83-55,99.72-186.5,242.73-257.21C2072.25,1530.7,2062.15,1515.82,2061,1514.28Z" transform="translate(-418.64 -368.45)"/></g><g id="lady"><path class="cls-16" d="M805.48,1113.27,793.85,1160l-2.11,8.69c-2.34,11-75.24,6.34-70.08-6.57l4.35-9.51,22.42-49.19Z" transform="translate(-418.64 -368.45)"/><path class="cls-16" d="M848.1,1044c.74,50.65-22.77,91.85-59.57,91.67s-72.41-31.4-73.7-92.32c-.82-38.81,30.18-70.14,67-70S847.53,1005.15,848.1,1044Z" transform="translate(-418.64 -368.45)"/><path d="M782.91,959.42s73.33,3.62,79.43,59.16c8.14,48.74-28.42,12.91-43.35,45.62-17.11,37.47.32,64.89,22.55,72.33-19.76,27.59-132.75,26.6-161.82-21.81C659.8,1054,688,962.79,782.91,959.42Z" transform="translate(-418.64 -368.45)"/><path class="cls-16" d="M834.33,1062.2a13.66,13.66,0,1,1-14.72-12.51A13.66,13.66,0,0,1,834.33,1062.2Z" transform="translate(-418.64 -368.45)"/><path class="cls-10" d="M823.1,2004.68c3.44-3.64,19.65-3.7,21.13,1.69s-1.38,9.23,5.47,17.76c-3.94,1.14-17.91,1.25-22.18,0S819.66,2008.32,823.1,2004.68Z" transform="translate(-418.64 -368.45)"/><path class="cls-17" d="M796.31,2023.08h39.51c3.69-167.2,3-349.21,1.66-486.29-.48-49.09-1.84-73.92-10.74-103.39-18-59.52-102.53-41.19-108.53,12.75-2.5,29.93-4.33,88.33,51,286.76C745.26,1820.28,787.06,1925,796.31,2023.08Z" transform="translate(-418.64 -368.45)"/><path class="cls-10" d="M858,2025.63c-5.82-.31-19.41-5.91-22-9.78-3.78,4.22-11.64,5.39-21.14,4-11.21-1.67-12.69-6.88-20.73-6.19-3.39,9.43-11.65,30.59-3.68,35.49H873.5C880.92,2042.35,880.72,2027.9,858,2025.63Z" transform="translate(-418.64 -368.45)"/><path class="cls-10" d="M621.94,2008.91c2.88-3.06,16.51-3.11,17.75,1.42s-1.15,7.76,4.6,14.93c-3.31,1-15,1-18.64,0S619.05,2012,621.94,2008.91Z" transform="translate(-418.64 -368.45)"/><path class="cls-17" d="M752.15,1444.63c-8.08-61.64-117.74-55.31-125-1.49-2.63,29-10.68,72.56,9.93,287.68-43.47,82.09-31.19,199.88-44.18,286.59-1.43,13.2,35.94,16.37,38.85,4.61,39.82-160.88,95.48-341.37,116.17-475.21C755.39,1498.29,756.15,1475.16,752.15,1444.63Z" transform="translate(-418.64 -368.45)"/><path class="cls-10" d="M651.34,2023.08c-5.82-.31-14.4-7.88-17-11.75-3.78,4.22-11,9.91-20.48,8.49-11.21-1.67-12.69-6.88-20.74-6.19-3.39,9.43-11.65,30.59-3.68,35.49h80.81C677.71,2042.35,674.11,2025.35,651.34,2023.08Z" transform="translate(-418.64 -368.45)"/><path class="cls-16" d="M937.09,1118.36l-20.45,4.53c.46,10.77-.83,28,0,46.93l34.4-4.53C945.8,1146.18,940.75,1129.43,937.09,1118.36Z" transform="translate(-418.64 -368.45)"/><path class="cls-10" d="M916.64,1169.82c-.77,37.62-1.77,53.73-2.08,68.55L812.5,1172.91c-31.1-9.44-67.37,52.12-28,79.89,0,0,135.93,76.75,166.5,54.64,16.54-12,12.25-97.75.09-142.15Z" transform="translate(-418.64 -368.45)"/><path class="cls-16" d="M946.33,1098.35c-9.45-11.08-30.2-7.22-31.77-6.92l2,30.66c.47,15.13,19.24,15.65,26.89,2.6C943.44,1124.69,954.52,1109.26,946.33,1098.35Z" transform="translate(-418.64 -368.45)"/><path class="cls-16" d="M924.6,1094.33c-6.88-33.39-13.84-28.92-13.84-28.92s1.12,11.8,4.23,32.62C917.32,1109.83,925.45,1102.71,924.6,1094.33Z" transform="translate(-418.64 -368.45)"/><path class="cls-10" d="M836.61,1260.88c6.93-33.73,10.65-67-24.11-88-20.61-12.42-86.86-21.28-117.84-11-31.21,13.95-24.46,74.79-30.31,170.86-21.51,48-30.86,63.7-37.23,110.4,0,0,11.51,35.19,92.58,35.24,36.81,0,91-3.26,115.69-22-2.46-31.85-15.78-62.53-21.33-107.62C814.06,1348.73,836.11,1264.75,836.61,1260.88Z" transform="translate(-418.64 -368.45)"/><path class="cls-10" d="M678,1168.66c-38,29-75.16,74.73-92.7,99s-63,121.75-63,121.75l28.91,21.32,78.21-106.56L725,1225.79C758.16,1192,715.07,1140.37,678,1168.66Z" transform="translate(-418.64 -368.45)"/><path class="cls-16" d="M510.22,1414.13,529,1375.4c4.4,11.65,25.86,22.27,32,22,0,0-20.15,29-25.08,33.93S510.63,1428,510.22,1414.13Z" transform="translate(-418.64 -368.45)"/><path class="cls-16" d="M540.65,1424.91c-.07.28,0,.68-.06,1-.94,14.09-11.78,20.76-14.71,22.34a1.57,1.57,0,0,1-.75.3c10.19-2,13.24,11.61,8,14.76-15,10.15-36.36-3.81-38.16-12.28s15.24-37,15.24-37C519,1406.93,541.27,1408,540.65,1424.91Z" transform="translate(-418.64 -368.45)"/><path class="cls-18" d="M540.59,1425.87c-.61,15.93-15,22.48-15.22,22.54-8.4-.24-11.39-.74-19.4-.72,5.23-2.55,16-9.34,11.8-22.51C526,1418.89,538.34,1424.38,540.59,1425.87Z" transform="translate(-418.64 -368.45)"/><path class="cls-16" d="M540.8,1424.06c2.21,13.15,1.28,31.88-1.85,40.12,0,0-8.06.43-7.3-14.8.19-4-.38-12.56-4.3-15.42-12.06-8-14-15.29-9.58-21.29C523.67,1404.67,540.34,1412.79,540.8,1424.06Z" transform="translate(-418.64 -368.45)"/><path class="cls-16" d="M503.46,1460c6.55,4.54,23.87,13.34,26.61,11.17S519,1454.24,510,1452.29,500.11,1457.67,503.46,1460Z" transform="translate(-418.64 -368.45)"/></g></svg>