<svg id="Ñëîé_1" data-name="Ñëîé 1" xmlns="http://www.w3.org/2000/svg" viewBox="0 0 293.41 247.52"><defs><style>.cls-1{fill:#5793ce;}.cls-2{fill:#c4d9e8;}.cls-3{fill:#d4ecff;}.cls-4{fill:#173d7a;}.cls-5{fill:#fff;}.cls-6{fill:#396caa;}.cls-7{fill:#d3d0cf;}.cls-8{fill:#f2f2f2;}.cls-9{fill:#ffc2b0;}.cls-10{fill:#ea9c92;}.cls-11{fill:#ff2c9c;}.cls-12{fill:#274f89;}.cls-13{fill:#d3008d;}</style></defs><rect class="cls-1" x="283.65" y="252.86" width="1.91" height="5.54" transform="translate(429.31 -117.63) rotate(75.62)"/><rect class="cls-1" x="280.91" y="255.54" width="1.91" height="5.54" transform="translate(429.86 -112.95) rotate(75.63)"/><rect class="cls-1" x="278.17" y="258.21" width="1.91" height="5.54" transform="translate(430.38 -108.29) rotate(75.63)"/><rect class="cls-1" x="275.44" y="260.88" width="1.91" height="5.54" transform="translate(430.9 -103.64) rotate(75.62)"/><path class="cls-2" d="M168.71,89.16l-50.39,29.57c-12.78-3.92-29.06-2.71-39.8,3.59-13.07,7.67-13,20,.19,27.44a40.13,40.13,0,0,0,9.92,3.89A53,53,0,0,0,96.5,155c10.48,1,21.67-.85,29.73-5.58,9.77-5.73,12.19-14,7.29-21l6.95-4.08-.19-4.41,7.31,0-.18-4.14,7.32,0-.19-4.13,7.32,0-.18-4.14,7.32,0-.19-4.13,7.81-.06,2.39-1.4,2.63-10.85ZM97.79,145.74a13.68,13.68,0,0,1-12.37.08c-3.43-1.95-3.45-5.14,0-7.14a13.65,13.65,0,0,1,12.37-.09C101.17,140.54,101.2,143.74,97.79,145.74Z" transform="translate(-32.27 -34.1)"/><path class="cls-2" d="M196.28,276.2l-68-39.08c-4.57-2.64-4-7.26,1.29-10.31l66-38.08c5.29-3,13.28-3.38,17.85-.74l68,39.08c4.58,2.64,4,7.25-1.28,10.3l-66,38.09C208.85,278.51,200.86,278.84,196.28,276.2Z" transform="translate(-32.27 -34.1)"/><path class="cls-1" d="M276,187.6l-11.75-6.79,43.33-25c2-1.18,2-3.1,0-4.28L263.28,126a8.22,8.22,0,0,0-7.42,0l-43.33,25-11.75-6.79,43.32-25c8.53-4.92,22.4-4.92,30.93,0l44.26,25.55c8.52,4.93,8.52,12.93,0,17.86Z" transform="translate(-32.27 -34.1)"/><path class="cls-3" d="M294.92,190.59c0-6.29-3.82-13.58-8.53-16.3L207.9,129c-2.11-1.22-4-1.31-5.53-.47h0L108.65,183l90.63,68.3,92.33-53.59a4,4,0,0,0,.82-.48h0C294,196,294.92,193.72,294.92,190.59Z" transform="translate(-32.27 -34.1)"/><path class="cls-4" d="M199.28,251.25l92.33-53.59a4,4,0,0,0,.82-.48h0c1.54-1.16,2.49-3.46,2.49-6.59a20.81,20.81,0,0,0-2.3-9.08L187.37,242.28Z" transform="translate(-32.27 -34.1)"/><path class="cls-1" d="M193.37,251l-78.49-45.32c-4.71-2.72-8.53-10-8.53-16.3h0c0-6.28,3.82-9.17,8.53-6.45l78.49,45.32c4.72,2.72,8.54,10,8.54,16.3h0C201.91,250.84,198.09,253.73,193.37,251Z" transform="translate(-32.27 -34.1)"/><path class="cls-5" d="M181.62,235.72l-9.44-5.44a4.07,4.07,0,0,1-1.7-3.25h0c0-1.25.76-1.83,1.7-1.29l9.44,5.45a4.06,4.06,0,0,1,1.7,3.25h0C183.32,235.69,182.56,236.26,181.62,235.72Z" transform="translate(-32.27 -34.1)"/><polygon class="cls-6" points="78.49 42.04 94.62 51.2 111.07 41.54 111.03 37.34 110.89 37.43 110.87 37.13 118.19 37.08 118.15 32.94 125.33 32.89 125.28 28.76 132.46 28.71 132.42 24.57 139.59 24.52 139.55 20.39 147.22 20.33 149.61 18.93 152.24 8.08 152.19 3.88 150.93 7.9 139.31 6.35 78.49 42.04"/><polygon class="cls-3" points="94.57 47 111.03 37.34 110.83 32.93 118.15 32.88 117.96 28.74 125.28 28.69 125.1 24.56 132.42 24.51 132.23 20.37 139.55 20.32 139.37 16.19 147.18 16.13 149.56 14.73 152.19 3.88 139.27 2.15 78.44 37.84 94.57 47"/><path class="cls-6" d="M137.8,74.67a22.64,22.64,0,0,0-7.48-6.45A38.51,38.51,0,0,0,122.6,65l-11.89,7,16.13,9.16Z" transform="translate(-32.27 -34.1)"/><polygon class="cls-1" points="151.75 5.7 152.19 3.88 150.03 3.59 98.64 33.74 101.34 35.28 151.75 5.7"/><polygon class="cls-7" points="39.51 55.29 39.33 49.32 41.24 53.35 39.51 55.29"/><path class="cls-6" d="M81.71,102.82c13.18,7.48,34.45,7.33,47.52-.34,6.56-3.84,9.8-8.85,9.75-13.82h0l-.18-6.33-1.08,1.2c-1.51-3.12-4.4-6-8.68-8.48-13.17-7.49-34.45-7.34-47.52.33S68.54,95.33,81.71,102.82Zm19-11.17c3.43,1.95,3.46,5.15.06,7.14a13.67,13.67,0,0,1-12.38.09c-3.43-1.95-3.45-5.15,0-7.14A13.65,13.65,0,0,1,100.74,91.65Z" transform="translate(-32.27 -34.1)"/><path class="cls-8" d="M81.53,96.85c13.18,7.48,34.46,7.34,47.53-.33s13-20-.2-27.44-34.45-7.34-47.52.33S68.36,89.36,81.53,96.85Zm19-11.17c3.43,1.95,3.45,5.15.05,7.14a13.67,13.67,0,0,1-12.38.09c-3.43-2-3.45-5.15,0-7.14A13.67,13.67,0,0,1,100.57,85.68Z" transform="translate(-32.27 -34.1)"/><path class="cls-1" d="M96.81,100.12a13.56,13.56,0,0,1-8.39-1.24c-2.46-1.4-3.15-3.44-2.1-5.22l-6-4.73-6.21-7c-4.81,7-2.28,15.3,7.57,20.9a41.64,41.64,0,0,0,14.74,4.68Z" transform="translate(-32.27 -34.1)"/><path class="cls-3" d="M81.53,96.85a40.13,40.13,0,0,0,9.92,3.89,54.23,54.23,0,0,0,7.88,1.36c10.48,1,21.66-.85,29.73-5.58,13.07-7.67,13-20-.2-27.44s-34.45-7.34-47.52.33S68.36,89.36,81.53,96.85Zm19-11.17c3.43,1.95,3.45,5.15.05,7.14a13.67,13.67,0,0,1-12.38.09c-3.43-2-3.45-5.15,0-7.14A13.67,13.67,0,0,1,100.57,85.68Z" transform="translate(-32.27 -34.1)"/><path class="cls-6" d="M75.31,83.25c.64-3.82,3.47-7.56,8.52-10.52,11.63-6.82,30.56-7,42.28-.29,5.83,3.31,8.77,7.67,8.84,12.06.84-5-2.06-10.12-8.7-13.89C114.53,64,95.6,64.08,84,70.91,78.12,74.34,75.24,78.81,75.31,83.25Z" transform="translate(-32.27 -34.1)"/><path class="cls-6" d="M67.38,137.56a13.13,13.13,0,0,1-6.59-1.7c-4.72-2.68-7.35-8.06-7.4-15.16-.09-13,8.92-28.82,20.09-35.37,6.12-3.59,12.09-4.09,16.81-1.41a13.18,13.18,0,0,1,4.89,4.89,20.36,20.36,0,0,1,2.51,10.27c.09,13-8.92,28.82-20.09,35.37A20.4,20.4,0,0,1,67.38,137.56ZM83.69,87a15.73,15.73,0,0,0-7.81,2.45c-9.86,5.79-17.82,19.8-17.74,31.23,0,5.33,1.81,9.26,5,11.07s7.47,1.32,12.06-1.38c9.87-5.78,17.83-19.8,17.75-31.23a16,16,0,0,0-1.86-7.91h0A8.25,8.25,0,0,0,83.69,87Z" transform="translate(-32.27 -34.1)"/><path class="cls-3" d="M89.89,97.49l9.38,2.3,1.35-7a13.67,13.67,0,0,1-12.38.09Z" transform="translate(-32.27 -34.1)"/><path class="cls-3" d="M81.53,96.85a40.13,40.13,0,0,0,9.92,3.89,54.23,54.23,0,0,0,7.88,1.36c10.48,1,21.66-.85,29.73-5.58l-38.21-.86Z" transform="translate(-32.27 -34.1)"/><path class="cls-6" d="M95.65,101.67a55.46,55.46,0,0,1-8.3-2.14v5.87a46.2,46.2,0,0,0,8.2,2.1C104.29,108.65,95.65,101.67,95.65,101.67Z" transform="translate(-32.27 -34.1)"/><path class="cls-1" d="M89.56,100.24a38.57,38.57,0,0,1-5.41-2c-5.11-2.4,1.36,6.47,1.36,6.47s1.74.69,4,1.4Z" transform="translate(-32.27 -34.1)"/><polygon class="cls-1" points="153.13 169.12 136.41 179.9 128.28 178.58 148.15 168.97 153.13 169.12"/><path class="cls-4" d="M165.19,257.65s-4.82-2.43-7.77,1.19-7.19,12.15-7.32,17.91,4.57,5.38,7.36,4,10.94-13.19,11.43-15.51-.58-5.45-1.36-6.06S165.19,257.65,165.19,257.65Z" transform="translate(-32.27 -34.1)"/><path class="cls-1" d="M166.24,256.49l.22,5a2.8,2.8,0,0,1-1.41,2.59,5.55,5.55,0,0,1-3.71.58c-3.63-.58-4-1.62-4.21-6.61S166.24,256.49,166.24,256.49Z" transform="translate(-32.27 -34.1)"/><path class="cls-4" d="M147.56,248.06s-4.81-2.43-7.77,1.19-7.18,12.15-7.31,17.91,4.56,5.38,7.35,4,10.95-13.2,11.44-15.51-.58-5.45-1.37-6.07S147.56,248.06,147.56,248.06Z" transform="translate(-32.27 -34.1)"/><path class="cls-1" d="M148.61,246.9l.23,5a2.84,2.84,0,0,1-1.41,2.59,5.57,5.57,0,0,1-3.72.58c-3.62-.58-4-1.62-4.21-6.61S148.61,246.9,148.61,246.9Z" transform="translate(-32.27 -34.1)"/><path class="cls-3" d="M191.58,155.32c-1.43-23.19-25.11,3.41-25.11,3.41l-16.21,15.89-14.6,16A14.41,14.41,0,0,0,132,202.21l5.91,45a4.41,4.41,0,0,0,4.43,3.84,15.69,15.69,0,0,0,2.19-.19,5.5,5.5,0,0,0,4.88-5.83l-1.08-42.06L179,184.46S193,178.5,191.58,155.32Z" transform="translate(-32.27 -34.1)"/><path class="cls-1" d="M160.07,195l-4.36-1.6c-.1,0-7.42,7.08-7.35,9.55l3.28,1.06,8.24-8Z" transform="translate(-32.27 -34.1)"/><path class="cls-1" d="M185.4,203.22s18.21-10.4,20.4-14.76c.85-1.71,2.18-3.49-3.14-6.08l-24.3,17.32,1.06,6Z" transform="translate(-32.27 -34.1)"/><path class="cls-3" d="M209.2,164.27c-1.52-23.18-25.11,3.41-25.11,3.41l-16.21,15.89-14.6,16a14.36,14.36,0,0,0-3.62,11.56l5.9,45A4.42,4.42,0,0,0,160,260a15.72,15.72,0,0,0,2.19-.2,5.48,5.48,0,0,0,4.88-5.82L166,211.89l30.66-18.48S210.59,185.46,209.2,164.27Z" transform="translate(-32.27 -34.1)"/><path class="cls-1" d="M195.19,89.72c17.95,7.45,17.59,18.06,17.59,18.06s-3.51,38.92-2.31,64.91c.5,10.86-57.72,11.69-49-17.29,10.24-34.18,6.4-61.85,11.19-66S190.54,87.8,195.19,89.72Z" transform="translate(-32.27 -34.1)"/><path class="cls-9" d="M201,99.14c-.94,3.64-5.72,5.56-10.67,4.29s-8.21-5.27-7.27-8.91,5.71-5.57,10.67-4.3S201.9,95.49,201,99.14Z" transform="translate(-32.27 -34.1)"/><path class="cls-5" d="M193.33,104.68a13.18,13.18,0,0,1-3.25-.42,11.87,11.87,0,0,1-6.29-3.86,6.84,6.84,0,0,1-1.59-6.1c1.05-4.1,6.31-6.3,11.71-4.91a12.06,12.06,0,0,1,6.3,3.86,6.88,6.88,0,0,1,1.59,6.1C201,102.62,197.45,104.68,193.33,104.68Zm-2.71-14c-3.33,0-6.12,1.55-6.76,4a5.18,5.18,0,0,0,1.26,4.59,10.29,10.29,0,0,0,5.39,3.28c4.49,1.15,8.8-.5,9.62-3.68a5.2,5.2,0,0,0-1.25-4.59,10.25,10.25,0,0,0-5.4-3.27A11.46,11.46,0,0,0,190.62,90.69Z" transform="translate(-32.27 -34.1)"/><path class="cls-9" d="M188,88.91a45.66,45.66,0,0,1-.16,6.42c-.09,1.78,6.17,3.46,7.79,1.84s1-3.31,1.36-9.39S188,88.91,188,88.91Z" transform="translate(-32.27 -34.1)"/><path class="cls-10" d="M197,87.78s-1.54,5.64-9.15,7.8l.12-5.13Z" transform="translate(-32.27 -34.1)"/><path class="cls-9" d="M201.79,73.43A13.82,13.82,0,1,1,185,63.51,13.81,13.81,0,0,1,201.79,73.43Z" transform="translate(-32.27 -34.1)"/><path class="cls-10" d="M191.59,77.4s-7.61,3.26-12.88,3.3-4.11-4.38-4.11-4.38l15.64-2.26Z" transform="translate(-32.27 -34.1)"/><path class="cls-11" d="M177.14,78.26s6.63-2.82,12.44-1.64a6.08,6.08,0,0,1,3.52,2.09,2.1,2.1,0,0,0,1.06.77c1,.23,2.72-4,4.72-4.15s3.35,1.33,1.7,4-1.09,5.57-.33,6S209,79.56,202,65.55s-25-6.47-27.84-3.63c0,0-3,2.57-5.34.28C168.77,62.2,166.09,82.31,177.14,78.26Z" transform="translate(-32.27 -34.1)"/><path class="cls-9" d="M202.71,136.21v10.52a4.28,4.28,0,0,1-1.4,3.16l-21.6,19.7,2.46,3.75,28.52-20.69a5.83,5.83,0,0,0,2.37-4.08L215,130.23Z" transform="translate(-32.27 -34.1)"/><path class="cls-1" d="M211.26,102.53s6.56,9.85,9,35.79c0,0-11.2,3.62-17.55,1.57S211.26,102.53,211.26,102.53Z" transform="translate(-32.27 -34.1)"/><path class="cls-6" d="M201.52,115s-2.57,13.73-2.72,20.18a4.13,4.13,0,0,0,2.72,4h0Z" transform="translate(-32.27 -34.1)"/><path class="cls-4" d="M195.91,183.26l-4.77-.63-30.82-17.79a4.29,4.29,0,0,0-3.86.16l-21.83,12.6-2.89-.38v2.87h0a1.14,1.14,0,0,0,.66,1l34.93,20.16a4.29,4.29,0,0,0,3.86-.16L195,187.38a1.54,1.54,0,0,0,.94-1.29h0Z" transform="translate(-32.27 -34.1)"/><path class="cls-6" d="M172.75,172l-2.18-1.27H146.49l-11.86,6.85-2.89-.38v2.87h0a1.14,1.14,0,0,0,.66,1l34.93,20.16a3.61,3.61,0,0,0,2,.37Z" transform="translate(-32.27 -34.1)"/><path class="cls-1" d="M133,177.39l-1.28-.17v2.87h0a1.14,1.14,0,0,0,.66,1l.62.35Z" transform="translate(-32.27 -34.1)"/><path class="cls-12" d="M167.68,201.43a4.47,4.47,0,0,0,3.28-.2v-4.89h-3.28Z" transform="translate(-32.27 -34.1)"/><path class="cls-5" d="M167.33,198.4,132.4,178.23c-1-.57-.86-1.56.28-2.22l23.78-13.73a4.29,4.29,0,0,1,3.86-.16l34.92,20.17c1,.57.87,1.56-.27,2.22l-23.78,13.73A4.29,4.29,0,0,1,167.33,198.4Z" transform="translate(-32.27 -34.1)"/><path class="cls-3" d="M166.74,195.34l-29-16.76c-.82-.48-.72-1.31.23-1.86l12.74-7.16a3.55,3.55,0,0,1,3.21-.13l29,16.76c.82.48.72,1.31-.23,1.85l-12.75,7.17A3.53,3.53,0,0,1,166.74,195.34Z" transform="translate(-32.27 -34.1)"/><path class="cls-9" d="M157.81,161.62l-.36,2.41a17.83,17.83,0,0,0,.16,6.18l.43,2.12a3,3,0,0,0,2.39,2.35h0a1.64,1.64,0,0,0,1.93-1.44l.58-5.15s1.32,1.73,2,1.73-.72-5.16-2.16-8.08S157.81,161.62,157.81,161.62Z" transform="translate(-32.27 -34.1)"/><path class="cls-9" d="M169.65,123.32l-3.74,7.42a14.55,14.55,0,0,0-1.54,5.63l-1.63,25.37-4.93-.12-2.23-28.49a10.61,10.61,0,0,1,.12-2.64l2.56-14.44Z" transform="translate(-32.27 -34.1)"/><path class="cls-4" d="M166.15,200.34l-2.93-3.83-30.8-17.83a4.27,4.27,0,0,1-1.78-3.42l0-25.21-1.77-2.31,1.67-1h0a1.14,1.14,0,0,1,1.21.07l34.9,20.21a4.27,4.27,0,0,1,1.78,3.42l0,27.46a1.56,1.56,0,0,1-.65,1.47h0Z" transform="translate(-32.27 -34.1)"/><path class="cls-6" d="M144.85,185.88l-2.19-1.27-12-20.86v-13.7l-1.77-2.31,1.67-1h0a1.14,1.14,0,0,1,1.21.07l34.9,20.21a3.54,3.54,0,0,1,1.31,1.54Z" transform="translate(-32.27 -34.1)"/><path class="cls-1" d="M129.68,148.76l-.79-1,1.67-1h0a1.14,1.14,0,0,1,1.21.07l.61.36Z" transform="translate(-32.27 -34.1)"/><path class="cls-12" d="M167,167.27a4.51,4.51,0,0,1,1.45,2.94l-3.41,2-1.63-2.83Z" transform="translate(-32.27 -34.1)"/><path class="cls-1" d="M165,168l-34.91-20.2c-1-.57-1.78,0-1.79,1.35l0,27.46a4.29,4.29,0,0,0,1.79,3.42l34.9,20.2c1,.58,1.79,0,1.79-1.35l0-27.46A4.33,4.33,0,0,0,165,168Z" transform="translate(-32.27 -34.1)"/><path class="cls-9" d="M182.17,173.34l-.56,1.16a7.79,7.79,0,0,1-2.92,3.23l-3.47,2.14a3.44,3.44,0,0,1-3.54.08l-.11-.07a2.08,2.08,0,0,1-.3-3.2l3.62-3.73s-2,1.56-2.6.93c-.42-.46,2-2.7,3.81-2.78a7.19,7.19,0,0,0,3.61-1.51Z" transform="translate(-32.27 -34.1)"/><path class="cls-1" d="M173,89.33S159.7,103.78,154.34,117A27.1,27.1,0,0,0,170,128.43C181.12,131.64,173,89.33,173,89.33Z" transform="translate(-32.27 -34.1)"/><path class="cls-6" d="M167.5,127.57l2.15-20.8-5.07,19.49A28.18,28.18,0,0,0,167.5,127.57Z" transform="translate(-32.27 -34.1)"/><path class="cls-5" d="M182.93,86.41l-3.57-1a8.58,8.58,0,0,0,4.19,3.36c2.49.69,2.88-1.42,2.88-1.42Z" transform="translate(-32.27 -34.1)"/><path class="cls-3" d="M115.19,54.46a10,10,0,1,1,10-10A10,10,0,0,1,115.19,54.46Zm0-17.81A7.82,7.82,0,1,0,123,44.47,7.83,7.83,0,0,0,115.19,36.65Z" transform="translate(-32.27 -34.1)"/><path class="cls-1" d="M317.28,126.5a7.09,7.09,0,1,1,7.09-7.09A7.1,7.1,0,0,1,317.28,126.5Zm0-12a4.91,4.91,0,1,0,4.91,4.91A4.91,4.91,0,0,0,317.28,114.5Z" transform="translate(-32.27 -34.1)"/><path class="cls-1" d="M84.87,254.56l-4.82-9.79L89.84,240l4.81,9.79ZM83,245.77l2.89,5.87,5.87-2.89-2.88-5.87Z" transform="translate(-32.27 -34.1)"/><path class="cls-1" d="M226.89,102.88l-4.81-9.78,9.79-4.81,4.81,9.78ZM225,94.09l2.89,5.87,5.87-2.88-2.89-5.87Z" transform="translate(-32.27 -34.1)"/><rect class="cls-1" x="68.08" y="195.73" width="5.01" height="5.01" transform="translate(-112.49 17.38) rotate(-26.18)"/><path class="cls-13" d="M248,49.79,221.3,34.35a1.35,1.35,0,0,0-1.38-.11v0l-2.59,1.5,1.82.66V55.86A5.16,5.16,0,0,0,221.3,60l25.56,14.75V77l2.62-1.51h0a1.88,1.88,0,0,0,.73-1.71V53.9A5.13,5.13,0,0,0,248,49.79Z" transform="translate(-32.27 -34.1)"/><path class="cls-11" d="M245.4,76.93,218.66,61.49a5.16,5.16,0,0,1-2.15-4.11V37.5c0-1.59,1-2.32,2.15-1.63L245.4,51.31a5.13,5.13,0,0,1,2.15,4.11V75.3C247.55,76.88,246.59,77.61,245.4,76.93Z" transform="translate(-32.27 -34.1)"/><path class="cls-5" d="M227.65,54.64c0,1.15-.81,1.61-1.8,1A4,4,0,0,1,224,52.55c0-1.15.81-1.61,1.81-1A4,4,0,0,1,227.65,54.64Z" transform="translate(-32.27 -34.1)"/><path class="cls-5" d="M233.12,57.79c0,1.15-.81,1.62-1.81,1a4,4,0,0,1-1.8-3.12c0-1.15.81-1.62,1.8-1A4,4,0,0,1,233.12,57.79Z" transform="translate(-32.27 -34.1)"/><path class="cls-5" d="M238.58,61c0,1.15-.81,1.62-1.8,1A4,4,0,0,1,235,58.87c0-1.15.81-1.62,1.81-1A4,4,0,0,1,238.58,61Z" transform="translate(-32.27 -34.1)"/><path class="cls-1" d="M63.2,218.94,37,203.79a1.33,1.33,0,0,0-1.36-.1v0l-2.54,1.47,1.79.65v19.1a5.06,5.06,0,0,0,2.11,4L62,243.4v2.24l2.57-1.48h0a1.89,1.89,0,0,0,.71-1.68V223A5,5,0,0,0,63.2,218.94Z" transform="translate(-32.27 -34.1)"/><path class="cls-3" d="M60.61,245.57,34.38,230.42a5,5,0,0,1-2.11-4V206.88c0-1.55.94-2.26,2.11-1.59l26.23,15.14a5.09,5.09,0,0,1,2.11,4V244C62.72,245.52,61.77,246.24,60.61,245.57Z" transform="translate(-32.27 -34.1)"/><path class="cls-5" d="M43.2,223.7c0,1.13-.79,1.59-1.77,1a3.9,3.9,0,0,1-1.77-3.06c0-1.13.79-1.59,1.77-1A3.92,3.92,0,0,1,43.2,223.7Z" transform="translate(-32.27 -34.1)"/><path class="cls-5" d="M48.56,226.8c0,1.12-.79,1.58-1.77,1A3.92,3.92,0,0,1,45,224.75c0-1.13.79-1.58,1.77-1A3.9,3.9,0,0,1,48.56,226.8Z" transform="translate(-32.27 -34.1)"/><path class="cls-5" d="M53.92,229.89c0,1.13-.79,1.59-1.77,1a3.91,3.91,0,0,1-1.77-3.06c0-1.13.8-1.59,1.77-1A3.89,3.89,0,0,1,53.92,229.89Z" transform="translate(-32.27 -34.1)"/></svg>