<?xml version="1.0" encoding="utf-8"?>
<!-- Generator: Adobe Illustrator 25.1.0, SVG Export Plug-In . SVG Version: 6.00 Build 0)  -->
<svg version="1.1" id="Camada_1" xmlns="http://www.w3.org/2000/svg" xmlns:xlink="http://www.w3.org/1999/xlink" x="0px" y="0px"
	 viewBox="0 0 436.1 369" style="enable-background:new 0 0 436.1 369;" xml:space="preserve">
<style type="text/css">
	.st0{fill:#E6E6E6;}
	.st1{fill:#F0F0F0;}
	.st2{fill:#F5F5F5;}
	.st3{fill:#FAFAFA;}
	.st4{fill:#FFFFFF;}
	.st5{opacity:0.6;fill:#E0E0E0;enable-background:new    ;}
	.st6{fill:#263238;}
	.st7{fill:#FFB573;}
	.st8{fill:#407BFF;}
	.st9{opacity:0.2;enable-background:new    ;}
	.st10{opacity:0.2;}
	.st11{opacity:0.4;enable-background:new    ;}
	.st12{opacity:0.3;fill:#407BFF;enable-background:new    ;}
	.st13{opacity:0.5;}
	.st14{fill:#ED893E;}
	.st15{opacity:0.4;fill:#FFFFFF;enable-background:new    ;}
	.st16{opacity:0.7;fill:#407BFF;enable-background:new    ;}
	.st17{opacity:0.4;fill:#263238;enable-background:new    ;}
	.st18{opacity:0.2;fill:#FFFFFF;enable-background:new    ;}
</style>
<rect y="259.6" class="st0" width="26.3" height="67.4"/>
<polygon class="st1" points="5,327 0,327 0,309.2 10.2,309.2 "/>
<rect x="150.2" y="259.6" class="st0" width="26.3" height="67.4"/>
<rect y="259.6" class="st1" width="154.6" height="62.5"/>
<polygon class="st1" points="149.6,327 154.6,327 154.6,309.2 144.3,309.2 "/>
<path class="st0" d="M149.9,314.6h-46.8v-48.1h46.8V314.6z M104.1,313.7H149v-46.2h-44.9V313.7z"/>
<path class="st0" d="M100.7,314.6H53.9v-48.1h46.8V314.6z M54.9,313.7h44.9v-46.2H54.9V313.7z"/>
<path class="st0" d="M51.5,314.6H4.7v-48.1h46.8V314.6z M5.6,313.7h44.9v-46.2H5.6V313.7z"/>
<rect x="209.6" y="59.9" class="st0" width="155.1" height="126.9"/>
<rect x="206.2" y="59.9" class="st2" width="157.1" height="126.9"/>
<rect x="212.4" y="66" class="st3" width="144.6" height="114.7"/>
<polygon class="st4" points="339.3,180.7 282.3,66 263,66 319.9,180.7 "/>
<polygon class="st4" points="314.4,180.7 257.5,66 244.2,66 301.1,180.7 "/>
<rect x="258.6" y="66" class="st0" width="7.5" height="114.7"/>
<rect x="308.3" y="66" class="st0" width="7.5" height="114.7"/>
<rect x="255.3" y="61.5" class="st2" width="9.4" height="123.1"/>
<rect x="305" y="61.5" class="st2" width="9.4" height="123.1"/>
<rect x="212.4" y="66" class="st0" width="0.7" height="114.7"/>
<path class="st0" d="M203.5,52.1h168.1c0.4,0,0.8,0.3,0.8,0.8l0,0c0,0.4-0.4,0.8-0.8,0.8c0,0,0,0,0,0H203.5c-0.4,0-0.8-0.3-0.8-0.8
	c0,0,0,0,0,0l0,0C202.7,52.4,203.1,52.1,203.5,52.1z"/>
<path class="st0" d="M364.8,57.2L364.8,57.2c0.6,0,1.1-0.5,1.1-1v-2.3c0-0.6-0.5-1.1-1.1-1l0,0c-0.6,0-1.1,0.5-1.1,1v2.3
	C363.7,56.7,364.2,57.2,364.8,57.2z"/>
<path class="st0" d="M215.7,57.2L215.7,57.2c0.6,0,1.1-0.5,1.1-1v-2.3c0-0.6-0.5-1.1-1.1-1l0,0c-0.6,0-1.1,0.5-1.1,1v2.3
	C214.6,56.7,215.1,57.2,215.7,57.2z"/>
<rect x="203.8" y="52.9" class="st5" width="157" height="63"/>
<path class="st3" d="M34,215.1h22.9c2.1,0,3.8,1.7,3.8,3.8v37.1c0,2.1-1.7,3.8-3.8,3.8H34c-2.1,0-3.8-1.7-3.8-3.8v-37.1
	C30.2,216.7,31.9,215.1,34,215.1z"/>
<path class="st0" d="M31.5,211.8h27.9c0.7,0,1.3,0.6,1.3,1.3v1.3c0,0.7-0.6,1.3-1.3,1.3H31.5c-0.7,0-1.3-0.6-1.3-1.3V213
	C30.2,212.3,30.8,211.8,31.5,211.8z"/>
<path class="st1" d="M123.5,227.3h16.6c1.5,0,2.7,1.2,2.7,2.7v26.9c0,1.5-1.2,2.7-2.7,2.7h-16.6c-1.5,0-2.7-1.2-2.7-2.7V230
	C120.8,228.5,122,227.3,123.5,227.3z"/>
<path class="st0" d="M121.7,224.9h20.2c0.5,0,0.9,0.4,0.9,0.9v1c0,0.5-0.4,0.9-0.9,0.9h-20.2c-0.5,0-0.9-0.4-0.9-0.9v-1
	C120.8,225.3,121.2,224.9,121.7,224.9z"/>
<path class="st1" d="M58.4,233.6h31.4c2.9,0,5.2,2.3,5.2,5.2v15.7c0,2.8-2.3,5.2-5.2,5.2H58.4c-2.9,0-5.2-2.3-5.2-5.2v-15.7
	C53.2,235.9,55.6,233.6,58.4,233.6z"/>
<path class="st2" d="M55,229.1h38.3c1,0,1.7,0.8,1.7,1.7v1.8c0,1-0.8,1.7-1.7,1.7H55c-1,0-1.7-0.8-1.7-1.7v-1.8
	C53.2,229.9,54,229.1,55,229.1z"/>
<rect x="220.3" y="250.1" class="st0" width="4.9" height="76.9"/>
<rect x="334.8" y="235.2" class="st0" width="26.4" height="15"/>
<rect x="203.4" y="235.2" class="st2" width="131.4" height="15"/>
<rect x="334.8" y="275.1" class="st0" width="26.4" height="15"/>
<rect x="203.4" y="275.1" class="st2" width="131.4" height="15"/>
<rect x="351.7" y="250.1" class="st0" width="4.9" height="76.9"/>
<rect x="329.9" y="250.1" class="st2" width="4.9" height="76.9"/>
<rect x="203.4" y="250.1" class="st2" width="4.9" height="76.9"/>
<rect x="14.2" y="66.3" class="st1" width="62.1" height="66.9"/>
<rect x="9.9" y="66.3" class="st2" width="65.5" height="66.9"/>
<rect x="15.3" y="71.6" class="st4" width="54.5" height="56.4"/>
<path class="st1" d="M33.6,83.5c-4.4,0-8.3,2.5-10.1,6.4c-2.2,5.3,0.3,11.4,5.6,13.6c0.1,0,0.2,0.1,0.3,0.1l40.6,16.4V97.3
	L37.8,84.3C36.5,83.8,35,83.5,33.6,83.5z"/>
<rect x="96.7" y="99.7" class="st1" width="62.1" height="66.9"/>
<rect x="92.3" y="99.7" class="st2" width="65.5" height="66.9"/>
<rect x="97.8" y="105" class="st4" width="54.5" height="56.4"/>
<path class="st1" d="M131.2,126.8l-33.4-13.5v23.4l24.7,10c5.7,2.3,12.1-0.2,14.7-5.8c2.3-5.4-0.2-11.7-5.7-14
	C131.4,126.9,131.3,126.8,131.2,126.8z"/>
<ellipse id="_Path_" class="st2" cx="188.9" cy="358.5" rx="187.8" ry="10.5"/>
<path class="st6" d="M134.7,79.4c0.9-3.9,11.1-7.6,19.8-1.9c7.9,5,11.3,14.7,8.2,23.5c-4.7,13.3,19.7,12.8,25.4,35.2
	c4.5,17.7,0.3,42.7-24.6,41.3c-38-2.1-34.8-37.8-36.4-56.5C125.5,102.3,104.7,81.3,134.7,79.4z"/>
<path class="st7" d="M122.1,129.5c-0.2,2.7-0.5,5.2-0.9,7.8c-0.4,2.6-0.9,5.1-1.5,7.6c-0.6,2.5-1.2,5.1-2,7.5
	c-0.8,2.5-1.7,5-2.8,7.4l-0.9,1.8c-0.1,0.3-0.4,0.7-0.5,1s-0.4,0.7-0.6,1c-0.8,1.2-1.7,2.4-2.7,3.4c-1.8,2-3.7,3.9-5.8,5.6
	c-4,3.4-8.3,6.5-12.7,9.3l-2.6-3.2c1.8-1.7,3.7-3.4,5.5-5.2c1.8-1.7,3.6-3.5,5.3-5.3c1.7-1.7,3.2-3.6,4.7-5.5
	c0.7-0.9,1.3-1.8,1.8-2.7c0.1-0.2,0.2-0.4,0.3-0.6s0.2-0.4,0.3-0.7l0.7-1.6c1.6-4.5,2.9-9.1,3.9-13.8c0.5-2.4,0.9-4.8,1.2-7.2
	s0.6-4.9,0.9-7.1L122.1,129.5z"/>
<path class="st8" d="M116.3,119.7c-3.5,0.9-5.8,14.4-5.8,14.4l13.2,8.6c0,0,5.4-16.1,2.8-19.8C123.6,119.2,121.3,118.5,116.3,119.7z
	"/>
<polygon class="st9" points="116.6,122.8 114,136.5 119.3,139.9 "/>
<path class="st7" d="M90.7,177.6l-8.9,1.4l5.1,5.4c0,0,5.2-1.1,6.1-4.4L90.7,177.6z"/>
<polygon class="st7" points="77.7,180 82.7,185.3 86.9,184.3 81.9,179 "/>
<polygon class="st7" points="134.9,348.6 126.6,348.6 126,330 134.4,330 "/>
<polygon class="st7" points="192.7,324.9 184.9,328 175.1,311.8 182.9,308.7 "/>
<path class="st6" d="M183.5,326.9l8.1-4.6c0.3-0.2,0.7-0.1,0.9,0.1l4.7,5.6c0.4,0.6,0.3,1.3-0.2,1.8c-0.1,0-0.1,0.1-0.2,0.1
	c-2.8,1.6-4.3,2.2-7.8,4.2c-2.2,1.2-7.3,5.5-10.3,7.2s-4.9-1-3.8-2c3.5-3,6.2-6.9,7.8-11.3C182.7,327.5,183,327.1,183.5,326.9z"/>
<path class="st6" d="M126.3,347.6h9.4c0.3,0,0.6,0.2,0.7,0.5l1.1,7.1c0.1,0.7-0.5,1.4-1.2,1.4c-0.1,0-0.1,0-0.2,0
	c-3.3-0.1-4.8-0.2-9-0.2c-2.5,0-7.8,0.2-11.3,0.2c-3.5,0-3.7-3.3-2.2-3.6c6.5-1.3,9.1-3.2,11.3-5
	C125.3,347.8,125.8,347.7,126.3,347.6z"/>
<g class="st10">
	<polygon points="126,330 126.3,339.6 134.7,339.6 134.4,330 	"/>
	<polygon points="182.9,308.7 175.1,311.8 180.2,320.1 187.9,317.1 	"/>
</g>
<path class="st8" d="M116.3,119.7c0,0-4,1.3,4,48.4h33.9c-0.6-13.3-0.6-21.4,6-48.6c-4.7-0.9-9.6-1.6-14.4-1.8
	c-5.1-0.4-10.3-0.4-15.4,0C123.8,118.2,116.3,119.7,116.3,119.7z"/>
<path class="st9" d="M157.4,130.3c-3.1,0.7-5.9,4-5.6,9.9c0.2,2.7,1.2,5.3,2.8,7.5c0.5-4.6,1.5-9.9,2.9-16.6L157.4,130.3z"/>
<path class="st3" d="M132.2,130.7c0,0,4.4,2.6,5.6,6.5c4.8-3.4,11.3-12.7,11.5-18.3c0-0.7-0.6-1.2-1.3-1.2c0,0,0,0,0,0
	c-0.7,0-1.5,0-2.2,0.1L132.2,130.7z"/>
<path class="st3" d="M132.2,130.7c0,0-4.4,2.6-5.6,6.5c-5.2-3.6-2.3-15.6,0.6-19.5c1-0.1,2.1-0.1,3.1,0L132.2,130.7z"/>
<path class="st7" d="M144.3,101c-1,4.8-1.9,13.5,1.6,16.6c-3.3,5.5-8,10-13.7,13c-6.9-5.3-1.8-13-1.8-13c5.5-1.3,5.4-5.2,4.4-8.9
	L144.3,101z"/>
<path class="st9" d="M140.4,104.2l-5.6,4.6c0.2,0.9,0.4,1.7,0.5,2.6c2.1-0.3,5.4-2,5.9-4.2C141.4,106.1,140.6,104.7,140.4,104.2z"/>
<path class="st7" d="M152.6,93.4c-2.3,7.6-3.1,10.9-8.1,14c-7.5,4.7-16.8,0.3-16.9-7.8c-0.1-7.3,3.6-18.6,12.3-20
	C148.3,78.2,154.9,85.7,152.6,93.4z"/>
<path class="st6" d="M135.4,80.2c0.4,2.6,15.1,10.9,17.9,6.6c2.8-4.3-1.2-7.6-7.5-8.4C142.3,77.8,138.6,78.5,135.4,80.2z"/>
<path class="st6" d="M145,81.6c-1.8,2.3,2,18.8,7.5,17.2s5.2-6.9,1.4-11.7C151.7,84.3,148.6,82.3,145,81.6z"/>
<path class="st8" d="M120.3,168.1c0,0-6.6,61.8-6,86.2c0.6,25.4,10.3,83.4,10.3,83.4h11.3c0,0-1.8-56.5-0.8-81.5
	c1.1-27.2,10.1-88.1,10.1-88.1L120.3,168.1z"/>
<path class="st11" d="M120.3,168.1c0,0-6.6,61.8-6,86.2c0.6,25.4,10.3,83.4,10.3,83.4h11.3c0,0-1.8-56.5-0.8-81.5
	c1.1-27.2,10.1-88.1,10.1-88.1L120.3,168.1z"/>
<polygon class="st6" points="136.8,338.1 123.6,338.1 122.6,334.1 137.4,333.6 "/>
<path class="st9" d="M134.9,183.5c-8.3,16.1-1.7,45.4,1.3,56.3c1.5-16.4,4.1-36.4,6-51.2C141,180.3,138.8,176.1,134.9,183.5z"/>
<path class="st8" d="M129.3,168.1c0,0,7.7,64.2,13.5,84.8c6.9,24.5,34.9,66.2,34.9,66.2l10.5-4.1c0,0-18.1-47.5-23.3-60.4
	c-11.2-27.5-1.6-68.5-10.6-86.5L129.3,168.1z"/>
<path class="st11" d="M129.3,168.1c0,0,7.7,64.2,13.5,84.8c6.9,24.5,34.9,66.2,34.9,66.2l10.5-4.1c0,0-18.1-47.5-23.3-60.4
	c-11.2-27.5-1.6-68.5-10.6-86.5L129.3,168.1z"/>
<polygon class="st6" points="189.6,315.1 176.5,320.2 173.4,316.8 188.5,310.1 "/>
<path class="st6" d="M35.5,86.4c-23.5,20-25.7,54.6-4.9,77.2s56.8,24.7,80.4,4.7s25.7-54.6,4.9-77.2S59,66.4,35.5,86.4z M105,161.9
	c-19.9,16.9-50.1,15.1-67.7-4c-17-18.2-15.8-46.7,2.5-63.5c0.5-0.5,1.1-1,1.6-1.4c19.8-16.9,50.1-15.1,67.7,4
	c17,18.2,15.8,46.7-2.5,63.5C106.1,160.9,105.5,161.4,105,161.9z"/>
<path class="st12" d="M70.5,169.5c-24.2-1.4-42.6-21.4-41.2-44.7c1.5-23.2,22.3-41,46.5-39.5s42.6,21.4,41.2,44.7
	S94.8,170.9,70.5,169.5z"/>
<g class="st13">
	<path class="st3" d="M75.9,85.3l-0.9-0.1L29.4,124c0,0.3,0,0.5-0.1,0.8c-0.6,9.2,2,18.3,7.2,25.9l65.1-55.4
		C94.4,89.3,85.4,85.8,75.9,85.3z"/>
	<path class="st3" d="M106,99.3l-65.8,55.9c2.2,2.4,4.7,4.6,7.4,6.5l64.2-54.5C110.1,104.3,108.2,101.6,106,99.3z"/>
</g>
<path class="st6" d="M118,168.8l-7.5,6.4c-1.2,1-2.9,0.9-3.9-0.2l0,0c-1-1-0.9-2.7,0.1-3.6c0,0,0.1-0.1,0.1-0.1l7.5-6.4
	c1.1-1,2.9-0.9,3.9,0.2l0,0c1,1,0.9,2.7-0.1,3.6C118.1,168.7,118.1,168.7,118,168.8z"/>
<path class="st6" d="M115.3,167.6c5.6,4.8,11.1,9.8,16.4,14.8s10.5,10.2,15.7,15.4c5.2,5.2,10.2,10.5,15.2,15.8
	c4.7,5.6,11.1,9.7,12.1,18.5c0.2,2.5-1.6,4.6-4.1,4.9c0,0,0,0,0,0c-0.5,0.1-1,0-1.5-0.1c-8.9-2-12.4-8.6-17.6-13.7
	c-4.9-5.4-9.7-10.9-14.5-16.4c-4.7-5.5-9.4-11.2-14-16.8s-9.1-11.5-13.3-17.4c-1.1-1.6-0.8-3.8,0.9-5c0,0,0.1-0.1,0.1-0.1
	C112.1,166.4,114,166.5,115.3,167.6z"/>
<path class="st6" d="M139.3,92.7c-0.1,0.6-0.6,1.1-1,1c-0.4-0.1-0.7-0.7-0.5-1.3s0.6-1.1,1-1C139.2,91.5,139.4,92.1,139.3,92.7z"/>
<path class="st6" d="M131.8,91.1c-0.1,0.6-0.6,1.1-1,1c-0.4-0.1-0.7-0.7-0.5-1.3s0.6-1.1,1-1S132,90.5,131.8,91.1z"/>
<path class="st6" d="M131.5,89.9l-1.5-0.8C130,89.1,130.6,90.5,131.5,89.9z"/>
<path class="st14" d="M133.9,92.7c-0.9,1.3-2,2.5-3.3,3.5c0.6,0.6,1.4,1,2.2,1L133.9,92.7z"/>
<path class="st6" d="M135.8,100.4c-0.3,0-0.7-0.1-1-0.1c-0.1,0-0.2-0.1-0.2-0.2c0,0,0,0,0,0c0-0.1,0.1-0.2,0.2-0.1
	c1.6,0.4,3.4,0,4.7-1c0.1-0.1,0.2-0.1,0.3,0c0.1,0.1,0.1,0.2,0,0.3C138.8,100.1,137.3,100.5,135.8,100.4z"/>
<path class="st7" d="M153.1,101c-0.9,1.3-2.3,2.2-3.9,2.4c-2.1,0.4-2.9-1.5-2.2-3.3c0.7-1.6,2.6-3.8,4.6-3.3c1.4,0.3,2.3,1.7,2,3
	C153.6,100.3,153.4,100.7,153.1,101z"/>
<path class="st6" d="M142.4,89.9c-0.2,0.1-0.3,0-0.4-0.1c-1.1-1.4-3.5-1.4-3.5-1.4c-0.2,0-0.4-0.2-0.4-0.4c0,0,0,0,0,0
	c0-0.2,0.2-0.4,0.4-0.4c0.1,0,2.8,0,4.1,1.7c0.1,0.2,0.1,0.4-0.1,0.5c0,0,0,0,0,0L142.4,89.9z"/>
<path class="st6" d="M130.3,85.9c-0.1,0-0.3-0.1-0.3-0.2c-0.1-0.2,0-0.4,0.2-0.5c0,0,0,0,0,0c1.1-0.6,2.5-0.6,3.6-0.1
	c0.2,0.1,0.3,0.3,0.2,0.5c0,0,0,0,0,0c-0.1,0.2-0.4,0.2-0.5,0.1c-0.9-0.4-2-0.4-2.8,0.1C130.5,85.9,130.4,85.9,130.3,85.9z"/>
<path class="st8" d="M180.3,329.9h-0.1c-0.4-0.1-0.7-0.3-0.8-0.7c-0.1-0.2-0.1-0.5,0.1-0.7c0.6-0.9,3.6-0.7,4-0.7
	c0.1,0,0.2,0.1,0.2,0.1c0,0.1,0,0.2-0.1,0.2C182.7,328.9,181.3,330,180.3,329.9z M182.9,328.2c-1.2,0-2.8,0.1-3.2,0.6
	c-0.1,0.1-0.1,0.2,0,0.3c0.1,0.2,0.3,0.4,0.5,0.5C180.8,329.6,181.8,329.1,182.9,328.2L182.9,328.2z"/>
<path class="st8" d="M183.1,328.2c-1-0.1-2.9-0.8-3.2-1.6c-0.1-0.3,0-0.6,0.3-0.8c0.2-0.2,0.6-0.3,0.9-0.2c1.2,0.2,2.4,2.2,2.5,2.3
	c0,0.1,0,0.1,0,0.2c0,0.1-0.1,0.1-0.2,0.1L183.1,328.2z M180.9,326c-0.2,0-0.3,0-0.5,0.1c-0.2,0.1-0.2,0.3-0.2,0.4
	c0.2,0.5,1.7,1.2,2.7,1.3C182.5,327.2,181.7,326.1,180.9,326L180.9,326z"/>
<path class="st8" d="M123.2,349c-0.7,0.1-1.4-0.1-2-0.5c-0.3-0.2-0.4-0.6-0.4-0.9c0-0.2,0.1-0.4,0.3-0.5c1-0.5,4.3,1.1,4.7,1.3
	c0.1,0,0.1,0.1,0.1,0.2c0,0.1-0.1,0.1-0.2,0.2C124.9,348.9,124.1,349,123.2,349z M121.7,347.4c-0.1,0-0.2,0-0.4,0.1
	c-0.1,0-0.1,0.1-0.1,0.2c0,0.2,0.1,0.5,0.2,0.6c0.5,0.4,1.9,0.5,3.7,0.2C124.1,347.9,122.9,347.6,121.7,347.4z"/>
<path class="st8" d="M125.8,348.8L125.8,348.8c-1.1-0.4-3-2.2-2.9-3.1c0-0.2,0.2-0.5,0.7-0.5c0.4,0,0.8,0.1,1.1,0.3
	c1.1,0.9,1.2,3,1.3,3.1c0,0.1,0,0.1-0.1,0.2C125.8,348.8,125.8,348.8,125.8,348.8z M123.8,345.5h-0.1c-0.4,0-0.4,0.2-0.4,0.2
	c-0.1,0.5,1.2,1.9,2.3,2.5c-0.1-0.9-0.5-1.8-1.1-2.5C124.3,345.6,124,345.5,123.8,345.5z"/>
<path class="st6" d="M139,91.5l-1.5-0.8C137.5,90.7,138,92.1,139,91.5z"/>
<path class="st8" d="M154.7,166.2l0.9,2.9c0.1,0.2-0.2,0.5-0.6,0.5h-34.9c-0.3,0-0.6-0.1-0.6-0.3l-0.3-2.9c0-0.2,0.2-0.4,0.6-0.4
	h34.3C154.4,165.9,154.6,166,154.7,166.2z"/>
<path class="st9" d="M154.7,166.2l0.9,2.9c0.1,0.2-0.2,0.5-0.6,0.5h-34.9c-0.3,0-0.6-0.1-0.6-0.3l-0.3-2.9c0-0.2,0.2-0.4,0.6-0.4
	h34.3C154.4,165.9,154.6,166,154.7,166.2z"/>
<path class="st8" d="M150,169.9h0.9c0.2,0,0.3-0.1,0.3-0.2l-0.4-3.8c0-0.1-0.2-0.2-0.4-0.2h-0.9c-0.2,0-0.3,0.1-0.3,0.2l0.4,3.8
	C149.7,169.8,149.8,169.9,150,169.9z"/>
<path class="st15" d="M150,169.9h0.9c0.2,0,0.3-0.1,0.3-0.2l-0.4-3.8c0-0.1-0.2-0.2-0.4-0.2h-0.9c-0.2,0-0.3,0.1-0.3,0.2l0.4,3.8
	C149.7,169.8,149.8,169.9,150,169.9z"/>
<path class="st8" d="M122.7,169.9h0.9c0.2,0,0.3-0.1,0.3-0.2l-0.4-3.8c0-0.1-0.2-0.2-0.4-0.2h-0.9c-0.2,0-0.3,0.1-0.3,0.2l0.4,3.8
	C122.4,169.8,122.6,169.9,122.7,169.9z"/>
<path class="st15" d="M122.7,169.9h0.9c0.2,0,0.3-0.1,0.3-0.2l-0.4-3.8c0-0.1-0.2-0.2-0.4-0.2h-0.9c-0.2,0-0.3,0.1-0.3,0.2l0.4,3.8
	C122.4,169.8,122.6,169.9,122.7,169.9z"/>
<path class="st8" d="M136.3,169.9h0.9c0.2,0,0.3-0.1,0.3-0.2l-0.4-3.8c0-0.1-0.2-0.2-0.4-0.2h-0.9c-0.2,0-0.3,0.1-0.3,0.2l0.4,3.8
	C136,169.8,136.1,169.9,136.3,169.9z"/>
<path class="st15" d="M136.3,169.9h0.9c0.2,0,0.3-0.1,0.3-0.2l-0.4-3.8c0-0.1-0.2-0.2-0.4-0.2h-0.9c-0.2,0-0.3,0.1-0.3,0.2l0.4,3.8
	C136,169.8,136.1,169.9,136.3,169.9z"/>
<path class="st7" d="M133.8,174.6l-8.2-3.5l2.3,7.8c0,0,5.2,1.1,7.5-1.4L133.8,174.6z"/>
<path class="st7" d="M164.2,129.1c0.4,2.7,0.7,5.5,1,8.3l0.9,8.3c0.3,2.8,0.5,5.5,0.8,8.3l0.4,4.1l0.1,1c0,0.1,0,0.5,0.1,0.9
	c0,0.3,0,0.6,0,1c-0.1,1.2-0.5,2.3-1.1,3.4c-1,1.6-2.3,3-3.9,4.1c-1.3,0.9-2.7,1.8-4.1,2.5c-2.7,1.4-5.5,2.5-8.4,3.4
	c-2.8,0.9-5.7,1.7-8.5,2.4s-5.7,1.3-8.6,1.7l-0.9-4c2.7-0.9,5.4-1.7,8-2.7c2.6-1,5.3-1.9,7.8-3c2.5-1.1,4.9-2.3,7.2-3.6
	c1.1-0.6,2.1-1.3,3-2.1c0.7-0.6,1.4-1.3,1.8-2.1c0.1-0.2,0.2-0.4,0.2-0.6c0,0,0-0.1,0-0.1c0,0,0,0,0-0.2l-0.2-1l-0.6-4.1
	c-0.4-2.7-0.8-5.5-1.2-8.2l-1.1-8.3c-0.3-2.8-0.7-5.5-0.9-8.3L164.2,129.1z"/>
<path class="st8" d="M160.2,119.5c3.4,1,7.5,12.2,7.5,12.2l-11.9,11.8c0,0-6.1-12.1-4.7-16.3C152.6,122.8,156.3,118.4,160.2,119.5z"
	/>
<polygon class="st7" points="118.8,172.7 121.1,179.2 128,178.9 125.6,171.1 "/>
<path class="st6" d="M233.8,149.6c2.2-15.3-8.9-27.7-24.8-27.7h116.3c15.9,0,27,12.4,24.8,27.7H233.8z"/>
<path class="st16" d="M233.8,149.6c2.2-15.3-8.9-27.7-24.8-27.7h116.3c15.9,0,27,12.4,24.8,27.7H233.8z"/>
<path class="st8" d="M208.9,121.9h116.3c-15.9,0-30.6,12.4-32.8,27.7l-26.3,181.2c-2.2,15.3-16.9,27.7-32.8,27.7h-58.7
	c-15.9,0-27-12.4-24.8-27.7l26.3-181.2C178.3,134.3,193,121.9,208.9,121.9z"/>
<path class="st6" d="M208.4,330.8c-2.2,15.3,8.9,27.7,24.8,27.7H116.9c-15.9,0-27-12.4-24.8-27.7H208.4z"/>
<path class="st16" d="M208.4,330.8c-2.2,15.3,8.9,27.7,24.8,27.7H116.9c-15.9,0-27-12.4-24.8-27.7H208.4z"/>
<path class="st15" d="M227.1,178.2h45.1c1.3,0,2.5-1,2.7-2.3l0,0c0.2-1.1-0.6-2.1-1.6-2.3c-0.1,0-0.3,0-0.4,0h-45.1
	c-1.3,0-2.5,1-2.7,2.3l0,0c-0.2,1.1,0.6,2.1,1.6,2.3C226.8,178.2,227,178.2,227.1,178.2z"/>
<path class="st15" d="M225.9,186.8H259c1.3,0,2.5-1,2.7-2.3l0,0c0.2-1.1-0.6-2.1-1.6-2.3c-0.1,0-0.3,0-0.4,0h-33.1
	c-1.3,0-2.5,1-2.7,2.3l0,0c-0.2,1.1,0.6,2.1,1.6,2.3C225.6,186.8,225.7,186.8,225.9,186.8z"/>
<ellipse transform="matrix(0.8186 -0.5744 0.5744 0.8186 -66.7112 146.1635)" class="st15" cx="198" cy="178.7" rx="15.2" ry="13.1"/>
<path class="st4" d="M185.2,178.7c-0.3,2-0.1,4,0.7,5.9c1.6,3.8,5.5,6.5,10.4,6.5c4.9-0.1,9.4-2.5,12.2-6.5c1.3-1.7,2.1-3.8,2.4-5.9
	c1-6.8-4-12.3-11.1-12.3C192.7,166.4,186.2,171.9,185.2,178.7z"/>
<path class="st17" d="M188.7,183.4c1.4,3.1,4.5,5.1,7.9,5c3.7-0.1,7.2-1.9,9.4-5c-2.4-1.7-5.3-2.6-8.3-2.5
	C194.5,180.9,191.4,181.8,188.7,183.4z"/>
<path class="st17" d="M194.1,175.7c-0.3,2,1,3.8,3,4.2c0.3,0,0.5,0.1,0.8,0c2.5,0,4.6-1.8,5-4.2c0.3-2-1-3.8-3-4.2
	c-0.3,0-0.5-0.1-0.8,0C196.6,171.5,194.5,173.3,194.1,175.7z"/>
<path class="st15" d="M221.7,215.5h15.2c1.3,0,2.5-1,2.7-2.3l0,0c0.2-1.1-0.6-2.1-1.6-2.3c-0.1,0-0.3,0-0.4,0h-15.2
	c-1.3,0-2.5,1-2.7,2.3l0,0c-0.2,1.1,0.6,2.1,1.6,2.3C221.4,215.5,221.6,215.5,221.7,215.5z"/>
<path class="st15" d="M246,215.5h21.7c1.3,0,2.5-1,2.7-2.3l0,0c0.2-1.1-0.6-2.1-1.6-2.3c-0.1,0-0.3,0-0.4,0h-21.7
	c-1.3,0-2.5,1-2.7,2.3l0,0c-0.2,1.1,0.6,2.1,1.6,2.3C245.8,215.5,245.9,215.5,246,215.5z"/>
<path class="st15" d="M220.5,224h37.2c1.3,0,2.5-1,2.7-2.3l0,0c0.2-1.1-0.6-2.1-1.6-2.3c-0.1,0-0.3,0-0.4,0h-37.2
	c-1.3,0-2.5,1-2.7,2.3l0,0c-0.2,1.1,0.6,2.1,1.7,2.3C220.2,224,220.3,224,220.5,224z"/>
<ellipse transform="matrix(0.8186 -0.5744 0.5744 0.8186 -89.0971 149.8243)" class="st15" cx="192.6" cy="216" rx="15.2" ry="13.1"/>
<path class="st4" d="M179.8,216c-0.3,2-0.1,4,0.7,5.9c1.6,3.8,5.5,6.5,10.4,6.5c4.9-0.1,9.4-2.5,12.2-6.5c1.3-1.7,2.1-3.8,2.4-5.9
	c1-6.8-4-12.3-11.1-12.3C187.3,203.6,180.8,209.2,179.8,216z"/>
<path class="st17" d="M183.3,220.7c1.4,3.1,4.5,5.1,8,5c3.7-0.1,7.2-1.9,9.4-5c-2.4-1.7-5.3-2.6-8.3-2.5
	C189.1,218.2,186,219.1,183.3,220.7z"/>
<path class="st17" d="M188.7,212.9c-0.3,2,1,3.8,3,4.2c0.3,0,0.5,0.1,0.8,0c2.5,0,4.6-1.8,5-4.2c0.3-2-1-3.8-3-4.2
	c-0.3,0-0.5-0.1-0.8,0C191.2,208.8,189.1,210.5,188.7,212.9z"/>
<path class="st15" d="M216.3,252.8h26.5c1.3,0,2.5-1,2.7-2.3l0,0c0.2-1.1-0.6-2.1-1.6-2.3c-0.1,0-0.3,0-0.4,0H217
	c-1.3,0-2.5,1-2.7,2.3l0,0c-0.2,1.1,0.6,2.1,1.6,2.3C216,252.8,216.1,252.8,216.3,252.8z"/>
<path class="st15" d="M215,261.3h41.3c1.3,0,2.5-1,2.7-2.3l0,0c0.2-1.1-0.6-2.1-1.7-2.3c-0.1,0-0.3,0-0.4,0h-41.3
	c-1.3,0-2.5,1-2.7,2.3l0,0c-0.2,1.1,0.5,2.1,1.6,2.3C214.8,261.3,214.9,261.3,215,261.3z"/>
<path class="st18" d="M169.9,297.6h63.2c1.9,0,3.5-1.4,3.8-3.2l0,0c0.2-1.5-0.8-2.9-2.3-3.2c-0.2,0-0.4,0-0.6,0h-63.2
	c-1.9,0-3.5,1.4-3.8,3.2l0,0c-0.2,1.5,0.8,2.9,2.3,3.2C169.5,297.6,169.7,297.6,169.9,297.6z"/>
<path class="st18" d="M168.1,309.6h46.4c1.9,0,3.5-1.4,3.8-3.2l0,0c0.2-1.5-0.8-2.9-2.3-3.2c-0.2,0-0.4,0-0.6,0h-46.4
	c-1.9,0-3.5,1.4-3.8,3.2l0,0c-0.2,1.5,0.8,2.9,2.3,3.2C167.7,309.6,167.9,309.6,168.1,309.6z"/>
<path class="st18" d="M191.8,151.2h75.3c1,0,1.8-0.7,2-1.7l0,0c0.1-0.8-0.4-1.5-1.2-1.6c-0.1,0-0.2,0-0.3,0h-75.3
	c-1,0-1.8,0.7-2,1.7l0,0c-0.1,0.8,0.4,1.5,1.2,1.6C191.6,151.2,191.7,151.2,191.8,151.2z"/>
<ellipse transform="matrix(0.8186 -0.5744 0.5744 0.8186 -111.4864 153.4776)" class="st15" cx="187.2" cy="253.2" rx="15.2" ry="13.1"/>
<path class="st4" d="M174.4,253.2c-0.3,2-0.1,4,0.7,5.9c1.6,3.8,5.5,6.5,10.4,6.5c4.9-0.1,9.4-2.5,12.3-6.5c1.3-1.7,2.1-3.8,2.4-5.9
	c1-6.8-4-12.3-11.1-12.3S175.4,246.4,174.4,253.2z"/>
<path class="st17" d="M177.9,258c1.4,3.1,4.5,5.1,7.9,5c3.7-0.1,7.2-1.9,9.4-5c-2.4-1.7-5.3-2.6-8.3-2.5
	C183.7,255.5,180.6,256.3,177.9,258z"/>
<path class="st17" d="M183.3,250.2c-0.3,2,1,3.8,3,4.2c0.3,0,0.5,0.1,0.8,0c2.5,0,4.6-1.8,5-4.2c0.3-2-1-3.8-3-4.2
	c-0.3,0-0.5-0.1-0.8,0C185.8,246,183.7,247.8,183.3,250.2z"/>
</svg>
