<svg id="Ñëîé_1" data-name="Ñëîé 1" xmlns="http://www.w3.org/2000/svg" xmlns:xlink="http://www.w3.org/1999/xlink" viewBox="0 0 375.49 330.95"><defs><style>.cls-1,.cls-15{opacity:0.4;}.cls-2,.cls-3{fill:#fff;}.cls-3{opacity:0.5;}.cls-4{fill:#7dc3ea;}.cls-5{fill:#396caa;}.cls-6{fill:url(#Áåçûìÿííûé_ãðàäèåíò_13);}.cls-15,.cls-7{fill:#d4ecff;}.cls-8{fill:#5793ce;}.cls-9{fill:url(#Áåçûìÿííûé_ãðàäèåíò_45);}.cls-10{fill:url(#Áåçûìÿííûé_ãðàäèåíò_13-2);}.cls-11{fill:url(#Áåçûìÿííûé_ãðàäèåíò_45-2);}.cls-12{fill:url(#Áåçûìÿííûé_ãðàäèåíò_13-3);}.cls-13{fill:#fafdff;}.cls-14{fill:#173d7a;}.cls-16{fill:url(#Áåçûìÿííûé_ãðàäèåíò_12);}.cls-17{fill:url(#Áåçûìÿííûé_ãðàäèåíò_13-4);}.cls-18{fill:url(#Áåçûìÿííûé_ãðàäèåíò_12-2);}.cls-19{fill:url(#Áåçûìÿííûé_ãðàäèåíò_70);}.cls-20{fill:url(#Áåçûìÿííûé_ãðàäèåíò_13-5);}.cls-21{fill:url(#Áåçûìÿííûé_ãðàäèåíò_45-3);}.cls-22{fill:url(#Áåçûìÿííûé_ãðàäèåíò_13-6);}.cls-23{fill:url(#Áåçûìÿííûé_ãðàäèåíò_45-4);}</style><radialGradient id="Áåçûìÿííûé_ãðàäèåíò_13" cx="408.53" cy="159.48" r="39.39" gradientUnits="userSpaceOnUse"><stop offset="0" stop-color="#699dd1"/><stop offset="0.27" stop-color="#6396cc"/><stop offset="0.64" stop-color="#5184bd"/><stop offset="1" stop-color="#396caa"/></radialGradient><linearGradient id="Áåçûìÿííûé_ãðàäèåíò_45" x1="415.97" y1="146.85" x2="477.67" y2="183.63" gradientUnits="userSpaceOnUse"><stop offset="0" stop-color="#d4ecff"/><stop offset="0.2" stop-color="#d0eafe"/><stop offset="0.39" stop-color="#c5e2f9"/><stop offset="0.57" stop-color="#b2d6f2"/><stop offset="0.74" stop-color="#98c4e7"/><stop offset="0.84" stop-color="#86b8e0"/></linearGradient><radialGradient id="Áåçûìÿííûé_ãðàäèåíò_13-2" cx="493.39" cy="208.25" r="39.39" xlink:href="#Áåçûìÿííûé_ãðàäèåíò_13"/><linearGradient id="Áåçûìÿííûé_ãðàäèåíò_45-2" x1="500.82" y1="195.62" x2="562.53" y2="232.41" xlink:href="#Áåçûìÿííûé_ãðàäèåíò_45"/><radialGradient id="Áåçûìÿííûé_ãðàäèåíò_13-3" cx="261.54" cy="92.3" r="125.65" xlink:href="#Áåçûìÿííûé_ãðàäèåíò_13"/><linearGradient id="Áåçûìÿííûé_ãðàäèåíò_12" x1="371.29" y1="105.85" x2="339.34" y2="51.83" gradientUnits="userSpaceOnUse"><stop offset="0" stop-color="#86b8e0"/><stop offset="0.12" stop-color="#98c4e7"/><stop offset="0.33" stop-color="#b2d6f2"/><stop offset="0.54" stop-color="#c5e2f9"/><stop offset="0.76" stop-color="#d0eafe"/><stop offset="1" stop-color="#d4ecff"/></linearGradient><radialGradient id="Áåçûìÿííûé_ãðàäèåíò_13-4" cx="363.75" cy="130.02" r="118.75" xlink:href="#Áåçûìÿííûé_ãðàäèåíò_13"/><linearGradient id="Áåçûìÿííûé_ãðàäèåíò_12-2" x1="451.25" y1="152.25" x2="426.05" y2="109.64" xlink:href="#Áåçûìÿííûé_ãðàäèåíò_12"/><radialGradient id="Áåçûìÿííûé_ãðàäèåíò_70" cx="461.31" cy="124.28" r="39.15" gradientUnits="userSpaceOnUse"><stop offset="0" stop-color="#173d7a"/><stop offset="1" stop-color="#274f89"/></radialGradient><radialGradient id="Áåçûìÿííûé_ãðàäèåíò_13-5" cx="233.7" cy="251.36" r="39.39" xlink:href="#Áåçûìÿííûé_ãðàäèåíò_13"/><linearGradient id="Áåçûìÿííûé_ãðàäèåíò_45-3" x1="241.14" y1="238.73" x2="302.84" y2="275.52" xlink:href="#Áåçûìÿííûé_ãðàäèåíò_45"/><radialGradient id="Áåçûìÿííûé_ãðàäèåíò_13-6" cx="318.56" cy="300.14" r="39.39" xlink:href="#Áåçûìÿííûé_ãðàäèåíò_13"/><linearGradient id="Áåçûìÿííûé_ãðàäèåíò_45-4" x1="325.99" y1="287.51" x2="387.7" y2="324.29" xlink:href="#Áåçûìÿííûé_ãðàäèåíò_45"/></defs><g class="cls-1"><path class="cls-2" d="M541.14,151.74,508.9,133.13l32.24-18.62,32.24,18.62Zm-30-18.61,30,17.29,30-17.29-30-17.3Z" transform="translate(-197.9 -36.26)"/><path class="cls-2" d="M478.94,151.74,446.7,133.13l32.24-18.62,32.24,18.62Zm-30-18.61,30,17.29,30-17.29-30-17.3Z" transform="translate(-197.9 -36.26)"/><path class="cls-2" d="M510,169.7,477.8,151.08,510,132.47l32.24,18.61Zm-30-18.62,30,17.3,30-17.3-30-17.3Z" transform="translate(-197.9 -36.26)"/><path class="cls-2" d="M541.14,187.65,508.9,169l32.24-18.62L573.38,169ZM511.19,169l29.95,17.29,30-17.29-30-17.3Z" transform="translate(-197.9 -36.26)"/><path class="cls-2" d="M416.74,151.74,384.5,133.12l32.24-18.61L449,133.13Zm-30-18.62,30,17.3,30-17.29-30-17.3Z" transform="translate(-197.9 -36.26)"/><path class="cls-2" d="M447.84,169.7,415.6,151.08l32.24-18.61,32.24,18.61Zm-30-18.62,30,17.3,30-17.3-30-17.3Z" transform="translate(-197.9 -36.26)"/><path class="cls-2" d="M478.94,187.65,446.7,169l32.24-18.62L511.19,169ZM449,169l30,17.29,30-17.29-30-17.3Z" transform="translate(-197.9 -36.26)"/><path class="cls-2" d="M510,205.61,477.8,187,510,168.38,542.28,187Zm-30-18.62,30,17.3L540,187,510,169.7Z" transform="translate(-197.9 -36.26)"/><path class="cls-2" d="M541.14,223.56,508.9,205l32.24-18.62L573.39,205ZM511.19,205l29.95,17.29,30-17.29-30-17.3Z" transform="translate(-197.9 -36.26)"/><path class="cls-2" d="M354.54,151.74,322.3,133.12l32.24-18.61,32.24,18.61Zm-30-18.62,30,17.3,30-17.3-30-17.29Z" transform="translate(-197.9 -36.26)"/><path class="cls-2" d="M385.64,169.69,353.4,151.08l32.24-18.62,32.24,18.62Zm-30-18.61,30,17.3,30-17.3-30-17.3Z" transform="translate(-197.9 -36.26)"/><path class="cls-2" d="M416.74,187.65,384.5,169l32.24-18.62L449,169Zm-30-18.61,30,17.29,30-17.29-30-17.3Z" transform="translate(-197.9 -36.26)"/><path class="cls-2" d="M447.84,205.61,415.6,187l32.24-18.61L480.08,187ZM417.89,187l29.95,17.3,30-17.3-30-17.29Z" transform="translate(-197.9 -36.26)"/><path class="cls-2" d="M478.94,223.56,446.7,205l32.24-18.62L511.19,205ZM449,205l30,17.29,30-17.29-30-17.3Z" transform="translate(-197.9 -36.26)"/><path class="cls-2" d="M510,241.52,477.8,222.9,510,204.29l32.25,18.61Zm-30-18.62,30,17.3,30-17.3-30-17.29Z" transform="translate(-197.9 -36.26)"/><path class="cls-2" d="M541.15,259.47,508.9,240.86l32.24-18.62,32.25,18.62Zm-30-18.61,30,17.3,30-17.3-30-17.3Z" transform="translate(-197.9 -36.26)"/><path class="cls-2" d="M292.34,151.74,260.1,133.12l32.24-18.61,32.24,18.61Zm-30-18.62,30,17.3,30-17.3-30-17.29Z" transform="translate(-197.9 -36.26)"/><path class="cls-2" d="M323.44,169.69,291.2,151.08l32.24-18.62,32.24,18.62Zm-30-18.61,30,17.3,30-17.3-30-17.3Z" transform="translate(-197.9 -36.26)"/><path class="cls-2" d="M354.54,187.65,322.3,169l32.24-18.62L386.78,169Zm-30-18.61,30,17.29,30-17.29-30-17.3Z" transform="translate(-197.9 -36.26)"/><path class="cls-2" d="M385.64,205.61,353.4,187l32.24-18.61L417.89,187ZM355.69,187l29.95,17.3,30-17.3-30-17.3Z" transform="translate(-197.9 -36.26)"/><path class="cls-2" d="M416.74,223.56,384.5,205l32.24-18.62L449,205Zm-30-18.61,30,17.29,30-17.29-30-17.3Z" transform="translate(-197.9 -36.26)"/><path class="cls-2" d="M447.84,241.52,415.6,222.9l32.24-18.61,32.25,18.61ZM417.89,222.9l29.95,17.3,30-17.3-30-17.29Z" transform="translate(-197.9 -36.26)"/><path class="cls-2" d="M478.94,259.47,446.7,240.86l32.24-18.62,32.25,18.62ZM449,240.86l29.95,17.3,30-17.3-30-17.3Z" transform="translate(-197.9 -36.26)"/><path class="cls-2" d="M510.05,277.43,477.8,258.81,510,240.2l32.25,18.61Zm-30-18.62,30,17.3L540,258.81l-30-17.29Z" transform="translate(-197.9 -36.26)"/><path class="cls-2" d="M541.15,295.39,508.9,276.77l32.25-18.61,32.24,18.61Zm-30-18.62,30,17.3,30-17.3-30-17.3Z" transform="translate(-197.9 -36.26)"/><path class="cls-2" d="M230.14,151.74,197.9,133.12l32.24-18.61,32.24,18.61Zm-30-18.62,30,17.3,30-17.3-30-17.29Z" transform="translate(-197.9 -36.26)"/><path class="cls-2" d="M261.24,169.69,229,151.08l32.24-18.62,32.24,18.62Zm-30-18.61,30,17.3,30-17.3-30-17.3Z" transform="translate(-197.9 -36.26)"/><path class="cls-2" d="M292.34,187.65,260.1,169l32.24-18.61L324.58,169Zm-30-18.62,30,17.3,30-17.29-30-17.3Z" transform="translate(-197.9 -36.26)"/><path class="cls-2" d="M323.44,205.61,291.2,187l32.24-18.61L355.69,187Zm-30-18.62,30,17.3,30-17.3-30-17.3Z" transform="translate(-197.9 -36.26)"/><path class="cls-2" d="M354.54,223.56,322.3,205l32.24-18.62L386.78,205Zm-30-18.61,30,17.29,30-17.29-30-17.3Z" transform="translate(-197.9 -36.26)"/><path class="cls-2" d="M385.64,241.52,353.4,222.9l32.24-18.61,32.25,18.61ZM355.69,222.9l29.95,17.3,30-17.3-30-17.29Z" transform="translate(-197.9 -36.26)"/><path class="cls-2" d="M416.74,259.47,384.5,240.86l32.24-18.62L449,240.86Zm-29.95-18.61,29.95,17.29,30-17.29-30-17.3Z" transform="translate(-197.9 -36.26)"/><path class="cls-2" d="M447.85,277.43,415.6,258.81l32.24-18.61,32.25,18.61Zm-30-18.62,30,17.3,29.95-17.3-30-17.29Z" transform="translate(-197.9 -36.26)"/><path class="cls-2" d="M479,295.38,446.7,276.77l32.24-18.61,32.25,18.61Zm-30-18.61,30,17.3,29.95-17.3-30-17.3Z" transform="translate(-197.9 -36.26)"/><path class="cls-2" d="M510.05,313.34,477.8,294.73l32.25-18.62,32.24,18.62Zm-30-18.61,30,17.29L540,294.73l-29.95-17.3Z" transform="translate(-197.9 -36.26)"/><path class="cls-2" d="M541.15,331.3,508.9,312.68l32.25-18.61,32.24,18.61Zm-30-18.62,30,17.3,30-17.3-30-17.29Z" transform="translate(-197.9 -36.26)"/><path class="cls-2" d="M230.14,187.65,197.9,169l32.24-18.61L262.38,169Zm-30-18.62,30,17.3,30-17.3-30-17.29Z" transform="translate(-197.9 -36.26)"/><path class="cls-2" d="M261.24,205.6,229,187l32.24-18.61L293.48,187Zm-30-18.61,30,17.3,30-17.3-30-17.3Z" transform="translate(-197.9 -36.26)"/><path class="cls-2" d="M292.34,223.56,260.1,205l32.24-18.62L324.59,205ZM262.39,205l29.95,17.29,30-17.29-30-17.3Z" transform="translate(-197.9 -36.26)"/><path class="cls-2" d="M323.44,241.52,291.2,222.9l32.24-18.61,32.25,18.61Zm-30-18.62,30,17.3,30-17.3-30-17.29Z" transform="translate(-197.9 -36.26)"/><path class="cls-2" d="M354.54,259.47,322.3,240.86l32.24-18.62,32.25,18.62Zm-30-18.61,30,17.29,30-17.29-30-17.3Z" transform="translate(-197.9 -36.26)"/><path class="cls-2" d="M385.65,277.43,353.4,258.81l32.24-18.61,32.25,18.61Zm-30-18.62,30,17.3,30-17.3-30-17.29Z" transform="translate(-197.9 -36.26)"/><path class="cls-2" d="M416.75,295.38,384.5,276.77l32.24-18.62L449,276.77Zm-30-18.61,30,17.3,29.95-17.3-30-17.3Z" transform="translate(-197.9 -36.26)"/><path class="cls-2" d="M447.85,313.34,415.6,294.72l32.25-18.61,32.24,18.62Zm-30-18.62,30,17.3,29.95-17.29-29.95-17.3Z" transform="translate(-197.9 -36.26)"/><path class="cls-2" d="M479,331.3,446.7,312.68,479,294.07l32.24,18.61Zm-30-18.62L479,330l29.95-17.3L479,295.38Z" transform="translate(-197.9 -36.26)"/><path class="cls-2" d="M510.05,349.25l-32.24-18.61L510.05,312l32.24,18.62Zm-30-18.61,30,17.29,30-17.29-30-17.3Z" transform="translate(-197.9 -36.26)"/><path class="cls-2" d="M541.15,367.21l-32.24-18.62L541.15,330l32.24,18.61Zm-30-18.62,30,17.3,30-17.3-30-17.29Z" transform="translate(-197.9 -36.26)"/><path class="cls-2" d="M230.14,223.56,197.9,205l32.24-18.62L262.39,205ZM200.19,205l29.95,17.29,30-17.29-30-17.3Z" transform="translate(-197.9 -36.26)"/><path class="cls-2" d="M261.24,241.52,229,222.9l32.24-18.61,32.24,18.61Zm-30-18.62,30,17.3,30-17.3-30-17.3Z" transform="translate(-197.9 -36.26)"/><path class="cls-2" d="M292.34,259.47,260.1,240.86l32.24-18.62,32.25,18.62Zm-29.95-18.61,29.95,17.29,30-17.29-30-17.3Z" transform="translate(-197.9 -36.26)"/><path class="cls-2" d="M323.44,277.43,291.2,258.81l32.24-18.61,32.25,18.61Zm-29.95-18.62,29.95,17.3,30-17.3-30-17.29Z" transform="translate(-197.9 -36.26)"/><path class="cls-2" d="M354.55,295.38,322.3,276.77l32.24-18.62,32.25,18.62Zm-30-18.61,30,17.3,29.95-17.3-30-17.3Z" transform="translate(-197.9 -36.26)"/><path class="cls-2" d="M385.65,313.34,353.4,294.72l32.25-18.61,32.24,18.61Zm-30-18.62,30,17.3,30-17.3-30-17.29Z" transform="translate(-197.9 -36.26)"/><path class="cls-2" d="M416.75,331.3,384.5,312.68l32.25-18.61L449,312.68Zm-30-18.62,30,17.3,29.95-17.3-29.95-17.3Z" transform="translate(-197.9 -36.26)"/><path class="cls-2" d="M447.85,349.25,415.6,330.64,447.85,312l32.24,18.62Zm-30-18.61,30,17.29,30-17.29-30-17.3Z" transform="translate(-197.9 -36.26)"/><path class="cls-2" d="M479,367.21l-32.24-18.62L479,330l32.24,18.61Zm-30-18.62,30,17.3,30-17.3L479,331.3Z" transform="translate(-197.9 -36.26)"/><path class="cls-2" d="M230.14,259.47,197.9,240.86l32.24-18.62,32.25,18.62Zm-29.95-18.61,29.95,17.29,30-17.29-30-17.3Z" transform="translate(-197.9 -36.26)"/><path class="cls-2" d="M261.24,277.43,229,258.81l32.24-18.61,32.25,18.61Zm-30-18.62,30,17.3,30-17.3-30-17.29Z" transform="translate(-197.9 -36.26)"/><path class="cls-2" d="M292.35,295.38,260.1,276.77l32.24-18.62,32.25,18.62Zm-30-18.61,30,17.29,29.95-17.29-30-17.3Z" transform="translate(-197.9 -36.26)"/><path class="cls-2" d="M323.45,313.34,291.2,294.72l32.24-18.61,32.25,18.61Zm-30-18.62,30,17.3,29.95-17.3-30-17.29Z" transform="translate(-197.9 -36.26)"/><path class="cls-2" d="M354.55,331.3,322.3,312.68l32.25-18.61,32.24,18.61Zm-30-18.62,30,17.3,29.95-17.3-29.95-17.3Z" transform="translate(-197.9 -36.26)"/><path class="cls-2" d="M385.65,349.25,353.4,330.64,385.65,312l32.24,18.62Zm-30-18.61,30,17.29,30-17.29-30-17.3Z" transform="translate(-197.9 -36.26)"/><path class="cls-2" d="M416.75,367.21l-32.24-18.62L416.75,330,449,348.59Zm-30-18.62,30,17.3,30-17.3-30-17.29Z" transform="translate(-197.9 -36.26)"/><path class="cls-2" d="M230.15,295.38,197.9,276.77l32.24-18.62,32.25,18.62Zm-30-18.61,30,17.29,30-17.29-30-17.3Z" transform="translate(-197.9 -36.26)"/><path class="cls-2" d="M261.25,313.34,229,294.72l32.24-18.61,32.25,18.61Zm-30-18.62,30,17.3,29.95-17.3-30-17.29Z" transform="translate(-197.9 -36.26)"/><path class="cls-2" d="M292.35,331.3,260.1,312.68l32.25-18.62,32.24,18.62Zm-30-18.62,30,17.3,29.95-17.3-29.95-17.3Z" transform="translate(-197.9 -36.26)"/><path class="cls-2" d="M323.45,349.25,291.2,330.64,323.45,312l32.24,18.62Zm-30-18.61,30,17.29,29.95-17.29-29.95-17.3Z" transform="translate(-197.9 -36.26)"/><path class="cls-2" d="M354.55,367.21l-32.24-18.62L354.55,330l32.24,18.61Zm-30-18.62,30,17.3,30-17.3-30-17.29Z" transform="translate(-197.9 -36.26)"/><path class="cls-2" d="M230.15,331.29,197.9,312.68l32.25-18.62,32.24,18.62Zm-30-18.61,30,17.3,30-17.3-30-17.3Z" transform="translate(-197.9 -36.26)"/><path class="cls-2" d="M261.25,349.25,229,330.63,261.25,312l32.24,18.62Zm-30-18.62,30,17.3,29.95-17.29-29.95-17.3Z" transform="translate(-197.9 -36.26)"/><path class="cls-2" d="M292.35,367.21,260.1,348.59,292.35,330l32.24,18.61Zm-30-18.62,30,17.3,30-17.3-30-17.29Z" transform="translate(-197.9 -36.26)"/><path class="cls-2" d="M230.15,367.21,197.9,348.59,230.15,330l32.24,18.61Zm-30-18.62,30,17.3,30-17.3-30-17.3Z" transform="translate(-197.9 -36.26)"/></g><path class="cls-2" d="M261.94,156.48a10.57,10.57,0,0,0-1.76,1.29c-.25-7.91-6-11.05-13-7-5.73,3.31-10.58,10.38-12.32,17.32A7.75,7.75,0,0,0,230,169.3c-5.12,2.95-9.28,10.15-9.28,16.06s4.16,8.32,9.28,5.36l31.91-18.42a15.15,15.15,0,0,0,6.84-11.86C268.78,156.07,265.72,154.3,261.94,156.48Z" transform="translate(-197.9 -36.26)"/><path class="cls-2" d="M546.45,140.2a10.57,10.57,0,0,0-1.76,1.29c-.24-7.91-6-11.05-13-7-5.73,3.3-10.58,10.38-12.31,17.31a7.76,7.76,0,0,0-4.86,1.21c-5.12,2.95-9.28,10.15-9.28,16.06s4.16,8.32,9.28,5.36L546.45,156a15.15,15.15,0,0,0,6.85-11.86C553.3,139.79,550.23,138,546.45,140.2Z" transform="translate(-197.9 -36.26)"/><path class="cls-2" d="M397.13,367.11a1.57,1.57,0,0,1-1.39-2.29,17.64,17.64,0,0,1,6.39-7,8.29,8.29,0,0,1,4.5-1.24c2,.1,4.52-1.42,6.71-4.05a15.31,15.31,0,0,1,4.07-3.53,8.27,8.27,0,0,1,4.5-1.24c2,.11,4.52-1.42,6.71-4.06a15.44,15.44,0,0,1,4.07-3.52,8.24,8.24,0,0,1,4.5-1.24c2,.11,4.52-1.42,6.71-4.06a15.38,15.38,0,0,1,4.06-3.52c2.3-1.32,4.58-1.61,6.44-.8a1.56,1.56,0,0,1-1.24,2.87,4.16,4.16,0,0,0-3.63.64,12.25,12.25,0,0,0-3.22,2.81c-2.86,3.44-6.26,5.34-9.28,5.18a5.4,5.4,0,0,0-2.78.83,12.25,12.25,0,0,0-3.22,2.81c-2.86,3.45-6.26,5.33-9.28,5.18a5.28,5.28,0,0,0-2.78.83,12.41,12.41,0,0,0-3.22,2.81c-2.86,3.45-6.25,5.32-9.28,5.18a5.31,5.31,0,0,0-2.78.83,14.41,14.41,0,0,0-5.18,5.77A1.57,1.57,0,0,1,397.13,367.11Z" transform="translate(-197.9 -36.26)"/><path class="cls-2" d="M218.52,232.67a6.63,6.63,0,0,1-3,5.21c-1.66,1-3,.18-3-1.73a6.66,6.66,0,0,1,3-5.22C217.18,230,218.52,230.75,218.52,232.67Z" transform="translate(-197.9 -36.26)"/><path class="cls-2" d="M228.27,227a6.64,6.64,0,0,1-3,5.21c-1.67,1-3,.18-3-1.73a6.64,6.64,0,0,1,3-5.22C226.93,224.35,228.27,225.12,228.27,227Z" transform="translate(-197.9 -36.26)"/><path class="cls-2" d="M238,221.41a6.65,6.65,0,0,1-3,5.21c-1.66,1-3,.18-3-1.73a6.64,6.64,0,0,1,3-5.21C236.68,218.72,238,219.49,238,221.41Z" transform="translate(-197.9 -36.26)"/><path class="cls-2" d="M247.78,215.78a6.65,6.65,0,0,1-3,5.21c-1.66,1-3,.18-3-1.73a6.64,6.64,0,0,1,3-5.21C246.43,213.09,247.78,213.86,247.78,215.78Z" transform="translate(-197.9 -36.26)"/><path class="cls-2" d="M500.61,310.43a6.47,6.47,0,0,1-2.92,5.06c-1.61.93-2.92.17-2.92-1.69a6.45,6.45,0,0,1,2.92-5.05C499.3,307.81,500.61,308.57,500.61,310.43Z" transform="translate(-197.9 -36.26)"/><path class="cls-2" d="M508.66,305.78a6.47,6.47,0,0,1-2.92,5.06c-1.61.93-2.92.17-2.92-1.69a6.45,6.45,0,0,1,2.92-5C507.35,303.17,508.66,303.92,508.66,305.78Z" transform="translate(-197.9 -36.26)"/><path class="cls-2" d="M500.61,301.13a6.47,6.47,0,0,1-2.92,5.06c-1.61.93-2.92.17-2.92-1.69a6.45,6.45,0,0,1,2.92-5.05C499.3,298.52,500.61,299.27,500.61,301.13Z" transform="translate(-197.9 -36.26)"/><path class="cls-2" d="M508.66,296.48a6.47,6.47,0,0,1-2.92,5.06c-1.61.93-2.92.18-2.92-1.69a6.45,6.45,0,0,1,2.92-5.05C507.35,293.87,508.66,294.62,508.66,296.48Z" transform="translate(-197.9 -36.26)"/><polygon class="cls-2" points="234.04 28.57 228.02 32.04 228.02 25.1 234.04 21.62 234.04 28.57"/><polygon class="cls-2" points="242.39 23.69 236.37 27.16 236.37 20.22 242.39 16.74 242.39 23.69"/><polygon class="cls-2" points="234.09 37.58 228.07 41.06 228.07 34.11 234.09 30.64 234.09 37.58"/><polygon class="cls-2" points="242.39 32.79 236.37 36.27 236.37 29.32 242.39 25.84 242.39 32.79"/><path class="cls-3" d="M284.2,316.16a10.88,10.88,0,0,0-2.85,2.45c-.14-5.63-4.17-7.87-9.14-5a16.56,16.56,0,0,0-4.39,3.83c-2.21-3.87-6.79-4.76-12.1-1.7-7.47,4.31-13.53,14.8-13.53,23.42a16,16,0,0,0,.14,2,5.13,5.13,0,0,0-3.79.77,14.29,14.29,0,0,0-6.46,11.2c0,4.13,2.89,5.8,6.46,3.74l45.66-26.36a13.76,13.76,0,0,0,6.22-10.77C290.42,315.78,287.63,314.17,284.2,316.16Z" transform="translate(-197.9 -36.26)"/><path class="cls-4" d="M439,214.39l-31.16-18c-1.91-1.11-1.67-3,.53-4.31l30.1-17.37c2.2-1.28,5.55-1.42,7.46-.31l31.16,18c1.92,1.1,1.68,3-.53,4.31l-30.09,17.37A8.31,8.31,0,0,1,439,214.39Z" transform="translate(-197.9 -36.26)"/><path class="cls-2" d="M442.26,207.07a8.42,8.42,0,0,1-4.14-1l-31.17-18a4,4,0,0,1-2.17-3.4,4.76,4.76,0,0,1,2.71-4l30.09-17.37c2.78-1.61,6.75-1.75,9.23-.31L478,181a4,4,0,0,1,2.17,3.4,4.74,4.74,0,0,1-2.71,4l-30.09,17.38A10.39,10.39,0,0,1,442.26,207.07Zm.45-41.49a7,7,0,0,0-3.36.82l-30.09,17.38c-.76.43-.94.83-.94.9a1.12,1.12,0,0,0,.4.34l31.17,18a6.56,6.56,0,0,0,5.69-.31l30.09-17.37c.76-.44.94-.83.94-.91a1.25,1.25,0,0,0-.4-.34l-31.17-18A4.84,4.84,0,0,0,442.71,165.58Z" transform="translate(-197.9 -36.26)"/><path class="cls-5" d="M478.37,173.4h0V162.64H454.26l-8.33-4.81c-1.91-1.11-5.26-1-7.46.31l-7.78,4.49-24.13,0v11.06a2.15,2.15,0,0,0,1.28,2l31.16,18a8.34,8.34,0,0,0,7.47-.31L476.56,176C477.83,175.24,478.45,174.28,478.37,173.4Z" transform="translate(-197.9 -36.26)"/><path class="cls-6" d="M442.47,157.08a8.57,8.57,0,0,0-4,1l-7.78,4.49-24.13,0v11.06a2.15,2.15,0,0,0,1.28,2l31.16,18a6.79,6.79,0,0,0,3.47.74Z" transform="translate(-197.9 -36.26)"/><path class="cls-7" d="M409.29,162.61h-2.73v11.06a2.15,2.15,0,0,0,1.28,2l1.45.84Z" transform="translate(-197.9 -36.26)"/><path class="cls-8" d="M439.48,193.89a8.47,8.47,0,0,0,6-.07V181.27h-6Z" transform="translate(-197.9 -36.26)"/><path class="cls-9" d="M439,182.64l-31.16-18c-1.91-1.1-1.67-3,.53-4.3L438.47,143a8.32,8.32,0,0,1,7.46-.31l31.16,18c1.92,1.1,1.68,3-.53,4.3l-30.09,17.38A8.34,8.34,0,0,1,439,182.64Z" transform="translate(-197.9 -36.26)"/><path class="cls-2" d="M476.56,162.84l-30.09,17.37a8.31,8.31,0,0,1-7.47.31l-31.16-18a3,3,0,0,1-1-.85,2,2,0,0,0,1,3l31.16,18a8.34,8.34,0,0,0,7.47-.31L476.56,165c1.71-1,2.23-2.37,1.49-3.46A4.22,4.22,0,0,1,476.56,162.84Z" transform="translate(-197.9 -36.26)"/><path class="cls-7" d="M466.91,176.24a2.79,2.79,0,0,1-1.26,2.18c-.69.4-1.26.07-1.26-.73a2.8,2.8,0,0,1,1.26-2.18C466.35,175.11,466.91,175.43,466.91,176.24Z" transform="translate(-197.9 -36.26)"/><path class="cls-7" d="M471,173.9a2.77,2.77,0,0,1-1.26,2.18c-.69.4-1.26.07-1.26-.73a2.8,2.8,0,0,1,1.26-2.18C470.4,172.77,471,173.09,471,173.9Z" transform="translate(-197.9 -36.26)"/><path class="cls-7" d="M475,171.56a2.77,2.77,0,0,1-1.26,2.18c-.69.4-1.26.07-1.26-.73a2.8,2.8,0,0,1,1.26-2.18C474.45,170.43,475,170.76,475,171.56Z" transform="translate(-197.9 -36.26)"/><path class="cls-8" d="M440.85,171.48l-14.59-8.42c-.89-.52-.78-1.42.25-2l14.08-8.13a3.88,3.88,0,0,1,3.5-.15l14.58,8.42c.9.52.78,1.42-.25,2l-14.08,8.13A3.89,3.89,0,0,1,440.85,171.48Z" transform="translate(-197.9 -36.26)"/><path class="cls-7" d="M442.24,164.43l-2-1.16c-.12-.08-.1-.2,0-.28l1.95-1.13a.54.54,0,0,1,.48,0l2,1.17c.12.07.11.19,0,.28l-1.94,1.12A.56.56,0,0,1,442.24,164.43Z" transform="translate(-197.9 -36.26)"/><path class="cls-5" d="M426.26,163.06l0,0,.21-.15,14.08-8.13a3.88,3.88,0,0,1,3.5-.14l14.54,8.39c.82-.59.87-1.39,0-1.87l-14.58-8.42a3.88,3.88,0,0,0-3.5.15l-14.08,8.13C425.48,161.64,425.37,162.54,426.26,163.06Z" transform="translate(-197.9 -36.26)"/><path class="cls-4" d="M523.86,263.17l-31.16-18c-1.92-1.1-1.68-3,.53-4.3l30.09-17.38a8.34,8.34,0,0,1,7.47-.31l31.16,18c1.91,1.1,1.67,3-.54,4.3l-30.09,17.38C529.11,264.13,525.77,264.27,523.86,263.17Z" transform="translate(-197.9 -36.26)"/><path class="cls-2" d="M527.12,255.84a8.26,8.26,0,0,1-4.14-1l-31.17-18a4,4,0,0,1-2.18-3.4,4.75,4.75,0,0,1,2.72-4l30.09-17.38c2.78-1.6,6.75-1.74,9.23-.31l31.16,18a4,4,0,0,1,2.18,3.4,4.77,4.77,0,0,1-2.71,4l-30.09,17.37A10.31,10.31,0,0,1,527.12,255.84Zm-2.38-4.05a6.58,6.58,0,0,0,5.7-.31l30.09-17.38c.76-.43.94-.83.94-.9a1.12,1.12,0,0,0-.4-.34l-31.17-18a6.56,6.56,0,0,0-5.69.31l-30.09,17.37c-.76.44-.94.83-.95.91a1.44,1.44,0,0,0,.41.33Z" transform="translate(-197.9 -36.26)"/><path class="cls-5" d="M563.23,222.17h0V211.42H539.12l-8.33-4.81a8.28,8.28,0,0,0-7.47.31l-7.77,4.49-24.14,0v11.06a2.18,2.18,0,0,0,1.29,2l31.16,18c1.91,1.11,5.25,1,7.46-.31l30.09-17.37C562.69,224,563.3,223.06,563.23,222.17Z" transform="translate(-197.9 -36.26)"/><path class="cls-10" d="M527.32,205.86a8.48,8.48,0,0,0-4,1l-7.77,4.49-24.14,0v11.06a2.18,2.18,0,0,0,1.29,2l31.16,18a6.78,6.78,0,0,0,3.46.74Z" transform="translate(-197.9 -36.26)"/><path class="cls-7" d="M494.15,211.38h-2.74v11.06a2.18,2.18,0,0,0,1.29,2l1.45.84Z" transform="translate(-197.9 -36.26)"/><path class="cls-8" d="M524.34,242.67a8.53,8.53,0,0,0,6-.07V230h-6Z" transform="translate(-197.9 -36.26)"/><path class="cls-11" d="M523.86,231.41l-31.16-18c-1.92-1.1-1.68-3,.53-4.31l30.09-17.37a8.31,8.31,0,0,1,7.47-.31l31.16,18c1.91,1.11,1.67,3-.54,4.31L531.32,231.1C529.11,232.38,525.77,232.52,523.86,231.41Z" transform="translate(-197.9 -36.26)"/><path class="cls-2" d="M561.41,211.61,531.32,229c-2.21,1.27-5.55,1.41-7.46.31l-31.16-18a2.86,2.86,0,0,1-1-.84c-.66,1.06-.36,2.2,1,3l31.16,18c1.91,1.11,5.25,1,7.46-.31l30.09-17.37c1.72-1,2.24-2.37,1.49-3.46A4,4,0,0,1,561.41,211.61Z" transform="translate(-197.9 -36.26)"/><path class="cls-7" d="M551.77,225a2.76,2.76,0,0,1-1.26,2.18c-.7.4-1.26.08-1.26-.72a2.76,2.76,0,0,1,1.26-2.18C551.21,223.88,551.77,224.21,551.77,225Z" transform="translate(-197.9 -36.26)"/><path class="cls-7" d="M555.82,222.67a2.76,2.76,0,0,1-1.26,2.18c-.7.41-1.26.08-1.26-.72a2.76,2.76,0,0,1,1.26-2.18C555.26,221.55,555.82,221.87,555.82,222.67Z" transform="translate(-197.9 -36.26)"/><path class="cls-7" d="M559.87,220.34a2.82,2.82,0,0,1-1.26,2.18c-.7.4-1.26.07-1.26-.73a2.77,2.77,0,0,1,1.26-2.18C559.3,219.21,559.87,219.53,559.87,220.34Z" transform="translate(-197.9 -36.26)"/><path class="cls-8" d="M525.7,220.26l-14.58-8.42c-.9-.52-.78-1.42.25-2l14.08-8.13a3.89,3.89,0,0,1,3.49-.14L543.53,210c.89.51.78,1.42-.25,2l-14.09,8.13A3.86,3.86,0,0,1,525.7,220.26Z" transform="translate(-197.9 -36.26)"/><path class="cls-7" d="M527.1,213.21l-2-1.17c-.12-.07-.11-.19,0-.28l1.94-1.12a.56.56,0,0,1,.49,0l2,1.16c.12.08.1.2,0,.28l-1.95,1.13A.54.54,0,0,1,527.1,213.21Z" transform="translate(-197.9 -36.26)"/><path class="cls-5" d="M511.12,211.84l0,0a1.53,1.53,0,0,1,.21-.14l14.08-8.13a3.89,3.89,0,0,1,3.49-.15l14.55,8.4c.82-.59.86-1.4,0-1.87l-14.59-8.42a3.89,3.89,0,0,0-3.49.14l-14.08,8.13C510.34,210.42,510.22,211.32,511.12,211.84Z" transform="translate(-197.9 -36.26)"/><path class="cls-4" d="M341,271.74,407,234.15c2.41-1.39,2.11-3.83-.68-5.43l-37.93-21.9c-2.78-1.61-7-1.79-9.41-.39L293,244c-2.42,1.39-2.11,3.82.67,5.43l37.93,21.9C334.42,273,338.63,273.13,341,271.74Z" transform="translate(-197.9 -36.26)"/><path class="cls-2" d="M337,263.35a12.71,12.71,0,0,1-6.2-1.56l-37.93-21.9c-2-1.17-3.19-2.85-3.19-4.61a4.54,4.54,0,0,1,2.51-3.89l65.94-37.6c2.93-1.69,7.84-1.52,11.17.4l37.93,21.9c2,1.17,3.19,2.85,3.19,4.6a4.58,4.58,0,0,1-2.52,3.9l-65.93,37.59A10.14,10.14,0,0,1,337,263.35ZM363,196.16a6.53,6.53,0,0,0-3.18.7l-65.94,37.6c-.45.26-.73.57-.73.82s.44,1,1.42,1.54l37.93,21.9c2.21,1.28,5.78,1.46,7.64.39h0l65.93-37.6c.46-.26.74-.57.74-.82s-.44-1-1.42-1.54l-37.93-21.9A9.37,9.37,0,0,0,363,196.16Z" transform="translate(-197.9 -36.26)"/><path class="cls-12" d="M291.41,223.4h0V79.92l57-14.92L359,58.93c2.42-1.39,6.63-1.22,9.41.39l9.8,5.66,30.43,0-9,138.51A2.73,2.73,0,0,1,398,206L341,248.94c-2.41,1.39-6.62,1.21-9.41-.39L293.7,226.64C292.1,225.72,291.32,224.52,291.41,223.4Z" transform="translate(-197.9 -36.26)"/><path class="cls-7" d="M363.32,58a10.89,10.89,0,0,1,5,1.32l9.8,5.66,30.43,0V208.82a2.75,2.75,0,0,1-1.62,2.52L341,248.94a8.59,8.59,0,0,1-4.36.93L336,105.11Z" transform="translate(-197.9 -36.26)"/><path class="cls-8" d="M340.44,249.23a10.76,10.76,0,0,1-7.52-.08V103.4h7.52Z" transform="translate(-197.9 -36.26)"/><path class="cls-7" d="M341,105.13,407,67.53c2.41-1.39,2.11-3.82-.68-5.43L368.36,40.2c-2.78-1.61-7-1.78-9.41-.39L293,77.4c-2.42,1.4-2.11,3.83.67,5.44l37.93,21.9C334.42,106.34,338.63,106.52,341,105.13Z" transform="translate(-197.9 -36.26)"/><path class="cls-13" d="M293.7,80.17l37.93,21.9c2.79,1.61,7,1.78,9.41.39L407,64.87a3.63,3.63,0,0,0,1.2-1.07c.83,1.33.46,2.78-1.2,3.73L341,105.13c-2.41,1.39-6.62,1.21-9.41-.39L293.7,82.84c-2.16-1.25-2.82-3-1.88-4.37A5.35,5.35,0,0,0,293.7,80.17Z" transform="translate(-197.9 -36.26)"/><path class="cls-14" d="M339.18,89.89l43.89-25.44c1.13-.65,1-1.79-.32-2.54L365,51.66a4.87,4.87,0,0,0-4.4-.19L316.71,76.92c-1.13.65-1,1.79.31,2.54l17.75,10.25A4.92,4.92,0,0,0,339.18,89.89Z" transform="translate(-197.9 -36.26)"/><path class="cls-7" d="M362.87,65.59l2.55-1.47c.15-.09.13-.25-.05-.35l-2.45-1.42a.69.69,0,0,0-.61,0l-2.55,1.46c-.15.09-.13.25.05.36l2.45,1.41A.66.66,0,0,0,362.87,65.59Z" transform="translate(-197.9 -36.26)"/><path class="cls-7" d="M354.38,70.48,356.92,69c.16-.09.14-.25,0-.35l-2.46-1.42a.66.66,0,0,0-.61,0l-2.54,1.47c-.16.09-.14.25,0,.35l2.46,1.42A.69.69,0,0,0,354.38,70.48Z" transform="translate(-197.9 -36.26)"/><path class="cls-7" d="M345.88,75.36l2.54-1.47c.16-.09.14-.24,0-.35l-2.46-1.42a.69.69,0,0,0-.61,0l-2.54,1.47c-.16.09-.14.24,0,.35l2.46,1.42A.69.69,0,0,0,345.88,75.36Z" transform="translate(-197.9 -36.26)"/><path class="cls-7" d="M337.38,80.25l2.54-1.47c.16-.09.14-.25,0-.35L337.42,77a.67.67,0,0,0-.6,0l-2.55,1.47c-.15.09-.13.25.05.35l2.45,1.42A.66.66,0,0,0,337.38,80.25Z" transform="translate(-197.9 -36.26)"/><path class="cls-8" d="M383.07,64.45l-.05,0a2.53,2.53,0,0,0-.27-.18L365,54.05a4.87,4.87,0,0,0-4.4-.19L316.76,79.28c-1-.75-1.09-1.76-.05-2.36L360.6,51.47a4.87,4.87,0,0,1,4.4.19l17.75,10.25C384.06,62.66,384.2,63.8,383.07,64.45Z" transform="translate(-197.9 -36.26)"/><path class="cls-14" d="M324.23,133.55l-25-14.29a6.09,6.09,0,0,1-2.54-4.86v-8.92c0-1.87,1.14-2.73,2.54-1.92l25,14.29a6.09,6.09,0,0,1,2.54,4.85v8.93C326.77,133.5,325.63,134.36,324.23,133.55Z" transform="translate(-197.9 -36.26)"/><path class="cls-2" d="M298,103.29a2.45,2.45,0,0,0-.64,1.85v8.93a6.1,6.1,0,0,0,2.54,4.86l25,14.29a1.84,1.84,0,0,0,1.23.27,1.51,1.51,0,0,1-1.9.06l-25-14.29a6.09,6.09,0,0,1-2.54-4.86v-8.92C296.73,104.21,297.26,103.42,298,103.29Z" transform="translate(-197.9 -36.26)"/><path class="cls-5" d="M316.72,123.86l-2.29-1.33a1.33,1.33,0,0,1-.55-1V119c0-.41.25-.6.55-.42l2.29,1.32a1.33,1.33,0,0,1,.56,1.06v2.45C317.28,123.85,317,124,316.72,123.86Z" transform="translate(-197.9 -36.26)"/><path class="cls-2" d="M309.07,119.44l-2.29-1.32a1.34,1.34,0,0,1-.56-1.06v-2.45c0-.41.25-.59.56-.42l2.29,1.32a1.34,1.34,0,0,1,.55,1.06V119C309.62,119.43,309.37,119.61,309.07,119.44Z" transform="translate(-197.9 -36.26)"/><path class="cls-14" d="M324.23,198l-25-14.29a6.09,6.09,0,0,1-2.54-4.85V170c0-1.87,1.14-2.73,2.54-1.92l25,14.29a6.09,6.09,0,0,1,2.54,4.86v8.92C326.77,198,325.63,198.85,324.23,198Z" transform="translate(-197.9 -36.26)"/><path class="cls-2" d="M298,167.78a2.46,2.46,0,0,0-.64,1.86v8.92a6.1,6.1,0,0,0,2.54,4.86l25,14.29a1.84,1.84,0,0,0,1.23.27,1.51,1.51,0,0,1-1.9.06l-25-14.29a6.09,6.09,0,0,1-2.54-4.85V170C296.73,168.7,297.26,167.91,298,167.78Z" transform="translate(-197.9 -36.26)"/><path class="cls-5" d="M316.72,188.35,314.43,187a1.34,1.34,0,0,1-.55-1.06v-2.45c0-.41.25-.59.55-.42l2.29,1.32a1.34,1.34,0,0,1,.56,1.06v2.45C317.28,188.34,317,188.52,316.72,188.35Z" transform="translate(-197.9 -36.26)"/><path class="cls-2" d="M309.07,183.93l-2.29-1.32a1.33,1.33,0,0,1-.56-1.06V179.1c0-.41.25-.59.56-.42l2.29,1.33a1.33,1.33,0,0,1,.55,1.05v2.45C309.62,183.92,309.37,184.11,309.07,183.93Z" transform="translate(-197.9 -36.26)"/><path class="cls-14" d="M324.23,230.29l-25-14.29a6.1,6.1,0,0,1-2.54-4.86v-8.92c0-1.88,1.14-2.74,2.54-1.93l25,14.29a6.1,6.1,0,0,1,2.54,4.86v8.93C326.77,230.24,325.63,231.1,324.23,230.29Z" transform="translate(-197.9 -36.26)"/><path class="cls-2" d="M298,200a2.45,2.45,0,0,0-.64,1.85v8.93a6.12,6.12,0,0,0,2.54,4.86l25,14.28a1.79,1.79,0,0,0,1.23.27,1.51,1.51,0,0,1-1.9.07l-25-14.29a6.1,6.1,0,0,1-2.54-4.86v-8.92C296.73,201,297.26,200.16,298,200Z" transform="translate(-197.9 -36.26)"/><path class="cls-5" d="M316.72,220.59l-2.29-1.32a1.33,1.33,0,0,1-.55-1.06v-2.44c0-.41.25-.6.55-.42l2.29,1.32a1.33,1.33,0,0,1,.56,1.06v2.44C317.28,220.58,317,220.77,316.72,220.59Z" transform="translate(-197.9 -36.26)"/><path class="cls-2" d="M309.07,216.17l-2.29-1.32a1.31,1.31,0,0,1-.56-1.06v-2.44c0-.41.25-.6.56-.42l2.29,1.32a1.34,1.34,0,0,1,.55,1.06v2.45C309.62,216.16,309.37,216.35,309.07,216.17Z" transform="translate(-197.9 -36.26)"/><path class="cls-14" d="M324.23,165.8l-25-14.29a6.1,6.1,0,0,1-2.54-4.86v-8.92c0-1.88,1.14-2.74,2.54-1.93l25,14.29a6.1,6.1,0,0,1,2.54,4.86v8.93C326.77,165.75,325.63,166.61,324.23,165.8Z" transform="translate(-197.9 -36.26)"/><path class="cls-2" d="M298,135.53a2.46,2.46,0,0,0-.64,1.86v8.93a6.09,6.09,0,0,0,2.54,4.85l25,14.29a1.84,1.84,0,0,0,1.23.27,1.51,1.51,0,0,1-1.9.07l-25-14.29a6.1,6.1,0,0,1-2.54-4.86v-8.92C296.73,136.45,297.26,135.67,298,135.53Z" transform="translate(-197.9 -36.26)"/><path class="cls-5" d="M316.72,156.1l-2.29-1.32a1.34,1.34,0,0,1-.55-1.06v-2.44c0-.41.25-.6.55-.42l2.29,1.32a1.33,1.33,0,0,1,.56,1.06v2.44C317.28,156.09,317,156.28,316.72,156.1Z" transform="translate(-197.9 -36.26)"/><path class="cls-2" d="M309.07,151.68l-2.29-1.32a1.33,1.33,0,0,1-.56-1.06v-2.44c0-.41.25-.6.56-.42l2.29,1.32a1.34,1.34,0,0,1,.55,1.06v2.44C309.62,151.67,309.37,151.86,309.07,151.68Z" transform="translate(-197.9 -36.26)"/><path class="cls-8" d="M345.84,124.42l57.58-33.25a5.57,5.57,0,0,0,2.33-4.45v-11c0-1.72-1-2.51-2.33-1.77l-57.58,33.24a5.59,5.59,0,0,0-2.33,4.46v11C343.51,124.37,344.55,125.16,345.84,124.42Z" transform="translate(-197.9 -36.26)"/><path class="cls-15" d="M347.5,120.57l54.27-31.34A2.83,2.83,0,0,0,403,87V78.72c0-.87-.53-1.28-1.18-.9L347.5,109.16a2.81,2.81,0,0,0-1.19,2.26v8.25C346.31,120.54,346.84,120.94,347.5,120.57Z" transform="translate(-197.9 -36.26)"/><path class="cls-7" d="M390.46,91.59l8.1-4.68a2.75,2.75,0,0,0,1.15-2.19h0c0-.85-.52-1.24-1.15-.87l-8.1,4.67a2.75,2.75,0,0,0-1.15,2.2h0C389.31,91.57,389.82,92,390.46,91.59Z" transform="translate(-197.9 -36.26)"/><path class="cls-14" d="M383.56,94c0,.85.59,1.19,1.32.77a2.91,2.91,0,0,0,1.33-2.3c0-.85-.59-1.19-1.33-.77A3,3,0,0,0,383.56,94Z" transform="translate(-197.9 -36.26)"/><path class="cls-14" d="M378.87,96.75c0,.84.6,1.19,1.33.76a2.94,2.94,0,0,0,1.33-2.3c0-.84-.6-1.19-1.33-.76A2.94,2.94,0,0,0,378.87,96.75Z" transform="translate(-197.9 -36.26)"/><path class="cls-7" d="M374.19,99.45c0,.85.59,1.19,1.33.77a3,3,0,0,0,1.32-2.3c0-.85-.59-1.19-1.32-.77A2.91,2.91,0,0,0,374.19,99.45Z" transform="translate(-197.9 -36.26)"/><path class="cls-14" d="M369.51,102.15c0,.85.59,1.19,1.32.77a2.91,2.91,0,0,0,1.33-2.3c0-.85-.59-1.19-1.33-.77A3,3,0,0,0,369.51,102.15Z" transform="translate(-197.9 -36.26)"/><path class="cls-14" d="M349.78,116l2.73-1.58a1.76,1.76,0,0,0,.73-1.4V110.1c0-.54-.33-.79-.73-.56l-2.73,1.58a1.74,1.74,0,0,0-.74,1.41v2.88C349,116,349.37,116.21,349.78,116Z" transform="translate(-197.9 -36.26)"/><path class="cls-8" d="M345.84,143.78l57.58-33.25a5.57,5.57,0,0,0,2.33-4.45v-11c0-1.72-1-2.51-2.33-1.77l-57.58,33.24a5.61,5.61,0,0,0-2.33,4.46v11C343.51,143.73,344.55,144.52,345.84,143.78Z" transform="translate(-197.9 -36.26)"/><path class="cls-15" d="M347.5,139.93l54.27-31.34a2.83,2.83,0,0,0,1.18-2.26V98.08c0-.87-.53-1.28-1.18-.9L347.5,128.52a2.81,2.81,0,0,0-1.19,2.26V139C346.31,139.9,346.84,140.3,347.5,139.93Z" transform="translate(-197.9 -36.26)"/><path class="cls-7" d="M390.46,111l8.1-4.68a2.75,2.75,0,0,0,1.15-2.19h0c0-.85-.52-1.24-1.15-.87l-8.1,4.67a2.75,2.75,0,0,0-1.15,2.2h0C389.31,110.93,389.82,111.32,390.46,111Z" transform="translate(-197.9 -36.26)"/><path class="cls-2" d="M383.56,113.4c0,.85.59,1.19,1.32.77a2.91,2.91,0,0,0,1.33-2.3c0-.85-.59-1.19-1.33-.77A3,3,0,0,0,383.56,113.4Z" transform="translate(-197.9 -36.26)"/><path class="cls-14" d="M378.87,116.11c0,.84.6,1.19,1.33.76a2.94,2.94,0,0,0,1.33-2.3c0-.84-.6-1.19-1.33-.76A2.94,2.94,0,0,0,378.87,116.11Z" transform="translate(-197.9 -36.26)"/><path class="cls-7" d="M374.19,118.81c0,.85.59,1.19,1.33.77a3,3,0,0,0,1.32-2.3c0-.85-.59-1.19-1.32-.77A2.91,2.91,0,0,0,374.19,118.81Z" transform="translate(-197.9 -36.26)"/><path class="cls-14" d="M369.51,121.51c0,.85.59,1.19,1.32.77a2.91,2.91,0,0,0,1.33-2.3c0-.85-.59-1.19-1.33-.77A3,3,0,0,0,369.51,121.51Z" transform="translate(-197.9 -36.26)"/><path class="cls-14" d="M349.78,135.33l2.73-1.57a1.79,1.79,0,0,0,.73-1.41v-2.89c0-.54-.33-.79-.73-.56l-2.73,1.58a1.74,1.74,0,0,0-.74,1.41v2.88C349,135.32,349.37,135.57,349.78,135.33Z" transform="translate(-197.9 -36.26)"/><path class="cls-8" d="M345.84,163.14l57.58-33.25a5.57,5.57,0,0,0,2.33-4.45v-11c0-1.72-1-2.51-2.33-1.77l-57.58,33.25a5.57,5.57,0,0,0-2.33,4.45v11C343.51,163.09,344.55,163.88,345.84,163.14Z" transform="translate(-197.9 -36.26)"/><path class="cls-15" d="M347.5,159.29,401.77,128a2.83,2.83,0,0,0,1.18-2.26v-8.25c0-.87-.53-1.27-1.18-.9L347.5,147.88a2.81,2.81,0,0,0-1.19,2.26v8.25C346.31,159.26,346.84,159.66,347.5,159.29Z" transform="translate(-197.9 -36.26)"/><path class="cls-7" d="M390.46,130.31l8.1-4.68a2.75,2.75,0,0,0,1.15-2.19h0c0-.85-.52-1.24-1.15-.87l-8.1,4.68a2.73,2.73,0,0,0-1.15,2.19h0C389.31,130.29,389.82,130.68,390.46,130.31Z" transform="translate(-197.9 -36.26)"/><path class="cls-2" d="M383.56,132.76c0,.85.59,1.19,1.32.77a2.91,2.91,0,0,0,1.33-2.3c0-.85-.59-1.19-1.33-.77A3,3,0,0,0,383.56,132.76Z" transform="translate(-197.9 -36.26)"/><path class="cls-14" d="M378.87,135.47c0,.84.6,1.19,1.33.76a2.94,2.94,0,0,0,1.33-2.3c0-.84-.6-1.19-1.33-.76A2.94,2.94,0,0,0,378.87,135.47Z" transform="translate(-197.9 -36.26)"/><path class="cls-7" d="M374.19,138.17c0,.85.59,1.19,1.33.77a3,3,0,0,0,1.32-2.3c0-.85-.59-1.19-1.32-.77A2.91,2.91,0,0,0,374.19,138.17Z" transform="translate(-197.9 -36.26)"/><path class="cls-14" d="M369.51,140.87c0,.85.59,1.19,1.32.77a2.91,2.91,0,0,0,1.33-2.3c0-.85-.59-1.19-1.33-.77A3,3,0,0,0,369.51,140.87Z" transform="translate(-197.9 -36.26)"/><path class="cls-14" d="M349.78,154.69l2.73-1.57a1.79,1.79,0,0,0,.73-1.41v-2.89c0-.54-.33-.79-.73-.56l-2.73,1.58a1.74,1.74,0,0,0-.74,1.41v2.88C349,154.68,349.37,154.93,349.78,154.69Z" transform="translate(-197.9 -36.26)"/><path class="cls-8" d="M345.84,182.5l57.58-33.25a5.57,5.57,0,0,0,2.33-4.45v-11c0-1.72-1-2.51-2.33-1.77L345.84,165.3a5.57,5.57,0,0,0-2.33,4.45v11C343.51,182.45,344.55,183.24,345.84,182.5Z" transform="translate(-197.9 -36.26)"/><path class="cls-15" d="M347.5,178.65l54.27-31.34a2.83,2.83,0,0,0,1.18-2.26V136.8c0-.87-.53-1.27-1.18-.9L347.5,167.24a2.81,2.81,0,0,0-1.19,2.26v8.25C346.31,178.62,346.84,179,347.5,178.65Z" transform="translate(-197.9 -36.26)"/><path class="cls-7" d="M390.46,149.67l8.1-4.68a2.75,2.75,0,0,0,1.15-2.19h0c0-.85-.52-1.24-1.15-.87l-8.1,4.68a2.73,2.73,0,0,0-1.15,2.19h0C389.31,149.65,389.82,150,390.46,149.67Z" transform="translate(-197.9 -36.26)"/><path class="cls-14" d="M383.56,152.12c0,.85.59,1.19,1.32.77a2.91,2.91,0,0,0,1.33-2.3c0-.85-.59-1.19-1.33-.77A3,3,0,0,0,383.56,152.12Z" transform="translate(-197.9 -36.26)"/><path class="cls-14" d="M378.87,154.83c0,.84.6,1.19,1.33.76a2.94,2.94,0,0,0,1.33-2.3c0-.84-.6-1.19-1.33-.76A2.94,2.94,0,0,0,378.87,154.83Z" transform="translate(-197.9 -36.26)"/><path class="cls-7" d="M374.19,157.53c0,.85.59,1.19,1.33.77a3,3,0,0,0,1.32-2.3c0-.85-.59-1.19-1.32-.77A2.91,2.91,0,0,0,374.19,157.53Z" transform="translate(-197.9 -36.26)"/><path class="cls-14" d="M369.51,160.23c0,.85.59,1.19,1.32.77a2.91,2.91,0,0,0,1.33-2.3c0-.84-.59-1.19-1.33-.76A2.92,2.92,0,0,0,369.51,160.23Z" transform="translate(-197.9 -36.26)"/><path class="cls-7" d="M349.78,174.05l2.73-1.57a1.79,1.79,0,0,0,.73-1.41v-2.89c0-.54-.33-.79-.73-.56l-2.73,1.58a1.74,1.74,0,0,0-.74,1.41v2.88C349,174,349.37,174.29,349.78,174.05Z" transform="translate(-197.9 -36.26)"/><path class="cls-8" d="M345.84,201.86l57.58-33.24a5.59,5.59,0,0,0,2.33-4.46v-11c0-1.72-1-2.51-2.33-1.77l-57.58,33.25a5.57,5.57,0,0,0-2.33,4.45v11C343.51,201.81,344.55,202.6,345.84,201.86Z" transform="translate(-197.9 -36.26)"/><path class="cls-15" d="M347.5,198l54.27-31.34a2.83,2.83,0,0,0,1.18-2.26v-8.25c0-.87-.53-1.27-1.18-.9L347.5,186.6a2.81,2.81,0,0,0-1.19,2.26v8.25C346.31,198,346.84,198.39,347.5,198Z" transform="translate(-197.9 -36.26)"/><path class="cls-7" d="M390.46,169l8.1-4.67a2.77,2.77,0,0,0,1.15-2.2h0c0-.85-.52-1.24-1.15-.87l-8.1,4.68a2.73,2.73,0,0,0-1.15,2.19h0C389.31,169,389.82,169.4,390.46,169Z" transform="translate(-197.9 -36.26)"/><path class="cls-14" d="M383.56,171.48c0,.85.59,1.19,1.32.77a2.91,2.91,0,0,0,1.33-2.3c0-.85-.59-1.19-1.33-.77A3,3,0,0,0,383.56,171.48Z" transform="translate(-197.9 -36.26)"/><path class="cls-2" d="M378.87,174.19c0,.84.6,1.19,1.33.76a2.94,2.94,0,0,0,1.33-2.3c0-.84-.6-1.19-1.33-.76A2.94,2.94,0,0,0,378.87,174.19Z" transform="translate(-197.9 -36.26)"/><path class="cls-7" d="M374.19,176.89c0,.85.59,1.19,1.33.77a3,3,0,0,0,1.32-2.3c0-.85-.59-1.19-1.32-.77A2.92,2.92,0,0,0,374.19,176.89Z" transform="translate(-197.9 -36.26)"/><path class="cls-2" d="M369.51,179.59c0,.85.59,1.19,1.32.77a2.91,2.91,0,0,0,1.33-2.3c0-.84-.59-1.19-1.33-.76A2.92,2.92,0,0,0,369.51,179.59Z" transform="translate(-197.9 -36.26)"/><path class="cls-7" d="M349.78,193.41l2.73-1.57a1.79,1.79,0,0,0,.73-1.41v-2.89c0-.54-.33-.79-.73-.56l-2.73,1.58A1.74,1.74,0,0,0,349,190v2.88C349,193.4,349.37,193.65,349.78,193.41Z" transform="translate(-197.9 -36.26)"/><path class="cls-8" d="M345.84,221.22,403.42,188a5.59,5.59,0,0,0,2.33-4.46v-11c0-1.72-1-2.51-2.33-1.77L345.84,204a5.57,5.57,0,0,0-2.33,4.45v11C343.51,221.17,344.55,222,345.84,221.22Z" transform="translate(-197.9 -36.26)"/><path class="cls-15" d="M347.5,217.37,401.77,186a2.83,2.83,0,0,0,1.18-2.26v-8.25c0-.87-.53-1.27-1.18-.9L347.5,206a2.81,2.81,0,0,0-1.19,2.26v8.25C346.31,217.34,346.84,217.75,347.5,217.37Z" transform="translate(-197.9 -36.26)"/><path class="cls-7" d="M390.46,188.39l8.1-4.67a2.77,2.77,0,0,0,1.15-2.2h0c0-.85-.52-1.24-1.15-.87l-8.1,4.68a2.73,2.73,0,0,0-1.15,2.19h0C389.31,188.37,389.82,188.76,390.46,188.39Z" transform="translate(-197.9 -36.26)"/><path class="cls-14" d="M383.56,190.84c0,.85.59,1.19,1.32.77a2.91,2.91,0,0,0,1.33-2.3c0-.85-.59-1.19-1.33-.77A3,3,0,0,0,383.56,190.84Z" transform="translate(-197.9 -36.26)"/><path class="cls-14" d="M378.87,193.55c0,.84.6,1.19,1.33.76a2.94,2.94,0,0,0,1.33-2.3c0-.84-.6-1.18-1.33-.76A2.94,2.94,0,0,0,378.87,193.55Z" transform="translate(-197.9 -36.26)"/><path class="cls-7" d="M374.19,196.25c0,.85.59,1.19,1.33.77a2.94,2.94,0,0,0,1.32-2.3c0-.85-.59-1.19-1.32-.77A2.92,2.92,0,0,0,374.19,196.25Z" transform="translate(-197.9 -36.26)"/><path class="cls-14" d="M369.51,199c0,.84.59,1.18,1.32.76a2.91,2.91,0,0,0,1.33-2.3c0-.84-.59-1.19-1.33-.76A2.93,2.93,0,0,0,369.51,199Z" transform="translate(-197.9 -36.26)"/><path class="cls-14" d="M349.78,212.77l2.73-1.57a1.79,1.79,0,0,0,.73-1.41V206.9c0-.54-.33-.79-.73-.56l-2.73,1.58a1.74,1.74,0,0,0-.74,1.41v2.88C349,212.76,349.37,213,349.78,212.77Z" transform="translate(-197.9 -36.26)"/><path class="cls-8" d="M345.84,240.58l57.58-33.24a5.59,5.59,0,0,0,2.33-4.46v-11c0-1.72-1-2.51-2.33-1.77l-57.58,33.25a5.58,5.58,0,0,0-2.33,4.46v11C343.51,240.53,344.55,241.32,345.84,240.58Z" transform="translate(-197.9 -36.26)"/><path class="cls-15" d="M347.5,236.73l54.27-31.34a2.83,2.83,0,0,0,1.18-2.26v-8.25c0-.87-.53-1.27-1.18-.9L347.5,225.32a2.83,2.83,0,0,0-1.19,2.26v8.25C346.31,236.71,346.84,237.11,347.5,236.73Z" transform="translate(-197.9 -36.26)"/><path class="cls-7" d="M390.46,207.75l8.1-4.67a2.77,2.77,0,0,0,1.15-2.2h0c0-.85-.52-1.24-1.15-.87l-8.1,4.68a2.73,2.73,0,0,0-1.15,2.19h0C389.31,207.73,389.82,208.12,390.46,207.75Z" transform="translate(-197.9 -36.26)"/><path class="cls-2" d="M382.08,211.25c0,1.6,1.12,2.25,2.5,1.45a5.52,5.52,0,0,0,2.51-4.34c0-1.6-1.12-2.25-2.51-1.45A5.54,5.54,0,0,0,382.08,211.25Z" transform="translate(-197.9 -36.26)"/><path class="cls-14" d="M372.38,216.93c0,.84.59,1.19,1.32.76A2.91,2.91,0,0,0,375,215.4c0-.85-.59-1.19-1.33-.77A2.93,2.93,0,0,0,372.38,216.93Z" transform="translate(-197.9 -36.26)"/><path class="cls-7" d="M367.69,219.63c0,.85.6,1.19,1.33.77a3,3,0,0,0,1.33-2.3c0-.85-.6-1.19-1.33-.77A3,3,0,0,0,367.69,219.63Z" transform="translate(-197.9 -36.26)"/><path class="cls-14" d="M363,222.34c0,.84.59,1.19,1.33.76a2.93,2.93,0,0,0,1.32-2.3c0-.84-.59-1.19-1.32-.76A2.91,2.91,0,0,0,363,222.34Z" transform="translate(-197.9 -36.26)"/><path class="cls-7" d="M349.78,232.13l2.73-1.57a1.79,1.79,0,0,0,.73-1.41v-2.89c0-.54-.33-.79-.73-.56l-2.73,1.58a1.74,1.74,0,0,0-.74,1.41v2.88C349,232.12,349.37,232.37,349.78,232.13Z" transform="translate(-197.9 -36.26)"/><path class="cls-16" d="M341,102.51,407,64.92c2.41-1.39,2.11-3.83-.68-5.43l-37.93-21.9c-2.78-1.61-7-1.79-9.41-.39L293,74.79c-2.42,1.39-2.11,3.82.67,5.43l37.93,21.9C334.42,103.73,338.63,103.9,341,102.51Z" transform="translate(-197.9 -36.26)"/><path class="cls-14" d="M369,60.12a3.81,3.81,0,0,0-3.42,0L333.31,78.81a1,1,0,0,0,0,2,3.81,3.81,0,0,0,3.42,0L369,62.1A1,1,0,0,0,369,60.12Z" transform="translate(-197.9 -36.26)"/><path class="cls-4" d="M423,318.88l65.93-37.6c2.41-1.39,2.11-3.82-.67-5.43L450.3,254c-2.78-1.61-7-1.78-9.4-.39L375,291.15c-2.41,1.4-2.11,3.83.67,5.43l37.94,21.91C416.36,320.09,420.57,320.27,423,318.88Z" transform="translate(-197.9 -36.26)"/><path class="cls-2" d="M418.89,310.48a12.6,12.6,0,0,1-6.2-1.56L374.76,287c-2-1.17-3.19-2.85-3.19-4.6a4.59,4.59,0,0,1,2.51-3.9L440,240.93c2.94-1.7,7.85-1.53,11.17.39l37.93,21.9c2,1.17,3.19,2.85,3.19,4.61a4.56,4.56,0,0,1-2.51,3.89l-65.94,37.6A10.11,10.11,0,0,1,418.89,310.48ZM445,243.3a6.56,6.56,0,0,0-3.18.7l-65.93,37.6c-.46.26-.74.57-.74.82s.44,1,1.42,1.54l37.93,21.9c2.22,1.27,5.79,1.46,7.64.39h0L488,268.65c.45-.27.73-.57.73-.82s-.44-1-1.42-1.54l-37.93-21.9A9.23,9.23,0,0,0,445,243.3Z" transform="translate(-197.9 -36.26)"/><path class="cls-17" d="M373.35,270.53h0V127.06l57-14.93,10.51-6.06c2.41-1.4,6.62-1.22,9.4.39l9.81,5.65h30.42l-9,138.5a2.73,2.73,0,0,1-1.62,2.52L423,296.07c-2.41,1.39-6.62,1.22-9.4-.39l-37.94-21.9C374,272.85,373.26,271.65,373.35,270.53Z" transform="translate(-197.9 -36.26)"/><path class="cls-7" d="M445.26,105.13a10.84,10.84,0,0,1,5,1.33l9.81,5.65h30.42V256a2.73,2.73,0,0,1-1.62,2.52L423,296.07a8.46,8.46,0,0,1-4.36.93l-.68-144.76Z" transform="translate(-197.9 -36.26)"/><path class="cls-8" d="M422.38,296.37a10.71,10.71,0,0,1-7.52-.09V150.53h7.52Z" transform="translate(-197.9 -36.26)"/><path class="cls-18" d="M423,152.26l65.93-37.59c2.41-1.39,2.11-3.83-.67-5.43L450.3,87.34c-2.78-1.61-7-1.79-9.4-.39L375,124.54c-2.41,1.39-2.11,3.82.67,5.43l37.94,21.9C416.36,153.48,420.57,153.65,423,152.26Z" transform="translate(-197.9 -36.26)"/><path class="cls-13" d="M375.64,127.3l37.94,21.9c2.78,1.61,7,1.79,9.4.39L488.91,112a3.56,3.56,0,0,0,1.21-1.07c.82,1.34.45,2.78-1.21,3.74L423,152.26c-2.41,1.39-6.62,1.22-9.4-.39L375.64,130c-2.16-1.25-2.82-3-1.87-4.36A5.12,5.12,0,0,0,375.64,127.3Z" transform="translate(-197.9 -36.26)"/><path class="cls-19" d="M421.12,137,465,111.58c1.13-.65,1-1.79-.31-2.54L447,98.79a4.92,4.92,0,0,0-4.41-.18l-43.89,25.44c-1.13.65-1,1.79.32,2.54l17.75,10.25A4.87,4.87,0,0,0,421.12,137Z" transform="translate(-197.9 -36.26)"/><path class="cls-7" d="M444.82,112.72l2.54-1.46c.16-.09.14-.25,0-.36l-2.46-1.41a.66.66,0,0,0-.61,0l-2.54,1.47c-.16.09-.14.25,0,.35l2.46,1.42A.69.69,0,0,0,444.82,112.72Z" transform="translate(-197.9 -36.26)"/><path class="cls-7" d="M436.32,117.61l2.54-1.47c.16-.09.14-.25,0-.35l-2.46-1.42a.69.69,0,0,0-.61,0l-2.54,1.47c-.16.09-.14.24,0,.35l2.46,1.42A.69.69,0,0,0,436.32,117.61Z" transform="translate(-197.9 -36.26)"/><path class="cls-7" d="M427.82,122.5l2.54-1.47c.16-.09.14-.25,0-.35l-2.46-1.42a.64.64,0,0,0-.6,0l-2.55,1.47c-.15.09-.13.25.05.35l2.45,1.42A.66.66,0,0,0,427.82,122.5Z" transform="translate(-197.9 -36.26)"/><path class="cls-7" d="M419.32,127.38l2.55-1.47c.15-.09.13-.24-.05-.35l-2.45-1.42a.69.69,0,0,0-.61,0l-2.54,1.47c-.16.09-.14.25,0,.35l2.45,1.42A.69.69,0,0,0,419.32,127.38Z" transform="translate(-197.9 -36.26)"/><path class="cls-8" d="M465,111.58l-.05,0-.26-.18L447,101.18a4.92,4.92,0,0,0-4.41-.18L398.7,126.41c-1-.74-1.09-1.75-.05-2.36l43.89-25.44a4.92,4.92,0,0,1,4.41.18L464.7,109C466,109.79,466.14,110.93,465,111.58Z" transform="translate(-197.9 -36.26)"/><path class="cls-14" d="M406.17,180.69l-25-14.29a6.1,6.1,0,0,1-2.54-4.86v-8.93c0-1.87,1.14-2.73,2.54-1.92l25,14.29a6.08,6.08,0,0,1,2.54,4.86v8.92C408.71,180.64,407.58,181.5,406.17,180.69Z" transform="translate(-197.9 -36.26)"/><path class="cls-2" d="M380,150.42a2.5,2.5,0,0,0-.64,1.86v8.92a6.09,6.09,0,0,0,2.54,4.86l25,14.29a1.86,1.86,0,0,0,1.24.27,1.52,1.52,0,0,1-1.91.07l-25-14.29a6.1,6.1,0,0,1-2.54-4.86v-8.93C378.67,151.34,379.2,150.56,380,150.42Z" transform="translate(-197.9 -36.26)"/><path class="cls-5" d="M398.66,171l-2.28-1.32a1.33,1.33,0,0,1-.56-1.06v-2.44c0-.41.25-.6.56-.42l2.28,1.32a1.33,1.33,0,0,1,.56,1.06v2.44C399.22,171,399,171.17,398.66,171Z" transform="translate(-197.9 -36.26)"/><path class="cls-2" d="M391,166.57l-2.29-1.32a1.32,1.32,0,0,1-.55-1.06v-2.44c0-.41.24-.6.55-.42l2.29,1.32a1.32,1.32,0,0,1,.55,1.06v2.44C391.56,166.56,391.32,166.75,391,166.57Z" transform="translate(-197.9 -36.26)"/><path class="cls-14" d="M406.17,245.18l-25-14.29a6.1,6.1,0,0,1-2.54-4.86v-8.92c0-1.88,1.14-2.74,2.54-1.93l25,14.29a6.08,6.08,0,0,1,2.54,4.86v8.93C408.71,245.13,407.58,246,406.17,245.18Z" transform="translate(-197.9 -36.26)"/><path class="cls-2" d="M380,214.91a2.52,2.52,0,0,0-.64,1.86v8.93a6.09,6.09,0,0,0,2.54,4.85l25,14.29a1.8,1.8,0,0,0,1.24.27,1.52,1.52,0,0,1-1.91.07l-25-14.29a6.1,6.1,0,0,1-2.54-4.86v-8.92C378.67,215.83,379.2,215.05,380,214.91Z" transform="translate(-197.9 -36.26)"/><path class="cls-5" d="M398.66,235.48l-2.28-1.32a1.33,1.33,0,0,1-.56-1.06v-2.44c0-.41.25-.6.56-.42l2.28,1.32a1.33,1.33,0,0,1,.56,1.06v2.44C399.22,235.47,399,235.66,398.66,235.48Z" transform="translate(-197.9 -36.26)"/><path class="cls-2" d="M391,231.06l-2.29-1.32a1.3,1.3,0,0,1-.55-1.06v-2.44c0-.41.24-.6.55-.42l2.29,1.32a1.32,1.32,0,0,1,.55,1.06v2.44C391.56,231.05,391.32,231.24,391,231.06Z" transform="translate(-197.9 -36.26)"/><path class="cls-14" d="M406.17,277.42l-25-14.28a6.12,6.12,0,0,1-2.54-4.86v-8.93c0-1.87,1.14-2.73,2.54-1.92l25,14.29a6.06,6.06,0,0,1,2.54,4.86v8.92C408.71,277.37,407.58,278.23,406.17,277.42Z" transform="translate(-197.9 -36.26)"/><path class="cls-2" d="M380,247.16a2.5,2.5,0,0,0-.64,1.86v8.92a6.1,6.1,0,0,0,2.54,4.86l25,14.29a1.86,1.86,0,0,0,1.24.27,1.53,1.53,0,0,1-1.91.06l-25-14.28a6.12,6.12,0,0,1-2.54-4.86v-8.93C378.67,248.08,379.2,247.29,380,247.16Z" transform="translate(-197.9 -36.26)"/><path class="cls-5" d="M398.66,267.73l-2.28-1.32a1.33,1.33,0,0,1-.56-1.06V262.9c0-.41.25-.59.56-.42l2.28,1.33a1.31,1.31,0,0,1,.56,1.05v2.45C399.22,267.72,399,267.91,398.66,267.73Z" transform="translate(-197.9 -36.26)"/><path class="cls-2" d="M391,263.31,388.72,262a1.32,1.32,0,0,1-.55-1.06v-2.45c0-.4.24-.59.55-.42l2.29,1.33a1.3,1.3,0,0,1,.55,1.06v2.44C391.56,263.3,391.32,263.49,391,263.31Z" transform="translate(-197.9 -36.26)"/><path class="cls-14" d="M406.17,212.93l-25-14.29a6.09,6.09,0,0,1-2.54-4.85v-8.93c0-1.87,1.14-2.73,2.54-1.92l25,14.29a6.06,6.06,0,0,1,2.54,4.86V211C408.71,212.88,407.58,213.74,406.17,212.93Z" transform="translate(-197.9 -36.26)"/><path class="cls-2" d="M380,182.67a2.5,2.5,0,0,0-.64,1.86v8.92a6.1,6.1,0,0,0,2.54,4.86l25,14.29a1.86,1.86,0,0,0,1.24.27,1.53,1.53,0,0,1-1.91.06l-25-14.29a6.09,6.09,0,0,1-2.54-4.85v-8.93C378.67,183.59,379.2,182.8,380,182.67Z" transform="translate(-197.9 -36.26)"/><path class="cls-5" d="M398.66,203.24l-2.28-1.32a1.34,1.34,0,0,1-.56-1.06v-2.45c0-.41.25-.59.56-.42l2.28,1.32a1.34,1.34,0,0,1,.56,1.06v2.45C399.22,203.23,399,203.41,398.66,203.24Z" transform="translate(-197.9 -36.26)"/><path class="cls-2" d="M391,198.82l-2.29-1.32a1.32,1.32,0,0,1-.55-1.06V194c0-.41.24-.59.55-.42l2.29,1.32a1.33,1.33,0,0,1,.55,1.06v2.45C391.56,198.81,391.32,199,391,198.82Z" transform="translate(-197.9 -36.26)"/><path class="cls-8" d="M427.79,171.55l57.57-33.24a5.6,5.6,0,0,0,2.34-4.46v-11c0-1.72-1.05-2.51-2.34-1.76l-57.57,33.24a5.58,5.58,0,0,0-2.34,4.46v11C425.45,171.51,426.5,172.3,427.79,171.55Z" transform="translate(-197.9 -36.26)"/><path class="cls-15" d="M429.44,167.7l54.27-31.33a2.85,2.85,0,0,0,1.18-2.26v-8.26c0-.87-.53-1.27-1.18-.89l-54.27,31.33a2.85,2.85,0,0,0-1.18,2.26v8.26C428.26,167.68,428.79,168.08,429.44,167.7Z" transform="translate(-197.9 -36.26)"/><path class="cls-7" d="M472.4,138.73l8.1-4.68a2.77,2.77,0,0,0,1.15-2.2h0c0-.84-.52-1.23-1.15-.87l-8.1,4.68a2.77,2.77,0,0,0-1.15,2.2h0C471.25,138.7,471.77,139.09,472.4,138.73Z" transform="translate(-197.9 -36.26)"/><path class="cls-14" d="M465.5,141.18c0,.84.59,1.19,1.33.76a2.93,2.93,0,0,0,1.32-2.3c0-.84-.59-1.19-1.32-.76A2.91,2.91,0,0,0,465.5,141.18Z" transform="translate(-197.9 -36.26)"/><path class="cls-14" d="M460.82,143.88c0,.85.59,1.19,1.32.77a2.94,2.94,0,0,0,1.33-2.3c0-.85-.59-1.19-1.33-.77A2.94,2.94,0,0,0,460.82,143.88Z" transform="translate(-197.9 -36.26)"/><path class="cls-7" d="M456.13,146.58c0,.85.6,1.19,1.33.77a2.94,2.94,0,0,0,1.33-2.3c0-.84-.6-1.19-1.33-.76A2.93,2.93,0,0,0,456.13,146.58Z" transform="translate(-197.9 -36.26)"/><path class="cls-14" d="M451.45,149.29c0,.85.59,1.19,1.33.76a2.92,2.92,0,0,0,1.32-2.29c0-.85-.59-1.19-1.32-.77A2.91,2.91,0,0,0,451.45,149.29Z" transform="translate(-197.9 -36.26)"/><path class="cls-14" d="M431.72,163.11l2.73-1.58a1.77,1.77,0,0,0,.74-1.41v-2.89c0-.54-.33-.79-.74-.55l-2.73,1.57a1.77,1.77,0,0,0-.74,1.41v2.89C431,163.09,431.31,163.34,431.72,163.11Z" transform="translate(-197.9 -36.26)"/><path class="cls-8" d="M427.79,190.91l57.57-33.24a5.58,5.58,0,0,0,2.34-4.46v-11c0-1.72-1.05-2.51-2.34-1.76l-57.57,33.24a5.58,5.58,0,0,0-2.34,4.46v11C425.45,190.87,426.5,191.66,427.79,190.91Z" transform="translate(-197.9 -36.26)"/><path class="cls-15" d="M429.44,187.06l54.27-31.33a2.85,2.85,0,0,0,1.18-2.26v-8.26c0-.87-.53-1.27-1.18-.89l-54.27,31.33a2.85,2.85,0,0,0-1.18,2.26v8.26C428.26,187,428.79,187.44,429.44,187.06Z" transform="translate(-197.9 -36.26)"/><path class="cls-7" d="M472.4,158.09l8.1-4.68a2.77,2.77,0,0,0,1.15-2.2h0c0-.84-.52-1.23-1.15-.87L472.4,155a2.77,2.77,0,0,0-1.15,2.2h0C471.25,158.06,471.77,158.45,472.4,158.09Z" transform="translate(-197.9 -36.26)"/><path class="cls-2" d="M465.5,160.54c0,.84.59,1.19,1.33.76a2.93,2.93,0,0,0,1.32-2.3c0-.84-.59-1.18-1.32-.76A2.91,2.91,0,0,0,465.5,160.54Z" transform="translate(-197.9 -36.26)"/><path class="cls-14" d="M460.82,163.24c0,.85.59,1.19,1.32.77a2.92,2.92,0,0,0,1.33-2.3c0-.85-.59-1.19-1.33-.77A2.94,2.94,0,0,0,460.82,163.24Z" transform="translate(-197.9 -36.26)"/><path class="cls-7" d="M456.13,166c0,.84.6,1.18,1.33.76a2.94,2.94,0,0,0,1.33-2.3c0-.84-.6-1.19-1.33-.76A2.94,2.94,0,0,0,456.13,166Z" transform="translate(-197.9 -36.26)"/><path class="cls-14" d="M451.45,168.65c0,.85.59,1.19,1.33.77a3,3,0,0,0,1.32-2.3c0-.85-.59-1.19-1.32-.77A2.91,2.91,0,0,0,451.45,168.65Z" transform="translate(-197.9 -36.26)"/><path class="cls-14" d="M431.72,182.47l2.73-1.58a1.76,1.76,0,0,0,.74-1.41v-2.89c0-.54-.33-.79-.74-.55l-2.73,1.57A1.77,1.77,0,0,0,431,179v2.89C431,182.45,431.31,182.7,431.72,182.47Z" transform="translate(-197.9 -36.26)"/><path class="cls-8" d="M427.79,210.27,485.36,177a5.58,5.58,0,0,0,2.34-4.46v-11c0-1.72-1.05-2.51-2.34-1.76l-57.57,33.24a5.58,5.58,0,0,0-2.34,4.46v11C425.45,210.23,426.5,211,427.79,210.27Z" transform="translate(-197.9 -36.26)"/><path class="cls-15" d="M429.44,206.42l54.27-31.33a2.85,2.85,0,0,0,1.18-2.26v-8.26c0-.87-.53-1.27-1.18-.89L429.44,195a2.85,2.85,0,0,0-1.18,2.26v8.26C428.26,206.4,428.79,206.8,429.44,206.42Z" transform="translate(-197.9 -36.26)"/><path class="cls-7" d="M472.4,177.45l8.1-4.68a2.77,2.77,0,0,0,1.15-2.2h0c0-.84-.52-1.23-1.15-.87l-8.1,4.68a2.77,2.77,0,0,0-1.15,2.2h0C471.25,177.42,471.77,177.81,472.4,177.45Z" transform="translate(-197.9 -36.26)"/><path class="cls-2" d="M465.5,179.9c0,.84.59,1.19,1.33.76a2.92,2.92,0,0,0,1.32-2.29c0-.85-.59-1.19-1.32-.77A2.91,2.91,0,0,0,465.5,179.9Z" transform="translate(-197.9 -36.26)"/><path class="cls-14" d="M460.82,182.6c0,.85.59,1.19,1.32.77a2.92,2.92,0,0,0,1.33-2.3c0-.85-.59-1.19-1.33-.77A3,3,0,0,0,460.82,182.6Z" transform="translate(-197.9 -36.26)"/><path class="cls-7" d="M456.13,185.31c0,.84.6,1.19,1.33.76a2.94,2.94,0,0,0,1.33-2.3c0-.84-.6-1.19-1.33-.76A2.94,2.94,0,0,0,456.13,185.31Z" transform="translate(-197.9 -36.26)"/><path class="cls-14" d="M451.45,188c0,.85.59,1.19,1.33.77a3,3,0,0,0,1.32-2.3c0-.85-.59-1.19-1.32-.77A2.91,2.91,0,0,0,451.45,188Z" transform="translate(-197.9 -36.26)"/><path class="cls-14" d="M431.72,201.83l2.73-1.58a1.76,1.76,0,0,0,.74-1.41V196c0-.54-.33-.79-.74-.55L431.72,197a1.77,1.77,0,0,0-.74,1.41v2.89C431,201.81,431.31,202.06,431.72,201.83Z" transform="translate(-197.9 -36.26)"/><path class="cls-8" d="M427.79,229.63l57.57-33.24a5.58,5.58,0,0,0,2.34-4.46V181c0-1.72-1.05-2.51-2.34-1.76l-57.57,33.24a5.58,5.58,0,0,0-2.34,4.46v11C425.45,229.59,426.5,230.38,427.79,229.63Z" transform="translate(-197.9 -36.26)"/><path class="cls-15" d="M429.44,225.78l54.27-31.33a2.85,2.85,0,0,0,1.18-2.26v-8.26c0-.87-.53-1.27-1.18-.89l-54.27,31.33a2.85,2.85,0,0,0-1.18,2.26v8.26C428.26,225.76,428.79,226.16,429.44,225.78Z" transform="translate(-197.9 -36.26)"/><path class="cls-7" d="M472.4,196.81l8.1-4.68a2.77,2.77,0,0,0,1.15-2.2h0c0-.84-.52-1.23-1.15-.87l-8.1,4.68a2.77,2.77,0,0,0-1.15,2.2h0C471.25,196.78,471.77,197.17,472.4,196.81Z" transform="translate(-197.9 -36.26)"/><path class="cls-14" d="M465.5,199.26c0,.84.59,1.19,1.33.76a2.92,2.92,0,0,0,1.32-2.29c0-.85-.59-1.19-1.32-.77A2.91,2.91,0,0,0,465.5,199.26Z" transform="translate(-197.9 -36.26)"/><path class="cls-14" d="M460.82,202c0,.85.59,1.19,1.32.77a2.91,2.91,0,0,0,1.33-2.3c0-.85-.59-1.19-1.33-.77A3,3,0,0,0,460.82,202Z" transform="translate(-197.9 -36.26)"/><path class="cls-7" d="M456.13,204.67c0,.84.6,1.19,1.33.76a2.94,2.94,0,0,0,1.33-2.3c0-.84-.6-1.19-1.33-.76A2.94,2.94,0,0,0,456.13,204.67Z" transform="translate(-197.9 -36.26)"/><path class="cls-14" d="M451.45,207.37c0,.85.59,1.19,1.33.77a3,3,0,0,0,1.32-2.3c0-.85-.59-1.19-1.32-.77A2.91,2.91,0,0,0,451.45,207.37Z" transform="translate(-197.9 -36.26)"/><path class="cls-7" d="M431.72,221.19l2.73-1.58a1.76,1.76,0,0,0,.74-1.41v-2.88c0-.55-.33-.8-.74-.56l-2.73,1.57a1.77,1.77,0,0,0-.74,1.41v2.89C431,221.17,431.31,221.42,431.72,221.19Z" transform="translate(-197.9 -36.26)"/><path class="cls-8" d="M427.79,249l57.57-33.24a5.58,5.58,0,0,0,2.34-4.46v-11c0-1.72-1.05-2.51-2.34-1.76l-57.57,33.24a5.6,5.6,0,0,0-2.34,4.46v11C425.45,249,426.5,249.74,427.79,249Z" transform="translate(-197.9 -36.26)"/><path class="cls-15" d="M429.44,245.14l54.27-31.33a2.85,2.85,0,0,0,1.18-2.26v-8.26c0-.87-.53-1.27-1.18-.89l-54.27,31.33a2.85,2.85,0,0,0-1.18,2.26v8.26C428.26,245.12,428.79,245.52,429.44,245.14Z" transform="translate(-197.9 -36.26)"/><path class="cls-7" d="M472.4,216.17l8.1-4.68a2.77,2.77,0,0,0,1.15-2.2h0c0-.84-.52-1.23-1.15-.87l-8.1,4.68a2.77,2.77,0,0,0-1.15,2.2h0C471.25,216.14,471.77,216.53,472.4,216.17Z" transform="translate(-197.9 -36.26)"/><path class="cls-14" d="M465.5,218.62c0,.85.59,1.19,1.33.77a3,3,0,0,0,1.32-2.3c0-.85-.59-1.19-1.32-.77A2.91,2.91,0,0,0,465.5,218.62Z" transform="translate(-197.9 -36.26)"/><path class="cls-2" d="M460.82,221.32c0,.85.59,1.19,1.32.77a2.91,2.91,0,0,0,1.33-2.3c0-.85-.59-1.19-1.33-.77A3,3,0,0,0,460.82,221.32Z" transform="translate(-197.9 -36.26)"/><path class="cls-7" d="M456.13,224c0,.84.6,1.19,1.33.76a2.94,2.94,0,0,0,1.33-2.3c0-.84-.6-1.19-1.33-.76A2.94,2.94,0,0,0,456.13,224Z" transform="translate(-197.9 -36.26)"/><path class="cls-2" d="M451.45,226.73c0,.85.59,1.19,1.33.77a3,3,0,0,0,1.32-2.3c0-.85-.59-1.19-1.32-.77A2.91,2.91,0,0,0,451.45,226.73Z" transform="translate(-197.9 -36.26)"/><path class="cls-7" d="M431.72,240.55l2.73-1.58a1.74,1.74,0,0,0,.74-1.41v-2.88c0-.55-.33-.8-.74-.56l-2.73,1.57a1.77,1.77,0,0,0-.74,1.41V240C431,240.53,431.31,240.78,431.72,240.55Z" transform="translate(-197.9 -36.26)"/><path class="cls-8" d="M427.79,268.35l57.57-33.24a5.58,5.58,0,0,0,2.34-4.46v-11c0-1.71-1.05-2.5-2.34-1.76l-57.57,33.24a5.6,5.6,0,0,0-2.34,4.46v11C425.45,268.31,426.5,269.1,427.79,268.35Z" transform="translate(-197.9 -36.26)"/><path class="cls-15" d="M429.44,264.5l54.27-31.33a2.85,2.85,0,0,0,1.18-2.26v-8.26c0-.87-.53-1.27-1.18-.89l-54.27,31.33a2.85,2.85,0,0,0-1.18,2.26v8.26C428.26,264.48,428.79,264.88,429.44,264.5Z" transform="translate(-197.9 -36.26)"/><path class="cls-7" d="M472.4,235.53l8.1-4.68a2.77,2.77,0,0,0,1.15-2.2h0c0-.84-.52-1.23-1.15-.86l-8.1,4.67a2.77,2.77,0,0,0-1.15,2.2h0C471.25,235.5,471.77,235.89,472.4,235.53Z" transform="translate(-197.9 -36.26)"/><path class="cls-14" d="M465.5,238c0,.85.59,1.19,1.33.77a3,3,0,0,0,1.32-2.3c0-.85-.59-1.19-1.32-.77A2.91,2.91,0,0,0,465.5,238Z" transform="translate(-197.9 -36.26)"/><path class="cls-14" d="M460.82,240.68c0,.85.59,1.19,1.32.77a2.91,2.91,0,0,0,1.33-2.3c0-.85-.59-1.19-1.33-.77A3,3,0,0,0,460.82,240.68Z" transform="translate(-197.9 -36.26)"/><path class="cls-7" d="M456.13,243.39c0,.84.6,1.19,1.33.76a2.94,2.94,0,0,0,1.33-2.3c0-.84-.6-1.19-1.33-.76A2.94,2.94,0,0,0,456.13,243.39Z" transform="translate(-197.9 -36.26)"/><path class="cls-14" d="M451.45,246.09c0,.85.59,1.19,1.33.77a3,3,0,0,0,1.32-2.3c0-.85-.59-1.19-1.32-.77A2.91,2.91,0,0,0,451.45,246.09Z" transform="translate(-197.9 -36.26)"/><path class="cls-14" d="M431.72,259.91l2.73-1.58a1.74,1.74,0,0,0,.74-1.41V254c0-.55-.33-.8-.74-.56l-2.73,1.57a1.77,1.77,0,0,0-.74,1.41v2.89C431,259.89,431.31,260.14,431.72,259.91Z" transform="translate(-197.9 -36.26)"/><path class="cls-8" d="M427.79,287.71l57.57-33.24A5.58,5.58,0,0,0,487.7,250V239c0-1.71-1.05-2.5-2.34-1.76l-57.57,33.24a5.6,5.6,0,0,0-2.34,4.46v11C425.45,287.67,426.5,288.46,427.79,287.71Z" transform="translate(-197.9 -36.26)"/><path class="cls-15" d="M429.44,283.86l54.27-31.33a2.85,2.85,0,0,0,1.18-2.26V242c0-.87-.53-1.27-1.18-.89l-54.27,31.33a2.85,2.85,0,0,0-1.18,2.26V283C428.26,283.84,428.79,284.24,429.44,283.86Z" transform="translate(-197.9 -36.26)"/><path class="cls-7" d="M472.4,254.89l8.1-4.68a2.77,2.77,0,0,0,1.15-2.2h0c0-.84-.52-1.23-1.15-.86l-8.1,4.67a2.77,2.77,0,0,0-1.15,2.2h0C471.25,254.86,471.77,255.25,472.4,254.89Z" transform="translate(-197.9 -36.26)"/><path class="cls-2" d="M464,258.39c0,1.6,1.12,2.24,2.51,1.44a5.53,5.53,0,0,0,2.5-4.34c0-1.6-1.12-2.25-2.5-1.45A5.54,5.54,0,0,0,464,258.39Z" transform="translate(-197.9 -36.26)"/><path class="cls-14" d="M454.32,264.06c0,.85.59,1.19,1.33.77a2.93,2.93,0,0,0,1.32-2.3c0-.85-.59-1.19-1.32-.77A2.94,2.94,0,0,0,454.32,264.06Z" transform="translate(-197.9 -36.26)"/><path class="cls-7" d="M449.64,266.77c0,.84.59,1.19,1.32.76a2.91,2.91,0,0,0,1.33-2.3c0-.84-.59-1.19-1.33-.76A2.93,2.93,0,0,0,449.64,266.77Z" transform="translate(-197.9 -36.26)"/><path class="cls-14" d="M445,269.47c0,.85.6,1.19,1.33.77a3,3,0,0,0,1.33-2.3c0-.85-.6-1.19-1.33-.77A2.94,2.94,0,0,0,445,269.47Z" transform="translate(-197.9 -36.26)"/><path class="cls-7" d="M431.72,279.27l2.73-1.58a1.74,1.74,0,0,0,.74-1.41V273.4c0-.55-.33-.8-.74-.56l-2.73,1.57a1.77,1.77,0,0,0-.74,1.41v2.89C431,279.25,431.31,279.5,431.72,279.27Z" transform="translate(-197.9 -36.26)"/><path class="cls-4" d="M264.17,306.28l-31.16-18c-1.92-1.1-1.68-3,.53-4.31l30.1-17.37a8.32,8.32,0,0,1,7.46-.31l31.16,18c1.91,1.11,1.67,3-.53,4.31L271.63,306A8.32,8.32,0,0,1,264.17,306.28Z" transform="translate(-197.9 -36.26)"/><path class="cls-2" d="M267.43,299a8.32,8.32,0,0,1-4.14-1l-31.17-18a4,4,0,0,1-2.17-3.41,4.79,4.79,0,0,1,2.71-4l30.09-17.37a10,10,0,0,1,9.23-.31l31.17,18a4,4,0,0,1,2.17,3.41,4.77,4.77,0,0,1-2.71,4l-30.09,17.37A10.39,10.39,0,0,1,267.43,299Zm-2.37-4.05a6.6,6.6,0,0,0,5.69-.31l30.09-17.38c.76-.43.94-.83.94-.9a1.12,1.12,0,0,0-.4-.34l-31.17-18a6.53,6.53,0,0,0-5.69.31l-30.09,17.37c-.76.44-.94.83-.94.91a1.16,1.16,0,0,0,.4.33Z" transform="translate(-197.9 -36.26)"/><path class="cls-5" d="M303.54,265.28h0V254.53H279.43l-8.33-4.82a8.32,8.32,0,0,0-7.46.31l-7.78,4.49H231.73v11.06a2.15,2.15,0,0,0,1.28,2l31.16,18a8.29,8.29,0,0,0,7.46-.31l30.1-17.37C303,267.12,303.61,266.17,303.54,265.28Z" transform="translate(-197.9 -36.26)"/><path class="cls-20" d="M267.64,249a8.69,8.69,0,0,0-4,1l-7.78,4.49H231.73v11.06a2.15,2.15,0,0,0,1.28,2l31.16,18a6.79,6.79,0,0,0,3.47.74Z" transform="translate(-197.9 -36.26)"/><path class="cls-7" d="M234.46,254.49h-2.73v11.06a2.15,2.15,0,0,0,1.28,2l1.45.83Z" transform="translate(-197.9 -36.26)"/><path class="cls-8" d="M264.65,285.78a8.59,8.59,0,0,0,6-.07V273.15h-6Z" transform="translate(-197.9 -36.26)"/><path class="cls-21" d="M264.17,274.52l-31.16-18c-1.92-1.11-1.68-3,.53-4.31l30.1-17.37a8.26,8.26,0,0,1,7.46-.31l31.16,18c1.91,1.1,1.67,3-.53,4.31l-30.1,17.37C269.43,275.49,266.08,275.63,264.17,274.52Z" transform="translate(-197.9 -36.26)"/><path class="cls-2" d="M301.73,254.72l-30.1,17.38a8.32,8.32,0,0,1-7.46.31l-31.16-18a2.86,2.86,0,0,1-1-.84c-.65,1.05-.36,2.2,1,3l31.16,18c1.91,1.11,5.26,1,7.46-.31l30.1-17.37c1.71-1,2.23-2.38,1.49-3.46A4.21,4.21,0,0,1,301.73,254.72Z" transform="translate(-197.9 -36.26)"/><path class="cls-7" d="M292.08,268.12a2.77,2.77,0,0,1-1.26,2.18c-.69.4-1.26.08-1.26-.73a2.82,2.82,0,0,1,1.26-2.18C291.52,267,292.08,267.32,292.08,268.12Z" transform="translate(-197.9 -36.26)"/><path class="cls-7" d="M296.13,265.78a2.77,2.77,0,0,1-1.26,2.18c-.69.4-1.26.08-1.26-.72a2.78,2.78,0,0,1,1.26-2.18C295.57,264.65,296.13,265,296.13,265.78Z" transform="translate(-197.9 -36.26)"/><path class="cls-7" d="M300.18,263.44a2.76,2.76,0,0,1-1.26,2.18c-.69.41-1.26.08-1.26-.72a2.78,2.78,0,0,1,1.26-2.18C299.62,262.32,300.18,262.64,300.18,263.44Z" transform="translate(-197.9 -36.26)"/><path class="cls-8" d="M266,263.37,251.43,255c-.89-.52-.78-1.42.25-2l14.08-8.13a3.88,3.88,0,0,1,3.5-.14l14.58,8.42c.89.51.78,1.42-.25,2l-14.08,8.13A3.91,3.91,0,0,1,266,263.37Z" transform="translate(-197.9 -36.26)"/><path class="cls-7" d="M267.41,256.32l-2-1.17c-.12-.07-.11-.19,0-.28l1.95-1.12a.54.54,0,0,1,.48,0l2,1.16c.12.07.11.2,0,.28l-1.95,1.13A.54.54,0,0,1,267.41,256.32Z" transform="translate(-197.9 -36.26)"/><path class="cls-5" d="M251.43,255l0,0a1.53,1.53,0,0,1,.21-.14l14.08-8.13a3.88,3.88,0,0,1,3.5-.15L283.8,255c.82-.59.87-1.4,0-1.87l-14.58-8.42a3.88,3.88,0,0,0-3.5.14l-14.08,8.13C250.65,253.53,250.54,254.43,251.43,255Z" transform="translate(-197.9 -36.26)"/><path class="cls-4" d="M349,355.05l-31.17-18c-1.91-1.1-1.67-3,.54-4.31l30.09-17.37c2.21-1.28,5.55-1.42,7.46-.31l31.17,18c1.91,1.11,1.67,3-.54,4.31l-30.09,17.37C354.28,356,350.94,356.16,349,355.05Z" transform="translate(-197.9 -36.26)"/><path class="cls-2" d="M352.29,347.73a8.44,8.44,0,0,1-4.15-1l-31.16-18a4,4,0,0,1-2.18-3.41,4.77,4.77,0,0,1,2.71-4L347.61,304a10,10,0,0,1,9.23-.31l31.16,18a4,4,0,0,1,2.18,3.41,4.79,4.79,0,0,1-2.71,4l-30.09,17.37A10.42,10.42,0,0,1,352.29,347.73Zm-2.38-4.06a6.52,6.52,0,0,0,5.69-.31L385.7,326c.75-.44.94-.83.94-.91a1.14,1.14,0,0,0-.41-.33l-31.16-18a6.56,6.56,0,0,0-5.69.3l-30.1,17.38c-.75.43-.93.83-.94.9a1.22,1.22,0,0,0,.41.34Z" transform="translate(-197.9 -36.26)"/><path class="cls-5" d="M388.4,314.06h0V303.31l-24.11,0L356,298.48c-1.91-1.1-5.25-1-7.46.31l-7.77,4.49H316.58v11.06a2.2,2.2,0,0,0,1.28,2l31.17,18c1.91,1.1,5.25,1,7.46-.31l30.09-17.37C387.86,315.9,388.47,315,388.4,314.06Z" transform="translate(-197.9 -36.26)"/><path class="cls-22" d="M352.49,297.74a8.72,8.72,0,0,0-4,1.05l-7.77,4.49H316.58v11.06a2.2,2.2,0,0,0,1.28,2l31.17,18a6.78,6.78,0,0,0,3.46.74Z" transform="translate(-197.9 -36.26)"/><path class="cls-7" d="M319.31,303.27h-2.73v11.06a2.2,2.2,0,0,0,1.28,2l1.45.83Z" transform="translate(-197.9 -36.26)"/><path class="cls-8" d="M349.51,334.55a8.45,8.45,0,0,0,6-.07V321.93h-6Z" transform="translate(-197.9 -36.26)"/><path class="cls-23" d="M349,323.3l-31.17-18c-1.91-1.11-1.67-3,.54-4.31l30.09-17.38c2.21-1.27,5.55-1.41,7.46-.31l31.17,18c1.91,1.1,1.67,3-.54,4.31L356.49,323C354.28,324.26,350.94,324.4,349,323.3Z" transform="translate(-197.9 -36.26)"/><path class="cls-2" d="M386.58,303.5l-30.09,17.37c-2.21,1.28-5.55,1.42-7.46.31l-31.17-18a2.84,2.84,0,0,1-.95-.85c-.66,1.06-.36,2.21.95,3l31.17,18c1.91,1.1,5.25,1,7.46-.31l30.09-17.37c1.72-1,2.24-2.38,1.49-3.47A4.13,4.13,0,0,1,386.58,303.5Z" transform="translate(-197.9 -36.26)"/><path class="cls-7" d="M376.94,316.9a2.8,2.8,0,0,1-1.26,2.18c-.7.4-1.26.07-1.26-.73a2.77,2.77,0,0,1,1.26-2.18C376.37,315.77,376.94,316.09,376.94,316.9Z" transform="translate(-197.9 -36.26)"/><path class="cls-7" d="M381,314.56a2.8,2.8,0,0,1-1.26,2.18c-.7.4-1.26.08-1.26-.73a2.77,2.77,0,0,1,1.26-2.18C380.42,313.43,381,313.76,381,314.56Z" transform="translate(-197.9 -36.26)"/><path class="cls-7" d="M385,312.22a2.8,2.8,0,0,1-1.26,2.18c-.7.4-1.26.08-1.26-.73a2.79,2.79,0,0,1,1.26-2.18C384.47,311.09,385,311.42,385,312.22Z" transform="translate(-197.9 -36.26)"/><path class="cls-8" d="M350.87,312.14l-14.58-8.42c-.9-.51-.78-1.42.25-2l14.08-8.13a3.89,3.89,0,0,1,3.49-.15l14.59,8.42c.89.52.78,1.42-.25,2L354.36,312A3.86,3.86,0,0,1,350.87,312.14Z" transform="translate(-197.9 -36.26)"/><path class="cls-7" d="M352.27,305.09l-2-1.16c-.12-.07-.11-.2,0-.28l2-1.12a.51.51,0,0,1,.49,0l2,1.16c.13.07.11.2,0,.28l-1.95,1.12A.49.49,0,0,1,352.27,305.09Z" transform="translate(-197.9 -36.26)"/><path class="cls-5" d="M336.29,303.72l0,0,.21-.15,14.08-8.13a3.89,3.89,0,0,1,3.49-.14l14.54,8.39c.83-.59.87-1.39.05-1.87l-14.59-8.42a3.89,3.89,0,0,0-3.49.15l-14.08,8.13C335.51,302.3,335.39,303.21,336.29,303.72Z" transform="translate(-197.9 -36.26)"/></svg>