<svg id="Ñëîé_1" data-name="Ñëîé 1" xmlns="http://www.w3.org/2000/svg" viewBox="0 0 337.02 259.5"><defs><style>.cls-1{fill:#efefef;}.cls-2{fill:#5793ce;}.cls-3{fill:#173d7a;}.cls-4{fill:#fff;}.cls-5,.cls-8{fill:#d4ecff;}.cls-6{fill:#396caa;}.cls-7{fill:#fafdff;}.cls-8{opacity:0.4;}.cls-9{fill:#274f89;}.cls-10{fill:#ff2c9c;}.cls-11{fill:#ffc2b0;}.cls-12{fill:#d3008d;}</style></defs><path class="cls-1" d="M255.52,251.45l-17.34-10c-7.22-4.17-7.22-11,0-15.13l15.76-9.1c3.23-1.86,3.23-4.9,0-6.76l-13.75-7.94c-7.22-4.17-7.22-11,0-15.12l17.24-10c7.23-4.17,19-4.17,26.2,0l11.11,6.39L287.5,188l-11.11-6.39a13,13,0,0,0-11.72,0l-17.24,10c-3.23,1.86-3.23,4.9,0,6.76l13.75,7.94c7.23,4.17,7.23,10.95,0,15.12l-15.76,9.1c-3.23,1.87-3.23,4.9,0,6.77l17.34,10Z" transform="translate(-225.11 -81.03)"/><path class="cls-2" d="M233,225.91l-.19-.37v1.71h0c-.07,2.79,1.72,5.59,5.4,7.71l17.34,10,7.24-4.18-17.34-10a5.2,5.2,0,0,1-2-2c-3.88-.27-6.88-2.28-9.64-4.77A7.38,7.38,0,0,0,233,225.91Z" transform="translate(-225.11 -81.03)"/><path class="cls-3" d="M283.63,171c-7.22-4.17-19-4.17-26.2,0l-17.24,10a11.67,11.67,0,0,0-4.49,4.26c2.83,2.61,5.53,5.5,9.89,5.06-1.17-1.72-.56-3.75,1.84-5.14l17.24-10a12.94,12.94,0,0,1,11.72,0l11.11,6.39,7.24-4.18Z" transform="translate(-225.11 -81.03)"/><path class="cls-2" d="M264,201.89a14,14,0,0,0-2.83-2.1l-13.75-7.94a5.52,5.52,0,0,1-1.84-1.63c-4.36.44-7.06-2.45-9.89-5.06a7.09,7.09,0,0,0-.69,1.68l-.23-.27v1.86h0c0,2.75,1.78,5.5,5.41,7.6L253.94,204c2.12,1.22,2.84,2.94,2.18,4.51C259,207.75,261.22,204.23,264,201.89Z" transform="translate(-225.11 -81.03)"/><path class="cls-3" d="M266.38,205.78a8.35,8.35,0,0,0-2.37-3.89c-2.79,2.34-5,5.86-7.89,6.59a4.81,4.81,0,0,1-2.18,2.25l-15.76,9.1a11.64,11.64,0,0,0-4.45,4.2c2.76,2.49,5.76,4.5,9.64,4.77-.87-1.64-.19-3.49,2-4.79l15.76-9.1c3.58-2.07,5.38-4.77,5.42-7.49h0v-1.91Z" transform="translate(-225.11 -81.03)"/><path class="cls-4" d="M240.19,194.11,253.94,202a4.35,4.35,0,0,1,2.39,3c.19-1.35-.6-2.74-2.39-3.77l-13.75-7.94c-3.44-2-5.22-4.56-5.38-7.17C234.63,189,236.41,191.92,240.19,194.11Z" transform="translate(-225.11 -81.03)"/><path class="cls-4" d="M255.52,242.29l-17.34-10c-3.44-2-5.22-4.57-5.38-7.17-.18,2.86,1.6,5.76,5.38,7.94l17.34,10,7.24-4.18-.67-.38Z" transform="translate(-225.11 -81.03)"/><path class="cls-4" d="M287.5,178.82l-11.11-6.38a12.94,12.94,0,0,0-11.72,0l-17.24,9.95c-1.78,1-2.58,2.42-2.39,3.77a4.36,4.36,0,0,1,2.39-3l17.24-9.95a12.94,12.94,0,0,1,11.72,0l11.11,6.38,7.24-4.18-.67-.38Z" transform="translate(-225.11 -81.03)"/><path class="cls-4" d="M261.18,212.22l-15.76,9.1c-1.78,1-2.58,2.42-2.39,3.77a4.34,4.34,0,0,1,2.39-3l15.76-9.1c3.79-2.18,5.57-5.08,5.39-8C266.41,207.65,264.63,210.23,261.18,212.22Z" transform="translate(-225.11 -81.03)"/><path class="cls-5" d="M255.52,243.06l-17.34-10c-7.22-4.17-7.22-10.95,0-15.12l15.76-9.1c3.23-1.87,3.23-4.9,0-6.76l-13.75-7.94c-7.22-4.17-7.22-11,0-15.13L257.43,169c7.23-4.17,19-4.17,26.2,0l11.11,6.38-7.24,4.18-11.11-6.38a12.94,12.94,0,0,0-11.72,0l-17.24,9.95c-3.23,1.87-3.23,4.9,0,6.77l13.75,7.93c7.23,4.17,7.23,11,0,15.13l-15.76,9.1c-3.23,1.86-3.23,4.9,0,6.76l17.34,10Z" transform="translate(-225.11 -81.03)"/><path class="cls-2" d="M264.22,237.46h0a1.09,1.09,0,0,0-1.24.06l-8,4.61a3.67,3.67,0,0,0-1.66,2.88,1.19,1.19,0,0,0,.43,1l8.56,5,10.32-8.68Z" transform="translate(-225.11 -81.03)"/><path class="cls-2" d="M271.44,242.47l-8,4.61A3.67,3.67,0,0,0,261.8,250c0,1.06.74,1.49,1.66,1l8-4.61a3.68,3.68,0,0,0,1.67-2.88C273.11,242.37,272.36,241.94,271.44,242.47Z" transform="translate(-225.11 -81.03)"/><path class="cls-2" d="M286.5,167.82h0a1.11,1.11,0,0,0-1.24.07l-8,4.61a3.68,3.68,0,0,0-1.67,2.88,1.22,1.22,0,0,0,.43,1l8.56,5,10.33-8.68Z" transform="translate(-225.11 -81.03)"/><path class="cls-1" d="M324.89,230.89l-41.45-23.63c-1.52-.88-1.33-2.41.42-3.42l23.86-13.77a6.58,6.58,0,0,1,5.91-.25l41.46,23.64c1.51.88,1.32,2.41-.43,3.42l-23.85,13.77A6.57,6.57,0,0,1,324.89,230.89Z" transform="translate(-225.11 -81.03)"/><path class="cls-6" d="M358.78,205.5h0V108.73L320.31,98.66l-7.09-4.1a7.05,7.05,0,0,0-6.34.27l-6.62,3.82-20.52,0,6.08,93.43a1.83,1.83,0,0,0,1.09,1.7l38.39,29a7.07,7.07,0,0,0,6.35-.26l25.59-14.78A2.5,2.5,0,0,0,358.78,205.5Z" transform="translate(-225.11 -81.03)"/><path class="cls-5" d="M310.28,93.94a7.11,7.11,0,0,0-3.4.89l-6.62,3.82-20.52,0v97a1.85,1.85,0,0,0,1.09,1.7l44.47,25.36a5.76,5.76,0,0,0,2.95.63l.46-97.65Z" transform="translate(-225.11 -81.03)"/><path class="cls-2" d="M325.71,222.93a7.2,7.2,0,0,0,5.07-.06V124.56h-5.07Z" transform="translate(-225.11 -81.03)"/><path class="cls-5" d="M325.3,125.73l-44.47-25.36c-1.62-.94-1.42-2.58.46-3.67l25.59-14.77a7.05,7.05,0,0,1,6.34-.26L357.69,107c1.63.94,1.43,2.58-.45,3.66l-25.59,14.77A7.07,7.07,0,0,1,325.3,125.73Z" transform="translate(-225.11 -81.03)"/><path class="cls-7" d="M357.24,108.89l-25.59,14.77a7,7,0,0,1-6.35.27L280.83,98.57a2.51,2.51,0,0,1-.81-.72,1.71,1.71,0,0,0,.81,2.52l44.47,25.36a7.07,7.07,0,0,0,6.35-.27l25.59-14.77c1.46-.84,1.9-2,1.26-2.94A3.46,3.46,0,0,1,357.24,108.89Z" transform="translate(-225.11 -81.03)"/><path class="cls-3" d="M326.56,115.45,297,98.29c-.76-.44-.66-1.21.22-1.72l12-6.91a3.29,3.29,0,0,1,3-.12l29.61,17.16c.76.44.66,1.2-.21,1.71l-12,6.92A3.32,3.32,0,0,1,326.56,115.45Z" transform="translate(-225.11 -81.03)"/><path class="cls-5" d="M310.58,99.06l-1.72-1c-.1-.06-.09-.17,0-.24l1.66-1a.43.43,0,0,1,.41,0l1.71,1c.11.06.1.16,0,.23L311,99A.46.46,0,0,1,310.58,99.06Z" transform="translate(-225.11 -81.03)"/><path class="cls-5" d="M316.31,102.35l-1.72-1c-.1-.06-.09-.17,0-.24l1.66-1a.46.46,0,0,1,.41,0l1.72,1c.1.06.09.17,0,.24l-1.66,1A.46.46,0,0,1,316.31,102.35Z" transform="translate(-225.11 -81.03)"/><path class="cls-5" d="M322,105.65l-1.71-1c-.11-.06-.1-.17,0-.24l1.65-1a.46.46,0,0,1,.41,0l1.72,1c.1.06.09.16,0,.23l-1.66,1A.46.46,0,0,1,322,105.65Z" transform="translate(-225.11 -81.03)"/><path class="cls-5" d="M327.77,108.94l-1.71-1c-.11-.06-.09-.16,0-.23l1.65-1a.46.46,0,0,1,.41,0l1.72,1c.11.06.09.17,0,.24l-1.66,1A.46.46,0,0,1,327.77,108.94Z" transform="translate(-225.11 -81.03)"/><path class="cls-2" d="M297,98.29l0,0a1.18,1.18,0,0,1,.18-.13l12-6.91a3.29,3.29,0,0,1,3-.12l29.57,17.14c.7-.5.74-1.19,0-1.59L312.11,89.54a3.29,3.29,0,0,0-3,.12l-12,6.91C296.29,97.08,296.19,97.85,297,98.29Z" transform="translate(-225.11 -81.03)"/><path class="cls-3" d="M336.65,144.9l16.83-9.64A4.1,4.1,0,0,0,355.2,132v-6c0-1.26-.77-1.84-1.72-1.29l-16.83,9.64a4.08,4.08,0,0,0-1.72,3.27v6C334.93,144.87,335.7,145.45,336.65,144.9Z" transform="translate(-225.11 -81.03)"/><path class="cls-4" d="M354.31,124.49a1.65,1.65,0,0,1,.43,1.25v6A4.11,4.11,0,0,1,353,135l-16.84,9.63a1.22,1.22,0,0,1-.83.19,1,1,0,0,0,1.29,0l16.83-9.64A4.1,4.1,0,0,0,355.2,132v-6C355.2,125.11,354.84,124.57,354.31,124.49Z" transform="translate(-225.11 -81.03)"/><path class="cls-6" d="M341.71,138.36l1.54-.89a.9.9,0,0,0,.38-.72V135.1c0-.27-.17-.4-.38-.28l-1.54.89a.89.89,0,0,0-.37.72v1.65C341.34,138.35,341.5,138.48,341.71,138.36Z" transform="translate(-225.11 -81.03)"/><path class="cls-4" d="M346.87,135.38l1.55-.89a.92.92,0,0,0,.37-.72v-1.65c0-.27-.17-.4-.37-.28l-1.55.89a.92.92,0,0,0-.37.72v1.65C346.5,135.37,346.67,135.5,346.87,135.38Z" transform="translate(-225.11 -81.03)"/><path class="cls-3" d="M336.65,188.4l16.83-9.64a4.08,4.08,0,0,0,1.72-3.27v-6c0-1.27-.77-1.85-1.72-1.3l-16.83,9.64a4.08,4.08,0,0,0-1.72,3.27v6C334.93,188.37,335.7,189,336.65,188.4Z" transform="translate(-225.11 -81.03)"/><path class="cls-4" d="M354.31,168a1.65,1.65,0,0,1,.43,1.25v6a4.11,4.11,0,0,1-1.71,3.28l-16.84,9.64a1.26,1.26,0,0,1-.83.18,1,1,0,0,0,1.29,0l16.83-9.64a4.08,4.08,0,0,0,1.72-3.27v-6C355.2,168.61,354.84,168.08,354.31,168Z" transform="translate(-225.11 -81.03)"/><path class="cls-6" d="M341.71,181.86l1.54-.89a.89.89,0,0,0,.38-.71v-1.65c0-.28-.17-.41-.38-.29l-1.54.9a.85.85,0,0,0-.37.71v1.65C341.34,181.85,341.5,182,341.71,181.86Z" transform="translate(-225.11 -81.03)"/><path class="cls-4" d="M346.87,178.88l1.55-.89a.92.92,0,0,0,.37-.72v-1.64c0-.28-.17-.41-.37-.29l-1.55.89a.92.92,0,0,0-.37.72v1.65C346.5,178.87,346.67,179,346.87,178.88Z" transform="translate(-225.11 -81.03)"/><path class="cls-3" d="M336.65,210.15l16.83-9.64a4.08,4.08,0,0,0,1.72-3.27v-6c0-1.27-.77-1.85-1.72-1.3l-16.83,9.64a4.1,4.1,0,0,0-1.72,3.28v6C334.93,210.12,335.7,210.7,336.65,210.15Z" transform="translate(-225.11 -81.03)"/><path class="cls-4" d="M354.31,189.74a1.65,1.65,0,0,1,.43,1.25v6a4.11,4.11,0,0,1-1.71,3.28l-16.84,9.64a1.26,1.26,0,0,1-.83.18,1,1,0,0,0,1.29,0l16.83-9.64a4.08,4.08,0,0,0,1.72-3.27v-6C355.2,190.36,354.84,189.83,354.31,189.74Z" transform="translate(-225.11 -81.03)"/><path class="cls-6" d="M341.71,203.61l1.54-.89a.89.89,0,0,0,.38-.71v-1.65c0-.28-.17-.4-.38-.29l-1.54.9a.88.88,0,0,0-.37.71v1.65C341.34,203.61,341.5,203.73,341.71,203.61Z" transform="translate(-225.11 -81.03)"/><path class="cls-4" d="M346.87,200.63l1.55-.89a.91.91,0,0,0,.37-.71v-1.65c0-.28-.17-.41-.37-.29l-1.55.9a.88.88,0,0,0-.37.71v1.65C346.5,200.62,346.67,200.75,346.87,200.63Z" transform="translate(-225.11 -81.03)"/><path class="cls-3" d="M336.65,166.65,353.48,157a4.09,4.09,0,0,0,1.72-3.28v-6c0-1.26-.77-1.84-1.72-1.29l-16.83,9.64a4.08,4.08,0,0,0-1.72,3.27v6C334.93,166.62,335.7,167.2,336.65,166.65Z" transform="translate(-225.11 -81.03)"/><path class="cls-4" d="M354.31,146.24a1.65,1.65,0,0,1,.43,1.25v6a4.11,4.11,0,0,1-1.71,3.28l-16.84,9.63a1.22,1.22,0,0,1-.83.19,1,1,0,0,0,1.29,0L353.48,157a4.09,4.09,0,0,0,1.72-3.28v-6C355.2,146.86,354.84,146.33,354.31,146.24Z" transform="translate(-225.11 -81.03)"/><path class="cls-6" d="M341.71,160.11l1.54-.89a.89.89,0,0,0,.38-.71v-1.65c0-.28-.17-.41-.38-.29l-1.54.89a.89.89,0,0,0-.37.72v1.65C341.34,160.1,341.5,160.23,341.71,160.11Z" transform="translate(-225.11 -81.03)"/><path class="cls-4" d="M346.87,157.13l1.55-.89a.92.92,0,0,0,.37-.72v-1.65c0-.27-.17-.4-.37-.28l-1.55.89a.92.92,0,0,0-.37.72v1.65C346.5,157.12,346.67,157.25,346.87,157.13Z" transform="translate(-225.11 -81.03)"/><path class="cls-2" d="M322.07,138.74l-38.84-22.43a3.75,3.75,0,0,1-1.58-3V105.9c0-1.16.71-1.69,1.58-1.19l38.84,22.42a3.81,3.81,0,0,1,1.57,3v7.41C323.64,138.71,322.93,139.24,322.07,138.74Z" transform="translate(-225.11 -81.03)"/><path class="cls-8" d="M321,136.14,284.34,115a1.9,1.9,0,0,1-.8-1.52v-5.57c0-.59.36-.86.8-.6L321,128.44a1.93,1.93,0,0,1,.8,1.53v5.57C321.75,136.12,321.39,136.4,321,136.14Z" transform="translate(-225.11 -81.03)"/><path class="cls-5" d="M292,116.59l-5.46-3.15a1.86,1.86,0,0,1-.78-1.48h0c0-.57.35-.83.78-.59l5.46,3.16a1.84,1.84,0,0,1,.78,1.48h0C292.75,116.58,292.4,116.84,292,116.59Z" transform="translate(-225.11 -81.03)"/><path class="cls-3" d="M296.63,118.25c0,.57-.4.8-.9.52a2,2,0,0,1-.89-1.56c0-.57.4-.8.89-.51A2,2,0,0,1,296.63,118.25Z" transform="translate(-225.11 -81.03)"/><path class="cls-3" d="M299.79,120.07c0,.57-.41.81-.9.52A2,2,0,0,1,298,119c0-.57.41-.8.9-.52A2,2,0,0,1,299.79,120.07Z" transform="translate(-225.11 -81.03)"/><path class="cls-5" d="M302.94,121.9c0,.57-.4.8-.89.51a2,2,0,0,1-.9-1.55c0-.57.4-.8.9-.51A2,2,0,0,1,302.94,121.9Z" transform="translate(-225.11 -81.03)"/><path class="cls-3" d="M306.1,123.72c0,.57-.4.8-.89.52a2,2,0,0,1-.9-1.55c0-.57.4-.81.9-.52A2,2,0,0,1,306.1,123.72Z" transform="translate(-225.11 -81.03)"/><path class="cls-3" d="M319.41,133,317.57,132a1.22,1.22,0,0,1-.5-.95v-1.95c0-.37.23-.54.5-.38l1.84,1.07a1.16,1.16,0,0,1,.5.95v1.94C319.91,133,319.69,133.2,319.41,133Z" transform="translate(-225.11 -81.03)"/><path class="cls-2" d="M322.07,151.8l-38.84-22.43a3.75,3.75,0,0,1-1.58-3V119c0-1.16.71-1.69,1.58-1.19l38.84,22.42a3.81,3.81,0,0,1,1.57,3v7.41C323.64,151.77,322.93,152.3,322.07,151.8Z" transform="translate(-225.11 -81.03)"/><path class="cls-8" d="M321,149.2l-36.61-21.14a1.9,1.9,0,0,1-.8-1.52V121c0-.59.36-.86.8-.6L321,141.5a1.93,1.93,0,0,1,.8,1.53v5.57C321.75,149.18,321.39,149.45,321,149.2Z" transform="translate(-225.11 -81.03)"/><path class="cls-5" d="M292,129.65l-5.46-3.15a1.86,1.86,0,0,1-.78-1.48h0c0-.57.35-.84.78-.59l5.46,3.16a1.84,1.84,0,0,1,.78,1.48h0C292.75,129.64,292.4,129.9,292,129.65Z" transform="translate(-225.11 -81.03)"/><path class="cls-4" d="M296.63,131.31c0,.57-.4.8-.9.52a2,2,0,0,1-.89-1.56c0-.57.4-.8.89-.51A2,2,0,0,1,296.63,131.31Z" transform="translate(-225.11 -81.03)"/><path class="cls-3" d="M299.79,133.13c0,.57-.41.8-.9.52a2,2,0,0,1-.9-1.55c0-.57.41-.8.9-.52A2,2,0,0,1,299.79,133.13Z" transform="translate(-225.11 -81.03)"/><path class="cls-5" d="M302.94,135c0,.57-.4.8-.89.51a2,2,0,0,1-.9-1.55c0-.57.4-.8.9-.52A2,2,0,0,1,302.94,135Z" transform="translate(-225.11 -81.03)"/><path class="cls-3" d="M306.1,136.78c0,.57-.4.8-.89.52a2,2,0,0,1-.9-1.55c0-.58.4-.81.9-.52A2,2,0,0,1,306.1,136.78Z" transform="translate(-225.11 -81.03)"/><path class="cls-3" d="M319.41,146.1,317.57,145a1.22,1.22,0,0,1-.5-.95v-2c0-.37.23-.54.5-.38l1.84,1.07a1.16,1.16,0,0,1,.5.95v1.94C319.91,146.09,319.69,146.26,319.41,146.1Z" transform="translate(-225.11 -81.03)"/><path class="cls-2" d="M322.07,164.86l-38.84-22.43a3.77,3.77,0,0,1-1.58-3V132c0-1.16.71-1.69,1.58-1.19l38.84,22.42a3.79,3.79,0,0,1,1.57,3v7.41C323.64,164.82,322.93,165.36,322.07,164.86Z" transform="translate(-225.11 -81.03)"/><path class="cls-8" d="M321,162.26l-36.61-21.14a1.9,1.9,0,0,1-.8-1.52V134c0-.59.36-.86.8-.6L321,154.56a1.93,1.93,0,0,1,.8,1.53v5.57C321.75,162.24,321.39,162.51,321,162.26Z" transform="translate(-225.11 -81.03)"/><path class="cls-5" d="M292,142.71l-5.46-3.15a1.86,1.86,0,0,1-.78-1.48h0c0-.57.35-.84.78-.59l5.46,3.16a1.84,1.84,0,0,1,.78,1.48h0C292.75,142.7,292.4,143,292,142.71Z" transform="translate(-225.11 -81.03)"/><path class="cls-4" d="M296.63,144.37c0,.57-.4.8-.9.51a2,2,0,0,1-.89-1.55c0-.57.4-.8.89-.51A2,2,0,0,1,296.63,144.37Z" transform="translate(-225.11 -81.03)"/><path class="cls-3" d="M299.79,146.19c0,.57-.41.8-.9.52a2,2,0,0,1-.9-1.55c0-.57.41-.81.9-.52A2,2,0,0,1,299.79,146.19Z" transform="translate(-225.11 -81.03)"/><path class="cls-5" d="M302.94,148c0,.57-.4.8-.89.51a2,2,0,0,1-.9-1.55c0-.57.4-.8.9-.52A2,2,0,0,1,302.94,148Z" transform="translate(-225.11 -81.03)"/><path class="cls-3" d="M306.1,149.84c0,.57-.4.8-.89.52a2,2,0,0,1-.9-1.56c0-.57.4-.8.9-.51A2,2,0,0,1,306.1,149.84Z" transform="translate(-225.11 -81.03)"/><path class="cls-3" d="M319.41,159.16l-1.84-1.06a1.22,1.22,0,0,1-.5-.95v-2c0-.37.23-.54.5-.38l1.84,1.06a1.19,1.19,0,0,1,.5,1v1.94C319.91,159.15,319.69,159.32,319.41,159.16Z" transform="translate(-225.11 -81.03)"/><path class="cls-2" d="M322.07,177.92l-38.84-22.43a3.77,3.77,0,0,1-1.58-3v-7.4c0-1.16.71-1.69,1.58-1.19l38.84,22.42a3.79,3.79,0,0,1,1.57,3v7.41C323.64,177.88,322.93,178.42,322.07,177.92Z" transform="translate(-225.11 -81.03)"/><path class="cls-8" d="M321,175.32l-36.61-21.14a1.91,1.91,0,0,1-.8-1.52v-5.57c0-.59.36-.86.8-.6L321,167.62a1.93,1.93,0,0,1,.8,1.53v5.56C321.75,175.3,321.39,175.57,321,175.32Z" transform="translate(-225.11 -81.03)"/><path class="cls-5" d="M292,155.77l-5.46-3.15a1.86,1.86,0,0,1-.78-1.48h0c0-.57.35-.84.78-.59L292,153.7a1.88,1.88,0,0,1,.78,1.49h0C292.75,155.76,292.4,156,292,155.77Z" transform="translate(-225.11 -81.03)"/><path class="cls-3" d="M296.63,157.43c0,.57-.4.8-.9.51a2,2,0,0,1-.89-1.55c0-.57.4-.8.89-.51A2,2,0,0,1,296.63,157.43Z" transform="translate(-225.11 -81.03)"/><path class="cls-3" d="M299.79,159.25c0,.57-.41.8-.9.52a2,2,0,0,1-.9-1.55c0-.57.41-.81.9-.52A2,2,0,0,1,299.79,159.25Z" transform="translate(-225.11 -81.03)"/><path class="cls-5" d="M302.94,161.07c0,.58-.4.81-.89.52a2,2,0,0,1-.9-1.55c0-.57.4-.8.9-.52A2,2,0,0,1,302.94,161.07Z" transform="translate(-225.11 -81.03)"/><path class="cls-3" d="M306.1,162.9c0,.57-.4.8-.89.52a2,2,0,0,1-.9-1.56c0-.57.4-.8.9-.51A2,2,0,0,1,306.1,162.9Z" transform="translate(-225.11 -81.03)"/><path class="cls-5" d="M319.41,172.22l-1.84-1.06a1.22,1.22,0,0,1-.5-1v-1.94c0-.37.23-.54.5-.38l1.84,1.06a1.19,1.19,0,0,1,.5.95v2C319.91,172.21,319.69,172.38,319.41,172.22Z" transform="translate(-225.11 -81.03)"/><path class="cls-2" d="M322.07,191l-38.84-22.42a3.77,3.77,0,0,1-1.58-3v-7.4c0-1.16.71-1.69,1.58-1.19l38.84,22.42a3.79,3.79,0,0,1,1.57,3v7.4C323.64,190.94,322.93,191.48,322.07,191Z" transform="translate(-225.11 -81.03)"/><path class="cls-8" d="M321,188.38l-36.61-21.14a1.91,1.91,0,0,1-.8-1.52v-5.57c0-.59.36-.86.8-.6L321,180.68a1.93,1.93,0,0,1,.8,1.53v5.56C321.75,188.36,321.39,188.63,321,188.38Z" transform="translate(-225.11 -81.03)"/><path class="cls-5" d="M292,168.83l-5.46-3.15a1.86,1.86,0,0,1-.78-1.48h0c0-.57.35-.84.78-.59l5.46,3.15a1.86,1.86,0,0,1,.78,1.49h0C292.75,168.82,292.4,169.08,292,168.83Z" transform="translate(-225.11 -81.03)"/><path class="cls-3" d="M296.63,170.49c0,.57-.4.8-.9.51a2,2,0,0,1-.89-1.55c0-.57.4-.8.89-.51A2,2,0,0,1,296.63,170.49Z" transform="translate(-225.11 -81.03)"/><path class="cls-4" d="M299.79,172.31c0,.57-.41.8-.9.52a2,2,0,0,1-.9-1.55c0-.58.41-.81.9-.52A2,2,0,0,1,299.79,172.31Z" transform="translate(-225.11 -81.03)"/><path class="cls-5" d="M302.94,174.13c0,.57-.4.81-.89.52a2,2,0,0,1-.9-1.55c0-.57.4-.8.9-.52A2,2,0,0,1,302.94,174.13Z" transform="translate(-225.11 -81.03)"/><path class="cls-4" d="M306.1,176c0,.57-.4.8-.89.51a2,2,0,0,1-.9-1.55c0-.57.4-.8.9-.51A2,2,0,0,1,306.1,176Z" transform="translate(-225.11 -81.03)"/><path class="cls-5" d="M319.41,185.28l-1.84-1.07a1.19,1.19,0,0,1-.5-1v-1.94c0-.37.23-.54.5-.38l1.84,1.06a1.19,1.19,0,0,1,.5.95v2C319.91,185.27,319.69,185.44,319.41,185.28Z" transform="translate(-225.11 -81.03)"/><path class="cls-2" d="M322.07,204l-38.84-22.42a3.77,3.77,0,0,1-1.58-3v-7.4c0-1.16.71-1.69,1.58-1.19l38.84,22.42a3.79,3.79,0,0,1,1.57,3v7.4C323.64,204,322.93,204.54,322.07,204Z" transform="translate(-225.11 -81.03)"/><path class="cls-8" d="M321,201.44,284.34,180.3a1.91,1.91,0,0,1-.8-1.52v-5.57c0-.59.36-.86.8-.61L321,193.74a1.91,1.91,0,0,1,.8,1.53v5.56C321.75,201.42,321.39,201.69,321,201.44Z" transform="translate(-225.11 -81.03)"/><path class="cls-5" d="M292,181.89l-5.46-3.15a1.86,1.86,0,0,1-.78-1.48h0c0-.58.35-.84.78-.59l5.46,3.15a1.86,1.86,0,0,1,.78,1.49h0C292.75,181.88,292.4,182.14,292,181.89Z" transform="translate(-225.11 -81.03)"/><path class="cls-3" d="M296.63,183.55c0,.57-.4.8-.9.51a2,2,0,0,1-.89-1.55c0-.57.4-.8.89-.52A2,2,0,0,1,296.63,183.55Z" transform="translate(-225.11 -81.03)"/><path class="cls-3" d="M299.79,185.37c0,.57-.41.8-.9.52a2,2,0,0,1-.9-1.55c0-.58.41-.81.9-.52A2,2,0,0,1,299.79,185.37Z" transform="translate(-225.11 -81.03)"/><path class="cls-5" d="M302.94,187.19c0,.57-.4.81-.89.52a2,2,0,0,1-.9-1.55c0-.57.4-.8.9-.52A2,2,0,0,1,302.94,187.19Z" transform="translate(-225.11 -81.03)"/><path class="cls-3" d="M306.1,189c0,.57-.4.8-.89.51a2,2,0,0,1-.9-1.55c0-.57.4-.8.9-.51A2,2,0,0,1,306.1,189Z" transform="translate(-225.11 -81.03)"/><path class="cls-3" d="M319.41,198.34l-1.84-1.07a1.19,1.19,0,0,1-.5-1v-1.94c0-.37.23-.54.5-.38l1.84,1.06a1.19,1.19,0,0,1,.5.95v2C319.91,198.33,319.69,198.5,319.41,198.34Z" transform="translate(-225.11 -81.03)"/><path class="cls-2" d="M322.07,217.09l-38.84-22.42a3.77,3.77,0,0,1-1.58-3v-7.4c0-1.16.71-1.69,1.58-1.19l38.84,22.42a3.79,3.79,0,0,1,1.57,3v7.4C323.64,217.06,322.93,217.59,322.07,217.09Z" transform="translate(-225.11 -81.03)"/><path class="cls-8" d="M321,214.5l-36.61-21.14a1.91,1.91,0,0,1-.8-1.53v-5.56c0-.59.36-.86.8-.61L321,206.8a1.91,1.91,0,0,1,.8,1.53v5.56C321.75,214.48,321.39,214.75,321,214.5Z" transform="translate(-225.11 -81.03)"/><path class="cls-5" d="M292,195l-5.46-3.15a1.86,1.86,0,0,1-.78-1.49h0c0-.57.35-.83.78-.58l5.46,3.15a1.86,1.86,0,0,1,.78,1.48h0C292.75,194.94,292.4,195.2,292,195Z" transform="translate(-225.11 -81.03)"/><path class="cls-4" d="M297.63,197.31c0,1.08-.76,1.52-1.7,1a3.75,3.75,0,0,1-1.69-2.93c0-1.08.76-1.52,1.69-1A3.73,3.73,0,0,1,297.63,197.31Z" transform="translate(-225.11 -81.03)"/><path class="cls-3" d="M304.17,201.14c0,.57-.4.8-.9.52a2,2,0,0,1-.89-1.55c0-.57.4-.81.89-.52A2,2,0,0,1,304.17,201.14Z" transform="translate(-225.11 -81.03)"/><path class="cls-5" d="M307.33,203c0,.57-.4.81-.9.52a2,2,0,0,1-.89-1.55c0-.57.4-.8.89-.52A2,2,0,0,1,307.33,203Z" transform="translate(-225.11 -81.03)"/><path class="cls-3" d="M310.49,204.79c0,.57-.41.8-.9.51a2,2,0,0,1-.89-1.55c0-.57.4-.8.89-.51A2,2,0,0,1,310.49,204.79Z" transform="translate(-225.11 -81.03)"/><path class="cls-5" d="M319.41,211.4l-1.84-1.07a1.2,1.2,0,0,1-.5-1v-1.94c0-.37.23-.54.5-.38l1.84,1.06a1.19,1.19,0,0,1,.5.95v2C319.91,211.39,319.69,211.55,319.41,211.4Z" transform="translate(-225.11 -81.03)"/><path class="cls-1" d="M387.39,266.79l-41.46-23.64c-1.51-.87-1.32-2.4.43-3.41L370.21,226a6.55,6.55,0,0,1,5.91-.24l41.46,23.64c1.52.87,1.33,2.4-.43,3.41L393.3,266.54A6.58,6.58,0,0,1,387.39,266.79Z" transform="translate(-225.11 -81.03)"/><path class="cls-6" d="M421.28,241.4h0V144.62L382.8,134.55l-7.09-4.09a7.05,7.05,0,0,0-6.34.26l-6.61,3.82H342.24L348.31,228a1.87,1.87,0,0,0,1.09,1.7l38.4,29a7,7,0,0,0,6.34-.27l25.59-14.77C420.81,243,421.34,242.15,421.28,241.4Z" transform="translate(-225.11 -81.03)"/><path class="cls-5" d="M372.77,129.83a7.38,7.38,0,0,0-3.4.89l-6.61,3.82H342.24v97a1.82,1.82,0,0,0,1.09,1.7l44.47,25.36a5.81,5.81,0,0,0,2.94.63l.46-97.65Z" transform="translate(-225.11 -81.03)"/><path class="cls-2" d="M388.21,258.83a7.26,7.26,0,0,0,5.07-.06V160.46h-5.07Z" transform="translate(-225.11 -81.03)"/><path class="cls-5" d="M387.8,161.62l-44.47-25.36c-1.63-.94-1.43-2.58.45-3.66l25.59-14.77a7,7,0,0,1,6.34-.27l44.48,25.36c1.62.94,1.42,2.58-.46,3.67l-25.59,14.77A7.05,7.05,0,0,1,387.8,161.62Z" transform="translate(-225.11 -81.03)"/><path class="cls-7" d="M419.73,144.79l-25.59,14.77a7.05,7.05,0,0,1-6.34.26l-44.47-25.36a2.44,2.44,0,0,1-.82-.72,1.71,1.71,0,0,0,.82,2.52l44.47,25.36a7.05,7.05,0,0,0,6.34-.26l25.59-14.77c1.46-.85,1.9-2,1.27-3A3.6,3.6,0,0,1,419.73,144.79Z" transform="translate(-225.11 -81.03)"/><path class="cls-3" d="M389.06,151.34l-29.61-17.16c-.76-.44-.67-1.21.21-1.71l12-6.92a3.32,3.32,0,0,1,3-.12l29.61,17.16c.76.44.67,1.21-.21,1.72l-12,6.91A3.27,3.27,0,0,1,389.06,151.34Z" transform="translate(-225.11 -81.03)"/><path class="cls-5" d="M373.07,135l-1.71-1c-.11-.06-.1-.17,0-.24l1.66-.95a.46.46,0,0,1,.41,0l1.72,1c.1.06.09.17,0,.24l-1.66,1A.46.46,0,0,1,373.07,135Z" transform="translate(-225.11 -81.03)"/><path class="cls-5" d="M378.8,138.25l-1.71-1c-.11-.06-.1-.17,0-.24l1.65-1a.46.46,0,0,1,.41,0l1.72,1c.11.06.09.16,0,.23l-1.66,1A.46.46,0,0,1,378.8,138.25Z" transform="translate(-225.11 -81.03)"/><path class="cls-5" d="M384.53,141.54l-1.71-1c-.11-.06-.09-.16,0-.23l1.66-1a.46.46,0,0,1,.41,0l1.71,1c.11.06.09.17,0,.24l-1.65,1A.48.48,0,0,1,384.53,141.54Z" transform="translate(-225.11 -81.03)"/><path class="cls-5" d="M390.27,144.84l-1.72-1c-.1-.06-.09-.17,0-.24l1.66-1a.43.43,0,0,1,.41,0l1.71,1c.11.06.1.17,0,.24l-1.65.95A.46.46,0,0,1,390.27,144.84Z" transform="translate(-225.11 -81.03)"/><path class="cls-2" d="M359.45,134.18l0,0,.18-.12,12-6.91a3.29,3.29,0,0,1,3-.13l29.58,17.15c.7-.51.73-1.19,0-1.6L374.6,125.43a3.32,3.32,0,0,0-3,.12l-12,6.92C358.78,133,358.69,133.74,359.45,134.18Z" transform="translate(-225.11 -81.03)"/><path class="cls-3" d="M399.14,180.8,416,171.16a4.12,4.12,0,0,0,1.72-3.28v-6c0-1.26-.77-1.84-1.72-1.3l-16.83,9.64a4.12,4.12,0,0,0-1.72,3.28v6C397.42,180.76,398.19,181.34,399.14,180.8Z" transform="translate(-225.11 -81.03)"/><path class="cls-4" d="M416.81,160.38a1.71,1.71,0,0,1,.43,1.25v6a4.1,4.1,0,0,1-1.72,3.28l-16.83,9.64a1.24,1.24,0,0,1-.84.18,1,1,0,0,0,1.29.05L416,171.16a4.12,4.12,0,0,0,1.72-3.28v-6C417.69,161,417.33,160.47,416.81,160.38Z" transform="translate(-225.11 -81.03)"/><path class="cls-6" d="M404.2,174.26l1.55-.9a.9.9,0,0,0,.37-.71V171c0-.28-.17-.4-.37-.28l-1.55.89a.91.91,0,0,0-.37.71V174C403.83,174.25,404,174.37,404.2,174.26Z" transform="translate(-225.11 -81.03)"/><path class="cls-4" d="M409.37,171.27l1.54-.89a.88.88,0,0,0,.37-.71V168c0-.28-.16-.4-.37-.28l-1.54.89a.89.89,0,0,0-.38.71V171C409,171.27,409.16,171.39,409.37,171.27Z" transform="translate(-225.11 -81.03)"/><path class="cls-3" d="M399.14,224.3,416,214.66a4.12,4.12,0,0,0,1.72-3.28v-6c0-1.26-.77-1.84-1.72-1.3l-16.83,9.64a4.12,4.12,0,0,0-1.72,3.28v6C397.42,224.26,398.19,224.84,399.14,224.3Z" transform="translate(-225.11 -81.03)"/><path class="cls-4" d="M416.81,203.88a1.72,1.72,0,0,1,.43,1.26v6a4.08,4.08,0,0,1-1.72,3.27l-16.83,9.64a1.19,1.19,0,0,1-.84.18,1,1,0,0,0,1.29.05L416,214.66a4.12,4.12,0,0,0,1.72-3.28v-6C417.69,204.5,417.33,204,416.81,203.88Z" transform="translate(-225.11 -81.03)"/><path class="cls-6" d="M404.2,217.76l1.55-.89a.92.92,0,0,0,.37-.72V214.5c0-.27-.17-.4-.37-.28l-1.55.89a.92.92,0,0,0-.37.72v1.64C403.83,217.75,404,217.88,404.2,217.76Z" transform="translate(-225.11 -81.03)"/><path class="cls-4" d="M409.37,214.78l1.54-.9a.85.85,0,0,0,.37-.71v-1.65c0-.27-.16-.4-.37-.28l-1.54.89a.89.89,0,0,0-.38.71v1.65C409,214.77,409.16,214.9,409.37,214.78Z" transform="translate(-225.11 -81.03)"/><path class="cls-3" d="M399.14,246.05,416,236.41a4.1,4.1,0,0,0,1.72-3.28v-6c0-1.26-.77-1.84-1.72-1.29l-16.83,9.63a4.12,4.12,0,0,0-1.72,3.28v6C397.42,246,398.19,246.6,399.14,246.05Z" transform="translate(-225.11 -81.03)"/><path class="cls-4" d="M416.81,225.63a1.72,1.72,0,0,1,.43,1.26v6a4.08,4.08,0,0,1-1.72,3.27l-16.83,9.64a1.19,1.19,0,0,1-.84.18,1,1,0,0,0,1.29.05L416,236.41a4.1,4.1,0,0,0,1.72-3.28v-6C417.69,226.25,417.33,225.72,416.81,225.63Z" transform="translate(-225.11 -81.03)"/><path class="cls-6" d="M404.2,239.51l1.55-.89a.92.92,0,0,0,.37-.72v-1.65c0-.27-.17-.4-.37-.28l-1.55.89a.92.92,0,0,0-.37.72v1.65C403.83,239.5,404,239.63,404.2,239.51Z" transform="translate(-225.11 -81.03)"/><path class="cls-4" d="M409.37,236.53l1.54-.89a.89.89,0,0,0,.37-.72v-1.65c0-.27-.16-.4-.37-.28l-1.54.89a.9.9,0,0,0-.38.72v1.64C409,236.52,409.16,236.65,409.37,236.53Z" transform="translate(-225.11 -81.03)"/><path class="cls-3" d="M399.14,202.55,416,192.91a4.12,4.12,0,0,0,1.72-3.28v-6c0-1.26-.77-1.84-1.72-1.3L399.14,192a4.12,4.12,0,0,0-1.72,3.28v6C397.42,202.51,398.19,203.09,399.14,202.55Z" transform="translate(-225.11 -81.03)"/><path class="cls-4" d="M416.81,182.13a1.71,1.71,0,0,1,.43,1.25v6a4.09,4.09,0,0,1-1.72,3.28l-16.83,9.64a1.24,1.24,0,0,1-.84.18,1,1,0,0,0,1.29.05L416,192.91a4.12,4.12,0,0,0,1.72-3.28v-6C417.69,182.75,417.33,182.22,416.81,182.13Z" transform="translate(-225.11 -81.03)"/><path class="cls-6" d="M404.2,196l1.55-.9a.88.88,0,0,0,.37-.71v-1.65c0-.27-.17-.4-.37-.28l-1.55.89a.91.91,0,0,0-.37.71v1.65C403.83,196,404,196.13,404.2,196Z" transform="translate(-225.11 -81.03)"/><path class="cls-4" d="M409.37,193l1.54-.9a.88.88,0,0,0,.37-.71v-1.65c0-.28-.16-.4-.37-.28l-1.54.89a.89.89,0,0,0-.38.71v1.65C409,193,409.16,193.14,409.37,193Z" transform="translate(-225.11 -81.03)"/><path class="cls-2" d="M384.56,174.63l-38.84-22.42a3.76,3.76,0,0,1-1.57-3v-7.4c0-1.16.7-1.7,1.57-1.19L384.56,163a3.76,3.76,0,0,1,1.57,3v7.4C386.13,174.6,385.43,175.13,384.56,174.63Z" transform="translate(-225.11 -81.03)"/><path class="cls-8" d="M383.44,172l-36.6-21.14a1.89,1.89,0,0,1-.8-1.53v-5.56c0-.59.35-.86.8-.61l36.6,21.14a1.91,1.91,0,0,1,.8,1.52v5.57C384.24,172,383.88,172.29,383.44,172Z" transform="translate(-225.11 -81.03)"/><path class="cls-5" d="M354.46,152.49,349,149.34a1.85,1.85,0,0,1-.77-1.49h0c0-.57.34-.83.77-.58l5.46,3.15a1.86,1.86,0,0,1,.78,1.48h0C355.24,152.48,354.89,152.74,354.46,152.49Z" transform="translate(-225.11 -81.03)"/><path class="cls-3" d="M359.12,154.14c0,.58-.4.81-.9.52a2,2,0,0,1-.89-1.55c0-.57.4-.8.89-.52A2,2,0,0,1,359.12,154.14Z" transform="translate(-225.11 -81.03)"/><path class="cls-3" d="M362.28,156c0,.57-.4.8-.9.52a2,2,0,0,1-.89-1.56c0-.57.4-.8.89-.51A2,2,0,0,1,362.28,156Z" transform="translate(-225.11 -81.03)"/><path class="cls-5" d="M365.44,157.79c0,.57-.4.8-.9.52a2,2,0,0,1-.89-1.55c0-.57.4-.8.89-.52A2,2,0,0,1,365.44,157.79Z" transform="translate(-225.11 -81.03)"/><path class="cls-3" d="M368.6,159.62c0,.57-.4.8-.9.51a2,2,0,0,1-.89-1.55c0-.57.4-.8.89-.52A2,2,0,0,1,368.6,159.62Z" transform="translate(-225.11 -81.03)"/><path class="cls-3" d="M381.9,168.94l-1.84-1.07a1.19,1.19,0,0,1-.49-1V165c0-.37.22-.54.49-.38l1.84,1.06a1.19,1.19,0,0,1,.5,1v1.95C382.4,168.93,382.18,169.09,381.9,168.94Z" transform="translate(-225.11 -81.03)"/><path class="cls-2" d="M384.56,187.69l-38.84-22.42a3.76,3.76,0,0,1-1.57-3v-7.4c0-1.16.7-1.7,1.57-1.19l38.84,22.42a3.76,3.76,0,0,1,1.57,3v7.4C386.13,187.66,385.43,188.19,384.56,187.69Z" transform="translate(-225.11 -81.03)"/><path class="cls-8" d="M383.44,185.1,346.84,164a1.9,1.9,0,0,1-.8-1.53v-5.56c0-.59.35-.86.8-.61l36.6,21.14a1.91,1.91,0,0,1,.8,1.52v5.57C384.24,185.08,383.88,185.35,383.44,185.1Z" transform="translate(-225.11 -81.03)"/><path class="cls-5" d="M354.46,165.55,349,162.4a1.87,1.87,0,0,1-.77-1.49h0c0-.57.34-.83.77-.58l5.46,3.15a1.86,1.86,0,0,1,.78,1.48h0C355.24,165.53,354.89,165.8,354.46,165.55Z" transform="translate(-225.11 -81.03)"/><path class="cls-4" d="M359.12,167.2c0,.57-.4.81-.9.52a2,2,0,0,1-.89-1.55c0-.57.4-.8.89-.52A2,2,0,0,1,359.12,167.2Z" transform="translate(-225.11 -81.03)"/><path class="cls-3" d="M362.28,169c0,.57-.4.8-.9.51a2,2,0,0,1-.89-1.55c0-.57.4-.8.89-.51A2,2,0,0,1,362.28,169Z" transform="translate(-225.11 -81.03)"/><path class="cls-5" d="M365.44,170.85c0,.57-.4.8-.9.52a2,2,0,0,1-.89-1.55c0-.57.4-.81.89-.52A2,2,0,0,1,365.44,170.85Z" transform="translate(-225.11 -81.03)"/><path class="cls-3" d="M368.6,172.68c0,.57-.4.8-.9.51a2,2,0,0,1-.89-1.55c0-.57.4-.8.89-.52A2,2,0,0,1,368.6,172.68Z" transform="translate(-225.11 -81.03)"/><path class="cls-3" d="M381.9,182l-1.84-1.06a1.19,1.19,0,0,1-.49-1V178c0-.36.22-.53.49-.37l1.84,1.06a1.19,1.19,0,0,1,.5.95v2C382.4,182,382.18,182.15,381.9,182Z" transform="translate(-225.11 -81.03)"/><path class="cls-2" d="M384.56,200.75l-38.84-22.42a3.76,3.76,0,0,1-1.57-3v-7.4c0-1.16.7-1.7,1.57-1.19l38.84,22.42a3.76,3.76,0,0,1,1.57,3v7.4C386.13,200.72,385.43,201.25,384.56,200.75Z" transform="translate(-225.11 -81.03)"/><path class="cls-8" d="M383.44,198.15,346.84,177a1.9,1.9,0,0,1-.8-1.53v-5.56c0-.59.35-.86.8-.61l36.6,21.14a1.91,1.91,0,0,1,.8,1.52v5.57C384.24,198.14,383.88,198.41,383.44,198.15Z" transform="translate(-225.11 -81.03)"/><path class="cls-5" d="M354.46,178.61,349,175.45a1.84,1.84,0,0,1-.77-1.48h0c0-.57.34-.83.77-.58l5.46,3.15a1.86,1.86,0,0,1,.78,1.48h0C355.24,178.59,354.89,178.86,354.46,178.61Z" transform="translate(-225.11 -81.03)"/><path class="cls-4" d="M359.12,180.26c0,.57-.4.81-.9.52a2,2,0,0,1-.89-1.55c0-.57.4-.8.89-.52A2,2,0,0,1,359.12,180.26Z" transform="translate(-225.11 -81.03)"/><path class="cls-3" d="M362.28,182.09c0,.57-.4.8-.9.51a2,2,0,0,1-.89-1.55c0-.57.4-.8.89-.51A2,2,0,0,1,362.28,182.09Z" transform="translate(-225.11 -81.03)"/><path class="cls-5" d="M365.44,183.91c0,.57-.4.8-.9.52a2,2,0,0,1-.89-1.55c0-.57.4-.81.89-.52A2,2,0,0,1,365.44,183.91Z" transform="translate(-225.11 -81.03)"/><path class="cls-3" d="M368.6,185.73c0,.58-.4.81-.9.52a2,2,0,0,1-.89-1.55c0-.57.4-.8.89-.52A2,2,0,0,1,368.6,185.73Z" transform="translate(-225.11 -81.03)"/><path class="cls-3" d="M381.9,195.05,380.06,194a1.19,1.19,0,0,1-.49-1v-1.95c0-.36.22-.53.49-.37l1.84,1.06a1.17,1.17,0,0,1,.5.95v2C382.4,195,382.18,195.21,381.9,195.05Z" transform="translate(-225.11 -81.03)"/><path class="cls-2" d="M384.56,213.81l-38.84-22.42a3.76,3.76,0,0,1-1.57-3V181c0-1.15.7-1.69,1.57-1.19l38.84,22.43a3.76,3.76,0,0,1,1.57,3v7.4C386.13,213.78,385.43,214.31,384.56,213.81Z" transform="translate(-225.11 -81.03)"/><path class="cls-8" d="M383.44,211.21l-36.6-21.13a1.9,1.9,0,0,1-.8-1.53V183c0-.58.35-.85.8-.6l36.6,21.14a1.9,1.9,0,0,1,.8,1.52v5.57C384.24,211.2,383.88,211.47,383.44,211.21Z" transform="translate(-225.11 -81.03)"/><path class="cls-5" d="M354.46,191.67,349,188.51a1.84,1.84,0,0,1-.77-1.48h0c0-.57.34-.83.77-.58l5.46,3.15a1.86,1.86,0,0,1,.78,1.48h0C355.24,191.65,354.89,191.92,354.46,191.67Z" transform="translate(-225.11 -81.03)"/><path class="cls-3" d="M359.12,193.32c0,.57-.4.8-.9.52a2,2,0,0,1-.89-1.55c0-.57.4-.8.89-.52A2,2,0,0,1,359.12,193.32Z" transform="translate(-225.11 -81.03)"/><path class="cls-3" d="M362.28,195.15c0,.57-.4.8-.9.51a2,2,0,0,1-.89-1.55c0-.57.4-.8.89-.51A2,2,0,0,1,362.28,195.15Z" transform="translate(-225.11 -81.03)"/><path class="cls-5" d="M365.44,197c0,.57-.4.8-.9.52a2,2,0,0,1-.89-1.55c0-.58.4-.81.89-.52A2,2,0,0,1,365.44,197Z" transform="translate(-225.11 -81.03)"/><path class="cls-3" d="M368.6,198.79c0,.57-.4.81-.9.52a2,2,0,0,1-.89-1.55c0-.57.4-.8.89-.52A2,2,0,0,1,368.6,198.79Z" transform="translate(-225.11 -81.03)"/><path class="cls-5" d="M381.9,208.11l-1.84-1.06a1.19,1.19,0,0,1-.49-1v-1.95c0-.36.22-.53.49-.37l1.84,1.06a1.17,1.17,0,0,1,.5.95v2C382.4,208.1,382.18,208.27,381.9,208.11Z" transform="translate(-225.11 -81.03)"/><path class="cls-2" d="M384.56,226.87l-38.84-22.42a3.78,3.78,0,0,1-1.57-3V194c0-1.16.7-1.69,1.57-1.19l38.84,22.43a3.76,3.76,0,0,1,1.57,3v7.41C386.13,226.84,385.43,227.37,384.56,226.87Z" transform="translate(-225.11 -81.03)"/><path class="cls-8" d="M383.44,224.27l-36.6-21.13a1.9,1.9,0,0,1-.8-1.53V196c0-.58.35-.85.8-.6l36.6,21.14a1.9,1.9,0,0,1,.8,1.52v5.57C384.24,224.26,383.88,224.53,383.44,224.27Z" transform="translate(-225.11 -81.03)"/><path class="cls-5" d="M354.46,204.73,349,201.57a1.84,1.84,0,0,1-.77-1.48h0c0-.57.34-.83.77-.58l5.46,3.15a1.86,1.86,0,0,1,.78,1.48h0C355.24,204.71,354.89,205,354.46,204.73Z" transform="translate(-225.11 -81.03)"/><path class="cls-3" d="M359.12,206.38c0,.57-.4.8-.9.52a2,2,0,0,1-.89-1.55c0-.57.4-.8.89-.52A2,2,0,0,1,359.12,206.38Z" transform="translate(-225.11 -81.03)"/><path class="cls-4" d="M362.28,208.21c0,.57-.4.8-.9.51a2,2,0,0,1-.89-1.55c0-.57.4-.8.89-.52A2,2,0,0,1,362.28,208.21Z" transform="translate(-225.11 -81.03)"/><path class="cls-5" d="M365.44,210c0,.57-.4.8-.9.52a2,2,0,0,1-.89-1.55c0-.58.4-.81.89-.52A2,2,0,0,1,365.44,210Z" transform="translate(-225.11 -81.03)"/><path class="cls-4" d="M368.6,211.85c0,.57-.4.81-.9.52a2,2,0,0,1-.89-1.55c0-.57.4-.8.89-.52A2,2,0,0,1,368.6,211.85Z" transform="translate(-225.11 -81.03)"/><path class="cls-5" d="M381.9,221.17l-1.84-1.06a1.19,1.19,0,0,1-.49-1v-1.95c0-.36.22-.53.49-.37l1.84,1.06a1.17,1.17,0,0,1,.5.95v2C382.4,221.16,382.18,221.33,381.9,221.17Z" transform="translate(-225.11 -81.03)"/><path class="cls-2" d="M384.56,239.93l-38.84-22.42a3.78,3.78,0,0,1-1.57-3v-7.41c0-1.16.7-1.69,1.57-1.19l38.84,22.43a3.75,3.75,0,0,1,1.57,3v7.41C386.13,239.9,385.43,240.43,384.56,239.93Z" transform="translate(-225.11 -81.03)"/><path class="cls-8" d="M383.44,237.33l-36.6-21.13a1.9,1.9,0,0,1-.8-1.53V209.1c0-.58.35-.85.8-.6l36.6,21.14a1.9,1.9,0,0,1,.8,1.52v5.57C384.24,237.32,383.88,237.59,383.44,237.33Z" transform="translate(-225.11 -81.03)"/><path class="cls-5" d="M354.46,217.79,349,214.63a1.84,1.84,0,0,1-.77-1.48h0c0-.57.34-.83.77-.59l5.46,3.16a1.86,1.86,0,0,1,.78,1.48h0C355.24,217.77,354.89,218,354.46,217.79Z" transform="translate(-225.11 -81.03)"/><path class="cls-3" d="M359.12,219.44c0,.57-.4.8-.9.52a2,2,0,0,1-.89-1.55c0-.57.4-.81.89-.52A2,2,0,0,1,359.12,219.44Z" transform="translate(-225.11 -81.03)"/><path class="cls-3" d="M362.28,221.26c0,.58-.4.81-.9.52a2,2,0,0,1-.89-1.55c0-.57.4-.8.89-.52A2,2,0,0,1,362.28,221.26Z" transform="translate(-225.11 -81.03)"/><path class="cls-5" d="M365.44,223.09c0,.57-.4.8-.9.52a2,2,0,0,1-.89-1.56c0-.57.4-.8.89-.51A2,2,0,0,1,365.44,223.09Z" transform="translate(-225.11 -81.03)"/><path class="cls-3" d="M368.6,224.91c0,.57-.4.8-.9.52a2,2,0,0,1-.89-1.55c0-.57.4-.8.89-.52A2,2,0,0,1,368.6,224.91Z" transform="translate(-225.11 -81.03)"/><path class="cls-3" d="M381.9,234.23l-1.84-1.06a1.19,1.19,0,0,1-.49-.95v-1.95c0-.36.22-.53.49-.37L381.9,231a1.17,1.17,0,0,1,.5.95v2C382.4,234.22,382.18,234.39,381.9,234.23Z" transform="translate(-225.11 -81.03)"/><path class="cls-2" d="M384.56,253l-38.84-22.42a3.78,3.78,0,0,1-1.57-3v-7.41c0-1.16.7-1.69,1.57-1.19l38.84,22.43a3.75,3.75,0,0,1,1.57,3v7.41C386.13,253,385.43,253.49,384.56,253Z" transform="translate(-225.11 -81.03)"/><path class="cls-8" d="M383.44,250.39l-36.6-21.13a1.9,1.9,0,0,1-.8-1.53v-5.57c0-.59.35-.86.8-.6l36.6,21.13a1.93,1.93,0,0,1,.8,1.53v5.57C384.24,250.38,383.88,250.65,383.44,250.39Z" transform="translate(-225.11 -81.03)"/><path class="cls-5" d="M354.46,230.85,349,227.69a1.85,1.85,0,0,1-.77-1.48h0c0-.57.34-.83.77-.59l5.46,3.16a1.86,1.86,0,0,1,.78,1.48h0C355.24,230.83,354.89,231.09,354.46,230.85Z" transform="translate(-225.11 -81.03)"/><path class="cls-4" d="M360.12,233.21c0,1.08-.76,1.51-1.69,1a3.72,3.72,0,0,1-1.69-2.93c0-1.07.75-1.51,1.69-1A3.75,3.75,0,0,1,360.12,233.21Z" transform="translate(-225.11 -81.03)"/><path class="cls-3" d="M366.66,237c0,.57-.4.8-.89.51a2,2,0,0,1-.9-1.55c0-.57.4-.8.9-.52A2,2,0,0,1,366.66,237Z" transform="translate(-225.11 -81.03)"/><path class="cls-5" d="M369.82,238.86c0,.57-.4.8-.9.52a2,2,0,0,1-.89-1.55c0-.58.4-.81.89-.52A2,2,0,0,1,369.82,238.86Z" transform="translate(-225.11 -81.03)"/><path class="cls-3" d="M373,240.68c0,.57-.4.81-.9.52a2,2,0,0,1-.89-1.55c0-.57.4-.8.89-.52A2,2,0,0,1,373,240.68Z" transform="translate(-225.11 -81.03)"/><path class="cls-5" d="M381.9,247.29l-1.84-1.06a1.21,1.21,0,0,1-.49-.95v-1.95c0-.37.22-.53.49-.38L381.9,244a1.17,1.17,0,0,1,.5.95v1.95C382.4,247.28,382.18,247.45,381.9,247.29Z" transform="translate(-225.11 -81.03)"/><path class="cls-5" d="M429.16,138.19l-1.67-1v-2.41a9,9,0,0,0-4.06-7l-12.69-7.29c-2.24-1.29-4.05-.24-4.05,2.34v26L405,124.29v-2.41c0-3.65,2.57-5.14,5.73-3.31l12.69,7.28a12.7,12.7,0,0,1,5.73,9.93Z" transform="translate(-225.11 -81.03)"/><path class="cls-5" d="M423.44,141.48l5.72-3.29-1.15-4-1.61-4s-2.75-3.08-3-3.14-7.71-4.32-7.71-4.32l-6.24-4.5-3,.1L401,121.46l4,1.65s2.25,1.12,2.77,1.25a20.74,20.74,0,0,1,2.78,2.27s2.72,1.1,2.72,1.1l.58-.09,4.87,3.41,1.57.7.84,1.36,1.3,3.63Z" transform="translate(-225.11 -81.03)"/><path class="cls-6" d="M406.69,148.81l-5.73,3.3s-.37-27.25-.37-27.29,1.25-1.8,1.25-1.8l3.11-.6,2.46,1.86-.77-.32-.33.2.38.6Z" transform="translate(-225.11 -81.03)"/><path class="cls-2" d="M423.44,141.48l-1.67-1v-2.4a9,9,0,0,0-4.06-7L405,123.8c-2.24-1.29-4.06-.24-4.06,2.34v26l-1.67-1v-26c0-3.65,2.57-5.13,5.73-3.31l12.69,7.29a12.66,12.66,0,0,1,5.73,9.92Z" transform="translate(-225.11 -81.03)"/><path class="cls-1" d="M448.2,295.84l-29.06-16.58c-1.07-.61-.93-1.68.29-2.39l16.72-9.65a4.63,4.63,0,0,1,4.15-.18l29.06,16.58c1.06.61.93,1.68-.3,2.39l-16.72,9.65A4.6,4.6,0,0,1,448.2,295.84Z" transform="translate(-225.11 -81.03)"/><path class="cls-6" d="M483.77,253.68h0V156.9l-38.48-10.07-7.08-4.09a7,7,0,0,0-6.35.27l-6.61,3.81H404.73l6.08,93.43a1.82,1.82,0,0,0,1.09,1.7l38.39,29a7.07,7.07,0,0,0,6.35-.26l25.58-14.78A2.5,2.5,0,0,0,483.77,253.68Z" transform="translate(-225.11 -81.03)"/><path class="cls-5" d="M435.26,142.11a7.27,7.27,0,0,0-3.4.9l-6.61,3.81H404.73v97a1.83,1.83,0,0,0,1.09,1.7l44.47,25.36a5.82,5.82,0,0,0,2.95.63l.45-97.65Z" transform="translate(-225.11 -81.03)"/><path class="cls-2" d="M450.7,271.11a7.2,7.2,0,0,0,5.07-.06V172.74H450.7Z" transform="translate(-225.11 -81.03)"/><path class="cls-5" d="M450.29,173.9l-44.47-25.35c-1.63-.94-1.42-2.58.45-3.67l25.59-14.77a7,7,0,0,1,6.35-.26l44.47,25.35c1.63.94,1.42,2.58-.46,3.67l-25.58,14.77A7.07,7.07,0,0,1,450.29,173.9Z" transform="translate(-225.11 -81.03)"/><path class="cls-7" d="M482.22,157.07l-25.58,14.77a7,7,0,0,1-6.35.26l-44.47-25.35A2.51,2.51,0,0,1,405,146a1.7,1.7,0,0,0,.81,2.52l44.47,25.35a7.07,7.07,0,0,0,6.35-.26l25.58-14.77c1.46-.85,1.91-2,1.27-3A3.52,3.52,0,0,1,482.22,157.07Z" transform="translate(-225.11 -81.03)"/><path class="cls-3" d="M451.55,163.63l-29.61-17.17c-.76-.44-.67-1.2.21-1.71l12-6.91a3.29,3.29,0,0,1,3-.13l29.6,17.17c.77.43.67,1.2-.21,1.71l-12,6.91A3.29,3.29,0,0,1,451.55,163.63Z" transform="translate(-225.11 -81.03)"/><path class="cls-5" d="M435.56,147.23l-1.71-1c-.11-.06-.09-.16,0-.23l1.65-1a.48.48,0,0,1,.42,0l1.71,1c.11.06.09.17,0,.24l-1.66,1A.46.46,0,0,1,435.56,147.23Z" transform="translate(-225.11 -81.03)"/><path class="cls-5" d="M441.3,150.53l-1.72-1c-.11-.06-.09-.17,0-.24l1.66-1a.46.46,0,0,1,.41,0l1.71,1c.11.06.09.17,0,.24l-1.65.95A.46.46,0,0,1,441.3,150.53Z" transform="translate(-225.11 -81.03)"/><path class="cls-5" d="M447,153.83l-1.72-1c-.1-.07-.09-.17,0-.24l1.66-1a.46.46,0,0,1,.41,0l1.71,1c.11.07.1.17,0,.24l-1.65,1A.46.46,0,0,1,447,153.83Z" transform="translate(-225.11 -81.03)"/><path class="cls-5" d="M452.76,157.12l-1.72-1c-.1-.06-.09-.17,0-.24l1.66-.95a.46.46,0,0,1,.41,0l1.72,1c.1.06.09.17,0,.24l-1.66.95A.46.46,0,0,1,452.76,157.12Z" transform="translate(-225.11 -81.03)"/><path class="cls-2" d="M421.94,146.46l0,0,.17-.12,12-6.91a3.33,3.33,0,0,1,3-.13l29.57,17.15c.7-.5.74-1.19,0-1.59l-29.6-17.17a3.29,3.29,0,0,0-3,.13l-12,6.91C421.27,145.26,421.18,146,421.94,146.46Z" transform="translate(-225.11 -81.03)"/><path class="cls-3" d="M461.63,193.08l16.84-9.64a4.14,4.14,0,0,0,1.71-3.28v-6c0-1.26-.77-1.84-1.71-1.3l-16.84,9.64a4.11,4.11,0,0,0-1.71,3.28v6C459.92,193,460.68,193.62,461.63,193.08Z" transform="translate(-225.11 -81.03)"/><path class="cls-4" d="M479.3,172.66a1.72,1.72,0,0,1,.43,1.26v6a4.08,4.08,0,0,1-1.72,3.27l-16.83,9.64a1.16,1.16,0,0,1-.83.18,1,1,0,0,0,1.28.05l16.84-9.64a4.14,4.14,0,0,0,1.71-3.28v-6C480.18,173.28,479.82,172.75,479.3,172.66Z" transform="translate(-225.11 -81.03)"/><path class="cls-6" d="M466.69,186.54l1.55-.89a.89.89,0,0,0,.37-.72v-1.65c0-.27-.16-.4-.37-.28l-1.55.89a.92.92,0,0,0-.37.72v1.64C466.32,186.53,466.49,186.66,466.69,186.54Z" transform="translate(-225.11 -81.03)"/><path class="cls-4" d="M471.86,183.56l1.54-.9a.86.86,0,0,0,.38-.71V180.3c0-.27-.17-.4-.38-.28l-1.54.89a.89.89,0,0,0-.38.71v1.65C471.48,183.55,471.65,183.68,471.86,183.56Z" transform="translate(-225.11 -81.03)"/><path class="cls-3" d="M461.63,236.58l16.84-9.64a4.12,4.12,0,0,0,1.71-3.28v-6c0-1.26-.77-1.84-1.71-1.29L461.63,226a4.08,4.08,0,0,0-1.71,3.27v6C459.92,236.55,460.68,237.13,461.63,236.58Z" transform="translate(-225.11 -81.03)"/><path class="cls-4" d="M479.3,216.17a1.67,1.67,0,0,1,.43,1.25v6a4.12,4.12,0,0,1-1.72,3.28l-16.83,9.63a1.16,1.16,0,0,1-.83.18,1,1,0,0,0,1.28.05l16.84-9.64a4.12,4.12,0,0,0,1.71-3.28v-6C480.18,216.79,479.82,216.25,479.3,216.17Z" transform="translate(-225.11 -81.03)"/><path class="cls-6" d="M466.69,230l1.55-.89a.89.89,0,0,0,.37-.72v-1.65c0-.27-.16-.4-.37-.28l-1.55.89a.92.92,0,0,0-.37.72v1.65C466.32,230,466.49,230.16,466.69,230Z" transform="translate(-225.11 -81.03)"/><path class="cls-4" d="M471.86,227.06l1.54-.89a.9.9,0,0,0,.38-.72V223.8c0-.27-.17-.4-.38-.28l-1.54.89a.9.9,0,0,0-.38.72v1.65C471.48,227.05,471.65,227.18,471.86,227.06Z" transform="translate(-225.11 -81.03)"/><path class="cls-3" d="M461.63,258.33l16.84-9.64a4.12,4.12,0,0,0,1.71-3.28v-6c0-1.26-.77-1.84-1.71-1.29l-16.84,9.64a4.08,4.08,0,0,0-1.71,3.27v6C459.92,258.3,460.68,258.88,461.63,258.33Z" transform="translate(-225.11 -81.03)"/><path class="cls-4" d="M479.3,237.92a1.69,1.69,0,0,1,.43,1.25v6a4.12,4.12,0,0,1-1.72,3.28l-16.83,9.63a1.23,1.23,0,0,1-.83.19,1,1,0,0,0,1.28,0l16.84-9.64a4.12,4.12,0,0,0,1.71-3.28v-6C480.18,238.54,479.82,238,479.3,237.92Z" transform="translate(-225.11 -81.03)"/><path class="cls-6" d="M466.69,251.79l1.55-.89a.89.89,0,0,0,.37-.72v-1.64c0-.28-.16-.41-.37-.29l-1.55.89a.92.92,0,0,0-.37.72v1.65C466.32,251.78,466.49,251.91,466.69,251.79Z" transform="translate(-225.11 -81.03)"/><path class="cls-4" d="M471.86,248.81l1.54-.89a.9.9,0,0,0,.38-.72v-1.65c0-.27-.17-.4-.38-.28l-1.54.89a.9.9,0,0,0-.38.72v1.65C471.48,248.8,471.65,248.93,471.86,248.81Z" transform="translate(-225.11 -81.03)"/><path class="cls-4" d="M470.71,259.91l1.55-.89a.91.91,0,0,0,.37-.71v-1.65c0-.28-.17-.4-.37-.28l-1.55.89a.91.91,0,0,0-.37.71v1.65C470.34,259.91,470.51,260,470.71,259.91Z" transform="translate(-225.11 -81.03)"/><path class="cls-3" d="M461.63,214.83l16.84-9.64a4.12,4.12,0,0,0,1.71-3.28v-6c0-1.26-.77-1.84-1.71-1.29l-16.84,9.63a4.11,4.11,0,0,0-1.71,3.28v6C459.92,214.79,460.68,215.38,461.63,214.83Z" transform="translate(-225.11 -81.03)"/><path class="cls-4" d="M479.3,194.41a1.72,1.72,0,0,1,.43,1.26v6A4.08,4.08,0,0,1,478,205l-16.83,9.64a1.16,1.16,0,0,1-.83.18,1,1,0,0,0,1.28.05l16.84-9.64a4.12,4.12,0,0,0,1.71-3.28v-6C480.18,195,479.82,194.5,479.3,194.41Z" transform="translate(-225.11 -81.03)"/><path class="cls-6" d="M466.69,208.29l1.55-.89a.89.89,0,0,0,.37-.72V205c0-.27-.16-.4-.37-.28l-1.55.89a.92.92,0,0,0-.37.72V208C466.32,208.28,466.49,208.41,466.69,208.29Z" transform="translate(-225.11 -81.03)"/><path class="cls-4" d="M471.86,205.31l1.54-.89a.9.9,0,0,0,.38-.72v-1.65c0-.27-.17-.4-.38-.28l-1.54.89a.9.9,0,0,0-.38.72V205C471.48,205.3,471.65,205.43,471.86,205.31Z" transform="translate(-225.11 -81.03)"/><path class="cls-2" d="M447.05,186.91l-38.84-22.42a3.76,3.76,0,0,1-1.57-3v-7.4c0-1.16.7-1.69,1.57-1.19l38.84,22.42a3.77,3.77,0,0,1,1.58,3v7.4C448.63,186.88,447.92,187.42,447.05,186.91Z" transform="translate(-225.11 -81.03)"/><path class="cls-8" d="M445.94,184.32l-36.61-21.14a1.91,1.91,0,0,1-.8-1.52v-5.57c0-.59.36-.86.8-.6l36.61,21.13a1.92,1.92,0,0,1,.79,1.53v5.56C446.73,184.3,446.38,184.57,445.94,184.32Z" transform="translate(-225.11 -81.03)"/><path class="cls-5" d="M417,164.77l-5.47-3.15a1.88,1.88,0,0,1-.77-1.48h0c0-.57.35-.84.77-.59L417,162.7a1.87,1.87,0,0,1,.77,1.49h0C417.73,164.76,417.39,165,417,164.77Z" transform="translate(-225.11 -81.03)"/><path class="cls-3" d="M421.61,166.43c0,.57-.4.8-.89.51a2,2,0,0,1-.9-1.55c0-.57.4-.8.9-.51A2,2,0,0,1,421.61,166.43Z" transform="translate(-225.11 -81.03)"/><path class="cls-3" d="M424.77,168.25c0,.57-.4.8-.89.52a2,2,0,0,1-.9-1.55c0-.57.4-.81.9-.52A2,2,0,0,1,424.77,168.25Z" transform="translate(-225.11 -81.03)"/><path class="cls-5" d="M427.93,170.07c0,.58-.4.81-.89.52a2,2,0,0,1-.9-1.55c0-.57.4-.8.9-.52A2,2,0,0,1,427.93,170.07Z" transform="translate(-225.11 -81.03)"/><path class="cls-3" d="M431.09,171.9c0,.57-.4.8-.9.51a2,2,0,0,1-.89-1.55c0-.57.4-.8.89-.51A2,2,0,0,1,431.09,171.9Z" transform="translate(-225.11 -81.03)"/><path class="cls-3" d="M444.4,181.22l-1.84-1.06a1.19,1.19,0,0,1-.5-1v-1.94c0-.37.22-.54.5-.38l1.84,1.06a1.21,1.21,0,0,1,.49.95v2C444.89,181.21,444.67,181.38,444.4,181.22Z" transform="translate(-225.11 -81.03)"/><path class="cls-2" d="M447.05,200l-38.84-22.42a3.76,3.76,0,0,1-1.57-3v-7.4c0-1.16.7-1.69,1.57-1.19l38.84,22.42a3.77,3.77,0,0,1,1.58,3v7.4C448.63,199.94,447.92,200.48,447.05,200Z" transform="translate(-225.11 -81.03)"/><path class="cls-8" d="M445.94,197.38l-36.61-21.14a1.91,1.91,0,0,1-.8-1.52v-5.57c0-.59.36-.86.8-.61l36.61,21.14a1.91,1.91,0,0,1,.79,1.53v5.56C446.73,197.36,446.38,197.63,445.94,197.38Z" transform="translate(-225.11 -81.03)"/><path class="cls-5" d="M417,177.83l-5.47-3.15a1.88,1.88,0,0,1-.77-1.48h0c0-.58.35-.84.77-.59l5.47,3.15a1.85,1.85,0,0,1,.77,1.49h0C417.73,177.82,417.39,178.08,417,177.83Z" transform="translate(-225.11 -81.03)"/><path class="cls-4" d="M421.61,179.49c0,.57-.4.8-.89.51a2,2,0,0,1-.9-1.55c0-.57.4-.8.9-.52A2,2,0,0,1,421.61,179.49Z" transform="translate(-225.11 -81.03)"/><path class="cls-3" d="M424.77,181.31c0,.57-.4.8-.89.52a2,2,0,0,1-.9-1.55c0-.58.4-.81.9-.52A2,2,0,0,1,424.77,181.31Z" transform="translate(-225.11 -81.03)"/><path class="cls-5" d="M427.93,183.13c0,.57-.4.81-.89.52a2,2,0,0,1-.9-1.55c0-.57.4-.8.9-.52A2,2,0,0,1,427.93,183.13Z" transform="translate(-225.11 -81.03)"/><path class="cls-3" d="M431.09,185c0,.57-.4.8-.9.51a2,2,0,0,1-.89-1.55c0-.57.4-.8.89-.51A2,2,0,0,1,431.09,185Z" transform="translate(-225.11 -81.03)"/><path class="cls-3" d="M444.4,194.28l-1.84-1.07a1.16,1.16,0,0,1-.5-1v-1.94c0-.37.22-.54.5-.38L444.4,191a1.21,1.21,0,0,1,.49.95v2C444.89,194.27,444.67,194.44,444.4,194.28Z" transform="translate(-225.11 -81.03)"/><path class="cls-2" d="M447.05,213l-38.84-22.42a3.76,3.76,0,0,1-1.57-3v-7.4c0-1.16.7-1.69,1.57-1.19l38.84,22.42a3.77,3.77,0,0,1,1.58,3v7.4C448.63,213,447.92,213.54,447.05,213Z" transform="translate(-225.11 -81.03)"/><path class="cls-8" d="M445.94,210.44,409.33,189.3a1.91,1.91,0,0,1-.8-1.52v-5.57c0-.59.36-.86.8-.61l36.61,21.14a1.91,1.91,0,0,1,.79,1.53v5.56C446.73,210.42,446.38,210.69,445.94,210.44Z" transform="translate(-225.11 -81.03)"/><path class="cls-5" d="M417,190.89l-5.47-3.15a1.88,1.88,0,0,1-.77-1.48h0c0-.58.35-.84.77-.59l5.47,3.15a1.85,1.85,0,0,1,.77,1.48h0C417.73,190.88,417.39,191.14,417,190.89Z" transform="translate(-225.11 -81.03)"/><path class="cls-4" d="M421.61,192.55c0,.57-.4.8-.89.51a2,2,0,0,1-.9-1.55c0-.57.4-.8.9-.52A2,2,0,0,1,421.61,192.55Z" transform="translate(-225.11 -81.03)"/><path class="cls-3" d="M424.77,194.37c0,.57-.4.8-.89.52a2,2,0,0,1-.9-1.56c0-.57.4-.8.9-.51A2,2,0,0,1,424.77,194.37Z" transform="translate(-225.11 -81.03)"/><path class="cls-5" d="M427.93,196.19c0,.57-.4.81-.89.52a2,2,0,0,1-.9-1.55c0-.57.4-.8.9-.52A2,2,0,0,1,427.93,196.19Z" transform="translate(-225.11 -81.03)"/><path class="cls-3" d="M431.09,198c0,.57-.4.8-.9.51a2,2,0,0,1-.89-1.55c0-.57.4-.8.89-.51A2,2,0,0,1,431.09,198Z" transform="translate(-225.11 -81.03)"/><path class="cls-3" d="M444.4,207.34l-1.84-1.07a1.16,1.16,0,0,1-.5-1v-1.94c0-.37.22-.54.5-.38l1.84,1.06a1.21,1.21,0,0,1,.49.95v2C444.89,207.33,444.67,207.49,444.4,207.34Z" transform="translate(-225.11 -81.03)"/><path class="cls-2" d="M447.05,226.09l-38.84-22.42a3.76,3.76,0,0,1-1.57-3v-7.4c0-1.16.7-1.7,1.57-1.19l38.84,22.42a3.77,3.77,0,0,1,1.58,3v7.4C448.63,226.06,447.92,226.59,447.05,226.09Z" transform="translate(-225.11 -81.03)"/><path class="cls-8" d="M445.94,223.5l-36.61-21.14a1.91,1.91,0,0,1-.8-1.53v-5.56c0-.59.36-.86.8-.61l36.61,21.14a1.9,1.9,0,0,1,.79,1.52v5.57C446.73,223.48,446.38,223.75,445.94,223.5Z" transform="translate(-225.11 -81.03)"/><path class="cls-5" d="M417,204l-5.47-3.15a1.88,1.88,0,0,1-.77-1.49h0c0-.57.35-.83.77-.58l5.47,3.15a1.85,1.85,0,0,1,.77,1.48h0C417.73,203.94,417.39,204.2,417,204Z" transform="translate(-225.11 -81.03)"/><path class="cls-3" d="M421.61,205.6c0,.58-.4.81-.89.52a2,2,0,0,1-.9-1.55c0-.57.4-.8.9-.52A2,2,0,0,1,421.61,205.6Z" transform="translate(-225.11 -81.03)"/><path class="cls-3" d="M424.77,207.43c0,.57-.4.8-.89.52a2,2,0,0,1-.9-1.56c0-.57.4-.8.9-.51A2,2,0,0,1,424.77,207.43Z" transform="translate(-225.11 -81.03)"/><path class="cls-5" d="M427.93,209.25c0,.57-.4.8-.89.52a2,2,0,0,1-.9-1.55c0-.57.4-.8.9-.52A2,2,0,0,1,427.93,209.25Z" transform="translate(-225.11 -81.03)"/><path class="cls-3" d="M431.09,211.08c0,.57-.4.8-.9.51a2,2,0,0,1-.89-1.55c0-.57.4-.8.89-.52A2,2,0,0,1,431.09,211.08Z" transform="translate(-225.11 -81.03)"/><path class="cls-5" d="M444.4,220.4l-1.84-1.07a1.17,1.17,0,0,1-.5-1v-1.94c0-.37.22-.54.5-.38l1.84,1.06a1.21,1.21,0,0,1,.49.95v2C444.89,220.39,444.67,220.55,444.4,220.4Z" transform="translate(-225.11 -81.03)"/><path class="cls-2" d="M447.05,239.15l-38.84-22.42a3.76,3.76,0,0,1-1.57-3v-7.4c0-1.16.7-1.7,1.57-1.19l38.84,22.42a3.77,3.77,0,0,1,1.58,3V238C448.63,239.12,447.92,239.65,447.05,239.15Z" transform="translate(-225.11 -81.03)"/><path class="cls-8" d="M445.94,236.56l-36.61-21.14a1.93,1.93,0,0,1-.8-1.53v-5.56c0-.59.36-.86.8-.61l36.61,21.14a1.9,1.9,0,0,1,.79,1.52V236C446.73,236.54,446.38,236.81,445.94,236.56Z" transform="translate(-225.11 -81.03)"/><path class="cls-5" d="M417,217l-5.47-3.15a1.9,1.9,0,0,1-.77-1.49h0c0-.57.35-.83.77-.58l5.47,3.15a1.85,1.85,0,0,1,.77,1.48h0C417.73,217,417.39,217.26,417,217Z" transform="translate(-225.11 -81.03)"/><path class="cls-3" d="M421.61,218.66c0,.57-.4.81-.89.52a2,2,0,0,1-.9-1.55c0-.57.4-.8.9-.52A2,2,0,0,1,421.61,218.66Z" transform="translate(-225.11 -81.03)"/><path class="cls-4" d="M424.77,220.49c0,.57-.4.8-.89.51a2,2,0,0,1-.9-1.55c0-.57.4-.8.9-.51A2,2,0,0,1,424.77,220.49Z" transform="translate(-225.11 -81.03)"/><path class="cls-5" d="M427.93,222.31c0,.57-.4.8-.89.52a2,2,0,0,1-.9-1.55c0-.57.4-.81.9-.52A2,2,0,0,1,427.93,222.31Z" transform="translate(-225.11 -81.03)"/><path class="cls-4" d="M431.09,224.14c0,.57-.4.8-.9.51a2,2,0,0,1-.89-1.55c0-.57.4-.8.89-.52A2,2,0,0,1,431.09,224.14Z" transform="translate(-225.11 -81.03)"/><path class="cls-5" d="M444.4,233.45l-1.84-1.06a1.17,1.17,0,0,1-.5-.95v-1.95c0-.36.22-.53.5-.37l1.84,1.06a1.21,1.21,0,0,1,.49.95v2C444.89,233.45,444.67,233.61,444.4,233.45Z" transform="translate(-225.11 -81.03)"/><path class="cls-2" d="M447.05,252.21l-38.84-22.42a3.76,3.76,0,0,1-1.57-3v-7.4c0-1.16.7-1.7,1.57-1.19l38.84,22.42a3.77,3.77,0,0,1,1.58,3V251C448.63,252.18,447.92,252.71,447.05,252.21Z" transform="translate(-225.11 -81.03)"/><path class="cls-8" d="M445.94,249.61l-36.61-21.13a1.93,1.93,0,0,1-.8-1.53v-5.56c0-.59.36-.86.8-.61l36.61,21.14a1.9,1.9,0,0,1,.79,1.52V249C446.73,249.6,446.38,249.87,445.94,249.61Z" transform="translate(-225.11 -81.03)"/><path class="cls-5" d="M417,230.07l-5.47-3.16a1.86,1.86,0,0,1-.77-1.48h0c0-.57.35-.83.77-.58L417,228a1.85,1.85,0,0,1,.77,1.48h0C417.73,230.05,417.39,230.32,417,230.07Z" transform="translate(-225.11 -81.03)"/><path class="cls-3" d="M421.61,231.72c0,.57-.4.81-.89.52a2,2,0,0,1-.9-1.55c0-.57.4-.8.9-.52A2,2,0,0,1,421.61,231.72Z" transform="translate(-225.11 -81.03)"/><path class="cls-3" d="M424.77,233.55c0,.57-.4.8-.89.51a2,2,0,0,1-.9-1.55c0-.57.4-.8.9-.51A2,2,0,0,1,424.77,233.55Z" transform="translate(-225.11 -81.03)"/><path class="cls-5" d="M427.93,235.37c0,.57-.4.8-.89.52a2,2,0,0,1-.9-1.55c0-.57.4-.81.9-.52A2,2,0,0,1,427.93,235.37Z" transform="translate(-225.11 -81.03)"/><path class="cls-3" d="M431.09,237.19c0,.58-.4.81-.9.52a2,2,0,0,1-.89-1.55c0-.57.4-.8.89-.52A2,2,0,0,1,431.09,237.19Z" transform="translate(-225.11 -81.03)"/><path class="cls-3" d="M444.4,246.51l-1.84-1.06a1.17,1.17,0,0,1-.5-.95v-1.95c0-.36.22-.53.5-.37l1.84,1.06a1.19,1.19,0,0,1,.49.95v1.95C444.89,246.5,444.67,246.67,444.4,246.51Z" transform="translate(-225.11 -81.03)"/><path class="cls-2" d="M447.05,265.27l-38.84-22.42a3.76,3.76,0,0,1-1.57-3v-7.41c0-1.15.7-1.69,1.57-1.19l38.84,22.43a3.77,3.77,0,0,1,1.58,3v7.41C448.63,265.24,447.92,265.77,447.05,265.27Z" transform="translate(-225.11 -81.03)"/><path class="cls-8" d="M445.94,262.67l-36.61-21.13a1.93,1.93,0,0,1-.8-1.53v-5.57c0-.58.36-.85.8-.6L445.94,255a1.89,1.89,0,0,1,.79,1.52v5.57C446.73,262.66,446.38,262.93,445.94,262.67Z" transform="translate(-225.11 -81.03)"/><path class="cls-5" d="M417,243.13,411.49,240a1.86,1.86,0,0,1-.77-1.48h0c0-.57.35-.83.77-.58l5.47,3.15a1.85,1.85,0,0,1,.77,1.48h0C417.73,243.11,417.39,243.38,417,243.13Z" transform="translate(-225.11 -81.03)"/><path class="cls-4" d="M422.61,245.49c0,1.08-.76,1.51-1.69,1a3.76,3.76,0,0,1-1.69-2.93c0-1.08.76-1.52,1.69-1A3.75,3.75,0,0,1,422.61,245.49Z" transform="translate(-225.11 -81.03)"/><path class="cls-3" d="M429.15,249.32c0,.57-.4.8-.89.51a2,2,0,0,1-.9-1.55c0-.57.4-.8.9-.51A2,2,0,0,1,429.15,249.32Z" transform="translate(-225.11 -81.03)"/><path class="cls-5" d="M432.31,251.14c0,.57-.4.8-.89.52a2,2,0,0,1-.9-1.55c0-.57.4-.8.9-.52A2,2,0,0,1,432.31,251.14Z" transform="translate(-225.11 -81.03)"/><path class="cls-3" d="M435.47,253c0,.57-.4.8-.89.51a2,2,0,0,1-.9-1.55c0-.57.4-.8.9-.52A2,2,0,0,1,435.47,253Z" transform="translate(-225.11 -81.03)"/><path class="cls-5" d="M444.4,259.57l-1.84-1.06a1.17,1.17,0,0,1-.5-.95v-1.95c0-.36.22-.53.5-.37l1.84,1.06a1.19,1.19,0,0,1,.49.95v1.95C444.89,259.56,444.67,259.73,444.4,259.57Z" transform="translate(-225.11 -81.03)"/><path class="cls-1" d="M313.32,334.14l-86.56-50c-2.45-1.42-2.14-3.89.69-5.52l58.94-34c2.83-1.63,7.1-1.81,9.55-.39l86.57,50c2.45,1.42,2.14,3.89-.69,5.52l-58.94,34C320.05,335.37,315.77,335.55,313.32,334.14Z" transform="translate(-225.11 -81.03)"/><path class="cls-3" d="M402.78,205.67l-86.56-50a3.51,3.51,0,0,0-2.94-.36h0l-.16.06,0,0L310,156.59l2.8,1.38a.83.83,0,0,1,0,.15l-14.1,64.18c-.7,3.22.71,7,3.16,8.38l84.48,48.77L386,283l3.42-1.32a4.8,4.8,0,0,0,2.45-3.48l14.1-64.18C406.64,210.83,405.23,207.08,402.78,205.67Z" transform="translate(-225.11 -81.03)"/><path class="cls-6" d="M402.78,205.67l-86.56-50a3.51,3.51,0,0,0-2.94-.36h0l-.16.06,0,0L310,156.59l2.8,1.38a.83.83,0,0,1,0,.15l-9.29,42.3,42.36,33,59.72-24.3A6.75,6.75,0,0,0,402.78,205.67Z" transform="translate(-225.11 -81.03)"/><path class="cls-9" d="M399.52,215.54l6.59-2.81a8.28,8.28,0,0,0-2.67-6.6L393,210.52Z" transform="translate(-225.11 -81.03)"/><path class="cls-5" d="M383,282.69l-86.56-50c-2.45-1.42-3.86-5.17-3.16-8.38l14.1-64.18c.71-3.21,3.27-4.67,5.71-3.26l86.57,50c2.45,1.41,3.86,5.16,3.16,8.38l-14.1,64.18C388,282.65,385.41,284.11,383,282.69Z" transform="translate(-225.11 -81.03)"/><path class="cls-4" d="M400.45,206.58l-86.56-50a3.43,3.43,0,0,0-3.41-.15,3.56,3.56,0,0,1,2.57.45l86.57,50c2.45,1.41,3.86,5.17,3.16,8.38l-14.1,64.18a4.91,4.91,0,0,1-2.31,3.4c1.46-.32,2.68-1.64,3.14-3.71L403.61,215C404.31,211.74,402.9,208,400.45,206.58Z" transform="translate(-225.11 -81.03)"/><path class="cls-4" d="M381.09,277.92l-81.41-47c-2.25-1.29-3.54-4.72-2.89-7.66l12.9-58.74c.65-2.94,3-4.27,5.23-3l81.41,47c2.24,1.3,3.53,4.73,2.89,7.67l-12.91,58.73C385.67,277.88,383.33,279.21,381.09,277.92Z" transform="translate(-225.11 -81.03)"/><path class="cls-3" d="M381.09,277.92l-81.41-47c-2.25-1.29-3.54-4.72-2.89-7.66l12.9-58.74c.65-2.94,3-4.27,5.23-3l81.41,47c2.24,1.3,3.53,4.73,2.89,7.67l-12.91,58.73C385.67,277.88,383.33,279.21,381.09,277.92Z" transform="translate(-225.11 -81.03)"/><path class="cls-2" d="M381.8,277.63l-81.42-47c-2.24-1.29-3.53-4.72-2.88-7.66l12.9-58.73a4.55,4.55,0,0,1,2.05-3.1,4.16,4.16,0,0,0-2.76,3.38l-12.9,58.74c-.65,2.94.64,6.37,2.89,7.66l81.41,47a3.12,3.12,0,0,0,3.17.11A3.21,3.21,0,0,1,381.8,277.63Z" transform="translate(-225.11 -81.03)"/><path class="cls-3" d="M384.16,284.87l-11.83-1.56-76.39-44.1c-2.45-1.41-6.72-1.24-9.55.4l-54.12,31.23-7.16-.94V274h0a2.77,2.77,0,0,0,1.64,2.51l86.56,50c2.45,1.42,6.73,1.24,9.56-.39l58.94-34c1.59-.92,2.39-2.1,2.34-3.21h0Z" transform="translate(-225.11 -81.03)"/><path class="cls-6" d="M326.77,257l-5.43-3.14H261.68l-29.41,17-7.16-.94V274h0a2.77,2.77,0,0,0,1.64,2.51l86.56,50a9,9,0,0,0,4.93.93Z" transform="translate(-225.11 -81.03)"/><path class="cls-2" d="M228.29,270.32l-3.18-.42V274h0a2.77,2.77,0,0,0,1.64,2.51l1.53.88Z" transform="translate(-225.11 -81.03)"/><path class="cls-9" d="M314.2,326.85a11,11,0,0,0,8.11-.51v-9H314.2Z" transform="translate(-225.11 -81.03)"/><path class="cls-5" d="M313.32,322.39l-86.56-50c-2.45-1.41-2.14-3.88.69-5.51l58.94-34c2.83-1.64,7.1-1.81,9.55-.4l86.57,50c2.45,1.41,2.14,3.88-.69,5.51l-58.94,34C320.05,323.63,315.77,323.8,313.32,322.39Z" transform="translate(-225.11 -81.03)"/><path class="cls-4" d="M381.82,286.49l-58.94,34c-2.83,1.63-7.11,1.81-9.56.4l-86.56-50a3.21,3.21,0,0,1-1.52-1.67c-.39,1.16.1,2.33,1.52,3.15l86.56,50c2.45,1.41,6.73,1.24,9.56-.4l58.94-34c1.9-1.09,2.66-2.57,2.21-3.85A4.61,4.61,0,0,1,381.82,286.49Z" transform="translate(-225.11 -81.03)"/><path class="cls-2" d="M263.58,255.87l-3.92-2.27c-.31-.18-.27-.49.09-.7l4.62-2.67a1.34,1.34,0,0,1,1.23,0l3.92,2.26c.31.18.27.5-.09.71l-4.63,2.66A1.36,1.36,0,0,1,263.58,255.87Z" transform="translate(-225.11 -81.03)"/><path class="cls-2" d="M269.63,259.36l-3.92-2.26c-.32-.19-.28-.5.09-.71l4.62-2.67a1.37,1.37,0,0,1,1.23-.05l3.91,2.26c.32.18.28.5-.08.71l-4.63,2.67A1.35,1.35,0,0,1,269.63,259.36Z" transform="translate(-225.11 -81.03)"/><path class="cls-2" d="M275.67,262.85l-3.91-2.26c-.32-.18-.28-.5.09-.71l4.62-2.67a1.37,1.37,0,0,1,1.23,0l3.91,2.26c.32.18.28.5-.09.71l-4.62,2.67A1.37,1.37,0,0,1,275.67,262.85Z" transform="translate(-225.11 -81.03)"/><path class="cls-2" d="M284,260l-3.92-2.27c-.31-.18-.27-.49.09-.7l3.88-2.24a1.38,1.38,0,0,1,1.23-.06l3.92,2.27c.31.18.27.49-.09.7l-3.88,2.25A1.41,1.41,0,0,1,284,260Z" transform="translate(-225.11 -81.03)"/><path class="cls-2" d="M290.09,263.46l-3.92-2.26c-.31-.18-.27-.5.09-.71l3.88-2.24a1.37,1.37,0,0,1,1.23-.05l3.91,2.26c.32.18.28.5-.08.71l-3.89,2.24A1.35,1.35,0,0,1,290.09,263.46Z" transform="translate(-225.11 -81.03)"/><path class="cls-2" d="M296.14,267l-3.92-2.26c-.31-.18-.28-.5.09-.71l3.88-2.24a1.37,1.37,0,0,1,1.23-.05l3.91,2.26c.32.18.28.5-.09.71l-3.88,2.24A1.35,1.35,0,0,1,296.14,267Z" transform="translate(-225.11 -81.03)"/><path class="cls-2" d="M302.19,270.44l-3.92-2.26c-.32-.18-.28-.5.09-.71l3.88-2.24a1.35,1.35,0,0,1,1.22-.05l3.92,2.26c.32.18.28.5-.09.71l-3.88,2.24A1.35,1.35,0,0,1,302.19,270.44Z" transform="translate(-225.11 -81.03)"/><path class="cls-2" d="M308.23,273.93l-3.91-2.26c-.32-.18-.28-.5.08-.71l3.89-2.24a1.35,1.35,0,0,1,1.22-.05l3.92,2.26c.31.19.27.5-.09.71l-3.88,2.24A1.34,1.34,0,0,1,308.23,273.93Z" transform="translate(-225.11 -81.03)"/><path class="cls-2" d="M314.28,277.43l-3.91-2.26c-.32-.19-.28-.5.08-.71l3.88-2.24a1.34,1.34,0,0,1,1.23-.05l3.92,2.26c.31.18.27.5-.09.71l-3.88,2.24A1.37,1.37,0,0,1,314.28,277.43Z" transform="translate(-225.11 -81.03)"/><path class="cls-2" d="M320.33,280.92l-3.92-2.26c-.31-.18-.27-.5.09-.71l3.88-2.24a1.37,1.37,0,0,1,1.23,0l3.92,2.26c.31.18.27.5-.09.71l-3.88,2.24A1.37,1.37,0,0,1,320.33,280.92Z" transform="translate(-225.11 -81.03)"/><path class="cls-2" d="M326.38,284.41l-3.92-2.26c-.31-.18-.27-.5.09-.71l3.88-2.24a1.37,1.37,0,0,1,1.23-.05l3.91,2.26c.32.18.28.5-.08.71l-3.88,2.24A1.37,1.37,0,0,1,326.38,284.41Z" transform="translate(-225.11 -81.03)"/><path class="cls-2" d="M332.43,287.9l-3.92-2.26c-.31-.18-.27-.5.09-.71l3.88-2.24a1.37,1.37,0,0,1,1.23-.05l3.91,2.26c.32.18.28.5-.08.71l-3.89,2.24A1.35,1.35,0,0,1,332.43,287.9Z" transform="translate(-225.11 -81.03)"/><path class="cls-2" d="M338.48,291.4l-3.92-2.27c-.31-.18-.28-.49.09-.7l3.88-2.25a1.41,1.41,0,0,1,1.23-.05l3.91,2.27c.32.18.28.49-.09.7l-3.88,2.24A1.36,1.36,0,0,1,338.48,291.4Z" transform="translate(-225.11 -81.03)"/><path class="cls-2" d="M293,258.31,289,256.05c-.32-.18-.28-.5.08-.71L293,253.1a1.37,1.37,0,0,1,1.23,0l3.92,2.26c.31.18.27.5-.09.71l-3.88,2.24A1.37,1.37,0,0,1,293,258.31Z" transform="translate(-225.11 -81.03)"/><path class="cls-2" d="M286.81,254.77l-3.91-2.26c-.32-.18-.28-.5.08-.71l3.89-2.24a1.35,1.35,0,0,1,1.22-.05l3.92,2.26c.31.18.27.5-.09.71L288,254.72A1.37,1.37,0,0,1,286.81,254.77Z" transform="translate(-225.11 -81.03)"/><path class="cls-2" d="M280.66,251.22l-8.43-4.87c-.32-.18-.28-.5.09-.71l3.88-2.24a1.35,1.35,0,0,1,1.22-.05l8.44,4.87c.31.18.27.5-.09.71l-3.88,2.24A1.37,1.37,0,0,1,280.66,251.22Z" transform="translate(-225.11 -81.03)"/><path class="cls-2" d="M285,246.9l-6.84-4c-.32-.18-.28-.5.08-.71l3.89-2.24a1.35,1.35,0,0,1,1.22-.05l6.85,4c.31.18.27.5-.09.71l-3.88,2.24A1.37,1.37,0,0,1,285,246.9Z" transform="translate(-225.11 -81.03)"/><path class="cls-2" d="M299,261.8l-3.92-2.26c-.31-.18-.27-.5.09-.7l3.88-2.25a1.37,1.37,0,0,1,1.23,0l3.92,2.26c.31.19.27.5-.09.71l-3.88,2.24A1.34,1.34,0,0,1,299,261.8Z" transform="translate(-225.11 -81.03)"/><path class="cls-2" d="M305.05,265.3,301.13,263c-.31-.19-.27-.5.09-.71l3.88-2.24a1.34,1.34,0,0,1,1.23,0l3.91,2.26c.32.18.28.5-.08.71l-3.88,2.24A1.37,1.37,0,0,1,305.05,265.3Z" transform="translate(-225.11 -81.03)"/><path class="cls-2" d="M311.1,268.79l-3.92-2.26c-.31-.18-.27-.5.09-.71l3.88-2.24a1.37,1.37,0,0,1,1.23-.05l3.91,2.26c.32.18.28.5-.09.71l-3.88,2.24A1.35,1.35,0,0,1,311.1,268.79Z" transform="translate(-225.11 -81.03)"/><path class="cls-2" d="M317.15,272.28,313.23,270c-.32-.18-.28-.5.09-.71l3.88-2.24a1.35,1.35,0,0,1,1.22-.05l3.92,2.26c.32.18.28.5-.09.71l-3.88,2.24A1.35,1.35,0,0,1,317.15,272.28Z" transform="translate(-225.11 -81.03)"/><path class="cls-2" d="M323.19,275.77l-3.91-2.26c-.32-.18-.28-.5.09-.71l3.88-2.24a1.35,1.35,0,0,1,1.22-.05l3.92,2.26c.31.18.28.5-.09.71l-3.88,2.24A1.37,1.37,0,0,1,323.19,275.77Z" transform="translate(-225.11 -81.03)"/><path class="cls-2" d="M329.24,279.27,325.33,277c-.32-.18-.28-.49.08-.7l3.88-2.24a1.38,1.38,0,0,1,1.23-.06l3.92,2.27c.31.18.27.49-.09.7l-3.88,2.24A1.38,1.38,0,0,1,329.24,279.27Z" transform="translate(-225.11 -81.03)"/><path class="cls-2" d="M335.29,282.76l-3.92-2.26c-.31-.19-.27-.5.09-.71l3.88-2.24a1.34,1.34,0,0,1,1.23-.05l3.92,2.26c.31.18.27.5-.09.71l-3.88,2.24A1.37,1.37,0,0,1,335.29,282.76Z" transform="translate(-225.11 -81.03)"/><path class="cls-2" d="M341.34,286.25,337.42,284c-.31-.18-.27-.5.09-.71l3.88-2.24a1.37,1.37,0,0,1,1.23-.05l3.92,2.26c.31.18.27.5-.09.71l-3.88,2.24A1.37,1.37,0,0,1,341.34,286.25Z" transform="translate(-225.11 -81.03)"/><path class="cls-2" d="M347.39,289.74l-3.92-2.26c-.31-.18-.27-.5.09-.71l3.88-2.24a1.37,1.37,0,0,1,1.23,0l3.91,2.26c.32.18.28.5-.08.71l-3.88,2.24A1.37,1.37,0,0,1,347.39,289.74Z" transform="translate(-225.11 -81.03)"/><path class="cls-2" d="M358.14,296,349.6,291c-.32-.19-.28-.5.08-.71l3.88-2.24a1.34,1.34,0,0,1,1.23-.05l8.55,4.93c.31.18.27.5-.09.71l-3.88,2.24A1.37,1.37,0,0,1,358.14,296Z" transform="translate(-225.11 -81.03)"/><path class="cls-2" d="M369.92,289.15,362.7,285c-.31-.18-.27-.5.09-.71l3.88-2.24a1.37,1.37,0,0,1,1.23-.05l7.21,4.16c.32.18.28.5-.09.71l-3.88,2.24A1.35,1.35,0,0,1,369.92,289.15Z" transform="translate(-225.11 -81.03)"/><path class="cls-2" d="M309.59,261.12l-3.91-2.26c-.32-.18-.28-.5.08-.71l3.88-2.24a1.37,1.37,0,0,1,1.23,0l3.92,2.26c.31.18.27.5-.09.71l-3.88,2.24A1.37,1.37,0,0,1,309.59,261.12Z" transform="translate(-225.11 -81.03)"/><path class="cls-2" d="M303.39,257.54l-3.91-2.26c-.32-.18-.28-.5.08-.71l3.89-2.24a1.35,1.35,0,0,1,1.22-.05l3.92,2.26c.31.18.27.5-.09.71l-3.88,2.24A1.37,1.37,0,0,1,303.39,257.54Z" transform="translate(-225.11 -81.03)"/><path class="cls-2" d="M297.19,254l-3.91-2.26c-.32-.18-.28-.5.09-.71l3.88-2.24a1.35,1.35,0,0,1,1.22-.05l3.92,2.26c.31.19.28.5-.09.71l-3.88,2.24A1.34,1.34,0,0,1,297.19,254Z" transform="translate(-225.11 -81.03)"/><path class="cls-2" d="M291,250.38l-3.92-2.26c-.32-.18-.28-.5.09-.71l3.88-2.24a1.35,1.35,0,0,1,1.22,0l3.92,2.26c.32.19.28.5-.09.71l-3.88,2.24A1.32,1.32,0,0,1,291,250.38Z" transform="translate(-225.11 -81.03)"/><path class="cls-2" d="M315.64,264.61l-3.92-2.26c-.31-.18-.27-.5.09-.71l3.88-2.24a1.37,1.37,0,0,1,1.23,0l3.92,2.26c.31.19.27.5-.09.71l-3.88,2.24A1.34,1.34,0,0,1,315.64,264.61Z" transform="translate(-225.11 -81.03)"/><path class="cls-2" d="M321.69,268.11l-3.92-2.27c-.31-.18-.27-.49.09-.7l3.88-2.24a1.38,1.38,0,0,1,1.23-.06l3.92,2.27c.31.18.27.49-.09.7l-3.88,2.24A1.38,1.38,0,0,1,321.69,268.11Z" transform="translate(-225.11 -81.03)"/><path class="cls-2" d="M327.74,271.6l-3.92-2.26c-.31-.19-.27-.5.09-.71l3.88-2.24a1.37,1.37,0,0,1,1.23-.05l3.91,2.26c.32.18.28.5-.08.71L329,271.55A1.35,1.35,0,0,1,327.74,271.6Z" transform="translate(-225.11 -81.03)"/><path class="cls-2" d="M333.79,275.09l-3.92-2.26c-.31-.18-.28-.5.09-.71l3.88-2.24a1.37,1.37,0,0,1,1.23-.05l3.91,2.26c.32.18.28.5-.09.71L335,275A1.35,1.35,0,0,1,333.79,275.09Z" transform="translate(-225.11 -81.03)"/><path class="cls-2" d="M339.84,278.58l-3.92-2.26c-.32-.18-.28-.5.09-.71l3.88-2.24a1.35,1.35,0,0,1,1.22-.05l3.92,2.26c.32.18.28.5-.09.71l-3.88,2.24A1.35,1.35,0,0,1,339.84,278.58Z" transform="translate(-225.11 -81.03)"/><path class="cls-2" d="M345.88,282.07,342,279.81c-.32-.18-.28-.5.08-.71l3.89-2.24a1.35,1.35,0,0,1,1.22-.05l3.92,2.26c.31.19.27.5-.09.71L347.11,282A1.34,1.34,0,0,1,345.88,282.07Z" transform="translate(-225.11 -81.03)"/><path class="cls-2" d="M351.93,285.57,348,283.31c-.32-.19-.28-.5.08-.71l3.88-2.24a1.34,1.34,0,0,1,1.23-.05l3.92,2.26c.31.18.27.5-.09.7l-3.88,2.25A1.37,1.37,0,0,1,351.93,285.57Z" transform="translate(-225.11 -81.03)"/><path class="cls-2" d="M358,289.06l-3.92-2.26c-.31-.18-.27-.5.09-.71l3.88-2.24a1.37,1.37,0,0,1,1.23-.05l3.92,2.26c.31.18.27.5-.09.71L359.21,289A1.37,1.37,0,0,1,358,289.06Z" transform="translate(-225.11 -81.03)"/><path class="cls-2" d="M364,292.55l-3.92-2.26c-.31-.18-.27-.5.09-.71l3.88-2.24a1.37,1.37,0,0,1,1.23,0l3.91,2.26c.32.18.28.5-.08.71l-3.88,2.24A1.37,1.37,0,0,1,364,292.55Z" transform="translate(-225.11 -81.03)"/><path class="cls-2" d="M306.41,252.48l-3.92-2.26c-.31-.18-.27-.5.09-.71l3.88-2.24a1.37,1.37,0,0,1,1.23-.05l3.91,2.26c.32.19.28.5-.08.71l-3.89,2.24A1.32,1.32,0,0,1,306.41,252.48Z" transform="translate(-225.11 -81.03)"/><path class="cls-2" d="M300.39,249l-3.92-2.26c-.31-.18-.27-.5.09-.71l3.88-2.24a1.37,1.37,0,0,1,1.23-.05l3.91,2.26c.32.18.28.5-.08.71L301.62,249A1.37,1.37,0,0,1,300.39,249Z" transform="translate(-225.11 -81.03)"/><path class="cls-2" d="M294.37,245.53l-3.92-2.26c-.31-.18-.27-.5.09-.71l3.88-2.24a1.37,1.37,0,0,1,1.23,0l3.92,2.26c.31.19.27.5-.09.71l-3.88,2.24A1.34,1.34,0,0,1,294.37,245.53Z" transform="translate(-225.11 -81.03)"/><path class="cls-2" d="M288.35,242.06l-3.91-2.26c-.32-.18-.28-.5.08-.71l3.88-2.24a1.37,1.37,0,0,1,1.23,0l3.92,2.26c.31.18.27.5-.09.71L289.58,242A1.37,1.37,0,0,1,288.35,242.06Z" transform="translate(-225.11 -81.03)"/><path class="cls-2" d="M294.54,238.49l-3.92-2.26c-.31-.19-.27-.5.09-.71l1.29-.74a1.32,1.32,0,0,1,1.22-.05l3.92,2.26c.31.18.27.5-.09.7l-1.28.75A1.37,1.37,0,0,1,294.54,238.49Z" transform="translate(-225.11 -81.03)"/><path class="cls-2" d="M302.39,243l-3.91-2.26c-.32-.18-.28-.5.09-.71l1.28-.74a1.37,1.37,0,0,1,1.23-.05l3.91,2.26c.32.18.28.5-.09.71l-1.28.74A1.37,1.37,0,0,1,302.39,243Z" transform="translate(-225.11 -81.03)"/><path class="cls-2" d="M308.39,246.48l-3.92-2.26c-.31-.18-.27-.5.09-.71l1.28-.74a1.37,1.37,0,0,1,1.23-.05L311,245c.31.18.27.5-.09.71l-1.28.74A1.37,1.37,0,0,1,308.39,246.48Z" transform="translate(-225.11 -81.03)"/><path class="cls-2" d="M314.38,249.94l-3.91-2.26c-.32-.18-.28-.5.08-.71l1.29-.74a1.35,1.35,0,0,1,1.22,0l3.92,2.26c.31.18.27.5-.09.71l-1.28.74A1.37,1.37,0,0,1,314.38,249.94Z" transform="translate(-225.11 -81.03)"/><path class="cls-2" d="M320.38,253.4l-3.92-2.26c-.32-.18-.28-.5.09-.71l1.28-.74a1.37,1.37,0,0,1,1.23-.05L323,251.9c.32.18.28.5-.09.71l-1.28.74A1.35,1.35,0,0,1,320.38,253.4Z" transform="translate(-225.11 -81.03)"/><path class="cls-2" d="M353.84,272.72l-3.92-2.26c-.32-.18-.28-.5.09-.71l1.28-.74a1.37,1.37,0,0,1,1.23-.05l3.91,2.26c.32.18.28.5-.09.71l-1.28.74A1.35,1.35,0,0,1,353.84,272.72Z" transform="translate(-225.11 -81.03)"/><path class="cls-2" d="M359.83,276.18l-3.92-2.26c-.31-.18-.27-.5.09-.71l1.28-.74a1.37,1.37,0,0,1,1.23-.05l3.92,2.26c.31.18.27.5-.09.71l-1.28.74A1.37,1.37,0,0,1,359.83,276.18Z" transform="translate(-225.11 -81.03)"/><path class="cls-2" d="M365.82,279.64l-3.91-2.26c-.32-.18-.28-.5.08-.71l1.29-.74a1.35,1.35,0,0,1,1.22-.05l3.92,2.26c.31.18.27.5-.09.71l-1.28.74A1.37,1.37,0,0,1,365.82,279.64Z" transform="translate(-225.11 -81.03)"/><path class="cls-2" d="M371.82,283.1l-3.92-2.26c-.32-.18-.28-.5.09-.71l1.28-.74a1.37,1.37,0,0,1,1.23-.05l3.91,2.26c.32.18.28.5-.09.71l-1.28.74A1.35,1.35,0,0,1,371.82,283.1Z" transform="translate(-225.11 -81.03)"/><path class="cls-2" d="M312.46,256l-3.92-2.27c-.32-.18-.28-.49.09-.7l3.88-2.24a1.34,1.34,0,0,1,1.23-.05l3.91,2.26c.32.18.28.49-.09.7l-3.88,2.25A1.38,1.38,0,0,1,312.46,256Z" transform="translate(-225.11 -81.03)"/><path class="cls-2" d="M318.5,259.47l-3.91-2.26c-.32-.18-.28-.5.09-.71l3.88-2.24a1.35,1.35,0,0,1,1.22,0l3.92,2.26c.31.18.28.5-.09.71l-3.88,2.24A1.37,1.37,0,0,1,318.5,259.47Z" transform="translate(-225.11 -81.03)"/><path class="cls-2" d="M324.55,263l-3.91-2.26c-.32-.18-.28-.5.08-.71l3.89-2.24a1.35,1.35,0,0,1,1.22-.05l3.92,2.26c.31.18.27.5-.09.71l-3.88,2.24A1.37,1.37,0,0,1,324.55,263Z" transform="translate(-225.11 -81.03)"/><path class="cls-2" d="M330.6,266.45l-3.92-2.26c-.31-.18-.27-.5.09-.71l3.88-2.24a1.37,1.37,0,0,1,1.23-.05l3.92,2.26c.31.18.27.5-.09.71l-3.88,2.24A1.37,1.37,0,0,1,330.6,266.45Z" transform="translate(-225.11 -81.03)"/><path class="cls-2" d="M336.65,269.94l-3.92-2.26c-.31-.18-.27-.5.09-.71l3.88-2.24a1.37,1.37,0,0,1,1.23-.05l3.92,2.26c.31.19.27.5-.09.71l-3.88,2.24A1.34,1.34,0,0,1,336.65,269.94Z" transform="translate(-225.11 -81.03)"/><path class="cls-2" d="M342.7,273.44l-3.92-2.26c-.31-.19-.27-.5.09-.71l3.88-2.24a1.34,1.34,0,0,1,1.23-.05l3.91,2.26c.32.18.28.5-.08.71l-3.88,2.24A1.37,1.37,0,0,1,342.7,273.44Z" transform="translate(-225.11 -81.03)"/><path class="cls-2" d="M348.75,276.93l-3.92-2.26c-.31-.18-.27-.5.09-.71l3.88-2.24a1.37,1.37,0,0,1,1.23-.05l3.91,2.26c.32.18.28.5-.09.71L350,276.88A1.35,1.35,0,0,1,348.75,276.93Z" transform="translate(-225.11 -81.03)"/><path class="cls-2" d="M354.8,280.42l-3.92-2.26c-.32-.18-.28-.5.09-.71l3.88-2.24a1.35,1.35,0,0,1,1.22,0l3.92,2.26c.32.18.28.5-.09.71L356,280.37A1.35,1.35,0,0,1,354.8,280.42Z" transform="translate(-225.11 -81.03)"/><path class="cls-2" d="M360.84,283.91l-3.91-2.26c-.32-.18-.28-.5.09-.71l3.88-2.24a1.35,1.35,0,0,1,1.22-.05l3.92,2.26c.31.18.28.5-.09.71l-3.88,2.24A1.37,1.37,0,0,1,360.84,283.91Z" transform="translate(-225.11 -81.03)"/><path class="cls-2" d="M277.88,256.41l-11.54-6.66c-.31-.18-.27-.5.09-.71l3.88-2.24a1.37,1.37,0,0,1,1.23-.05l11.53,6.66c.32.18.28.5-.09.71l-3.88,2.24A1.35,1.35,0,0,1,277.88,256.41Z" transform="translate(-225.11 -81.03)"/><path class="cls-2" d="M352.18,299.31l-11.53-6.66c-.32-.18-.28-.5.09-.71l3.88-2.24a1.35,1.35,0,0,1,1.22-.05l11.54,6.66c.31.18.27.5-.09.71l-3.88,2.24A1.37,1.37,0,0,1,352.18,299.31Z" transform="translate(-225.11 -81.03)"/><path class="cls-2" d="M328,293.06l-3.91-2.26c-.32-.19-.28-.5.09-.71l4.62-2.67a1.37,1.37,0,0,1,1.23-.05l3.91,2.26c.32.18.28.5-.09.71L329.22,293A1.37,1.37,0,0,1,328,293.06Z" transform="translate(-225.11 -81.03)"/><path class="cls-2" d="M284.07,267.7l-6.26-3.62c-.32-.18-.28-.5.08-.71l4.63-2.67a1.35,1.35,0,0,1,1.22-.05l6.27,3.62c.31.18.27.5-.09.71l-4.62,2.67A1.37,1.37,0,0,1,284.07,267.7Z" transform="translate(-225.11 -81.03)"/><path class="cls-2" d="M322.17,289.69l-6.27-3.61c-.31-.19-.27-.5.09-.71l4.62-2.67a1.37,1.37,0,0,1,1.23-.05l6.26,3.61c.32.19.28.5-.08.71l-4.63,2.67A1.35,1.35,0,0,1,322.17,289.69Z" transform="translate(-225.11 -81.03)"/><path class="cls-2" d="M292.8,272.74l-6.27-3.62c-.31-.18-.27-.5.09-.71l4.62-2.67a1.37,1.37,0,0,1,1.23-.05l6.26,3.62c.32.18.28.5-.08.71L294,272.68A1.36,1.36,0,0,1,292.8,272.74Z" transform="translate(-225.11 -81.03)"/><path class="cls-2" d="M292.51,265.72l27.24,15.72a.38.38,0,0,1,0,.71L315,284.87a1.38,1.38,0,0,1-1.22,0l-27.23-15.73Z" transform="translate(-225.11 -81.03)"/><path class="cls-2" d="M344.9,299.39l4.36,2.52c.26.15.23.41-.07.58l-1.89,1.09a1.13,1.13,0,0,1-1,0l-4.36-2.52c-.26-.15-.23-.41.07-.58l1.89-1.09A1.13,1.13,0,0,1,344.9,299.39Z" transform="translate(-225.11 -81.03)"/><path class="cls-2" d="M338.8,295.87l4.36,2.52c.26.15.23.41-.07.58l-1.89,1.09a1.13,1.13,0,0,1-1,0l-4.36-2.52c-.26-.15-.22-.41.07-.58l1.89-1.09A1.13,1.13,0,0,1,338.8,295.87Z" transform="translate(-225.11 -81.03)"/><path class="cls-2" d="M332.75,292.38l4.36,2.51c.26.15.23.41-.07.58l-1.89,1.1a1.11,1.11,0,0,1-1,0l-4.37-2.52c-.26-.15-.22-.41.07-.58l1.9-1.09A1.11,1.11,0,0,1,332.75,292.38Z" transform="translate(-225.11 -81.03)"/><path class="cls-2" d="M342.14,293.94l4.36,2.52c.26.15.23.41-.07.58l-1.89,1.09a1.13,1.13,0,0,1-1,0l-4.36-2.52c-.26-.15-.22-.41.07-.58l1.89-1.09A1.13,1.13,0,0,1,342.14,293.94Z" transform="translate(-225.11 -81.03)"/><polygon class="cls-4" points="140.93 144.76 108.35 125.95 108.77 123.84 141.34 142.65 140.93 144.76"/><polygon class="cls-4" points="129.26 148.34 106.51 135.21 106.93 133.09 129.68 146.22 129.26 148.34"/><polygon class="cls-10" points="127.11 141.94 107.43 130.58 107.85 128.46 127.52 139.82 127.11 141.94"/><polygon class="cls-5" points="140.01 149.39 130.17 143.71 130.59 141.59 140.43 147.27 140.01 149.39"/><path class="cls-5" d="M348,204.8a1.24,1.24,0,0,1-1.77.55,1.55,1.55,0,0,1-.64-1.94,1.23,1.23,0,0,1,1.77-.54A1.54,1.54,0,0,1,348,204.8Z" transform="translate(-225.11 -81.03)"/><path class="cls-4" d="M352.27,207.25a1.23,1.23,0,0,1-1.77.54,1.54,1.54,0,0,1-.63-1.93,1.23,1.23,0,0,1,1.77-.54A1.53,1.53,0,0,1,352.27,207.25Z" transform="translate(-225.11 -81.03)"/><path class="cls-5" d="M356.51,209.69a1.23,1.23,0,0,1-1.77.55,1.53,1.53,0,0,1-.63-1.93,1.23,1.23,0,0,1,1.77-.55A1.54,1.54,0,0,1,356.51,209.69Z" transform="translate(-225.11 -81.03)"/><path class="cls-10" d="M360.75,212.14a1.23,1.23,0,0,1-1.77.54,1.53,1.53,0,0,1-.63-1.93,1.22,1.22,0,0,1,1.76-.54A1.54,1.54,0,0,1,360.75,212.14Z" transform="translate(-225.11 -81.03)"/><path class="cls-5" d="M366,125.87l-1.68-1V122.5a9,9,0,0,0-4.05-7l-12.69-7.28c-2.24-1.29-4.06-.24-4.06,2.34v2.41l-1.67-1v-2.4c0-3.65,2.57-5.14,5.73-3.31l12.69,7.28a12.68,12.68,0,0,1,5.73,9.92Z" transform="translate(-225.11 -81.03)"/><path class="cls-5" d="M360.26,129.17l5.72-3.3-1.16-4-1.6-4s-2.75-3.07-3-3.13-7.71-4.32-7.71-4.32l-6.25-4.5-3,.1-5.53,3.18,4,1.65s2.25,1.11,2.77,1.25a20.74,20.74,0,0,1,2.78,2.27s2.72,1.1,2.72,1.1l.58-.09,4.86,3.41,1.58.7.84,1.36,1.3,3.62Z" transform="translate(-225.11 -81.03)"/><path class="cls-6" d="M343.5,112.94l-5.72,3.3s-.37-3.69-.37-3.74,1.25-1.79,1.25-1.79l3.11-.61,2.46,1.87-.78-.32-.33.19.38.61Z" transform="translate(-225.11 -81.03)"/><path class="cls-2" d="M360.26,129.17l-1.68-1v-2.41a9,9,0,0,0-4.05-7l-12.69-7.28c-2.24-1.29-4.06-.24-4.06,2.34v2.41l-1.68-1v-2.41c0-3.65,2.58-5.13,5.74-3.31l12.69,7.28a12.7,12.7,0,0,1,5.73,9.93Z" transform="translate(-225.11 -81.03)"/><path class="cls-5" d="M423.43,125.85l-1.24-.71c-.52.35-1,.7-1.57,1l2.81,1.62a9,9,0,0,1,4.06,7v2.41l1.67,1v-2.41A12.7,12.7,0,0,0,423.43,125.85Z" transform="translate(-225.11 -81.03)"/><path class="cls-5" d="M426.4,130.14s-2.75-3.08-3-3.14-1-.54-2.22-1.22c-1.8,1.16-3.64,2.23-5.48,3.22l2.93,2.05,1.57.7.84,1.36,1.3,3.63,1.06,4.74,5.72-3.29-1.15-4Z" transform="translate(-225.11 -81.03)"/><path class="cls-2" d="M417.71,131.08a9,9,0,0,1,4.06,7v2.4l1.67,1v-2.41a12.66,12.66,0,0,0-5.73-9.92l-1.1-.63c-.57.32-1.15.63-1.73.94Z" transform="translate(-225.11 -81.03)"/><rect class="cls-2" x="553.82" y="184.29" width="4.82" height="10.4" transform="translate(829.52 -202.83) rotate(129.2)"/><path class="cls-2" d="M560,194.73a3.77,3.77,0,0,0,2.15-2.65c.18-1.07-.51-1.63-1.52-1.24a3.79,3.79,0,0,0-2.16,2.64C558.25,194.55,558.93,195.11,560,194.73Z" transform="translate(-225.11 -81.03)"/><rect class="cls-2" x="545.58" y="178.68" width="7.81" height="10.63" transform="translate(814.26 -206.58) rotate(129.2)"/><path class="cls-6" d="M555.05,185.42l2.73,2.23a6.22,6.22,0,0,1-3,3.73L552,189.16A6.25,6.25,0,0,1,555.05,185.42Z" transform="translate(-225.11 -81.03)"/><path class="cls-2" d="M553.1,190.5a6.08,6.08,0,0,0,3.49-4.28c.28-1.74-.83-2.64-2.47-2a6.08,6.08,0,0,0-3.49,4.28C550.34,190.23,551.45,191.13,553.1,190.5Z" transform="translate(-225.11 -81.03)"/><path class="cls-2" d="M544.86,183.78a6.08,6.08,0,0,0,3.49-4.28c.28-1.74-.82-2.64-2.47-2a6.08,6.08,0,0,0-3.49,4.28C542.11,183.51,543.21,184.41,544.86,183.78Z" transform="translate(-225.11 -81.03)"/><ellipse class="cls-5" cx="545.37" cy="180.64" rx="2.21" ry="1.28" transform="matrix(0.63, -0.77, 0.77, 0.63, -164.4, 408.08)"/><path class="cls-5" d="M560,191.67c.4.32.78.17.87-.33a1.81,1.81,0,0,0-.57-1.5c-.4-.32-.78-.17-.87.33A1.79,1.79,0,0,0,560,191.67Z" transform="translate(-225.11 -81.03)"/><path class="cls-2" d="M484.32,265.18a7.36,7.36,0,0,1-3.77-1.07l-9.17-5.44a.58.58,0,0,1-.2-.8.59.59,0,0,1,.8-.2l9.17,5.43a5.87,5.87,0,0,0,6.06.14,6.83,6.83,0,0,0,3.37-6c0-6-.65-13.44-1.35-21.33-2.19-24.59-4.66-52.47,10.85-56.44,6.86-1.76,12.11-3.62,16.32-5.11,12.12-4.31,16.66-5.92,29.19,5.73a.59.59,0,0,1,0,.83.59.59,0,0,1-.83,0c-12-11.17-16-9.74-28-5.49-4.24,1.5-9.5,3.37-16.42,5.14-14.55,3.72-12.12,31.08-10,55.21.7,7.91,1.37,15.38,1.35,21.43a8,8,0,0,1-3.95,7A7.06,7.06,0,0,1,484.32,265.18Z" transform="translate(-225.11 -81.03)"/><ellipse class="cls-1" cx="298.56" cy="182.68" rx="18.95" ry="10.94"/><path class="cls-3" d="M532.71,259a2.91,2.91,0,0,1,1.65,2.92,4.73,4.73,0,0,1-.24,1.43,2.41,2.41,0,0,1-3.23,1c-1.78-.7-5.72-4.41-5.87-6.84C524.75,253,529.9,257.83,532.71,259Z" transform="translate(-225.11 -81.03)"/><path class="cls-3" d="M522.27,266.48a12.92,12.92,0,0,1,.22,3.08,3.36,3.36,0,0,1-3.27,1.27c-1.83-.22-7.08-2-8.26-5.5-1.81-5.37,10.15.41,10.15.41Z" transform="translate(-225.11 -81.03)"/><path class="cls-3" d="M517.13,224.93l-.4,40.58a2.83,2.83,0,0,0,2.21,2.81,3.65,3.65,0,0,0,.49.06,2.52,2.52,0,0,0,2.41-1,3,3,0,0,0,.55-1.63l.51-17.33,2.59-15.48,3.58,27.41a2.37,2.37,0,0,0,1,1.8,2.77,2.77,0,0,0,1.63.45,3,3,0,0,0,2.17-1.07,2.14,2.14,0,0,0,.52-1.47L533,243.57l-.53-21Z" transform="translate(-225.11 -81.03)"/><path class="cls-11" d="M522.39,188.6l.64,3.7a1.7,1.7,0,0,1-1.38,1.61c-1.41.35-1.85-.56-1.85-.56l-.63-4.16Z" transform="translate(-225.11 -81.03)"/><ellipse class="cls-11" cx="518.64" cy="184.91" rx="5.36" ry="6.01" transform="translate(-206.46 334.49) rotate(-44.38)"/><path class="cls-2" d="M522.22,192.37c.1,0,6-3.83,8.15.14,3.54,6.46,3.34,27.25,2.22,29.94-1,2.49-3.62,4.33-5.44,5.37a10.89,10.89,0,0,1-5.27,1.5c-1.84,0-5.36-1.62-5.23-4,.59-11.05-.39-20.36-1.29-29.39C515.36,195.91,516.49,194.69,522.22,192.37Z" transform="translate(-225.11 -81.03)"/><path class="cls-3" d="M525.49,232.94l3.58,27.41a2.37,2.37,0,0,0,1,1.8l.31.18c-.75-.56-2.92-23.57-3.32-26.13S525.49,232.94,525.49,232.94Z" transform="translate(-225.11 -81.03)"/><polygon class="cls-11" points="278.32 112.56 275.12 102.09 276.81 101.39 280.57 109.59 278.32 112.56"/><polygon class="cls-11" points="310.52 104.31 308.12 93.42 306.22 93.44 306.93 102.47 310.52 104.31"/><path class="cls-2" d="M515.36,195.91s-5.74,1.14-9.39-5.54a.9.9,0,0,0-1.51-.16,4.64,4.64,0,0,0-1,3.73c1.77,6.53,11.42,8,13.16,11.76S515.36,195.91,515.36,195.91Z" transform="translate(-225.11 -81.03)"/><path class="cls-2" d="M526,191s4.55.35,5.2-3.58a30,30,0,0,0,.46-3.94.8.8,0,0,1,.89-.77c1.09.14,2.77.46,3,1.19.34,1.09,1,6.43-3.51,14.63C529.05,203.91,526,191,526,191Z" transform="translate(-225.11 -81.03)"/><path class="cls-11" d="M533.24,174.48l0-1.24a2.65,2.65,0,0,0-.38-1.25l-1.25-2.06-.33-.42a1,1,0,0,0-1.26-.21l-.29.18a1.18,1.18,0,0,0-.55,1.08l.65,1.77-.83-.16a.29.29,0,0,0-.34.24h0a.3.3,0,0,0,.18.32l1.34.54,1.22,1.73Z" transform="translate(-225.11 -81.03)"/><path class="cls-11" d="M500.18,183.18,499.8,182a2.57,2.57,0,0,1-.07-1.29l.48-2.38.17-.5a1,1,0,0,1,1.11-.63l.33.08a1.18,1.18,0,0,1,.89.83V180l.72-.43a.29.29,0,0,1,.4.1h0a.3.3,0,0,1-.05.37l-1.09,1-.63,2.29Z" transform="translate(-225.11 -81.03)"/><path class="cls-6" d="M518.05,203.82c.52,2.39-.95,20.91,3.83,25.5-1.84,0-5.36-1.62-5.23-4a147.36,147.36,0,0,0-.44-20.32c-1.87-2.43-7-4-10.25-7.08C506.19,198,517.53,201.46,518.05,203.82Z" transform="translate(-225.11 -81.03)"/><path class="cls-4" d="M524.34,191.33l-.82-.84a6.65,6.65,0,0,1-2.42,1.61,13.79,13.79,0,0,1-1.93.4l-.53,1.45S522.92,193.64,524.34,191.33Z" transform="translate(-225.11 -81.03)"/><path class="cls-10" d="M518.31,187a.7.7,0,0,1-.63,0c-.35-.18-.91-1.57-1.63-1.46-1.13.15-2.77,2.53-4.81-.78-1.06-1.72-.44-2.65-.95-3.63,0,0,.18.53,4.62-2.18s8.06.59,9.19,2.48S526,187,523,189.12c-.48.34-3.59-.27-3.66-.53s.77-.68.3-1.29A1,1,0,0,0,518.31,187Z" transform="translate(-225.11 -81.03)"/><polygon class="cls-1" points="28.22 251.7 18.79 246.25 28.22 240.8 37.66 246.25 28.22 251.7"/><polygon class="cls-12" points="37.66 240.07 28.22 245.52 28.22 234.63 37.66 229.18 37.66 240.07"/><polygon class="cls-10" points="28.22 234.63 18.79 229.18 28.22 223.73 37.66 229.18 28.22 234.63"/><polygon class="cls-10" points="28.22 245.52 18.79 240.07 18.79 229.18 28.22 234.63 28.22 245.52"/><polygon class="cls-1" points="28.22 76.25 18.79 70.8 28.22 65.36 37.66 70.8 28.22 76.25"/><polygon class="cls-3" points="37.66 64.62 28.22 70.07 28.22 59.18 37.66 53.73 37.66 64.62"/><polygon class="cls-5" points="28.22 59.18 18.79 53.73 28.22 48.28 37.66 53.73 28.22 59.18"/><polygon class="cls-2" points="28.22 70.07 18.79 64.62 18.79 53.73 28.22 59.18 28.22 70.07"/><polygon class="cls-1" points="179.87 259.5 170.43 254.06 179.87 248.61 189.3 254.06 179.87 259.5"/><polygon class="cls-3" points="189.3 247.88 179.87 253.32 179.87 242.43 189.3 236.98 189.3 247.88"/><polygon class="cls-5" points="179.87 242.43 170.43 236.98 179.87 231.54 189.3 236.98 179.87 242.43"/><polygon class="cls-2" points="179.87 253.32 170.43 247.88 170.43 236.98 179.87 242.43 179.87 253.32"/></svg>