<svg xmlns="http://www.w3.org/2000/svg" xmlns:xlink="http://www.w3.org/1999/xlink" viewBox="0 0 409.48 364.58"><defs><style>.cls-1,.cls-14,.cls-19{fill:none;}.cls-2{isolation:isolate;}.cls-3{opacity:0.3;}.cls-18,.cls-25,.cls-28,.cls-3,.cls-4{mix-blend-mode:multiply;}.cls-28,.cls-4{fill:#ccc;}.cls-5{fill:#7798d9;}.cls-6{fill:#121726;}.cls-7{fill:#1d2540;}.cls-8{fill:#2b448c;}.cls-9{fill:#3a5ea5;}.cls-10{clip-path:url(#clip-path);}.cls-11{fill:#f9caaa;}.cls-12{fill:#cadeff;}.cls-13{fill:#fff;}.cls-14{stroke:#546fbf;stroke-width:0.2px;}.cls-14,.cls-19{stroke-miterlimit:10;}.cls-15{fill:#d670a3;}.cls-16{fill:#e88bb5;}.cls-17{fill:#f49dc0;}.cls-18{fill:#999;opacity:0.1;}.cls-19{stroke:#6ae2cb;stroke-width:2px;}.cls-20{fill:#6ae2cb;}.cls-21{opacity:0.05;mix-blend-mode:hard-light;}.cls-22{fill:#fff8ff;}.cls-23{fill:#b3b3b3;}.cls-24{fill:#43c4ab;}.cls-25{opacity:0.15;}.cls-26{fill:gray;}.cls-27{fill:#2b3d89;}.cls-28{opacity:0.4;}.cls-29{fill:#eab794;}</style><clipPath id="clip-path" transform="translate(-146 -57.4)"><path class="cls-1" d="M450.09,187.92l-83.14-48a4.14,4.14,0,0,0-6.21,3.57l-.23,83.84a10.51,10.51,0,0,0,5.26,9.15l86.85,50.14a3.44,3.44,0,0,0,5.17-3l.24-81.92A15.91,15.91,0,0,0,450.09,187.92Z"/></clipPath></defs><g class="cls-2"><g id="OBJECTS"><g class="cls-3"><path class="cls-4" d="M493.94,344,374.77,413.19a9.46,9.46,0,0,1-9.5,0L168.42,298.61a9.48,9.48,0,0,1,0-16.4l120.45-70a9.49,9.49,0,0,1,9.5,0L493.32,335.44C498.5,338.35,498.17,341.42,493.94,344Z" transform="translate(-146 -57.4)"/></g><path class="cls-5" d="M496.2,333.68s-5.78.56-7.73-.48L288.65,216.77a9,9,0,0,0-9,0l-110,59.56c-7.7,5.36-6.08,16.59-.08,20L366,409.87a9,9,0,0,0,9,0L495,340.19c2.83-1.78,1.95-4.76,1.25-6.51Z" transform="translate(-146 -57.4)"/><path class="cls-6" d="M284.7,70.69l2.93,136a10.12,10.12,0,0,0,5,8.76L489,331.27c6.55,3.82,14.61-2.28,14.63-9.92L504,189a10,10,0,0,0-4.92-8.66L299.64,62.4C293,58.45,284.23,62.58,284.7,70.69Z" transform="translate(-146 -57.4)"/><path class="cls-7" d="M284.62,69.92l-.39,138.48a10.11,10.11,0,0,0,5,8.76l196.3,114.51a9.83,9.83,0,0,0,14.75-8.57l.37-132.37a10,10,0,0,0-4.91-8.67L295.63,63.73A7.25,7.25,0,0,0,284.62,69.92Z" transform="translate(-146 -57.4)"/><polygon class="cls-8" points="146.09 13.52 145.68 149.17 346.17 265.08 346.57 130.81 146.09 13.52"/><polygon class="cls-9" points="150.09 21.55 149.69 144.78 342.17 256.06 342.56 134.15 150.09 21.55"/><path class="cls-8" d="M379.66,221.65c-12.84-7.41-23.19-25.34-23.15-40.1s10.46-20.67,23.3-13.26S403,193.64,403,208.37s-10.49,20.69-23.31,13.28m5.72-69.18-11-6.36-1.57,8.94a22.51,22.51,0,0,0-10-1l-7.13-9.8-7.81,4.42,4.95,11.1a21.67,21.67,0,0,0-4.21,9.11L340,165.7l0,12.63,8.56,6.72A65,65,0,0,0,352.65,199l-5,5.33,7.76,13.45,7.15-1.57a66.72,66.72,0,0,0,10,10.56l1.52,10.73,11,6.36,1.55-9a22.58,22.58,0,0,0,10.06,1l7.12,9.81,7.82-4.45-4.95-11.07a22.1,22.1,0,0,0,4.21-9.11l8.54,3.15,0-12.63L411,204.9A65.65,65.65,0,0,0,406.83,191l5-5.36-7.76-13.42-7.15,1.56a66.9,66.9,0,0,0-10-10.56l-1.49-10.72" transform="translate(-146 -57.4)"/><path class="cls-8" d="M379.78,181.29c-6.58-3.8-11.91-.73-11.94,6.8s5.28,16.74,11.86,20.54,11.91.76,11.93-6.8-5.29-16.75-11.85-20.54" transform="translate(-146 -57.4)"/><g class="cls-10"><path class="cls-7" d="M395.81,187.31a6.69,6.69,0,0,1-1.34-2,18.8,18.8,0,0,1-1.19-2.81c-.51-1.58-.75-3.48.3-4.79a1.24,1.24,0,0,1,.7-.49,1.21,1.21,0,0,1,.65.07,3.4,3.4,0,0,1,.95.48c.35.25.44.55.81.19.54-.53,1.05-1.09,1.6-1.61,3.2-3.06,7.46-5.4,12-4.4.22,0,.44.1.66.16a2.57,2.57,0,0,1,1.52,1.1,2.19,2.19,0,0,0,1.45,1.14,21.77,21.77,0,0,1,2.88.64,8.76,8.76,0,0,1,4.84,3c.8,1.11.64,2.47.46,3.77.08-.6,1.52,0,1.7.18A6.66,6.66,0,0,1,426,185a5.42,5.42,0,0,1-.21,3.35c-.91,3.2-1.48,7.06-4,11.36-1.32,2.26-4.32,5.6-4.68,5.33C417.11,205,395.94,187.4,395.81,187.31Z" transform="translate(-146 -57.4)"/><path class="cls-11" d="M407.43,209a15.6,15.6,0,0,1-3.41.54c-11-1.07-9.36-13-9-19.59.13-2.37.05-5.4,1.92-7.17a2,2,0,0,1,.73-.48A2.74,2.74,0,0,1,400,183a17.14,17.14,0,0,0,4.88,2.38,18.36,18.36,0,0,0,5.33.35,3,3,0,0,1,2.84,1.48c.51,1.33-1.55,3.1-.37,4.32.74.75,1.54.93,1.87,2.08a7.74,7.74,0,0,1,.15,2.25.87.87,0,0,0,1.12.94c1.28-.4.84-2.44,1.25-3.41.53-1.24,1.48-1.6,2.87-1.64,3-.08,1.31,9.23-2.08,10.11,0,0-.51,4.5-1,9.76-.16,2-4.67,1.59-6.37,1.25-.68-.14-2.94-1-2.94-1.87S407.41,209,407.43,209Z" transform="translate(-146 -57.4)"/><path class="cls-5" d="M406.75,205.55c-.05-.44.35-.57.69-.69l1.48-.57a27.23,27.23,0,0,0,4.21-1.95,21,21,0,0,0,2.77-2c.43-.37.85-.75,1.26-1.13a6.82,6.82,0,0,1,1.18-1,.59.59,0,0,1,.82.25c.35.6-.38,1.16-.74,1.54a21.82,21.82,0,0,1-1.71,1.62,22.36,22.36,0,0,1-7.8,4.51,4.23,4.23,0,0,1-1.37.18.79.79,0,0,1-.76-.52A.63.63,0,0,1,406.75,205.55Z" transform="translate(-146 -57.4)"/><path class="cls-7" d="M402.41,207.35a1.73,1.73,0,0,0,2,1,9.3,9.3,0,0,0,3.07-1,1.67,1.67,0,0,0,.5-2.85,3,3,0,0,0-2.14-.18,14.6,14.6,0,0,0-2.26.55,2.73,2.73,0,0,0-.72.32,1.79,1.79,0,0,0-.53,1.84A1.89,1.89,0,0,0,402.41,207.35Z" transform="translate(-146 -57.4)"/><path class="cls-12" d="M418.53,192c1.61-.93,2.92-.18,2.93,1.67a6.44,6.44,0,0,1-2.92,5c-1.6.93-2.91.18-2.92-1.68a6.44,6.44,0,0,1,2.91-5" transform="translate(-146 -57.4)"/><polygon class="cls-12" points="273.39 143.17 270.58 141.52 274.61 134.36 277.52 136.06 273.39 143.17"/><path class="cls-12" d="M421.48,193.68c1.62-.94,2.93-.18,2.94,1.67a6.4,6.4,0,0,1-2.92,5c-1.6.93-2.91.19-2.92-1.67a6.45,6.45,0,0,1,2.9-5" transform="translate(-146 -57.4)"/><path class="cls-13" d="M421.49,193.87c1.52-.88,2.76-.17,2.76,1.57a6,6,0,0,1-2.75,4.76c-1.51.88-2.75.17-2.75-1.58a6,6,0,0,1,2.74-4.75" transform="translate(-146 -57.4)"/><path class="cls-14" d="M421.49,194.31c1.24-.75,2.25-.14,2.25,1.36a5.2,5.2,0,0,1-2.24,4.08c-1.23.76-2.24.15-2.24-1.35a5.25,5.25,0,0,1,2.23-4.09" transform="translate(-146 -57.4)"/><path class="cls-12" d="M417.36,195.05s1-7.18-1.74-11.13c-3.69-5.4-13.65-8.24-17.38-7.54a7.61,7.61,0,0,1,4.35-3.26,22.51,22.51,0,0,1,15.62,8.23c2.07,2.6,2.64,7.67,2.71,11.35Z" transform="translate(-146 -57.4)"/><path class="cls-15" d="M378.5,207.18s-4.95-.7-6.15,3.16C372.35,210.34,377.72,212.29,378.5,207.18Z" transform="translate(-146 -57.4)"/><path class="cls-11" d="M378.58,208.79a5.85,5.85,0,0,1-.21-5.47,13.85,13.85,0,0,0,.94-2.33c.12-.48.22-1.32-.19-1.7-1.05-1-2,1-2.3,1.66-.58,1.1-1.28-.4-1.51-.91a16.31,16.31,0,0,1-.84-2.53c-.17-.65-.22-1.6-1-1.81a.78.78,0,0,0-.92.45,3.36,3.36,0,0,0-.93-.62,1.16,1.16,0,0,0-1.07.1,1.54,1.54,0,0,0-.4,1.32,1.7,1.7,0,0,0-1.16-.1c-.55.18-.52,1.06-.47,1.65a.48.48,0,0,0-.41.34,3.71,3.71,0,0,0,0,1.33,12.38,12.38,0,0,0,1.49,4.7,29,29,0,0,0,4,6s.1.13.11.12l5.38-1.32Z" transform="translate(-146 -57.4)"/><path class="cls-16" d="M404.25,222.67l-.16-.27a28.17,28.17,0,0,1-1.79-4.47c-.4-1-1.07-2.76-2.41-2.66a3.26,3.26,0,0,0-1.51.67,43.26,43.26,0,0,0-5.4,4.82c-1,1-3.26,4.41-5,3.46a3.25,3.25,0,0,1-1-1c-2.09-2.9-8.43-16-8.43-16s-.07,1.49-2.62,2.58a7.64,7.64,0,0,1-3.53.58s4.85,15.18,8.14,22c1.27,2.62,2.94,4.93,6.13,4.89,2.92,0,5.62-1.8,7.95-3.39s4.44-3.41,6.62-5.17a13.32,13.32,0,0,0,3-2.87,3,3,0,0,0,.42-2.5A4.12,4.12,0,0,0,404.25,222.67Z" transform="translate(-146 -57.4)"/><path class="cls-15" d="M404.25,222.67l-.16-.27a28.17,28.17,0,0,1-1.79-4.47c-.4-1-1.07-2.76-2.41-2.66a3.26,3.26,0,0,0-1.51.67c-.47.34-.93.69-1.38,1.06-.35.57-.65,1.14-.92,1.66a58.33,58.33,0,0,0-2.81,7.72c-.89,2.67-2,5.5-4,7.54a7.3,7.3,0,0,1-6,2.21,5.24,5.24,0,0,0,3.39,1.13c2.92,0,5.62-1.8,7.95-3.39s4.44-3.41,6.62-5.17a13.32,13.32,0,0,0,3-2.87,3,3,0,0,0,.42-2.5A4.12,4.12,0,0,0,404.25,222.67Z" transform="translate(-146 -57.4)"/><path class="cls-17" d="M394,281.26a7.65,7.65,0,0,1-.4-2.37c-.22-11.94.39-24.12.77-36.14.27-8.69-1.64-20.57,4.44-27.5,6.85-7.8,23.26-3.69,28.05,4.94A29.64,29.64,0,0,1,430,233c.4,7.08-4.54,20.71-4.39,53.38,0,.44-3.08,1.59-3.41,1.72a28.08,28.08,0,0,1-9,2.14C407.07,290.66,396.17,288,394,281.26Z" transform="translate(-146 -57.4)"/><path class="cls-18" d="M430,233c-.07-1.27-.19-2.55-.37-3.81A16.9,16.9,0,0,0,427.1,228c-.24-.09-.5-.17-.76-.24a.25.25,0,0,0-.06-.22c-1.17-1.26-4.72-1.61-5.47.31a4,4,0,0,0-.18,1.58c.1,6.63.25,13.26-.09,19.89-.32,6.35-.81,13.29-3,19.33-1.16,3.24-3.09,6.25-6.24,7.77-3.39,1.63-7.3,1.81-11,1.6a39.8,39.8,0,0,1-6.79-1.05c0,.64,0,1.29,0,1.94a7.65,7.65,0,0,0,.4,2.37c2.21,6.75,13.11,9.4,19.31,9a28.08,28.08,0,0,0,9-2.14c.33-.13,3.41-1.28,3.41-1.72C425.5,253.74,430.44,240.11,430,233Z" transform="translate(-146 -57.4)"/><path class="cls-15" d="M410.11,211.11a10.2,10.2,0,0,1,.85,3.51s4.44-.33,7-1.7l-1-2.62S414.89,211.67,410.11,211.11Z" transform="translate(-146 -57.4)"/><path class="cls-16" d="M433.19,244.55l0-.27a85.17,85.17,0,0,0-2.63-12.95c-1-3.75-1.73-8.55-4-11.75-1.19-1.66-3.51-3.44-5.66-2.76s-2.54,2.91-2.66,4.77c-.19,3,.72,6.43,1.22,9.42,1.23,7.34,3.86,14.85,4,22.31a7.53,7.53,0,0,1-.13,1.35c-1.44,9.52-2.37,19.27-4.46,28.66a.68.68,0,0,0,.65.85,35.47,35.47,0,0,0,5.55.17c1-.05,3.26,0,4-.88a3.62,3.62,0,0,0,.57-1.68c.18-1.17.1-2.33.34-3.51.3-1.54.61-3.07.9-4.61.59-3.08,1.14-6.17,1.59-9.27A80.48,80.48,0,0,0,433.19,244.55Z" transform="translate(-146 -57.4)"/><path class="cls-15" d="M410.11,211.11a5.21,5.21,0,0,1-2.6-1.06l-1.59,1.35a15.37,15.37,0,0,0,1.85,2.25A10.22,10.22,0,0,1,410.11,211.11Z" transform="translate(-146 -57.4)"/></g><path class="cls-13" d="M370.28,177.34a1.26,1.26,0,0,1-.58-1l0-10.63c0-.37.27-.52.58-.33l13.43,7.75a1.28,1.28,0,0,1,.58,1l0,10.63c0,.36-.26.51-.58.33l-8-4.61a1.1,1.1,0,0,0-1.08-.11l-2.32,1.27V180.3a3.37,3.37,0,0,0-1.52-2.65l-.53-.31m13.47-5.3-13.43-7.75c-.85-.49-1.54-.09-1.54.88l0,10.63a3.35,3.35,0,0,0,1.53,2.64l.52.31a1.26,1.26,0,0,1,.58,1v1.46a2,2,0,0,0,.56,1.3,1.83,1.83,0,0,0,.36.29.68.68,0,0,0,.64.07l2.39-1.31a.41.41,0,0,1,.41,0l8,4.61c.84.48,1.53.09,1.53-.88l0-10.63a3.37,3.37,0,0,0-1.52-2.65" transform="translate(-146 -57.4)"/><path class="cls-13" d="M372.91,171.54c-.69-.4-1.25-.07-1.26.72a2.75,2.75,0,0,0,1.26,2.17c.69.4,1.25.08,1.25-.72a2.73,2.73,0,0,0-1.25-2.17" transform="translate(-146 -57.4)"/><path class="cls-13" d="M377,173.91c-.69-.4-1.25-.08-1.26.72A2.75,2.75,0,0,0,377,176.8c.69.4,1.26.08,1.26-.72a2.77,2.77,0,0,0-1.26-2.17" transform="translate(-146 -57.4)"/><path class="cls-13" d="M381.12,176.28c-.7-.4-1.26-.08-1.27.72a2.77,2.77,0,0,0,1.26,2.17c.69.4,1.26.08,1.26-.72a2.77,2.77,0,0,0-1.25-2.17" transform="translate(-146 -57.4)"/><path class="cls-19" d="M450.09,187.92l-83.14-48a4.14,4.14,0,0,0-6.21,3.57l-.23,83.84a10.51,10.51,0,0,0,5.26,9.15l86.85,50.14a3.44,3.44,0,0,0,5.17-3l.24-81.92A15.91,15.91,0,0,0,450.09,187.92Z" transform="translate(-146 -57.4)"/><path class="cls-17" d="M336.67,126.1c-6-3.45-10.84-.68-10.86,6.18s4.81,15.24,10.79,18.69,10.84.68,10.86-6.19S342.65,129.55,336.67,126.1Z" transform="translate(-146 -57.4)"/><path class="cls-13" d="M336.63,142.51c-1-.59-1.9-.1-1.9,1.09a4.19,4.19,0,0,0,1.88,3.26c1,.6,1.9.11,1.9-1.08a4.22,4.22,0,0,0-1.88-3.27m.27-12.16c-2.21-1.28-4.15-1.07-5,.78l2.74,3.39a1.35,1.35,0,0,1,2.16-.67,2.54,2.54,0,0,1,1.47,2.17c0,2-3.2,1.21-3.2,3.88l3.18,1.84c0-1.58,3.19-.79,3.2-4.2,0-3-2.25-5.88-4.52-7.19" transform="translate(-146 -57.4)"/><path class="cls-20" d="M336.67,194.68c-6-3.45-10.84-.68-10.86,6.19s4.81,15.23,10.79,18.68,10.84.69,10.86-6.18-4.81-15.24-10.79-18.69" transform="translate(-146 -57.4)"/><path class="cls-13" d="M336.62,211.37a8.16,8.16,0,0,1-3.69-6.39c0-2.34,1.67-3.29,3.72-2.11a8.16,8.16,0,0,1,3.69,6.39c0,2.35-1.67,3.29-3.72,2.11m.91-11-1.75-1-.25,1.42a3.64,3.64,0,0,0-1.6-.16L332.79,199l-1.24.7.79,1.77a3.48,3.48,0,0,0-.67,1.45l-1.37-.5v2l1.36,1.07a10.23,10.23,0,0,0,.66,2.22l-.8.85,1.24,2.14,1.14-.25a10.72,10.72,0,0,0,1.6,1.69l.24,1.7,1.75,1,.25-1.43a3.81,3.81,0,0,0,1.6.17l1.14,1.56,1.24-.71-.79-1.77a3.42,3.42,0,0,0,.67-1.45l1.37.5v-2l-1.36-1.07a10.56,10.56,0,0,0-.66-2.22l.8-.85-1.24-2.14-1.14.25a10.23,10.23,0,0,0-1.6-1.68l-.24-1.71" transform="translate(-146 -57.4)"/><path class="cls-13" d="M336.64,204.94c-1.05-.6-1.9-.12-1.9,1.09a4.17,4.17,0,0,0,1.89,3.27c1,.6,1.9.12,1.9-1.09a4.17,4.17,0,0,0-1.89-3.27" transform="translate(-146 -57.4)"/><ellipse class="cls-5" cx="336.64" cy="172.83" rx="8.84" ry="15.26" transform="translate(-187.26 135.15) rotate(-30.16)"/><path class="cls-13" d="M331.82,175l4-2,.27.45a1.74,1.74,0,0,0,.56.58.64.64,0,0,0,.57.08l.25-.14,3.95,6.53L331.82,175m-.45-1,0-8.51,3.86,6.59L331.37,174m10.51,6.09L338,173.68l3.9-2.12,0,8.53m-.34-10.21-9.78-5.65c-.44-.26-.83-.17-1,.16h0a1.05,1.05,0,0,0-.13.5l0,8.95a2.49,2.49,0,0,0,1.12,2l9.78,5.64a.87.87,0,0,0,.71.12h0l.13-.06,0,0a.47.47,0,0,0,.1-.1v0a.9.9,0,0,0,.16-.55l0-9a2.05,2.05,0,0,0-.11-.64h0a2.46,2.46,0,0,0-1-1.32" transform="translate(-146 -57.4)"/><polygon class="cls-7" points="150.04 36.23 342.51 147.51 342.56 134.15 150.09 21.55 150.04 36.23"/><path class="cls-6" d="M484.16,192.45,301.69,85.7a1.75,1.75,0,0,0-2.63,1.5v3.08a2.81,2.81,0,0,0,1.41,2.43L483,198.27a1.67,1.67,0,0,0,2.51-1.45v-1.95A2.81,2.81,0,0,0,484.16,192.45Z" transform="translate(-146 -57.4)"/><g class="cls-21"><polygon class="cls-13" points="171.51 28.4 146.01 40.19 145.71 137.58 264.39 82.73 171.51 28.4"/><polygon class="cls-13" points="279.87 91.78 150.13 151.75 174.08 165.59 303.66 105.7 279.87 91.78"/><polygon class="cls-13" points="319.14 114.76 189.66 174.6 283.14 228.65 346.36 199.43 346.57 130.81 319.14 114.76"/><polygon class="cls-13" points="322.68 251.5 346.24 240.61 346.31 215.66 298.73 237.66 322.68 251.5"/></g><path class="cls-12" d="M495.28,336.49,374.77,406a9,9,0,0,1-9,0L169.53,291.94a9,9,0,0,1,0-15.59l110.35-63.68a9,9,0,0,1,9,0l206.34,120A2.22,2.22,0,0,1,495.28,336.49Z" transform="translate(-146 -57.4)"/><path class="cls-22" d="M330.28,341.09l-30.12,17.83a2.43,2.43,0,0,1-2.42,0L245,328.48a2.42,2.42,0,0,1,0-4.19L273.86,308a2.43,2.43,0,0,1,2.42,0l54,32.1A.6.6,0,0,1,330.28,341.09Z" transform="translate(-146 -57.4)"/><path class="cls-5" d="M285.36,230.7l6.69,3.85a3.32,3.32,0,0,0,3,0l3.4-2c.83-.48.85-1.24,0-1.69l-6.7-3.83a3.27,3.27,0,0,0-2.94,0L285.43,229C284.6,229.49,284.57,230.24,285.36,230.7Z" transform="translate(-146 -57.4)"/><path class="cls-5" d="M297.16,237.48l6.76,3.9a3.35,3.35,0,0,0,3,0l3.41-2c.83-.48.85-1.25,0-1.72l-6.78-3.87a3.31,3.31,0,0,0-3,0l-3.4,1.95C296.38,236.26,296.35,237,297.16,237.48Z" transform="translate(-146 -57.4)"/><path class="cls-5" d="M309.1,244.35l6.84,3.94a3.33,3.33,0,0,0,3,0l3.42-2c.84-.49.85-1.26,0-1.73l-6.86-3.92a3.32,3.32,0,0,0-3,0l-3.41,2C308.3,243.11,308.28,243.88,309.1,244.35Z" transform="translate(-146 -57.4)"/><path class="cls-5" d="M321.18,251.3l6.93,4a3.34,3.34,0,0,0,3,0l3.43-2c.84-.49.85-1.27,0-1.75l-6.95-4a3.33,3.33,0,0,0-3,0l-3.42,2C320.37,250.05,320.35,250.83,321.18,251.3Z" transform="translate(-146 -57.4)"/><path class="cls-5" d="M333.41,258.34l7,4a3.35,3.35,0,0,0,3.05,0l3.45-2a.93.93,0,0,0,0-1.76l-7-4a3.34,3.34,0,0,0-3,0l-3.44,2A.93.93,0,0,0,333.41,258.34Z" transform="translate(-146 -57.4)"/><path class="cls-5" d="M345.79,265.47l7.11,4.08a3.38,3.38,0,0,0,3.08,0l3.45-2a1,1,0,0,0,0-1.79l-7.11-4.06a3.34,3.34,0,0,0-3.06,0l-3.45,2A.94.94,0,0,0,345.79,265.47Z" transform="translate(-146 -57.4)"/><path class="cls-5" d="M358.33,272.68l7.19,4.14a3.41,3.41,0,0,0,3.11,0l3.46-2.05c.85-.5.83-1.31,0-1.81l-7.21-4.12a3.38,3.38,0,0,0-3.08,0l-3.46,2A1,1,0,0,0,358.33,272.68Z" transform="translate(-146 -57.4)"/><path class="cls-5" d="M371,280l7.29,4.19a3.4,3.4,0,0,0,3.12,0l3.48-2.07c.85-.51.83-1.33-.05-1.83l-7.29-4.17a3.41,3.41,0,0,0-3.11,0L371,278.16A1,1,0,0,0,371,280Z" transform="translate(-146 -57.4)"/><path class="cls-5" d="M383.88,287.38l7.37,4.24a3.42,3.42,0,0,0,3.16,0l3.48-2.09c.85-.52.82-1.34-.06-1.85l-7.39-4.22a3.42,3.42,0,0,0-3.13,0l-3.48,2.08C383,286.05,383,286.87,383.88,287.38Z" transform="translate(-146 -57.4)"/><path class="cls-5" d="M396.89,294.86l7.47,4.3a3.44,3.44,0,0,0,3.18,0L411,297c.85-.51.82-1.35-.08-1.86l-7.48-4.28a3.42,3.42,0,0,0-3.16,0l-3.49,2.1C396,293.52,396,294.35,396.89,294.86Z" transform="translate(-146 -57.4)"/><path class="cls-5" d="M410.07,302.45l7.57,4.35a3.48,3.48,0,0,0,3.2,0l3.51-2.14c.86-.52.82-1.36-.09-1.88l-7.58-4.33a3.44,3.44,0,0,0-3.18,0l-3.5,2.12C409.14,301.09,409.17,301.93,410.07,302.45Z" transform="translate(-146 -57.4)"/><path class="cls-5" d="M423.42,310.13l7.67,4.41a3.48,3.48,0,0,0,3.23,0l3.51-2.16c.87-.52.82-1.38-.11-1.9l-7.67-4.39a3.5,3.5,0,0,0-3.21,0l-3.51,2.14C422.47,308.75,422.51,309.6,423.42,310.13Z" transform="translate(-146 -57.4)"/><path class="cls-5" d="M437,317.91l7.76,4.47a3.54,3.54,0,0,0,3.26,0l3.52-2.18c.87-.53.81-1.39-.12-1.93l-7.78-4.44a3.48,3.48,0,0,0-3.23,0L436.84,316C436,316.52,436,317.38,437,317.91Z" transform="translate(-146 -57.4)"/><path class="cls-5" d="M465.19,326.17l-7.88-4.5a3.51,3.51,0,0,0-3.26,0l-3.53,2.18c-.86.53-.81,1.4.13,1.94l7.86,4.52a3.49,3.49,0,0,0,3.28,0l3.54-2.19C466.2,327.59,466.13,326.71,465.19,326.17Z" transform="translate(-146 -57.4)"/><path class="cls-5" d="M274.24,237.46l6.13,3.57a4.09,4.09,0,0,0,3.7,0l6.18-3.54c1-.59,1.08-1.55.08-2.12l-6.15-3.54a4.08,4.08,0,0,0-3.68,0l-6.17,3.52C273.29,235.93,273.25,236.88,274.24,237.46Z" transform="translate(-146 -57.4)"/><path class="cls-5" d="M301.73,241.9l-6.22-3.58a4.09,4.09,0,0,0-3.7,0l-6.18,3.55c-1.05.6-1.09,1.55-.09,2.14l6.21,3.61a4.12,4.12,0,0,0,3.73,0l6.19-3.57C302.72,243.45,302.75,242.48,301.73,241.9Z" transform="translate(-146 -57.4)"/><path class="cls-5" d="M313.28,248.55l-6.3-3.62a4.12,4.12,0,0,0-3.73,0l-6.2,3.57c-1.05.61-1.08,1.58-.07,2.17l6.28,3.65a4.15,4.15,0,0,0,3.76,0l6.21-3.6C314.28,250.11,314.3,249.14,313.28,248.55Z" transform="translate(-146 -57.4)"/><path class="cls-5" d="M279.71,254.07l6.22,3.66a4.1,4.1,0,0,0,3.75,0l6.24-3.61c1.05-.61,1.08-1.58.07-2.17l-6.24-3.64a4.12,4.12,0,0,0-3.73,0l-6.22,3.58C278.74,252.51,278.7,253.48,279.71,254.07Z" transform="translate(-146 -57.4)"/><path class="cls-5" d="M262.69,244.05l11.41,6.71a4.1,4.1,0,0,0,3.72,0l6.22-3.58c1-.6,1.09-1.56.08-2.15l-11.43-6.67a4.1,4.1,0,0,0-3.69,0l-6.2,3.53C261.75,242.51,261.7,243.46,262.69,244.05Z" transform="translate(-146 -57.4)"/><path class="cls-5" d="M307.54,258.66,301.23,255a4.13,4.13,0,0,0-3.75,0l-6.25,3.61c-1.06.61-1.09,1.59-.07,2.19l6.29,3.71a4.16,4.16,0,0,0,3.78,0l6.26-3.64C308.54,260.25,308.57,259.26,307.54,258.66Z" transform="translate(-146 -57.4)"/><path class="cls-5" d="M319.23,265.48l-6.39-3.72a4.13,4.13,0,0,0-3.78,0l-6.26,3.64c-1.06.62-1.09,1.61-.06,2.21l6.37,3.75a4.09,4.09,0,0,0,3.8,0l6.28-3.66C320.25,267.08,320.27,266.08,319.23,265.48Z" transform="translate(-146 -57.4)"/><path class="cls-5" d="M331.06,272.37l-6.46-3.76a4.16,4.16,0,0,0-3.81,0l-6.29,3.67c-1.06.62-1.08,1.62,0,2.24l6.44,3.79a4.2,4.2,0,0,0,3.84,0l6.3-3.7A1.2,1.2,0,0,0,331.06,272.37Z" transform="translate(-146 -57.4)"/><path class="cls-5" d="M343,279.35l-6.54-3.81a4.17,4.17,0,0,0-3.84,0l-6.3,3.7a1.2,1.2,0,0,0,0,2.26l6.52,3.84a4.18,4.18,0,0,0,3.86,0l6.32-3.73A1.21,1.21,0,0,0,343,279.35Z" transform="translate(-146 -57.4)"/><path class="cls-5" d="M355.14,286.41l-6.62-3.85a4.2,4.2,0,0,0-3.87,0l-6.32,3.74a1.21,1.21,0,0,0,0,2.28l6.6,3.89a4.23,4.23,0,0,0,3.9,0l6.33-3.77A1.22,1.22,0,0,0,355.14,286.41Z" transform="translate(-146 -57.4)"/><path class="cls-5" d="M367.4,293.56l-6.7-3.9a4.23,4.23,0,0,0-3.9,0l-6.34,3.77a1.23,1.23,0,0,0,0,2.31l6.68,3.93a4.21,4.21,0,0,0,3.92,0l6.36-3.8A1.23,1.23,0,0,0,367.4,293.56Z" transform="translate(-146 -57.4)"/><path class="cls-5" d="M379.81,300.79l-6.78-4a4.26,4.26,0,0,0-3.93,0l-6.36,3.81a1.24,1.24,0,0,0,0,2.33l6.76,4a4.24,4.24,0,0,0,4,0l6.38-3.84C380.93,302.49,380.91,301.44,379.81,300.79Z" transform="translate(-146 -57.4)"/><path class="cls-5" d="M375.21,310.32l6.85,4a4.25,4.25,0,0,0,4,0l6.4-3.87c1.08-.65,1-1.71-.07-2.36l-6.86-4a4.26,4.26,0,0,0-4,0L375.17,308A1.26,1.26,0,0,0,375.21,310.32Z" transform="translate(-146 -57.4)"/><path class="cls-5" d="M405.17,317.92c1.08-.66,1-1.73-.09-2.39l-6.94-4a4.33,4.33,0,0,0-4,0l-6.4,3.88c-1.08.65-1.06,1.72.06,2.38l6.93,4.08a4.3,4.3,0,0,0,4,0Z" transform="translate(-146 -57.4)"/><path class="cls-5" d="M418.06,325.45c1.09-.67,1-1.75-.11-2.41l-7-4.1a4.3,4.3,0,0,0-4,0l-6.41,3.91c-1.09.67-1.05,1.74.08,2.41l7,4.13a4.28,4.28,0,0,0,4,0Z" transform="translate(-146 -57.4)"/><path class="cls-5" d="M413.48,332.86l7.11,4.18a4.31,4.31,0,0,0,4.07,0l6.46-4c1.09-.67,1-1.76-.13-2.44l-7.12-4.15a4.33,4.33,0,0,0-4.05,0l-6.44,3.94C412.29,331.09,412.34,332.18,413.48,332.86Z" transform="translate(-146 -57.4)"/><path class="cls-5" d="M271.06,260.33c-1.06.61-1.11,1.59-.11,2.19l6.22,3.7a4.06,4.06,0,0,0,3.76,0l6.28-3.63c1.07-.62,1.1-1.6.09-2.2l-6.24-3.68a4.11,4.11,0,0,0-3.74,0Z" transform="translate(-146 -57.4)"/><path class="cls-5" d="M251.08,250.67l14.43,8.6a4.08,4.08,0,0,0,3.74,0l6.26-3.6c1.06-.61,1.1-1.58.09-2.17l-14.47-8.54a4,4,0,0,0-3.69,0l-6.23,3.55C250.15,249.12,250.09,250.08,251.08,250.67Z" transform="translate(-146 -57.4)"/><path class="cls-5" d="M282.49,267.13c-1.07.61-1.11,1.6-.09,2.21l6.29,3.75a4.12,4.12,0,0,0,3.79,0l6.3-3.67c1.07-.61,1.09-1.61.07-2.21l-6.31-3.73a4.11,4.11,0,0,0-3.77,0Z" transform="translate(-146 -57.4)"/><path class="cls-5" d="M294,276.24l6.37,3.8a4.16,4.16,0,0,0,3.82,0l6.32-3.7c1.06-.62,1.08-1.63.05-2.24l-6.39-3.76a4.12,4.12,0,0,0-3.79,0L294.05,274C293,274.63,293,275.63,294,276.24Z" transform="translate(-146 -57.4)"/><path class="cls-5" d="M305.7,283.23l6.44,3.84a4.16,4.16,0,0,0,3.85,0l6.34-3.73c1.07-.63,1.09-1.64,0-2.26l-6.46-3.81a4.16,4.16,0,0,0-3.82,0L305.76,281C304.69,281.59,304.66,282.6,305.7,283.23Z" transform="translate(-146 -57.4)"/><path class="cls-5" d="M317.56,290.29l6.52,3.89a4.19,4.19,0,0,0,3.88,0l6.36-3.76a1.22,1.22,0,0,0,0-2.29l-6.54-3.86a4.19,4.19,0,0,0-3.85,0L317.6,288A1.22,1.22,0,0,0,317.56,290.29Z" transform="translate(-146 -57.4)"/><path class="cls-5" d="M329.57,297.45l6.6,3.93a4.2,4.2,0,0,0,3.9,0l6.38-3.8a1.23,1.23,0,0,0,0-2.31l-6.62-3.91a4.22,4.22,0,0,0-3.88,0l-6.36,3.77A1.23,1.23,0,0,0,329.57,297.45Z" transform="translate(-146 -57.4)"/><path class="cls-5" d="M341.71,304.69l6.69,4a4.2,4.2,0,0,0,3.93,0l6.4-3.83a1.25,1.25,0,0,0,0-2.34l-6.7-3.95a4.22,4.22,0,0,0-3.91,0l-6.38,3.81A1.24,1.24,0,0,0,341.71,304.69Z" transform="translate(-146 -57.4)"/><path class="cls-5" d="M354,312l6.77,4a4.26,4.26,0,0,0,4,0l6.42-3.87a1.26,1.26,0,0,0,0-2.36l-6.78-4a4.25,4.25,0,0,0-3.94,0l-6.4,3.84A1.26,1.26,0,0,0,354,312Z" transform="translate(-146 -57.4)"/><path class="cls-5" d="M366.46,319.44l6.85,4.08a4.27,4.27,0,0,0,4,0l6.44-3.9c1.09-.66,1.06-1.73-.06-2.39l-6.86-4.05a4.28,4.28,0,0,0-4,0l-6.42,3.87A1.28,1.28,0,0,0,366.46,319.44Z" transform="translate(-146 -57.4)"/><path class="cls-5" d="M379.06,327l6.94,4.13a4.3,4.3,0,0,0,4,0l6.46-3.94c1.09-.67,1-1.75-.08-2.42l-6.95-4.09a4.26,4.26,0,0,0-4,0L379,324.54A1.29,1.29,0,0,0,379.06,327Z" transform="translate(-146 -57.4)"/><path class="cls-5" d="M402.9,338.75l6.48-4c1.09-.67,1.05-1.76-.1-2.44l-7-4.15a4.34,4.34,0,0,0-4,0l-6.46,3.95a1.3,1.3,0,0,0,.07,2.43l7,4.18A4.3,4.3,0,0,0,402.9,338.75Z" transform="translate(-146 -57.4)"/><path class="cls-5" d="M432.12,345.81l-16.77-9.9a4.32,4.32,0,0,0-4.06,0l-6.48,4c-1.1.68-1.06,1.78.09,2.46l16.73,10a4.37,4.37,0,0,0,4.11,0l6.52-4C433.35,347.61,433.3,346.5,432.12,345.81Z" transform="translate(-146 -57.4)"/><path class="cls-5" d="M265.15,272.86l6.24,3.76a4.07,4.07,0,0,0,3.78,0l6.33-3.67c1.06-.62,1.1-1.62.09-2.23L275.33,267a4.12,4.12,0,0,0-3.76,0l-6.31,3.65C264.19,271.26,264.14,272.26,265.15,272.86Z" transform="translate(-146 -57.4)"/><path class="cls-5" d="M244.15,262.53l-7.29-4.4a2.66,2.66,0,0,0-2.44,0l-9.26,5.28c-.7.4-.75,1-.11,1.43l7.27,4.45a2.65,2.65,0,0,0,2.45,0l9.29-5.32C244.76,263.57,244.8,262.93,244.15,262.53Z" transform="translate(-146 -57.4)"/><path class="cls-5" d="M255.44,269.36l-7.37-4.46a2.7,2.7,0,0,0-2.46,0l-9.29,5.32c-.7.41-.75,1.06-.1,1.46l7.35,4.49a2.66,2.66,0,0,0,2.47,0l9.32-5.37C256.06,270.41,256.1,269.76,255.44,269.36Z" transform="translate(-146 -57.4)"/><path class="cls-5" d="M266.87,276.26l-7.46-4.5a2.68,2.68,0,0,0-2.48,0l-9.32,5.37c-.7.41-.74,1.07-.09,1.47l7.44,4.55a2.7,2.7,0,0,0,2.49,0l9.34-5.42C267.5,277.32,267.53,276.67,266.87,276.26Z" transform="translate(-146 -57.4)"/><path class="cls-5" d="M281.09,284.86l-10.21-6.17a2.67,2.67,0,0,0-2.49,0L259,284.12c-.71.41-.75,1.07-.08,1.48l10.18,6.23a2.69,2.69,0,0,0,2.51,0l9.38-5.47C281.74,285.93,281.76,285.27,281.09,284.86Z" transform="translate(-146 -57.4)"/><path class="cls-5" d="M356.76,330.59l-11-6.66a2.8,2.8,0,0,0-2.61,0l-9.54,5.73a.86.86,0,0,0,0,1.59l11,6.71a2.78,2.78,0,0,0,2.64,0l9.56-5.79A.85.85,0,0,0,356.76,330.59Z" transform="translate(-146 -57.4)"/><path class="cls-5" d="M369.49,338.28l-8.14-4.92a2.79,2.79,0,0,0-2.63,0l-9.57,5.8a.86.86,0,0,0,0,1.6l8.11,5a2.82,2.82,0,0,0,2.66,0l9.6-5.85A.87.87,0,0,0,369.49,338.28Z" transform="translate(-146 -57.4)"/><path class="cls-5" d="M376.29,349.85l-8.23-5a2.8,2.8,0,0,0-2.65,0L361.92,347a.87.87,0,0,0,0,1.62l8.22,5a2.83,2.83,0,0,0,2.68,0l3.49-2.14A.88.88,0,0,0,376.29,349.85Z" transform="translate(-146 -57.4)"/><path class="cls-5" d="M402.42,365.73,394,360.6a2.81,2.81,0,0,0-2.7,0l-3.52,2.17c-.73.45-.71,1.19.05,1.66l8.42,5.15a2.83,2.83,0,0,0,2.72,0l3.52-2.18A.9.9,0,0,0,402.42,365.73Z" transform="translate(-146 -57.4)"/><path class="cls-5" d="M389.27,357.74l-8.33-5.07a2.8,2.8,0,0,0-2.68,0l-3.5,2.14a.89.89,0,0,0,0,1.65l8.32,5.08a2.81,2.81,0,0,0,2.7,0l3.51-2.16A.89.89,0,0,0,389.27,357.74Z" transform="translate(-146 -57.4)"/><path class="cls-5" d="M381.62,352.25l8.33,5.07a2.87,2.87,0,0,0,2.7,0l3.5-2.16c.73-.45.7-1.18,0-1.64l-8.35-5a2.8,2.8,0,0,0-2.68,0l-3.49,2.14A.88.88,0,0,0,381.62,352.25Z" transform="translate(-146 -57.4)"/><path class="cls-5" d="M340.86,321l-55.75-33.69a2.69,2.69,0,0,0-2.51,0l-9.39,5.48c-.71.41-.74,1.08-.06,1.5l55.56,34a2.77,2.77,0,0,0,2.61,0l9.53-5.72A.84.84,0,0,0,340.86,321Z" transform="translate(-146 -57.4)"/><path class="cls-5" d="M239.4,257.33l19.81,11.95a4.1,4.1,0,0,0,3.75,0l6.3-3.64c1.07-.61,1.11-1.6.11-2.2l-19.86-11.85a4,4,0,0,0-3.7,0l-6.26,3.57C238.49,255.77,238.42,256.74,239.4,257.33Z" transform="translate(-146 -57.4)"/><path class="cls-5" d="M276.63,279.79l6.31,3.8a4.11,4.11,0,0,0,3.81,0l6.35-3.7c1.07-.63,1.1-1.63.07-2.25l-6.33-3.78a4.1,4.1,0,0,0-3.78,0l-6.33,3.68C275.65,278.17,275.61,279.17,276.63,279.79Z" transform="translate(-146 -57.4)"/><path class="cls-5" d="M288.25,286.79l6.38,3.85a4.11,4.11,0,0,0,3.84,0l6.37-3.73c1.07-.63,1.1-1.65.06-2.27l-6.41-3.82a4.13,4.13,0,0,0-3.81,0l-6.35,3.71C287.25,285.16,287.21,286.17,288.25,286.79Z" transform="translate(-146 -57.4)"/><path class="cls-5" d="M300,293.88l6.47,3.9a4.12,4.12,0,0,0,3.86,0l6.39-3.77a1.22,1.22,0,0,0,0-2.29l-6.48-3.87a4.17,4.17,0,0,0-3.84,0l-6.37,3.74C299,292.23,299,293.25,300,293.88Z" transform="translate(-146 -57.4)"/><path class="cls-5" d="M311.9,301.06l6.54,3.94a4.17,4.17,0,0,0,3.9,0l6.41-3.8a1.24,1.24,0,0,0,0-2.32L322.21,295a4.17,4.17,0,0,0-3.87,0L312,298.75C310.87,299.39,310.84,300.42,311.9,301.06Z" transform="translate(-146 -57.4)"/><path class="cls-5" d="M323.94,308.32l6.62,4a4.2,4.2,0,0,0,3.93,0l6.43-3.83a1.26,1.26,0,0,0,0-2.35l-6.64-4a4.17,4.17,0,0,0-3.9,0L324,306A1.25,1.25,0,0,0,323.94,308.32Z" transform="translate(-146 -57.4)"/><path class="cls-5" d="M336.13,315.67l6.71,4a4.22,4.22,0,0,0,4,0l6.45-3.87a1.27,1.27,0,0,0,0-2.37l-6.73-4a4.2,4.2,0,0,0-3.93,0l-6.42,3.84A1.26,1.26,0,0,0,336.13,315.67Z" transform="translate(-146 -57.4)"/><path class="cls-5" d="M348.47,323.11l6.79,4.1a4.22,4.22,0,0,0,4,0l6.47-3.91a1.28,1.28,0,0,0,0-2.39l-6.8-4.06a4.21,4.21,0,0,0-4,0l-6.45,3.88A1.27,1.27,0,0,0,348.47,323.11Z" transform="translate(-146 -57.4)"/><path class="cls-5" d="M361,330.65l6.87,4.14a4.24,4.24,0,0,0,4,0l6.49-3.94a1.3,1.3,0,0,0,0-2.42l-6.89-4.11a4.24,4.24,0,0,0-4,0l-6.47,3.91A1.3,1.3,0,0,0,361,330.65Z" transform="translate(-146 -57.4)"/><path class="cls-5" d="M391.05,336.06l-7-4.16a4.24,4.24,0,0,0-4,0l-6.49,3.95a1.3,1.3,0,0,0,0,2.43l7,4.2a4.3,4.3,0,0,0,4.05,0l6.5-4C392.22,337.83,392.19,336.74,391.05,336.06Z" transform="translate(-146 -57.4)"/><path class="cls-5" d="M420.29,353.51l-23.37-13.95a4.32,4.32,0,0,0-4.06,0l-6.51,4c-1.1.68-1.07,1.78.07,2.47l23.31,14.06a4.38,4.38,0,0,0,4.13,0l6.55-4.07C421.51,355.33,421.46,354.21,420.29,353.51Z" transform="translate(-146 -57.4)"/><path class="cls-5" d="M444.18,338.33l-7.2-4.21a4.41,4.41,0,0,0-4.09,0l-6.45,4c-1.09.67-1,1.78.12,2.46l7.19,4.24a4.37,4.37,0,0,0,4.11,0l6.47-4C445.43,340.12,445.36,339,444.18,338.33Z" transform="translate(-146 -57.4)"/><path class="cls-5" d="M325,255.28l-6.36-3.67a4.17,4.17,0,0,0-3.77,0l-6.21,3.61c-1.06.61-1.08,1.59-.05,2.18l6.34,3.7a4.15,4.15,0,0,0,3.79,0l6.24-3.63C326,256.86,326,255.88,325,255.28Z" transform="translate(-146 -57.4)"/><path class="cls-5" d="M336.77,262.09l-6.44-3.71a4.18,4.18,0,0,0-3.79,0L320.3,262c-1.06.62-1.07,1.6,0,2.21l6.42,3.74a4.16,4.16,0,0,0,3.81,0l6.26-3.67A1.17,1.17,0,0,0,336.77,262.09Z" transform="translate(-146 -57.4)"/><path class="cls-5" d="M348.73,269l-6.52-3.76a4.22,4.22,0,0,0-3.82,0l-6.26,3.66c-1.06.63-1.07,1.62,0,2.24l6.51,3.78a4.17,4.17,0,0,0,3.84,0l6.27-3.69A1.19,1.19,0,0,0,348.73,269Z" transform="translate(-146 -57.4)"/><path class="cls-5" d="M360.83,276l-6.6-3.8a4.25,4.25,0,0,0-3.85,0l-6.27,3.7a1.2,1.2,0,0,0,0,2.26l6.58,3.83a4.23,4.23,0,0,0,3.87,0l6.29-3.73A1.2,1.2,0,0,0,360.83,276Z" transform="translate(-146 -57.4)"/><path class="cls-5" d="M373.07,283l-6.67-3.85a4.25,4.25,0,0,0-3.88,0l-6.3,3.73a1.21,1.21,0,0,0,0,2.28l6.66,3.88a4.23,4.23,0,0,0,3.9,0l6.31-3.76A1.21,1.21,0,0,0,373.07,283Z" transform="translate(-146 -57.4)"/><path class="cls-5" d="M385.46,290.15l-6.75-3.89a4.25,4.25,0,0,0-3.91,0L368.49,290a1.22,1.22,0,0,0,0,2.3l6.74,3.92a4.23,4.23,0,0,0,3.93,0l6.33-3.79C386.59,291.82,386.57,290.78,385.46,290.15Z" transform="translate(-146 -57.4)"/><path class="cls-5" d="M398,297.38l-6.84-3.94a4.25,4.25,0,0,0-3.94,0l-6.33,3.8c-1.07.64-1,1.68.06,2.33l6.82,4a4.29,4.29,0,0,0,4,0l6.35-3.83C399.16,299.07,399.12,298,398,297.38Z" transform="translate(-146 -57.4)"/><path class="cls-5" d="M410.71,304.7l-6.92-4a4.28,4.28,0,0,0-4,0l-6.35,3.84c-1.08.65-1.05,1.7.07,2.35l6.91,4a4.27,4.27,0,0,0,4,0l6.37-3.87C411.88,306.4,411.84,305.35,410.71,304.7Z" transform="translate(-146 -57.4)"/><path class="cls-5" d="M413.27,318.39a4.33,4.33,0,0,0,4,0l6.39-3.9c1.08-.66,1-1.73-.12-2.39l-7-4a4.32,4.32,0,0,0-4,0l-6.37,3.87c-1.08.65-1,1.72.09,2.38Z" transform="translate(-146 -57.4)"/><path class="cls-5" d="M436.58,319.6l-7.1-4.09a4.33,4.33,0,0,0-4,0l-6.39,3.91c-1.09.66-1,1.74.11,2.4l7.08,4.13a4.33,4.33,0,0,0,4.05,0l6.41-3.94C437.8,321.35,437.74,320.27,436.58,319.6Z" transform="translate(-146 -57.4)"/><path class="cls-5" d="M457.25,331.51l-15.11-8.71a2.82,2.82,0,0,0-2.59,0l-7.83,4.82c-.7.43-.66,1.12.08,1.55L446.88,338a2.79,2.79,0,0,0,2.62,0l7.86-4.88C458.05,332.65,458,332,457.25,331.51Z" transform="translate(-146 -57.4)"/><path class="cls-22" d="M285.36,230.18l6.69,3.85a3.28,3.28,0,0,0,3,0l3.4-1.94c.83-.48.85-1.24,0-1.7l-6.7-3.83a3.31,3.31,0,0,0-2.94,0l-3.39,1.94C284.6,229,284.57,229.73,285.36,230.18Z" transform="translate(-146 -57.4)"/><path class="cls-22" d="M297.16,237l6.76,3.89a3.32,3.32,0,0,0,3,0l3.41-2c.83-.48.85-1.24,0-1.71l-6.78-3.87a3.27,3.27,0,0,0-3,0l-3.4,2C296.38,235.74,296.35,236.51,297.16,237Z" transform="translate(-146 -57.4)"/><path class="cls-22" d="M309.1,243.84l6.84,3.94a3.33,3.33,0,0,0,3,0l3.42-2c.84-.48.85-1.26,0-1.73l-6.86-3.92a3.32,3.32,0,0,0-3,0l-3.41,2C308.3,242.6,308.28,243.37,309.1,243.84Z" transform="translate(-146 -57.4)"/><path class="cls-22" d="M321.18,250.79l6.93,4a3.34,3.34,0,0,0,3,0l3.43-2c.84-.49.85-1.27,0-1.75l-6.95-4a3.36,3.36,0,0,0-3,0l-3.42,2C320.37,249.54,320.35,250.32,321.18,250.79Z" transform="translate(-146 -57.4)"/><path class="cls-22" d="M333.41,257.83l7,4a3.38,3.38,0,0,0,3.05,0l3.45-2a.93.93,0,0,0,0-1.77l-7-4a3.34,3.34,0,0,0-3,0l-3.44,2A.93.93,0,0,0,333.41,257.83Z" transform="translate(-146 -57.4)"/><path class="cls-22" d="M345.79,265,352.9,269a3.38,3.38,0,0,0,3.08,0l3.45-2a1,1,0,0,0,0-1.79l-7.11-4.07a3.4,3.4,0,0,0-3.06,0l-3.45,2A.94.94,0,0,0,345.79,265Z" transform="translate(-146 -57.4)"/><path class="cls-22" d="M358.33,272.16l7.19,4.14a3.41,3.41,0,0,0,3.11,0l3.46-2.06c.85-.5.83-1.31,0-1.8l-7.21-4.12a3.38,3.38,0,0,0-3.08,0l-3.46,2A1,1,0,0,0,358.33,272.16Z" transform="translate(-146 -57.4)"/><path class="cls-22" d="M371,279.47l7.29,4.19a3.4,3.4,0,0,0,3.12,0l3.48-2.08c.85-.51.83-1.32-.05-1.82l-7.29-4.17a3.41,3.41,0,0,0-3.11,0L371,277.65C370.14,278.15,370.16,279,371,279.47Z" transform="translate(-146 -57.4)"/><path class="cls-22" d="M383.88,286.86l7.37,4.25a3.48,3.48,0,0,0,3.16,0l3.48-2.1c.85-.51.82-1.34-.06-1.84l-7.39-4.23a3.42,3.42,0,0,0-3.13,0L383.83,285C383,285.53,383,286.36,383.88,286.86Z" transform="translate(-146 -57.4)"/><path class="cls-22" d="M396.89,294.35l7.47,4.3a3.47,3.47,0,0,0,3.18,0l3.5-2.11c.85-.52.82-1.35-.08-1.87l-7.48-4.27a3.45,3.45,0,0,0-3.16,0l-3.49,2.1C396,293,396,293.84,396.89,294.35Z" transform="translate(-146 -57.4)"/><path class="cls-22" d="M410.07,301.93l7.57,4.36a3.45,3.45,0,0,0,3.2,0l3.51-2.13c.86-.52.82-1.37-.09-1.89l-7.58-4.33a3.46,3.46,0,0,0-3.18,0l-3.5,2.12C409.14,300.57,409.17,301.42,410.07,301.93Z" transform="translate(-146 -57.4)"/><path class="cls-22" d="M423.42,309.61l7.67,4.41a3.48,3.48,0,0,0,3.23,0l3.51-2.15c.87-.53.82-1.38-.11-1.91l-7.67-4.39a3.47,3.47,0,0,0-3.21,0l-3.51,2.13C422.47,308.24,422.51,309.09,423.42,309.61Z" transform="translate(-146 -57.4)"/><path class="cls-22" d="M437,317.39l7.76,4.47a3.51,3.51,0,0,0,3.26,0l3.52-2.18c.87-.53.81-1.4-.12-1.93l-7.78-4.44a3.48,3.48,0,0,0-3.23,0l-3.52,2.15C436,316,436,316.86,437,317.39Z" transform="translate(-146 -57.4)"/><path class="cls-22" d="M465.19,325.66l-7.88-4.5a3.51,3.51,0,0,0-3.26,0l-3.53,2.18c-.86.54-.81,1.41.13,1.95l7.86,4.52a3.52,3.52,0,0,0,3.28,0l3.54-2.2C466.2,327.07,466.13,326.2,465.19,325.66Z" transform="translate(-146 -57.4)"/><path class="cls-22" d="M274.24,236.94l6.13,3.57a4.09,4.09,0,0,0,3.7,0l6.18-3.54c1-.6,1.08-1.55.08-2.13l-6.15-3.54a4.11,4.11,0,0,0-3.68,0l-6.17,3.51C273.29,235.42,273.25,236.37,274.24,236.94Z" transform="translate(-146 -57.4)"/><path class="cls-22" d="M301.73,241.39l-6.22-3.59a4.09,4.09,0,0,0-3.7,0l-6.18,3.54c-1.05.6-1.09,1.56-.09,2.14l6.21,3.61a4.09,4.09,0,0,0,3.73,0l6.19-3.56C302.72,242.93,302.75,242,301.73,241.39Z" transform="translate(-146 -57.4)"/><path class="cls-22" d="M313.28,248l-6.3-3.63a4.15,4.15,0,0,0-3.73,0l-6.2,3.58c-1.05.6-1.08,1.57-.07,2.16l6.28,3.66a4.15,4.15,0,0,0,3.76,0l6.21-3.6C314.28,249.6,314.3,248.63,313.28,248Z" transform="translate(-146 -57.4)"/><path class="cls-22" d="M279.71,253.56l6.22,3.66a4.1,4.1,0,0,0,3.75,0l6.24-3.6C297,253,297,252,296,251.41l-6.24-3.63a4.09,4.09,0,0,0-3.73,0l-6.22,3.58C278.74,252,278.7,253,279.71,253.56Z" transform="translate(-146 -57.4)"/><path class="cls-22" d="M262.69,243.53l11.41,6.72a4.07,4.07,0,0,0,3.72,0l6.22-3.57c1-.6,1.09-1.57.08-2.15l-11.43-6.67a4.1,4.1,0,0,0-3.69,0l-6.2,3.54C261.75,242,261.7,243,262.69,243.53Z" transform="translate(-146 -57.4)"/><path class="cls-22" d="M307.54,258.15l-6.31-3.68a4.13,4.13,0,0,0-3.75,0l-6.25,3.61c-1.06.61-1.09,1.59-.07,2.19l6.29,3.7a4.1,4.1,0,0,0,3.78,0l6.26-3.63C308.54,259.73,308.57,258.75,307.54,258.15Z" transform="translate(-146 -57.4)"/><path class="cls-22" d="M319.23,265l-6.39-3.72a4.13,4.13,0,0,0-3.78,0l-6.26,3.64c-1.06.61-1.09,1.6-.06,2.21l6.37,3.75a4.14,4.14,0,0,0,3.8,0l6.28-3.67C320.25,266.56,320.27,265.57,319.23,265Z" transform="translate(-146 -57.4)"/><path class="cls-22" d="M331.06,271.86l-6.46-3.77a4.16,4.16,0,0,0-3.81,0l-6.29,3.68c-1.06.62-1.08,1.62,0,2.23l6.44,3.8a4.17,4.17,0,0,0,3.84,0l6.3-3.7A1.19,1.19,0,0,0,331.06,271.86Z" transform="translate(-146 -57.4)"/><path class="cls-22" d="M343,278.84,336.49,275a4.2,4.2,0,0,0-3.84,0l-6.3,3.71a1.2,1.2,0,0,0,0,2.26l6.52,3.84a4.21,4.21,0,0,0,3.86,0L343,281.1A1.2,1.2,0,0,0,343,278.84Z" transform="translate(-146 -57.4)"/><path class="cls-22" d="M355.14,285.9,348.52,282a4.2,4.2,0,0,0-3.87,0l-6.32,3.73a1.22,1.22,0,0,0,0,2.29l6.6,3.89a4.26,4.26,0,0,0,3.9,0l6.33-3.77A1.22,1.22,0,0,0,355.14,285.9Z" transform="translate(-146 -57.4)"/><path class="cls-22" d="M367.4,293.05l-6.7-3.91a4.26,4.26,0,0,0-3.9,0l-6.34,3.77a1.23,1.23,0,0,0,0,2.31l6.68,3.94a4.21,4.21,0,0,0,3.92,0l6.36-3.8A1.23,1.23,0,0,0,367.4,293.05Z" transform="translate(-146 -57.4)"/><path class="cls-22" d="M379.81,300.28,373,296.33a4.23,4.23,0,0,0-3.93,0l-6.36,3.8a1.24,1.24,0,0,0,0,2.33l6.76,4a4.24,4.24,0,0,0,4,0l6.38-3.83A1.25,1.25,0,0,0,379.81,300.28Z" transform="translate(-146 -57.4)"/><path class="cls-22" d="M375.21,309.81l6.85,4a4.31,4.31,0,0,0,4,0l6.4-3.87c1.08-.66,1-1.72-.07-2.37l-6.86-4a4.29,4.29,0,0,0-4,0l-6.38,3.84A1.26,1.26,0,0,0,375.21,309.81Z" transform="translate(-146 -57.4)"/><path class="cls-22" d="M405.17,317.41c1.08-.66,1-1.73-.09-2.39l-6.94-4a4.27,4.27,0,0,0-4,0l-6.4,3.87a1.28,1.28,0,0,0,.06,2.39l6.93,4.08a4.33,4.33,0,0,0,4,0Z" transform="translate(-146 -57.4)"/><path class="cls-22" d="M418.06,324.94c1.09-.67,1-1.75-.11-2.42l-7-4.1a4.33,4.33,0,0,0-4,0l-6.41,3.91c-1.09.66-1.05,1.74.08,2.41l7,4.13a4.31,4.31,0,0,0,4,0Z" transform="translate(-146 -57.4)"/><path class="cls-22" d="M413.48,332.34l7.11,4.19a4.31,4.31,0,0,0,4.07,0l6.46-4c1.09-.67,1-1.76-.13-2.44L423.87,326a4.36,4.36,0,0,0-4.05,0l-6.44,4C412.29,330.58,412.34,331.67,413.48,332.34Z" transform="translate(-146 -57.4)"/><path class="cls-22" d="M271.06,259.81c-1.06.61-1.11,1.59-.11,2.19l6.22,3.71a4.12,4.12,0,0,0,3.76,0l6.28-3.64c1.07-.61,1.1-1.59.09-2.19l-6.24-3.68a4.11,4.11,0,0,0-3.74,0Z" transform="translate(-146 -57.4)"/><path class="cls-22" d="M251.08,250.16l14.43,8.6a4.08,4.08,0,0,0,3.74,0l6.26-3.61c1.06-.6,1.1-1.58.09-2.17l-14.47-8.54a4.07,4.07,0,0,0-3.69,0L251.21,248C250.15,248.61,250.09,249.57,251.08,250.16Z" transform="translate(-146 -57.4)"/><path class="cls-22" d="M282.49,266.61c-1.07.62-1.11,1.61-.09,2.21l6.29,3.75a4.12,4.12,0,0,0,3.79,0l6.3-3.67c1.07-.62,1.09-1.61.07-2.22L292.54,263a4.14,4.14,0,0,0-3.77,0Z" transform="translate(-146 -57.4)"/><path class="cls-22" d="M294,275.73l6.37,3.79a4.16,4.16,0,0,0,3.82,0l6.32-3.7c1.06-.63,1.08-1.63.05-2.24l-6.39-3.77a4.12,4.12,0,0,0-3.79,0l-6.31,3.67C293,274.11,293,275.11,294,275.73Z" transform="translate(-146 -57.4)"/><path class="cls-22" d="M305.7,282.71l6.44,3.84a4.16,4.16,0,0,0,3.85,0l6.34-3.73a1.21,1.21,0,0,0,0-2.27l-6.46-3.81a4.19,4.19,0,0,0-3.82,0l-6.32,3.7C304.69,281.08,304.66,282.09,305.7,282.71Z" transform="translate(-146 -57.4)"/><path class="cls-22" d="M317.56,289.78l6.52,3.89a4.19,4.19,0,0,0,3.88,0l6.36-3.77a1.21,1.21,0,0,0,0-2.28l-6.54-3.86a4.19,4.19,0,0,0-3.85,0l-6.34,3.74A1.22,1.22,0,0,0,317.56,289.78Z" transform="translate(-146 -57.4)"/><path class="cls-22" d="M329.57,296.93l6.6,3.94a4.17,4.17,0,0,0,3.9,0l6.38-3.8a1.23,1.23,0,0,0,0-2.31l-6.62-3.9a4.19,4.19,0,0,0-3.88,0l-6.36,3.77A1.22,1.22,0,0,0,329.57,296.93Z" transform="translate(-146 -57.4)"/><path class="cls-22" d="M341.71,304.17l6.69,4a4.23,4.23,0,0,0,3.93,0l6.4-3.83a1.25,1.25,0,0,0,0-2.34l-6.7-4a4.25,4.25,0,0,0-3.91,0l-6.38,3.8A1.24,1.24,0,0,0,341.71,304.17Z" transform="translate(-146 -57.4)"/><path class="cls-22" d="M354,311.5l6.77,4a4.24,4.24,0,0,0,4,0l6.42-3.87a1.26,1.26,0,0,0,0-2.36l-6.78-4a4.22,4.22,0,0,0-3.94,0l-6.4,3.84A1.25,1.25,0,0,0,354,311.5Z" transform="translate(-146 -57.4)"/><path class="cls-22" d="M366.46,318.92l6.85,4.08a4.24,4.24,0,0,0,4,0l6.44-3.9c1.09-.66,1.06-1.73-.06-2.39l-6.86-4.05a4.23,4.23,0,0,0-4,0l-6.42,3.87A1.27,1.27,0,0,0,366.46,318.92Z" transform="translate(-146 -57.4)"/><path class="cls-22" d="M379.06,326.43l6.94,4.13a4.24,4.24,0,0,0,4,0l6.46-3.94c1.09-.66,1-1.74-.08-2.41l-6.95-4.1a4.29,4.29,0,0,0-4,0L379,324A1.28,1.28,0,0,0,379.06,326.43Z" transform="translate(-146 -57.4)"/><path class="cls-22" d="M402.9,338.23l6.48-4c1.09-.67,1.05-1.77-.1-2.44l-7-4.15a4.31,4.31,0,0,0-4,0l-6.46,3.94c-1.09.67-1.06,1.76.07,2.44l7,4.18A4.3,4.3,0,0,0,402.9,338.23Z" transform="translate(-146 -57.4)"/><path class="cls-22" d="M432.12,345.29l-16.77-9.89a4.32,4.32,0,0,0-4.06,0l-6.48,4c-1.1.67-1.06,1.78.09,2.46l16.73,10a4.31,4.31,0,0,0,4.11,0l6.52-4C433.35,347.1,433.3,346,432.12,345.29Z" transform="translate(-146 -57.4)"/><path class="cls-22" d="M265.15,272.35l6.24,3.76a4.07,4.07,0,0,0,3.78,0l6.33-3.67c1.06-.62,1.1-1.61.09-2.22l-6.26-3.73a4.06,4.06,0,0,0-3.76,0l-6.31,3.64C264.19,270.75,264.14,271.74,265.15,272.35Z" transform="translate(-146 -57.4)"/><path class="cls-22" d="M244.15,262l-7.29-4.4a2.66,2.66,0,0,0-2.44,0l-9.26,5.28c-.7.4-.75,1-.11,1.44l7.27,4.44a2.65,2.65,0,0,0,2.45,0l9.29-5.32C244.76,263.06,244.8,262.41,244.15,262Z" transform="translate(-146 -57.4)"/><path class="cls-22" d="M255.44,268.84l-7.37-4.45a2.67,2.67,0,0,0-2.46,0l-9.29,5.33c-.7.4-.75,1-.1,1.45l7.35,4.5a2.69,2.69,0,0,0,2.47,0l9.32-5.37C256.06,269.89,256.1,269.24,255.44,268.84Z" transform="translate(-146 -57.4)"/><path class="cls-22" d="M266.87,275.75l-7.46-4.51a2.71,2.71,0,0,0-2.48,0l-9.32,5.38c-.7.4-.74,1.06-.09,1.46l7.44,4.55a2.67,2.67,0,0,0,2.49,0l9.34-5.41C267.5,276.81,267.53,276.15,266.87,275.75Z" transform="translate(-146 -57.4)"/><path class="cls-22" d="M281.09,284.34l-10.21-6.17a2.7,2.7,0,0,0-2.49,0L259,283.6c-.71.42-.75,1.08-.08,1.49l10.18,6.22a2.71,2.71,0,0,0,2.51,0l9.38-5.48C281.74,285.42,281.76,284.75,281.09,284.34Z" transform="translate(-146 -57.4)"/><path class="cls-22" d="M356.76,330.08l-11-6.66a2.75,2.75,0,0,0-2.61,0l-9.54,5.73a.85.85,0,0,0,0,1.58l11,6.72a2.78,2.78,0,0,0,2.64,0l9.56-5.79A.85.85,0,0,0,356.76,330.08Z" transform="translate(-146 -57.4)"/><path class="cls-22" d="M369.49,337.77l-8.14-4.92a2.79,2.79,0,0,0-2.63,0l-9.57,5.8a.87.87,0,0,0,0,1.61l8.11,5a2.79,2.79,0,0,0,2.66,0l9.6-5.84A.87.87,0,0,0,369.49,337.77Z" transform="translate(-146 -57.4)"/><path class="cls-22" d="M376.29,349.33l-8.23-5a2.77,2.77,0,0,0-2.65,0l-3.49,2.13a.87.87,0,0,0,0,1.62l8.22,5a2.8,2.8,0,0,0,2.68,0l3.49-2.15A.88.88,0,0,0,376.29,349.33Z" transform="translate(-146 -57.4)"/><path class="cls-22" d="M402.42,365.21,394,360.08a2.81,2.81,0,0,0-2.7,0l-3.52,2.16a.9.9,0,0,0,.05,1.66l8.42,5.16a2.83,2.83,0,0,0,2.72,0l3.52-2.19C403.21,366.43,403.18,365.68,402.42,365.21Z" transform="translate(-146 -57.4)"/><path class="cls-22" d="M389.27,357.22l-8.33-5.06a2.8,2.8,0,0,0-2.68,0l-3.5,2.15a.88.88,0,0,0,0,1.64l8.32,5.09a2.84,2.84,0,0,0,2.7,0l3.51-2.17A.89.89,0,0,0,389.27,357.22Z" transform="translate(-146 -57.4)"/><path class="cls-22" d="M381.62,351.74,390,356.8a2.84,2.84,0,0,0,2.7,0l3.5-2.16c.73-.45.7-1.19,0-1.65l-8.35-5a2.83,2.83,0,0,0-2.68,0l-3.49,2.14A.88.88,0,0,0,381.62,351.74Z" transform="translate(-146 -57.4)"/><path class="cls-22" d="M340.86,320.46l-55.75-33.68a2.71,2.71,0,0,0-2.51,0l-9.39,5.48c-.71.42-.74,1.09-.06,1.5l55.56,34a2.77,2.77,0,0,0,2.61,0l9.53-5.73A.84.84,0,0,0,340.86,320.46Z" transform="translate(-146 -57.4)"/><path class="cls-22" d="M239.4,256.82l19.81,11.94a4,4,0,0,0,3.75,0l6.3-3.63c1.07-.62,1.11-1.6.11-2.2l-19.86-11.86a4.09,4.09,0,0,0-3.7,0l-6.26,3.57C238.49,255.26,238.42,256.23,239.4,256.82Z" transform="translate(-146 -57.4)"/><path class="cls-22" d="M276.63,279.27l6.31,3.81a4.13,4.13,0,0,0,3.81,0l6.35-3.71c1.07-.62,1.1-1.63.07-2.24l-6.33-3.78a4.1,4.1,0,0,0-3.78,0L276.73,277C275.65,277.65,275.61,278.66,276.63,279.27Z" transform="translate(-146 -57.4)"/><path class="cls-22" d="M288.25,286.28l6.38,3.85a4.14,4.14,0,0,0,3.84,0l6.37-3.74c1.07-.63,1.1-1.64.06-2.27l-6.41-3.82a4.11,4.11,0,0,0-3.81,0l-6.35,3.7C287.25,284.64,287.21,285.66,288.25,286.28Z" transform="translate(-146 -57.4)"/><path class="cls-22" d="M300,293.37l6.47,3.9a4.15,4.15,0,0,0,3.86,0l6.39-3.77c1.08-.64,1.1-1.66,0-2.29l-6.48-3.87a4.14,4.14,0,0,0-3.84,0l-6.37,3.74C299,291.71,299,292.74,300,293.37Z" transform="translate(-146 -57.4)"/><path class="cls-22" d="M311.9,300.54l6.54,3.95a4.2,4.2,0,0,0,3.9,0l6.41-3.81a1.23,1.23,0,0,0,0-2.31l-6.56-3.92a4.17,4.17,0,0,0-3.87,0L312,298.23C310.87,298.87,310.84,299.91,311.9,300.54Z" transform="translate(-146 -57.4)"/><path class="cls-22" d="M323.94,307.81l6.62,4a4.2,4.2,0,0,0,3.93,0l6.43-3.84a1.25,1.25,0,0,0,0-2.34l-6.64-4a4.2,4.2,0,0,0-3.9,0L324,305.47A1.25,1.25,0,0,0,323.94,307.81Z" transform="translate(-146 -57.4)"/><path class="cls-22" d="M336.13,315.16l6.71,4a4.19,4.19,0,0,0,4,0l6.45-3.87a1.27,1.27,0,0,0,0-2.37l-6.73-4a4.2,4.2,0,0,0-3.93,0l-6.42,3.85A1.26,1.26,0,0,0,336.13,315.16Z" transform="translate(-146 -57.4)"/><path class="cls-22" d="M348.47,322.6l6.79,4.09a4.22,4.22,0,0,0,4,0l6.47-3.91a1.28,1.28,0,0,0,0-2.39l-6.8-4.06a4.24,4.24,0,0,0-4,0l-6.45,3.88A1.28,1.28,0,0,0,348.47,322.6Z" transform="translate(-146 -57.4)"/><path class="cls-22" d="M361,330.13l6.87,4.15a4.27,4.27,0,0,0,4,0l6.49-4a1.3,1.3,0,0,0,0-2.42l-6.89-4.11a4.27,4.27,0,0,0-4,0l-6.47,3.91A1.29,1.29,0,0,0,361,330.13Z" transform="translate(-146 -57.4)"/><path class="cls-22" d="M391.05,335.54l-7-4.16a4.27,4.27,0,0,0-4,0l-6.49,3.95a1.31,1.31,0,0,0,0,2.44l7,4.2a4.28,4.28,0,0,0,4.05,0l6.5-4C392.22,337.32,392.19,336.22,391.05,335.54Z" transform="translate(-146 -57.4)"/><path class="cls-22" d="M420.29,353l-23.37-14a4.32,4.32,0,0,0-4.06,0l-6.51,4a1.32,1.32,0,0,0,.07,2.46l23.31,14.07a4.35,4.35,0,0,0,4.13,0l6.55-4.07C421.51,354.82,421.46,353.7,420.29,353Z" transform="translate(-146 -57.4)"/><path class="cls-22" d="M444.18,337.81l-7.2-4.2a4.38,4.38,0,0,0-4.09,0l-6.45,4c-1.09.68-1,1.78.12,2.47l7.19,4.23a4.37,4.37,0,0,0,4.11,0l6.47-4C445.43,339.6,445.36,338.5,444.18,337.81Z" transform="translate(-146 -57.4)"/><path class="cls-22" d="M325,254.77l-6.36-3.67a4.17,4.17,0,0,0-3.77,0l-6.21,3.6c-1.06.61-1.08,1.59-.05,2.19l6.34,3.69a4.12,4.12,0,0,0,3.79,0l6.24-3.63C326,256.35,326,255.36,325,254.77Z" transform="translate(-146 -57.4)"/><path class="cls-22" d="M336.77,261.58l-6.44-3.72a4.18,4.18,0,0,0-3.79,0l-6.24,3.64c-1.06.61-1.07,1.6,0,2.21l6.42,3.74a4.2,4.2,0,0,0,3.81,0l6.26-3.66C337.81,263.17,337.82,262.18,336.77,261.58Z" transform="translate(-146 -57.4)"/><path class="cls-22" d="M348.73,268.47l-6.52-3.76a4.19,4.19,0,0,0-3.82,0l-6.26,3.67c-1.06.62-1.07,1.62,0,2.23l6.51,3.79a4.2,4.2,0,0,0,3.84,0l6.27-3.7A1.18,1.18,0,0,0,348.73,268.47Z" transform="translate(-146 -57.4)"/><path class="cls-22" d="M360.83,275.44l-6.6-3.8a4.19,4.19,0,0,0-3.85,0l-6.27,3.7a1.19,1.19,0,0,0,0,2.25l6.58,3.83a4.2,4.2,0,0,0,3.87,0l6.29-3.73A1.2,1.2,0,0,0,360.83,275.44Z" transform="translate(-146 -57.4)"/><path class="cls-22" d="M373.07,282.49l-6.67-3.84a4.25,4.25,0,0,0-3.88,0l-6.3,3.74a1.21,1.21,0,0,0,0,2.28l6.66,3.87a4.23,4.23,0,0,0,3.9,0l6.31-3.76C374.18,284.14,374.16,283.12,373.07,282.49Z" transform="translate(-146 -57.4)"/><path class="cls-22" d="M385.46,289.64l-6.75-3.9a4.28,4.28,0,0,0-3.91,0l-6.31,3.77a1.23,1.23,0,0,0,0,2.31l6.74,3.92a4.26,4.26,0,0,0,3.93,0l6.33-3.8C386.59,291.3,386.57,290.27,385.46,289.64Z" transform="translate(-146 -57.4)"/><path class="cls-22" d="M398,296.86l-6.84-3.94a4.31,4.31,0,0,0-3.94,0l-6.33,3.8c-1.07.65-1,1.69.06,2.33l6.82,4a4.26,4.26,0,0,0,4,0l6.35-3.83C399.16,298.55,399.12,297.51,398,296.86Z" transform="translate(-146 -57.4)"/><path class="cls-22" d="M410.71,304.18l-6.92-4a4.31,4.31,0,0,0-4,0L393.47,304c-1.08.65-1.05,1.71.07,2.36l6.91,4a4.33,4.33,0,0,0,4,0l6.37-3.87C411.88,305.89,411.84,304.83,410.71,304.18Z" transform="translate(-146 -57.4)"/><path class="cls-22" d="M413.27,317.87a4.3,4.3,0,0,0,4,0l6.39-3.91c1.08-.65,1-1.72-.12-2.38l-7-4a4.35,4.35,0,0,0-4,0l-6.37,3.87c-1.08.66-1,1.72.09,2.38Z" transform="translate(-146 -57.4)"/><path class="cls-22" d="M436.58,319.09l-7.1-4.09a4.33,4.33,0,0,0-4,0l-6.39,3.91c-1.09.66-1,1.73.11,2.4l7.08,4.12a4.33,4.33,0,0,0,4.05,0l6.41-3.94C437.8,320.83,437.74,319.76,436.58,319.09Z" transform="translate(-146 -57.4)"/><path class="cls-22" d="M457.25,331l-15.11-8.71a2.76,2.76,0,0,0-2.59,0l-7.83,4.82c-.7.42-.66,1.12.08,1.55l15.08,8.78a2.79,2.79,0,0,0,2.62,0l7.86-4.88C458.05,332.13,458,331.43,457.25,331Z" transform="translate(-146 -57.4)"/><g class="cls-3"><path class="cls-23" d="M259.29,364.32l-13.89-8L235.07,360a77.33,77.33,0,0,0-14.28-3.42l-2.8-6.87H198.4l-2.72,6.88A75.85,75.85,0,0,0,181.43,360l-10.36-3.74-13.81,8,6.49,6a25.17,25.17,0,0,0-5.87,8.26L146,380.18l.08,11.35,11.88,1.6a25.84,25.84,0,0,0,5.95,8.26l-6.41,6,13.89,8,10.33-3.73A77.44,77.44,0,0,0,196,415.1l2.8,6.87H218.4l.84-.51,1.87-6.38a75.76,75.76,0,0,0,14.26-3.42l10.36,3.74,13.81-8-6.48-6a25.21,25.21,0,0,0,5.86-8.27l11.87-1.59.85-.51-.92-10.84-11.87-1.6a25.7,25.7,0,0,0-6-8.26Z" transform="translate(-146 -57.4)"/></g><path class="cls-16" d="M260.14,363.82l-13.89-8-10.33,3.73a76.53,76.53,0,0,0-14.28-3.42l-2.8-6.88H199.25l-2.72,6.88a75.85,75.85,0,0,0-14.25,3.43l-10.36-3.74-13.81,8,6.49,6a25.2,25.2,0,0,0-5.87,8.27l-11.88,1.6.08,11.34,11.88,1.6a25.62,25.62,0,0,0,5.95,8.26l-6.41,6,13.89,8,10.33-3.73a76.63,76.63,0,0,0,14.29,3.42l2.8,6.88h19.58l2.72-6.88a75.76,75.76,0,0,0,14.26-3.42l10.36,3.73,13.81-8-6.48-6a25.31,25.31,0,0,0,5.86-8.27l11.87-1.6-.07-11.34-11.87-1.6a26,26,0,0,0-6-8.27Z" transform="translate(-146 -57.4)"/><polygon class="cls-15" points="114.14 306.42 114.14 302.37 107.73 308.36 107.73 312.42 114.14 306.42"/><polygon class="cls-15" points="12.11 302.37 12.11 306.43 18.59 312.42 18.59 308.36 12.11 302.37"/><path class="cls-17" d="M260.14,359.76l-13.89-8-10.33,3.73a77.33,77.33,0,0,0-14.28-3.42l-2.8-6.87H199.25l-2.72,6.88a75.85,75.85,0,0,0-14.25,3.43l-10.36-3.74-13.81,8,6.49,6a25.17,25.17,0,0,0-5.87,8.26l-11.88,1.6.08,11.35,11.88,1.6a25.84,25.84,0,0,0,5.95,8.26l-6.41,6,13.89,8,10.33-3.73a77.44,77.44,0,0,0,14.29,3.43l2.8,6.87h19.58l2.72-6.89a75.76,75.76,0,0,0,14.26-3.42l10.36,3.74,13.81-8-6.48-6a25.21,25.21,0,0,0,5.86-8.27L271.64,387l-.07-11.35L259.7,374a25.85,25.85,0,0,0-6-8.26Z" transform="translate(-146 -57.4)"/><polygon class="cls-15" points="26.24 357.5 26.24 353.45 36.57 349.71 36.57 353.77 26.24 357.5"/><polygon class="cls-15" points="53.65 360.01 53.65 364.07 50.86 357.2 50.86 353.14 53.65 360.01"/><polygon class="cls-15" points="73.24 364.07 73.24 360.02 75.96 353.14 75.96 357.19 73.24 364.07"/><polygon class="cls-15" points="100.58 357.51 100.58 353.45 90.22 349.71 90.22 353.77 100.58 357.51"/><polygon class="cls-15" points="113.76 335.22 113.76 331.16 125.64 329.57 125.64 333.62 113.76 335.22"/><polygon class="cls-15" points="12.8 335.23 12.8 331.17 0.92 329.57 0.92 333.63 12.8 335.23"/><polygon class="cls-16" points="12.35 345.43 12.35 349.48 26.24 357.5 26.24 353.45 12.35 345.43"/><polygon class="cls-16" points="114.39 349.48 114.39 345.43 100.58 353.45 100.58 357.51 114.39 349.48"/><path class="cls-24" d="M191.81,246.41q.63-7.92,1.22-15.85c.37-5.1.88-10.22.85-15.34,0-4.27-.07-14.32-6.13-14.79-3.75-.29-5.22,5.34-6.05,8-3.47,11.33-1.86,23.74-1.45,35.39a18.46,18.46,0,0,0,.1,2.78L186,272a15.76,15.76,0,0,0,8.57-2.36Z" transform="translate(-146 -57.4)"/><g class="cls-25"><path class="cls-26" d="M185,365.46c12.6-7.28,33-7.28,45.48,0s12.44,19.06-.16,26.33-33,7.28-45.47,0-12.45-19.07.15-26.34" transform="translate(-146 -57.4)"/></g><path class="cls-13" d="M229.2,377.53c-2.86.85-5.52,2.42-8.45,3.15-2.56.83-5.16,1.45-7.76,2.13a13.5,13.5,0,0,0-4.69,2c-.63.46-.52,1.43-.46,2.11.1,1.14,1.62,1.7,2.53,2a8.44,8.44,0,0,0,3.95.41,12.54,12.54,0,0,0,4.73-2.11c1.38-.86,2.78-1.68,4.23-2.41s2.92-1.18,4.35-1.84a3.85,3.85,0,0,0,2.56-3.15,5.53,5.53,0,0,0,0-1.22,1.71,1.71,0,0,0-.5-1,.38.38,0,0,0-.21-.12.58.58,0,0,0-.19,0Z" transform="translate(-146 -57.4)"/><path class="cls-5" d="M226,375.24a10.59,10.59,0,0,0-1.38,0c-1.12.08-2.23.27-3.35.37a17.45,17.45,0,0,1-3.54-.1c-.37,0-.74-.06-1.12-.07a8.83,8.83,0,0,0-7.47,4.45s0,0,0,0c-1.23.51-.73,2.19-.84,3.22a13.11,13.11,0,0,0-.36,2.23,1.85,1.85,0,0,0,.95,1.33,7.73,7.73,0,0,0,6.37,1.13,21.22,21.22,0,0,0,4.53-2.3,46.63,46.63,0,0,1,5.68-2.89,14.64,14.64,0,0,0,3-1.34c1.2-.8,2.13-2.19,1.49-3.64A4.23,4.23,0,0,0,226,375.24Z" transform="translate(-146 -57.4)"/><path class="cls-8" d="M223.91,377.42a12.88,12.88,0,0,0-2.18-1.41c-.26-.14-.53-.24-.8-.36a19.51,19.51,0,0,1-3.24-.12c-.37,0-.74-.06-1.12-.07a8.36,8.36,0,0,0-5,1.74,3,3,0,0,0,.47.92,9.12,9.12,0,0,0,3.51,3,2.34,2.34,0,0,0,.93.28,3,3,0,0,0,1.54-.54,11.4,11.4,0,0,1,1.4-.57,15.87,15.87,0,0,1,3.13-.67c.59-.08,1.58-.15,2-.67S224.31,377.74,223.91,377.42Z" transform="translate(-146 -57.4)"/><path class="cls-13" d="M207.29,366.8c-2.86.84-5.52,2.42-8.44,3.15-2.57.83-5.17,1.45-7.77,2.13a13.32,13.32,0,0,0-4.69,2c-.63.46-.52,1.43-.46,2.11.11,1.14,1.63,1.7,2.54,2a8.38,8.38,0,0,0,3.94.41,12.4,12.4,0,0,0,4.73-2.12c1.38-.86,2.78-1.68,4.23-2.4s2.92-1.19,4.35-1.84a3.84,3.84,0,0,0,2.56-3.15,5,5,0,0,0,0-1.22,1.76,1.76,0,0,0-.5-1,.45.45,0,0,0-.21-.12.42.42,0,0,0-.19,0Z" transform="translate(-146 -57.4)"/><path class="cls-5" d="M204.05,364.51a10.6,10.6,0,0,0-1.38,0c-1.12.08-2.23.27-3.35.38a18.23,18.23,0,0,1-3.54-.1,10.34,10.34,0,0,0-1.11-.07,8.85,8.85,0,0,0-7.48,4.45h0c-1.23.52-.73,2.2-.83,3.23a12.11,12.11,0,0,0-.37,2.22,1.83,1.83,0,0,0,.95,1.33,7.77,7.77,0,0,0,6.37,1.14,21,21,0,0,0,4.53-2.3,46.63,46.63,0,0,1,5.68-2.89,14.94,14.94,0,0,0,3-1.34c1.2-.81,2.13-2.2,1.49-3.64A4.21,4.21,0,0,0,204.05,364.51Z" transform="translate(-146 -57.4)"/><path class="cls-27" d="M202,366.69a13.59,13.59,0,0,0-2.18-1.42c-.26-.13-.53-.24-.8-.35a20.66,20.66,0,0,1-3.24-.12,10.34,10.34,0,0,0-1.11-.07,8.26,8.26,0,0,0-5,1.74,3.08,3.08,0,0,0,.47.92,9.1,9.1,0,0,0,3.51,3,2.4,2.4,0,0,0,.93.29,3.09,3.09,0,0,0,1.54-.55c.44-.21.93-.4,1.4-.57a16.61,16.61,0,0,1,3.13-.67c.6-.07,1.58-.15,2-.66S202.4,367,202,366.69Z" transform="translate(-146 -57.4)"/><path class="cls-7" d="M183.52,273l4.14,95.79c0,1.41,3,2.57,4.59,2.44,3.57-.28,4.68-1.58,5-3.17l7.68-59.44,1.13-36Z" transform="translate(-146 -57.4)"/><path class="cls-6" d="M198.29,298.25s1.15,21.12.68,30.34c-.38,7.42-3.13,30.83-5,39.58-.71,3.34-5.34,2.05-5.35,2.05h0l.08,0a6.47,6.47,0,0,0,3.52,1c3.57-.28,4.68-1.58,5-3.17L204.86,309Z" transform="translate(-146 -57.4)"/><path class="cls-7" d="M192.25,269.82s1.52,23.71,7.88,35.38l9.12,75.33c.12.89,2.65,1.92,5.79,1.52,2-.26,3.14-1.23,3.14-2.51l1.38-71.43-.22-38.95Z" transform="translate(-146 -57.4)"/><path class="cls-20" d="M219.33,269.16c0-.18,0-.37,0-.55-.63-9.56-.8-19.09-1.11-28.66a101.44,101.44,0,0,0-2.12-18.31c-.7-3.2-3.93-16.24-5.05-17.23-1.53-1.35-5.41-2.81-7.28-3.57a32.61,32.61,0,0,0-6.25-2c-3.69-.69-8.76-.62-11.45,2.4a18.78,18.78,0,0,0-3.76,7.1c-2,6.5-1.86,13.71-.84,20.38a194.71,194.71,0,0,1,2,21.29c.28,6.83.53,13.76-.29,20.56-.36,3,.58,4.78,3.38,6,9.94,4.51,20.72,6.31,31.33,2.92a2.51,2.51,0,0,0,1.93-1.55c.37-1.24,0-2.84-.1-4.1C219.54,272.33,219.43,270.75,219.33,269.16Z" transform="translate(-146 -57.4)"/><path class="cls-28" d="M219.33,269.16l0-.55c-.63-9.56-.8-19.09-1.11-28.66a101.44,101.44,0,0,0-2.12-18.31c-.43-1.94-1.79-7.52-3-11.82a102.63,102.63,0,0,1,.27,12c0,6.93-.13,13.86-.32,20.8-.18,6.44-.42,13.41-3.79,19.12-3,5.06-8.23,7.92-14,8.71a33.29,33.29,0,0,1-12-.81c0,.32-.06.65-.1,1-.36,3,.58,4.78,3.38,6,9.94,4.51,20.72,6.31,31.33,2.92a2.51,2.51,0,0,0,1.93-1.55c.37-1.24,0-2.84-.1-4.1C219.54,272.33,219.43,270.75,219.33,269.16Z" transform="translate(-146 -57.4)"/><path class="cls-11" d="M242.76,263.53a5.83,5.83,0,0,0,5.46-.23,14.79,14.79,0,0,1,2.26-1.11c.47-.17,1.3-.33,1.71.05,1,1-.86,2-1.48,2.42-1,.67.5,1.25,1,1.43a16.64,16.64,0,0,0,2.59.65c.66.11,1.61.09,1.88.86a.77.77,0,0,1-.37.95,3.44,3.44,0,0,1,.69.88,1.15,1.15,0,0,1,0,1.07,1.54,1.54,0,0,1-1.28.51,1.66,1.66,0,0,1,.19,1.15c-.13.56-1,.6-1.61.6a.49.49,0,0,1-.3.43,3.69,3.69,0,0,1-1.33.1,12.29,12.29,0,0,1-4.8-1.11,29.16,29.16,0,0,1-6.29-3.51s-.14-.09-.13-.11l.89-5.46Z" transform="translate(-146 -57.4)"/><path class="cls-24" d="M221.53,246.45c-1.68-1.55-2.54-3.27-2.68-6.44-.32-7.41-.42-14.86-1.43-22.22-.58-4.22-1.94-14.18-8-13.86-3.75.2-4.48,6-4.95,8.75-1.29,7.67-.35,15.49,1,23.09,1.2,6.95,1.27,14.08,7.43,18.56A152.69,152.69,0,0,0,241,270.09q2.57-3.75,5.37-7.33-7.75-4.69-15.37-9.66c-2.2-1.43-4.35-2.91-6.52-4.39A26,26,0,0,1,221.53,246.45Z" transform="translate(-146 -57.4)"/><path class="cls-11" d="M213.43,171.57s4.27,17.61.28,20.69a26.17,26.17,0,0,1-9.37,4.19l-.16,4.57s-7,.43-11.93-2.49a16.72,16.72,0,0,0-1.3-9.65S191,160.78,213.43,171.57Z" transform="translate(-146 -57.4)"/><path class="cls-29" d="M213.66,172.55c-.14-.62-.23-1-.23-1C191,160.78,191,188.88,191,188.88a15.27,15.27,0,0,1,1.51,6.54,20.72,20.72,0,0,0,4.66-.16h0a9.36,9.36,0,0,0,6.36-3.19,11.13,11.13,0,0,0,1.8-3.51,1.77,1.77,0,0,0-.07-1.6,7.38,7.38,0,0,0-1.07-1,4.08,4.08,0,0,1-1.24-2,2.78,2.78,0,0,1,1.2-3c1.16-.74,2.19-.18,3.31.29a2.78,2.78,0,0,0,2.27.16,1.82,1.82,0,0,0,.9-1.84,30.6,30.6,0,0,1-.13-3.58C210.7,174,212.1,173.23,213.66,172.55Z" transform="translate(-146 -57.4)"/><path class="cls-7" d="M209.42,182h-.12c-.73,0-1.23-1.55-1.81-1.95a3.68,3.68,0,0,0-2.29-.68c-3.81.12-4.33,7.06-.29,7.5a.68.68,0,0,1,.42.14.52.52,0,0,1,.11.38c.08,3.18-2.41,5.24-5.27,6s-6.68.37-8.77-2.07a31.4,31.4,0,0,1-4.86-7.65c-1.28-2.85-2.51-5.69-2.7-8.86A15.69,15.69,0,0,1,187,164.9a19.76,19.76,0,0,1,4.56-4.43c1.69-1.21,3.92-2.05,5.14-3.77.73-1,1.08-2.27,1.94-3.19a5.06,5.06,0,0,1,3-1.49,8.76,8.76,0,0,1,5.41,1.14c.73.41,1.42.63,2.1,0s.95-1.3,1.67-1.74a3.93,3.93,0,0,1,2.69-.42c3.9.77,5.92,5.31,5.77,8.91a2.09,2.09,0,0,0,0,.61c.2.73,1.09.47,1.56.86.79.65.64,2.29.38,3.14a7.64,7.64,0,0,1-1.88,3,16.82,16.82,0,0,1-5.64,3.82c-1.77.74-3.33,1.76-3.51,3.85C210,176.51,211.75,181.62,209.42,182Z" transform="translate(-146 -57.4)"/><path class="cls-6" d="M221.19,164.53c.26-.85.41-2.49-.38-3.14h0a10.93,10.93,0,0,1-7.13,7.18c-2.52.87-7.64.67-7.48,4.51,0,1.05,1.18,3-.48,3.35-.58.11-1.08-.37-1.66-.39-1.95-.07-2.87,2.69-3.31,4.15-.55,1.86-1.17,3.69-2.89,4.78a6.42,6.42,0,0,1-5.92.36,12.11,12.11,0,0,1-5.39-4.85,28.44,28.44,0,0,1-2.58-4.6,28.29,28.29,0,0,0,2.6,7.83,31.4,31.4,0,0,0,4.86,7.65c2.09,2.44,5.77,2.87,8.77,2.07s5.35-2.82,5.27-6a.52.52,0,0,0-.11-.38.68.68,0,0,0-.42-.14c-4-.44-3.52-7.38.29-7.5a3.68,3.68,0,0,1,2.29.68c.58.4,1.08,1.92,1.81,1.95h.12c2.33-.4.62-5.51.74-6.86.18-2.09,1.74-3.11,3.51-3.85a16.82,16.82,0,0,0,5.64-3.82A7.53,7.53,0,0,0,221.19,164.53Z" transform="translate(-146 -57.4)"/><path class="cls-24" d="M191.36,198.74l1-1.23s4,3.26,11.8,2.05l.35,1.61S196.07,202.11,191.36,198.74Z" transform="translate(-146 -57.4)"/><path class="cls-6" d="M211.55,286.81a.35.35,0,0,0-.32-.18,45.14,45.14,0,0,1-8.46-.23c-1.05-.12-2.15-.2-3.18-.41-.12,0-.46-.15-.54,0a.38.38,0,0,0,0,.21c0,.41,0,.82,0,1.23a.83.83,0,0,0,.25.62,2.55,2.55,0,0,0,.91.19,58.82,58.82,0,0,0,8.37.89c.75,0,1.48,0,2.22,0l.7-.05a.45.45,0,0,0,.42-.43A3.28,3.28,0,0,0,211.55,286.81Z" transform="translate(-146 -57.4)"/><path class="cls-6" d="M189.35,283.59a39,39,0,0,1-5.43-1.39l.1,2.46c.71.24,1.42.47,2.13.67s1.43.38,2.16.52l.68.13a.44.44,0,0,0,.52-.31,3.22,3.22,0,0,0,.11-1.82A.36.36,0,0,0,189.35,283.59Z" transform="translate(-146 -57.4)"/><path class="cls-12" d="M162.73,172.47l-9-5.21c-.3-.17-.55,0-.55.32a1.23,1.23,0,0,0,.55.95l9,5.2c.3.18.55,0,.56-.3a1.23,1.23,0,0,0-.56-1" transform="translate(-146 -57.4)"/><path class="cls-12" d="M166.51,177.51l-12.81-7.4c-.3-.17-.54,0-.54.32a1.19,1.19,0,0,0,.54.95l12.81,7.39c.3.18.55,0,.55-.32a1.18,1.18,0,0,0-.55-.94" transform="translate(-146 -57.4)"/><path class="cls-12" d="M174.88,182.34l-5.48-3.16c-.3-.18-.55,0-.55.31a1.19,1.19,0,0,0,.55.95l5.48,3.16c.3.18.55,0,.55-.31a1.21,1.21,0,0,0-.55-.95" transform="translate(-146 -57.4)"/><path class="cls-12" d="M158.26,175.6,153.7,173c-.31-.18-.55,0-.55.31a1.19,1.19,0,0,0,.54.94l4.57,2.64c.3.18.55,0,.55-.31a1.2,1.2,0,0,0-.55-1" transform="translate(-146 -57.4)"/><path class="cls-12" d="M169.77,182.24,160.65,177c-.3-.17-.55,0-.55.31a1.23,1.23,0,0,0,.55,1l9.11,5.26c.31.18.55,0,.55-.31a1.22,1.22,0,0,0-.54-.95" transform="translate(-146 -57.4)"/><path class="cls-12" d="M161.47,180.31l-7.78-4.5c-.31-.17-.55,0-.55.32a1.19,1.19,0,0,0,.54.94l7.79,4.5c.3.18.55,0,.55-.31a1.19,1.19,0,0,0-.55-.95" transform="translate(-146 -57.4)"/><path class="cls-12" d="M166.5,183.21l-2.57-1.48c-.3-.18-.54,0-.54.32a1.17,1.17,0,0,0,.54.94l2.56,1.48c.31.18.55,0,.55-.31a1.2,1.2,0,0,0-.54-.95" transform="translate(-146 -57.4)"/><path class="cls-12" d="M171.89,177.75l-7.22-4.16c-.3-.17-.54,0-.54.32a1.16,1.16,0,0,0,.54.94l7.21,4.17c.31.17.56,0,.56-.31a1.25,1.25,0,0,0-.55-1" transform="translate(-146 -57.4)"/><path class="cls-8" d="M166.77,169.68l-12.67-7.32c-.51-.29-.92-.05-.92.53a2,2,0,0,0,.91,1.58l12.67,7.32c.51.3.93.06.93-.52a2,2,0,0,0-.92-1.59" transform="translate(-146 -57.4)"/><path class="cls-8" d="M174.68,174.25l-4.75-2.74c-.51-.3-.92-.06-.92.52a2,2,0,0,0,.92,1.59l4.74,2.74c.51.29.93.06.93-.52a2,2,0,0,0-.92-1.59" transform="translate(-146 -57.4)"/><path class="cls-17" d="M155.66,150a1.6,1.6,0,0,1-.73-1.25l0-13.38c0-.46.33-.64.73-.41l16.89,9.75a1.63,1.63,0,0,1,.73,1.26l0,13.37c0,.46-.33.65-.73.42l-10-5.8a1.37,1.37,0,0,0-1.36-.14l-2.92,1.59v-1.7a4.27,4.27,0,0,0-1.92-3.33l-.66-.38m16.94-6.67-16.9-9.75c-1.06-.62-1.93-.12-1.93,1.1l0,13.37a4.26,4.26,0,0,0,1.92,3.33l.66.39A1.6,1.6,0,0,1,157,153v1.84a2.57,2.57,0,0,0,.71,1.63,2,2,0,0,0,.44.36.84.84,0,0,0,.81.09l3-1.65a.54.54,0,0,1,.51.06l10,5.79c1.06.61,1.93.12,1.93-1.1l0-13.38a4.26,4.26,0,0,0-1.92-3.33" transform="translate(-146 -57.4)"/><path class="cls-17" d="M159,142.65c-.87-.5-1.58-.09-1.59.91a3.49,3.49,0,0,0,1.58,2.73c.87.5,1.58.1,1.58-.91a3.47,3.47,0,0,0-1.57-2.73" transform="translate(-146 -57.4)"/><path class="cls-17" d="M164.13,145.63c-.87-.5-1.58-.09-1.59.91a3.49,3.49,0,0,0,1.58,2.73c.87.5,1.58.1,1.59-.91a3.51,3.51,0,0,0-1.58-2.73" transform="translate(-146 -57.4)"/><path class="cls-17" d="M169.29,148.61c-.87-.5-1.59-.1-1.59.91a3.51,3.51,0,0,0,1.58,2.73c.87.5,1.58.1,1.59-.91a3.51,3.51,0,0,0-1.58-2.73" transform="translate(-146 -57.4)"/><polygon class="cls-12" points="111.83 93.65 109.34 95.07 106.85 96.49 104.38 92.21 101.91 87.92 99.42 89.34 96.93 90.76 94.44 92.17 96.91 96.46 99.4 95.04 101.89 93.63 104.37 97.91 106.84 102.19 109.33 100.77 111.82 99.36 114.3 97.94 111.83 93.65"/><polygon class="cls-13" points="313.57 105.28 311.07 106.7 308.58 108.12 306.11 103.83 303.64 99.55 301.15 100.97 298.66 102.39 296.17 103.8 298.64 108.09 301.13 106.67 303.62 105.25 306.1 109.53 308.57 113.82 311.06 112.4 313.55 110.99 316.04 109.56 313.57 105.28"/><polygon class="cls-17" points="215.51 9.22 213.02 10.64 210.53 12.06 208.06 7.78 205.58 3.49 203.09 4.91 200.6 6.33 198.11 7.74 200.59 12.03 203.07 10.61 205.56 9.2 208.04 13.48 210.51 17.76 213 16.34 215.49 14.93 217.98 13.5 215.51 9.22"/><polygon class="cls-9" points="358.62 63.6 356.13 65.02 353.63 66.44 351.17 62.16 348.69 57.87 346.2 59.29 343.71 60.71 341.22 62.12 343.7 66.41 346.18 64.99 348.67 63.58 351.15 67.86 353.62 72.14 356.11 70.72 358.6 69.31 361.09 67.88 358.62 63.6"/><polygon class="cls-20" points="383.5 240.23 381.01 241.65 378.52 243.07 376.05 238.79 373.57 234.5 371.08 235.92 368.6 237.34 366.11 238.76 368.58 243.04 371.07 241.62 373.56 240.21 376.03 244.49 378.5 248.77 381 247.35 383.49 245.94 385.97 244.52 383.5 240.23"/><path class="cls-17" d="M267.66,171.67a3.81,3.81,0,0,1,1.84.59,11.2,11.2,0,0,1,5,8.64c0,.78-.17,2.59-1.69,2.59a3.78,3.78,0,0,1-1.84-.59,11.14,11.14,0,0,1-5-8.64c0-.78.17-2.59,1.69-2.59m0-1.5c-1.89,0-3.19,1.49-3.19,4.08a12.65,12.65,0,0,0,5.74,9.95,5.22,5.22,0,0,0,2.59.79c1.88,0,3.18-1.49,3.19-4.08a12.66,12.66,0,0,0-5.74-9.95,5.22,5.22,0,0,0-2.59-.79Z" transform="translate(-146 -57.4)"/><path class="cls-20" d="M410,58.9a3.78,3.78,0,0,1,1.83.59,11.17,11.17,0,0,1,5,8.64c0,.78-.18,2.59-1.7,2.59a3.81,3.81,0,0,1-1.84-.59,11.19,11.19,0,0,1-5-8.64c0-.78.17-2.59,1.7-2.59m0-1.5c-1.89,0-3.19,1.49-3.2,4.08a12.66,12.66,0,0,0,5.74,10,5.22,5.22,0,0,0,2.59.79c1.89,0,3.19-1.49,3.2-4.08a12.68,12.68,0,0,0-5.75-10A5.22,5.22,0,0,0,410,57.4Z" transform="translate(-146 -57.4)"/><path class="cls-12" d="M473.4,199.79a3.3,3.3,0,0,1,1.58.51,9.67,9.67,0,0,1,4.32,7.48c0,.67-.14,2.24-1.46,2.24a3.37,3.37,0,0,1-1.59-.51,9.66,9.66,0,0,1-4.32-7.48c0-.67.15-2.24,1.47-2.24m0-1.29c-1.64,0-2.76,1.29-2.77,3.53a10.94,10.94,0,0,0,5,8.6,4.47,4.47,0,0,0,2.24.69c1.63,0,2.75-1.3,2.76-3.53a10.93,10.93,0,0,0-5-8.61,4.55,4.55,0,0,0-2.23-.68Z" transform="translate(-146 -57.4)"/><path class="cls-12" d="M548.27,224a3.23,3.23,0,0,1,1.59.51,9.66,9.66,0,0,1,4.32,7.48c0,.67-.15,2.24-1.46,2.24a3.34,3.34,0,0,1-1.59-.51,9.69,9.69,0,0,1-4.32-7.48c0-.68.15-2.24,1.46-2.24m0-1.3c-1.63,0-2.75,1.29-2.76,3.53a11,11,0,0,0,5,8.61,4.56,4.56,0,0,0,2.24.68c1.63,0,2.75-1.29,2.76-3.53a11,11,0,0,0-5-8.61,4.56,4.56,0,0,0-2.24-.68Z" transform="translate(-146 -57.4)"/></g></g></svg>