<?xml version="1.0" encoding="utf-8"?>
<!-- Generator: Adobe Illustrator 25.1.0, SVG Export Plug-In . SVG Version: 6.00 Build 0)  -->
<svg version="1.1" id="Camada_1" xmlns="http://www.w3.org/2000/svg" xmlns:xlink="http://www.w3.org/1999/xlink" x="0px" y="0px"
	 viewBox="0 0 549.2 388.2" style="enable-background:new 0 0 549.2 388.2;" xml:space="preserve">
<style type="text/css">
	.st0{fill:#FFC154;}
	.st1{fill:#FF9E55;}
	.st2{fill:#A7E070;}
	.st3{fill:#75B75A;}
	.st4{fill:#FFFFFF;}
	.st5{fill:#D6E6FD;}
	.st6{fill:#BDD3F4;}
	.st7{fill:#FFA67A;}
	.st8{fill:#EF946C;}
	.st9{fill:#4278C6;}
	.st10{fill:#5295FE;}
	.st11{fill:#FFB692;}
	.st12{fill:#D88D87;}
	.st13{fill:#6D86AA;}
	.st14{fill:#323244;}
	.st15{fill:#34344F;}
	.st16{fill:#FF9292;}
	.st17{fill:#FFABAB;}
	.st18{fill:#49496B;}
	.st19{fill:#FFAC52;}
	.st20{fill:none;stroke:#6D86AA;stroke-width:2;stroke-miterlimit:10;}
	.st21{fill:#A0B8E8;}
	.st22{fill:#EFF6FF;}
	.st23{fill:#8BA6D1;}
</style>
<g id="OBJECTS">
	<polygon class="st0" points="81.3,361.3 52.2,361.3 46.3,331 87.2,331 	"/>
	<polygon class="st1" points="48.9,344.7 85.5,339.8 87.2,331 46.3,331 	"/>
	<path class="st2" d="M66.5,328.7c17.6-24.3,0.2-38.8,0-39l0,0C66.2,289.9,48.9,304.4,66.5,328.7L66.5,328.7z"/>
	<path class="st3" d="M65.2,331.8c0.2-33.3,20.9-35.7,38.1-23.7L65.2,331.8z"/>
	<path class="st2" d="M68,332.6c0-21.3,24.1-28.5,36.6-4.1L68,332.6z"/>
	<path class="st3" d="M67.8,331.8c-0.2-33.3-20.9-35.7-38.1-23.7L67.8,331.8z"/>
	<path class="st2" d="M64.9,332.6c0-21.3-24.2-28.5-36.6-4.1L64.9,332.6z"/>
	<rect x="43" y="329.8" class="st0" width="46.6" height="7"/>
	<path class="st4" d="M237.7,167.1l-20-14.2V68.9c0-4.1-3.3-7.5-7.5-7.5c0,0,0,0,0,0h-156c-4.1,0-7.5,3.4-7.5,7.5v135.7
		c0,4.1,3.3,7.5,7.5,7.5h156c4.1,0,7.5-3.3,7.5-7.5l0,0v-23.2L237.7,167.1z"/>
	<circle class="st2" cx="72.8" cy="89.8" r="10.1"/>
	<path class="st5" d="M199.3,91.1H91c-1.5,0-2.7,1.2-2.7,2.7c0,1.5,1.2,2.7,2.7,2.7h108.3c1.5,0,2.7-1.2,2.7-2.7
		C202,92.3,200.8,91.1,199.3,91.1z"/>
	<path class="st6" d="M91,88.5h49.3c1.5,0,2.7-1.2,2.7-2.7c0-1.5-1.2-2.7-2.7-2.7H91c-1.5,0-2.7,1.2-2.7,2.7
		C88.3,87.3,89.5,88.5,91,88.5z"/>
	<path class="st0" d="M181.7,120.5c0,5.6,4.5,10.2,10.2,10.2c5.6,0,10.2-4.5,10.2-10.2c0-5.6-4.5-10.2-10.2-10.2
		S181.7,114.9,181.7,120.5C181.7,120.5,181.7,120.5,181.7,120.5z"/>
	<path class="st5" d="M173.6,121.9H65.3c-1.5,0-2.7,1.2-2.7,2.7c0,1.5,1.2,2.7,2.7,2.7h108.3c1.5,0,2.7-1.2,2.7-2.7
		C176.3,123.1,175.1,121.9,173.6,121.9L173.6,121.9z"/>
	<path class="st6" d="M65.3,119.2h49.2c1.5,0,2.7-1.2,2.7-2.7c0-1.5-1.2-2.7-2.7-2.7H65.3c-1.5,0-2.7,1.2-2.7,2.7
		C62.7,118,63.9,119.2,65.3,119.2z"/>
	<circle class="st2" cx="72.8" cy="151.8" r="10.1"/>
	<path class="st5" d="M199.3,153.2H91c-1.5,0-2.7,1.2-2.7,2.7c0,1.5,1.2,2.7,2.7,2.7h108.3c1.5,0,2.7-1.2,2.7-2.7
		C202,154.4,200.8,153.2,199.3,153.2z"/>
	<path class="st6" d="M91,150.5h49.3c1.5,0,2.7-1.2,2.7-2.7c0-1.5-1.2-2.7-2.7-2.7H91c-1.5,0-2.7,1.2-2.7,2.7
		C88.3,149.3,89.5,150.5,91,150.5z"/>
	<circle class="st0" cx="191.8" cy="182.6" r="10.1"/>
	<path class="st5" d="M173.6,183.9H65.3c-1.5,0-2.7,1.2-2.7,2.7c0,1.5,1.2,2.7,2.7,2.7h108.3c1.5,0,2.7-1.2,2.7-2.7
		C176.3,185.1,175.1,183.9,173.6,183.9L173.6,183.9z"/>
	<path class="st6" d="M65.3,181.2h49.2c1.5,0,2.7-1.2,2.7-2.7c0-1.5-1.2-2.7-2.7-2.7H65.3c-1.5,0-2.7,1.2-2.7,2.7
		C62.7,180,63.9,181.2,65.3,181.2z"/>
	<path class="st7" d="M295,319.1l-8.3-85.9c-1-8.6-8.8-14.8-17.4-13.8c-8.4,1-14.5,8.4-13.9,16.8l7,72.8l-97.6,26.7
		c-6.1,1.4-9.9,7.5-8.4,13.6c1.4,6.1,7.5,9.9,13.6,8.4l0,0l113-21.7l13.5-2.6L295,319.1z"/>
	<path class="st8" d="M286.7,233.2c-0.1-0.5-0.1-1-0.2-1.5l-31.1,2.5c0,0.7,0,1.4,0,2.1l3.9,40.4l31.8,2.2L286.7,233.2z"/>
	<path class="st9" d="M265.1,207.9l7.2-0.7c12.1-1.1,22.7,7.8,23.8,19.8l3.7,40.7l0,0l-50.9,4.7l0,0l-3.7-40.7
		C244.2,219.6,253.1,209,265.1,207.9z"/>
	<path class="st7" d="M167.2,357.8c-10.4,0.6-28.4,0.5-35.5-7.5c0,0-15.8,5.9-20.2,6.2c-2.5,0.2-5-1.1-6.2-3.4
		c0,0,26.1-19.7,31.8-21.7s31.6,3.1,31.6,3.1l4.2,15.3c0.9,3.3-1.1,6.8-4.4,7.7C168.1,357.7,167.7,357.8,167.2,357.8z"/>
	<path class="st10" d="M328.1,191.5c-29.6,0-52.5,7.3-66.9,16.9l16.1,81.6l-3.3,78.2c0,0,57.5,13.5,115.4,0l-6.7-78.2l5.8-82.7
		C388.5,207.2,365.1,195.8,328.1,191.5z"/>
	<path class="st11" d="M356.3,205.4c0,12.9-15,23.3-33.5,23.3c-18.5,0-33.5-10.4-33.5-23.3s15-11.8,33.5-11.8
		C341.3,193.6,356.3,192.5,356.3,205.4z"/>
	<path class="st11" d="M407,319.1l-8.3-85.9c-0.8-8.6-8.5-15-17.2-14.1s-15,8.5-14.1,17.1l7,72.8l-97.6,26.7
		c-6.1,1.4-9.9,7.5-8.5,13.6c1.4,6.1,7.5,9.9,13.5,8.4l0,0l113-21.7l13.5-2.6L407,319.1z"/>
	<polygon class="st12" points="399.8,244.7 368.4,246.8 371.1,275.1 403.1,278.7 	"/>
	<path class="st9" d="M377.1,207.9l7.2-0.7c12.1-1.1,22.7,7.8,23.8,19.8l3.7,40.7l0,0l-50.9,4.7l0,0l-3.7-40.7
		C356.2,219.6,365,209,377.1,207.9z"/>
	<path class="st11" d="M279.2,357.8c-10.4,0.6-28.4,0.5-35.5-7.5c0,0-15.8,5.9-20.2,6.2c-2.5,0.2-5-1.1-6.2-3.4
		c0,0,26.1-19.7,31.8-21.7s31.6,3.1,31.6,3.1l4.2,15.3c0.9,3.4-1.1,6.8-4.4,7.7C280.1,357.7,279.6,357.8,279.2,357.8z"/>
	
		<ellipse transform="matrix(0.9985 -5.442736e-02 5.442736e-02 0.9985 -6.8871 15.2888)" class="st13" cx="277.3" cy="134.1" rx="14.7" ry="18.5"/>
	<path class="st4" d="M268.9,134.5c0.5,10.2,7.6,18.1,15.7,17.6c8.1-0.4,14.2-9,13.7-19.2s-7.6-18.1-15.7-17.6
		C274.5,115.7,268.4,124.3,268.9,134.5z"/>
	<path class="st14" d="M276.6,95c-21.3,20.8,7,44.1,7,44.1l-1.3-44.8L276.6,95z"/>
	<path class="st11" d="M346.3,196.6c-2.8-52.1-11.5-24.4-24.1-23.8c-12.5,0.7-24-22.5-21.3,26.2c1,18.2,11.1,16.1,23.6,15.4
		S347.3,214.8,346.3,196.6z"/>
	<path class="st12" d="M300.6,183.8c0.6-28,10.7-10.4,21.7-11c12.1-0.7,20.7-26.6,23.8,19C327,199.2,311.5,192.7,300.6,183.8z"/>
	<path class="st11" d="M325.8,76.3l-20.2,1.1c-15.8,0.9-27.9,14.4-27,30.2l2.3,41.7c1.3,22,20.1,38.9,42.2,37.8l0,0
		c22.1-1.3,39-20.1,37.8-42.2l-2.1-39.2C357.7,88.5,343,75.4,325.8,76.3z"/>
	<path class="st12" d="M345.3,133.2c0.5,9.9,7.1,17.7,15.3,19.1c0.3-2.5,0.4-4.9,0.3-7.4l-1.8-32.6
		C350.7,114.4,344.7,123.1,345.3,133.2z"/>
	<path class="st12" d="M358.6,104c-1.9-16.5-16.2-28.6-32.7-27.8l-20.2,1.1c-6.5,0.4-12.7,2.9-17.5,7.3
		C309.6,112,339.7,109.4,358.6,104z"/>
	<path class="st14" d="M334.7,118.2l-6.8-2.2c-2.1-0.7-3.2-2.9-2.6-5l0,0c0.7-2.1,2.9-3.2,5-2.6l6.8,2.2c2.1,0.7,3.2,2.9,2.6,5l0,0
		C339,117.7,336.8,118.9,334.7,118.2z"/>
	<path class="st14" d="M302.9,117.9l-6.2,3.4c-1.9,1.1-4.4,0.4-5.4-1.6l0,0c-1.1-1.9-0.4-4.4,1.6-5.4l6.2-3.4
		c1.9-1.1,4.4-0.4,5.4,1.6l0,0C305.5,114.4,304.8,116.8,302.9,117.9z"/>
	<path class="st12" d="M308.5,146.8c0,0,10.5,1.3,10.7,3.3c0.2,2-4.9,3.2-6.3,2.4S308.5,146.8,308.5,146.8z"/>
	<path class="st15" d="M304.1,128.1c0.1,2.4-1.7,4.5-4.2,4.6c-2.4,0.1-4.5-1.7-4.6-4.2s1.7-4.5,4.2-4.6c0,0,0,0,0,0
		C301.9,123.8,304,125.7,304.1,128.1C304.1,128.1,304.1,128.1,304.1,128.1z"/>
	<path class="st15" d="M335.8,126.4c0.1,2.4-1.7,4.5-4.2,4.6c-2.4,0.1-4.5-1.7-4.6-4.2c-0.1-2.4,1.7-4.5,4.2-4.6
		C333.6,122.1,335.6,124,335.8,126.4C335.8,126.4,335.8,126.4,335.8,126.4z"/>
	<path class="st15" d="M315.7,123.7c-0.5,2.6-1,5.1-1.6,7.6s-1.2,5-1.9,7.4s-1.4,4.9-2.2,7.4l-0.2,0.5c0,0,0,0.1,0-0.1
		c0-0.1,0-0.2,0-0.2c0-0.1,0,0,0,0c0.2,0.2,0.3,0.4,0.5,0.6c0.4,0.4,0.9,0.8,1.4,1.2c1,0.8,2,1.7,2.9,2.6c-1.3-0.3-2.5-0.8-3.7-1.4
		c-0.6-0.3-1.2-0.6-1.7-1c-0.3-0.2-0.6-0.5-0.9-0.8c-0.1-0.1-0.2-0.3-0.3-0.4c-0.1-0.1-0.1-0.3-0.1-0.5c0-0.3,0-0.2,0-0.3l0.1-0.5
		c0.7-2.5,1.5-5,2.3-7.4c0.8-2.4,1.6-4.9,2.5-7.4C313.7,128.6,314.6,126.1,315.7,123.7z"/>
	<path class="st15" d="M309.9,158.8c6.7-2,13.2-4.8,19.3-8.1c4.4-2.5,9.4,2.9,7.7,8.3c-1.8,5.8-5.7,11.6-13.8,13.5
		c-6.6,1.6-11.1,0.4-14.2-1.6C304.5,168,305.2,160.3,309.9,158.8z"/>
	<path class="st16" d="M323.1,172.5c8-1.9,11.9-7.7,13.8-13.5c0.2-0.8,0.3-1.6,0.3-2.4c-3.1-0.9-7-0.8-12,1.1
		c-7.7,2.9-10.8,9.1-11.8,15.1l0,0C316.6,173.5,319.9,173.4,323.1,172.5z"/>
	<path class="st17" d="M318.2,166.5c1,1.3,4,0.6,6.8-1.5s4.2-4.8,3.2-6.1s-4-0.6-6.8,1.5S317.2,165.2,318.2,166.5z"/>
	<path class="st4" d="M309.9,158.8c6.7-2,13.2-4.8,19.3-8.1c2.7-1.5,5.6-0.1,7.1,2.5c-3.6,4.3-9.5,8.3-16.8,10.8
		c-4.3,1.5-8.8,2.3-13.4,2.3C305.6,163.1,306.9,159.7,309.9,158.8z"/>
	<path class="st14" d="M345.3,101.1c-100.4,24.7-90.4-25.8-90.4-25.8l5.4,7.8c0,0-4.3-23.6,17.8-32.2l2.9,14.8
		c0,0,34.8-17.8,68.9,3.4c34.1,21.2,16.6,71.6,16.6,71.6S351.9,141.4,345.3,101.1z"/>
	<path class="st18" d="M359.8,77.4c-2.8-3.2-6.1-6-9.7-8.2c-23.9,17.1-60.2,34.1-90.1,9.9c0,1.3,0.1,2.7,0.3,4l-5.4-7.8
		c-0.3,2.2-0.4,4.5-0.1,6.7C288.2,111.9,333.1,98.5,359.8,77.4z"/>
	<path class="st11" d="M353.6,127.9c-0.8,7.6,2.6,14.3,7.7,14.9c5.1,0.7,9.8-4.9,10.7-12.5s-2.7-14.3-7.7-14.9
		S354.3,120.3,353.6,127.9z"/>
	<path class="st12" d="M358.9,128.4c-0.8-0.1-1.5,0-2.3,0.3v-0.4c0.5-5,3.7-8.7,7-8.2s5.6,4.9,5.1,9.9c-0.4,3.8-2.4,6.9-4.8,7.9
		C364.4,133,362.2,128.8,358.9,128.4z"/>
	<path class="st4" d="M380.1,131.5c0.6,10.2-5.6,18.8-13.7,19.2s-15.1-7.4-15.7-17.6s5.6-18.8,13.7-19.2S379.5,121.3,380.1,131.5z"
		/>
	<path class="st13" d="M386.4,131.1c0.5,10.2-5.6,18.8-13.7,19.2s-15.1-7.4-15.7-17.6s5.6-18.8,13.7-19.2S385.9,121,386.4,131.1z"/>
	<path class="st19" d="M379.1,131.5c0.3,5.1-2.8,9.4-6.8,9.6s-7.6-3.7-7.8-8.8c-0.3-5.1,2.8-9.4,6.8-9.6S378.8,126.5,379.1,131.5z"
		/>
	<path class="st13" d="M365.5,117.9c4.7-32.7-14.5-52.5-38-54.7l7.2-0.9c0,0,43.4-0.2,40.1,56.3L365.5,117.9z"/>
	<path class="st20" d="M271.6,149.5c-0.8,25.8,25.6,23.7,25.6,23.7"/>
	<path class="st4" d="M301.2,176.1l-4.3,0.1c-1.6,0-3-1.3-3-2.9l0,0c0-1.6,1.3-3,2.9-3.1l4.3-0.1c1.6,0,3,1.3,3,2.9l0,0
		C304.1,174.6,302.8,176,301.2,176.1z"/>
	<path class="st0" d="M468.3,0h-72.2c-9.6,0-17.4,7.8-17.4,17.4v36.1c0,9.1,7.1,16.7,16.2,17.4v19.6L414.3,71h54
		c9.6,0,17.4-7.8,17.4-17.4V17.4C485.8,7.8,478,0,468.3,0C468.3,0,468.3,0,468.3,0z"/>
	<path class="st4" d="M407.3,29.5c-4.1,0-7.5,3.3-7.5,7.5s3.3,7.5,7.5,7.5c4.1,0,7.5-3.3,7.5-7.5c0,0,0,0,0,0
		C414.8,32.9,411.5,29.5,407.3,29.5C407.3,29.5,407.3,29.5,407.3,29.5z"/>
	<path class="st4" d="M432.2,29.5c-4.1,0-7.5,3.3-7.5,7.5c0,4.1,3.3,7.5,7.5,7.5c4.1,0,7.5-3.3,7.5-7.5c0,0,0,0,0,0
		C439.6,32.9,436.3,29.5,432.2,29.5z"/>
	<path class="st4" d="M457,29.5c-4.1,0-7.5,3.3-7.5,7.5c0,4.1,3.3,7.5,7.5,7.5c4.1,0,7.5-3.3,7.5-7.5c0,0,0,0,0,0
		C464.5,32.9,461.2,29.5,457,29.5z"/>
	<path class="st6" d="M535.5,388.2H13.7c-7.5,0-13.7-6.1-13.7-13.6l0,0c0-7.5,6.1-13.6,13.7-13.6h521.9c7.5,0,13.7,6.1,13.7,13.6
		c0,0,0,0,0,0l0,0C549.2,382.1,543,388.2,535.5,388.2L535.5,388.2z"/>
	<polygon class="st4" points="100.3,353.8 243.3,353.7 213.4,253.2 70.6,253.2 	"/>
	<rect x="100.4" y="353.7" class="st21" width="209" height="7.1"/>
	<rect x="100.4" y="353.7" class="st22" width="142.9" height="7.1"/>
	<polygon class="st23" points="213.4,253.2 218.8,253.2 249.1,354 243.2,353.7 	"/>
	<path class="st21" d="M142.3,312.4c2.3,7.2,9.2,11.4,15.4,9.4s9.2-9.5,6.9-16.6s-9.2-11.4-15.4-9.4S139.9,305.2,142.3,312.4z"/>
	<path class="st4" d="M428.2,307.1h39.8l0,0v45.5c0,4.6-3.7,8.3-8.3,8.3h-23.2c-4.6,0-8.3-3.7-8.3-8.3L428.2,307.1L428.2,307.1z"/>
	<path class="st4" d="M474.1,350.2h-12.9v-37.7h12.9c6.1,0,11,4.9,11,11l0,0v15.7C485.1,345.3,480.2,350.2,474.1,350.2
		C474.1,350.2,474.1,350.2,474.1,350.2z M466.9,344.5h7.2c2.9,0,5.3-2.4,5.3-5.3v-15.7c0-2.9-2.4-5.3-5.3-5.3h-7.2V344.5z"/>
	<path class="st22" d="M437.7,360.9h20.9c5.2,0,9.5-4.2,9.5-9.4c0,0,0,0,0,0v-6.2c-10.8,7.9-26.7-9.5-39.8-15.2v21.5
		C428.2,356.7,432.5,360.9,437.7,360.9C437.7,360.9,437.7,360.9,437.7,360.9z"/>
	<path class="st10" d="M533.7,151H417.1c-3,0-5.4,2.4-5.4,5.4v7.7l-14.2,7.1l14.1,7.1v7.7c0,3,2.4,5.4,5.4,5.4h116.6
		c3,0,5.4-2.4,5.4-5.4v-29.6C539.1,153.4,536.7,151,533.7,151z"/>
	<polygon class="st0" points="428.5,177.6 423.1,179.5 423.3,173.8 419.9,169.3 425.3,167.7 428.5,163 431.7,167.7 437.1,169.3 
		433.7,173.8 433.8,179.5 	"/>
	<polygon class="st0" points="452.1,177.6 446.8,179.5 446.9,173.8 443.5,169.3 448.9,167.7 452.1,163 455.3,167.7 460.8,169.3 
		457.3,173.8 457.5,179.5 	"/>
	<polygon class="st0" points="475.7,177.6 470.4,179.5 470.5,173.8 467.1,169.3 472.5,167.7 475.7,163 478.9,167.7 484.4,169.3 
		480.9,173.8 481.1,179.5 	"/>
	<polygon class="st0" points="499.4,177.6 494,179.5 494.2,173.8 490.7,169.3 496.1,167.7 499.4,163 502.6,167.7 508,169.3 
		504.5,173.8 504.7,179.5 	"/>
	<polygon class="st4" points="523,177.6 517.6,179.5 517.8,173.8 514.3,169.3 519.8,167.7 523,163 526.2,167.7 531.6,169.3 
		528.2,173.8 528.3,179.5 	"/>
</g>
</svg>
