<svg id="Ñëîé_1" data-name="Ñëîé 1" xmlns="http://www.w3.org/2000/svg" xmlns:xlink="http://www.w3.org/1999/xlink" viewBox="0 0 348.55 249.18"><defs><style>.cls-1{fill:#d4ecff;}.cls-2{fill:#ff2c9c;}.cls-3{fill:#173d7a;}.cls-4{fill:#fdd762;}.cls-5{fill:#ffc2b0;}.cls-6{fill:#8a2ae3;}.cls-7{fill:#983be9;}.cls-8{fill:#fff;}.cls-9{fill:#ea9c92;}.cls-10{fill:#b45ef4;}.cls-11{fill:#d8892b;}.cls-12{fill:#d29fff;}.cls-13{fill:#721bd5;}.cls-14{fill:#e8a200;}.cls-15{fill:#f9bf30;}.cls-16{fill:#d3008d;}.cls-17{fill:#95d359;}.cls-18{fill:#c13d1a;}.cls-19{fill:#db5126;}.cls-20{fill:#ef602e;}.cls-21{fill:#5793ce;}.cls-22{fill:#396caa;}.cls-23{fill:url(#Áåçûìÿííûé_ãðàäèåíò_242);}.cls-24{fill:#eaeaea;}.cls-25{fill:#274f89;}</style><radialGradient id="Áåçûìÿííûé_ãðàäèåíò_242" cx="130.79" cy="159.31" r="54.7" gradientUnits="userSpaceOnUse"><stop offset="0" stop-color="#01c8ef"/><stop offset="0.09" stop-color="#03bee9"/><stop offset="0.24" stop-color="#08a5d7"/><stop offset="0.43" stop-color="#107bbb"/><stop offset="0.45" stop-color="#1177b8"/><stop offset="1" stop-color="#112564"/></radialGradient></defs><ellipse class="cls-1" cx="147.82" cy="187.97" rx="22.07" ry="12.74"/><path class="cls-2" d="M91.27,58.2s.57,11.7,1.46,19.56,19.83-6,19.83-6V62.77Z" transform="translate(44.07 -24.28)"/><path class="cls-3" d="M101.36,203.76c.28.72,5.19,6.69,10.09,8.18a11.12,11.12,0,0,0,4.51.62,1.49,1.49,0,0,0,1.21-2,18.71,18.71,0,0,0-9.41-10.37C99.44,196.08,101.36,203.76,101.36,203.76Z" transform="translate(44.07 -24.28)"/><path class="cls-3" d="M99.72,206.06a40.71,40.71,0,0,1,2.42,8c.35,2.21-.87,5.09-1.87,7a2,2,0,0,1-3.18.55,11.81,11.81,0,0,1-4-7.61c-.57-6.11,0-7.18,0-7.18Z" transform="translate(44.07 -24.28)"/><path class="cls-4" d="M87.9,132.15a116.21,116.21,0,0,0,0,16.24c.64,8.54,2.93,48.44,3.36,58,0,0-.21,2.91,5.41,2.27s5.18-3.87,5.18-3.87,7.9-.11,8.15-4.76,8.09-55.62,8.09-73.94Z" transform="translate(44.07 -24.28)"/><path class="cls-5" d="M121,92.26l3.87,6,13.31,16.07a3,3,0,0,1-2.11,1.88c-1.3.31-12.49-10.37-17.32-15a3.71,3.71,0,0,1-.51-4.72Z" transform="translate(44.07 -24.28)"/><path class="cls-6" d="M113.46,67.65s6.15-.16,8.29,8.73,3.82,20,2,20.94c-5.59,2.78-9.12-.47-9.12-.47Z" transform="translate(44.07 -24.28)"/><path class="cls-7" d="M115.3,68a5,5,0,0,0-3.32-.18C106.74,69.35,87,75.13,83.8,77.91,80,81.11,89.42,99.13,89.29,105s-.8,12.87-1.33,19.29-1.23,9.94,4,12.67,14.22,2.86,20.93-2.26,5.49-8.61,5.22-12.33-2.57-19.77-2.37-24.33a17.34,17.34,0,0,0,4.12-4.73c1.75-3-1.35-8.48-2.63-12s.72-7.65.33-10.57A3.32,3.32,0,0,0,115.3,68Z" transform="translate(44.07 -24.28)"/><path class="cls-8" d="M109,74.17c.42,3.25-2.56,6.3-6.65,6.82s-7.73-1.68-8.15-4.92,2.56-6.3,6.65-6.83S108.59,70.93,109,74.17Z" transform="translate(44.07 -24.28)"/><path class="cls-5" d="M106.89,74.44c.3,2.32-1.83,4.5-4.75,4.88s-5.53-1.2-5.83-3.52,1.83-4.51,4.75-4.88S106.59,72.12,106.89,74.44Z" transform="translate(44.07 -24.28)"/><path class="cls-5" d="M104,66.83s-3.56-2.93-4.26-1.45-1.27,7.84-1.27,7.84l7.06,1.9-1.07-6.44S105.86,67.48,104,66.83Z" transform="translate(44.07 -24.28)"/><circle class="cls-5" cx="104.5" cy="59.24" r="10.54" transform="translate(74.03 129.16) rotate(-81.2)"/><path class="cls-9" d="M99.24,67.23q-.09.49-.18,1c.71,3.67,6.2,5.27,6.2,5.27l-.81-4.87s.66-.57.48-1.13C102.76,66.86,100,66.26,99.24,67.23Z" transform="translate(44.07 -24.28)"/><circle class="cls-5" cx="104.5" cy="59.24" r="10.54" transform="translate(74.03 129.16) rotate(-81.2)"/><polygon class="cls-5" points="122.59 79.59 123.77 107.81 127.89 108.23 130.58 82.83 122.59 79.59"/><path class="cls-6" d="M92.08,101.51c-.23-1-2-1.79-2.31-3.07A114.79,114.79,0,0,1,88,82.18L86.86,95.42c1.33,3.92,2.47,7.53,2.43,9.62-.08,3.46-.35,7.3-.66,11.17h0S93.44,107.54,92.08,101.51Z" transform="translate(44.07 -24.28)"/><path class="cls-10" d="M84.58,77.33s-3.29,1.26-5.16,11.39-3.26,20.28.06,21.59,6.11,2.29,7.09-.42,1.59-15.77,1.71-20.46S88.58,78.26,84.58,77.33Z" transform="translate(44.07 -24.28)"/><path class="cls-5" d="M137.2,113.16a8.75,8.75,0,0,1,3.08,2.06,19.52,19.52,0,0,1,2.1,2.82c1,1.54,1.9,4.85,1.27,5.26s-4.21-5.55-4.79-4.16,0,2.67-.73,2.69-3.32-6-5.34-7.86S137.2,113.16,137.2,113.16Z" transform="translate(44.07 -24.28)"/><path class="cls-11" d="M101.85,204.83a15.58,15.58,0,0,0,2.25-.23h0l1.55-62Z" transform="translate(44.07 -24.28)"/><path class="cls-7" d="M95.88,171.32l-2.2-2.86L70.6,155.09a3.19,3.19,0,0,1-1.34-2.56l0-18.9L68,131.9l1.25-.72h0a.86.86,0,0,1,.91,0l26.16,15.15a3.2,3.2,0,0,1,1.33,2.56l0,20.58a1.17,1.17,0,0,1-.49,1.1h0Z" transform="translate(44.07 -24.28)"/><path class="cls-12" d="M79.91,160.49l-1.64-1-9-15.64V133.63L68,131.9l1.25-.72h0a.86.86,0,0,1,.91,0l26.16,15.15a2.62,2.62,0,0,1,1,1.15Z" transform="translate(44.07 -24.28)"/><path class="cls-12" d="M68.54,132.67,68,131.9l1.25-.72h0a.86.86,0,0,1,.91,0l.46.27Z" transform="translate(44.07 -24.28)"/><path class="cls-7" d="M96.5,146.55a3.38,3.38,0,0,1,1.1,2.2L95,150.22l-1.22-2.12Z" transform="translate(44.07 -24.28)"/><path class="cls-10" d="M95,147.1,68.86,132c-.74-.42-1.34,0-1.34,1l0,20.58a3.21,3.21,0,0,0,1.33,2.56L95,171.26c.74.42,1.34,0,1.35-1l0-20.58A3.22,3.22,0,0,0,95,147.1Z" transform="translate(44.07 -24.28)"/><path class="cls-5" d="M79.73,131.85s-1.09,6.59-.92,8.7,1.29,5.59,2.15,5.51,0-8.48,1.53-7.64,1.66,2.27,2.34,1.77-1.18-7.7-.69-10.82S79.73,131.85,79.73,131.85Z" transform="translate(44.07 -24.28)"/><path class="cls-9" d="M108.55,60.16c5.29,1.88,6.32.73,6.37.67a7.77,7.77,0,0,0,.1-1,10.45,10.45,0,0,0-.35-3.37L101,54.64A15,15,0,0,0,108.55,60.16Z" transform="translate(44.07 -24.28)"/><path class="cls-2" d="M115.4,49.36c-1.24-1.07-5.74-6.36-13.8-5.11-5,.78-9.28,4.22-10.22,12a18,18,0,0,0,4.87,14.33,3.39,3.39,0,0,0,.57-.29c2-1.33,2.24-2.06,2.24-2.06l.45-4a1.12,1.12,0,0,0-1-1.11,2,2,0,0,1-1.48-.9c-1.15-1.52-.62-3.88,1.7-4A1.79,1.79,0,0,0,100.57,57a.94.94,0,0,1,1.23-.64c2.63.95,9.12,3,13.3,1.82C120.44,56.66,116.65,50.42,115.4,49.36Z" transform="translate(44.07 -24.28)"/><path class="cls-8" d="M109.4,64.92l3.22-.88a7.8,7.8,0,0,1-3.79,3c-2.24.61-2.59-1.29-2.59-1.29Z" transform="translate(44.07 -24.28)"/><polygon class="cls-12" points="129.29 115.7 126.54 114.13 127.57 115.81 128.96 116.32 129.29 115.7"/><polygon class="cls-1" points="80.4 228.81 65.18 220.02 49.95 228.81 65.18 237.6 80.4 228.81"/><polygon class="cls-13" points="65.18 227.74 65.18 206.69 81.23 197.43 81.23 218.47 65.18 227.74"/><polygon class="cls-10" points="65.18 206.69 49.13 197.43 49.13 218.47 65.18 227.74 65.18 206.69"/><polygon class="cls-14" points="65.18 206.69 65.18 191.83 81.23 182.56 81.23 197.43 65.18 206.69"/><polygon class="cls-15" points="65.18 191.83 49.13 182.56 49.13 197.43 65.18 206.69 65.18 191.83"/><polygon class="cls-16" points="65.18 191.83 65.18 181.17 81.23 171.9 81.23 182.56 65.18 191.83"/><polygon class="cls-16" points="65.18 181.17 49.13 171.9 49.13 182.56 65.18 191.83 65.18 181.17"/><polygon class="cls-2" points="81.23 171.9 65.18 162.63 49.13 171.9 65.18 181.17 81.23 171.9"/><rect class="cls-4" x="14.82" y="141.54" width="2.25" height="6.55" transform="translate(-49.37 216.76) rotate(-125.06)"/><rect class="cls-4" x="16.73" y="137.44" width="2.25" height="6.55" transform="translate(-43.01 211.87) rotate(-125.05)"/><rect class="cls-4" x="18.64" y="133.35" width="2.25" height="6.55" transform="translate(-36.64 206.99) rotate(-125.06)"/><rect class="cls-4" x="20.55" y="129.25" width="2.25" height="6.55" transform="translate(-30.28 202.11) rotate(-125.06)"/><rect class="cls-2" x="280.82" y="32.42" width="1.75" height="5.08" transform="translate(596.64 -74.15) rotate(155.53)"/><rect class="cls-2" x="277.96" y="30.38" width="1.75" height="5.08" transform="translate(590.34 -76.88) rotate(155.53)"/><rect class="cls-2" x="275.11" y="28.34" width="1.75" height="5.08" transform="translate(584.05 -79.61) rotate(155.53)"/><rect class="cls-2" x="272.26" y="26.29" width="1.75" height="5.08" transform="translate(577.75 -82.33) rotate(155.53)"/><polygon class="cls-1" points="321.48 145.29 300.12 132.96 278.75 145.29 300.12 157.63 321.48 145.29"/><polygon class="cls-13" points="310.12 125.35 310.12 48.51 328.27 38.03 328.27 114.87 310.12 125.35"/><polygon class="cls-10" points="310.12 48.51 291.97 38.03 291.97 114.87 310.12 125.35 310.12 48.51"/><polygon class="cls-6" points="328.27 38.03 310.12 27.55 291.97 38.03 310.12 48.51 328.27 38.03"/><polygon class="cls-17" points="328.27 128.84 310.12 118.36 310.12 125.35 328.27 135.83 328.27 128.84"/><polygon class="cls-18" points="291.97 135.83 291.97 79.94 310.12 69.47 310.12 125.35 291.97 135.83"/><polygon class="cls-19" points="291.97 79.94 273.82 69.47 273.82 125.35 291.97 135.83 291.97 79.94"/><polygon class="cls-20" points="310.12 69.47 291.97 58.99 273.82 69.47 291.97 79.94 310.12 69.47"/><polygon class="cls-16" points="291.97 135.83 291.97 79.94 310.12 69.47 310.12 125.35 291.97 135.83"/><polygon class="cls-16" points="291.97 79.94 273.82 69.47 273.82 125.35 291.97 135.83 291.97 79.94"/><polygon class="cls-2" points="310.12 69.47 291.97 58.99 273.82 69.47 291.97 79.94 310.12 69.47"/><polygon class="cls-14" points="310.12 146.31 310.12 114.87 328.27 104.39 328.27 135.83 310.12 146.31"/><polygon class="cls-15" points="310.12 114.87 291.97 104.39 291.97 135.83 310.12 146.31 310.12 114.87"/><polygon class="cls-4" points="328.27 104.39 310.12 93.92 291.97 104.39 310.12 114.87 328.27 104.39"/><path class="cls-1" d="M184.8,248.66a19.07,19.07,0,0,0-2.32-1.11h0l-4.46-2,.34.78a28.9,28.9,0,0,0-10.45-.11l.2-.86-5.24,2.32h0a17,17,0,0,0-2,1c-6.58,3.8-6.58,10,0,13.76s17.25,3.8,23.84,0S191.38,252.46,184.8,248.66Z" transform="translate(44.07 -24.28)"/><path class="cls-21" d="M178.46,252.25a12.35,12.35,0,0,1-11.17,0c-3.08-1.78-3.08-4.67,0-6.45a12.35,12.35,0,0,1,11.17,0C181.55,247.58,181.55,250.47,178.46,252.25Z" transform="translate(44.07 -24.28)"/><path class="cls-21" d="M172.88,250.25h0a2.68,2.68,0,0,1-2.69-2.68V213.62h5.37v33.95A2.68,2.68,0,0,1,172.88,250.25Z" transform="translate(44.07 -24.28)"/><path class="cls-21" d="M174.77,214.85a4.28,4.28,0,0,1-3.88,0,1.18,1.18,0,0,1,0-2.23,4.28,4.28,0,0,1,3.88,0A1.18,1.18,0,0,1,174.77,214.85Z" transform="translate(44.07 -24.28)"/><path class="cls-1" d="M172.88,214.79h0a2.19,2.19,0,0,1-2.18-2.18V180.7h4.35v31.91A2.18,2.18,0,0,1,172.88,214.79Z" transform="translate(44.07 -24.28)"/><path class="cls-22" d="M204.18,197.42v-1.25l1.76-.25,2-1.48a1.33,1.33,0,0,1,1.3-.05l1.46.84,1.44-.21v1.27h0a.49.49,0,0,1-.33.38l-4.61,2.05a1.43,1.43,0,0,1-1.2,0l-1.54-.89a.47.47,0,0,1-.26-.37Z" transform="translate(44.07 -24.28)"/><path class="cls-21" d="M204.37,195.84l3.55-2.66a1.33,1.33,0,0,1,1.3-.05l2.65,1.53c.37.21.33.57-.08.75l-4.61,2.05a1.4,1.4,0,0,1-1.2,0l-1.54-.89C204.12,196.35,204.09,196.05,204.37,195.84Z" transform="translate(44.07 -24.28)"/><path class="cls-1" d="M198.38,201.86a2.85,2.85,0,0,0,1.42-.35l5.52-3.18a.64.64,0,0,0-.64-1.11l-5.52,3.19a1.8,1.8,0,0,1-1.57,0l-9.17-5.31a.64.64,0,1,0-.64,1.1l9.18,5.31A2.8,2.8,0,0,0,198.38,201.86Z" transform="translate(44.07 -24.28)"/><polygon class="cls-23" points="189.39 165.91 198.25 160.76 193.28 158.52 189.04 161.53 189.39 165.91"/><path class="cls-21" d="M202.22,182.55a11.69,11.69,0,0,1-1.49-.93l-18.88-13.84c-3.41-2.5-6.92-3.14-9.64-1.77l-.2.13h0l-26.07,15.13,2.34.78,9.13,4.14L169.82,195l9.8,5.2.45.09c2.28-1.92,4.84-3.57,6.25-6.38,2.42-4.25,9.18-5.47,13.16-8.91.4.25.8.49,1.2.7C201.5,184.89,201.72,183.75,202.22,182.55Z" transform="translate(44.07 -24.28)"/><path class="cls-22" d="M210.5,176.31a1.76,1.76,0,0,0-1.07.37h0l-25.52,14.77.93,3.82,1-.46c-1.46,2.28-3.7,3.78-5.73,5.49l2.88.61,25-14.54a3.68,3.68,0,0,0,.35-.15,6,6,0,0,0,1-.61l0,0h0c1.9-1.47,3-4,3-7.22v-.3A1.75,1.75,0,0,0,210.5,176.31Z" transform="translate(44.07 -24.28)"/><path class="cls-24" d="M175.56,165.31a10.67,10.67,0,0,1,5,1.62A10.67,10.67,0,0,0,175.56,165.31Z" transform="translate(44.07 -24.28)"/><path class="cls-21" d="M187.18,192.63v-.3a1.76,1.76,0,0,0-3.51,0v.3c0,2.35-.75,4.07-2,4.73-1.46.74-3.7.2-6-1.47l-18.88-13.83c-2.91-2.13-5.88-2.9-8.38-2.23l15.6-9.05-18.07,10.48,2.34.78,9.13,4.14L169.82,195l9.8,5.2.45.09c2.28-1.92,4.84-3.57,6.25-6.38a7.07,7.07,0,0,1,.85-1.18S187.18,192.67,187.18,192.63Z" transform="translate(44.07 -24.28)"/><path class="cls-1" d="M179.61,201.76a11.41,11.41,0,0,1-6.57-2.47l-18.88-13.84c-2.27-1.66-4.5-2.21-6-1.47-1.3.66-2,2.38-2,4.73a1.76,1.76,0,0,1-3.51,0c0-3.71,1.45-6.58,4-7.85,2.71-1.38,6.22-.74,9.63,1.76l18.88,13.84c2.27,1.66,4.51,2.21,6,1.47,1.3-.66,2-2.38,2-4.73v-.3a1.76,1.76,0,0,1,3.51,0v.3c0,3.71-1.45,6.58-4,7.85A6.65,6.65,0,0,1,179.61,201.76Z" transform="translate(44.07 -24.28)"/><path class="cls-3" d="M164.77,232.7s-3.55-1.8-5.74.87-5.3,9-5.4,13.24,3.37,4,5.43,3,8.08-9.74,8.45-11.45-.43-4-1-4.48S164.77,232.7,164.77,232.7Z" transform="translate(44.07 -24.28)"/><path class="cls-1" d="M165.55,231.84l.16,3.69a2.07,2.07,0,0,1-1,1.91,4.14,4.14,0,0,1-2.74.43c-2.68-.43-2.92-1.2-3.11-4.88S165.55,231.84,165.55,231.84Z" transform="translate(44.07 -24.28)"/><path class="cls-3" d="M151.76,225.61s-3.56-1.79-5.75.88-5.3,9-5.4,13.23,3.37,4,5.43,3,8.09-9.74,8.45-11.46a5.89,5.89,0,0,0-1-4.47C152.9,226.3,151.76,225.61,151.76,225.61Z" transform="translate(44.07 -24.28)"/><path class="cls-1" d="M152.53,224.76l.17,3.68a2.1,2.1,0,0,1-1,1.92,4.08,4.08,0,0,1-2.74.42c-2.68-.43-2.92-1.19-3.11-4.88S152.53,224.76,152.53,224.76Z" transform="translate(44.07 -24.28)"/><path class="cls-16" d="M184.26,157.12c-1-17.13-18.54,2.51-18.54,2.51l-12,11.74L143,183.21a10.69,10.69,0,0,0-2.68,8.54L144.64,225a3.28,3.28,0,0,0,3.28,2.84,11.31,11.31,0,0,0,1.61-.14,4.07,4.07,0,0,0,3.61-4.31l-.8-31.06L175,178.64S185.32,174.24,184.26,157.12Z" transform="translate(44.07 -24.28)"/><path class="cls-2" d="M197.28,163.64c-1.05-17.13-18.55,2.52-18.55,2.52l-12,11.74L156,189.74a10.61,10.61,0,0,0-2.68,8.54l4.36,33.21a3.27,3.27,0,0,0,3.27,2.84,11.46,11.46,0,0,0,1.62-.15,4,4,0,0,0,3.6-4.3l-.79-31.06L188,185.17S198.33,180.77,197.28,163.64Z" transform="translate(44.07 -24.28)"/><path class="cls-21" d="M186.93,108.67c13.26,5.49,13,13.33,13,13.33s-2.6,28.75-1.71,47.94c.37,8-42.64,8.64-36.22-12.77,7.56-25.24,4.72-45.68,8.26-48.76S183.5,107.24,186.93,108.67Z" transform="translate(44.07 -24.28)"/><path class="cls-5" d="M191.2,115.62c-.7,2.69-4.22,4.11-7.88,3.17s-6.06-3.89-5.37-6.58,4.22-4.12,7.88-3.17S191.89,112.92,191.2,115.62Z" transform="translate(44.07 -24.28)"/><path class="cls-8" d="M185.58,119.71a9.68,9.68,0,0,1-2.42-.31c-4-1-6.6-4.33-5.83-7.35a5.06,5.06,0,0,1,3.21-3.38,8.82,8.82,0,0,1,5.45-.25c4,1,6.6,4.33,5.82,7.36h0a5,5,0,0,1-3.2,3.37A8,8,0,0,1,185.58,119.71Zm-2-10.33a6.92,6.92,0,0,0-2.55.46,3.89,3.89,0,0,0-2.45,2.52c-.6,2.35,1.6,5,4.92,5.81a7.47,7.47,0,0,0,4.65-.19,3.83,3.83,0,0,0,2.45-2.52h0c.61-2.35-1.6-5-4.91-5.81A8.6,8.6,0,0,0,183.56,109.38Z" transform="translate(44.07 -24.28)"/><path class="cls-5" d="M181.61,108.07a31.42,31.42,0,0,1-.11,4.73c-.07,1.32,4.55,2.56,5.75,1.36s.72-2.44,1-6.93S181.61,108.07,181.61,108.07Z" transform="translate(44.07 -24.28)"/><path class="cls-9" d="M188.25,107.23s-1.14,4.17-6.75,5.76l.08-3.78Z" transform="translate(44.07 -24.28)"/><circle class="cls-5" cx="181.93" cy="99.19" r="10.21" transform="translate(48.63 182.04) rotate(-59.73)"/><path class="cls-9" d="M184.27,99.56s-5.62,2.41-9.51,2.44-3-3.23-3-3.23l11.56-1.67Z" transform="translate(44.07 -24.28)"/><path class="cls-7" d="M173.6,100.2s4.89-2.08,9.19-1.21a4.48,4.48,0,0,1,2.6,1.54,1.54,1.54,0,0,0,.78.57c.76.17,2-3,3.49-3.06s2.47,1,1.26,2.92-.81,4.11-.25,4.43,6.48-4.23,1.26-14.58-18.5-4.78-20.57-2.68c0,0-2.17,1.9-3.94.21C167.42,88.34,165.43,103.19,173.6,100.2Z" transform="translate(44.07 -24.28)"/><path class="cls-5" d="M192.49,143v7.77a3.19,3.19,0,0,1-1,2.34l-16,14.54,1.81,2.78,21.07-15.28a4.29,4.29,0,0,0,1.75-3l1.42-13.55Z" transform="translate(44.07 -24.28)"/><path class="cls-21" d="M198.81,118.12s4.84,7.28,6.64,26.44c0,0-8.27,2.68-13,1.16S198.81,118.12,198.81,118.12Z" transform="translate(44.07 -24.28)"/><path class="cls-22" d="M191.6,127.33s-1.89,10.14-2,14.9a3,3,0,0,0,2,2.94h0Z" transform="translate(44.07 -24.28)"/><path class="cls-3" d="M187.46,177.75l-3.52-.46-22.76-13.14a3.16,3.16,0,0,0-2.85.11l-16.13,9.31-2.13-.28v2.12h0a.81.81,0,0,0,.49.75l25.79,14.9a3.2,3.2,0,0,0,2.85-.12l17.57-10.14a1.14,1.14,0,0,0,.69-1h0Z" transform="translate(44.07 -24.28)"/><path class="cls-22" d="M170.36,169.45l-1.62-.93H151l-8.76,5-2.13-.28v2.12h0a.81.81,0,0,0,.49.75l25.79,14.9a2.68,2.68,0,0,0,1.47.27Z" transform="translate(44.07 -24.28)"/><path class="cls-21" d="M141,173.42l-.94-.13v2.12h0a.81.81,0,0,0,.49.75l.45.26Z" transform="translate(44.07 -24.28)"/><path class="cls-25" d="M166.61,191.18A3.34,3.34,0,0,0,169,191v-3.62h-2.42Z" transform="translate(44.07 -24.28)"/><path class="cls-8" d="M166.35,188.93,140.56,174c-.73-.42-.64-1.16.2-1.64l17.57-10.14a3.16,3.16,0,0,1,2.85-.12L187,177c.73.43.64,1.16-.2,1.65L169.2,188.82A3.16,3.16,0,0,1,166.35,188.93Z" transform="translate(44.07 -24.28)"/><path class="cls-1" d="M165.92,186.68l-21.45-12.39c-.61-.35-.53-1,.17-1.36l9.41-5.3a2.65,2.65,0,0,1,2.37-.1l21.45,12.39c.61.35.53,1-.17,1.37l-9.41,5.29A2.65,2.65,0,0,1,165.92,186.68Z" transform="translate(44.07 -24.28)"/><path class="cls-5" d="M159.33,161.77l-.27,1.78a13.18,13.18,0,0,0,.11,4.56l.32,1.57a2.2,2.2,0,0,0,1.77,1.73h0a1.22,1.22,0,0,0,1.43-1.06l.42-3.8s1,1.27,1.45,1.27-.53-3.81-1.59-6S159.33,161.77,159.33,161.77Z" transform="translate(44.07 -24.28)"/><path class="cls-5" d="M168.07,133.48,165.3,139a10.75,10.75,0,0,0-1.13,4.16L163,161.86l-3.64-.09-1.66-21.05a7.44,7.44,0,0,1,.1-1.94l1.88-10.67Z" transform="translate(44.07 -24.28)"/><path class="cls-3" d="M165.48,190.37l-2.16-2.83-22.75-13.17a3.16,3.16,0,0,1-1.32-2.52l0-18.63L138,151.51l1.23-.71h0a.85.85,0,0,1,.9.06l25.78,14.92a3.13,3.13,0,0,1,1.31,2.53l0,20.28a1.15,1.15,0,0,1-.48,1.08h0Z" transform="translate(44.07 -24.28)"/><path class="cls-22" d="M149.75,179.69l-1.62-.94-8.87-15.41V153.22L138,151.51l1.23-.71h0a.85.85,0,0,1,.9.06l25.78,14.92a2.7,2.7,0,0,1,1,1.14Z" transform="translate(44.07 -24.28)"/><path class="cls-21" d="M138.54,152.27l-.58-.76,1.23-.71h0a.85.85,0,0,1,.9.06l.45.26Z" transform="translate(44.07 -24.28)"/><path class="cls-25" d="M166.1,166a3.29,3.29,0,0,1,1.08,2.17l-2.52,1.45-1.21-2.09Z" transform="translate(44.07 -24.28)"/><path class="cls-21" d="M164.64,166.49l-25.78-14.92c-.73-.43-1.32,0-1.32,1l0,20.29a3.16,3.16,0,0,0,1.32,2.52l25.78,14.93c.73.42,1.32,0,1.32-1L166,169A3.18,3.18,0,0,0,164.64,166.49Z" transform="translate(44.07 -24.28)"/><path class="cls-5" d="M177.31,170.43l-.41.85a5.71,5.71,0,0,1-2.15,2.39l-2.57,1.58a2.55,2.55,0,0,1-2.61.06l-.09-.05a1.55,1.55,0,0,1-.21-2.37l2.67-2.75s-1.5,1.15-1.92.69,1.46-2,2.81-2.06a5.3,5.3,0,0,0,2.67-1.12Z" transform="translate(44.07 -24.28)"/><path class="cls-21" d="M170.53,108.37s-9.81,10.68-13.77,20.47a20,20,0,0,0,11.57,8.41C176.54,139.62,170.53,108.37,170.53,108.37Z" transform="translate(44.07 -24.28)"/><path class="cls-22" d="M166.48,136.62l1.59-15.36-3.75,14.39A21.59,21.59,0,0,0,166.48,136.62Z" transform="translate(44.07 -24.28)"/><path class="cls-8" d="M177.88,106.22l-2.64-.73a6.39,6.39,0,0,0,3.1,2.49c1.83.5,2.12-1,2.12-1Z" transform="translate(44.07 -24.28)"/><circle class="cls-8" cx="220.03" cy="13.56" r="1.44"/><polygon class="cls-1" points="304.34 237.95 288.52 228.81 272.69 237.95 288.52 247.08 304.34 237.95"/><polygon class="cls-14" points="288.52 238.61 288.52 228.32 307.42 217.4 307.42 227.7 288.52 238.61"/><polygon class="cls-15" points="288.52 228.32 269.61 217.4 269.61 227.7 288.52 238.61 288.52 228.32"/><polygon class="cls-4" points="307.42 217.4 288.52 206.49 269.61 217.4 288.52 228.32 307.42 217.4"/><polygon class="cls-14" points="301.05 217.4 288.52 210.17 275.98 217.4 288.52 224.64 301.05 217.4"/><polygon class="cls-16" points="288.52 218.77 288.52 208.48 307.42 197.57 307.42 207.86 288.52 218.77"/><polygon class="cls-16" points="288.52 208.48 269.61 197.57 269.61 207.86 288.52 218.77 288.52 208.48"/><polygon class="cls-2" points="307.42 197.57 288.52 186.66 269.61 197.57 288.52 208.48 307.42 197.57"/><rect class="cls-10" x="295.66" y="125.81" width="9.5" height="2" transform="translate(42.39 225.28) rotate(-45)"/><rect class="cls-10" x="299.41" y="122.06" width="2" height="9.5" transform="translate(42.39 225.28) rotate(-45)"/><rect class="cls-10" x="27.12" y="27.35" width="9.5" height="2" transform="translate(33.36 6.56) rotate(-45)"/><rect class="cls-10" x="30.87" y="23.6" width="2" height="9.5" transform="translate(33.36 6.56) rotate(-45)"/><path class="cls-2" d="M178.67,51a9.17,9.17,0,1,1,9.17-9.17A9.18,9.18,0,0,1,178.67,51Zm0-16.33a7.17,7.17,0,1,0,7.17,7.16A7.17,7.17,0,0,0,178.67,34.65Z" transform="translate(44.07 -24.28)"/><circle class="cls-4" cx="214.57" cy="23.57" r="6.62"/><circle class="cls-4" cx="139.77" cy="235.01" r="4.86"/><circle class="cls-4" cx="86.09" cy="62.69" r="4.86"/><path class="cls-10" d="M83.45,272a2.22,2.22,0,1,1-4.15-1.56A2.22,2.22,0,0,1,83.45,272Z" transform="translate(44.07 -24.28)"/><rect class="cls-2" x="67.04" y="253.66" width="9.23" height="9.23" transform="translate(139.8 -32.96) rotate(20.66)"/><path class="cls-10" d="M-26.33,207a2.22,2.22,0,0,1-2.86,1.29,2.21,2.21,0,0,1-1.29-2.85,2.22,2.22,0,0,1,2.86-1.3A2.22,2.22,0,0,1-26.33,207Z" transform="translate(44.07 -24.28)"/><rect class="cls-4" x="-42.74" y="188.62" width="9.23" height="9.23" transform="translate(109.79 1.59) rotate(20.66)"/><path class="cls-10" d="M286.21,209.5a2.22,2.22,0,1,1-1.29-2.86A2.22,2.22,0,0,1,286.21,209.5Z" transform="translate(44.07 -24.28)"/><rect class="cls-4" x="269.8" y="191.13" width="9.23" height="9.23" transform="translate(130.77 -108.51) rotate(20.66)"/></svg>