<svg xmlns="http://www.w3.org/2000/svg" viewBox="0 0 311.09 184.33"><defs><style>.cls-1{fill:#d8d8d8;}.cls-2{fill:#fff1d6;}.cls-3{fill:#252956;}.cls-4{fill:#a27cf5;}.cls-5{fill:#1b2044;}.cls-6{fill:#ee9d7f;}.cls-7{fill:#e67052;}.cls-8{fill:#f3b294;}.cls-9{fill:#963734;}.cls-10{fill:#aa3c3c;}.cls-11{fill:#f4a517;}.cls-12{fill:#8865e5;}.cls-13{fill:#f5f9fc;}.cls-14{fill:#f9b640;}.cls-15{fill:#e59429;}.cls-16{fill:#fce2c0;}.cls-17{fill:#d8dfe9;}.cls-18{fill:#c86cdb;}.cls-19{fill:#2e87cd;}.cls-20{fill:#c92f3b;}.cls-21{fill:#e03d51;}.cls-22{fill:#e28c71;}.cls-23{fill:#fcdcda;}.cls-24{fill:#efbebd;}.cls-25{fill:#fc76b2;}.cls-26{fill:#fff;}.cls-27{fill:#414682;}.cls-28{fill:#e39ae8;}.cls-29{fill:#c8d1db;}.cls-30{fill:#dfe7ef;}.cls-31{fill:#b6c3d3;}.cls-32{fill:#f9b5a0;}.cls-33{fill:#f28f19;}.cls-34{fill:#b159c6;}.cls-35{fill:#ffaa83;}</style></defs><g id="object"><path class="cls-1" d="M716.82,515.77c0,2.66-69.6,4.81-155.46,4.81s-155.47-2.15-155.47-4.81S475.5,511,561.36,511,716.82,513.11,716.82,515.77Z" transform="translate(-405.73 -336.93)"/><path class="cls-2" d="M581.91,486.05a7,7,0,0,1-7,7h-148a7,7,0,0,1-7-7V393a7,7,0,0,1,7-7.05h148a7,7,0,0,1,7,7.05Z" transform="translate(-405.73 -336.93)"/><polygon class="cls-3" points="118.5 179.42 72.1 179.42 74.93 139.26 114.27 139.26 118.5 179.42"/><path class="cls-3" d="M581.91,486.05a7,7,0,0,1-7,7h-148a7,7,0,0,1-7-7V393a7,7,0,0,1,7-7.05h148a7,7,0,0,1,7,7.05Z" transform="translate(-405.73 -336.93)"/><rect class="cls-4" x="20.47" y="56.13" width="148.17" height="76.09"/><path class="cls-5" d="M426.9,493.09h148a7,7,0,0,0,7-7V475.48h-162v10.57A7,7,0,0,0,426.9,493.09Z" transform="translate(-405.73 -336.93)"/><rect class="cls-5" x="49.5" y="173.08" width="89.39" height="6.34"/><path class="cls-6" d="M472.64,377.16a4,4,0,0,1,1.89-4.34c2.78-1.44,9.15-1.32,11.47-5s1-6.26.29-8.12-1.81-2.29-2.09-3.41,1.07-1.4,2.87,1.31c.86,1.31,5.88,7.23,3.91,12.11C488.4,376.1,474.16,381.83,472.64,377.16Z" transform="translate(-405.73 -336.93)"/><path class="cls-7" d="M491,369.7a.78.78,0,0,0,.05-.14c-3.83,5.18-11.26,6.66-11.26,6.66s-.1.49-.24,2C483.61,377.24,489.41,373.49,491,369.7Z" transform="translate(-405.73 -336.93)"/><path class="cls-6" d="M479.84,391.17c-1.49-7.89,1.11-11.66.28-15.73-1-4.82-9.31-3.51-12.3-2.22s-7.91,3.29-4.25,9.48c2.54,4.31,2.22,7.48,2,12.42h0c0,.13,0,.24,0,.37h0c-1.31,14.06,8.16,12.51,8.25,10.47,1.11,5.44,9.82,6.9,10.05,2.55C484.36,399.08,480,392,479.84,391.17Z" transform="translate(-405.73 -336.93)"/><path class="cls-7" d="M468.47,368.91s1.76,2.2.34,3.95,6.4,3.79,5.87,2.38c-.68-1.81-1.9-2.69-1.51-5.06Z" transform="translate(-405.73 -336.93)"/><path class="cls-8" d="M471.27,363.25c2,1.11,5.27,7.29,4,9.15-.57.81-3.74.83-6.34-1.61a5.67,5.67,0,0,1-1.92-5.54C467.25,364.11,469,362,471.27,363.25Z" transform="translate(-405.73 -336.93)"/><path class="cls-9" d="M473.08,363.65c.56.75.5,1-1.9,1.94s-2.86.93-2.47,1.46c1.17,1.56-.69,1.65.73,3.51s-1,1.1-2.31-.37a4.82,4.82,0,0,1-1.13-4.6C466.67,362.22,471.05,360.94,473.08,363.65Z" transform="translate(-405.73 -336.93)"/><path class="cls-10" d="M466,365.59a4.78,4.78,0,0,0,1.13,4.6c1,1.09,2.58,1.82,2.72,1.31s-1.47-.43-1.37-2-1-1.64-1-3,.93-1.32,3.63-2.43c1.1-.46,1.21-.95,1-1.38C469.82,361.37,466.71,362.76,466,365.59Z" transform="translate(-405.73 -336.93)"/><path class="cls-11" d="M480.69,393.1c-5.3,4-12.25,3.3-15.2,2.73-.67,7.07-1.15,12.16-1.62,15.81a30.91,30.91,0,0,0,9.52,1.23c.21-2.55.34-4.87.43-6.91a37.27,37.27,0,0,1,.66,6.88c3.84-.14,7.44-.84,9.21-2.22.08-.73.14-1.44.18-2.11A32.51,32.51,0,0,0,480.69,393.1Z" transform="translate(-405.73 -336.93)"/><path class="cls-6" d="M469.62,377.16a4,4,0,0,0-4-2.57c-3.13.34-8.42,4-12.39,2.19s-4.26-4.68-4.72-6.61.27-2.91-.11-4-1.68-.58-1.69,2.69c0,1.57-1,9.28,3.37,12.26C455.78,385,470.91,381.89,469.62,377.16Z" transform="translate(-405.73 -336.93)"/><path class="cls-7" d="M450.08,381.13,450,381c6.08,2.2,13.14-.68,13.14-.68a16.68,16.68,0,0,1,1.28,1.5C460.44,383.31,453.5,383.41,450.08,381.13Z" transform="translate(-405.73 -336.93)"/><rect class="cls-4" x="433.81" y="344.26" width="63.58" height="17.93" transform="translate(-476.61 -215.51) rotate(-13.82)"/><rect class="cls-12" x="432.12" y="344.46" width="63.58" height="3.75" transform="translate(-475.02 -216.11) rotate(-13.82)"/><rect class="cls-13" x="436.44" y="351.3" width="57.42" height="1.47" transform="translate(-476.35 -215.63) rotate(-13.82)"/><rect class="cls-13" x="437.02" y="353.67" width="57.42" height="1.47" transform="translate(-476.9 -215.44) rotate(-13.82)"/><rect class="cls-13" x="437.6" y="356.04" width="57.41" height="1.47" transform="translate(-477.45 -215.22) rotate(-13.82)"/><rect class="cls-14" x="12.91" y="106.36" width="59.45" height="59.45"/><rect class="cls-15" x="12.91" y="106.36" width="59.45" height="5.62"/><path class="cls-13" d="M423.45,446.3a1.15,1.15,0,1,1-1.14-1.3A1.23,1.23,0,0,1,423.45,446.3Z" transform="translate(-405.73 -336.93)"/><path class="cls-13" d="M426.87,446.3a1.15,1.15,0,1,1-1.14-1.3A1.23,1.23,0,0,1,426.87,446.3Z" transform="translate(-405.73 -336.93)"/><path class="cls-13" d="M430.29,446.3a1.15,1.15,0,1,1-1.14-1.3A1.23,1.23,0,0,1,430.29,446.3Z" transform="translate(-405.73 -336.93)"/><rect class="cls-16" x="15.44" y="116.9" width="53.89" height="9.93"/><rect class="cls-16" x="15.44" y="151.24" width="53.89" height="9.93"/><rect class="cls-16" x="15.44" y="128.54" width="25.77" height="8.79"/><rect class="cls-16" x="15.44" y="138.87" width="25.77" height="8.8"/><rect class="cls-16" x="45.46" y="128.54" width="23.87" height="19.14"/><rect class="cls-13" x="33.13" y="64.29" width="124.34" height="81.84" rx="5.19"/><path class="cls-17" d="M558,401.22h-114a5.19,5.19,0,0,0-5.19,5.19v9.64H563.2v-9.64A5.19,5.19,0,0,0,558,401.22Z" transform="translate(-405.73 -336.93)"/><path class="cls-13" d="M451.45,408.68a2.58,2.58,0,1,1-2.58-2.58A2.58,2.58,0,0,1,451.45,408.68Z" transform="translate(-405.73 -336.93)"/><path class="cls-13" d="M458,408.68a2.58,2.58,0,1,1-2.58-2.58A2.58,2.58,0,0,1,458,408.68Z" transform="translate(-405.73 -336.93)"/><path class="cls-13" d="M464.24,408.68a2.58,2.58,0,1,1-2.57-2.58A2.57,2.57,0,0,1,464.24,408.68Z" transform="translate(-405.73 -336.93)"/><rect class="cls-17" x="96.27" y="130.17" width="41.65" height="10.52"/><rect class="cls-17" x="38.83" y="82.05" width="52.89" height="57.25"/><path class="cls-18" d="M471,435.87a11.53,11.53,0,1,1-11.52-11.53A11.52,11.52,0,0,1,471,435.87Z" transform="translate(-405.73 -336.93)"/><path class="cls-13" d="M461.73,434.59a2.91,2.91,0,1,0-4.51,0,6.47,6.47,0,0,0-4.17,5.2h12.86A6.5,6.5,0,0,0,461.73,434.59Z" transform="translate(-405.73 -336.93)"/><rect class="cls-13" x="68.09" y="87.42" width="18.91" height="48.01"/><rect class="cls-13" x="42.22" y="112.63" width="23.05" height="22.26"/><rect class="cls-14" x="237.47" y="41.54" width="61.76" height="98.59"/><rect class="cls-15" x="237.47" y="41.54" width="61.76" height="5.83"/><path class="cls-13" d="M700,381.59a1.19,1.19,0,1,0,1.17-1.35A1.27,1.27,0,0,0,700,381.59Z" transform="translate(-405.73 -336.93)"/><path class="cls-13" d="M696.41,381.59a1.2,1.2,0,1,0,1.18-1.35A1.27,1.27,0,0,0,696.41,381.59Z" transform="translate(-405.73 -336.93)"/><path class="cls-13" d="M692.86,381.59a1.2,1.2,0,1,0,1.19-1.35A1.27,1.27,0,0,0,692.86,381.59Z" transform="translate(-405.73 -336.93)"/><rect class="cls-16" x="240.62" y="52.49" width="55.98" height="10.32"/><rect class="cls-16" x="240.62" y="88.16" width="55.98" height="10.32"/><rect class="cls-16" x="269.83" y="64.57" width="26.77" height="9.14"/><rect class="cls-16" x="269.83" y="75.31" width="26.77" height="9.14"/><rect class="cls-16" x="240.62" y="64.57" width="24.8" height="19.88"/><rect class="cls-16" x="240.62" y="125.68" width="55.98" height="10.32"/><rect class="cls-16" x="269.83" y="102.09" width="26.77" height="9.14"/><rect class="cls-16" x="269.83" y="112.84" width="26.77" height="9.14"/><rect class="cls-16" x="240.62" y="102.09" width="24.8" height="19.88"/><path class="cls-3" d="M493.47,456c-4.56-33.44-37.42-35.35-37.76-35.36-39.71.77-44.26,35-44.3,35.33l-3.17-.38c0-.38,5-37.33,47.52-38.14.46,0,36,2.08,40.88,38.11Z" transform="translate(-405.73 -336.93)"/><rect class="cls-3" y="115.41" width="7.4" height="7.41"/><rect class="cls-3" x="85.62" y="115.19" width="7.41" height="7.41"/><rect class="cls-3" x="45.11" y="73.66" width="7.41" height="7.41"/><rect class="cls-3" x="2.1" y="93.74" width="3.2" height="26.75"/><rect class="cls-3" x="87.73" y="93.51" width="3.2" height="26.75"/><path class="cls-3" d="M413.13,430a3.7,3.7,0,1,1-3.7-3.71A3.7,3.7,0,0,1,413.13,430Z" transform="translate(-405.73 -336.93)"/><path class="cls-3" d="M498.76,430.66a3.71,3.71,0,1,1-3.7-3.7A3.71,3.71,0,0,1,498.76,430.66Z" transform="translate(-405.73 -336.93)"/><rect class="cls-3" x="27.84" y="75.77" width="42.32" height="3.19"/><path class="cls-3" d="M437.27,414.29a3.71,3.71,0,1,1-3.7-3.7A3.71,3.71,0,0,1,437.27,414.29Z" transform="translate(-405.73 -336.93)"/><path class="cls-3" d="M479.59,414.29a3.7,3.7,0,1,1-3.7-3.7A3.7,3.7,0,0,1,479.59,414.29Z" transform="translate(-405.73 -336.93)"/><path class="cls-6" d="M528.3,503.51c1,4.47,3.54,10.3,3.74,13.38,0,.49,0,.67-1.62,1.1s-.09,1.38,2.62,1.42,1.57-13,.41-19.19C532.44,494.85,527.12,498.32,528.3,503.51Z" transform="translate(-405.73 -336.93)"/><path class="cls-19" d="M534.24,518.14s-2.4.94-3.82-.15c0,0-2.67.29-1,1.07S534.25,520.56,534.24,518.14Z" transform="translate(-405.73 -336.93)"/><path class="cls-6" d="M511.37,486.55c2.51,3.85,6.9,8.42,8.17,11.24.2.45.2.65-1.14,1.59s.39,1.34,3,.43-3.07-12.77-6.3-18.13C512.23,477,508.45,482.1,511.37,486.55Z" transform="translate(-405.73 -336.93)"/><path class="cls-19" d="M522,498.2s-1.93,1.71-3.63,1.18c0,0-2.41,1.21-.6,1.37S522.88,500.46,522,498.2Z" transform="translate(-405.73 -336.93)"/><path class="cls-20" d="M517.56,471.88s-11.17-4.11-11.82,1.26c-.58,4.83,10,21.16,10,21.16a6.84,6.84,0,0,0,5.33-1.93l-3.42-10.76,6.71-.78-2.26-7.44Z" transform="translate(-405.73 -336.93)"/><path class="cls-21" d="M532.29,473.34l2.86,39.95-4.73.31L520.52,473S524.26,474.6,532.29,473.34Z" transform="translate(-405.73 -336.93)"/><path class="cls-22" d="M519.47,462.26s3.88-1.53,3.43-6.54-4.42-16.2-4.55-18.06c-.21-3.4,4.9-4.1,2.94-4.09-2.52,0-4.2-1-4.56,1.62-.26,1.84-.64,19.17-.14,22.06S516.65,462.4,519.47,462.26Z" transform="translate(-405.73 -336.93)"/><path class="cls-23" d="M532.7,475.89h0c0-.12,0-.24-.07-.37h0c-.76-4.91-1.45-8,.59-12.63,2.92-6.6-2.23-8-5.36-9s-8.42-1.49-10.48,3.92c-1.48,3.91-2.14,9.44-1,13.64C517.64,476.26,534.36,481.34,532.7,475.89Z" transform="translate(-405.73 -336.93)"/><path class="cls-24" d="M527.86,453.92c-.3-.09-.62-.18-1-.25.26.75.62,1.6,1,2.44,1.09,2.85.06,4.46-4.88,5.23s.38,3.76,3.45,4.44-1.38,1.68-5.92,3.1,6.79,2.88,9.24,4.08c1.64.8,1.1,3.54.57,5.28,1.8-.07,2.88-.76,2.39-2.35,0-.12,0-.24-.07-.37-.76-4.91-1.45-8,.59-12.63a8.34,8.34,0,0,0,.85-3.83c-.26-.78-.52-1.55-.82-2.28C532,455.13,529.61,454.45,527.86,453.92Z" transform="translate(-405.73 -336.93)"/><path class="cls-22" d="M528.23,463.6s3.76,1.8,7.13-1.94,9.89-14.16,10.26-16,6.24-.23,4.86-1.63-2.09-2.4-4.28-.86c-1.5,1.06-14.47,12.57-16.25,14.89S526.21,461.62,528.23,463.6Z" transform="translate(-405.73 -336.93)"/><path class="cls-7" d="M531.72,452s-2.68.91-2.41,3.16-7.46-.21-6.26-1.12c1.55-1.18,3.06-1.27,4-3.49Z" transform="translate(-405.73 -336.93)"/><path class="cls-8" d="M532.38,445.68c-2.25-.1-8.39,3.37-8.27,5.66.06,1,2.74,2.7,6.25,2a5.7,5.7,0,0,0,4.6-3.67C535.32,448.56,535,445.81,532.38,445.68Z" transform="translate(-405.73 -336.93)"/><path class="cls-9" d="M530.62,445.06c-.86.32-.93.54.58,2.66s1.93,2.32,1.31,2.56c-1.83.7-.3,1.78-2.5,2.6s.24,1.46,2.17.92a4.89,4.89,0,0,0,3.43-3.3C536.83,447.28,533.81,443.84,530.62,445.06Z" transform="translate(-405.73 -336.93)"/><path class="cls-10" d="M535.61,450.5a4.83,4.83,0,0,1-3.43,3.3c-1.44.39-3.18.16-3-.35s1.48.42,2.25-1,1.69-.89,2.48-2-.09-1.62-1.78-4c-.69-1-.52-1.45-.08-1.68C534.61,444.87,536.52,447.71,535.61,450.5Z" transform="translate(-405.73 -336.93)"/><rect class="cls-25" x="518.84" y="395.43" width="38.09" height="52.43" transform="translate(-457.44 430.39) rotate(-68.48)"/><rect class="cls-13" x="533.53" y="392.36" width="14.78" height="44.15" transform="translate(-448.83 428.63) rotate(-68.47)"/><rect class="cls-13" x="531.9" y="408.22" width="5.53" height="44.16" transform="translate(-467.55 432.83) rotate(-68.47)"/><rect class="cls-3" x="217.54" y="60.77" width="67.66" height="117.47" rx="9.4"/><path class="cls-4" d="M686.09,412.1a8,8,0,0,0-8.05-8.05H636.15a8.05,8.05,0,0,0-8,8.05v84.58c0,.13,0,.25,0,.37h57.91c0-.12,0-.24,0-.37Z" transform="translate(-405.73 -336.93)"/><path class="cls-26" d="M663,506.65a5.22,5.22,0,1,1-5.22-5.21A5.22,5.22,0,0,1,663,506.65Z" transform="translate(-405.73 -336.93)"/><rect class="cls-27" x="201.56" y="61.56" width="13.25" height="87.47"/><rect class="cls-14" x="204.23" y="63.94" width="7.91" height="7.95"/><rect class="cls-25" x="204.23" y="74.55" width="7.91" height="7.95"/><rect class="cls-4" x="204.23" y="85.15" width="7.91" height="7.95"/><rect class="cls-21" x="204.23" y="95.75" width="7.91" height="7.95"/><rect class="cls-13" x="204.23" y="106.35" width="7.91" height="7.95"/><rect class="cls-3" x="204.23" y="116.96" width="7.91" height="7.95"/><rect class="cls-20" x="204.23" y="127.56" width="7.91" height="7.95"/><rect class="cls-14" x="204.23" y="138.16" width="7.91" height="7.95"/><rect class="cls-3" x="229.42" y="75.44" width="43.89" height="76.13"/><rect class="cls-28" x="229.42" y="75.44" width="43.89" height="7.29"/><path class="cls-26" d="M673.34,432.85a3.64,3.64,0,0,1-3.64,3.64H644.07a3.64,3.64,0,0,1-3.65-3.64h0a3.64,3.64,0,0,1,3.65-3.65H669.7a3.64,3.64,0,0,1,3.64,3.65Z" transform="translate(-405.73 -336.93)"/><path class="cls-26" d="M673.34,445.66a3.64,3.64,0,0,1-3.64,3.64H644.07a3.64,3.64,0,0,1-3.65-3.64h0a3.64,3.64,0,0,1,3.65-3.64H669.7a3.64,3.64,0,0,1,3.64,3.64Z" transform="translate(-405.73 -336.93)"/><path class="cls-14" d="M666.3,456.72a3.14,3.14,0,0,1-3.14,3.14H650.6a3.15,3.15,0,0,1-3.14-3.14h0a3.14,3.14,0,0,1,3.14-3.14h12.56a3.13,3.13,0,0,1,3.14,3.14Z" transform="translate(-405.73 -336.93)"/><path class="cls-14" d="M673.34,424.3a1.38,1.38,0,0,1-1.38,1.38H641.81a1.38,1.38,0,0,1-1.39-1.38h0a1.38,1.38,0,0,1,1.39-1.38H672a1.38,1.38,0,0,1,1.38,1.38Z" transform="translate(-405.73 -336.93)"/><rect class="cls-26" x="231.18" y="77.2" width="6.53" height="0.75"/><rect class="cls-26" x="231.18" y="78.71" width="6.53" height="0.76"/><rect class="cls-26" x="231.18" y="80.22" width="6.53" height="0.75"/><path class="cls-21" d="M645.27,447a.92.92,0,1,1-.91-.92A.92.92,0,0,1,645.27,447Z" transform="translate(-405.73 -336.93)"/><circle class="cls-21" cx="241.45" cy="110.08" r="0.92"/><path class="cls-21" d="M650.93,447a.92.92,0,1,1-.92-.92A.92.92,0,0,1,650.93,447Z" transform="translate(-405.73 -336.93)"/><path class="cls-21" d="M653.76,447a.92.92,0,1,1-.92-.92A.92.92,0,0,1,653.76,447Z" transform="translate(-405.73 -336.93)"/><path class="cls-21" d="M656.59,447a.92.92,0,1,1-.92-.92A.92.92,0,0,1,656.59,447Z" transform="translate(-405.73 -336.93)"/><path class="cls-21" d="M659.41,447a.92.92,0,1,1-.91-.92A.92.92,0,0,1,659.41,447Z" transform="translate(-405.73 -336.93)"/><rect class="cls-29" x="528.23" y="466.56" width="90.13" height="24.87" transform="translate(-570.28 259.03) rotate(-48.89)"/><rect class="cls-14" x="583.67" y="445.83" width="19.95" height="19.69" transform="translate(-545.75 266.32) rotate(-48.88)"/><rect class="cls-25" x="568.94" y="462.71" width="19.95" height="19.69" transform="translate(-563.53 260.93) rotate(-48.88)"/><rect class="cls-4" x="554.2" y="479.59" width="19.95" height="19.69" transform="translate(-581.28 255.65) rotate(-48.88)"/><rect class="cls-30" x="536.68" y="478.23" width="90.13" height="24.87" transform="translate(-560.12 -39.36) rotate(-25.45)"/><rect class="cls-13" x="599.72" y="467.52" width="19.95" height="19.69" transform="translate(-551.66 -28.8) rotate(-25.44)"/><rect class="cls-27" x="579.48" y="477.15" width="19.95" height="19.69" transform="translate(-557.76 -36.54) rotate(-25.44)"/><rect class="cls-21" x="559.25" y="486.78" width="19.95" height="19.69" transform="translate(-563.89 -44.16) rotate(-25.45)"/><rect class="cls-17" x="539.97" y="493.18" width="90.13" height="24.87" transform="translate(-414.26 -326.88) rotate(-0.98)"/><rect class="cls-21" x="606.01" y="495.24" width="19.95" height="19.69" transform="translate(-414.24 -326.36) rotate(-0.98)"/><rect class="cls-4" x="583.6" y="495.62" width="19.95" height="19.69" transform="translate(-414.3 -326.68) rotate(-0.98)"/><rect class="cls-14" x="561.2" y="496.01" width="19.95" height="19.69" transform="translate(-414.34 -327.03) rotate(-0.98)"/><path class="cls-31" d="M552,508.94a3.63,3.63,0,1,1-.34-5.12A3.61,3.61,0,0,1,552,508.94Z" transform="translate(-405.73 -336.93)"/><path class="cls-32" d="M687.56,496.94c.55,5.13,2.63,12,2.45,15.44,0,.55-.12.74-2,1s-.3,1.54,2.74,1.94,3.45-14.38,3-21.4C693.31,487.78,686.92,491,687.56,496.94Z" transform="translate(-405.73 -336.93)"/><path class="cls-33" d="M692.31,514.06s-2.82.74-4.25-.67c0,0-3,0-1.3,1.07S692,516.76,692.31,514.06Z" transform="translate(-405.73 -336.93)"/><rect class="cls-21" x="260.82" y="75.18" width="3.94" height="102.76"/><rect class="cls-21" x="274.58" y="75.18" width="3.94" height="102.76"/><rect class="cls-21" x="260.86" y="80.28" width="16.86" height="4.51"/><rect class="cls-21" x="260.86" y="92.41" width="16.86" height="4.51"/><rect class="cls-21" x="260.86" y="105.76" width="16.86" height="4.51"/><rect class="cls-21" x="260.86" y="122.74" width="16.86" height="4.51"/><rect class="cls-21" x="260.86" y="136.09" width="16.86" height="4.51"/><rect class="cls-21" x="260.86" y="151.87" width="16.86" height="4.51"/><rect class="cls-21" x="260.86" y="165.21" width="16.86" height="4.51"/><path class="cls-34" d="M690.06,470.11a28.22,28.22,0,0,0-1.94,5.61c-1.89,9.31-1.84,10.44-1.87,13.06-.06,4.48-.24,13.16,3.25,20.77.33.74,3.69,1,3.86,0,1.24-7.23,2.56-8.37,1.47-16.68l2.76-8.66c2.35-7.3,2-8.48.78-12.18Z" transform="translate(-405.73 -336.93)"/><path class="cls-32" d="M672.37,480.87c.55,5.13,2.62,12,2.45,15.44,0,.55-.13.75-2,1s-.29,1.53,2.74,1.93,3.45-14.38,2.95-21.4C678.11,471.71,671.72,474.91,672.37,480.87Z" transform="translate(-405.73 -336.93)"/><path class="cls-33" d="M677.11,498s-2.81.74-4.25-.66c0,0-3,0-1.29,1.06S676.8,500.69,677.11,498Z" transform="translate(-405.73 -336.93)"/><path class="cls-18" d="M686.07,469.32s-10.51-8.25-13.9-3.19c-3,4.54.57,24.71.57,24.71a7.69,7.69,0,0,0,6.33.79l1.48-14.17s9.8,6.24,13.16,3.92c5.27-3.62.72-11.81.72-11.81Z" transform="translate(-405.73 -336.93)"/><path class="cls-35" d="M684.24,439.24s-2.25-4.61-2.64-3,.53,1.31,1.3,3.7Z" transform="translate(-405.73 -336.93)"/><path class="cls-23" d="M699.41,454.86c.55.65,1.41,3-.47,3.38-3,.66-10.07-3.46-11.63-5.06s-4.61-13.55-4.61-13.55a1.34,1.34,0,0,1,1.81-.48l6.8,10.65S697.49,452.6,699.41,454.86Z" transform="translate(-405.73 -336.93)"/><path class="cls-23" d="M689.74,452.4c-2.47,1.49-4.88,5.51-7.35,19.29-.54,3,17.08,5.74,17.49,2.69,1.07-8.12.06-11.63-1.45-19.23C698,453.08,694.64,449.43,689.74,452.4Z" transform="translate(-405.73 -336.93)"/><path class="cls-35" d="M671.61,439.24s-.49-4.59-1.49-3.37-.78,1.85.21,4.16Z" transform="translate(-405.73 -336.93)"/><path class="cls-23" d="M688.21,453.32c.62.6,1.69,2.83-.14,3.41-2.91.94-10.36-2.47-12.07-3.92s-5.88-13-5.88-13a1.33,1.33,0,0,1,1.74-.65l7.8,9.94S686.08,451.25,688.21,453.32Z" transform="translate(-405.73 -336.93)"/><path class="cls-10" d="M692.9,439.2c-1.93,0-4.46,1.35-4.86,5.13s-.51,3.83-1.92,5.08C682.5,452.62,690,455,687,458c-13.22,13,13.29,13.89,12.62,10.33-1.31-6.84,3.14-4.78,2.78-9.83-.15-2,2.95-3.89-.57-6.78-1.15-1,1.56-5.14-1.37-6.34S700.36,439,692.9,439.2Z" transform="translate(-405.73 -336.93)"/></g></svg>