<svg xmlns="http://www.w3.org/2000/svg" viewBox="0 0 343.98 285.84"><defs><style>.cls-1{fill:#aee4ed;}.cls-2{fill:#30c5cc;}.cls-3{fill:#3d9cff;}.cls-4{fill:#0b9b9b;}.cls-5{fill:#c6f4ff;}.cls-6{fill:#db5a28;}.cls-7{fill:#2f2f8e;}.cls-8{fill:#4c49a2;}.cls-9{fill:#fff;}.cls-10{fill:#e67750;}.cls-11{fill:#efefef;}.cls-12{fill:#fd9e71;}.cls-13{fill:#201251;}.cls-14{fill:#31d0a8;}.cls-15{fill:#feba40;}.cls-16{fill:#fedb9b;}.cls-17{fill:#4cb0dd;}.cls-18{fill:#75d5ef;}.cls-19{fill:#fdbe44;}.cls-20{fill:#98dbe5;}.cls-21{fill:#86d2e8;}.cls-22{fill:#f6fffa;}.cls-23{fill:#ffe780;}.cls-24{fill:#1fb288;}.cls-25{fill:#9e472d;}.cls-26{fill:#262845;}.cls-27{fill:#6aa5cc;}.cls-28{fill:#96c4ea;}.cls-29{fill:#1a133a;}.cls-30{fill:#e79673;}</style></defs><g id="object"><path class="cls-1" d="M527.75,566c0,3.31-20.32,6-45.39,6S437,569.33,437,566s20.32-6,45.39-6S527.75,562.72,527.75,566Z" transform="translate(-389.28 -286.17)"/><ellipse class="cls-1" cx="298.09" cy="272.37" rx="45.89" ry="4.49"/><polygon class="cls-2" points="14.18 221.61 8.78 221.61 8.78 216.21 5.4 216.21 5.4 221.61 0 221.61 0 224.98 5.4 224.98 5.4 230.38 8.78 230.38 8.78 224.98 14.18 224.98 14.18 221.61"/><path class="cls-3" d="M408.38,497.84A3.34,3.34,0,1,1,405,494.5,3.34,3.34,0,0,1,408.38,497.84Z" transform="translate(-389.28 -286.17)"/><rect class="cls-2" x="25.29" y="21.47" width="291.22" height="233.44" rx="18.48"/><rect class="cls-4" x="451.78" y="287.55" width="216.82" height="273.62" rx="12.01" transform="translate(595.27 -422) rotate(90)"/><rect class="cls-5" x="41.27" y="36.05" width="259.28" height="204.28" rx="7.76"/><path class="cls-4" d="M397.09,526.05a33.35,33.35,0,0,0,28.47,16.1H694.82a33.35,33.35,0,0,0,28.47-16.1Z" transform="translate(-389.28 -286.17)"/><path class="cls-2" d="M400.57,530.77H719.8a33.65,33.65,0,0,0,3.49-4.72H397.09A33.59,33.59,0,0,0,400.57,530.77Z" transform="translate(-389.28 -286.17)"/><rect class="cls-6" x="61.65" y="157.48" width="72.49" height="40.57"/><rect class="cls-2" x="132.56" y="53.62" width="27.27" height="3.76"/><rect class="cls-2" x="97.3" y="53.62" width="16.65" height="3.76"/><rect class="cls-2" x="59.28" y="53.62" width="32.98" height="3.76"/><rect class="cls-2" x="119.16" y="53.62" width="7.15" height="3.76"/><rect class="cls-2" x="166.77" y="53.62" width="16.59" height="3.76"/><rect class="cls-2" x="132.56" y="64.6" width="10.23" height="3.76"/><rect class="cls-2" x="146.86" y="64.6" width="10.23" height="3.76"/><rect class="cls-2" x="80.34" y="64.6" width="16.65" height="3.76"/><rect class="cls-2" x="59.28" y="64.6" width="16.33" height="3.76"/><rect class="cls-2" x="101.55" y="64.6" width="27.42" height="3.76"/><path class="cls-7" d="M496.66,559.13c-1.73-5.53-5.07-28.94-5.82-38.11-.16-1.94-21.49-10.28-21.49-10.28-12.49-.31-18.92,4.59-18.92,4.59l30,10.12c0,13.53,11.53,33.92,11.53,33.92Z" transform="translate(-389.28 -286.17)"/><path class="cls-8" d="M470.94,528.14l-8.91,31,5.09,1.11c2.21-7.32,15-32.39,15.38-35.37.15-1.27.05-2.25-.42-2.65s-14.85-9-19-9.92c-5.6-1.26-13.9-3.27-13.9-3.27a16.74,16.74,0,0,0-3.77,12.86C446.3,529.87,470.94,528.14,470.94,528.14Z" transform="translate(-389.28 -286.17)"/><path class="cls-9" d="M458.92,473.61s-9.76.87-10.2,3.53,4.65,19.49,4.65,19.49l-4.95,13.23s14.07,3.47,20.93.88c.65.3,1.76-13.89,1.76-13.89l2.44-7,3.1,10.52,7.09,10,4.66-3.77-5.17-9.09s-8-18.26-10.13-20.38C469.11,473.15,458.92,473.61,458.92,473.61Z" transform="translate(-389.28 -286.17)"/><path class="cls-10" d="M466.65,474.31l-.75-10h-7.32v9.37c-.92.11,1,7.59,6.9,7.59C465.48,481.24,468.23,480.24,466.65,474.31Z" transform="translate(-389.28 -286.17)"/><path class="cls-11" d="M451.82,491.31c.86,3,1.55,5.32,1.55,5.32l-4.95,13.23s10.7,2.64,18,1.6c-.65-.48-9.29-6.3-9.71-8.84C455.81,497.3,451.82,491.31,451.82,491.31Z" transform="translate(-389.28 -286.17)"/><path class="cls-12" d="M473.17,454.15c-.62-2.57-4.63-3.32-11-2.57-4.31.5-5.28,4.47-5.4,7.42l-.19,0a3.51,3.51,0,0,0-2.47,3.48,3.41,3.41,0,0,0,.85,2.13,3.59,3.59,0,0,0,2.61,1.66,3.38,3.38,0,0,0,.9,0c1.8,3.73,5.09,8.38,9.7,7.83C475,469.39,473.17,454.15,473.17,454.15Z" transform="translate(-389.28 -286.17)"/><path class="cls-13" d="M458.66,460.91a4.91,4.91,0,0,1,1.76-5.73c3.16-2.37,3.37,1.13,6.7,1.56s6.61.16,6.25,2.36c2-5-.9-7.81-4.15-9.37s-8.36-2.23-11.9.73-3.06,10.05-3.06,10.05C456.59,459.38,457.22,460.29,458.66,460.91Z" transform="translate(-389.28 -286.17)"/><path class="cls-13" d="M457.32,450.46s-2.94-7.9-8.51-5.95-3.06,13.18-3.67,18.07-4.11,5.09-5.37,2.92c-2.33,4.43,6.79,8.93,9.77,4.68s1.26-15,3.15-16.14a3.71,3.71,0,0,1,3.82.33Z" transform="translate(-389.28 -286.17)"/><path class="cls-9" d="M448.94,476.25c-2.35,1.35-6.65,17.5-6.65,20.16s20.77,15.91,20.77,15.91.95-3.27,3.17-3.94c-.44-.22-15.52-14.63-15.52-14.63l4-11.29S454.7,472.92,448.94,476.25Z" transform="translate(-389.28 -286.17)"/><polygon class="cls-2" points="72.18 228.18 93.35 227.53 107.1 232.63 83.83 233.87 72.18 228.18"/><polygon class="cls-4" points="83.83 233.87 72.18 229.35 72.18 228.18 84.75 232.71 83.83 233.87"/><polygon class="cls-4" points="83.83 233.87 90.83 214.76 113.97 216 107.1 233.07 83.83 233.87"/><path class="cls-2" d="M487.33,509.38c-.69,1.38-.48,2.88.46,3.35s2.27-.26,3-1.63.48-2.88-.47-3.35S488,508,487.33,509.38Z" transform="translate(-389.28 -286.17)"/><path class="cls-12" d="M466.23,508.38s8.43,6.65,7.54,7.1a10.47,10.47,0,0,1-6.65-.67c-2-1.11-4.06-2.49-4.06-2.49S463.79,508.6,466.23,508.38Z" transform="translate(-389.28 -286.17)"/><path class="cls-13" d="M467.34,558.71c1.49,1.51,6.58,3.81,9.09,4.43,2.69.67,2.22,2.92.25,2.92-3.85,0-12.43-.48-16.66-.48-.66-2,.48-4.66,1.83-6.46C462.26,558.57,467.12,558.49,467.34,558.71Z" transform="translate(-389.28 -286.17)"/><path class="cls-13" d="M497.71,558.71c1.5,1.51,6.58,3.81,9.09,4.43,2.69.67,2.22,2.92.25,2.92-3.85,0-12.43-.48-16.65-.48-.67-2,.48-4.66,1.82-6.46C492.63,558.57,497.5,558.49,497.71,558.71Z" transform="translate(-389.28 -286.17)"/><rect class="cls-14" x="62.04" y="141.71" width="20.33" height="5.6"/><rect class="cls-14" x="113.81" y="141.71" width="20.33" height="5.6"/><rect class="cls-14" x="87.93" y="141.71" width="20.33" height="5.6"/><rect class="cls-15" x="521.62" y="327.38" width="66.33" height="24.71" transform="translate(-454.23 -144.29) rotate(-13.78)"/><rect class="cls-16" x="523.53" y="332.19" width="48.85" height="3.42" transform="translate(-453.03 -146.08) rotate(-13.78)"/><rect class="cls-16" x="525.1" y="339.04" width="40.82" height="3.42" transform="translate(-454.74 -146.46) rotate(-13.78)"/><rect class="cls-16" x="526.99" y="348.05" width="19.37" height="3.42" transform="translate(-457.14 -148.31) rotate(-13.78)"/><rect class="cls-9" x="567.16" y="332.55" width="10.37" height="3.41" transform="translate(-452.42 -140.26) rotate(-13.78)"/><rect class="cls-9" x="61.28" y="76.49" width="72.35" height="59.04"/><rect class="cls-17" x="139.04" y="110.54" width="142.28" height="26.62"/><rect class="cls-9" x="238.56" y="114.4" width="38.5" height="18.92"/><rect class="cls-18" x="144.24" y="115.55" width="89" height="3.65"/><rect class="cls-18" x="144.24" y="122.03" width="89" height="3.65"/><rect class="cls-18" x="144.24" y="128.52" width="59.92" height="3.65"/><rect class="cls-9" x="139.07" y="156.19" width="136.73" height="64.15"/><rect class="cls-19" x="139.07" y="156.19" width="136.73" height="10.64"/><rect class="cls-20" x="142.39" y="181.95" width="78.95" height="5.41"/><rect class="cls-20" x="142.39" y="191.58" width="70.8" height="5.42"/><rect class="cls-20" x="142.39" y="201.2" width="47.75" height="5.42"/><rect class="cls-20" x="142.39" y="173.08" width="28.46" height="5.42"/><rect class="cls-21" x="229.03" y="172.82" width="41.3" height="41.3"/><path class="cls-22" d="M643.19,479.37a5.25,5.25,0,0,0,1-3.13v-3.15a5.26,5.26,0,1,0-10.52,0v3.15a5.23,5.23,0,0,0,1.14,3.26,12.41,12.41,0,0,0-8.29,11.7h26S651.56,481.79,643.19,479.37Z" transform="translate(-389.28 -286.17)"/><circle class="cls-6" cx="146.14" cy="161.77" r="2.68"/><circle class="cls-23" cx="154.74" cy="161.77" r="2.68"/><circle class="cls-24" cx="164.71" cy="161.77" r="2.68"/><rect class="cls-6" x="229.25" y="51.06" width="47.89" height="47.89"/><path class="cls-25" d="M685.58,550s.42,1.26-3.45,3-7.94,1.14-8.94,2.62a8.05,8.05,0,0,0-1.23,2.89h22s-.17-6.07-2.66-8.77C691.6,550.3,685.58,550,685.58,550Z" transform="translate(-389.28 -286.17)"/><path class="cls-25" d="M709.52,550s.4,1.21-3.32,2.91-7.63,1.09-8.6,2.52a7.71,7.71,0,0,0-1.18,2.77h21.13s-.16-5.84-2.55-8.43C715.3,550.28,709.52,550,709.52,550Z" transform="translate(-389.28 -286.17)"/><polygon class="cls-9" points="291.97 148.21 276.01 151.02 264.79 127 281.97 125.59 291.97 148.21"/><path class="cls-26" d="M661.33,432h0C661.28,432,661.28,432,661.33,432Z" transform="translate(-389.28 -286.17)"/><path class="cls-12" d="M692.3,389.32a21.29,21.29,0,0,0-2.11,8.06c0,2.7.35,6.6.55,8.7a1.22,1.22,0,0,0,1.57,1l3.14-1-.17,4.56,8.78-.15L706,392.12S698.61,384.06,692.3,389.32Z" transform="translate(-389.28 -286.17)"/><path class="cls-13" d="M693,399s.49-3.65,3.25-2.9-.4,4.44-.4,4.44l2.63,4.74a8.11,8.11,0,0,0,6.13-.18s2.93-8.88,2.93-11.69-2.56-4.7-2.56-4.7-6.85-3.43-10.54-3.25a4.28,4.28,0,0,0-4,3.86s-1.4,2.8,0,4S693,399,693,399Z" transform="translate(-389.28 -286.17)"/><path class="cls-27" d="M704.46,408l-.4,2.54-9.07,0S696.74,407.79,704.46,408Z" transform="translate(-389.28 -286.17)"/><path class="cls-12" d="M665.64,430.7s.64-2-1.93-3.15a7.3,7.3,0,0,0-1.05-3.33c-.54-.54-.87,2.45-.87,2.45s-2.52-4.47-3.16-3.33,5.67,9.94,5.84,10.29S665.64,430.7,665.64,430.7Z" transform="translate(-389.28 -286.17)"/><path class="cls-13" d="M689.26,459.58,683.18,511l1.23,39.87,7.65-.54s2.17-21,2.34-26.24-1.4-13.32-1.4-13.32l7.72-31.8,1.28.23.35,31.33,7,39.8,6.43.31s.16-20.52-.36-25.61-3.28-15.26-3.28-15.26L715,477.35a25.07,25.07,0,0,0-2.22-18.12C712.11,459.29,689.26,459.58,689.26,459.58Z" transform="translate(-389.28 -286.17)"/><path class="cls-28" d="M695,410.6s-10.88,3.5-12.86,5.49-7.69,22.47-7.69,22.47l-8.59-8.6-2.66,6.24s10,15,13.21,15.43,10.29-18.94,10.29-18.94.64,10.6,1.87,15.9a33.23,33.23,0,0,1,.7,11c9.73,1.77,18,1.4,23.5-.35l2.72-20.42s3.71.43,4.88-.86-4.21-22.44-5.38-24.08-10.92-3.31-10.92-3.31Z" transform="translate(-389.28 -286.17)"/><path class="cls-27" d="M705.57,424.64c-.05-.42-.74-.32-.72.1a132.92,132.92,0,0,1-1.36,26.06c-.09.58.78.85.91.25A75.67,75.67,0,0,0,705.57,424.64Z" transform="translate(-389.28 -286.17)"/><path class="cls-27" d="M715.55,431.15c-.06-.29-.5-.22-.51.07a87.17,87.17,0,0,1-1.7,15.09A53.28,53.28,0,0,0,712,459.86c0,.64,1,.65,1,0-.22-5.3.85-10.41,1.82-15.58C715.59,440,716.42,435.5,715.55,431.15Z" transform="translate(-389.28 -286.17)"/><path class="cls-27" d="M687.68,431c-2.92,1.86-4,5.49-5.13,8.58-1.51,4.18-3,8.29-6.32,11.42-.49.47.25,1.19.74.74,6.08-5.47,5.79-14.41,11-20.39C688.1,431.16,687.9,430.85,687.68,431Z" transform="translate(-389.28 -286.17)"/><path class="cls-25" d="M712.87,457.71s-14.73,1.87-23.61-.94c.23,0,0,2.81,0,2.81a44.68,44.68,0,0,0,24.32.94C713.47,460.47,712.87,457.71,712.87,457.71Z" transform="translate(-389.28 -286.17)"/><path class="cls-29" d="M560.45,517.58s-1.22,2.66-3.32,3.11-7.65,1.66-8.54,2.44-.89,2.77-.89,2.77h17.6s0-5.33-1.06-8.1C564.66,517.81,560.45,517.58,560.45,517.58Z" transform="translate(-389.28 -286.17)"/><path class="cls-29" d="M594.37,517.58s-1.22,2.66-3.33,3.11-7.64,1.66-8.53,2.44-.89,2.77-.89,2.77h17.59s0-5.33-1.05-8.1C598.58,517.81,594.37,517.58,594.37,517.58Z" transform="translate(-389.28 -286.17)"/><path class="cls-30" d="M592.21,344.68s-4.9-1.25-5.19-.47,7.57,3.11,7.57,3.11L601.68,367,599,373.26l4.87,5.32s5.32-7.2,5.77-9.31S597,346,597,346s-2.6-8.25-3-8.64-5.09-.15-6.15-.13,3.09,4.22,3.09,4.22Z" transform="translate(-389.28 -286.17)"/><path class="cls-30" d="M573.15,359.23a18,18,0,0,0-2.83,6.77,22.92,22.92,0,0,0,.16,6.82l4.29-.14v4h8.52a44.21,44.21,0,0,1,.49-4.69c.34-1.67,2.66-4.83,2.66-4.83l-3.82-10.8-5.49-.5Z" transform="translate(-389.28 -286.17)"/><path class="cls-13" d="M575.3,364.34s1.5-3.49,3.33-2.16-.5,4.15-.5,4.15,1.16,4.82,3.16,5.49l2,.66s5.15-4.82,6-6.15-1.33-9-2.83-10.64-8-1.5-8.48-2.33-2.16-2.32-3.82-1.66-1.33,6.15-1.33,6.15,2.06,1.77,2.19,3a6.23,6.23,0,0,1-.81,3Z" transform="translate(-389.28 -286.17)"/><path class="cls-13" d="M567.25,376.94s8.5-1.24,13.38-1.35S593.26,378,593.26,378l5.65-6,7.19,6.76s-6.12,9-8.09,11.15-3.42,12-3.86,15-1.55,20.51-1.55,20.51-5.21,6.21-26.61-.56c-.22-.22.89-12.85.78-16s-2.88-13.63-3.44-16.18-9.39-7.65-9.39-7.65-1.09-6.21,3-9.2C557.46,376.14,567.25,376.94,567.25,376.94Z" transform="translate(-389.28 -286.17)"/><path class="cls-30" d="M547.48,351.53s-3.21,3-3.43,4.22,4.42,15.1,4.42,15.1l8.46,5-3,9.2s-9.23-6.43-10.56-8.31S539.72,356,539.72,356s-3-3.77-3.21-4.77-.92-4.26-.41-4.9,3.95-4.19,4.45-3.14,2.35,8.74,2.35,8.74S546.71,350.2,547.48,351.53Z" transform="translate(-389.28 -286.17)"/><path class="cls-8" d="M566,424.8l-4.82,45.45-2.49,48.22,8.31.33s5.16-32,5.24-36.86-.08-10.69-.08-10.69L577.47,447h3l6.15,31.6,6.32,39.24,6.65.33s1-24.44,0-29.43-2.49-9.81-2.49-9.81l-3-32.76s2.66-11.64-1.49-20.78C591.77,423.7,566,424.8,566,424.8Z" transform="translate(-389.28 -286.17)"/><polygon class="cls-19" points="125.91 86.93 120.51 86.93 120.51 81.53 117.14 81.53 117.14 86.93 111.73 86.93 111.73 90.3 117.14 90.3 117.14 95.71 120.51 95.71 120.51 90.3 125.91 90.3 125.91 86.93"/><path class="cls-2" d="M464.9,414.8a8.45,8.45,0,1,1,8.45-8.45A8.46,8.46,0,0,1,464.9,414.8Zm0-12.48a4,4,0,1,0,4,4A4,4,0,0,0,464.9,402.32Z" transform="translate(-389.28 -286.17)"/><polygon class="cls-2" points="335.41 51.02 330.01 51.02 330.01 45.61 326.64 45.61 326.64 51.02 321.24 51.02 321.24 54.39 326.64 54.39 326.64 59.79 330.01 59.79 330.01 54.39 335.41 54.39 335.41 51.02"/><path class="cls-3" d="M697.69,300.31a3.34,3.34,0,1,1-3.34-3.34A3.34,3.34,0,0,1,697.69,300.31Z" transform="translate(-389.28 -286.17)"/><path class="cls-15" d="M632.5,358.94a8.45,8.45,0,1,1,8.45-8.45A8.46,8.46,0,0,1,632.5,358.94Zm0-12.49a4,4,0,1,0,4,4A4,4,0,0,0,632.5,346.45Z" transform="translate(-389.28 -286.17)"/><path class="cls-15" d="M677.39,303.07a8.45,8.45,0,1,1,8.45-8.45A8.47,8.47,0,0,1,677.39,303.07Zm0-12.49a4,4,0,1,0,4,4A4,4,0,0,0,677.39,290.58Z" transform="translate(-389.28 -286.17)"/></g></svg>